<svg xmlns="http://www.w3.org/2000/svg" viewBox="0 0 170.56 94.56"><defs><style>.cls-1{fill:#4d4d4d;}.cls-2{fill:#4a4a4a;}.cls-3{fill:#424242;}.cls-4{fill:#464646;}.cls-5{fill:#ccc;}.cls-6{fill:#434343;}.cls-7{fill:#c6c6c6;}.cls-8{fill:#393939;}.cls-9{fill:#404040;}.cls-10{fill:#484848;}.cls-11{fill:#414141;}.cls-12{fill:#313131;}.cls-13{fill:#c3c3c3;}.cls-14{fill:#353535;}.cls-15{fill:#2c2c2c;}.cls-16{fill:#bebebe;}.cls-17{fill:#bfbfbf;}.cls-18{fill:#3c3c3c;}.cls-19{fill:#b9b9b9;}.cls-20{fill:#2e2e2e;}.cls-21{fill:#242424;}.cls-22{fill:#bababa;}.cls-23{fill:#0f0f0f;}.cls-24{fill:#141414;}.cls-25{fill:#1c1c1c;}.cls-26{fill:#161616;}.cls-27{fill:#212121;}.cls-28{fill:#b4b4b4;}.cls-29{fill:#b8b8b8;}.cls-30{fill:#b0b0b0;}.cls-31{fill:#acacac;}.cls-32{fill:#a6a6a6;}.cls-33{fill:#aeaeae;}</style></defs><g id="Слой_2" data-name="Слой 2"><g id="Слой_1-2" data-name="Слой 1"><path class="cls-1" d="M119.32,5.31a.17.17,0,0,0,.24.06c.41.26,1,0,1.35.41l0,0c.35.3.93,0,1.24.41l0,0c.35.32.93,0,1.24.43l0,0c.25.17.6.11.84.33a.25.25,0,0,0,.28.07c.3.15.66.11.93.35a.14.14,0,0,0,.21.06c.33.12.72.09,1,.38h0a2,2,0,0,1,.36.51c.32,1.8-.75,2-2.14,1.91-3-.23-3-.22-3,2.8,0,2.18-.51,4.34-.15,6.56a3.33,3.33,0,0,1-1.75,3.17c-5.35,3.74-10.71,7.46-16.18,11a23,23,0,0,1-6.34,2.38c-.88.25-2,.52-2.45-.58s.64-1.52,1.38-1.9c4.65-2.39,9.09-5.18,12.07-6.47-5.75,2.33-13.49,5-21.23,7.64a35.43,35.43,0,0,0-5,2.07,3.74,3.74,0,0,1-2.89.4c-11.1-3.12-22.5-4.89-33.7-7.54A48.8,48.8,0,0,0,33.27,28c-6,.16-12.12-.32-18.11.83-2.39.45-4.18,1.45-5,4a5,5,0,0,1-4.88,3.51c-1.7.06-2.22.84-2.64,2.3s-.74,3.26-2.55,4a16.25,16.25,0,0,1,1-6.07,30.94,30.94,0,0,1,6-10.73,48.91,48.91,0,0,1,9.77-8.79A82,82,0,0,1,37,6.91,124.39,124.39,0,0,1,61.27,1.24a147.88,147.88,0,0,1,27.5-1A129.87,129.87,0,0,1,112.06,3.5c.52.12,1,.17,1.57.25.5.39,1.22-.1,1.68.42l0,0c.36.3.9,0,1.24.36a.22.22,0,0,0,.27,0c.4.27,1,0,1.33.39h0C118.43,5.27,119,5,119.32,5.31Z"/><path class="cls-2" d="M.12,42.52a7.75,7.75,0,0,0,.36-.7c.08-.25,0-.61.16-.77C2,39.61,2,37.66,2.55,35.92c.2-.64.43-.83,1-.54a2.71,2.71,0,0,0,2.31.09,1.68,1.68,0,0,1,.38-.12c1.9-.26,2.82-1.53,3.43-3.21,1.28-3.49,1.42-2.92,4.26-3.86a20.84,20.84,0,0,1,3.53-.61c4.05-.61,8.11-.23,12.16-.35a1.27,1.27,0,0,0,.2,0c2-.58,4.09-.2,6.11,0a69.16,69.16,0,0,1,7.29,1c3.37.75,6.76,1.42,10.14,2.15,2.34.5,4.67,1.07,7,1.57,4.42.94,8.84,1.85,13.26,2.78,1.3.28,2.61.54,3.89.88a9.51,9.51,0,0,1,1.84.76,1.7,1.7,0,0,0,1.86-.07A24.54,24.54,0,0,1,86.87,34c3-1,6-2.11,9-3.19l6.94-2.49c1.26-.44,2.51-.89,3.73-1.42,1.46-.62,3-1.06,4.52-1.55a2.33,2.33,0,0,1,.79,0c.06,0,.16.06.16.11s0,.3,0,.34c-.61.41-1.21.82-1.85,1.17-2.93,1.58-5.87,3.13-8.81,4.69-1.87,1-3.75,2-5.62,3-.28.15-.69.33-.48.72s.58.26.91.17c.7-.18,1.42-.36,2.11-.6,1-.33,2-.76,3-1.07a10.11,10.11,0,0,0,2.84-1.43c1.79-1.26,3.6-2.49,5.41-3.73l9.55-6.53c.22-.15.45-.28.67-.44A2.41,2.41,0,0,0,120.83,19a9.59,9.59,0,0,1,0-4.33,10.53,10.53,0,0,0-.14-4.36,1,1,0,0,1,1-1.37,5.43,5.43,0,0,1,1.39.1c.85.15,1.69.36,2.53.53.49.1.67,0,.69-.65a1,1,0,0,1,.32-.87c.39-.17.77-.3,1.08.13l0,0c.28.15.64.11.86.37h0c.23.21.58.14.81.36a.19.19,0,0,0,.25.08c.32.13.71.08.95.4l0,0c.26.18.62.13.84.38h0c.23.22.59.15.82.37h0c.29.4.93,0,1.16.51l0,0c.29.13.67.07.85.42L134,11c.29.14.67.08.85.43l0,0c.29.14.67.08.85.43l-.05,0c.28.15.68.08.85.44l-.06-.06c.21.05.33.22.5.33h0c.19.28.56.18.77.41h0c.2.25.59.17.78.44l0,0c.24.22.64.14.81.46l-.05,0a2.34,2.34,0,0,1,.45.44c1.08,1.07.79,2.25-.49,2.4-3.2.36-4.68,2.83-6.18,4.95-3.25,4.59-7.62,7.69-12.29,10.57-3.45,2.13-6.73,4.54-10.13,6.75a25.61,25.61,0,0,1-12.57,4,7.06,7.06,0,0,0-4.86,1.88A19.11,19.11,0,0,1,85,49.25a71.08,71.08,0,0,1-14.09,2.56c-8.17.64-16.34.8-24.52.71A105.24,105.24,0,0,1,28.2,50.47a1.78,1.78,0,0,1-.94-.3c-2.56-2.5-5.67-1.6-8.5-1.06-4.68.89-9.39.94-14.09,1.23a3.72,3.72,0,0,1-2.09-.54,2.7,2.7,0,0,1-1-1.61c-.36-1.19-.7.07-1,0A13.74,13.74,0,0,1,.12,42.52Z"/><path class="cls-3" d="M3,56c-.27-1.2-1.15-2.17-1.26-3.43-.34-.35,0-.93-.42-1.24v0c-.09-1,.48-1.22,1.31-1.2a1.54,1.54,0,0,1,.5.24,3.15,3.15,0,0,1,.55.89,3.12,3.12,0,0,1,.18.42c.09.2.16.4.24.6a2.92,2.92,0,0,1,.17.36c.09.18.17.36.26.53a1.85,1.85,0,0,1,.21.33,3.62,3.62,0,0,1,.22.32A1.63,1.63,0,0,1,5,54a2.54,2.54,0,0,1,.23.34,2,2,0,0,1,.22.37c.12.18.23.38.34.57l.21.43a1.62,1.62,0,0,1,.23,1.7,2,2,0,0,1-1.62.87,1,1,0,0,1-.49-.22l0,0c-.3-.18-.2-.58-.46-.78h0c-.13-.15-.31-.28-.34-.5l.06.07C3,56.71,3.13,56.29,3,56Z"/><path class="cls-4" d="M2.92,50.52a1.56,1.56,0,0,0-1.64.83,6.47,6.47,0,0,1-.79-3.16c0-.59.05-1.19.1-1.78a.54.54,0,0,1,.5-.53.63.63,0,0,1,.64.38,5.43,5.43,0,0,1,.35.92c.16.71.29,1.43.44,2.14C2.83,49.66,3.23,50,2.92,50.52Z"/><path class="cls-5" d="M145.34,17.69a1.49,1.49,0,0,1,1.2.82l-.14.19a.8.8,0,0,1-.89,0,1,1,0,0,1-.31-.35l-.06-.23,0-.23Z"/><path class="cls-5" d="M139.34,14.11a2,2,0,0,1-.09-.35,1.42,1.42,0,0,1,1.32.71l-.17.2A.83.83,0,0,1,139.34,14.11Z"/><path class="cls-5" d="M115.31,4.17a2.63,2.63,0,0,1-1.68-.42C114.23,3.73,114.86,3.61,115.31,4.17Z"/><path class="cls-5" d="M4.15,58.07l.35.07h.2a.82.82,0,0,1,.36.21.84.84,0,0,1,.15.38.69.69,0,0,1-.26.54l-.06,0A1.31,1.31,0,0,1,4.15,58.07Z"/><path class="cls-5" d="M133.29,10.62a1.6,1.6,0,0,1-1.16-.51C132.59,10.12,133,10.14,133.29,10.62Z"/><path class="cls-5" d="M127.7,8.2l-1.08-.13-.13-.33C127,7.72,127.42,7.73,127.7,8.2Z"/><path class="cls-5" d="M123.31,6.58a1.54,1.54,0,0,1-1.24-.43A1.23,1.23,0,0,1,123.31,6.58Z"/><path class="cls-5" d="M122.11,6.17a1.49,1.49,0,0,1-1.24-.41A1.2,1.2,0,0,1,122.11,6.17Z"/><path class="cls-4" d="M1.28,51.33a1.29,1.29,0,0,1,.42,1.24A1.51,1.51,0,0,1,1.28,51.33Z"/><path class="cls-5" d="M120.91,5.78a1.88,1.88,0,0,1-1.35-.41A1.33,1.33,0,0,1,120.91,5.78Z"/><path class="cls-5" d="M119.32,5.31a1.49,1.49,0,0,1-1.23-.37A1.37,1.37,0,0,1,119.32,5.31Z"/><path class="cls-5" d="M118.11,5a1.78,1.78,0,0,1-1.33-.39A1.37,1.37,0,0,1,118.11,5Z"/><path class="cls-5" d="M116.51,4.51a1.52,1.52,0,0,1-1.24-.36A1.32,1.32,0,0,1,116.51,4.51Z"/><path class="cls-5" d="M144.16,16.87a1.21,1.21,0,0,1,.78.44l-.15.18a1,1,0,0,1-.45.07.67.67,0,0,1-.35-.29V17Z"/><path class="cls-5" d="M143,16.07a1.21,1.21,0,0,1,.78.44l-.22.16a.55.55,0,0,1-.67-.35Z"/><path class="cls-5" d="M141.76,15.27a1.26,1.26,0,0,1,.79.44l-.23.16a.54.54,0,0,1-.67-.35Z"/><path class="cls-5" d="M140.57,14.47l.77.44-.21.17c-.39,0-.75,0-.62-.55Z"/><path class="cls-5" d="M139.3,13.79a1,1,0,0,1-.81-.46A.9.9,0,0,1,139.3,13.79Z"/><path class="cls-5" d="M138.51,13.35a1,1,0,0,1-.78-.44A1,1,0,0,1,138.51,13.35Z"/><path class="cls-5" d="M137.72,12.91a.94.94,0,0,1-.77-.41A1.06,1.06,0,0,1,137.72,12.91Z"/><path class="cls-5" d="M135.69,11.81a1,1,0,0,1-.84-.43A.79.79,0,0,1,135.69,11.81Z"/><path class="cls-5" d="M134.89,11.41a1,1,0,0,1-.84-.43A.79.79,0,0,1,134.89,11.41Z"/><path class="cls-5" d="M126.51,7.75a1.18,1.18,0,0,1-1-.38A1,1,0,0,1,126.51,7.75Z"/><path class="cls-5" d="M134.09,11a1,1,0,0,1-.85-.42A.78.78,0,0,1,134.09,11Z"/><path class="cls-5" d="M132.12,10.1a.94.94,0,0,1-.82-.37A1,1,0,0,1,132.12,10.1Z"/><path class="cls-5" d="M3,56a1.15,1.15,0,0,1,.47.89A.89.89,0,0,1,3,56Z"/><path class="cls-5" d="M131.31,9.73a.93.93,0,0,1-.84-.38A1,1,0,0,1,131.31,9.73Z"/><path class="cls-5" d="M130.51,9.37a1.19,1.19,0,0,1-.95-.4A1,1,0,0,1,130.51,9.37Z"/><path class="cls-5" d="M129.31,8.89a.91.91,0,0,1-.81-.36A1,1,0,0,1,129.31,8.89Z"/><path class="cls-5" d="M128.51,8.54a.93.93,0,0,1-.86-.37A.92.92,0,0,1,128.51,8.54Z"/><path class="cls-5" d="M125.32,7.31a1.09,1.09,0,0,1-.93-.35A1.06,1.06,0,0,1,125.32,7.31Z"/><path class="cls-5" d="M124.11,6.89a.9.9,0,0,1-.84-.33A1,1,0,0,1,124.11,6.89Z"/><path class="cls-5" d="M3.71,57.33a1,1,0,0,1,.46.78A.94.94,0,0,1,3.71,57.33Z"/><path class="cls-5" d="M136.49,12.22a1,1,0,0,1-.84-.44A.79.79,0,0,1,136.49,12.22Z"/><path class="cls-5" d="M144.94,17.31l.4.38-.05,0-.25.1-.21-.16v-.27Z"/><path class="cls-5" d="M143.74,16.51l.42.36,0,0c-.34.16-.43,0-.46-.33Z"/><path class="cls-5" d="M142.55,15.71l.41.36,0,0c-.34.14-.45,0-.46-.34Z"/><path class="cls-5" d="M141.34,14.91l.42.36,0,0c-.32.15-.43,0-.47-.32Z"/><path class="cls-5" d="M3.37,56.82a.53.53,0,0,1,.34.5Z"/><path class="cls-5" d="M136.93,12.49a.5.5,0,0,1-.5-.33Z"/><path class="cls-5" d="M146.93,18.89l.42.38,0,.05-.21.14-.24-.1-.07-.25Z"/><path class="cls-5" d="M146.54,18.51l.39.38-.05.07-.25.08-.21-.16v-.27Z"/><path class="cls-6" d="M147.86,20.06A12.22,12.22,0,0,1,151,22.88c.28,1.45,1.85,1.92,2.42,3.18.26.57.88,1,.66,1.74a2.23,2.23,0,0,1-2.36,1.49,4.36,4.36,0,0,0-3.32,1.56c-3.55,3.6-6.81,7.49-10.54,10.93a2.76,2.76,0,0,0-.88,1.74c-.87,7.47-5.31,12.67-11.06,16.87-7.22,5.27-15.45,8.25-24.13,10.17A106.32,106.32,0,0,1,78.56,73c-2.44,0-4.91.77-7.34.65-5.31-.25-10.63-.34-15.95-.57-4.53-.2-9-.85-13.53-1a53.06,53.06,0,0,1-10.5-1.2,14.42,14.42,0,0,0-8.25.57,1.6,1.6,0,0,1-.61.14,1.32,1.32,0,0,1-.59-.15,2.19,2.19,0,0,1-.46-.34,1.63,1.63,0,0,0-1.52-.82,1.69,1.69,0,0,1-.49-.13,2.62,2.62,0,0,1-.45-.21l-.21-.12-.39-.26c-.13-.08-.25-.17-.37-.26s-.24-.17-.36-.26l-.18-.13a2.71,2.71,0,0,1-.35-.24,2.7,2.7,0,0,1-.34-.25,2.91,2.91,0,0,1-.33-.26L16.18,68a3.88,3.88,0,0,1-.31-.26l-.16-.12c-.11-.08-.22-.17-.33-.24l-.17-.12-.16-.12a2.6,2.6,0,0,1-.33-.25l-.16-.13c-.12-.08-.23-.17-.34-.26L14,66.41,13.45,66a2.66,2.66,0,0,1-.4-.34c-.73-.8-2.06-1.36-1.12-2.82a5.87,5.87,0,0,1,3.64-.76c4.47,0,9,.26,13.38-.09a41.62,41.62,0,0,1,9.92.51c2.73.42,5.18,1.77,7.6,2.94,4.14,2,8.32,2,12.66,1.33,6.51-1,13-2.14,19.37-3.82a19.45,19.45,0,0,1,4.75-.48c8.06-.09,15.91-1.24,23.31-4.64,5.88-2.71,10.46-6.6,11.8-13.34a3.08,3.08,0,0,1,3.29-2.82,4.84,4.84,0,0,0,2.43-.8,28.51,28.51,0,0,1,3.46-2c6.13-2.52,10.15-7.36,14-12.43,1.58-2.11,3.24-4.09,6.21-4,.05-1-.86-1.57-.46-2.43A.45.45,0,0,1,147.86,20.06Z"/><path class="cls-7" d="M154.83,27c1.22.13,1.89,1.16,2.84,1.74a3,3,0,0,1,.57.55,36.4,36.4,0,0,0,4.86,4.43,13.63,13.63,0,0,1,3.61,4.45,37.2,37.2,0,0,1,3.18,8,2.78,2.78,0,0,1,.12.38c.17,1.59.36,3.17.5,4.75a14.9,14.9,0,0,1-.45,4.75,29.48,29.48,0,0,1-2.9,8,42,42,0,0,1-2.57,3.79,34.24,34.24,0,0,1-7.33,7.29c-1.28.94-2.52,2-3.83,2.86a68.91,68.91,0,0,1-11.51,6.34c-3.79,1.65-7.65,3.08-11.57,4.37-1.14.37-2.31.62-3.47.89-2.14.5-4.24,1.13-6.39,1.56s-4.3.87-6.45,1.29a30.3,30.3,0,0,1-3.94.5c-1.66.11-3.28.47-4.93.66-.65.08-1.32.14-2,.16a13.45,13.45,0,0,0-3.57.31,5.52,5.52,0,0,1-1.58.09h-4.8a8.27,8.27,0,0,0-2,.2,8.12,8.12,0,0,1-4,0,7.82,7.82,0,0,0-2-.19h-5.8a13.52,13.52,0,0,1-4-.32,5.34,5.34,0,0,0-1.39-.08,8.35,8.35,0,0,1-2.77-.28,2.65,2.65,0,0,0-.79-.11,78.28,78.28,0,0,1-12.2-1.74c-2.74-.54-5.45-1.22-8.17-1.85a3.84,3.84,0,0,1-1.31-.45c-2.13-1.47-4.65-1.93-7-2.72a11.43,11.43,0,0,1-3.31-1.33,3,3,0,0,0-.72-.33,86.25,86.25,0,0,1-13.19-6.57,37.28,37.28,0,0,1-5.53-4.25,25.82,25.82,0,0,1-3.32-2.86c-.38-.46-.86-.85-.92-1.5l.2-.16.25,0a1.32,1.32,0,0,1,.47.13l.22.12a5.58,5.58,0,0,0,.73.55c.13.07.25.16.37.24s.23.17.34.26l.16.12.52.36.35.23a2.22,2.22,0,0,1,.35.25l.16.15a2.46,2.46,0,0,0,.75.48,2.61,2.61,0,0,1,.43.24,2.9,2.9,0,0,1,.6.51,1.83,1.83,0,0,1,.28.49,17,17,0,0,0,4.78,3.77,90.58,90.58,0,0,0,21.57,9.7c1.57.5,3,1.39,4.76,1.23a1.74,1.74,0,0,1,.59.17,38.53,38.53,0,0,0,11.38,2.3,1.78,1.78,0,0,1,.65.07c4.21,1.37,8.65,1,12.94,1.76a3.81,3.81,0,0,0,1.56-.27,7.18,7.18,0,0,1,2.07,0,50.73,50.73,0,0,0,13.54.12,1.74,1.74,0,0,1,1.21,0,.68.68,0,0,0,.9.06,1.76,1.76,0,0,1,.82-.08c1.26.51,2.37-.12,3.51-.49a5.7,5.7,0,0,1,1.43,0,10.49,10.49,0,0,0,5.94-.59,2.15,2.15,0,0,1,.56-.07c1,.38,1.78-.26,2.64-.54,4.29-1,8.69-1.53,12.9-2.86,3.94-1.24,8.09-1.89,11.77-3.92a64.38,64.38,0,0,0,18.87-10.52,33.12,33.12,0,0,0,10.92-15.6c2.8-8.49-.93-20.11-8-24.38-1-.52-1.21-1.59-1.75-2.42a3.09,3.09,0,0,1-.34-.65L156.1,30a2.74,2.74,0,0,1-.23-.36,2.74,2.74,0,0,1-.23-.36,2.64,2.64,0,0,0-.23-.35c-.09-.11-.18-.22-.26-.34a2.42,2.42,0,0,1-.27-.36c0-.07-.07-.14-.11-.2C154.62,27.67,154.5,27.3,154.83,27Z"/><path class="cls-8" d="M11.71,63.32l2,2.4a3.14,3.14,0,0,0-.2,1.69.57.57,0,0,1-.29.4,32.65,32.65,0,0,1-6.22-6A9.51,9.51,0,0,1,5.3,59.36c-.26-.2-.08-.7-.51-.78l.06.05a.63.63,0,0,0-.36-.5h0a2.41,2.41,0,0,1,1.62-.82h.27a1.52,1.52,0,0,1,.5.19l.23.15c.14.12.27.25.4.38a31.93,31.93,0,0,0,3,3.34C11.08,61.92,11.74,62.42,11.71,63.32Z"/><path class="cls-9" d="M154.83,27c.17.38.35.75.52,1.13a.72.72,0,0,1-.51.6c-.93,0-.93-.76-1.12-1.36A24.92,24.92,0,0,0,151.05,24c-.36-.34-.56-.73-.1-1.15h0a1,1,0,0,0,.43.43l0,0a1.56,1.56,0,0,0,.42.43l0,0a1.68,1.68,0,0,0,.41.43C153.26,24.85,153.81,26.12,154.83,27Z"/><path class="cls-8" d="M14.57,69.17l0-.28.25-.13c.44,0,.77.16.46.69C15,69.51,14.68,69.54,14.57,69.17Z"/><path class="cls-7" d="M14.57,69.17l.71.24.13.14-.09.17H14.9Z"/><path class="cls-3" d="M4.79,58.58a.74.74,0,0,1,.51.78L5,59.28C4.9,59.05,4.84,58.81,4.79,58.58Z"/><path class="cls-6" d="M152.14,24.11l-.41-.43A.56.56,0,0,1,152.14,24.11Z"/><path class="cls-6" d="M151.75,23.71l-.42-.43A.55.55,0,0,1,151.75,23.71Z"/><path class="cls-6" d="M151.36,23.3c-.14-.14-.29-.28-.43-.43A.57.57,0,0,1,151.36,23.3Z"/><path class="cls-10" d="M147.86,20.06l-.54.06-.1-.25.16-.21Z"/><path class="cls-8" d="M13.67,68.17a.52.52,0,0,1-.44-.36l.11-.12a.4.4,0,0,1,.44.23Z"/><path class="cls-8" d="M14.11,68.53a.5.5,0,0,1-.44-.36l.07-.08a.38.38,0,0,1,.43.19Z"/><path class="cls-10" d="M146.93,19.29l.39,0c0,.11,0,.23.06.34l-.09.08C147,19.77,146.81,19.63,146.93,19.29Z"/><path class="cls-8" d="M14.54,68.89a.49.49,0,0,1-.43-.36l0,0c.31-.07.43.07.42.37Z"/><path class="cls-10" d="M141.25,15a.55.55,0,0,0,.47.32,1,1,0,0,0,.75.46.51.51,0,0,0,.46.34,1.06,1.06,0,0,0,.73.47.53.53,0,0,0,.46.33c0,.12.08.23.11.35.57,1.13.23,2.15-.9,2.4-2.48.55-3.66,2.53-5.09,4.24s-2.7,3.29-4,5a16.48,16.48,0,0,1-4.53,3.86c-4.6,2.7-9,5.62-13.58,8.42a18.14,18.14,0,0,1-7.21,2.15,2.44,2.44,0,0,0-2.23,1.39C104.12,50.46,99,53,93.47,54.81a31.81,31.81,0,0,1-11,1.73,6.55,6.55,0,0,0-2,.26,132.27,132.27,0,0,1-25.6,4A89,89,0,0,1,37,60.53a5,5,0,0,1-3.05-1.36c-3.08-3.17-7-3.24-11-3-4.3.28-8.58,1.05-12.92.4-1.58-.25-3.36.63-4.71-.87v-.4c-.15-.12-.25-.28-.4-.4v-.4c-.15-.13-.26-.27-.4-.4s-.26-.28-.4-.4v-.4c-.15-.12-.25-.28-.4-.4v-.4c-.15-.12-.25-.28-.4-.4v-.4c-.26-.21-.15-.6-.4-.8v-.4c-.14-.4-.27-.8-.4-1.2a5.11,5.11,0,0,0,2.93.11,8.6,8.6,0,0,1,2.78-.1c3.36.22,6.61-.46,9.89-1,.59-.1,1.18-.14,1.78-.2a14.75,14.75,0,0,0,1.77-.21,11.08,11.08,0,0,1,2-.2,2.83,2.83,0,0,1,3,1.23,1.81,1.81,0,0,0,1.37.73,65,65,0,0,1,6.67,1.17,3.06,3.06,0,0,0,.8.07,31.7,31.7,0,0,1,6.72.71,10.63,10.63,0,0,0,1.79.09h16a10.61,10.61,0,0,0,2.38-.23,12.1,12.1,0,0,1,2.18-.17c1.86-.07,3.73.19,5.56-.36a3,3,0,0,1,.79,0,43.14,43.14,0,0,0,7.52-.81c.06,0,.14,0,.19,0,1.73-.74,3.62-.83,5.4-1.32A29.62,29.62,0,0,0,90.35,46a10.08,10.08,0,0,0,2.78-2.26,4.61,4.61,0,0,1,3.73-1.58c.53,0,1.06,0,1.6,0a6.56,6.56,0,0,0,3.48-.65,6.72,6.72,0,0,1,1.72-.52,15.43,15.43,0,0,0,7-3.14,14.4,14.4,0,0,1,2.15-1.44,34.64,34.64,0,0,0,3.81-2.55,7.52,7.52,0,0,1,.82-.57c2.92-1.84,5.69-3.93,8.73-5.59A8.44,8.44,0,0,0,129,25.15a58.27,58.27,0,0,1,4.45-5.36c.82-.87,1.47-1.88,2.34-2.72a2.8,2.8,0,0,1,2.3-1,4.29,4.29,0,0,0,.8,0c.41,0,.84-.12,1-.53s-.27-.67-.59-.89c-.11-.08-.28-.15-.3-.25,0-.27.21-.28.39-.32l1.17.42A1,1,0,0,0,141.25,15Z"/><path class="cls-4" d="M5.32,55.72a4.87,4.87,0,0,0,2.93.1,5.31,5.31,0,0,1,2.77,0,10.32,10.32,0,0,0,4.94,0,2.35,2.35,0,0,1,.58-.1c3.6.2,7.16-.65,10.75-.43a9.63,9.63,0,0,1,6.63,2.81,5.43,5.43,0,0,0,3.28,1.66,34.58,34.58,0,0,0,5.37.33h9.59c1.39,0,2.78-.16,4.16-.28,1.79-.15,3.57-.39,5.35-.55,2.44-.22,4.86-.64,7.29-1a40.31,40.31,0,0,1,4.13-.63A19.21,19.21,0,0,0,76.4,57c.84-.2,1.68-.43,2.5-.69a15.38,15.38,0,0,1,4.73-.62,30.15,30.15,0,0,0,8-1.2,35.34,35.34,0,0,0,6-2.2,16.83,16.83,0,0,0,7.3-6,8,8,0,0,0,.85-1.8,2.54,2.54,0,0,1,2.61-2,36.55,36.55,0,0,0,4.13-.56,5.19,5.19,0,0,0,1.83-.76L117,39.69a8.37,8.37,0,0,0,1.2-.7c2.39-2,5.18-3.25,7.74-4.93,1.49-1,3-2,4.6-2.8a11.31,11.31,0,0,0,3.14-3q2.39-2.93,4.8-5.85a6.59,6.59,0,0,0,.65-.75,4.2,4.2,0,0,1,3.6-2.46,1.86,1.86,0,0,0,.38-.12c.67-.16,1.08-.48.92-1.26,0-.16.14-.35.22-.53a.34.34,0,0,1,.31.19.46.46,0,0,1,.35.28h0a4.06,4.06,0,0,1,.46.36l0,0a.78.78,0,0,0,.55.4.26.26,0,0,1,.26.17.48.48,0,0,1,.34.29l0,0c.18.07.29.24.44.36l0,0,.36.45,0,.38a17.44,17.44,0,0,0,2,2.23c.32.4.23.81-.24.91a3.58,3.58,0,0,1-1.95.2,2.43,2.43,0,0,0-2.65.89A46.79,46.79,0,0,0,141,28.44c-1.72,2.1-3.35,4.28-5.23,6.26a11.1,11.1,0,0,1-3.53,2.56c-2.75,1.22-5.2,3-7.81,4.43a4.89,4.89,0,0,1-2.81.83,5.57,5.57,0,0,0-1,0,1.17,1.17,0,0,0-1.23,1.07c-.18.78-.28,1.57-.49,2.34A16,16,0,0,1,112.74,55c-.86.61-1.71,1.25-2.58,1.86a13.54,13.54,0,0,1-3.35,1.75c-.94.32-1.8.87-2.73,1.21-1.37.5-2.78.92-4.18,1.33a50.49,50.49,0,0,1-8.59,1.65,49.09,49.09,0,0,1-9.15.49,9.89,9.89,0,0,0-3.15.37c-2.51.63-5,1.29-7.57,1.76a63.18,63.18,0,0,1-7,1.34c-2.47.17-4.81,1-7.3,1-1.05,0-2.08.33-3.16.39A12.24,12.24,0,0,1,48.36,67c-2.63-1.14-5.36-2-7.93-3.29a10.83,10.83,0,0,0-4.47-.8,11.19,11.19,0,0,1-2.57-.29,4.77,4.77,0,0,0-2.57,0,10,10,0,0,1-2.77.27c-3.59,0-7.19,0-10.79,0a23.49,23.49,0,0,0-5.55.41,34.45,34.45,0,0,1-4-3.85,6,6,0,0,1-.81-1.35c-.14-.13-.26-.27-.4-.4h0c-.14-.13-.26-.28-.4-.4C6.11,56.65,5.58,56.25,5.32,55.72Z"/><path class="cls-4" d="M2.92,50.92a1.08,1.08,0,0,1,.4.8A1,1,0,0,1,2.92,50.92Z"/><path class="cls-4" d="M3.32,52.12l.4.4Z"/><path class="cls-4" d="M3.72,52.92l.4.4Z"/><path class="cls-4" d="M4.12,53.72l.4.4Z"/><path class="cls-4" d="M4.52,54.12l.4.4Z"/><path class="cls-4" d="M4.92,54.92l.4.4Z"/><path class="cls-10" d="M145.88,18.47l-.55-.4A.74.74,0,0,1,145.88,18.47Z"/><path class="cls-10" d="M145.37,18.1l-.46-.36h.38C145.32,17.86,145.34,18,145.37,18.1Z"/><path class="cls-10" d="M146.48,18.93l-.34-.29.29,0C146.44,18.72,146.46,18.82,146.48,18.93Z"/><path class="cls-3" d="M4.49,58.13l.36.5A.52.52,0,0,1,4.49,58.13Z"/><path class="cls-10" d="M144.89,17.73l-.35-.28.29,0A1.8,1.8,0,0,0,144.89,17.73Z"/><path class="cls-10" d="M147,19.31l-.44-.36h.37C146.9,19.08,146.92,19.19,147,19.31Z"/><path class="cls-11" d="M153.72,27.32c.46.34.62,1,1.19,1.2a1.31,1.31,0,0,1,.45.28,2.33,2.33,0,0,1,.48.68,1.78,1.78,0,0,1,.37,1.13c-.35,1.59-1.62,1.9-2.91,1.87a4.3,4.3,0,0,0-3.45,1.61c-2.35,2.54-4.85,4.94-7.31,7.38a5.63,5.63,0,0,0-1.75,3.25c-1.06,6.2-4.53,10.92-9.14,15-9.64,8.6-21.47,12-33.71,14.34A123,123,0,0,1,78.49,75.8c-6.18.21-12.35,1-18.53.69-8.16-.39-16.35-.29-24.48-1.33a11.39,11.39,0,0,0-4.9.55,2.6,2.6,0,0,1-1.78-.13,7.73,7.73,0,0,1-1-.47l-.44-.23-.68-.32a2.25,2.25,0,0,1-.46-.25c-1-.53-2-.85-3-1.45-.56-.37-1.38-.58-1.18-1.54a8.09,8.09,0,0,1,5.24-1.6,18.88,18.88,0,0,1,4,.35,58.82,58.82,0,0,0,6.89.94c2.06.17,4.11.2,6.17.33,1.71.12,3.42.43,5.13.62.72.09,1.45.13,2.18.15a20.77,20.77,0,0,1,5.16.35,5,5,0,0,0,1.4.06h5.59a20.38,20.38,0,0,1,3.57.28,15.41,15.41,0,0,0,5,0c1.06-.16,2.13-.14,3.16-.33,3.25-.57,6.51-.27,9.76-.37a13.9,13.9,0,0,0,1.58-.19,6.94,6.94,0,0,1,1-.17c2.34.08,4.62-.53,6.92-.72a62.21,62.21,0,0,0,8.2-1.6,61.91,61.91,0,0,0,16.81-6.19,39.55,39.55,0,0,0,9.52-6.86A29.88,29.88,0,0,0,134,50.24a13.47,13.47,0,0,0,1.65-4.47c.17-1,.31-2,.46-3a2.64,2.64,0,0,1,.85-1.53c2.06-2,4.21-3.9,6.11-6,1.55-1.74,3.12-3.45,4.77-5.1s1.47-1.7,3.8-1.63A1.82,1.82,0,0,0,153.72,27.32Z"/><path class="cls-12" d="M22.12,71.32a10.7,10.7,0,0,0,2.58,1.49,8.22,8.22,0,0,1,2.21,1.31c-.51.77-1.49.85-2.13,1.44a2.61,2.61,0,0,1-1.65-.16,5.4,5.4,0,0,1-2.58-2.14l0,0c-.26-.19-.69-.09-.81-.5l.06,0A2.08,2.08,0,0,1,18.56,72l.06.06a.92.92,0,0,1-.5-.36h0c-.21-.24-.65-.14-.78-.5l.07.06a.81.81,0,0,1-.49-.38h0a5.33,5.33,0,0,1-1.2-.85l0,0a1.54,1.54,0,0,1-.47-.37h0a2.91,2.91,0,0,1,0-.31.91.91,0,0,0-.72-.55l-.42-.37-.4-.4-.4-.4L13,67.22c-.91-1.15-.86-1.26.72-1.5h0c.2.25.59.15.79.4h0c.13.13.27.26.4.4h0c.13.13.26.27.4.4a.8.8,0,0,0,.4.2.73.73,0,0,1,.4.2h0l.4.4h0c.13.14.28.25.4.4h.39c.13.14.28.26.41.4h0l.4.39h.39c.13.14.28.26.41.4h0l.4.39h.39c.64.44,1.54.46,2,1.2h0c.15.13.26.28.41.4Z"/><path class="cls-11" d="M21.71,70.92a2.66,2.66,0,0,1-2-1.2C20.62,69.72,21.56,69.67,21.71,70.92Z"/><path class="cls-8" d="M14.51,66.12a1.06,1.06,0,0,1-.79-.4A1,1,0,0,1,14.51,66.12Z"/><path class="cls-8" d="M14.92,66.52l-.4-.4Z"/><path class="cls-8" d="M15.32,66.92l-.4-.4Z"/><path class="cls-8" d="M15.72,67.31l-.4-.39h.4c.1.08.14.17.1.26S15.76,67.31,15.72,67.31Z"/><path class="cls-11" d="M15.72,67.31v-.39l.4.4Z"/><path class="cls-8" d="M16.52,67.72l-.4-.4Z"/><path class="cls-8" d="M16.92,68.12l-.4-.4Z"/><path class="cls-11" d="M17.72,68.52l-.41-.4Z"/><path class="cls-11" d="M18.12,68.91l-.4-.39Z"/><path class="cls-11" d="M18.92,69.32l-.41-.4Z"/><path class="cls-11" d="M19.32,69.71l-.4-.39Z"/><path class="cls-11" d="M22.12,71.32l-.41-.4Z"/><path class="cls-13" d="M23.33,74.85l1.53.53.23,0a1.5,1.5,0,0,1,.47,0,2.39,2.39,0,0,1,.46.12l.44.19a2.67,2.67,0,0,1,.42.2c.27.16.57.26.85.41a9.5,9.5,0,0,1,1.44.87l.56.4.38.23a4.53,4.53,0,0,0,.59.28,2.17,2.17,0,0,1,.42.17c.22.08.42.19.64.28a4.54,4.54,0,0,1,.45.21,4.33,4.33,0,0,1,.7.39l.43.4c1.19,1.14,2.74,1.53,4.22,2.12C43.71,84,49.84,86.6,56.31,88c6,1.32,12,2.65,18.21,2.71a3.34,3.34,0,0,1,.62.1c1.94.56,3.94.16,5.91.31a2.86,2.86,0,0,1,.66.13,110.73,110.73,0,0,0,15,.06,4.77,4.77,0,0,1,.65-.17c1.4-.17,2.84.17,4.2-.35a3.52,3.52,0,0,1,.64-.09c1.26-.07,2.55.17,3.78-.33,4.38-.53,8.68-1.58,13.07-2,1.38-.14,2.45-1,3.74-1.21a62.9,62.9,0,0,0,8.93-2.49A108.18,108.18,0,0,0,143.2,79.8c.86-.4,1.63-1.25,2.75-.67.56,1.31-.61,1.38-1.28,1.73-2.54,1.31-5.21,2.35-7.75,3.66A27.29,27.29,0,0,1,130,87.09c-3,.76-6,1.77-9,2.41-1.88.39-3.74.87-5.65,1.1-1.24.15-2.45.47-3.67.72a4.4,4.4,0,0,1-2.4.4h-.4a20.62,20.62,0,0,1-6,.8h-1.6a11,11,0,0,1-3.6.4h-.8a.23.23,0,0,1-.4,0h-1.2c-4.67.64-9.34,0-14,0h-2a96.88,96.88,0,0,1-13.06-1.38c-.58-.1-1.17-.1-1.74-.22h-.4c-3.88-.73-7.86-1-11.6-2.4h-.4a126.77,126.77,0,0,1-18.94-7,87.87,87.87,0,0,1-7.8-4.42C24.46,76.89,23.15,76.39,23.33,74.85Z"/><path class="cls-13" d="M136.92,84.52a1.94,1.94,0,0,1,1.21-1,48.12,48.12,0,0,0,5.05-2.35,13.31,13.31,0,0,1,1.45-.64,2.44,2.44,0,0,0,1.49-1.23c0-.1.07-.19.1-.29,2.53-1.81,5.3-3.27,7.71-5.28,6.17-5.15,11.12-11.14,12.24-19.4a23,23,0,0,0-3.37-14.9,25.86,25.86,0,0,0-4.35-5.36,1,1,0,0,1,0-1.16c.19,0,.44,0,.57.13a23.51,23.51,0,0,1,4.64,4.6,30.13,30.13,0,0,1,3.9,9.57,5.8,5.8,0,0,1,.12,1.39,9.33,9.33,0,0,0,.27,2.57,3.07,3.07,0,0,1,.09,1.38c-.52,2.88-.9,5.78-2.17,8.48a39.8,39.8,0,0,1-3.85,6.51,43.72,43.72,0,0,1-9.39,8.88,37.27,37.27,0,0,1-5.43,3.33c-1.25.63-2.4,1.47-3.68,2C141.34,82.68,139.29,84,136.92,84.52Z"/><path class="cls-7" d="M23.33,74.85a7.67,7.67,0,0,0,2.85,2.72c1.22.67,2.37,1.49,3.59,2.15A76.28,76.28,0,0,0,39,84.06c1.92.75,3.85,1.47,5.78,2.19a8.68,8.68,0,0,0,2.89.7,1.46,1.46,0,0,1,.92.31,6.39,6.39,0,0,0,3.07,1.34,1.84,1.84,0,0,1,.5.32,7.63,7.63,0,0,1-4-.89,29.25,29.25,0,0,0-3.39-1.12c-3-1.1-6-2.12-8.9-3.4A74.36,74.36,0,0,1,25,77.63c-1.21-.8-2.39-1.67-3.58-2.5a1.87,1.87,0,0,1-.88-1.87A10.23,10.23,0,0,1,23.33,74.85Z"/><path class="cls-14" d="M158.48,32.93a.91.91,0,0,0,.35.81A20.7,20.7,0,0,0,160.24,36c.21,1.1.84,2.09.88,3.24a3,3,0,0,1-.27,1.49,1.6,1.6,0,0,1-2,.23c-1.25-1.31-.51-3.19-1.33-4.62a43.82,43.82,0,0,1-1.82-6.25l-.4-.8c-.14-.13-.26-.28-.4-.41s0-.26,0-.39l.44-.44h0c.06.2.25.29.34.46l0,0c.28.18.17.59.48.75l0,0c.06.19.23.3.33.47v0c.29.17.19.57.45.75Z"/><path class="cls-7" d="M64.52,91.32a3.23,3.23,0,0,1,1.12-.3c1.88.26,3.76.58,5.63.89,1,.16,1.93.36,2.9.52a1.71,1.71,0,0,0,.78,0c1.47-.49,2.83.09,4.21.39.06,0,.11.08.16.12a2.65,2.65,0,0,1-2.48.27,11.83,11.83,0,0,0-2.57-.28,6.89,6.89,0,0,1-1.58-.16,7.71,7.71,0,0,0-2.18-.23,19.44,19.44,0,0,1-5.67-1A1,1,0,0,1,64.52,91.32Z"/><path class="cls-7" d="M81.32,92.92a11.55,11.55,0,0,1,5.07-.17,20.13,20.13,0,0,0,6.48,0c.85-.14,1.68-.43,2.45.2a2,2,0,0,1-1.49.4,11.32,11.32,0,0,0-3,.28,3.94,3.94,0,0,1-2,.06,25.51,25.51,0,0,0-5.72-.34C82.55,93.3,81.86,93.43,81.32,92.92Z"/><path class="cls-7" d="M52.52,88.92a23.33,23.33,0,0,0,3.13.43,1.63,1.63,0,0,1,1.1.4,3.15,3.15,0,0,0,1.51.31c1,.13,2.05.14,3.07.27a7.59,7.59,0,0,1,2.79,1,1.11,1.11,0,0,1-1.08.33l-9.25-1.91A1.65,1.65,0,0,1,52.52,88.92Z"/><path class="cls-7" d="M102.92,92.52a6.13,6.13,0,0,1,2.48-.58,34.29,34.29,0,0,1,3.52-.22,1.84,1.84,0,0,1-1.18.69,21.68,21.68,0,0,1-4.33.41C103.24,92.8,103.08,92.62,102.92,92.52Z"/><path class="cls-7" d="M97.72,92.92a10.72,10.72,0,0,1,3.27-.59c.09,0,.22.12.33.19C100.18,93.2,99,93.73,97.72,92.92Z"/><path class="cls-7" d="M109.32,91.72a4.31,4.31,0,0,1,2.4-.4C111,92,110.26,92.46,109.32,91.72Z"/><path class="cls-7" d="M18.56,72a2.09,2.09,0,0,1,1.27.82A1.06,1.06,0,0,1,18.56,72Z"/><path class="cls-7" d="M15.74,70.05a2.13,2.13,0,0,1,1.2.85A1.21,1.21,0,0,1,15.74,70.05Z"/><path class="cls-7" d="M17.35,71.21a1,1,0,0,1,.78.5A.86.86,0,0,1,17.35,71.21Z"/><path class="cls-7" d="M19.77,72.78a1,1,0,0,1,.8.5A.77.77,0,0,1,19.77,72.78Z"/><path class="cls-9" d="M156.94,30.51a.93.93,0,0,1-.45-.75A.91.91,0,0,1,156.94,30.51Z"/><path class="cls-9" d="M156.18,29.3a.87.87,0,0,1-.48-.75A.92.92,0,0,1,156.18,29.3Z"/><path class="cls-9" d="M156.48,29.73l-.33-.47A.49.49,0,0,1,156.48,29.73Z"/><path class="cls-9" d="M155.68,28.53c-.11-.15-.22-.31-.34-.46A.48.48,0,0,1,155.68,28.53Z"/><path class="cls-7" d="M15.32,69.72a.51.51,0,0,1,.46.37Z"/><path class="cls-7" d="M16.93,70.89a.55.55,0,0,1,.49.38Z"/><path class="cls-7" d="M18.12,71.71a.52.52,0,0,1,.5.36Z"/><path class="cls-7" d="M96.52,92.92h.4C96.78,93.09,96.65,93.09,96.52,92.92Z"/><path class="cls-3" d="M6.12,57.32l.4.4Z"/><path class="cls-3" d="M6.52,57.72l.4.4Z"/><path class="cls-9" d="M155.72,30.12a15,15,0,0,1,2.4,6c.38,1.8-.88,2.39-2.16,2.27-3.39-.33-4.87,2.31-6.91,4.1a2.2,2.2,0,0,0-.5,1.49C147.44,54.94,141,62.1,132,67.5c-9.54,5.7-20,8.8-30.85,10.43A97.72,97.72,0,0,1,84,79.32c-3.68-.11-7.3.56-10.93.92-3.12.32-6.24.25-9.36.6-1.92.22-3.5.6-4.63,2.23a2.06,2.06,0,0,1-1.31.85c-2.32.48-4.47-.44-6.68-.82a60.06,60.06,0,0,1-7.57-1.84c-.4-.12-.79-.28-1.19-.41a3,3,0,0,1-.59-.21,96.88,96.88,0,0,1-9.53-3.34c-.9-.39-2.12-.57-2.12-2a3.66,3.66,0,0,1,2.39-.83,6,6,0,0,0,1.37-.22,2.41,2.41,0,0,1,1-.1c1.36.4,2.79.19,4.15.48a13.69,13.69,0,0,0,2.77.27,15,15,0,0,1,4.17.32,6,6,0,0,0,1.59.08h5.59a12,12,0,0,1,4,.33l10.79,0a14.87,14.87,0,0,1,4.56-.35,30.44,30.44,0,0,0,4.76-.3,26.7,26.7,0,0,1,4.39-.1,15.58,15.58,0,0,0,4.36-.33,5.34,5.34,0,0,1,1.39-.07c1.27,0,2.52-.18,3.77-.28,2.26-.18,4.47-.58,6.7-.94,2-.33,4-.73,6-1.26,2.31-.62,4.65-1.13,6.91-1.94s4.27-1.48,6.33-2.44a25.15,25.15,0,0,1,3.17-1.19,18.69,18.69,0,0,0,4.84-2.75c.71-.49,1.37-1,2.1-1.52a17.22,17.22,0,0,0,3.13-2.46c.5-.52,1.18-.86,1.71-1.36a29.13,29.13,0,0,0,5.88-7.51,18.1,18.1,0,0,0,2.17-7,3.37,3.37,0,0,1,1.12-2.24q3.62-3.59,7.21-7.21a19.74,19.74,0,0,0,1.72-1.93,1.79,1.79,0,0,1,1.53-.77c.86,0,1.73,0,2.59-.06S155.75,31.13,155.72,30.12Z"/><path class="cls-15" d="M30.11,75.32c1.28,1.11,2.92,1.46,4.44,2.05a46.92,46.92,0,0,0,6.53,2.22,1.88,1.88,0,0,1,1,.52c-.75,1.09-2.39.4-3.1,1.56a11.53,11.53,0,0,1-6.45-2.47l0,0c-.3-.11-.66-.07-.88-.37l0,0c-.25-.18-.61-.13-.84-.38h0c-.3-.39-.94,0-1.17-.51l.05,0c-.29-.13-.66-.08-.86-.41l-1.65-1c-.18-.34-.56-.29-.85-.43l0,0c-.18-.35-.56-.29-.85-.43l.05,0c-.17-.35-.56-.28-.84-.44h0a.79.79,0,0,1,.52-1.07,4.21,4.21,0,0,1,1.53-.19h0c.21.25.59.16.8.4h0c.21.24.59.15.8.4Z"/><path class="cls-12" d="M27.72,74.52a1,1,0,0,1-.8-.4A1,1,0,0,1,27.72,74.52Z"/><path class="cls-12" d="M28.52,74.92a1,1,0,0,1-.8-.4A1,1,0,0,1,28.52,74.92Z"/><path class="cls-9" d="M154.92,28.91l.4.41Z"/><path class="cls-16" d="M160.54,39.32a13.54,13.54,0,0,1-.81-3.2c1-.48,1.45.29,1.9.93,3.5,5,5.39,10.53,4.86,16.67-.45,5.23-2.76,9.73-6,13.82A44.69,44.69,0,0,1,148,78.16c-.63.38-1.27.72-1.86,1.16h0a2.7,2.7,0,0,0-1,.17c-1.65,1-3.45,1.7-5.17,2.56-2,1-4.13,1.75-6.2,2.61-2.37,1-4.86,1.66-7.31,2.46a3.54,3.54,0,0,1-1,.18,10.13,10.13,0,0,0-4,1,15.75,15.75,0,0,1-4.65.93,25.57,25.57,0,0,0-4.68.87,4.8,4.8,0,0,1-1.75.36,16.65,16.65,0,0,0-4.34.41c-1.29.55-2.71-.16-4,.4h-.4c-1.43.54-3-.15-4.4.4-3.89.44-7.78.12-11.68.18a14.24,14.24,0,0,1-4.32-.18h-.4c-2-.52-4,.14-6-.4-1.16-.41-2.36,0-3.52-.23-.78-.12-1.86.15-2-1.13,2.16-.92,4.29.1,6.43.15,6.28.17,12.54,1.13,18.84.3,2.3-.3,4.63-.23,6.94-.39a127.27,127.27,0,0,0,16.84-2.7,87.72,87.72,0,0,0,25.83-9.62c6.21-3.56,11.67-8,15.6-14.11,4.38-6.81,4.64-13.92,1.43-21.22C160.85,41.36,160.87,40.32,160.54,39.32Z"/><path class="cls-17" d="M69.32,90.12a4.94,4.94,0,0,0,3.15.81c.83,0,1.71-.25,2.45.39a45,45,0,0,1-7.51-.63c-3.54-.49-7-1.28-10.56-1.84a42.13,42.13,0,0,1-5.36-1.47c-.89-.26-1.75-.63-2.63-.94l-9-3.15c-.5-.18-1-.42-1.46-.64a21.19,21.19,0,0,0-2.57-1,4.88,4.88,0,0,1-3.24-2.42c1.48.52,3,1,4.45,1.54a6.68,6.68,0,0,0,2.26.62l.25-.06a1.82,1.82,0,0,1,.77-.1,4.76,4.76,0,0,1,.52.1,7.06,7.06,0,0,0,1.3.32,3.69,3.69,0,0,1,1.77,1C45,84,46.66,84,48.14,84.48c5.44,1.73,10.84,3.6,16.52,4.46,1.36.2,2.78,0,4.1.56C69.07,89.63,69.41,89.66,69.32,90.12Z"/><path class="cls-17" d="M81.32,91.72h16a2,2,0,0,1-1.5.4h-13A2,2,0,0,1,81.32,91.72Z"/><path class="cls-17" d="M74.92,91.32h4.52a1.93,1.93,0,0,1,1.48.4,39.22,39.22,0,0,1-5.31-.07C75.38,91.65,75.15,91.44,74.92,91.32Z"/><path class="cls-17" d="M97.32,91.72a1.67,1.67,0,0,1,1.27-.4h3.13a1.73,1.73,0,0,1-1.27.4C99.41,91.71,98.36,91.72,97.32,91.72Z"/><path class="cls-17" d="M102.12,91.32a1.66,1.66,0,0,1,1.26-.4h2.74a1.72,1.72,0,0,1-1.27.4Z"/><path class="cls-17" d="M29.75,78a1.62,1.62,0,0,1,1.17.51C30.46,78.52,30,78.5,29.75,78Z"/><path class="cls-12" d="M24.85,75.37a.79.79,0,0,1,.84.44A1,1,0,0,1,24.85,75.37Z"/><path class="cls-12" d="M25.64,75.78a.79.79,0,0,1,.85.43A1,1,0,0,1,25.64,75.78Z"/><path class="cls-12" d="M26.44,76.18a.79.79,0,0,1,.85.43A1,1,0,0,1,26.44,76.18Z"/><path class="cls-17" d="M28.94,77.64a1,1,0,0,1,.86.41A.82.82,0,0,1,28.94,77.64Z"/><path class="cls-17" d="M30.92,78.51a.9.9,0,0,1,.84.38A1,1,0,0,1,30.92,78.51Z"/><path class="cls-17" d="M31.73,78.87a.94.94,0,0,1,.88.37A.85.85,0,0,1,31.73,78.87Z"/><path class="cls-13" d="M146.12,79.32a3.35,3.35,0,0,1,1.81-1.5,17.84,17.84,0,0,0,2.31-1.54,28.69,28.69,0,0,0,3.07-2.16c1.52-1.3,3.12-2.51,4.5-3.94a27.12,27.12,0,0,0,4.41-5.65,37.35,37.35,0,0,0,2.61-5.12,21.67,21.67,0,0,0,1.18-5,23.21,23.21,0,0,0-.45-8.13,31.6,31.6,0,0,0-3.95-8.69,4,4,0,0,0-1.88-1.42,6.81,6.81,0,0,1-.9-2.38c.72.58,1.19,1.43,2.07,1.84a1.58,1.58,0,0,1,.56.56c1.95,3.16,4,6.27,4.78,10a23.65,23.65,0,0,1,.62,7.71,24.52,24.52,0,0,1-2.94,9.23c-1,1.87-2.48,3.44-3.58,5.26A10.21,10.21,0,0,1,159,69.83a42.31,42.31,0,0,1-8.5,7.19A12.74,12.74,0,0,1,146.12,79.32Z"/><path class="cls-18" d="M57.71,83.32a.9.9,0,0,0,.76-.56,4.11,4.11,0,0,1,1.19-1.58,3.47,3.47,0,0,1,2.51-1.06c2.85,0,5.68-.52,8.55-.46A46.47,46.47,0,0,0,76.45,79c1.91-.2,3.83-.39,5.75-.5,1.53-.08,3.06,0,4.6,0a10,10,0,0,0,3.36-.31,1.47,1.47,0,0,1,.59-.07,68.61,68.61,0,0,0,7.72-.75,93.37,93.37,0,0,0,15.24-3,46.56,46.56,0,0,0,10.68-3.88c3.39-1.85,7-3.29,10.14-5.59a18.15,18.15,0,0,0,3-2.36,10.35,10.35,0,0,1,1.08-.88,9.23,9.23,0,0,0,1.2-1c.92-1,1.79-2.14,2.68-3.21a25.42,25.42,0,0,0,5.18-12.16,12.16,12.16,0,0,0,.09-1.6A2.7,2.7,0,0,1,149,41.3a13.76,13.76,0,0,0,2.34-2.17,6.44,6.44,0,0,1,1.77-1.29,2.2,2.2,0,0,1,1.72-.26,4.19,4.19,0,0,0,1.18.13,1.82,1.82,0,0,0,2.16-1.59,6.28,6.28,0,0,1,.8,3.15,2.12,2.12,0,0,0,.4,1.65c1,.81.45,1.93.59,2.91,0,.75-.32,1.45-.25,2.2a20.52,20.52,0,0,1-2.75,8.5,4.66,4.66,0,0,0-.25.5c-.07.17-.15.34-.23.5a3.67,3.67,0,0,1-.26.48c-.13.24-.27.47-.42.7a36.62,36.62,0,0,1-6.5,7.76,4,4,0,0,1-.39.33c-.19.15-.4.28-.6.42l-.37.3c-.11.12-.22.23-.34.34l-.17.18a3.23,3.23,0,0,1-.37.37,51.71,51.71,0,0,1-8.53,5.84,2.3,2.3,0,0,1-.43.25l-.62.32a3,3,0,0,1-.38.23,3.73,3.73,0,0,1-.37.23,2.08,2.08,0,0,1-.38.22l-.39.21c-.12.07-.25.13-.38.19a3,3,0,0,1-.4.2l-.39.2c-.13.09-.27.15-.4.23l-.44.22a8.51,8.51,0,0,1-.9.57,106.34,106.34,0,0,1-25.79,8.27,6,6,0,0,0-1.73.28,2.89,2.89,0,0,1-.59.08,11.65,11.65,0,0,0-1.77.4,3.72,3.72,0,0,1-1,.06C97.73,85,93.37,85.76,88.93,86c-1.39.06-2.77.17-4.16.21A15.08,15.08,0,0,0,79.59,86c-4,.51-8-.26-11.94-.28-1-.15-2-.66-3.07-.42a4.91,4.91,0,0,1-1.38-.08,23.77,23.77,0,0,0-3.92-.74C58.57,84.39,57.77,84.35,57.71,83.32Z"/><path class="cls-19" d="M160.54,39.32l1.75,3.55a7.9,7.9,0,0,1,1,3.61,1.73,1.73,0,0,0,.17,1,7.32,7.32,0,0,1,.76,2.85,2.89,2.89,0,0,1,0,1.57,3.37,3.37,0,0,0-.16,1.18,14,14,0,0,1-1.35,6.39,23.81,23.81,0,0,1-5,8.08c-.57.55-1,1.29-1.5,1.85a24.24,24.24,0,0,1-3.39,3.09c-1.57,1.1-3,2.36-4.52,3.55-.11.08-.18.21-.3.26-2.7,1.13-5,3-7.66,4.21s-5.29,2.5-8,3.5a95.87,95.87,0,0,1-12.43,3.69,6.5,6.5,0,0,1-1,0,.71.71,0,0,1-.77.12.58.58,0,0,1-.15-.52,1.15,1.15,0,0,1,.38-.41c1.38-.31,2.67-.9,4-1.32a2.6,2.6,0,0,1,.56-.06c2.07-.14,3.85-1.23,5.79-1.8a3.13,3.13,0,0,1,.52-.16,3.71,3.71,0,0,0,1-.32,2.19,2.19,0,0,1,.52-.12A44.24,44.24,0,0,0,136,81a2.35,2.35,0,0,1,.48-.23,7.4,7.4,0,0,0,1.19-.52,1.91,1.91,0,0,1,.45-.23,2.51,2.51,0,0,0,1.1-.47,2.57,2.57,0,0,1,.41-.26c.21-.12.43-.22.65-.33a2.39,2.39,0,0,1,.44-.18,2.27,2.27,0,0,0,1.05-.58,2.39,2.39,0,0,1,.43-.27c.68-.37,1.37-.72,2-1.09a4.32,4.32,0,0,1,.39-.34,2.79,2.79,0,0,1,.42-.28,2.2,2.2,0,0,1,.46-.23,2.92,2.92,0,0,0,1.45-.93,2,2,0,0,1,.43-.29,3.19,3.19,0,0,0,1.94-1.71c2.28-2.31,4.77-4.38,6.86-6.9,3.58-4.32,5.76-9.15,5.68-14.73,0-2.87-.85-5.74-1.37-8.59a5.35,5.35,0,0,1-.24-1.42.93.93,0,0,1,.28-.49C160.52,40.39,160.53,39.85,160.54,39.32Z"/><path class="cls-20" d="M160.52,40.92a.27.27,0,0,1,0,.32c.48,1.48.24,3,.52,4.53,0,.33.06.67.07,1-.06.74-.39,1.43-.42,2.19a15,15,0,0,1-.8,4,24.36,24.36,0,0,0-1.28,2.68c-.31.67-.63,1.35-1.5,1.43-1-.38-.54-1.5-1-2.14a8.79,8.79,0,0,1,1-2.37,19,19,0,0,0,1.82-6.43c.48-.6-.08-1.4.4-2v-3.2c.33-.72.33-.72.9-.26Z"/><path class="cls-21" d="M57.71,83.32a3.33,3.33,0,0,0,.88.36c1.35.19,2.7.32,4,.5a2.56,2.56,0,0,1,.69.33,1.17,1.17,0,0,1-1.11.66c-1.12-.07-1.7.69-2.36,1.36-1.51.41-2.91-.3-4.37-.44-.7-.06-1.41-.17-2.12-.19-2.59-.8-5.29-1.2-7.87-2.06a6.73,6.73,0,0,1-2.17-1l-1.61-.74c-.33-.39-.89-.06-1.24-.39h0c-.32-.42-.88-.09-1.24-.4h0a.75.75,0,0,1,.52-1.06,7.89,7.89,0,0,1,2.32-.19l.4,0c.21.24.59.14.81.38l3.87.86c2.84.62,5.68,1.26,8.53,1.84A13,13,0,0,0,57.71,83.32Z"/><path class="cls-15" d="M43.33,80.51a1,1,0,0,1-.81-.38A1,1,0,0,1,43.33,80.51Z"/><path class="cls-22" d="M43.33,82.87a19.05,19.05,0,0,1,3.66.84c2.12.49,4.23,1,6.35,1.53a124.53,124.53,0,0,0,18,3.5,129.36,129.36,0,0,0,20.43,1.14,116.8,116.8,0,0,0,17-1.67,48.13,48.13,0,0,1,7.27-1.09,2.52,2.52,0,0,1,2,.6h.8c-.11.08-.21.2-.32.23-2.28.46-4.55,1-6.84,1.36s-4.45.72-6.68,1.07a2.35,2.35,0,0,1-.58.1c-2.54-.13-5,.66-7.56.45a7.89,7.89,0,0,0-2.77.26,6.67,6.67,0,0,1-1.79.12h-7a11.34,11.34,0,0,1-2.78-.26,11.21,11.21,0,0,0-2.18-.14c-1.79-.07-3.57-.08-5.37-.27a39.39,39.39,0,0,0-5.74-.53,100.31,100.31,0,0,1-15-2.84,3.14,3.14,0,0,1-1.1-.44,7.16,7.16,0,0,0-3.16-1.15c-1.74-.37-3.41-1-5.1-1.49A2.36,2.36,0,0,1,43.33,82.87Z"/><path class="cls-15" d="M39.27,81.35a1.23,1.23,0,0,1,1.24.4A1.43,1.43,0,0,1,39.27,81.35Z"/><path class="cls-15" d="M40.48,81.74a1.31,1.31,0,0,1,1.24.39A1.46,1.46,0,0,1,40.48,81.74Z"/><path class="cls-23" d="M106.91,82.93c3.23-.78,6.47-1.54,9.69-2.36a78.79,78.79,0,0,0,8.73-2.86c2.67-1,5.3-2.14,8-3.21.24-.22.62-.13.83-.4h0c.14-.12.28-.24.41-.37l.37,0a5.12,5.12,0,0,0,.43-.36,1.55,1.55,0,0,1,.37,0,3.81,3.81,0,0,0,.43-.37,2.2,2.2,0,0,1,.36,0,4,4,0,0,0,.45-.37h0c.2-.25.58-.16.79-.4.79-.31,1.59-.72,2.37,0a1.47,1.47,0,0,1,.23.49,1.15,1.15,0,0,1-.1.52,1.57,1.57,0,0,1-.32.41,3.48,3.48,0,0,1-.6.4,2.24,2.24,0,0,1-.4.22l-.38.2-.37.19-.35.2-.34.22a2.33,2.33,0,0,1-.34.2,1.93,1.93,0,0,1-.34.19,1.66,1.66,0,0,1-.35.18,3.13,3.13,0,0,1-.36.19c-.17.1-.35.2-.52.32s-.23.19-.35.28-.51.46-.79.67a93.52,93.52,0,0,1-26.82,8.64,4.43,4.43,0,0,0-1.7.18,2.22,2.22,0,0,1-.57.07,4.83,4.83,0,0,0-1.92.33,2.24,2.24,0,0,1-.58.06,7.11,7.11,0,0,0-2.29.35c-.21,0-.41,0-.62,0-.65-.08-1.46,0-1.43-1,0-.67.61-1,1.23-1.13,1-.23,1.84-.67,2.8-.87l.77,0c.48-.4,1.16,0,1.63-.37a1.7,1.7,0,0,1,.39,0C105.77,82.89,106.44,83.35,106.91,82.93Z"/><path class="cls-24" d="M102.51,83.73a18.64,18.64,0,0,1-3.12,1.58c-.23.09-.55.23-.43.55s.42.24.67.26l.58,0c-.94,1.69-2.73,1-4.07,1.24a46,46,0,0,1-9.68.51c-2.26,0-4.52,0-6.78,0-.8,0-1.76,0-1.77-1.14s.92-1.23,1.86-1.26a24.67,24.67,0,0,0,5.15-.17c3.11-.08,6.21-.38,9.3-.72C97,84.3,99.75,84,102.51,83.73Z"/><path class="cls-25" d="M84.92,85.33a2.31,2.31,0,0,1-1.71.39H79.62a1.15,1.15,0,0,0-1.23.81c-.09.3,0,.59.29.64a10.31,10.31,0,0,0,1.58.12c2.12,0,4.25.06,6.38.08-.36,1.14-1.35.9-2.16.92-2.58,0-5.17,0-7.75,0s-5.22-.64-7.86-.41c-.23,0-.45,0-.68,0a9.6,9.6,0,0,0-3.54-.33,3.49,3.49,0,0,1-1.53-.3,11.66,11.66,0,0,0-2.59-.69,1,1,0,0,1-.41-.43c-.3-1.17-.14-1.5.88-1.57.78-.05,1.56,0,2.33,0l1.19,0c.88.5,1.92-.13,2.81.38a37.4,37.4,0,0,1,6.51.34,16.19,16.19,0,0,0,3,.06Z"/><path class="cls-26" d="M140.2,73c-.57-1-1.56-.85-2.48-.87,1-.65,1.95-1.32,2.95-2,2.15-1.39,4.22-2.9,6.25-4.45.13-.14.26-.26.4-.39h0a3.5,3.5,0,0,1,.39-.38h0c.19-.26.58-.17.77-.43h0a1.14,1.14,0,0,1,1.64.26,1,1,0,0,1,.18.48,1.43,1.43,0,0,1-.13.49l-.12.21a2.88,2.88,0,0,1-.3.39c-.05.06-.1.11-.15.18s-.21.23-.32.35-.1.12-.15.18-.19.27-.29.4l-.15.2a3.47,3.47,0,0,1-.34.42,35.24,35.24,0,0,1-5.65,4.3C142,72.83,141.23,73.54,140.2,73Z"/><path class="cls-27" d="M150.25,65.4a3,3,0,0,0-1.75-.91c.3-.35.56-.73.89-1a41.4,41.4,0,0,0,5.93-7.32c.15-.12.25-.28.39-.41s0-.26,0-.39l.39-.4h0c1.07.43,1.07.43.95,1.33,0,.25-.06.51-.1.77.6.93,0,1.63-.48,2.31A32.52,32.52,0,0,1,154.55,62a18.3,18.3,0,0,0-2.4,2.5C151.7,65.15,151.21,65.85,150.25,65.4Z"/><path class="cls-21" d="M67.33,84.91H65.58a1.48,1.48,0,0,1-1.06-.38C65.46,84.61,66.47,84.25,67.33,84.91Z"/><path class="cls-14" d="M159.32,44.12c0,.68.17,1.42-.4,2C159,45.44,158.74,44.7,159.32,44.12Z"/><path class="cls-24" d="M106.91,82.93c-.45.48-1,.37-1.61.38A2,2,0,0,1,106.91,82.93Z"/><path class="cls-24" d="M104.91,83.33c-.46.48-1,.38-1.63.37A2.11,2.11,0,0,1,104.91,83.33Z"/><path class="cls-26" d="M134.11,74.1a1,1,0,0,1-.83.4A1.12,1.12,0,0,1,134.11,74.1Z"/><path class="cls-26" d="M137.72,72.12a1,1,0,0,1-.79.4A1,1,0,0,1,137.72,72.12Z"/><path class="cls-27" d="M148.51,64.5a1,1,0,0,1-.77.43A1,1,0,0,1,148.51,64.5Z"/><path class="cls-20" d="M156.12,54.92l-.39.4Z"/><path class="cls-20" d="M155.71,55.71l-.39.41Z"/><path class="cls-27" d="M147.72,64.94l-.39.38Z"/><path class="cls-27" d="M147.32,65.33l-.4.39Z"/><path class="cls-26" d="M136.92,72.53l-.44.37Z"/><path class="cls-26" d="M136.11,72.94l-.43.37Z"/><path class="cls-26" d="M135.31,73.35l-.43.36Z"/><path class="cls-26" d="M134.51,73.74c-.13.13-.27.25-.41.37Z"/><path class="cls-28" d="M60.12,86.11a.26.26,0,0,0,.32,0c.91.46,2-.16,2.88.38l1.2.39a2.23,2.23,0,0,0,.87.36q6.52.73,13,1.35a4.09,4.09,0,0,0,.6.07c3.8-.22,7.57.63,11.35.38a182.5,182.5,0,0,0,18.22-1.7A108.94,108.94,0,0,0,132,81c9.62-3.93,18.54-9,24.53-18a23,23,0,0,0,3.76-14.17c.07-.65-.18-1.33.19-1.95,0-.23,0-.45.05-.68.44-1.21-.16-2.52.36-3.72,0,0,.11.1.12.15.36,1.81.73,3.61,1.07,5.41.09.46,0,1,.2,1.36.69,1,.34,2,.29,3a22.86,22.86,0,0,1-.85,5.08A21.6,21.6,0,0,1,157,66.2a40.71,40.71,0,0,1-2.87,3.29,27.52,27.52,0,0,1-3,2.62,4.47,4.47,0,0,0-1.47,1.61,22.75,22.75,0,0,1-2.4,1.6,15.57,15.57,0,0,1-2,1.2l-.4.4h0c-.87.64-2,.77-2.8,1.6h0c-.45.44-1.08.5-1.6.8h0c-.22.24-.59.16-.8.4-.45.44-1.08.5-1.6.8h0a3.62,3.62,0,0,0-1.6.8,50,50,0,0,0-6,2.4c-.32.37-.88,0-1.2.4h0a61.62,61.62,0,0,0-6.4,2h-.4c-1.5.28-2.92.85-4.4,1.2-.6.49-1.41-.09-2,.4a9.57,9.57,0,0,0-1.2,0c-2.48.43-5,.9-7.44,1.31a32.67,32.67,0,0,1-5.31.67,11.92,11.92,0,0,0-1.58.17,5,5,0,0,1-1,.18c-3-.17-5.94.59-8.94.45-1.66-.08-3.32,0-5,0a13.47,13.47,0,0,1-3.16-.28,11.08,11.08,0,0,0-2.38-.12A13.52,13.52,0,0,1,76,89.79a2.27,2.27,0,0,0-.59-.06A97.23,97.23,0,0,1,56,86.49a6.1,6.1,0,0,1-2.66-1.25,38.2,38.2,0,0,1,4.64.7A8.08,8.08,0,0,0,60.12,86.11Z"/><path class="cls-29" d="M130.52,83.72c.16-.2.29-.51.5-.58,1.82-.64,3.46-1.85,5.5-1.82-.69.81-1.75.91-2.65,1.27A9,9,0,0,1,130.52,83.72Z"/><path class="cls-29" d="M122.92,86.12c0-.05.08-.12.13-.14a13.85,13.85,0,0,1,6.27-1.86c-1.67.62-3.34,1.26-5,1.85A6.28,6.28,0,0,1,122.92,86.12Z"/><path class="cls-29" d="M118.12,87.32a8,8,0,0,1,4.4-1.2A9.3,9.3,0,0,1,118.12,87.32Z"/><path class="cls-14" d="M160.92,42.52c0,.66,0,1.32-.07,2a3.58,3.58,0,0,1-.29,1.74v-5C160.67,41.67,160.79,42.09,160.92,42.52Z"/><path class="cls-29" d="M142.12,78.52c.58-1.16,1.71-1.33,2.8-1.6A6.11,6.11,0,0,1,142.12,78.52Z"/><path class="cls-29" d="M147.32,75.32a4.18,4.18,0,0,1,2.4-1.6A3.2,3.2,0,0,1,147.32,75.32Z"/><path class="cls-29" d="M145.32,76.52a2.58,2.58,0,0,1,2-1.2A2,2,0,0,1,145.32,76.52Z"/><path class="cls-29" d="M136.52,81.32c.36-.6.72-1.23,1.6-.8A2.4,2.4,0,0,1,136.52,81.32Z"/><path class="cls-29" d="M140.52,79.32a2.36,2.36,0,0,1,1.6-.8A1.52,1.52,0,0,1,140.52,79.32Z"/><path class="cls-29" d="M138.12,80.52a2.36,2.36,0,0,1,1.6-.8A1.52,1.52,0,0,1,138.12,80.52Z"/><path class="cls-29" d="M116.12,87.72c.58-.58,1.32-.35,2-.4v.4Z"/><path class="cls-29" d="M129.32,84.12a1.37,1.37,0,0,1,1.2-.4A1.41,1.41,0,0,1,129.32,84.12Z"/><path class="cls-29" d="M139.72,79.72a1,1,0,0,1,.8-.4A1.08,1.08,0,0,1,139.72,79.72Z"/><path class="cls-29" d="M144.92,76.92l.4-.4Z"/><path class="cls-30" d="M160.46,48.8a13.16,13.16,0,0,1-.13,7.66A28.65,28.65,0,0,1,158,62.17a20.54,20.54,0,0,1-2.14,3.12,39.2,39.2,0,0,1-7.18,7.15,90.24,90.24,0,0,1-9.76,6.19c-1.16.63-2.41,1.11-3.61,1.68a89,89,0,0,1-10.83,4c-3.29,1.06-6.65,1.87-10,2.61-3.57.78-7.2,1.14-10.77,1.89a8.44,8.44,0,0,1-1.59.09,13,13,0,0,0-3.17.29,9.36,9.36,0,0,1-2.19.11,14.24,14.24,0,0,0-4,.32,4.29,4.29,0,0,1-1.39.08,39,39,0,0,1-6.56-.32,23.39,23.39,0,0,0-4.19-.07A10.57,10.57,0,0,1,77.27,89a2.75,2.75,0,0,0-1-.08c-3,.17-5.8-.61-8.68-1.05-.53-.08-1.06-.13-1.59-.16a1.6,1.6,0,0,1-1.09-.4,6.16,6.16,0,0,1,3.3,0,.2.2,0,0,1,.29,0,126.46,126.46,0,0,0,18.75,1l.63,0h.94c.64,0,1.28,0,1.91,0a86.43,86.43,0,0,0,11.49-.54l.61-.19a7.23,7.23,0,0,0,2.34-.36,4.55,4.55,0,0,1,1.11-.11,3.44,3.44,0,0,0,1.55-.22,1.76,1.76,0,0,1,.5-.13,6.25,6.25,0,0,0,1.78-.22,2.81,2.81,0,0,1,.49-.16,4.56,4.56,0,0,0,1.75-.32,2.23,2.23,0,0,1,.51-.12,10.94,10.94,0,0,0,3.16-.57,2.22,2.22,0,0,1,.49-.18,4.21,4.21,0,0,0,1.21-.25,2.51,2.51,0,0,1,.46-.16,3.14,3.14,0,0,0,.93-.29,2,2,0,0,1,.48-.14c.55,0,1-.36,1.5-.45a95.47,95.47,0,0,0,18-7.41c6.1-3.39,11.54-7.57,15.6-13.36a29.58,29.58,0,0,0,4.57-10.33c.16-.64.32-1.27.5-1.9a5.75,5.75,0,0,0,.37-1.93C160.18,48.81,160.29,48.75,160.46,48.8Z"/><path class="cls-31" d="M106.52,87.72h-1.2c-.74.51-1.67-.12-2.4.4a88.91,88.91,0,0,1-10.06.61,4.45,4.45,0,0,0-2.34.19h-2a.24.24,0,0,1-.4,0,.5.5,0,0,1,0-.59,1.88,1.88,0,0,1,1.61-.61,129.78,129.78,0,0,0,32-5.35,94.54,94.54,0,0,0,18.41-8c4.38-2.4,7.81-5.89,11.33-9.28a18.48,18.48,0,0,0,2.62-3.47c.58-.86,1.18-1.71,1.75-2.57A6.89,6.89,0,0,0,157,57a8.51,8.51,0,0,0,1.45-2.49c.3-.57.57-1.15.86-1.72a9.85,9.85,0,0,1-.64,4.3,27.12,27.12,0,0,1-3.33,6.52c-2,3-4.68,5.24-7.15,7.73a13.2,13.2,0,0,1-1.48,1,67.68,67.68,0,0,1-12.32,7.24,93.18,93.18,0,0,1-13.44,4.92c-.46.44-1.15,0-1.6.4s-.88,0-1.2.4-1.15,0-1.6.4c-1.31.4-2.68.48-4,.8-.6.48-1.41-.09-2,.4s-1.67-.11-2.4.4C107.66,87.76,107,87.27,106.52,87.72Z"/><path class="cls-14" d="M160.46,48.8a3.14,3.14,0,0,0-.31.18c0-.71-.21-1.45.36-2.06C160.49,47.55,160.48,48.17,160.46,48.8Z"/><path class="cls-32" d="M154.08,61.62a1.83,1.83,0,0,1-.09.59A23.29,23.29,0,0,1,152.13,65c-1.46,1.71-3,3.35-4.56,5a8.7,8.7,0,0,1-1.29.94,9.08,9.08,0,0,0-1.49,1.29,5.25,5.25,0,0,1-2.93,1.94,1.41,1.41,0,0,0-.7.35,12.46,12.46,0,0,1-3.09,1.81,43.72,43.72,0,0,0-5.56,3.09.87.87,0,0,1-.36.18,33.82,33.82,0,0,0-4.3,1.54c-1.33.42-2.62,1-4,1.35-3,.83-6,1.87-9,2.45a32.8,32.8,0,0,0-3.69.82c-2.75.85-5.66.76-8.42,1.48a1.1,1.1,0,0,1-.4,0c-2-.16-3.94.53-5.95.47-.59,0-1.18,0-1.78,0A4.68,4.68,0,0,0,93,87.9a6.27,6.27,0,0,1-2,.21,8.63,8.63,0,0,0-2.95.41,67.56,67.56,0,0,1-11.38-.32c-.27,0-.19-.3-.22-.47,2.59,0,5.18,0,7.76-.1a6.09,6.09,0,0,0,2.36-.25c1.52,0,3,0,4.55-.12,2.77-.23,5.53-.54,8.29-.84a3.94,3.94,0,0,0,.73-.25.25.25,0,0,0,.31,0c.77-.52,1.71.06,2.5-.38a.22.22,0,0,0,.3,0c.64-.45,1.44,0,2.09-.36a.24.24,0,0,0,.31,0c.53-.39,1.2,0,1.75-.34a20.69,20.69,0,0,0,4.48-.83,103,103,0,0,0,20.84-7.07,5.85,5.85,0,0,0,1.73-.95c.21-.24.58-.16.8-.4h0c.21-.24.58-.16.79-.41h0a.94.94,0,0,1,.61-.34.14.14,0,0,0,.2-.09c.16-.11.27-.3.5-.3l-.06,0c.15-.37.56-.28.82-.46l0,0c.17-.32.57-.24.8-.46h0c.18-.26.58-.17.76-.44h0a1.76,1.76,0,0,1,.49-.33v0a15.54,15.54,0,0,0,3.4-2.07,28,28,0,0,0,4.52-3.59,1.81,1.81,0,0,1,.44-.39l0,0a.9.9,0,0,1,.45-.41l0,0a.67.67,0,0,1,.46-.42l0,0a.57.57,0,0,1,.46-.43l0,0a.51.51,0,0,1,.45-.43h0a9.31,9.31,0,0,0,2.09-2C152.93,62.83,153.5,62.22,154.08,61.62Z"/><path class="cls-24" d="M103,85.75a4.59,4.59,0,0,1-2.5.38C101.27,85.47,102.17,85.77,103,85.75Z"/><path class="cls-24" d="M105.41,85.35a3.44,3.44,0,0,1-2.09.36C103.94,85.13,104.69,85.35,105.41,85.35Z"/><path class="cls-24" d="M107.47,85a2.5,2.5,0,0,1-1.75.34C106.23,84.81,106.85,84.93,107.47,85Z"/><path class="cls-26" d="M139.69,73.3a.89.89,0,0,1-.76.44A.94.94,0,0,1,139.69,73.3Z"/><path class="cls-26" d="M138.94,73.73a.94.94,0,0,1-.8.46A.86.86,0,0,1,138.94,73.73Z"/><path class="cls-26" d="M138.18,74.16a1,1,0,0,1-.82.46A.77.77,0,0,1,138.18,74.16Z"/><path class="cls-26" d="M136.11,75.31a.94.94,0,0,1-.79.41A1,1,0,0,1,136.11,75.31Z"/><path class="cls-26" d="M135.32,75.72a.91.91,0,0,1-.8.4A1,1,0,0,1,135.32,75.72Z"/><path class="cls-26" d="M137.42,74.58a.47.47,0,0,1-.5.3Z"/><path class="cls-26" d="M136.72,75a.68.68,0,0,1-.61.34Z"/><path class="cls-26" d="M140.2,73a.47.47,0,0,1-.49.33Z"/><path class="cls-33" d="M76.52,87.73a2,2,0,0,0,1.49.39h3.58a17.25,17.25,0,0,1,3.36.27,18.52,18.52,0,0,0,3.17.13v.4H81.57A20.13,20.13,0,0,1,78,88.63c-1.68-.3-3.4-.33-5.1-.52-1.37-.16-2.74-.37-4.1-.58-.11,0-.21-.15-.32-.23A73.85,73.85,0,0,1,76.52,87.73Z"/><path class="cls-33" d="M68.22,87.29l-3.3,0c-.14-.13-.27-.27-.4-.4A10.26,10.26,0,0,1,68.22,87.29Z"/><path class="cls-21" d="M63.32,86.53a5.91,5.91,0,0,1-2.88-.38c.59,0,1.19,0,1.79,0A1.44,1.44,0,0,1,63.32,86.53Z"/><path class="cls-27" d="M150.23,65.39a.54.54,0,0,1-.45.43A.6.6,0,0,1,150.23,65.39Z"/><path class="cls-27" d="M149.82,65.78a.57.57,0,0,1-.46.43A.63.63,0,0,1,149.82,65.78Z"/><path class="cls-27" d="M149.41,66.17a.57.57,0,0,1-.46.42Z"/><path class="cls-27" d="M149,66.55a.54.54,0,0,1-.45.41Z"/><path class="cls-27" d="M148.56,66.94a.51.51,0,0,1-.44.39Z"/><path class="cls-33" d="M90.52,88.92a1.73,1.73,0,0,1,1.29-.4H95.2a23.64,23.64,0,0,0,3.35-.27,33.43,33.43,0,0,1,4.37-.13,2.22,2.22,0,0,1-1.69.4,10.87,10.87,0,0,0-3.16.29,5.52,5.52,0,0,1-1.58.1Z"/><path class="cls-33" d="M112.52,86.52a9.18,9.18,0,0,1,4-.8A7.31,7.31,0,0,1,112.52,86.52Z"/><path class="cls-33" d="M108.12,87.32c.71-.65,1.59-.32,2.4-.4C109.8,87.56,108.93,87.23,108.12,87.32Z"/><path class="cls-33" d="M102.92,88.12c.71-.65,1.59-.32,2.4-.4C104.6,88.36,103.73,88,102.92,88.12Z"/><path class="cls-33" d="M110.52,86.92c.58-.58,1.32-.35,2-.4C111.94,87.09,111.2,86.87,110.52,86.92Z"/><path class="cls-33" d="M119.32,84.92c.44-.49,1-.38,1.6-.4C120.47,85,119.88,84.9,119.32,84.92Z"/><path class="cls-33" d="M116.52,85.72c.44-.49,1-.38,1.6-.4C117.67,85.81,117.08,85.7,116.52,85.72Z"/><path class="cls-33" d="M106.52,87.72c.44-.49,1-.38,1.6-.4C107.67,87.81,107.08,87.7,106.52,87.72Z"/><path class="cls-33" d="M118.12,85.32a1.37,1.37,0,0,1,1.2-.4A1.41,1.41,0,0,1,118.12,85.32Z"/><path class="cls-33" d="M88.12,88.92h.4C88.38,89.09,88.25,89.09,88.12,88.92Z"/></g></g></svg>