<svg xmlns="http://www.w3.org/2000/svg" viewBox="0 0 1596.05 752.77"><defs><style>.cls-1{fill:#f2f2f2;}.cls-2{fill:#eee;}.cls-3{fill:#ececec;}.cls-4{fill:#ededed;}.cls-5{fill:#ebebeb;}.cls-6{fill:#f1f1f1;}.cls-7{fill:#f4f4f4;}.cls-8{fill:#f0f0f0;}.cls-9{fill:#d3d3d2;}.cls-10{fill:#c4c4c4;}.cls-11{fill:#bdbcbb;}</style></defs><g id="Слой_2" data-name="Слой 2"><g id="Слой_1-2" data-name="Слой 1"><path class="cls-1" d="M112.24,292.6c0-1.33,0-2.66,0-4,2.57-2.07,1.54-5.9,4-8q0-4,0-8c2.54-2.06,1.52-5.89,4-8,0-1.33,0-2.66,0-4,2.56-2.06,1.54-5.9,4-8,0-2.66,0-5.32,0-8,1.49-1.17,2.54-2.77,3.95-4,0-2.65,0-5.31,0-8,2.55-2.06,1.53-5.89,4-8,0-1.33,0-2.66,0-4,2.56-2.06,1.54-5.9,4-8,0-2.66,0-5.32,0-8,2.55-2.06,1.53-5.89,4-8,0-1.33,0-2.66,0-4,2.56-2.06,1.54-5.9,4-8q0-4,.05-8c2.55-2.06,1.53-5.89,4-8,0-1.33,0-2.66,0-4,2.56-2.07,1.54-5.9,4-8,0-2.66,0-5.32.05-8,2.55-2.06,1.52-5.89,4-8q0-2,0-4c2.56-2.07,1.54-5.9,4-8q0-4,.05-8c2.54-2.06,1.51-5.89,3.95-8q0-2,0-4c2.56-2.06,1.53-5.9,4-8,0-2.66,0-5.32,0-8,1.49-1.17,2.55-2.77,3.95-4q0-4,0-8c2.55-2.06,1.53-5.89,4-8,0-1.33,0-2.66,0-4,2.57-2.06,1.55-5.9,4-8,0-2.66,0-5.32,0-8,2.55-2.06,1.53-5.9,4-8,0-1.33,0-2.65,0-4,2.56-2.06,1.54-5.9,4-8,0-1.32,0-2.64,0-4,1.51-1.16,2.57-2.78,4-4,0-1.32,0-2.64,0-4,1.45-1.2,2.64-2.66,4-4h0c1.31-1.34,2.77-2.53,4-4,1.33,0,2.66-.05,4,0,1.25-1.42,2.85-2.47,4-4l8,0c2.13-2.42,5.94-1.41,8-3.95l28-.05c6.91-3.65,14.37-1.83,21.54-1.83q270.18-.21,540.33-.13c7.9-.4,11.51,5.54,15.66,10.7,73.93,91.89,144.41,186.32,209.69,284.57,16.73,25.19,16,25.51-.34,51.11-31.21,48.74-70,89.86-118.25,122-14.94,10-30.06,20.19-43,32.53-22.33,21.34-47.84,26.83-78.18,27-126,.71-251.25-7.61-376.12-23.8C325,494,228.09,473.68,133.05,444.55c-12.12-3.72-23.94-8.34-33.94-16.49-9.57-7.8-17.33-16.69-16.78-30.17,0-3.22-.39-6.53,1.91-9.29h0a11.46,11.46,0,0,0,2.21-3.67c.28-.66.57-1.32.85-2a17.14,17.14,0,0,0,.91-4.19c0-.72,0-1.44,0-2.16q0-2,0-4c2.57-2.06,1.55-5.9,4-8l0-8c2.55-2.06,1.52-5.89,4-8q0-2,0-4c2.56-2.07,1.54-5.9,4-8,0-1.32,0-2.64,0-4,6.83-5,12.86-1.12,18.43,2.27,59.63,36.33,127.08,50.48,193.18,68.53,107.9,29.45,219.18,35.48,329.53,48,38.36,4.36,77.34,5.77,115,13.35,43.59,8.79,76.7-5.28,107-33.69,31.07-29.11,63.39-56.83,90.77-89.8,11-13.22,8.82-23.67-.06-35.6-35.4-47.53-68.9-96.46-105.62-143-1.24-1.57-2.93-2.91-3.73-4.67-18.45-40.35-53-43.94-90.82-39.69-87.26,9.82-175,13-262.43,22.24C416.37,148.5,345,168.7,275.9,196.43c-54.56,21.92-103.36,55.1-141.83,101.24-6.48,7.76-12.39,18.85-25.86,10.93l.07-8C110.82,298.54,109.8,294.71,112.24,292.6Z"/><path class="cls-1" d="M108.21,308.6c7.24.72,13.1-1.75,17.33-7.7C143.1,276.21,166,257.3,190,239.22c16.1-12.11,33.88-20.87,50.77-31.33,23-14.22,48.4-21.52,72.92-31.59,29.1-12,59.95-17.08,89.71-26.28,15-4.65,31.07-6.62,46.13-11.89,6.49-2.28,13.19-1.29,19.81-1.5,11.91-.39,23.89,1.11,35.59-3.21,4.16-1.54,9.23-.68,13.89-.79,8-.19,15.86.29,23.67-2.6,4.2-1.56,9.17-1.23,13.8-1.37,9.28-.29,18.7.88,27.54-3.25a9.59,9.59,0,0,1,3.94-.6c27.9.2,55.41-6.43,83.47-4.37,11.19.82,22.54,1.06,33.58-3,4.16-1.53,9.23-.69,13.88-.8,8-.19,15.78-.1,23.7-2.48,6.19-1.86,13.15-1.37,19.78-1.48,12-.2,24,.23,36-.14,10.73-.33,19.47,3.47,26.84,11,2.79,2.86,5.91,5.49,8.25,8.69,11.74,16.05,23.1,32.39,34.93,48.37,10.64,14.38,21,29.1,32.9,42.39,7.26,8.11,11.91,17.52,18,26.15,11.49,16.24,23.72,31.95,35.43,48a166.91,166.91,0,0,1,13,19.93c3.67,7,2.91,14.12-2.5,20.34-.44.51-.87,1-1.32,1.51-14.79,16.17-28.61,33.4-44.61,48.26-27.67,25.72-54.78,52.25-85.9,74-10.44,7.29-21.6,12.71-35.23,11.62-13.19-1.06-26.67,1.33-39.49-3.74-18.72,1.59-36.73-4.79-55.44-4.75a206,206,0,0,1-43.34-4.85c-8.6-1.86-17-3.32-25.59-2.67-8.33.62-15.51-4.67-23.48-3.95-20.1,1.83-39.43-6.21-59.48-4.24-14.56-5.37-30.43-1.91-45.08-6.7a10.25,10.25,0,0,0-3.88-.85c-17.43,1.68-34.31-3.24-51.4-4.94-19.59-2-39.47-2.69-58.71-9.09-15.59-5.17-32.35-6.71-48.44-10.52-37.41-8.87-74.9-17.41-111.41-29.73-8.13-2.74-16.73-4.07-25-6.28-5.78-1.52-11.78-2.74-17.11-5.28-25.76-12.3-53.16-21.3-76.82-37.92-3.74-2.62-8.1-4.7-13-4.66C100.19,323.71,102.51,315.6,108.21,308.6Z"/><path class="cls-2" d="M40.24,540.59l.08-8a13.64,13.64,0,0,1,3.92-2.28c1.89-1.89,2-3.8,0-5.72l0-4c2.53-2.07,1.51-5.89,3.94-8,0-1.33,0-2.66,0-4,2.55-2.07,1.54-5.9,3.95-8l.09-8a55.27,55.27,0,0,0,3.91-4c0-2.65.05-5.29.07-7.94A4,4,0,0,1,62,481.74c2.41,4.06,2.61,8.48,2.09,13-6.34,34.9-2.91,40,32.46,46,26.31,4.47,53.13,4,79.61,5.35,67.75,3.58,135.4,8.6,203.36,9.85,87.78,1.62,175.56,5.45,263.37,7.87,32.53.89,65.12,2.46,97.72,3.35,50.81,1.38,100.92-2.16,150.79-13.09,57.9-12.7,116.41-22.57,174.55-34.26,13-2.63,23-8.56,32.13-18.27,37.42-39.77,63.87-85.3,85.66-135.73,14.63-33.85,10-56.1-8.63-85C1120,195,1061.87,111.36,1004.34,27.23c-4.6-6.73-16.29-14-4.45-24.55,53.89.06,107.76-.14,161.6.1C1179.06,22.65,1193,45.13,1207,67.47q68.82,110,133.18,222.73c8.55,15,13.94,29.21,10.27,47.15-3.31,16.13-1.64,33.08-2.7,49.67-1.68,26.46-6,50.93-21.5,73.22-6.62,9.51-5.15,21.6-2.52,33,3.57,15.46-2.88,26-17.3,31.6-46.48,18.15-91.87,39.63-140,52.92-33.21,9.17-68.37,8.8-102.67,12.5-59.38,6.4-118.69,14.19-178.23,18-45.48,2.92-90.59,16.65-136.79,6.5-8.34-1.84-17.27-.9-25.92-.67-110.52,3-220.94-3-331.37-5.11-63-1.23-126.49,1-189.15-7.4-39.75-5.3-79.65-.75-119.37-6.53-33.49-4.87-41-9.21-46.71-42.44l0-4C38.83,546.53,37.81,542.71,40.24,540.59Z"/><path class="cls-3" d="M12.27,636.61l.05-4c2.56-2.06,1.49-5.89,3.92-8,0-1.33,0-2.65.05-4,2.55-2.08,1.54-5.9,3.94-8.05q0-4,.1-7.93c4.77-3.55,9-1.17,12.68,1.72C50.8,620.46,71.52,622,93.28,623.14c114.37,5.94,228.91,4.77,343.26,8.65,141.88,4.82,283.69,2.73,425.48,2.06,61.65-.29,123.56-5.24,185.25-10,34.54-2.67,69.23-1.23,103.86-.53,48.13,1,95.51-6.91,143.14-11.93,9.76-1,18.77-5.07,22.68-14.31,15.25-36,45.85-51.86,80.32-63.14,5.68-1.85,11.24-4.17,16.86-6.25,31.11-11.53,28.31-12.34,29.34-44.35,3.22-100.24-40.92-187.71-73.29-278-11.67-32.56-32.48-62.52-51.64-92.18C1299.73,84,1283.76,53.24,1265.08,24c-3.93-6.15-10.26-13-3-21.16,32.67.74,65.4-2.54,98,1.7,7.28.23,14.39.08,21.64,2.53,13.6,4.6,23,12.64,27.15,26.58,7.69,26.1,15.46,52.16,23.08,78.27,4.28,14.65,8.26,29.38,12.47,44q15.93,55.47,32,110.91c7.42,25.48,15.25,50.85,22.69,76.32q14.52,49.68,28.7,99.45c6.57,22.95,13,46,19.48,68.92,13.81,48.49,26.54,97.33,42,145.29,7,21.73,6.26,43.16,6.75,65,.15,6.51-1.67,11.82-8,14.73a10.63,10.63,0,0,1-3.34-7.81c-.08-5.86,3-11.58.75-19.34-15.66,7-31.82,9-48.39,8.7-29.37.07-58.67-.11-88,.11-12.75.1-23.57-3.21-31.94-13.21-12.15-14.51-28.09-18.82-46.44-18.23-61.26,2-122.85-.23-183.47-5.52-93.24-8.14-186.36-2.37-279.34-6.92-138.47-6.78-277,.4-415.35-4-106.51-3.42-213-1.64-319.44-4.21-36.52-.88-73.09-3-109.69-3.42C42.08,662.49,24.6,654.56,12.27,636.61Z"/><path class="cls-4" d="M1260.08,4.65c8.9,14.79,18.28,29.31,26.62,44.4,21.52,39,48.26,74.84,67.22,115.27a26,26,0,0,0,2.73,5.33c21,26,29.65,57.64,40.25,88.34q17.24,50,33.71,100.15c5.61,17,10.4,34.3,15.84,51.37,1.67,5.25,1.56,10.5,1.59,15.81,0,13.32-.07,26.65,0,40,.09,10.6-1.06,21.27,3.16,31.56,1.19,2.92.64,6.57.74,9.89.27,8.39-4.2,13.79-11.42,17.08-5.43,2.48-11,4.62-16.61,6.74-19.86,7.52-39.68,15.12-59.63,22.39-12.49,4.56-21.54,13-28.32,24-5.56,9.06-10.79,18.31-16,27.6-4.2,7.54-10.25,10.47-18.89,12.45-19.53,4.46-39.87.91-59,7.19-18.73-1.68-36.92,3.34-55.41,4.74-19.87,1.5-39.52-.73-59.28-.43-20,.32-40,0-60,.1-10.6.06-21.21-.85-31.59,3.08-4.14,1.57-9.22.83-13.87.86-14,.09-28,0-42,0-4,0-8.28-.83-11.94.31-18.92,5.91-38.31,3-57.5,3.65-8.63.28-17.15-.13-25.64,2.86-4.81,1.69-10.52,1.13-15.82,1.13q-196.89.07-393.77,0c-5.31,0-11.05.65-15.84-1.09-9.14-3.31-18.35-2.84-27.62-2.85q-81-.07-161.91,0c-7.95,0-15.8.15-23.7-2.37-5.53-1.76-11.81-1.51-17.76-1.55-26.65-.14-53.3.05-79.95-.1-12.58-.07-25,.24-37.61-3-9.41-2.42-19.86-1-29.84-.92-21.47.11-40.57-5.39-55.27-22.19-1.11-1.26-3.66-1.25-5.55-1.84l8-28c1.94-.44,4.27-1.32,5.79,0,29.49,25.45,65.91,20.63,100.41,22,123,5,245.92,9.44,369,11.09,53.81.72,107.73,1.87,161.6,2.86,33.23.6,66.4-.23,99.66,3.49,40.54,4.52,80.9-4.14,121.3-6.91,47.62-3.26,95-9.77,142.61-14.36,42.29-4.09,84.59-8.32,126.75-13.28,26.93-3.17,52-16.36,77.22-26.4s50.63-20.35,76.09-30.09c14.62-5.59,20.58-14.52,16.55-28.88-5.76-20.52-.58-38.21,11.7-54.41,7.19-9.51,8.11-20.16,9.77-31.56,4.1-28.11-1.4-57.06,8-84.64,2.6-7.6-1.76-14.42-5.45-20.62C1311,240.32,1275.41,174,1234,111.15c-19-28.87-35-59.69-55.9-87.37-4.76-6.29-9-13.88-.16-20.91C1205.34,3.69,1232.79.24,1260.08,4.65Z"/><path class="cls-5" d="M12.27,636.61c5.08,0,8.55,2.9,12.14,6,11.47,10.07,24.69,14.66,40.23,14.13,20.62-.71,41.29-.24,61.93-.15,9.94,0,19.75-.28,29.61,2.94,6.08,2,13.19,1,19.83,1q119.89.07,239.78.06c9.27,0,18.39-.08,27.63,2.72,6.78,2,14.51,1.21,21.81,1.21q195.81.09,391.63.07c10.59,0,21.13-.59,31.6,3,5.41,1.87,11.86.91,17.84.91q101.91.07,203.81.07c9.93,0,19.76,1.6,29.57,2.55,17.76,1.73,35.25,6.08,53.32,5.57,22.63-.64,45.29-.21,67.93-.13,10.6,0,21.16-.65,31.59,3.08,4.77,1.71,10.54.85,15.85.86,24.64.07,49.3.52,73.93-.16,13.71-.37,24.74,3.75,33.6,14,.44.5,1.08.87,1.39,1.43,9.23,16.37,24,17.64,40.92,17,28.6-1,57.27-.26,85.91-.25q1.62,4.25-2.3,6.52c-8,4.44-16.84,3.36-25.44,3.36q-727.76.06-1455.5,0c-9.33,0-18.63-.58-27.94-1.26-5.38-.39-9.46,1.59-6,8.31C39.56,739.35,54.3,739,69,739q279.95,0,559.87,0,444.9,0,889.79.07c18.1,0,35.9-.88,52.89-7.75,2.09-1.26,4.21-2.52,6.3-3.82,3.58-1.49,7-1.57,10.17,1.12v8c-7.57,10.43-18.57,14.41-30.69,15.88-4.6.55-9.32.13-14,.13q-741.24,0-1482.49.1c-12.8,0-25.09-1.13-37-6.3-9.2-4-15.76-10.49-18.17-19.95A211.56,211.56,0,0,1,.4,695.23c-1.61-16.14,1.73-31.67,7.88-46.62,2.56-2.08,1.56-5.9,3.94-8.07C12.21,639.23,12.23,637.92,12.27,636.61Z"/><path class="cls-6" d="M84.25,396.61c2.69,15.87,13,26.07,26.4,32.94,20.75,10.64,43.22,16.92,65.67,22.84,25.58,6.74,51.52,12.12,77.09,18.89A371.83,371.83,0,0,0,300,481c17.65,2.33,34.95,7.29,52.61,9.53,22.93,2.92,45,11.38,68.54,10.14,16.5,5.75,34.36,1.65,51,7.08,4.27,1.39,9.23.76,13.88.86,6.64.13,13.34-.37,19.64,2.49a8.59,8.59,0,0,0,3.83,1c18.69-1.29,36.8,4.47,55.37,4.54,7.31,0,14.47.17,21.66,2.54,4.88,1.61,10.48,1.34,15.77,1.41,14,.16,28,0,41.94.07,9.27,0,18.43-.23,27.59,2.91,5.43,1.86,11.85,1,17.82,1,44.6.06,89.22-.57,133.8.38,14.6.31,25.63-4.82,36-13.65,20.68-17.65,42.86-33.3,64.87-49.2,13.95-10.08,28.28-19.74,41.48-30.75,7-5.82,12.59-13.65,17.47-21.42,5.45-8.66,12.12-16.45,20.24-21.73,10.71-7,16.72-16.82,22.38-27.25,5.09-9.37,9.93-18.61,17.75-26.27,6.29-6.16,6.23-11.66.72-19.67-12-17.47-22.65-35.89-35.95-52.54a261.12,261.12,0,0,1-19.05-28c-13.4-22.19-29.84-42.19-44.81-63.25-13.05-18.35-26.55-36.37-40.21-54.28-12.44-16.31-25.4-32.22-38-48.37-14.28-18.24-28.44-36.57-42.72-54.81a15.9,15.9,0,0,1-3.34-9.19c27.56-4.41,55.3-.77,82.9-2,6.26-.14,9.09,4.48,12.37,8.73,72,93.25,138,190.75,203.08,288.9,11.8,17.79,13.23,33.24,1.68,51.4-25.66,40.37-49.1,82-91.48,108.74-18.62,11.74-28.41,33.2-43.44,49.2-7.52,8-15.5,14.48-26.2,17.29-94.16,24.74-189.81,32.75-286.84,25.3A48,48,0,0,0,659,550.73c-37.39-1.07-74.81,1.93-112.14-1.58-8-2.26-16.17-3.68-24.58-2.56-29-.65-58,1.69-87-1.4-4.67-.78-9.25-2.19-14.05-2.23-28.48-1.6-57,1.45-85.49-1.77-4.52-.63-8.84-2.4-13.48-2.43-14.5-1.3-29.16.67-43.61-2-4.33-.77-8.54-2.22-13-2.18-14.38-1.1-28.89.77-43.19-1.85-4.32-.81-8.54-2.17-13-2.12-16.57-1.18-33.25,1-49.75-1.7-4.14-.59-8-2.37-12.27-2.51-7.84-.89-15.82-.33-23.6-1.88-3.56-.75-7-2-10.53-2.86a68.14,68.14,0,0,1-7.32-2c-2.27-.74-4.48-1.66-6.73-2.46A65.51,65.51,0,0,1,92.7,515c-2.14-.89-4.22-1.92-6.33-2.91A48,48,0,0,1,82,510c-2.27-1.13-4.47-2.35-6.63-3.69-6-4.3-11.94-8.65-13.05-16.75-.87-18.95,7.12-35.95,11.78-53.68,2-7.51,6.74-14.5,4.27-22.84,0-3-.41-6,1.83-8.46,0-2.65,0-5.3.07-8C81.61,394.77,82.93,394.85,84.25,396.61Z"/><path class="cls-2" d="M1176.09,4.64c.08,4-.44,8.26,2.27,11.54,22.46,27.28,38.83,58.53,57.85,88.06,21.94,34.07,42.73,68.81,63.44,103.6,19,31.94,36.26,64.93,56.12,96.39,2.48,3.92,4.18,8.33,6.27,12.49,2.33,4.63,2.08,9-1.32,13-6.46,7.62-8.51,15.51-5.27,25.73a39.54,39.54,0,0,1,.08,21.76c-4,13.79-3.52,27.64-3.37,41.56.07,7-1.56,12.89-5.93,18.47-4.07,5.21-7.22,11.13-10.77,16.75-7.53,11.9-9.89,24.65-5.45,38.15,1.73,5.22,1.66,10.44,2.13,15.72.84,9.37-3.16,15.25-11.74,18.52-16.74,6.39-33.39,13-50.18,19.28-10.61,3.94-21.33,7.5-30.83,13.88-1.64,1.1-3.29,2.75-5.09,3-20.72,2.77-38.7,13.45-58.15,19.83-7.53,2.48-15.32,5.5-23.07,5.73-15.29.47-30.32,2.29-45.46,4.29-22.91,3-46.14,3.3-68.94,7.68-3.87.75-8,.46-12,.54-8.62.17-17.18-.37-25.63,2.84-4.16,1.58-9.18,1-13.83,1.13-7.32.14-14.5.14-21.65,2.7-4.22,1.5-9.17,1.17-13.81,1.3-9.28.24-18.59-.57-27.57,3.17-2.91,1.21-6.57.78-9.89.83-10.61.18-21.09-.05-31.59,3.24-6.1,1.91-13.21.63-19.86.81-11.91.31-23.88-1.09-35.58,3.2-4.16,1.53-9.22.75-13.88.77-15.32.07-30.65.11-46,0-10.6-.08-21.13.6-31.61-3-5.41-1.87-11.86-.91-17.85-.92q-89.94-.07-179.9-.06c-9.93,0-19.79.53-29.62-2.92-5.4-1.9-11.86-1-17.84-1-48.64-.06-97.28,0-145.92-.07-9.27,0-18.49.53-27.63-2.77-4.8-1.74-10.52-1.13-15.83-1.15-24-.1-48,0-72-.09-11.25-.05-22.54,1-33.58-3.11-4.15-1.56-9.22-.8-13.88-.82-18.65-.07-37.31,0-56,0-10,0-19.79.38-29.61-3-5.44-1.85-11.88-1.14-17.85-.94-16.15.55-30.07-3.83-40.86-16.59-2.51-3-6.13-5-9.24-7.45q2-8,4-16c1.45-1.19,2.51-2.77,3.91-4,0-1.32,0-2.64,0-4,4.66,3.31,6,8.49,7.92,13.47,7,18.55,11.72,22.58,30.44,22.34,17.34-.22,33.92,5.76,51.45,4.45,16.55-1.24,33.51-2,49.86.21,19.18,2.57,38.65,1.18,57.4,4.12,37.19,5.82,74.34,1.87,111.45,3.37,10.58.43,21.12-.55,31.59,3.07,5.41,1.86,11.86.92,17.84.93q60.93.09,121.87,0c7.29,0,14.59-.44,21.65,2.45,6.34,2.59,13.17,1.49,19.79,1.5q89.9.09,179.8,0A114.37,114.37,0,0,1,763,611.22c14.29,3.25,29.39,2.92,43.7.58,22.9-3.74,45.61-8.12,69-7.21,18.46-6.45,38.42-1.08,57-7.21,3.66-1.21,7.92-.67,11.91-.74,9.28-.17,18.5.35,27.58-3.09,4.14-1.57,9.2-.82,13.85-.91,6.65-.13,13.34.35,19.64-2.51a8.46,8.46,0,0,1,3.84-1c18.7,1.34,36.81-4.55,55.39-4.54,7.32,0,14.54.09,21.64-2.64,3.58-1.37,7.84-1.2,11.81-1.3,8.62-.23,17.28.48,25.55-3.19a15.93,15.93,0,0,1,7.88-.77c23.52,2.56,44.4-6.94,65.41-14.87,34.75-13.12,69.13-27.22,103.68-40.88,1.85-.73,3.88-1,5.71-1.76,12.51-5.2,16.61-10.68,12.49-23.06-6.88-20.61-1.23-38.05,10.81-54.12,7.61-10.14,11.2-20.71,10.42-33.33a80.7,80.7,0,0,1,2.68-27.61c2.13-7.44.84-15.84,1.19-23.81.47-10.55-1.47-21.25,2.93-31.56,2.57-6,0-11.82-3-17.11q-12.3-21.64-24.88-43.11c-5.67-9.75-12-19.14-17.1-29.2-12-23.78-27-45.69-40.06-68.81-18.24-32.43-40.46-62.33-58.34-95-8.56-15.63-19.65-29.95-30.25-44.37-5.3-7.19-9.73-14.24-9.31-23.48Q1170.09.53,1176.09,4.64Z"/><path class="cls-7" d="M1176.09,4.64H996.14c-29.34,10.05-58.67,10-88,0h-88l-567.93,0A10.69,10.69,0,0,1,261,.69c5.33,0,10.65,0,16-.06q529.21,0,1058.42.14c8.27,0,17.42-3.32,24.74,3.81l-100,.07Z"/><path class="cls-8" d="M80.25,412.61c1.88,4.21,3.46,8,1.71,13.17-5.27,15.65-9.28,31.73-14.55,47.39a53.76,53.76,0,0,0-3.16,19.44,2.6,2.6,0,0,1-4,0v-12c-2.5-2.67-2.2-5.35,0-8l.06-8c1.49-1.18,2.54-2.78,3.94-4,0-2.65,0-5.31.05-8,2.54-2.06,1.52-5.89,3.95-8,0-1.33,0-2.66,0-4,2.55-2.06,1.53-5.89,4-8,0-1.32,0-2.65,0-4,2.56-2.07,1.55-5.9,4-8,0-2.66,0-5.31,0-8C77.6,410.82,78.92,410.82,80.25,412.61Z"/><path class="cls-4" d="M20.23,612.55c0,3.31-.71,6.31-3.94,8.05C16.33,617.3,17,614.32,20.23,612.55Z"/><path class="cls-1" d="M224.21,4.65c-1.73,3.22-4.72,3.89-8,3.95C217.94,5.39,220.92,4.7,224.21,4.65Z"/><path class="cls-1" d="M188.22,32.58c-.06,3.3-.74,6.3-4,8C184.31,37.31,185,34.32,188.22,32.58Z"/><path class="cls-1" d="M184.22,44.59c-.06,3.3-.74,6.29-4,8C180.31,49.31,181,46.33,184.22,44.59Z"/><path class="cls-1" d="M180.22,60.58c-.06,3.3-.74,6.3-4,8C176.31,65.31,177,62.32,180.22,60.58Z"/><path class="cls-1" d="M176.23,72.59c-.07,3.29-.75,6.28-4,8C172.32,77.31,173,74.33,176.23,72.59Z"/><path class="cls-1" d="M168.23,100.59c-.07,3.3-.75,6.29-4,8C164.32,105.31,165,102.33,168.23,100.59Z"/><path class="cls-1" d="M148.23,168.59c-.06,3.29-.74,6.28-4,8C144.32,173.31,145,170.33,148.23,168.59Z"/><path class="cls-1" d="M160.23,128.58c-.06,3.3-.74,6.3-4,8C156.32,133.31,157,130.32,160.23,128.58Z"/><path class="cls-1" d="M156.23,140.6c-.07,3.29-.74,6.28-4,8C152.32,145.31,153,142.33,156.23,140.6Z"/><path class="cls-1" d="M152.22,156.58c-.05,3.3-.73,6.29-4,8C148.32,161.31,149,158.32,152.22,156.58Z"/><path class="cls-1" d="M144.22,184.58c-.05,3.3-.73,6.3-4,8C140.32,189.31,141,186.32,144.22,184.58Z"/><path class="cls-1" d="M140.23,196.59c-.06,3.29-.74,6.28-4,8C136.33,201.3,137,198.33,140.23,196.59Z"/><path class="cls-1" d="M136.23,212.58c-.06,3.3-.74,6.3-4,8C132.32,217.31,133,214.32,136.23,212.58Z"/><path class="cls-1" d="M132.23,224.59c-.06,3.29-.74,6.28-4,8C128.32,229.31,129,226.33,132.23,224.59Z"/><path class="cls-1" d="M124.23,252.59c-.06,3.3-.74,6.29-4,8C120.32,257.31,121,254.33,124.23,252.59Z"/><path class="cls-1" d="M120.24,264.6c-.07,3.29-.74,6.27-4,8C116.33,269.3,117,266.33,120.24,264.6Z"/><path class="cls-1" d="M116.23,280.58c-.06,3.3-.74,6.3-4,8C112.32,285.31,113,282.32,116.23,280.58Z"/><path class="cls-1" d="M112.24,292.6c-.07,3.29-.75,6.27-4,8C108.33,297.31,109,294.33,112.24,292.6Z"/><path class="cls-1" d="M100.23,336.58c-.06,3.3-.73,6.29-4,8C96.32,341.31,97,338.32,100.23,336.58Z"/><path class="cls-1" d="M96.24,348.6c-.07,3.29-.74,6.28-4,8C92.33,353.31,93,350.33,96.24,348.6Z"/><path class="cls-1" d="M92.23,364.57c0,3.31-.74,6.31-4,8C88.32,369.31,89,366.32,92.23,364.57Z"/><path class="cls-1" d="M84.28,384.62c.06-3.29.73-6.28,4-8l0,0q3.36,4,0,8A2.6,2.6,0,0,1,84.28,384.62Z"/><path class="cls-1" d="M84.25,396.61h-4c0-3.3.72-6.28,3.94-8C84.24,391.27,84.25,393.94,84.25,396.61Z"/><path class="cls-1" d="M80.25,412.61h-4c0-3.3.75-6.28,4-8C80.24,407.26,80.24,409.94,80.25,412.61Z"/><path class="cls-6" d="M76.23,420.57c0,3.3-.73,6.3-4,8C72.33,425.3,73,422.32,76.23,420.57Z"/><path class="cls-6" d="M72.24,432.58c-.06,3.3-.74,6.29-4,8C68.33,437.3,69,434.33,72.24,432.58Z"/><path class="cls-6" d="M68.24,444.59c-.06,3.29-.74,6.28-3.95,8C64.34,449.3,65,446.33,68.24,444.59Z"/><path class="cls-6" d="M60.24,472.58c0,2.68,0,5.36,0,8h-4C56.33,477.31,57,474.33,60.24,472.58Z"/><path class="cls-6" d="M52.23,500.58c0,3.3-.72,6.29-3.95,8C48.33,505.3,49,502.33,52.23,500.58Z"/><path class="cls-6" d="M48.24,512.6c-.06,3.28-.73,6.27-3.94,8C44.34,517.31,45,514.34,48.24,512.6Z"/><path class="cls-4" d="M44.27,524.62c4.09,2.67,4.07,5.33,0,8-1-.89-1.36-1.78-1-2.69s.66-1.36,1-1.36C44.22,527.25,44.24,525.94,44.27,524.62Z"/><path class="cls-6" d="M40.24,540.59c-.06,3.29-.73,6.28-3.94,8C36.34,545.3,37,542.33,40.24,540.59Z"/><path class="cls-4" d="M16.24,624.58c0,3.28-.71,6.27-3.92,8C12.35,629.3,13.06,626.33,16.24,624.58Z"/><path class="cls-4" d="M12.22,640.54c0,3.32-.7,6.32-3.94,8.07C8.32,645.3,9,642.32,12.22,640.54Z"/><path class="cls-1" d="M164.23,112.6c-.07,3.29-.74,6.27-3.95,8C160.32,117.3,161,114.33,164.23,112.6Z"/><path class="cls-1" d="M172.22,88.57q-2,2-3.95,4Q170.25,90.59,172.22,88.57Z"/><path class="cls-1" d="M128.23,240.57l-3.95,4Z"/><path class="cls-6" d="M44.22,528.56c0,1.35,0,2.7,0,4.05H40.32Z"/><path class="cls-1" d="M208.22,8.64l-4,4Z"/><path class="cls-1" d="M200.22,12.65l-4,4Z"/><path class="cls-1" d="M196.24,16.63l-4,4Z"/><path class="cls-1" d="M192.22,24.57c-1.33,1.35-2.65,2.7-4,4C189.57,27.27,190.89,25.92,192.22,24.57Z"/><path class="cls-2" d="M36.25,556.58l-3.91,4Q34.29,558.58,36.25,556.58Z"/><path class="cls-6" d="M84.28,384.62h4l-4,4C84.24,387.28,84.25,386,84.28,384.62Z"/><path class="cls-6" d="M64.24,460.56l-3.94,4Z"/><path class="cls-6" d="M56.23,488.56l-3.92,4.05Z"/><path class="cls-6" d="M88.25,384.61q0-4,0-8C92.37,379.3,92.33,382,88.25,384.61Z"/><path class="cls-7" d="M782.77,408.61c-12.14-.69-26.24,1.9-39.77-3.37-2.36-.92-5.27-.58-7.92-.59-21.25-.06-42.07-3.74-62.91-7.31a67.18,67.18,0,0,0-9.93-.69c-8.62-.17-17.32.65-25.53-3.17-1.72-.8-3.92-.7-5.91-.74-11.27-.23-22.66.69-33.43-3.89-16.76,2-33.06-2.65-49.31-4.88-17-2.33-34.44-1.25-51-6.41a29.7,29.7,0,0,0-7.9-.89c-41.37-1-81.29-9.89-120.68-21.86-8.85-2.69-18-4.27-27-6.6-7.21-1.86-13.66-5.16-18.38-11.23a9.92,9.92,0,0,1,.05-12.8,30.24,30.24,0,0,1,10.94-8.45c34.06-16.59,67.25-35,102.42-49.27,11.2-4.56,23-6.17,34.63-8.59,19.36-4.05,39.11-6.28,58.69-9.29,10.45-1.61,20.92-3.14,31.35-4.87,13.66-2.26,27.28-4.76,41-7,15.61-2.59,31.18-6,46.92-7.22,13.24-1,26.28-2.86,39.35-4.84,15.65-2.37,31.23-5.94,47-6.84,19.85-1.15,39.21-6.43,59.32-5.39,16.7.87,29.89,4.45,40.43,19.93C852.92,258.54,873.65,282.79,893,308a33.29,33.29,0,0,1,5.64,10.48c3.23,10.87,3,21.65-7.32,28.7-19.47,13.25-34.52,31.12-51,47.51-9.65,9.63-20.85,13.66-33.92,13.92C799.13,408.73,791.81,408.61,782.77,408.61Z"/><path class="cls-8" d="M60.25,492.61h4l16,12c1.15,1.52,2.77,2.56,4,4h4c1.15,1.52,2.77,2.56,4,4h8c1.15,1.52,2.77,2.56,4,4h8c2.05,2.58,5.9,1.55,8,4h28c2,2.58,5.89,1.55,8,4h56c2,2.58,5.89,1.55,8,4h48c2,2.58,5.89,1.55,8,4h48c2.05,2.58,5.9,1.55,8,4h92c2,2.58,5.89,1.55,8,4h92c5.94,4.94,14-.71,20,4h120c2,2.58,5.89,1.55,8,4q69,0,137.9,0a121.6,121.6,0,0,0,25.58-2.85c30.38-6.47,61.08-11.43,91.6-17.27,12.33-2.36,24.57-5.28,36.74-8.39,5.89-1.51,10.12-5.43,14-10.42,9.42-12,21.16-22.34,29.29-35.06,7.16-11.23,17.57-17.87,27.06-25.93,7-6,14.81-11.16,22.48-16.38a49.66,49.66,0,0,0,17-19.1c4.77-9.5,11.32-17.87,17.67-26.42,12.29-16.54,22.44-34.48,32-52.77,2.74-5.27,2.88-10.05-.18-15-2.78-4.52-5.34-9.19-8.28-13.6q-36.43-54.72-73-109.34c-14.4-21.4-30.62-41.74-43.28-64.11-8.11-14.33-20.87-24.18-29.33-37.49-16.07-25.27-35.42-48-53.26-71.87-4-5.4-7.5-11-8-17.93h88c8.19,12.83,15.94,26,24.68,38.42,17.52,25,36.16,49.18,53.3,74.42,28.71,42.28,56.78,85,84.79,127.78,15.28,23.32,29.88,47.09,44.8,70.65,3.48,5.5,3.9,10.75.48,16.77-4.93,8.68-9,17.82-13.47,26.77-1.78,3.59-5,7.2-5,10.8,0,15-9.74,25.8-15.71,38.14-5.76,11.9-8.69,25.08-17.48,35.67-8.46,10.17-15.67,21.32-24.74,31.12-11.25,12.14-21.65,25.09-31.94,38.07-3.09,3.89-6.22,6.63-11.05,7.73-9.66,2.21-19.21,5-28.92,6.95-33.05,6.77-66,14.72-99.29,19.47-26.25,3.74-51.78,10.89-78.17,13.94-15,1.73-29.64,6.59-44.71,9.06a136,136,0,0,1-21.69,2.2q-66,0-132,0c-7.31,0-14.47-.13-21.71-2.34-5.57-1.7-11.82-1.55-17.76-1.58-27.33-.15-54.65,0-82-.1-11.93,0-23.88,1-35.58-3.22-4.18-1.51-9.23-.71-13.89-.72-23.33-.06-46.65.14-70-.09-15.22-.15-30.57,1.65-45.55-3.43-4.21-1.42-9.25-.49-13.92-.49-21.32,0-42.65.11-64-.06-13.9-.12-27.86,1.23-41.57-3.33-4.83-1.61-10.57-.48-15.89-.63-13.24-.37-26.37.48-39.61-3.11-8.73-2.37-18.54-.71-27.86-.89-11.92-.24-23.64-.57-35.61-2.92-12.86-2.53-26.53-1.05-39.85-1-14.77,0-28.75-4-42.93-7.34-7.78-1.82-12.9-6.73-17.32-12.62-1.45-1.94-2.87-5.51-2-7.27C57.38,512.23,54.42,501.31,60.25,492.61Z"/><path class="cls-9" d="M1588,728.6l-7.82.19c-10-10.16-25.73-3.48-36.24-12.23,0-1.3.08-2.61.15-3.91,16.76.66,33-.68,46.61-16.35C1592.4,709.77,1593.45,719.45,1588,728.6Z"/><path class="cls-10" d="M1544,716.56c11.66.42,23.52-1.16,34.67,4.06,4.7,2.2,1.82,5.3,1.57,8.16l0,0a15.26,15.26,0,0,1-5.73,1.93c-5.42.64-10.57,2.64-16.07,3-12.69.76-25.35.46-38,.46q-563.61,0-1127.22.08c-120.55.06-241.09-.65-361.64.27-3.87,0-7.83.5-11.29-2-2.61-2-5.49-3.76-7.78-6.09-3.93-4-3.62-5.63,2-7.15a13.74,13.74,0,0,0,6.77-3.6,9.86,9.86,0,0,1,11.08-2.26c9.67,3.76,19.64,3,29.58,3Q802.9,716.56,1544,716.56Z"/><path class="cls-9" d="M1576,728.58l4.18.24c-.75,7.48-6.65,10.27-12.43,11-13.11,1.68-25.88,5-39.4,5q-732.61-.4-1465.23-.11c-12.19,0-23.91-1.1-34.95-6.33-2.9-1.38-5.3-3.79-7.94-5.72l8,0a5.27,5.27,0,0,1,6.08-.7c5.73,1.07,11.51.61,17.3.73H1543.79c5.38-.07,10.81.19,16.19-.38,1.82-.46,3.67-1,5.48-1.47a67.91,67.91,0,0,1,7.88-2Z"/><path class="cls-8" d="M544.18,544.61c-6.74-.93-14.38,2.6-20-4C530.93,541.55,538.57,538,544.18,544.61Z"/><path class="cls-8" d="M120.24,520.61c-3.29-.07-6.28-.77-8-4C115.54,516.69,118.53,517.38,120.24,520.61Z"/><path class="cls-8" d="M156.24,524.61c-3.3-.07-6.28-.77-8-4C151.53,520.69,154.52,521.38,156.24,524.61Z"/><path class="cls-8" d="M220.23,528.61c-3.3-.07-6.28-.77-8-4C215.53,524.69,218.51,525.38,220.23,528.61Z"/><path class="cls-8" d="M276.22,532.61c-3.29-.07-6.28-.77-8-4C271.52,528.69,274.5,529.38,276.22,532.61Z"/><path class="cls-8" d="M332.21,536.61c-3.29-.07-6.28-.77-8-4C327.51,532.69,330.5,533.38,332.21,536.61Z"/><path class="cls-8" d="M432.2,540.61c-3.3-.07-6.28-.77-8-4C427.49,536.69,430.48,537.38,432.2,540.61Z"/><path class="cls-8" d="M672.16,548.61c-3.29-.07-6.28-.77-8-4C667.46,544.69,670.45,545.38,672.16,548.61Z"/><path class="cls-8" d="M84.25,508.61l-4-4Z"/><path class="cls-8" d="M92.25,512.61l-4-4Z"/><path class="cls-8" d="M104.25,516.61l-4-4Z"/><path class="cls-11" d="M32.2,732.69q-2,0-3.93-.09A10.59,10.59,0,0,1,37,728.68q8-.06,16-.06,125,0,249.9,0c26.54,0,53.08.48,79.63.1,26-.37,52-.08,78-.08H1410.1l78,0h80l1.51,2-1.53,2q-2,.07-3.93.09c-3.3,3.52-8.84.13-12,3.9q-485.94,0-971.86.07-268,0-535.92-.06C41,732.8,35.51,736.18,32.2,732.69Z"/><path class="cls-11" d="M1568,728.61c2.63-4.05,5.29-4.12,8,0h0C1573.35,730.79,1570.7,731.08,1568,728.61Z"/><path class="cls-10" d="M32.2,732.69c4.42,0,9.13-.79,12.06,3.89C39.84,736.52,35.16,737.27,32.2,732.69Z"/><path class="cls-10" d="M1552,736.57c2.92-4.67,7.63-3.84,12-3.9C1561.14,737.28,1556.45,736.51,1552,736.57Z"/><path class="cls-10" d="M1568,728.61l8,0c-1.7,3.25-4.68,3.95-8,4C1568,731.26,1568,729.94,1568,728.61Z"/></g></g></svg>