<svg xmlns="http://www.w3.org/2000/svg" viewBox="0 0 1507.99 1048.57"><defs><style>.cls-1{fill:#f2f2f2;}.cls-2{fill:#eee;}.cls-3{fill:#ebebeb;}.cls-4{fill:#ededed;}.cls-5{fill:#ececec;}.cls-6{fill:#f0f0f0;}.cls-7{fill:#c5c4c2;}</style></defs><g id="Слой_2" data-name="Слой 2"><g id="Слой_1-2" data-name="Слой 1"><path class="cls-1" d="M36,608.28c.1-7.3-.73-14.69,2.5-21.64a8.17,8.17,0,0,0,1-3.84c-1.42-19.38,6-38,4.59-57.43a45.8,45.8,0,0,1,2-17.75c1.41-4.32,1.69-9.11,1.86-13.72.31-8.63-.53-17.36,3.35-25.52a4.09,4.09,0,0,0,.31-2C50,446.37,56.85,427,56,407a65.13,65.13,0,0,1,2.78-21.61C62,374.6,57.87,362.63,63.34,352c-1-18,5-35.44,4.68-53.42-.14-8.62-.41-17.21,2.92-25.6,1.4-3.53.92-7.88,1-11.86.17-8-.21-15.88,2.81-23.63,1.39-3.56,1.06-7.86,1.18-11.83.28-9.94-.94-20,3.32-29.53a7.87,7.87,0,0,0,.52-3.94c-2.19-18.76,4-36.83,4.61-55.44.54-17.07,4.25-34,6.45-51.06.6-4.6,1.43-9.32,1-13.87C90.53,57.67,94.2,44.1,96.4,30.41c1.8-11.19,8.24-19.54,19.12-23.75,9.3-3.59,18.58-6.75,28.93-6.51,20,.46,40,.13,59.94.13l663.48,0c3.25,12.06-2,23.57-2.33,35.5C864.1,97.76,876,158.91,875.68,221c-.09,23.33,4.24,47.1,2.38,71-1.65,21.26-.57,42.47,7.25,63,4.8,12.58,5.29,26.05,2.92,39.43a180.25,180.25,0,0,0-1.15,55.72c2,14.65-2.88,24.39-15.92,30.9-33.36,16.64-66.36,34-100.19,49.71-23.43,10.88-49,12.77-74.09,14.68-108.15,8.25-215.69,22.78-323.75,31.4-90.8,7.25-181.28,18.58-272.42,21.75C78.9,599.34,57.3,603.18,36,608.28Z"/><path class="cls-2" d="M16,800.27c.12-7.2-.18-14.31,2.21-21.44,1.62-4.83,1.8-10.36,1.61-15.53a88.25,88.25,0,0,1,4.14-31c5.52-10.15-1.31-21.84,4-32,0-1.32,0-2.65,0-4,4.2-21.45,19.16-25.53,38.43-25.94,69.17-1.48,137.9-9.61,206.83-14.83,60.32-4.57,120.74-7.62,181-12.67,67.59-5.67,135.11-12.08,202.64-18.25,21.85-2,43.85-4.07,65.61-4.85,32.51-1.15,61.75-11.2,89.18-26.18,70.14-38.3,141.39-74.36,212.82-110.12,20.67-10.35,22-13.34,14.23-34.06-7.22-19.13-9.54-38.66-8.66-58.81.92-21-2.43-41.05-11.22-60.28-7.93-17.35-9.7-36-8.7-54.74A171.34,171.34,0,0,0,999.37,205a82.12,82.12,0,0,1-5.2-31.33c.77-30.72-3.54-60.34-10.34-90.61C978.08,57.45,975.05,28.3,990,2.49c67.11-.35,134.21,0,201.27-.16,4,.06,6.46,2.47,6.25,6.1-1.06,18,5.9,34.2,12.32,50,18.56,45.82,24.27,95,39.11,142,17.78,56.24,38.76,111.41,55.23,168.09,7.76,26.73,21.18,51.67,30.93,77.86,7.92,21.29,6.71,28.36-12.15,40.37-45.73,29.11-83.83,67.5-125.3,101.77-15.25,12.6-33.07,19.66-49.34,29.83-53,33.09-111.85,52.47-169.33,75.3-65.69,26.09-133.07,46.6-201.39,64.25-18.05,4.66-36.53,7.86-55.17,7.76-71.22-.4-141.94,7.93-212.91,11.27-63.73,3-127.32,8.13-191.18,9.42C258,787.55,197.63,791.74,137.41,797c-22.6,2-45.27.71-67.91.81C51.63,797.85,33.78,797.69,16,800.27Z"/><path class="cls-3" d="M0,988.3l0-20c9.11-11.14-2.89-24.62,4-36H4a18.09,18.09,0,0,1,14.88-4.34c31.26,4.69,62.39-.39,93.54-.59C180.3,926.9,248,920.81,316,922.27c92.52,2,184.74-9,277.29-8.13,11.3.1,22.36-4.21,33.73-3.47,130,8.54,255-26,382.21-42.66,89.86-11.76,171.85-46.23,255.49-76.8q35.64-13,71.51-25.47c40.5-14.14,79.83-29.84,111.37-60.36a59.45,59.45,0,0,1,14.77-10.19c4.08-2,8.67-5.41,13-2.19s1.88,8.52,2,13c.51,19.28,2.42,38.6,6.94,57.18,3,12.49-2.69,25.3,3.56,37.07,3.59,2.76,4,6.7,3.9,10.78-.35,12.66,1.29,25,3.55,37.52,2.21,12.27-.91,25.3,4.07,37.42-1.48,18.72,5.68,36.73,4.5,55.43-.17,2.65-.47,5.51.3,8,6.52,20.87,2.35,42.33,3.74,63.47,1.46,22.27-12.67,31.11-32.73,35.24-4.48.92-9.3.22-14,.22H58.71c-2,0-4,0-6,0C31.24,1048,20,1040,12.27,1019.52c-1.42-3.72-2.87-7.42-4.31-11.13-1.35-1.31-2.42-2.9-3.91-4.09C4,1003,4,1001.67,4,1000.35.4,997.07,3.82,991.51,0,988.3Z"/><path class="cls-4" d="M16,820.25l0-12c7.22-8.54,17.07-9.79,27.27-9.45,71.94,2.43,143.48-5.63,215.19-8.75,81-3.52,162-6.46,242.9-11.85,74.26-5,148.39-11.48,222.93-12.16,42.35-.38,81.79-17,122.22-27.5,65.84-17.05,127.71-45.67,191.77-67.91,48.83-17,93-42.87,138-67.11,24.5-13.2,43.5-34.73,64.6-52.87,26.24-22.55,52.36-45,81.58-63.72,21.31-13.67,22.4-16.52,12.86-38.57a1595.79,1595.79,0,0,1-66.78-185.53c-13.8-47.3-35.91-92.54-40.73-142.92-2.77-28.95-17.69-55.66-25.66-83.82-3.28-11.56-9.09-24.41,5.08-33.76q74.6,0,149.14.07c6.5,0,13.27-1.66,19.49,1.82,23.27.86,34,18.25,35.82,37.78,2,21.66,5.5,43.23,7.13,64.81,1.4,18.44,6.48,36.56,5.1,55.25a28.56,28.56,0,0,0,1.22,11.77c2.66,7.09,2.63,14.3,2.66,21.6,0,7.95-.51,15.95,2.86,23.54a11.84,11.84,0,0,1,.91,5.85c-2.08,18.72,5.3,36.69,4.27,55.31,6.73,19.75,1,41,7.19,60.86,1.33,4.29.63,9.23.76,13.87.22,7.93-.4,15.85,2.6,23.6,1.38,3.57,1.22,7.82,1.35,11.77.26,8.6-.13,17.13,3,25.54,1.56,4.15.88,9.18,1,13.82.24,8.59-.45,17.18,2.84,25.56,1.39,3.54,1,7.84,1.14,11.8.27,9.92.21,19.66,3,29.53,2.09,7.44.82,15.82,1,23.77-7.3,1.11-14.81,2.09-18.81,9.44-28.69,52.79-76.13,83.45-127.19,111.14-46.21,25.06-89.7,55-135.53,80.82-36.15,20.37-74.87,34.36-115.18,44.23-88.58,21.69-178.1,39.61-265.6,65.71-27,8-54.73,9.51-82.85,10.74q-116.57,5.1-233.14,10.38c-45.13,2.11-90.28,5.34-135.59,5.58S255.47,861,210.3,863.05c-55.79,2.48-111.59,5-167.42,6.66-11,.33-23.08,1.68-30.92-9.46q0-6,0-12C19.2,839.77,9.8,828.9,16,820.25Z"/><path class="cls-5" d="M12,860.25a87.8,87.8,0,0,0,31.41,4.13c11.31-.41,22.65-.06,34-.11,8.63,0,17.16.23,25.65-2.76,4.82-1.7,10.51-1.15,15.82-1.18,18-.12,36,0,54-.07,10.6-.06,21.17.67,31.6-3.08,4.78-1.72,10.54-.85,15.86-.87,19.33-.07,38.65,0,58-.06,9.94,0,19.87.72,29.6-3,4.14-1.58,9.22-.89,13.87-.91,18-.08,36,.09,54-.08,12.58-.11,25.22,1.21,37.57-3.24,4.17-1.5,9.23-.67,13.89-.69,14.66-.07,29.32,0,44,0,4,0,8.22.76,12-.25,24.26-6.57,49-2.76,73.49-3.72,10.59-.41,21.2.8,31.59-3.13,4.14-1.57,9.22-.84,13.87-.87,14.66-.08,29.32.06,44-.06,9.93-.08,19.86.8,29.6-3,4.12-1.6,9.21-.89,13.86-.94,10-.11,20-.57,30,.07,26.24,1.66,51.45-3.55,76.58-10.1,44.9-11.7,89.09-26.12,134.61-35.31,16.73-3.39,32.87-10.21,50.38-9.44,8.75-7,19.94-6.18,29.95-8.91,19.78-5.4,39.89-9.69,60-13.9,17-3.57,32.79-10.63,49-16.57,8.1-3,16.12-6.17,24.12-9.43,6.76-2.75,14.06-4.79,20-8.8,15.44-10.41,32.19-18.53,47.8-28.72,28.33-18.49,58.14-34.7,86.94-52.49,22.08-13.64,44.85-25.93,67.62-38.34,11.84-6.45,21.88-16.32,31.49-26.65,17.82-19.16,30.2-42,46.31-62.24,6.35-8,7-8,12.87,2a15.87,15.87,0,0,0,2.76,2.8c0,1.33,0,2.66,0,4,5.29,10.18-1.53,21.87,4,32q3.49,27.42,7,54.84c.25,2,1,4,.8,5.88-2.08,19.37,5.65,38,4.31,57.28,6.51,16.35,1.08,34.41,7.21,50.86.89,2.38.57,5.25.63,7.9.27,11.24.75,22.26,3.2,33.49,2.36,10.8.76,22.46.9,33.74-3-1.54-6.06-3.22-5.75-7.23.39-5.26,1.28-10.49,1.62-15.75.17-2.62.63-6.43-.81-7.74-10-9-5.46-19.21-3.35-29.47,1.12-5.42-.23-10.84-4.72-14.53-7.37-6.06-6.57-11.84-.89-18.66,2.55-3.06,2.63-7.4-.08-11.85-13,5.18-22.88,15-33.8,23.22-9.53,7.13-18.09,15.55-27.53,22.82-10.17,7.83-22.83,10.63-34.58,15-48.53,17.94-97.43,34.9-146,52.8-36.72,13.54-73,28.27-109.7,41.86-13.58,5-27.38,8.84-42.3,10.27-24.91,2.38-49.48,8.25-74.2,12.57-20.81,3.64-41.63,7.17-62.45,10.74-20.17,3.47-40.33,7-60.51,10.36q-29.31,4.92-58.65,9.62c-19.56,3.17-39.24,5.71-58.63,9.71a106.21,106.21,0,0,1-21.66,2.29q-57.93,0-115.85,0c-7.29,0-14.46.07-21.69,2.27-5.57,1.7-11.8,1.59-17.74,1.65-20,.17-39.94,0-59.92.09-11.25.06-22.52-.84-33.55,3.18-4.16,1.52-9.22.75-13.87.77-16.64.06-33.29-.06-49.93,0-10.59.08-21.12-.6-31.58,3-5.41,1.87-11.86.93-17.84.93q-74.89.09-149.8,0c-9.27,0-18.47-.41-27.59,2.9-4.78,1.74-10.52,1-15.83,1-21.31.09-42.61,0-63.92.06-11.25.06-22.32.16-33.58,3-9.44,2.34-19.84,1.1-29.81,1-14.55-.21-29.2,1.58-43.49-3.44-4.18-1.47-9.25-.41-13.91-.51-1.61-17.56,2.08-34.71,4.06-52,4.83-6-.67-14,3.94-20Z"/><path class="cls-6" d="M1195.83,4.28h-208C970,31.35,975.22,61.35,981.59,89.2c5.12,22.38,8.31,44.19,8.08,66.87-.11,11.3-2.36,23.3,1.76,33.75,13.52,34.28,9.5,71,16.21,105.66,8.56,44.23,19.94,87.71,20.87,133.08,0,2.6-.5-.54.48,1.92,16.27,40.81,14.06,40.77-28.69,62-60.85,30.16-121.73,60.27-180.62,94.16-38,21.89-79.62,28.7-122.51,31.29-59.73,3.6-119.17,10.8-178.75,15.82s-119.25,9.39-179,12.85c-58.37,3.38-116.72,8.22-175,13.56-41.06,3.77-82.23,5.9-123.43,7.6a11.83,11.83,0,0,1-9-3.45c-.3-18.78-.39-37.55,4.06-56,7.14-9,16.2-13.14,27.89-12.11,7.94.7,15.69-.85,23.59-2.7,8.25-1.93,17.19-.88,25.83-1.19,13.21-.48,26.6,1.66,39.53-3.29,2.95-1.14,6.58-.62,9.9-.68,13.25-.27,26.57,1.1,39.52-3.51,3.58-1.28,7.92-.42,11.91-.51,9.93-.24,20,1,29.55-3.16,2.31-1,5.24-.73,7.9-.79,13.24-.32,26.66,1.23,39.44-3.85,23.36,2.18,46.14-5,69.41-4.25,7.3.24,14.66.49,21.62-2.65a11.82,11.82,0,0,1,5.83-1.07c20.08,2.17,39.9-2.07,59.31-5,19-2.89,38.17-2.82,57.18-5.81,17.43-2.74,35.17-6.93,53.27-5.5,6.61.53,13.31.42,19.65-2.35a12.33,12.33,0,0,1,5.79-1.28c20.74,2.08,40.81-4.93,61.43-4.31,5.32.16,10.58-.06,15.74-2,3.05-1.14,6.54-2.09,9.7-1.77,20.09,2,39.6-3.25,59.41-4.56a112.07,112.07,0,0,0,42-11.49c33.43-16.49,66.72-33.28,100.06-49.95,1.79-.89,3.62-1.74,5.31-2.79,5.79-3.6,7.16-6.75,5.93-13.26a177.89,177.89,0,0,1,.19-65.07c3.16-16.23-.14-31.87-6.24-46.7a60.77,60.77,0,0,1-4.86-25.12c.26-12,0-24,.07-36,0-6-.06-11.89,2.07-17.72,3.34-9.16,2.4-18.24-1.41-27.21-4.23-10-5-20.48-4.77-31.27.39-17.31-.55-34.67.29-51.94.82-16.82-1.4-33.25-5.27-49.3a116.5,116.5,0,0,1-2.9-27.59c0-15.32.49-30.66-.17-45.95-.54-12.39,1.62-23.76,8.15-34.28h332a3.14,3.14,0,0,1,1.39,2.89c-.14,1.11-.35,1.66-.64,1.66A3.87,3.87,0,0,1,1195.83,4.28Z"/><path class="cls-6" d="M32,664.27c19.55-5.13,39.52-3.86,59.41-4,7.29-.06,14.51.2,21.73-2.15,4.92-1.61,10.46-1.59,15.73-1.78,13.9-.48,27.86,1.09,41.55-3.49,4.83-1.61,10.58-.46,15.9-.57,9.94-.2,19.9.79,29.59-3.09,3.51-1.41,7.88-.77,11.87-.88,15.89-.46,31.91,1.58,47.52-3.67,3.61-1.21,7.93-.28,11.93-.36,11.26-.21,22.32-.31,33.6-3,10.14-2.38,21.19-.83,31.84-1s21.13.57,31.61-3c5.41-1.86,11.86-.78,17.85-.94,13.24-.34,26.49.93,39.57-3.3,5.46-1.77,11.89-.56,17.88-.71,9.26-.22,18.69,1.09,27.54-3.08a8.25,8.25,0,0,1,3.91-.66c15.87,1,31.64,1,47-4.21,22,2.42,43.4-6.07,65.45-4.2a28.85,28.85,0,0,0,11.72-1.72c5.84-2.07,11.75-2.06,17.73-2.13,10.61-.13,21.2.71,31.59-3.16,4.15-1.54,9.22-.71,13.87-.82,13.24-.32,26.57,1.16,39.54-3.45,3.58-1.28,7.94-.78,11.91-.5,14.22,1,27.59-1.82,40.86-7.05,20.39-8,41.34-14.72,59.32-27.87,2.12-1.55,4.71-2.47,7.05-3.73,58.6-31.59,118.19-61.23,177.79-90.86,5.36-2.67,10.76-5.31,15.88-8.39,3.86-2.33,5-6,3-10.3-.86-1.81-1.71-3.62-2.51-5.45-8.08-18.5-12.53-37.52-11.53-58,.76-15.81,1.67-31.82-3.35-47.5a121.9,121.9,0,0,0-6.32-16.69,94.26,94.26,0,0,1-10.12-44.17c.19-8.66-.78-17.42.19-26,2.5-22-4.58-41.93-12.23-61.69a55.17,55.17,0,0,1-4-21.32c.18-11.32-.18-22.66.1-34,.44-18,.73-35.86-8.28-52.47a35,35,0,0,1-3.84-17.36c.24-17.32.13-34.65.07-52,0-10.94,4.9-17.62,16-19.25,0,16.65,1.86,33.58-.52,49.88-2.52,17.32,1.09,32.6,7.27,48.05a72.2,72.2,0,0,1,5.28,33.17c-.22,2.64,0,5.32,0,8,0,14.65-1.59,29.55.54,43.89s7.69,28,12.35,41.76a57.65,57.65,0,0,1,3.15,19.52c-.16,12,.26,24-.12,36a103.79,103.79,0,0,0,11,50,86.74,86.74,0,0,1,9.06,40.38c-.15,7.32.5,14.7-.13,22-1.82,21.21,3.87,40.73,12.2,59.84,5.67,13,3.46,19.06-8.92,26-3.48,1.95-7.12,3.62-10.69,5.4C992,506.22,955.49,524,919.45,542.66c-30.66,15.9-60.73,32.9-91.11,49.34-23.45,12.7-48.1,22.55-73.48,30.63-1.89.6-3.91,1.51-5.78,1.33-21.38-2-42.11,5.06-63.41,4.41-9.91-.3-20-1.11-29.54,3.06-2.32,1-5.25.74-7.9.8-13.24.32-26.66-1.24-39.44,3.86-21.38-2.22-42.14,5.6-63.4,4-11.57-.84-22,4.82-33.46,4.33-10.53-.44-21.15-1.14-31.58,2.79-4.74,1.78-10.53.9-15.84,1-11.26.22-22.52-.7-33.55,3.26-4.18,1.5-9.23.62-13.88.76-14.55.44-29-.21-43.57,3.16-11.4,2.64-23.84.7-35.82.86-7.95.1-16-.81-23.63,2.58a12.47,12.47,0,0,1-5.82,1.16c-25.35-2.19-50.08,5.93-75.41,4.33-7.94-.51-15.83-.2-23.62,2.65-4.2,1.53-9.18,1.12-13.82,1.22-12.58.26-25.1-.45-37.55,3.37-6.11,1.87-13.21.52-19.86.68-9.93.23-19.82-.66-29.6,3-4.75,1.76-10.52,1-15.84,1-12.65.12-25.3-.07-37.95.11-9.28.13-16.94,2.84-19.65,13.17-.88,3.35-3.86,5.29-6.95,6.75q0-10.75,0-21.52C28,670.77,28.39,666.93,32,664.27Z"/><path class="cls-4" d="M1195.83,4.28h4q2-2.52,4,0c-1.14,14.85,2.13,28.74,6.86,42.88,8,23.9,17.24,47.44,22.91,72.13,1.21,5.24,2.62,10.36,2.15,15.67-.86,9.63,2.17,18.46,5.33,27.16,8.14,22.47,16.79,44.75,25,67.21a29.24,29.24,0,0,1,1.65,11.72c-.79,11.08,2.8,20.67,7.53,30.49,5.73,11.93,9.94,24.6,14.62,37,4.92,13,10.86,25.86,14.13,39.32,6.93,28.54,18.11,55.31,30.27,81.85,4.4,9.62,7,20.09,11.29,29.76,3.69,8.27.7,14.45-4.82,19.67-5.27,5-11.37,9.14-17.36,13.29-9.28,6.42-18.71,12.64-28.21,18.73-8.44,5.4-15.77,12-23.21,18.72-13.77,12.38-28.41,23.8-42.54,35.8q-18.95,16.09-37.52,32.63c-4.47,4-8.57,8.17-14,11-23.61,12.23-47,24.81-70.54,37.24-19.43,10.28-39.94,18-60.52,25.59-32.36,12-64.46,24.63-96.7,36.92C911,724,871.71,738.17,831,748c-21.9,5.26-43.36,12.35-65.3,17.39-16.7,3.83-33.68,6.92-51,6.94-16.65,0-33.3-.08-49.95,0-11.26.07-22.35,0-33.6,3-8.76,2.29-18.52.8-27.83,1-10.59.23-21-.16-31.61,3-7.4,2.19-15.85.81-23.82,1.06-13.89.44-27.72-.81-41.59,3.15-8,2.3-17.19.64-25.84.86-12.56.31-24.95.2-37.59,2.92-12.13,2.61-25.18.84-37.82,1.08-11.25.21-22.54-1-33.58,3.14-4.14,1.55-9.22.8-13.87.81-20,.07-40,0-59.94.06-9.94,0-19.75-.28-29.61,2.93-6.08,2-13.19.8-19.83,1-17.2.64-34.37-1.12-51.55,3.38-9.37,2.45-19.87.46-29.86.65-11.91.23-23.84-1-35.58,3.14-4.78,1.7-10.54.79-15.86.81-22.65.06-45.3.27-67.94-.08-10.74-.17-21.2.68-31.39,4.1l0-8c5-5.83,10.93-8.36,19.1-8.2,28.64.56,57.3.25,86,.19,8.62,0,17.16.33,25.66-2.67,4.82-1.7,10.5-1.08,15.8-1.28,19.19-.75,38.36,1.14,57.57-3.42,10.73-2.55,22.54-.47,33.87-.63,9.93-.14,19.83.67,29.61-3,4.76-1.77,10.53-1,15.85-1,18-.09,36,0,54-.07,11.92-.08,23.64-.44,35.6-2.91,12.17-2.51,25.2-.83,37.84-1.07,11.26-.21,22.33-.17,33.62-2.89,10.11-2.44,21.19-.85,31.83-1.11s21.17.8,31.61-3c4.76-1.75,10.54-.76,15.85-1,17.2-.64,34.38,1.11,51.57-3.39,9.37-2.46,19.88-.53,29.87-.62,8.63-.09,17.16.24,25.65-2.75,4.82-1.7,10.51-1.16,15.82-1.2,15.32-.13,30.71-.94,46,.18,19.49,1.43,38.32-3.15,57.4-5,11.68-1.12,23-6.2,34.45-9.5,9.56-2.75,19-5.95,28.7-8.15,44.84-10.19,87.53-26.75,130.28-43.24,33.44-12.9,67.08-25.3,100.64-37.9a256,256,0,0,0,36.13-16.31c24.91-14,50.45-26.93,75.8-40.18a89.31,89.31,0,0,0,18.17-12.08c14.89-13.14,30.51-25.45,45.59-38.38,10.57-9.07,21.06-18.34,31.28-27.67,13.89-12.68,29-23.19,44.37-33.63,4.39-3,9-5.69,13.33-8.74,12.06-8.47,13.18-12.68,7.28-26.88-10.19-24.53-20.44-49-30.57-73.58a54.1,54.1,0,0,1-3.71-11.36C1292.25,335.49,1277,306.48,1266,276c-4.17-11.51-10.26-22.62-7.9-36.24,1-5.71-3.79-12.42-5.94-18.69q-13.25-38.58-26.41-77.18c-1-3.1-2-6.53-1.75-9.72,1-13-3.09-24.83-7.26-36.84-7.63-22-14.16-44.33-22-66.24C1191.42,21.62,1190.75,13,1195.83,4.28Z"/><path class="cls-2" d="M1203.83,4.28h-4v-4c52.45,0,104.89-.1,157.34,0,6.38,0,13.47-2.13,18.7,3.89Z"/><path class="cls-5" d="M4,932.27c.28,7.23-.59,14.47,2.56,21.54,3,6.67-.37,11.45-6.55,14.47q0-12.74,0-25.49C0,938.78.44,934.94,4,932.27Z"/><path class="cls-4" d="M16,820.25c.3,7-.59,14,2.16,20.87,2,5.09-1.95,6.57-6.13,7.16,0-6.51,0-13,.07-19.53A10.22,10.22,0,0,1,16,820.25Z"/><path class="cls-4" d="M1463.78,556.28c-3.6-2.63-4-6.47-4-10.47,0-7.19,0-14.37,0-21.55,3.56,2.65,3.94,6.49,3.94,10.49C1463.74,541.93,1463.77,549.1,1463.78,556.28Z"/><path class="cls-6" d="M28,700.26c0,7.19,0,14.37,0,21.55,0,4-.38,7.84-4,10.47,0-7.17,0-14.35,0-21.53C24,706.75,24.41,702.91,28,700.26Z"/><path class="cls-4" d="M12,860.26c-.89,6.75,2.61,14.37-3.94,20C8.89,873.51,5.47,865.91,12,860.26Z"/><path class="cls-5" d="M0,988.3c4.71,2.91,3.83,7.64,3.94,12.05C-.64,997.41.12,992.72,0,988.3Z"/><path class="cls-5" d="M4.05,1004.3c1.31,1.36,2.61,2.73,3.91,4.09C6.66,1007,5.36,1005.66,4.05,1004.3Z"/><path class="cls-7" d="M16.49,1016.34H36q699.62,0,1399.24,0c21.21,0,42.37.89,63.24-11-.55,10.76-5.8,16.38-11.53,21.68-5.52,5.1-12,8.67-19.54,9-8.64.43-17.32.27-26,.27H68.13q-10,0-20-.08C35.16,1036.18,25.7,1030.2,16.49,1016.34Z"/></g></g></svg>