<svg xmlns="http://www.w3.org/2000/svg" viewBox="0 0 168.81 118.81"><defs><style>.cls-1{fill:#494949;}.cls-2{fill:#4d4d4d;}.cls-3{fill:#ccc;}.cls-4{fill:#353535;}.cls-5{fill:#404040;}.cls-6{fill:#505050;}.cls-7{fill:#cfcfcf;}.cls-8{fill:#454545;}.cls-9{fill:#c6c6c6;}.cls-10{fill:#2d2d2d;}.cls-11{fill:#424242;}.cls-12{fill:#c2c2c2;}.cls-13{fill:#3c3c3c;}.cls-14{fill:#c1c1c1;}.cls-15{fill:#272727;}.cls-16{fill:#3f3f3f;}.cls-17{fill:#bebebe;}.cls-18{fill:#343434;}.cls-19{fill:#232323;}.cls-20{fill:#3e3e3e;}.cls-21{fill:#b7b7b7;}.cls-22{fill:#bcbcbc;}.cls-23{fill:#1e1e1e;}.cls-24{fill:#afafaf;}.cls-25{fill:#1c1c1c;}.cls-26{fill:#262626;}.cls-27{fill:#0f0f0f;}.cls-28{fill:#131313;}.cls-29{fill:#181818;}.cls-30{fill:#141414;}</style></defs><g id="Слой_2" data-name="Слой 2"><g id="Слой_1-2" data-name="Слой 1"><path class="cls-1" d="M0,52c.25-1.63.51-3.26.76-4.89A2.25,2.25,0,0,1,1.12,46c.49-.45,0-1.15.41-1.62v0A1.49,1.49,0,0,1,2.82,44c4.16.85,8.38.1,12.54.47a35.09,35.09,0,0,0,8.75,0c1.51-.24,2.74-.77,3.19-2.29,1.17-3.9,4.13-4.8,7.73-4.93a102.48,102.48,0,0,1,16.52.93Q61,39.28,70.32,40.78a64.33,64.33,0,0,1,7.37,1.79c1.08.31,2.14.47,3-.37C85.64,37.48,91.54,34,97,30c3.44-2.52,6.86-5.07,10.16-7.75a7.89,7.89,0,0,1,3.08-1.39,123.13,123.13,0,0,0,13.61-4.62,11,11,0,0,0,5.3-3.71,2,2,0,0,1,1.91.11,52.36,52.36,0,0,1,10.39,7.26,3.85,3.85,0,0,1,1,1.47c.89,1.62.23,2.62-1.28,3.34a31.68,31.68,0,0,0-8.89,6.7,36.43,36.43,0,0,1-7.74,6.23c-5.75,3.37-11,7.43-16.46,11.31a36.17,36.17,0,0,1-3.28,2.27,15.2,15.2,0,0,0-5.7,5.8C95.33,63.32,89.22,66.5,82,67.56a12.1,12.1,0,0,0-2.54.47c-7.61,2.85-15.62,3.82-23.56,5.14a105.09,105.09,0,0,1-17.26,1.65,13.74,13.74,0,0,1-9.21-3.27c-1.88-1.59-4.24-1.88-6.51-2.29-4.52-.81-9.12-1.08-13.63-2C7.68,67,6,68,4.38,67.22a4.32,4.32,0,0,1-1.64-2.64,37.57,37.57,0,0,1-1.61-6.17C1,57.87,1.34,57,.3,56.9A5.57,5.57,0,0,1,0,54.57C0,53.71,0,52.86,0,52Z"/><path class="cls-2" d="M129.66,12.75c-.13.14-.34.27-.39.44a4.21,4.21,0,0,1-2.51,2.64c-2,1-4.17,1.74-6.27,2.58A94.29,94.29,0,0,1,109.27,22a3.21,3.21,0,0,0-1.4.71c-3,2.55-6.12,4.89-9.29,7.21-4.12,3-8.43,5.81-12.51,8.91a36.71,36.71,0,0,0-4.71,4,3,3,0,0,1-3.46.76,48.14,48.14,0,0,0-9.3-2.25c-2.56-.38-5.11-.84-7.67-1.17-2-.27-4.07-.62-6.11-.82a53.74,53.74,0,0,0-5.55-.54,20.39,20.39,0,0,1-3.94-.53A11.23,11.23,0,0,0,43,38c-1.86,0-3.73.06-5.6,0a43.65,43.65,0,0,0-6.15.44,1.71,1.71,0,0,0-1.35.76,9.1,9.1,0,0,0-1.49,2.58c-.63,2.39-2.15,3.48-4.65,3.48-1.52,0-3,.5-4.56.36a6.65,6.65,0,0,1-1,0c-2.76-.65-5.57-.28-8.36-.37-.93,0-1.87,0-2.8,0a9,9,0,0,1-4.68-.71,2.17,2.17,0,0,0-.78-.1,1.78,1.78,0,0,1,0-.4A34.53,34.53,0,0,1,6.22,33.56,91.3,91.3,0,0,1,16.31,21.77c1.26-1.16,2.38-1.6,3.89-.78a4.41,4.41,0,0,0,3.29.28,38,38,0,0,1,6.72-.84,9,9,0,0,0,3.82-1c9.1-4.9,18.92-7.39,29.1-8.62A107.45,107.45,0,0,1,77.25,10a14.13,14.13,0,0,0,5.08-.85c3.94-1.43,8-2.43,12-3.89,1.11-.41,2-.84,2.34-2.14A1.49,1.49,0,0,1,98.35,1.8c.53.06,1.1-.15,1.6.19a.24.24,0,0,0,.3,0c.52.35,1.18,0,1.7.35a.26.26,0,0,0,.31.05c.51.37,1.19-.06,1.69.37a.17.17,0,0,0,.25,0c1.55.62,3.43,0,4.81,1.22a2.83,2.83,0,0,0,1.28.49q5.11,1.51,10.07,3.52a11.16,11.16,0,0,0,1.12.35c.26.2.64.13.87.39h0c.22.23.58.15.8.37a.17.17,0,0,0,.23.08c.33.13.74.07,1,.44l0,0c.28.15.66.08.85.42l0,0a17.7,17.7,0,0,1,3.27,1.18C129,11.54,129.7,11.84,129.66,12.75Z"/><path class="cls-3" d="M129.66,12.75A14.24,14.24,0,0,0,127,11.14a7.1,7.1,0,0,1-1.86-1.09,8.14,8.14,0,0,1,3.31.6,12.38,12.38,0,0,1,1.86.73c5,2.41,9.94,4.83,14.35,8.23.84.66,1.75,1.21,2.6,1.85a65.71,65.71,0,0,1,7.85,7.06,13.25,13.25,0,0,1,1,1.25,6,6,0,0,0,1.86,1.79,11.12,11.12,0,0,1,4,4.37,39.89,39.89,0,0,1,4.45,9.79,52.36,52.36,0,0,1,1.94,8.55,43.59,43.59,0,0,1,.47,8.54,43.27,43.27,0,0,1-1,6.09,36,36,0,0,1-3.29,9.39c-.59,1.11-.95,2.33-1.66,3.4a3.49,3.49,0,0,0-.69,2.45,2.15,2.15,0,0,1-.53,1.65,69.27,69.27,0,0,1-9.83,11,23.67,23.67,0,0,1-4.22,3.32,29.92,29.92,0,0,0-3.19,2.37,50.52,50.52,0,0,1-6.82,4.13,52.56,52.56,0,0,1-8.5,4c-1.76.57-3.43,1.43-5.17,2.07-1.19.44-2.42.74-3.63,1.09a118.2,118.2,0,0,1-15.55,3.54c-2.1.33-4.23.42-6.31.79-2.32.42-4.65.21-7,.4a43.73,43.73,0,0,1-5.36.36,10.75,10.75,0,0,1-2.18-.22,9.35,9.35,0,0,0-2-.17c-1.4,0-2.8,0-4.2,0a7.32,7.32,0,0,1-2.18-.22,3.13,3.13,0,0,0-1.17-.16c-1.75.16-3.42-.52-5.16-.47a6.26,6.26,0,0,1-1.56-.35,10.18,10.18,0,0,0-2.75-.42,5.44,5.44,0,0,1-1.37-.22c-3.55-.87-7.12-1.66-10.64-2.66-2.55-.73-5-1.74-7.52-2.64a49,49,0,0,1-5.7-2.39c-2.44-1.24-4.93-2.37-7.27-3.76-1.13-.66-2.24-1.42-3.34-2.16a2.43,2.43,0,0,1-1.18-1.31,4.24,4.24,0,0,0-1.75-2.1c-1.47-1.23-2.93-2.49-4.45-3.67a35.47,35.47,0,0,1-3.43-3,62.58,62.58,0,0,1-7.6-9.73,12.44,12.44,0,0,1-1.42-3.5c1.33-.22,1.63,1,2.34,1.65l.35.33a3.64,3.64,0,0,1,.34.34l.16.18a3.47,3.47,0,0,1,.32.34l.16.18a3.79,3.79,0,0,1,.32.38,1.94,1.94,0,0,1,.27.43,6.85,6.85,0,0,0,2.51,2.24c1.49,1.63,3.64,2.62,4.64,4.72a4.37,4.37,0,0,0,1.49,1.85,118.23,118.23,0,0,0,12.82,9.85c7.35,4.6,15.49,7.37,23.84,9.52a101.15,101.15,0,0,0,17.11,2.83c17.85,1.43,35.22-.51,51.88-7.39a70.43,70.43,0,0,0,22.75-14.57,46.44,46.44,0,0,0,13.9-27.88c1.42-10.84-1.56-20.67-7.85-29.36a60.73,60.73,0,0,0-10.86-10.81,3.74,3.74,0,0,0-1.28-.55c-1.09-.47-1.59-1.5-2.27-2.36-.48-.46-.92-.95-1.42-1.37a71.71,71.71,0,0,0-10.1-7A7.27,7.27,0,0,0,129.66,12.75Z"/><path class="cls-4" d="M11.5,82c-1-.6-1.41-1.77-2.35-2.44h0a1.83,1.83,0,0,1-.37-.46l0,0a.63.63,0,0,1-.39-.5l.07.06c-.4-.09-.29-.54-.53-.75H8a1.12,1.12,0,0,1-.37-.49l0,.06c-.34-.13-.23-.57-.5-.75-.64-1.13-1.31-2.25-1.94-3.4A11.24,11.24,0,0,1,4,70.77c-.41-.27,0-.91-.5-1.14l0,0c-.21-.71-.35-1.4.65-1.63a1.4,1.4,0,0,1,.57.07,1.67,1.67,0,0,1,.64.54,2.77,2.77,0,0,1,.31.45,10.38,10.38,0,0,0,.59.88c2.2,3.54,4.34,7.1,7.31,10.07a2.07,2.07,0,0,1,.67,1.4A1,1,0,0,1,14,82C13.21,82.57,12.33,81.5,11.5,82Z"/><path class="cls-5" d="M4.75,68.4c-1,.16-1,.16-1.27,1.27a13.23,13.23,0,0,1-1.63-4A27.47,27.47,0,0,1,.3,56.9c0-.26,0-.52.09-.79s.12-.7.53-.73.54.31.6.66c.14.78.29,1.56.4,2.35A39.11,39.11,0,0,0,4.35,66.8C4.81,67.25,5.31,67.69,4.75,68.4Z"/><path class="cls-5" d="M3.46,69.63A1.08,1.08,0,0,1,4,70.77,1.41,1.41,0,0,1,3.46,69.63Z"/><path class="cls-3" d="M7.14,76.82a1,1,0,0,1,.5.75A.88.88,0,0,1,7.14,76.82Z"/><path class="cls-3" d="M8,78a1,1,0,0,1,.52.75A.78.78,0,0,1,8,78Z"/><path class="cls-3" d="M125.13,10.08a1,1,0,0,1-.85-.42A.81.81,0,0,1,125.13,10.08Z"/><path class="cls-3" d="M124.33,9.69a1.24,1.24,0,0,1-1-.44A1,1,0,0,1,124.33,9.69Z"/><path class="cls-3" d="M123.14,9.17a.94.94,0,0,1-.8-.37A1,1,0,0,1,123.14,9.17Z"/><path class="cls-3" d="M122.35,8.81a1,1,0,0,1-.87-.39A1,1,0,0,1,122.35,8.81Z"/><path class="cls-3" d="M7.59,77.51A.54.54,0,0,1,8,78Z"/><path class="cls-3" d="M8.42,78.68a.56.56,0,0,1,.39.5Z"/><path class="cls-3" d="M8.78,79.14a.51.51,0,0,1,.37.46Z"/><path class="cls-6" d="M98.4,2c-.64.1-.79.61-1,1.1-.33.73,0,1.75-.73,2.21a12,12,0,0,1-2.26.76c-1.57.54-3.13,1.1-4.7,1.66a2.66,2.66,0,0,1-.56.2,58,58,0,0,0-7.38,2.33,10.49,10.49,0,0,1-3.53.57c-1.53-.05-3.06,0-4.6,0a9.62,9.62,0,0,0-2.77.26,4.66,4.66,0,0,1-1.58.13,35.14,35.14,0,0,0-6.56.45c-1.58.2-3.14.51-4.72.72-2.58.33-5,1.16-7.58,1.67s-4.82,1.47-7.24,2.19c-1.46.44-2.82,1.18-4.26,1.69a40.71,40.71,0,0,0-5,2.51,6.19,6.19,0,0,1-3.25.79,6.59,6.59,0,0,0-2.57.25,2.75,2.75,0,0,1-1,.12,10,10,0,0,0-3.73.56,4.51,4.51,0,0,1-3.64-.42c-2.08-1.08-1.76-1.17-3.52.59-.9.89-1.78,1.81-2.69,2.68a35.72,35.72,0,0,0-4.19,5.07c-.58.81-1.14,1.63-1.75,2.42a2.62,2.62,0,0,1-1.39,1.08,34.88,34.88,0,0,1,5.25-7.23A65,65,0,0,1,27,13.65,92.18,92.18,0,0,1,51.7,3.6a9.53,9.53,0,0,0,2.66-.76c.5-.48,1.21-.06,1.75-.4a.16.16,0,0,0,.24,0c.53-.43,1.22-.05,1.77-.37a.14.14,0,0,0,.22,0c.65-.5,1.47,0,2.14-.38a.2.2,0,0,0,.27,0c.67-.45,1.49,0,2.17-.36l.64-.06c.8-.44,1.73.05,2.54-.34l.65,0c1.2-.51,2.5.11,3.7-.36l.7,0C75.44-.06,79.73.3,84,.22a9.32,9.32,0,0,1,3.53.19l.66,0C89.43.9,90.75.27,92,.81a.24.24,0,0,0,.3,0c.92.46,2-.15,2.9.38a.2.2,0,0,0,.28,0c.8.45,1.76-.15,2.53.4a.13.13,0,0,0,.21,0C98.4,1.66,98.48,1.76,98.4,2Z"/><path class="cls-7" d="M87.55.41c-.52,0-1,0-1.57,0C81.56.26,77.15.25,72.73.42c-.53,0-1,0-1.58,0A1.93,1.93,0,0,1,72.63,0H86.08A1.9,1.9,0,0,1,87.55.41Z"/><path class="cls-7" d="M70.45.43a10.26,10.26,0,0,1-3.7.36,1.49,1.49,0,0,1,1.1-.38Z"/><path class="cls-7" d="M92,.81A10.68,10.68,0,0,1,88.22.44l2.49,0A1.61,1.61,0,0,1,92,.81Z"/><path class="cls-7" d="M95.15,1.21a6.67,6.67,0,0,1-2.9-.38l1.69,0A1.58,1.58,0,0,1,95.15,1.21Z"/><path class="cls-7" d="M66.1.84a5,5,0,0,1-2.54.34C64.34.55,65.24.87,66.1.84Z"/><path class="cls-7" d="M98,1.63a5.06,5.06,0,0,1-2.52-.4C96.29,1.28,97.21.94,98,1.63Z"/><path class="cls-7" d="M60.48,1.64A4,4,0,0,1,58.34,2C59,1.4,59.75,1.65,60.48,1.64Z"/><path class="cls-7" d="M62.92,1.24a3.77,3.77,0,0,1-2.17.36C61.39,1,62.18,1.25,62.92,1.24Z"/><path class="cls-2" d="M1.53,44.37c0,.58.12,1.18-.41,1.62A2.28,2.28,0,0,1,1.53,44.37Z"/><path class="cls-7" d="M102,2.38a2.53,2.53,0,0,1-1.7-.35C100.84,2,101.46,1.89,102,2.38Z"/><path class="cls-7" d="M56.11,2.44a2.77,2.77,0,0,1-1.75.4C54.85,2.27,55.49,2.43,56.11,2.44Z"/><path class="cls-7" d="M104,2.8a2.51,2.51,0,0,1-1.69-.37C102.85,2.42,103.47,2.3,104,2.8Z"/><path class="cls-7" d="M98.4,2l-.23-.33c.62,0,1.26-.17,1.78.34Z"/><path class="cls-7" d="M58.12,2a2.69,2.69,0,0,1-1.77.37C56.85,1.88,57.5,2,58.12,2Z"/><path class="cls-8" d="M4.75,68.4c-.13-.53-.26-1.07-.4-1.6a10.94,10.94,0,0,0,3.17-.29,4.55,4.55,0,0,1,2.37.06,52.66,52.66,0,0,0,7.29,1c.92.1,1.83.26,2.75.39a46.88,46.88,0,0,1,7.23,1.41,6,6,0,0,1,3.19,1.9,6.88,6.88,0,0,0,3.09,1.77A10.94,10.94,0,0,0,38.5,74c1.19-.08,2.39,0,3.59,0a4.91,4.91,0,0,0,1.39-.09,11,11,0,0,1,3.37-.3,14.82,14.82,0,0,0,2.57-.25c2.22-.4,4.47-.62,6.7-1s4.71-.81,7.06-1.21c3.74-.63,7.44-1.39,11.13-2.27a25.4,25.4,0,0,0,4.17-1.36A9,9,0,0,1,82,66.78a17.35,17.35,0,0,0,6.13-1.65c.24-.1.47-.24.71-.36,4.81-2.38,5.22-2.69,8.83-6.66a8.24,8.24,0,0,0,1.85-3.5,2.8,2.8,0,0,1,1.35-1.85,89.24,89.24,0,0,0,9.4-6.38c1.42-1.1,2.92-2.09,4.4-3.11,2.25-1.54,4.47-3.13,6.77-4.6a52.12,52.12,0,0,1,5.45-3.32,5.63,5.63,0,0,0,1.57-1.22c1.12-1.13,2.28-2.23,3.38-3.39a46.7,46.7,0,0,1,6.12-5.11,10.57,10.57,0,0,1,3-1.62,5.22,5.22,0,0,0,1-.56c.58-.37.59-.4.17-1.09-.18-.3-.4-.55,0-.84l2.17,1.72c1.47.87,2.88,1.81,3.41,3.58.26,1.39,1.37,2.26,2.05,3.39s.47,2.12-.73,2.36c-4.49.91-6.65,4.62-9.48,7.55a6.87,6.87,0,0,0-.75.94,28.22,28.22,0,0,1-11.28,9.86,6.93,6.93,0,0,0-4.22,5.89c-1.06,8.27-5.48,14.41-12.62,18.88a46.18,46.18,0,0,1-22.21,7,60,60,0,0,0-19.38,4.12c-1.85.75-3.84,1.08-5.75,1.65a7.39,7.39,0,0,1-3.56,0c-8.22-1.64-16.46-3.2-24.63-5.08-3.9-.9-7.94-.75-11.87-1.48-2.55-.47-5.07-1.13-7.63,0A1.42,1.42,0,0,1,14,81.6c-.43-.5-.83-1-1.3-1.48A30.73,30.73,0,0,1,9.29,76a54.9,54.9,0,0,1-3.74-6c-.25-.21-.15-.59-.4-.8S5,68.61,4.75,68.4Z"/><path class="cls-9" d="M147.21,26.69a8.87,8.87,0,0,0-1.51-1.83l-1.44-1.62a2.93,2.93,0,0,1,1.82.72c1.35,1.07,2.71,2.14,4,3.24a6.93,6.93,0,0,1,1.24,1.3A14.85,14.85,0,0,0,155,32.15a12,12,0,0,1,2.91,3.51c.21.33.32.73.55,1.05a41.47,41.47,0,0,1,2.89,5.22c1.92,3.57,2.76,7.48,3.73,11.35a6.38,6.38,0,0,1,.08,1.39,26.53,26.53,0,0,0,.3,4,11.49,11.49,0,0,1-.1,4.56c-.32,1.36-.33,2.76-.54,4.14a55.23,55.23,0,0,1-1.55,6,21.12,21.12,0,0,1-1,2.62,38.94,38.94,0,0,1-1.93,4.15A33.58,33.58,0,0,0,157.74,85,9.71,9.71,0,0,1,156,87.45a44.25,44.25,0,0,1-6.54,6.94c-1.75,1.41-3.45,2.89-5.22,4.31a45.57,45.57,0,0,1-5.45,3.67c-1.2.7-2.44,1.33-3.62,2.06a40.8,40.8,0,0,1-4.31,2.09,89.81,89.81,0,0,1-18.48,6.25c-2.91.65-5.86,1.13-8.81,1.65-2.41.42-4.87.55-7.3.84-5.32.64-10.64.15-16,.34a48.18,48.18,0,0,0-6.35-.46c-1.38-.07-2.74-.56-4.12-.64a51.82,51.82,0,0,1-7.65-1.31c-2.22-.44-4.4-1-6.59-1.57-1.87-.49-3.69-1.1-5.51-1.71a46.66,46.66,0,0,1-7.77-3.07c-1.1-.61-2.3-1-3.45-1.56-2.13-1-4.06-2.28-6.09-3.42-.72-.41-1.13-1.1-1.8-1.56-1.58-1.1-3.11-2.28-4.61-3.48a49,49,0,0,1-5.66-5A1.91,1.91,0,0,1,20,90.24c.88-.42,1.56.11,2.18.58,2.09,1.56,4.35,2.84,6.52,4.26a6.45,6.45,0,0,0,1.35.83l.93.52a4.93,4.93,0,0,1,.92.65c.13.15.25.31.37.47A53.28,53.28,0,0,0,44,104.71,95.68,95.68,0,0,0,62.63,111a76.58,76.58,0,0,0,12,1.72c3.83.3,7.68.63,11.51.67A111.42,111.42,0,0,0,108,111.17a89.74,89.74,0,0,0,23.72-8,65.91,65.91,0,0,0,16.56-11.69,46.71,46.71,0,0,0,12.87-22.27,35.49,35.49,0,0,0,.42-16.44,44.05,44.05,0,0,0-7.79-17A6.34,6.34,0,0,0,152,33.66c-.52-.41-.78-1-1.25-1.48a19.55,19.55,0,0,0-3.3-4.72,1.09,1.09,0,0,1-.22-.49Z"/><path class="cls-10" d="M28.67,95.68A26.25,26.25,0,0,1,24.09,93c-1.38-.89-2.72-1.84-4.07-2.76-.95-.81-1.9-1.61-2.83-2.44-.59-.52-1.13-1.08-1.69-1.63-.93-1-1.9-2-2.88-2.89l.06,0a.48.48,0,0,0-.44-.47l0,0a.58.58,0,0,0-.43-.47l.05,0a.71.71,0,0,0-.42-.46h0a1,1,0,0,1,.55-.73,1.16,1.16,0,0,1,.93.07c.34.18.65.41,1,.61l.2,0a1.29,1.29,0,0,1,.38.12l.16.11a2.78,2.78,0,0,1,.32.26l.15.13.32.26.16.13.37.25.19.12a3.34,3.34,0,0,1,.4.25,14.26,14.26,0,0,1,1.16.89,5.82,5.82,0,0,1,.53.46c.12.09.23.2.34.3s.21.19.31.29l.15.15c.11.09.21.19.3.28a2,2,0,0,0,.16.14c.11.08.22.18.33.27l.18.12a3.32,3.32,0,0,1,.36.26c.2.13.37.27.55.41s.23.19.34.29.11.1.16.14l.33.27L22,88a3.07,3.07,0,0,1,.35.24,2.82,2.82,0,0,1,.36.24l.38.23.19.12a2.8,2.8,0,0,1,.41.25,2,2,0,0,1,.4.3,12.8,12.8,0,0,0,1.76,1.17,2.73,2.73,0,0,1,.48.25,4.08,4.08,0,0,1,.44.28l.22.16c1.21,1.11,3.24,1.19,3.88,3-.29.77-1,1-1.67,1.21A2.88,2.88,0,0,1,28.67,95.68Z"/><path class="cls-4" d="M12.62,83.28a7.09,7.09,0,0,1,2.88,2.89A11.46,11.46,0,0,1,12.62,83.28Z"/><path class="cls-4" d="M11.49,82l.42.46A.54.54,0,0,1,11.49,82Z"/><path class="cls-4" d="M11.86,82.44l.43.47A.58.58,0,0,1,11.86,82.44Z"/><path class="cls-4" d="M12.24,82.86a.62.62,0,0,1,.44.47A.59.59,0,0,1,12.24,82.86Z"/><path class="cls-11" d="M22.34,88.8l-.39,0a4.68,4.68,0,0,1-.39-.38h0l-.4-.39c-.13-.14-.28-.26-.41-.4L20,87.19l-.4-.39h0c-.13-.14-.27-.27-.4-.4h0c-.13-.13-.26-.27-.4-.4h0c-.13-.14-.26-.27-.4-.4h0c-.21-.25-.58-.17-.79-.41L16,84c-.13-.13-.28-.25-.4-.39h0a4.93,4.93,0,0,1-.4-.39h0c-.13-.12-.27-.26-.39-.39h0l-.39-.39h0A5,5,0,0,0,14,82h0V81.6a8.74,8.74,0,0,0,2.88-.78,6.37,6.37,0,0,1,3.91-.13,44.25,44.25,0,0,0,6.29,1c1.9.21,3.83.32,5.73.6,4,.59,7.92,1.73,11.9,2.49,3,.57,5.95,1.38,9,1.72a46.77,46.77,0,0,1,6,1.26,6,6,0,0,0,4.09-.23,17,17,0,0,1,1.93-.46c2-.61,3.91-1.27,5.88-1.88,2.48-.76,4.85-1.83,7.39-2.44a11.16,11.16,0,0,1,2.76-.34c1.06,0,2.13.07,3.2,0,1.85-.13,3.7-.28,5.54-.54s3.65-.67,5.48-1c.71-.14,1.42-.32,2.12-.53a11.94,11.94,0,0,1,2.7-.71,2.27,2.27,0,0,0,.76-.21c2.8-1.23,5.72-2.2,8.16-4.14a5.59,5.59,0,0,1,.84-.52,21,21,0,0,0,6.49-5.49,37.2,37.2,0,0,0,4.18-7,11.93,11.93,0,0,0,1-3.64,17.51,17.51,0,0,0,.49-4.15,2.09,2.09,0,0,1,.91-1.9,22.35,22.35,0,0,1,2.24-1.66c1.82-1.1,3.69-2.12,5.52-3.21a11.76,11.76,0,0,0,3.44-3,91.9,91.9,0,0,1,8.83-10.28A7.67,7.67,0,0,1,148,32.08c.26,0,.53,0,.79-.1.95-.18,1.09-.49.49-1.35s-1.41-1.93-2.14-2.88a.71.71,0,0,1,.08-1.06l0,0c.06.25.26.35.45.46A20.09,20.09,0,0,1,151.25,32c.22,1.64,1.66,2.67,2.12,4.19a3.11,3.11,0,0,1,.28.88,2.09,2.09,0,0,1-.11,1A2.78,2.78,0,0,1,151,39.57a4.78,4.78,0,0,0-3.15,1.53c-3.44,3.36-6.3,7.21-9.43,10.84a4.43,4.43,0,0,0-1.19,2.69c-.36,7.35-3.85,13.27-8.44,18.75-4.74,5.67-10.81,9.41-17.42,12.37a76.87,76.87,0,0,1-31.17,6.71c-3.44,0-6.87.69-10.32.88A143.17,143.17,0,0,1,48.12,93a130.55,130.55,0,0,1-15.75-2.45,3.22,3.22,0,0,0-2.65.52,3.2,3.2,0,0,1-3.37.5h0c-.13-.13-.26-.27-.4-.4h0a9.91,9.91,0,0,0-2.41-1.6l-.39,0-.4-.39h0C22.62,89.06,22.47,88.94,22.34,88.8Z"/><path class="cls-5" d="M4.75,68.4a1,1,0,0,1,.4.8A1,1,0,0,1,4.75,68.4Z"/><path class="cls-5" d="M5.15,69.2a1,1,0,0,1,.4.8A1,1,0,0,1,5.15,69.2Z"/><path class="cls-12" d="M154,35.2a2.11,2.11,0,0,1,1,.93,21.47,21.47,0,0,0,2,3,10.26,10.26,0,0,1,1,1.94,13.63,13.63,0,0,0,1.3,2.69,14.22,14.22,0,0,1,1.54,3.45A76.71,76.71,0,0,1,162.66,55c.25,1.08.15,2.24.43,3.35s-.39,2.1,0,3.15a52.3,52.3,0,0,1-3.7,15.24,28.85,28.85,0,0,1-1.92,3.49c-1.88,3-3.42,6.17-5.82,8.81a9.87,9.87,0,0,1-2.25,2.22,2.33,2.33,0,0,0-.58.55A56.51,56.51,0,0,1,142,97.64a29.9,29.9,0,0,1-3.81,2.57,72.14,72.14,0,0,1-7.48,4.19c-2.38,1-4.73,2.18-7.15,3.1a78.26,78.26,0,0,1-7.76,2.56,61.46,61.46,0,0,1-7,1.58c-1.58.22-3.1.74-4.7.91s-3.15.44-4.73.64a35.61,35.61,0,0,1-6.36.43,3.7,3.7,0,0,0-1,.15,12.48,12.48,0,0,1-3.76.27c-1.19-.11-2.4,0-3.6,0a12.42,12.42,0,0,1-2.57-.24,20.66,20.66,0,0,0-4.78-.12c-.4,0-.8.2-1.18,0a4.47,4.47,0,0,0-2.92-.35.91.91,0,0,1-.59,0c-1.12-.6-2.35-.36-3.52-.52-1.51-.21-3-.57-4.48-.86-.19,0-.4-.2-.57-.16-1.18.3-2.18-.33-3.24-.6-1.87-.49-3.73-1-5.58-1.53-1.46-.44-2.88-1-4.34-1.48a76.06,76.06,0,0,1-9.57-3.94,37.38,37.38,0,0,1-4.77-2.51c-1.66-1.09-3.17-2.4-4.73-3.63-.15-.11-.2-.34-.29-.52a.8.8,0,0,1,.65-.28,2.17,2.17,0,0,1,.51.08c.33.12.67.22,1,.37,2.1,1.11,4.56,1.53,6.39,3.2.73,1.34,2.15,1.71,3.4,2.26a124.59,124.59,0,0,0,17.78,6.17,85.07,85.07,0,0,0,10,1.75,112.14,112.14,0,0,0,16.84,1.44,89.49,89.49,0,0,0,9.63-.88c3.15-.35,6.26-1.12,9.45-1a4.79,4.79,0,0,0,1.67-.34,4.89,4.89,0,0,1,.55-.05,10.19,10.19,0,0,0,2.55-.72,4.71,4.71,0,0,1,.52-.09,8.87,8.87,0,0,0,1.25-.34l.53-.09c.44-.08.85-.3,1.31-.35l.57-.08a85.75,85.75,0,0,0,21.09-9.38c5.7-3.69,11.13-7.84,15-13.46,4.65-6.71,8.25-14,8.94-22.32.67-8.09-.89-15.73-5.51-22.58a4.19,4.19,0,0,1-.56-1.26c-.16-.29-.26-.61-.42-.9s-.23-.56-.39-.82-.2-.4-.31-.59-.13-.26-.19-.39-.16-.42-.24-.63a1.38,1.38,0,0,1,0-.45A.7.7,0,0,1,154,35.2Z"/><path class="cls-13" d="M153.15,37.6v-.8c-.15-.12-.25-.28-.4-.4,0-.76-.66-1.23-.94-1.88s-.56-1.15-.83-1.73a.66.66,0,0,1,.27-.84l1.08,1.26A6.4,6.4,0,0,1,153.94,36h0c.26.2.19.58.41.8h0c.24.22.2.5.19.78a1,1,0,0,1-.54.92C153.29,38.59,153.34,38,153.15,37.6Z"/><path class="cls-14" d="M153.94,36a10.62,10.62,0,0,1-1.61-2.81,2.82,2.82,0,0,1,1.62,2Z"/><path class="cls-10" d="M30,96.4a2.1,2.1,0,0,1-1.28-.72l.14-.13c.69-.39,1-.06,1.24.59A2.77,2.77,0,0,0,30,96.4Z"/><path class="cls-10" d="M30.74,96.82A.92.92,0,0,1,30,96.4l0-.05c.37-.26.64-.15.84.23Z"/><path class="cls-10" d="M31.52,97.23a.87.87,0,0,1-.78-.41l0-.06c.37-.27.65-.16.85.23Z"/><path class="cls-10" d="M32.33,97.63l-.75-.1c0-.1,0-.2-.06-.3l.06-.07C32,97,32.42,96.92,32.33,97.63Z"/><path class="cls-8" d="M147.63,27.17l-.45-.46A.64.64,0,0,1,147.63,27.17Z"/><path class="cls-5" d="M153.15,37.6l.8.8a1,1,0,0,1,.4.29,4.13,4.13,0,0,1,.36.65,2.5,2.5,0,0,1,.18.48c0,.17.07.33.12.5a2.12,2.12,0,0,1,.14.82,1.35,1.35,0,0,1-.54,1.06,1.21,1.21,0,0,1-.71.36c-3.89,0-6,2.73-8.3,5.24-1.38,1.53-2.53,3.26-4,4.76a3.69,3.69,0,0,0-.88,2.38c-.82,9.63-5.42,17.28-12.52,23.55-11.06,9.78-24.38,14.29-38.73,15.87-10.37,1.14-20.78,2.21-31.24,2.16a88,88,0,0,1-15.72-1.07c-1.79-.33-3.42-.51-4.65,1.22a2,2,0,0,1-1.6.7,4.4,4.4,0,0,1-2.53-.67,7.44,7.44,0,0,1-.68-.38,3.38,3.38,0,0,1-.41-.24l-.59-.34a2.14,2.14,0,0,1-.4-.2,2.88,2.88,0,0,1-.38-.22A1.64,1.64,0,0,1,31,95a1.2,1.2,0,0,1-.22-.4V94.4c-1.2-.74-2.42-1.47-3.62-2.22-.27-.17-.51-.39-.77-.58a4.31,4.31,0,0,0,2.9-1.19,3.14,3.14,0,0,1,3-.73A53.91,53.91,0,0,1,37.85,91a3.92,3.92,0,0,0,1.17.23,45.33,45.33,0,0,1,5.32.72,6.85,6.85,0,0,0,1.2.09,10.88,10.88,0,0,1,3.36.33,4.68,4.68,0,0,0,1.19.08,6.84,6.84,0,0,1,1.2,0c3,.67,6,.29,9,.37,2,0,4,0,6,0a12.37,12.37,0,0,0,3.37-.29,6,6,0,0,1,2-.1,27.48,27.48,0,0,0,5.94-.54,22.6,22.6,0,0,1,3.17-.27c1.07,0,2.14.06,3.2,0q2.78-.19,5.54-.56c2.23-.3,4.45-.69,6.68-1a4,4,0,0,0,.59-.08q3.07-.87,6.13-1.78c2.55-.76,5-1.84,7.45-2.83,1.12-.45,2.2-1,3.26-1.52,1.77-.91,3.51-1.87,5.26-2.82a28.34,28.34,0,0,0,4.76-3.6,12.86,12.86,0,0,1,1.83-1.54,2.91,2.91,0,0,0,.75-.65,63.36,63.36,0,0,0,7.34-9.91,8,8,0,0,0,.7-1.44,43.51,43.51,0,0,0,2-6.89,5.37,5.37,0,0,0,.12-1.38A5.41,5.41,0,0,1,138,51c1.23-1.31,2.23-2.81,3.54-4a18.46,18.46,0,0,0,2.28-2.77,40,40,0,0,1,4.25-4.48,3.37,3.37,0,0,1,2.76-.91A2.19,2.19,0,0,0,153.15,37.6Z"/><path class="cls-15" d="M31.16,94.79l.39,0c.12.14.28.25.41.38l.39,0c.13.14.28.25.41.38l.39,0c.13.14.28.25.41.38L36,96.8c.22.24.53.18.8.24a3.73,3.73,0,0,0,.88.06,1.58,1.58,0,0,1,.43.1c.21.07.4.18.61.25l.4.17.61.23a2.74,2.74,0,0,1,.4.15c.21.08.39.19.6.26a3.2,3.2,0,0,1,.39.16c.2.07.4.16.6.22l.41.14c.26.1.53.2.8.28a3,3,0,0,1,.42.15c.21.07.4.19.61.26a5.43,5.43,0,0,1,1.24.7.9.9,0,0,1,.2.47,1.34,1.34,0,0,1-.17.51c-.54.5-.86,1.21-1.54,1.58-1.64.21-2.83-.77-4.07-1.58-1.39-.64-2.78-1.26-4.15-1.92A9,9,0,0,1,33.14,98c-.2-.27-.58-.21-.82-.41h0a1,1,0,0,0-.75-.47,1.26,1.26,0,0,0-.8-.4,1.25,1.25,0,0,0-.79-.41,1.75,1.75,0,0,0-1.18-.8.74.74,0,0,1,.51-.71l1.42-.44h0C30.87,94.55,31,94.65,31.16,94.79Z"/><path class="cls-5" d="M23.54,89.61c1.21-.08,1.84.7,2.41,1.6A4.38,4.38,0,0,1,23.54,89.61Z"/><path class="cls-5" d="M17.56,85.2a1,1,0,0,1,.79.41A1,1,0,0,1,17.56,85.2Z"/><path class="cls-4" d="M14,82l.4.4Z"/><path class="cls-4" d="M14.36,82.4l.39.39Z"/><path class="cls-4" d="M14.76,82.8l.39.39Z"/><path class="cls-4" d="M15.16,83.2l.4.39Z"/><path class="cls-4" d="M15.56,83.6,16,84Z"/><path class="cls-5" d="M18.35,85.6l.4.4Z"/><path class="cls-5" d="M18.75,86l.4.4Z"/><path class="cls-5" d="M19.15,86.4l.4.4Z"/><path class="cls-5" d="M20.74,87.6l.41.4Z"/><path class="cls-5" d="M19.55,86.8l.4.39Z"/><path class="cls-5" d="M21.15,88l.4.39Z"/><path class="cls-5" d="M21.56,88.4l.39.38Z"/><path class="cls-5" d="M22.34,88.8l.41.4Z"/><path class="cls-5" d="M22.75,89.2l.4.39Z"/><path class="cls-5" d="M26,91.2l.4.4Z"/><path class="cls-16" d="M152.75,36.4l.4.4Z"/><path class="cls-17" d="M39.57,101.15a8.21,8.21,0,0,1,2.06.64,8.23,8.23,0,0,0,2.27.67l.24-.06a1.59,1.59,0,0,1,.75-.1,2.78,2.78,0,0,1,.5.11c.33.13.65.26,1,.41a2,2,0,0,1,.44.33,3.87,3.87,0,0,0,.41.4,54.8,54.8,0,0,0,10.61,3.88c2.61.76,5.22,1.53,7.87,2.09a43.74,43.74,0,0,0,5.41,1c4,.33,7.91.74,11.86,1.1,1.65.16,3.42-.38,5.13-.24,4.77.4,9.5-.27,14.16-.94a79.66,79.66,0,0,0,14.27-3.56c3.11-1.07,6.17-2.32,9.26-3.38,7.11-2.43,12.59-7.27,18.36-11.62a27.26,27.26,0,0,0,6.41-7.2,103.71,103.71,0,0,0,6.13-10.21c1.11-2.28,1.56-4.87,2.31-7.32.53-1.74.11-3.69.91-5.43.1-.23.08.05,0-.19-.85-3.17-.06-6.62-1.57-9.69a5,5,0,0,1-.25-1.16c-.07-.28-.17-.55-.26-.83a6.91,6.91,0,0,0-.61-2.23,2,2,0,0,1,.21-2.09c1-.33,1.39.32,1.64,1a37.68,37.68,0,0,1,2.16,18.35c-1,6.73-3.66,12.63-7.21,18.35-5.51,8.86-13.55,14.62-22.44,19.47a82.67,82.67,0,0,1-12.87,5.33A18,18,0,0,0,116,109.2h-.4c-.53-.27-.82.21-1.2.4H114c-.53-.27-.82.21-1.2.4h-.4a7.05,7.05,0,0,0-2.8.8h-.4a1.76,1.76,0,0,0-1.6.4,17.45,17.45,0,0,0-3.75.34,4.53,4.53,0,0,1-1.56.13,1.51,1.51,0,0,0-1,.12,3.11,3.11,0,0,1-2.67.3.34.34,0,0,0-.2,0c-2.64,1.07-5.52.19-8.21,1a10.69,10.69,0,0,1-2.78.1c-1.13,0-2.26,0-3.39,0a5,5,0,0,1-2-.3,8.29,8.29,0,0,0-4.9-.3,2.42,2.42,0,0,1-1.36,0,3.59,3.59,0,0,0-2.71-.26.7.7,0,0,1-.56-.09,3.05,3.05,0,0,0-2.66-.47c-1.35-.7-2.88-.12-4.24-.57s-2.61-.3-3.73-1.1c-.68-.48-1.53-.34-2.29-.51-3.17-.7-6.13-2.06-9.29-2.8a22.62,22.62,0,0,1-3.63-1.57,27.12,27.12,0,0,0-2.77-1.11,28.94,28.94,0,0,1-3.2-1.6A2.41,2.41,0,0,1,39.57,101.15Z"/><path class="cls-14" d="M116,109.2a1.87,1.87,0,0,1,1.27-.89c3-1,6-2.21,9-3.37a61.7,61.7,0,0,0,7-3.39,46.68,46.68,0,0,0,5.91-3.68c2.18-1.63,4.51-3.07,6.34-5.14a14,14,0,0,1,1.37-1.16,8.15,8.15,0,0,0,1.47-1.33c1.29-1.77,3-3.16,4.06-5.16a30.63,30.63,0,0,1,2.07-3.16,41.56,41.56,0,0,0,6-14.45,51.86,51.86,0,0,0,.71-11.12.66.66,0,0,0,0-.2,63.53,63.53,0,0,0-1.8-7.35,7.73,7.73,0,0,1-.6-1.69,2,2,0,0,0-1.19-1.51,1.11,1.11,0,0,1-.81-.57c-.15-.29-.27-.6-.41-.91a2.23,2.23,0,0,1-.13-.46,2.51,2.51,0,0,0-.2-.9,2.6,2.6,0,0,1-.16-.44,5.86,5.86,0,0,0-.22-.92,1.29,1.29,0,0,1,0-.48,1.08,1.08,0,0,1,.2-.45l.21-.12a14.19,14.19,0,0,1,3.2,5.21,66.75,66.75,0,0,1,2.59,9.4,4.65,4.65,0,0,1,.15,1c0,2.46.15,4.94,0,7.38a38.82,38.82,0,0,1-1.38,7.22,48.52,48.52,0,0,1-6,12.77c-.39.61-.75,1.25-1.1,1.89a12.94,12.94,0,0,1-2.28,3,14.94,14.94,0,0,0-2.65,3,1.41,1.41,0,0,1-.4.44c-2,1.4-3.7,3.22-5.68,4.69a43.45,43.45,0,0,0-4.16,3,12.54,12.54,0,0,1-2.57,1.5c-1.51.85-3,1.75-4.53,2.53s-3.15,1.4-4.71,2.14c-3.08,1.45-6.4,2.23-9.53,3.54A3.93,3.93,0,0,1,116,109.2Z"/><path class="cls-14" d="M109.55,110.8a4,4,0,0,1,2.29-1c.14,0,.34.15.51.23A7.4,7.4,0,0,1,109.55,110.8Z"/><path class="cls-14" d="M107.55,111.2c.69-.85.78-.88,1.6-.4A3.07,3.07,0,0,1,107.55,111.2Z"/><path class="cls-14" d="M114.35,109.6c.54-.76.54-.76,1.2-.4Z"/><path class="cls-14" d="M112.75,110c.55-.73.55-.73,1.2-.4Z"/><path class="cls-14" d="M155.57,39.18a1.68,1.68,0,0,1,.43,1.17l-.06.06a.42.42,0,0,1-.51,0,.85.85,0,0,1-.08-1.07Z"/><path class="cls-14" d="M155.18,38.37a1.25,1.25,0,0,1,.39.81l-.1.09-.23.06a.6.6,0,0,1-.32-.34.85.85,0,0,1,.07-.47Z"/><path class="cls-14" d="M154.79,37.56l.39.81-.06.06-.23.12a.62.62,0,0,1-.37-.34.83.83,0,0,1,.07-.49Z"/><path class="cls-10" d="M32.32,97.62a.92.92,0,0,1,.82.41A.92.92,0,0,1,32.32,97.62Z"/><path class="cls-14" d="M154.4,37.52l-.06-.72a1.1,1.1,0,0,1,.45.76l-.06.06-.21.11Z"/><path class="cls-14" d="M154.34,36.81a1,1,0,0,1-.41-.8A1,1,0,0,1,154.34,36.81Z"/><path class="cls-18" d="M155.52,40a.24.24,0,0,1,.09.27c.19.28.06.69.35.94h0c.36.32,0,.9.41,1.2h0c.34.34,0,.89.39,1.22a.15.15,0,0,1,.05.22,3.53,3.53,0,0,0,.3,1l.43.81a3.86,3.86,0,0,0,.41,2,3.55,3.55,0,0,1,.14,2,15.48,15.48,0,0,0-.36,4.29c0,.73.15,1.67-1.06,1.7-1-.88-.7-2.06-.74-3.15s0-2.23-.13-3.34c0-.64-.27-1.25-.28-1.9,0-.37-.07-.76-.12-1.13a3.76,3.76,0,0,1-.07-1.06,3.1,3.1,0,0,0-.25-.95,5.88,5.88,0,0,1-.16-.7c-.06-.31-.12-.61-.17-.92a1.38,1.38,0,0,1,.08-.67.49.49,0,0,0-.08-.61v-.4a.7.7,0,0,1-.2-.4.67.67,0,0,0-.2-.4v-.4c-.25-.21-.15-.59-.4-.8v-.4a1.26,1.26,0,0,1,.45-.88h0c.2.25.08.66.4.85v0c.21.24.1.63.38.84h0C155.42,39.39,155.29,39.77,155.52,40Z"/><path class="cls-16" d="M155.15,41.6v.8c.25.21.15.59.4.8V44a.77.77,0,0,1,0,.91c-.79.82-1.83.69-2.82.69a3.83,3.83,0,0,0-2.9,1,68.81,68.81,0,0,0-5.57,6,3,3,0,0,0-.72,1.81c-.62,12.78-7.36,21.94-17.34,29.11A69.13,69.13,0,0,1,93.09,95.92c-10,1.12-20,2.09-30,2.55a64,64,0,0,1-11.16-.06,4.22,4.22,0,0,0-4.77,2.35,1.29,1.29,0,0,1-.58.3,1.75,1.75,0,0,1-1.42-.66c-.32-.37-.88,0-1.2-.4h0c-.22-.25-.59-.16-.81-.4a2.54,2.54,0,0,1-.39,0c-.21-.25-.59-.14-.81-.39h-.39c-.21-.24-.59-.15-.8-.39h0c-.21-.25-.59-.16-.81-.39h-.39c-.21-.25-.59-.16-.8-.4h0c-.21-.25-.59-.16-.81-.4h-.39c-.21-.25-.59-.14-.8-.39a1.08,1.08,0,0,1-.8-.4,1.62,1.62,0,0,0,1.55-.71A9,9,0,0,1,38.36,95a1.91,1.91,0,0,1,1.74-.69c1.47.1,2.89.42,4.33.63A16,16,0,0,0,47,95.2a9.57,9.57,0,0,1,2.38.24,11.84,11.84,0,0,0,2,.16,56.65,56.65,0,0,1,6.38.18,15.11,15.11,0,0,0,2.58-.17c1.73,0,3.46,0,5.19,0a13.3,13.3,0,0,0,3.77-.31,6,6,0,0,1,1.59-.09A14.82,14.82,0,0,0,73.44,95c1.43-.27,2.9-.36,4.35-.49,2.31-.19,4.63-.27,6.95-.4a74.55,74.55,0,0,0,11.05-1.42c2.34-.49,4.68-1,7-1.55,1.09-.28,2.11-.82,3.19-1.15a59.21,59.21,0,0,0,7.07-2.71c1.88-.85,3.75-1.75,5.53-2.78a46.7,46.7,0,0,0,5.12-3.09,8,8,0,0,0,.82-.57c2.22-2.3,4.9-4.11,7-6.56,1.11-1.32,2.06-2.77,3.07-4.17a32.6,32.6,0,0,0,5.32-13.44,10.14,10.14,0,0,0,.07-2,3.42,3.42,0,0,1,1.08-2.7,45.34,45.34,0,0,0,3.58-4.26,52.66,52.66,0,0,1,4.63-4.7,5,5,0,0,1,3.18-.95,5.3,5.3,0,0,0,2.33-.42A.23.23,0,0,1,155.15,41.6Z"/><path class="cls-13" d="M154,38.8a1,1,0,0,1,.4.8A1,1,0,0,1,154,38.8Z"/><path class="cls-10" d="M31.16,94.79l-.41-.39Z"/><path class="cls-10" d="M32,95.19l-.41-.38Z"/><path class="cls-10" d="M32.76,95.59l-.41-.38Z"/><path class="cls-13" d="M155.15,41.6h-.4v-.4Z"/><path class="cls-16" d="M154.75,40.4v.4l-.4-.4A.23.23,0,0,1,154.75,40.4Z"/><path class="cls-13" d="M154.75,40.4h-.4V40C154.49,40.13,154.62,40.27,154.75,40.4Z"/><path class="cls-10" d="M33.56,96l-.41-.38Z"/><path class="cls-19" d="M43.9,102.46c-.1-1.16,0-1.25,1.27-1.67.17-.23.42-.18.65-.17s.5.4.86.36a2.36,2.36,0,0,1,.46-.1,4.23,4.23,0,0,1,.92.16,3.81,3.81,0,0,1,.45.13,5.31,5.31,0,0,0,.91.26,3.11,3.11,0,0,1,.49.11,5.32,5.32,0,0,0,1.32.12c2.17.24,4.23,1,6.38,1.32.75.53,2,.09,2.44,1.2-.47,1.28-2.24.83-2.74,2.07-1,.62-2,.08-2.92-.06a5.54,5.54,0,0,1-.57-.07,5.77,5.77,0,0,0-1.58-.42c-.64-.3-1.36-.36-2-.62-.37-.18-.67-.51-1.11-.51a1.89,1.89,0,0,1-.48-.13,2.83,2.83,0,0,0-.87-.43,1.91,1.91,0,0,1-.47-.12,9.1,9.1,0,0,1-1-.65h.05c-.31-.45-.88-.11-1.25-.4l0,0c-.3-.48-.88-.13-1.25-.42Z"/><path class="cls-20" d="M46,100.82l-.79,0c0-.13,0-.26,0-.39a1.37,1.37,0,0,1,1.2.4A.22.22,0,0,1,46,100.82Z"/><path class="cls-20" d="M44,100a1.37,1.37,0,0,1,1.2.4A1.41,1.41,0,0,1,44,100Z"/><path class="cls-20" d="M36.75,97.2a1,1,0,0,1,.8.39A1,1,0,0,1,36.75,97.2Z"/><path class="cls-20" d="M37.94,97.6a1,1,0,0,1,.81.4A1,1,0,0,1,37.94,97.6Z"/><path class="cls-20" d="M38.75,98a1,1,0,0,1,.8.4A1.08,1.08,0,0,1,38.75,98Z"/><path class="cls-20" d="M39.94,98.41a1,1,0,0,1,.81.39A1.05,1.05,0,0,1,39.94,98.41Z"/><path class="cls-20" d="M40.75,98.8a1,1,0,0,1,.8.39A1,1,0,0,1,40.75,98.8Z"/><path class="cls-20" d="M41.94,99.2a1.05,1.05,0,0,1,.81.39A1.07,1.07,0,0,1,41.94,99.2Z"/><path class="cls-20" d="M43.14,99.6a1,1,0,0,1,.81.4A1.08,1.08,0,0,1,43.14,99.6Z"/><path class="cls-21" d="M54,105.59c1.09-.12,2.09.55,3.19.41a1.27,1.27,0,0,1,.54-.28c.62,0,1.24.08,1.86,0,3.32.6,6.69.77,10,1.47,1.95.65,4,.69,6,1.18,2.56.66,5.08.28,7.6.46,9.63.69,19-1.07,28.29-3.58a75.93,75.93,0,0,0,28-14.32,55.87,55.87,0,0,0,10-11,6,6,0,0,0,1.08-2.55,3.2,3.2,0,0,1,.4-1.35,4.07,4.07,0,0,1,.43-.65c.08-.14.17-.28.26-.41s.18-.26.28-.38l.13-.2a4.21,4.21,0,0,0,.34-.63l.24-.45c1-2,2-3.89,2.76-5.92a11,11,0,0,0,.47-1.2,2.85,2.85,0,0,1,.14-.5,4.48,4.48,0,0,0,.29-1,2.47,2.47,0,0,1,.19-.54c.32-1.91.73-3.8.93-5.72a20.89,20.89,0,0,0,.41-5.63,3.64,3.64,0,0,1,.36-2.27.47.47,0,0,1,.63-.11v1.2a16.42,16.42,0,0,1,.61,4.88,7.15,7.15,0,0,0,0,1.39c1,3.81-.09,7.48-.9,11.1-1.26,5.72-4.28,10.6-7.61,15.39-5.72,8.24-13.71,13.62-22.32,18.13a71.37,71.37,0,0,1-14.7,5.5,96.46,96.46,0,0,1-15.54,3.08c-4.2.41-8.41.49-12.62.59a91.55,91.55,0,0,1-14.44-.94,70.28,70.28,0,0,1-16.18-4C54.59,106.54,53.82,106.46,54,105.59Z"/><path class="cls-22" d="M54,105.59a24,24,0,0,0,4.93,2c1.17.25,2.29.78,3.46.93,2.76.36,5.39,1.28,8.14,1.67a7,7,0,0,0,.78.13,59.55,59.55,0,0,1,6.92.78,2,2,0,0,0,.59,0c2.59-.46,5.14.14,7.7.2a19.1,19.1,0,0,0,3.76-.37,5.24,5.24,0,0,1,2.55,0,1.83,1.83,0,0,0,1,.15c1.66-.54,3.46-.08,5.11-.72a2.45,2.45,0,0,1,1.75-.16,1.81,1.81,0,0,0,1,0c2.9-.74,5.89-1,8.79-1.79a86.71,86.71,0,0,0,10.83-3.42,89.37,89.37,0,0,0,9.11-4.07,93.34,93.34,0,0,0,9.44-6,41.64,41.64,0,0,0,4.2-3.67c1.27-1.18,2.45-2.44,3.69-3.66a10.45,10.45,0,0,0,1.84-2.34c.45-.8,1.15-1.46,1.67-2.22a47.24,47.24,0,0,0,5.18-9.19,32.13,32.13,0,0,0,2-6.87c.28-1.77.56-3.54.75-5.32a8.36,8.36,0,0,0,0-2.78,18.3,18.3,0,0,1-.29-4.17c0-1.07,0-2.13,0-3.2a2.62,2.62,0,0,1,.89,2.32c0,.13-.07.31,0,.39.75,1,.51,2.11.32,3.23a3.52,3.52,0,0,0,.4,2.12,2.9,2.9,0,0,1-.08,3,2.34,2.34,0,0,0-.33,1.54c.1,1-.23,2-.22,3a6.57,6.57,0,0,1-.83,2.43,8.57,8.57,0,0,0-1,3.83,1.47,1.47,0,0,1-.4,1.11,13.68,13.68,0,0,0-1.81,3.09q-1.09,2-2.22,4a3.35,3.35,0,0,1-.48.64A15.41,15.41,0,0,0,150,87a3,3,0,0,1-1.09,1.37,13.49,13.49,0,0,0-3.38,3.36,3.13,3.13,0,0,1-1.14,1.09,38.68,38.68,0,0,0-4.71,3.35,85,85,0,0,1-8.58,5.75c-1.37.76-2.66,1.72-4.35,1.87a5.35,5.35,0,0,0-2.13,1,4.65,4.65,0,0,1-2.21.85,3,3,0,0,0-1.15.29c-2.28,1.11-4.79,1.57-7.14,2.47a7.39,7.39,0,0,1-1,.15,8.12,8.12,0,0,0-1.92.52,5.48,5.48,0,0,1-2.82.74,8.4,8.4,0,0,0-2.83.63,1.92,1.92,0,0,1-1.12.22c-.13,0-.31-.1-.39,0-1,.75-2.16.51-3.26.67a44.74,44.74,0,0,1-5.3.44,27.72,27.72,0,0,0-3.94.49,4.4,4.4,0,0,1-1.77.06,13,13,0,0,0-5.73,0,3,3,0,0,1-1.19,0,39.3,39.3,0,0,0-6.32-.58,8.68,8.68,0,0,1-2-.29,8.28,8.28,0,0,0-2.37-.25,6.31,6.31,0,0,1-3.5-.59.39.39,0,0,0-.18-.06,28,28,0,0,1-5.06-.94,15.65,15.65,0,0,1-3.08-.79,5.22,5.22,0,0,0-1.13-.39c-3.44-.56-6.58-2.09-9.88-3.11a16.88,16.88,0,0,1-2.52-1.16c-.21-.11-.33-.41-.49-.62a1,1,0,0,1,1.17.09h0c.35.33.89,0,1.23.37a.19.19,0,0,0,.26.06c.41.25,1,0,1.33.37l2,.78c.46.44,1.15,0,1.62.39Z"/><path class="cls-22" d="M158,49.59l0-2c.65.71.31,1.58.43,2.38l-.17.17a.48.48,0,0,1-.4-.2A.26.26,0,0,1,158,49.59Z"/><path class="cls-15" d="M43.89,102.45a1.15,1.15,0,0,1,1.25.42A1.6,1.6,0,0,1,43.89,102.45Z"/><path class="cls-15" d="M45.09,102.85a1.19,1.19,0,0,1,1.25.4A1.52,1.52,0,0,1,45.09,102.85Z"/><path class="cls-15" d="M47.54,103.63l-1.17-.09c0-.1,0-.2-.08-.3A1.23,1.23,0,0,1,47.54,103.63Z"/><path class="cls-22" d="M158.75,50.4h-.4a.23.23,0,0,1-.11-.24c0-.09,0-.13.08-.13l.06-.05Z"/><path class="cls-13" d="M156.76,43.6a1.27,1.27,0,0,1-.39-1.22A1.45,1.45,0,0,1,156.76,43.6Z"/><path class="cls-13" d="M156.37,42.39a1.26,1.26,0,0,1-.41-1.2A1.44,1.44,0,0,1,156.37,42.39Z"/><path class="cls-13" d="M156,41.2a1,1,0,0,1-.35-.94l.33.15Z"/><path class="cls-13" d="M157.11,44.79a1.07,1.07,0,0,1-.3-1A1,1,0,0,1,157.11,44.79Z"/><path class="cls-13" d="M155.52,40a1,1,0,0,1-.36-.81,1.81,1.81,0,0,0,.31.09Z"/><path class="cls-13" d="M155.17,39.19a.91.91,0,0,1-.38-.84l.33.08Z"/><path class="cls-13" d="M154.8,38.38a.85.85,0,0,1-.4-.85,2,2,0,0,1,.33.09Z"/><path class="cls-13" d="M60,104.4a1.58,1.58,0,0,0-1.21-.4,1.59,1.59,0,0,1-1.21-.4c.36-1.59,1.54-1.87,2.9-1.75a19.14,19.14,0,0,1,4.12.73c1,.32,1.6.25,2-.89a3.1,3.1,0,0,1,2.9-2.09c4.62-.56,9.22-1,13.89-1.29,14.41-.73,28.5-3.17,41-10.9,5.53-3.41,10.85-7.22,14.74-12.66a36.46,36.46,0,0,0,7.22-19.59c.22-4.55,5.56-8.47,10-6.36a2.18,2.18,0,0,1,.4,1.67V55.6c.95.75.62,1.8.54,2.73a20.57,20.57,0,0,1-1,4.57,5.62,5.62,0,0,1-.19.53c-.09.34-.27.64-.37,1a2.57,2.57,0,0,1-.15.47,8.81,8.81,0,0,0-.3.91,4.12,4.12,0,0,1-.13.47c-.07.25-.15.49-.24.74a55.06,55.06,0,0,1-3,6l-.28.42c-.13.22-.28.41-.4.63s-.15.29-.23.44-.24.45-.37.67a38.76,38.76,0,0,1-4.32,5.55c-.11.12-.23.25-.33.38a2.65,2.65,0,0,1-.34.33l-.17.15c-.1.11-.22.2-.33.3L145,82c-.1.11-.2.2-.31.3l-.15.16-.3.33c-.05.06-.11.11-.15.17s-.21.24-.31.36l-.16.18a4.26,4.26,0,0,1-.35.38,22.73,22.73,0,0,1-3.75,3.25l-.35.36a2.54,2.54,0,0,1-.36.29,3.41,3.41,0,0,1-.37.25,2.08,2.08,0,0,1-.36.2,2.35,2.35,0,0,1-.32.23c-.1.09-.21.16-.31.24a1.67,1.67,0,0,0-.16.12,1.76,1.76,0,0,1-.3.24,3.81,3.81,0,0,1-.32.24c-.11.08-.22.15-.33.24l-.32.27-.33.3-.18.16a6.71,6.71,0,0,1-.58.48,84.13,84.13,0,0,1-17,8.92l-1,.35a3.57,3.57,0,0,1-.46.16c-.29.07-.59.16-.88.26a3.45,3.45,0,0,1-.42.14,8.21,8.21,0,0,0-.84.27,2.59,2.59,0,0,1-.42.14c-.29.08-.57.21-.85.31a2.58,2.58,0,0,1-.46.18,5.58,5.58,0,0,1-1,.33c-.19,0-.37.09-.56.15a76.38,76.38,0,0,1-15.07,3.52,6.34,6.34,0,0,0-2.76.34,3.31,3.31,0,0,1-.94.1,6.2,6.2,0,0,0-2.8.3H88.9c-4.43.3-8.84,1-13.3.55-2.8-1.1-5.76-.1-8.63-.64-1.4-.27-2.86-.41-4.3-.56-.77-.15-1.49-.48-2.24-.69A1.13,1.13,0,0,1,60,104.4Z"/><path class="cls-20" d="M156.35,48.8a5.85,5.85,0,0,0-1.39.06,9.53,9.53,0,0,1-3,.34,2.23,2.23,0,0,0-1.78.73c-.65.67-1.32,1.32-2,2a3.85,3.85,0,0,0-1.1,2.69A35.6,35.6,0,0,1,143.49,69,34.66,34.66,0,0,1,139,76.23c-1.36,1.6-2.43,3.52-4.38,4.57a39,39,0,0,1-6.3,4.86c-1.3.92-2.5,2-3.89,2.76a61.3,61.3,0,0,1-8,4A77.8,77.8,0,0,1,105,96.13c-3.3.77-6.62,1.38-10,1.88-2.55.37-5.14.54-7.69.87a47.75,47.75,0,0,1-7,.3,29.34,29.34,0,0,0-6.13.65,4.34,4.34,0,0,1-1.18.15c-1.48-.15-2.88.48-4.35.47a1.43,1.43,0,0,0-1.48,1.37,7.41,7.41,0,0,1-1.08,2.68c-.54,0-.58-.37-.74-.63a1.24,1.24,0,0,0-1-.63l-4.51-.76a1.39,1.39,0,0,0-1.43.48,1.47,1.47,0,0,1-1,.64,11.81,11.81,0,0,1-3.49-.57,13.6,13.6,0,0,0-3.29-.64c-.32-.37-.88,0-1.21-.39h-.38c-.22-.24-.6-.14-.82-.39H48c-.21-.24-.59-.14-.81-.38h-.4c-.26-.12-.26-.25,0-.38,0-1.17.79-1.94,1.34-2.83a1,1,0,0,1,.88-.37,17.44,17.44,0,0,1,2.8,0c1.37.19,2.76,0,4.13.31a7.63,7.63,0,0,0,2.19,0c3.23-.25,6.47-.38,9.72-.43,1.91,0,3.8-.52,5.72-.64s3.8-.68,5.74-.53a3.16,3.16,0,0,0,1.19,0A17.32,17.32,0,0,1,85.21,96a8,8,0,0,0,2.57-.26,3.29,3.29,0,0,1,1-.13A63.85,63.85,0,0,0,97,94.54a54,54,0,0,0,7.57-1.75c2.79-.83,5.58-1.69,8.3-2.8s5.49-2.69,8.24-4a24.54,24.54,0,0,0,3.54-2.2,56.51,56.51,0,0,0,7.94-6.63A35.23,35.23,0,0,0,135,74.41a41.68,41.68,0,0,0,3.91-5.76,26.67,26.67,0,0,0,2.9-7c.5-2.25,1.21-4.52,1-6.88a4,4,0,0,1,1.3-3.17c1.67-1.9,3.41-3.72,5.16-5.54a3.67,3.67,0,0,1,3.16-1.33c1,.09,2.13,0,3.19,0,.13-.26.27-.26.4,0V46c.25.21.15.59.4.8Z"/><path class="cls-10" d="M155.55,63.59a11.32,11.32,0,0,1,.58-3.1,17.55,17.55,0,0,0,.62-4.89,1.93,1.93,0,0,0,.4-1.48c0-1.12,0-2.24,0-3.36a1,1,0,0,1,.82-1.17.16.16,0,0,1,0,.25,54.94,54.94,0,0,1,0,9.07,16.38,16.38,0,0,1-1.22,5.91A1.72,1.72,0,0,1,155.55,63.59Z"/><path class="cls-13" d="M155.55,43.2a1,1,0,0,1-.4-.8A1,1,0,0,1,155.55,43.2Z"/><path class="cls-13" d="M156.35,46.8a1,1,0,0,1-.4-.8A1,1,0,0,1,156.35,46.8Z"/><path class="cls-13" d="M156,44.8h-.4V44A1,1,0,0,1,156,44.8Z"/><path class="cls-15" d="M46.74,100.82c0,.12,0,.25,0,.38a1.05,1.05,0,0,1-.79-.38l.39,0Z"/><path class="cls-23" d="M62.36,104.79a8.26,8.26,0,0,1,2.57.25,2,2,0,0,0,.59.11c2.65,0,5.27.65,7.94.48a2.76,2.76,0,0,1,2.11.36c-.49.78-1.33.68-2.15.84-.11.5,1.39,1,.11,1.51a24,24,0,0,1-4-.35c-2-.26-4-.5-5.91-.79a22.76,22.76,0,0,1-4.49-.82c-.52-.38-1.19,0-1.72-.34l-.15,0-.13-.08c.56-1.53.56-1.54,2-1.6.26,0,.53,0,.79,0s.26,0,.39,0C61,104.88,61.76,104.32,62.36,104.79Z"/><path class="cls-21" d="M54,105.59c-.58,0-1.17.1-1.62-.39A2.33,2.33,0,0,1,54,105.59Z"/><path class="cls-15" d="M49.55,102a1.45,1.45,0,0,1,1.21.39A1.36,1.36,0,0,1,49.55,102Z"/><path class="cls-15" d="M48.75,104a1.5,1.5,0,0,1-1.23-.37A1.33,1.33,0,0,1,48.75,104Z"/><path class="cls-15" d="M50.34,104.42a1.65,1.65,0,0,1-1.33-.37A1.36,1.36,0,0,1,50.34,104.42Z"/><path class="cls-15" d="M47.15,101.21a1,1,0,0,1,.81.38A1,1,0,0,1,47.15,101.21Z"/><path class="cls-15" d="M48.35,101.6a1.07,1.07,0,0,1,.82.39A1,1,0,0,1,48.35,101.6Z"/><path class="cls-24" d="M69.55,108H74a2,2,0,0,1,2-.65,28.86,28.86,0,0,0,7.93-.12c1.75-.26,3.57.46,5.32-.25a3.21,3.21,0,0,1,1-.12,6,6,0,0,0,3.15-.25,2.25,2.25,0,0,1,.63-.06,6.46,6.46,0,0,0,2.43-.4,108.73,108.73,0,0,0,13.74-3,5.73,5.73,0,0,1,.56-.14,4.19,4.19,0,0,0,1-.3,2.7,2.7,0,0,1,.49-.12,3.3,3.3,0,0,0,.92-.2,2.13,2.13,0,0,1,.43-.13,3.36,3.36,0,0,0,.83-.27,3,3,0,0,1,.41-.18l.61-.26a2.23,2.23,0,0,1,.43-.16,9,9,0,0,0,.87-.31,3,3,0,0,1,.45-.18q.46-.19.93-.42A91.14,91.14,0,0,0,135,91.79l.64-.37.38-.23.35-.23.17-.12a2,2,0,0,1,.33-.24,2.35,2.35,0,0,1,.32-.23,2.3,2.3,0,0,1,.33-.21,2.26,2.26,0,0,1,.31-.23l.3-.25s.16-.13.16-.14a1.94,1.94,0,0,1,.31-.26,2,2,0,0,1,.34-.25,2.46,2.46,0,0,0,.51-.39,3.22,3.22,0,0,1,.32-.32,2.65,2.65,0,0,1,.34-.33l.17-.17a4,4,0,0,1,.37-.35l.2-.18a34,34,0,0,0,3.73-3.47,3.15,3.15,0,0,1,.37-.36l.18-.18c.11-.12.24-.22.36-.33l.18-.17c.11-.13.23-.24.34-.35s.12-.12.17-.19.23-.25.35-.37l.2-.18q1.29-1.83,2.72-3.55c.44-.53.84-1.2,1.73-1A4.51,4.51,0,0,1,150,80.07c-1.19,1.68-2.43,3.31-3.71,4.93a48.38,48.38,0,0,1-4.12,4.59,39.84,39.84,0,0,1-5.4,4.39c-.93.64-1.82,1.35-2.76,2a58.43,58.43,0,0,1-9.24,5.09c-2,.85-4,1.87-6,2.65a6.25,6.25,0,0,0-1,.65,2.14,2.14,0,0,1-.69.38c-4.56.88-9,2.48-13.53,3.26a3.32,3.32,0,0,0-1.5.48,1,1,0,0,1-1,.12,1.42,1.42,0,0,0-1.16.06,2.51,2.51,0,0,1-2.1.26.28.28,0,0,0-.2,0c-1.51.76-3.1.34-4.67.35a17.7,17.7,0,0,0-2.93.53,17.83,17.83,0,0,1-6.14,0c-1-.17-2.09-.4-3.14-.54a5.75,5.75,0,0,0-2.37.14c-.32.09-.72.26-1,.14a12,12,0,0,0-3.85-.65c-1.24-.16-2.47-.42-3.71-.65C69.75,108.2,69.66,108.07,69.55,108Z"/><path class="cls-25" d="M151.13,77.14c-.73.92-1.44,1.84-2.19,2.74a13.22,13.22,0,0,1-2.2,2.46,3.59,3.59,0,0,1-1.19-1.54c1.55-2.18,3.38-4.14,4.81-6.4.14-.13.26-.27.39-.41h0c.25-.2.17-.58.42-.79h0c.94-.49,1.58-.4,1.64.84v0c-.31.17-.22.57-.45.79h0c-.15.15-.33.27-.33.51l.05-.06c-.41.12-.29.57-.51.8Z"/><path class="cls-26" d="M152.8,74a1.59,1.59,0,0,0-1.64-.84c.82-1.65,1.65-3.31,2.47-5a5.8,5.8,0,0,0,.73-1.83c.14-.12.25-.28.39-.41V65.6c.26-.21.15-.59.4-.81,0-.13,0-.26,0-.39.24-.21.15-.59.39-.8h0a1.26,1.26,0,0,1,1.22,1.23v0c-.4.33-.07.89-.39,1.24l0,0c-.45.31-.09.9-.42,1.25A22.15,22.15,0,0,1,152.8,74Z"/><path class="cls-18" d="M158,58.91c0-3,0-6,0-9.07l.31.19a.35.35,0,0,0,0,.37c0,2.12,0,4.25,0,6.37A4.16,4.16,0,0,1,158,58.91Z"/><path class="cls-19" d="M57.43,106a2,2,0,0,1,1.72.34A2.37,2.37,0,0,1,57.43,106Z"/><path class="cls-10" d="M156.38,66a1.28,1.28,0,0,1,.39-1.24A1.42,1.42,0,0,1,156.38,66Z"/><path class="cls-10" d="M156,67.26A1.24,1.24,0,0,1,156.4,66,1.52,1.52,0,0,1,156,67.26Z"/><path class="cls-26" d="M152.36,74.81a.85.85,0,0,1,.45-.79A.91.91,0,0,1,152.36,74.81Z"/><path class="cls-26" d="M151.57,76.05a.78.78,0,0,1,.51-.8A1,1,0,0,1,151.57,76.05Z"/><path class="cls-26" d="M152,75.31l.33-.51A.5.5,0,0,1,152,75.31Z"/><path class="cls-27" d="M117.16,101.57l-.12.09h-.15c-.3.14-.68.09-.94.34l-.08.09-.13,0a2.23,2.23,0,0,0-1,.35h0c-.33.35-.89,0-1.21.4h0c-.33.35-.89,0-1.21.39l-.09.09-.12,0a2.82,2.82,0,0,0-1,.32l-.14.09-.17,0c-1.17.06-.63-.72-.49-1.15s.81-.84,1.19-1.28a1.16,1.16,0,0,1,.37,0c.23-.23.6-.14.82-.37a2.56,2.56,0,0,1,.39,0c.22-.23.59-.14.81-.37l.38,0c.23-.23.61-.14.83-.38a2.19,2.19,0,0,1,.36,0c.24-.22.62-.12.84-.38a2.07,2.07,0,0,1,.35,0c.25-.2.63-.12.85-.39a34.87,34.87,0,0,1,3.8-1.69,91,91,0,0,0,12.69-7A6.94,6.94,0,0,1,135.1,90a2.11,2.11,0,0,0,.45-.39h0a5,5,0,0,1,.41-.38h0c.19-.26.57-.17.76-.43h0a4,4,0,0,0,.42-.39h0a3.6,3.6,0,0,1,.41-.37l0,0c.19-.27.58-.17.76-.43h0a3.19,3.19,0,0,0,.42-.4h0c1-.43,1.83-.48,2.08.86v0a1,1,0,0,0-.47.4l0,0a2.67,2.67,0,0,0-.44.38h0c-.35.35-.88.46-1.15.9l.05,0a.88.88,0,0,0-.48.39l0,0c-.17.1-.29.25-.45.36h0c-.17.28-.62.16-.72.53l.05-.06a.81.81,0,0,0-.49.38l0,0a4.7,4.7,0,0,1-.44.34l0,0c-.16.29-.58.19-.73.5a12.58,12.58,0,0,1-1.07.86A82,82,0,0,1,119,101a7.33,7.33,0,0,1-1,.24C117.76,101.42,117.4,101.35,117.16,101.57Z"/><path class="cls-28" d="M111.55,101.22a3,3,0,0,1-.67,1.38c-.2.33-.41.7,0,1.05a13.39,13.39,0,0,1-3.54,1.12c-2.92.79-5.89,1.38-8.87,1.91-.64.11-1.3.11-2,.16-.81.41-1.75-.13-2.54.37l-.14.07-.16,0c-1.06.47-2.24-.16-3.3.37l-.63,0a6.59,6.59,0,0,1-2.34.14c-.41,0-1,.22-1-.51a1.15,1.15,0,0,1,.78-1c.77-.38,1.72,0,2.44-.64h0c.89-.51,1.92.12,2.81-.38l.79,0c.88-.52,1.93.14,2.81-.4a15.33,15.33,0,0,1,3.67-.74c3-.57,5.94-1.22,8.87-2C109.51,101.74,110.53,101.48,111.55,101.22Z"/><path class="cls-29" d="M89.55,105.59a1.41,1.41,0,0,1-.87.75c-.38.09-.77.17-1.14.29s-.75.26-.73.58c0,.57.59.35.93.37.66,0,1.32,0,2,.06a4.8,4.8,0,0,1-1,.26,107.05,107.05,0,0,1-13.64.25c-.4,0-.79-.1-1.18-.15-.59-.61-1.39-.3-2.08-.46-.2,0-.4-.11-.4-.36a.53.53,0,0,1,.15-.34,2.65,2.65,0,0,1,1.95-.84c.67,0,1.33,0,2,0H80.9a32.22,32.22,0,0,0,3.53-.25C86.12,105.53,87.84,105.62,89.55,105.59Z"/><path class="cls-30" d="M140.82,88.05a4.36,4.36,0,0,0-2.08-.86,2.7,2.7,0,0,1,.22-.33l4.19-3.66c.12-.15.27-.26.4-.4h0l.4-.4h0c.12-.14.26-.27.39-.4h0c.13-.14.27-.27.4-.4h0l.4-.4h0c.13-.14.28-.26.4-.4h0a2.78,2.78,0,0,1,.58,0c.71.18.77.29.67,1.12,0,.13,0,.25-.06.38l0,0a1.34,1.34,0,0,1-.36.39v0c-.12.14-.25.28-.38.41h0c-.13.14-.27.26-.39.41h0a3.28,3.28,0,0,0-.4.43A21,21,0,0,1,140.82,88.05Z"/><path class="cls-29" d="M96,104.79a1.4,1.4,0,0,1-1.06.4H93.14C94,104.55,95,104.88,96,104.79Z"/><path class="cls-29" d="M92.35,105.21a1.46,1.46,0,0,1-1.07.38H89.54C90.41,105,91.41,105.29,92.35,105.21Z"/><path class="cls-19" d="M62.36,104.79c-.69,0-1.42.18-2-.39C61,104.44,61.77,104.24,62.36,104.79Z"/><path class="cls-10" d="M155.55,63.6a1,1,0,0,1-.39.8A1,1,0,0,1,155.55,63.6Z"/><path class="cls-28" d="M117.55,99.18a1,1,0,0,1-.85.39A1.23,1.23,0,0,1,117.55,99.18Z"/><path class="cls-28" d="M116.35,99.6a1,1,0,0,1-.84.38A1.12,1.12,0,0,1,116.35,99.6Z"/><path class="cls-28" d="M115.15,100a1,1,0,0,1-.83.38A1.07,1.07,0,0,1,115.15,100Z"/><path class="cls-28" d="M113.94,100.42a1,1,0,0,1-.81.37A1,1,0,0,1,113.94,100.42Z"/><path class="cls-28" d="M112.74,100.82a1,1,0,0,1-.82.37A1.05,1.05,0,0,1,112.74,100.82Z"/><path class="cls-10" d="M155.15,64.79a1,1,0,0,1-.4.81A1.08,1.08,0,0,1,155.15,64.79Z"/><path class="cls-26" d="M151.16,73.2a1,1,0,0,1-.42.79A1,1,0,0,1,151.16,73.2Z"/><path class="cls-30" d="M138.34,87.58a1,1,0,0,1-.76.43A1,1,0,0,1,138.34,87.58Z"/><path class="cls-30" d="M136.74,88.78a1,1,0,0,1-.76.43A1,1,0,0,1,136.74,88.78Z"/><path class="cls-10" d="M154.75,66l-.39.41Z"/><path class="cls-26" d="M150.75,74l-.39.41Z"/><path class="cls-25" d="M145.55,80.8c-.13.13-.27.26-.4.4Z"/><path class="cls-25" d="M145.15,81.2l-.4.4Z"/><path class="cls-25" d="M144.75,81.6l-.4.4Z"/><path class="cls-25" d="M144.35,82l-.4.4Z"/><path class="cls-25" d="M144,82.4l-.4.4Z"/><path class="cls-25" d="M143.55,82.8l-.4.4Z"/><path class="cls-30" d="M138.75,87.19l-.42.4Z"/><path class="cls-30" d="M137.56,88l-.41.37Z"/><path class="cls-30" d="M137.15,88.4l-.42.39Z"/><path class="cls-30" d="M136,89.22l-.41.38Z"/><path class="cls-30" d="M135.55,89.59l-.44.39Z"/><path class="cls-29" d="M90.35,107.6a1.42,1.42,0,0,1,1-.39l2.27,0A7.39,7.39,0,0,1,90.35,107.6Z"/><path class="cls-29" d="M94,107.21c.77-.66,1.67-.36,2.54-.37A4.72,4.72,0,0,1,94,107.21Z"/><path class="cls-30" d="M138.79,89.69a1.18,1.18,0,0,1,1.15-.9A2,2,0,0,1,138.79,89.69Z"/><path class="cls-28" d="M113.55,102.81a1.31,1.31,0,0,1,1.21-.4A1.49,1.49,0,0,1,113.55,102.81Z"/><path class="cls-28" d="M112.35,103.2a1.33,1.33,0,0,1,1.21-.39A1.45,1.45,0,0,1,112.35,103.2Z"/><path class="cls-30" d="M137.2,90.91a.8.8,0,0,1,.72-.53A.94.94,0,0,1,137.2,90.91Z"/><path class="cls-30" d="M135.57,92.07a.92.92,0,0,1,.73-.5A.92.92,0,0,1,135.57,92.07Z"/><path class="cls-28" d="M117.16,101.57a1,1,0,0,1,.86-.35A.93.93,0,0,1,117.16,101.57Z"/><path class="cls-28" d="M116,102a1,1,0,0,1,.94-.34A1,1,0,0,1,116,102Z"/><path class="cls-28" d="M114.75,102.41a1.06,1.06,0,0,1,1-.35A1.1,1.1,0,0,1,114.75,102.41Z"/><path class="cls-28" d="M111.16,103.58a1.06,1.06,0,0,1,1-.32A1.06,1.06,0,0,1,111.16,103.58Z"/><path class="cls-25" d="M146.34,82.77l.36-.39A.41.41,0,0,1,146.34,82.77Z"/><path class="cls-25" d="M146,83.2l.38-.41A.48.48,0,0,1,146,83.2Z"/><path class="cls-25" d="M145.56,83.61l.39-.41A.48.48,0,0,1,145.56,83.61Z"/><path class="cls-25" d="M145.16,84l.4-.43A.5.5,0,0,1,145.16,84Z"/><path class="cls-30" d="M140.36,88.43l.47-.4A.52.52,0,0,1,140.36,88.43Z"/><path class="cls-30" d="M140,88.79l.44-.38A.49.49,0,0,1,140,88.79Z"/><path class="cls-30" d="M138.36,90l.48-.39A.52.52,0,0,1,138.36,90Z"/><path class="cls-30" d="M137.94,90.37l.45-.36A.48.48,0,0,1,137.94,90.37Z"/><path class="cls-30" d="M136.76,91.23l.49-.38A.53.53,0,0,1,136.76,91.23Z"/><path class="cls-30" d="M136.34,91.55l.44-.34A.46.46,0,0,1,136.34,91.55Z"/></g></g></svg>