<svg xmlns="http://www.w3.org/2000/svg" viewBox="0 0 159.61 91.09"><defs><style>.cls-1{fill:#4d4d4d;}.cls-2{fill:#cfcfcf;}.cls-3{fill:#464646;}.cls-4{fill:#3b3b3b;}.cls-5{fill:#cdcdcd;}.cls-6{fill:#4a4a4a;}.cls-7{fill:#2f2f2f;}.cls-8{fill:#303030;}.cls-9{fill:#3c3c3c;}.cls-10{fill:#2c2c2c;}.cls-11{fill:#c6c6c6;}.cls-12{fill:#1f1f1f;}.cls-13{fill:#252525;}.cls-14{fill:#b6b6b6;}.cls-15{fill:#424242;}.cls-16{fill:#3f3f3f;}.cls-17{fill:#242424;}.cls-18{fill:#bdbdbd;}</style></defs><g id="Слой_2" data-name="Слой 2"><g id="Слой_1-2" data-name="Слой 1"><path class="cls-1" d="M7.17,44a40.22,40.22,0,0,1,1-5.89q2.51-13.44,5.08-26.87c.26-1.37.52-2.75.79-4.11A10.82,10.82,0,0,1,15.2,4,6.92,6.92,0,0,1,18.69.84c.31-.12.61-.27.91-.4a4,4,0,0,1,2.15-.2H138.64a4.29,4.29,0,0,1,2.16.19.18.18,0,0,0,.24,0,.56.56,0,0,0,.31.17,2,2,0,0,1,.35,0,.73.73,0,0,1,.3.19h0a3.25,3.25,0,0,1,.35.39,5.77,5.77,0,0,0,1.21,1.35,2,2,0,0,1,.34.37,4.77,4.77,0,0,1,.34.63,2.32,2.32,0,0,1,.22.41c.11.2.2.42.32.62a3,3,0,0,1,.21.45,2.17,2.17,0,0,1,.24,1.06,1.26,1.26,0,0,1-.4.8c-.86.46-1.49-.08-2.21-.44-1.77-.91-3.34-2.14-5.2-2.94C133.93,2,130.48,3,127,3.33c-7.07.77-14.13,1.57-21.24,2-5.08.3-10.2.23-15.2,1.86-3.68,1.2-6.27,3.66-9.08,6-4.9,4-9.79,8.14-15.74,10.48C58.44,26.49,51.05,29.2,43.16,30a45.07,45.07,0,0,0-4.92.82c-7.17,1.59-14.5,1.92-21.77,2.73a12.36,12.36,0,0,1-3.37-.27c-1.56-.24-2.51.27-2.79,2-.4,2.42-.54,4.91-1.59,7.19C8.4,43.2,8.25,44.1,7.17,44Z"/><path class="cls-2" d="M140.8.43,105.06.4Q65.93.39,26.78.4c-2.39,0-4.79,0-7.18,0A1.52,1.52,0,0,1,20.69,0h68.1L110,0q14.28,0,28.55,0C139.28,0,140.12-.18,140.8.43Z"/><path class="cls-3" d="M4.77,56.74a.27.27,0,0,1,0-.32c.4-.49,0-1.14.35-1.64l0,0c1.25.15,1.23,1.16,1.12,2a110.5,110.5,0,0,1-1.9,11,1.59,1.59,0,0,1-.92,1.22c-.92-.21-.8-1-1-1.67.22-.51,0-1.13.34-1.62a.15.15,0,0,0,0-.24c.32-.54,0-1.22.35-1.75a.21.21,0,0,0,.05-.28c.41-.65-.14-1.49.4-2.11.53-.87.28-2,.78-2.82C4.8,57.91,4.41,57.25,4.77,56.74Z"/><path class="cls-4" d="M146.74,10.08a.29.29,0,0,0,.06.35l0,1.21c-.42.32.19,1.15-.64,1.27-1.61-1.93-1.6-4.18-1.33-6.49l0-.8c-.24-.21-.15-.58-.39-.79h0c-.24-.22-.16-.59-.4-.8s-.16-.59-.4-.8h0c-.15-.34.06-.49.33-.59a.51.51,0,0,1,.46.22v0a.81.81,0,0,1,.38.49l-.06-.07c.37.15.29.56.48.82l0,0c.31.2.25.58.41.86l0-.06c.49.31.14.92.44,1.29a.26.26,0,0,0,.07.31c.37.49,0,1.16.35,1.65a.29.29,0,0,0,.05.34c.37.5,0,1.15.33,1.65Z"/><path class="cls-2" d="M144.38,2.86l-.32-.07c-.48-.15-.94-.33-1-.95,0-.09.09-.17.14-.26A1.25,1.25,0,0,1,144.38,2.86Z"/><path class="cls-2" d="M3.64,61.24a3.73,3.73,0,0,1-.4,2.1l-.06-.92A1.36,1.36,0,0,1,3.64,61.24Z"/><path class="cls-5" d="M2.38,67.62c0-.27,0-.53,0-.79a1.59,1.59,0,0,1,.45-1.21l0,1.6a.32.32,0,0,1,.16.28q0,.18-.06.18l-.26.07Z"/><path class="cls-2" d="M3.19,63.63a2.68,2.68,0,0,1-.35,1.75C2.82,64.77,2.69,64.14,3.19,63.63Z"/><path class="cls-2" d="M146.38,8.09A2.8,2.8,0,0,1,146,6.44C146.5,6.91,146.38,7.52,146.38,8.09Z"/><path class="cls-2" d="M146.76,10.08a2.28,2.28,0,0,1-.33-1.65C146.9,8.91,146.79,9.5,146.76,10.08Z"/><path class="cls-2" d="M146,6.13a2,2,0,0,1-.44-1.29C146,5.16,146,5.64,146,6.13Z"/><path class="cls-2" d="M142,.84l-.78,0h0L141,.48A1.06,1.06,0,0,1,142,.84Z"/><path class="cls-2" d="M142.11,1.16,142,.83a1.11,1.11,0,0,1,.83.39l-.24.15A.49.49,0,0,1,142.11,1.16Z"/><path class="cls-2" d="M145.17,4.08a1.06,1.06,0,0,1-.48-.82A.84.84,0,0,1,145.17,4.08Z"/><path class="cls-2" d="M145.55,4.9a1,1,0,0,1-.41-.86A.88.88,0,0,1,145.55,4.9Z"/><path class="cls-2" d="M.4,72l-.4.4Z"/><path class="cls-2" d="M142.82,1.22l.42.36,0,0c-.34.14-.45,0-.45-.34Z"/><path class="cls-2" d="M144.75,3.33a.56.56,0,0,1-.38-.49Z"/><path class="cls-6" d="M144.81,6.42a1.59,1.59,0,0,1,.38.89c.29,1.68.59,3.35.9,5a1.81,1.81,0,0,0,.29.5,1.21,1.21,0,0,1,.61.95c.06.38.24.73.34,1.11s0,1,.13,1.46a8.37,8.37,0,0,1,.32,1.19c1.2,6.28,2.23,12.6,3.55,18.85.44,3.39,1.4,6.68,1.67,10.1a6.52,6.52,0,0,0,.31,1.57,2,2,0,0,1-.18,1.25c-1.5,1-2.09-.27-2.53-1.18a37,37,0,0,1-3-8.23c-1.15-5.25-2-10.61-4.84-15.35-1.26-2.12-2.59-4.19-4.89-5.39a3.3,3.3,0,0,0-2.27-.46,55.82,55.82,0,0,0-16.82,5.54c-5.93,3.28-11.68,7-15.33,13.06a38,38,0,0,1-4.39,5.17,5.36,5.36,0,0,1-2.4,1.38C84,48.3,70.79,50.61,57.52,52.41c-2.05.28-4.07.68-6.11,1A10.41,10.41,0,0,0,47,55.18c-3.47,2.36-7.34,4-10.92,6.24a6,6,0,0,0-2.61,2.36,2,2,0,0,1-.75.93c-2.86,1.56-4.18,4.47-5.67,7-1.86,3.2-3.68,6.55-4.29,10.34-.12.79-.25,1.6-1.1,2-4.64.33-9.28,0-13.92.18C5,84.42,3.21,82.94,1.9,80.69a8.78,8.78,0,0,0-.33-.85,2.7,2.7,0,0,1-.14-.56,8.19,8.19,0,0,0-.21-1.39A3,3,0,0,1,1.28,77c.43-1.18.31-2.46.71-3.64.06-.37.2-.73.23-1.11a5.9,5.9,0,0,0,.2-1.39,13.42,13.42,0,0,0,.25-1.41,1,1,0,0,1,.53-.66c.69-.83.48-1.9.68-2.85.65-3.1,1.14-6.23,1.66-9.35a1.94,1.94,0,0,0-.4-1.87,44.4,44.4,0,0,1,1.07-6.27,23.48,23.48,0,0,1,1-4.46,1.6,1.6,0,0,0,.36-.47,24.13,24.13,0,0,0,1.7-6.91,13.63,13.63,0,0,1,.51-2.74,1.65,1.65,0,0,1,1.84-1.47,8.33,8.33,0,0,1,2.58.22,6.27,6.27,0,0,0,3.16,0,9.76,9.76,0,0,1,2.57-.26,7,7,0,0,0,2.37-.27,3,3,0,0,1,1-.12,31.8,31.8,0,0,0,6.52-.75,1.72,1.72,0,0,1,.39,0c3,.12,5.9-.94,8.85-1.37,1.57-.23,3.13-.52,4.72-.7a37.14,37.14,0,0,0,7.79-1.58c2.84-.94,5.66-2,8.55-2.69,3.61-.9,6.81-2.68,10-4.39A36.87,36.87,0,0,0,75,17.16c2.54-1.93,5-3.91,7.51-5.92,1-.79,1.89-1.67,2.85-2.49a10.4,10.4,0,0,1,3.68-1.89c.88-.3,1.78-.53,2.67-.82a24.29,24.29,0,0,1,4.06-.89A45.64,45.64,0,0,1,102,4.83a3.43,3.43,0,0,0,.79,0,20.78,20.78,0,0,1,5.56-.36,7.63,7.63,0,0,0,2.18-.22,3.18,3.18,0,0,1,1.18-.16,27.63,27.63,0,0,0,5.75-.48c2.7-.3,5.42-.48,8.11-.79,2.24-.25,4.46-.66,6.69-1a4.27,4.27,0,0,1,2.35.15,2.47,2.47,0,0,0,.57.17c2.89.31,5.12,2.1,7.56,3.4a9,9,0,0,1,1.22,1A.59.59,0,0,0,144.81,6.42Z"/><path class="cls-6" d="M4.77,56.74c0,.59.13,1.19-.35,1.68A2.43,2.43,0,0,1,4.77,56.74Z"/><path class="cls-6" d="M5.16,54.78c0,.58.14,1.17-.35,1.64A2.17,2.17,0,0,1,5.16,54.78Z"/><path class="cls-6" d="M142.76,1.28a.5.5,0,0,0,.45.34l.85,1.17-.47.44A6,6,0,0,1,142,1.82a.42.42,0,0,1,.07-.66Z"/><path class="cls-6" d="M143.6,3.23a1,1,0,0,1,.4.8A1,1,0,0,1,143.6,3.23Z"/><path class="cls-6" d="M144,4a1,1,0,0,1,.4.8A1,1,0,0,1,144,4Z"/><path class="cls-6" d="M144.4,4.83a1,1,0,0,1,.39.79A1,1,0,0,1,144.4,4.83Z"/><polygon class="cls-6" points="141.22 0.81 141.11 0.92 141.22 0.81 141.22 0.81"/><path class="cls-7" d="M3.24,84.25c-.56-1-1.5-1.7-1.7-2.88-.13-.31-.09-.68-.35-.94h0a12.65,12.65,0,0,1,0-4.55.19.19,0,0,1,0-.27c1.08.3.57,1,.41,1.61V78c.37.32,0,.87.39,1.2,0,.13,0,.26,0,.39s.26.27.38.42a6,6,0,0,0,4.82,3.6,94.88,94.88,0,0,0,15.45-.13c.6-.06,1.2-.08,1.79-.08H60.92a4.8,4.8,0,0,1,2.34.31c.83,1.46,2.23,1.44,3.65,1.44q16.23,0,32.47,0a27,27,0,0,1,3,.06c9.45-.12,18.9.19,28.34-.14,6.64-.22,13.28-.12,19.92-.5a36.16,36.16,0,0,0,5.24-.92c1.2.49.59,1.11,0,1.56a10.39,10.39,0,0,1-2.4,1.27,8.8,8.8,0,0,0-1.89.44A3.68,3.68,0,0,1,151,87c-.58,0-1.15,0-1.72,0H8.27l-1,0A5.72,5.72,0,0,1,3.24,84.25Z"/><path class="cls-8" d="M147.15,13.62l.1.69a10.06,10.06,0,0,1,.44,1.54c.15.32,0,.72.29,1v0a1.49,1.49,0,0,1,.32.54,16.39,16.39,0,0,1,1.23,4.28c.17,2.81,1.23,5.46,1.53,8.25-.11,1.25.46,2.45.35,3.71a7.12,7.12,0,0,0,.19,1.45,1.87,1.87,0,0,1-.05.58,1.16,1.16,0,0,1-.77.82,1.08,1.08,0,0,1-.2-.34c-.46-2.33-.92-4.66-1.35-7-.48-2.6-.93-5.2-1.38-7.8-.24-1.36-.44-2.73-.66-4.1-.22-.23-.13-.59-.36-.82,0-.52,0-1.05,0-1.58-.22-.23-.13-.6-.37-.82l0-1.18a1.52,1.52,0,0,1,.4-1.2l.09.61C147.05,12.69,146.89,13.2,147.15,13.62Z"/><path class="cls-4" d="M1.6,77.23c0-.56.09-1.16-.41-1.61a5.09,5.09,0,0,1,.42-2.4c.4-.5,0-1.17.35-1.7a.24.24,0,0,1,0-.29c.38-.5.12-1.07.2-1.6a2,2,0,0,1,.09-.55,4.56,4.56,0,0,1,.45-1.61.18.18,0,0,1,0-.25c.51.44.4,1,.42,1.61v.79c-.38.33,0,.88-.4,1.21v1.59c-.25.21-.15.6-.39.81A12.5,12.5,0,0,1,1.6,77.23Z"/><path class="cls-4" d="M1.15,75.89l0,4.55a1.3,1.3,0,0,0-.31-.16C.82,79.5.72,78.73.73,78A3.47,3.47,0,0,1,1.15,75.89Z"/><path class="cls-3" d="M2.34,69.52A1.85,1.85,0,0,1,2,71.23c0-.53,0-1,0-1.57H2C2.07,69.5,2.18,69.44,2.34,69.52Z"/><path class="cls-3" d="M2,71.52a1.92,1.92,0,0,1-.35,1.7A2.43,2.43,0,0,1,2,71.52Z"/><path class="cls-4" d="M147.15,13.62a1.48,1.48,0,0,1-.28-1.37l.36.58C147.21,13.09,147.18,13.36,147.15,13.62Z"/><path class="cls-5" d="M2.34,69.52,2,69.67c0-.7-.2-1.44.35-2l0,0a1.54,1.54,0,0,1,0,1.58A.24.24,0,0,0,2.34,69.52Z"/><path class="cls-3" d="M2.39,69.23l0-1.58a2,2,0,0,1,.32-.18A1.9,1.9,0,0,1,2.39,69.23Z"/><path class="cls-3" d="M22,83.63v-2a2.15,2.15,0,0,1,.37-1.33,4.39,4.39,0,0,0,.85-2.81,2.45,2.45,0,0,1,1.13-2.22,2.61,2.61,0,0,0,1.23-2.37,2.59,2.59,0,0,1,1-2.07,5.87,5.87,0,0,0,2-3.16A2.65,2.65,0,0,1,29.87,66c.5-.32.95-.73,1.46-1a3.87,3.87,0,0,0,1.93-2.42,1.53,1.53,0,0,1,1-1c2.95-1.4,5.62-3.31,8.57-4.73A32.23,32.23,0,0,0,47.37,54a6,6,0,0,1,2.52-1.12c2.68-.43,5.35-1,8.06-1.29s5.11-.82,7.67-1.24c1.37-.23,2.74-.47,4.12-.69,2.23-.35,4.45-.73,6.69-1a71.21,71.21,0,0,0,9.66-2.46c3.53-1,7-2.06,10.54-3.09a3.16,3.16,0,0,0,2.23-1.53,2.7,2.7,0,0,1,.61-.78c2.16-1.93,3.62-4.41,5.33-6.7a23.14,23.14,0,0,1,4.78-4.8c2.4-1.78,5-3.24,7.4-5.09a2.8,2.8,0,0,1,.7-.39A46,46,0,0,1,124.49,21a9.25,9.25,0,0,0,1.71-.56,26.86,26.86,0,0,1,6.5-1.87,13.75,13.75,0,0,0,2.71-.66,2.81,2.81,0,0,1,2.47.29A12.66,12.66,0,0,1,143,23.35a27.7,27.7,0,0,1,3,6.51c.22.77.31,1.57.54,2.33,1,3.13,1.58,6.32,2.28,9.51.51,2.29,1.78,4.3,2.54,6.5a2,2,0,0,0,1.08,1.12c.09,0,.24-.07.37-.11.85-.05.87.63,1,1.18a25.4,25.4,0,0,1,.8,4.82,8.86,8.86,0,0,0,.29,1.26,2,2,0,0,1-.18,1.25c-1.51,1.08-2-.36-2.57-1.18-1.63-2.44-2.58-5.25-3.93-7.85-2-4-4.67-7.61-6.47-11.71-.51-1.16-1.34-1.1-2.3-.59a34.61,34.61,0,0,0-6.1,4.51,20.94,20.94,0,0,1-5.47,3.22C112.78,50.75,96.76,54.2,80.72,57.6a122.79,122.79,0,0,0-15.54,4.51c-2.94,1-5.38,3.17-8.05,4.79a50.86,50.86,0,0,1-6.26,3.55C46,72.52,43.29,76.81,40.13,80.64a3.79,3.79,0,0,0-.58,1.69c-.15.71-.3,1.49-1.3,1.5H23.94A3.56,3.56,0,0,1,22,83.63Z"/><path class="cls-9" d="M22,83.63H38.8a2.52,2.52,0,0,1,2-.81c5.09,0,10.19-.16,15.28.08,3.59-.16,7.18-.08,10.78-.08,1.33,0,2.35-.18,2.49-1.83a3,3,0,0,1,1.52-2.25A61.58,61.58,0,0,1,77.17,75c2.66-1.3,5.6-1,8.42-1.31,7.41-.69,14.84-1.22,22.26-1.51,7.07-.28,14-1.38,21-2.19,5.16-.6,10.17-2,15.21-3.26,2.77-.67,4.93-.47,7,1.81a34.34,34.34,0,0,0,5.73,5.16c.62.13.93-.73,1.59-.5,1.1,1,1,2.32,1,3.61-.62,2-.87,4.07-2.48,5.56a5.73,5.73,0,0,1-4.63,1.89q-36.14,0-72.25,0a20.17,20.17,0,0,0-5.53.59c-2.91.13-5.82.07-8.73.07A3,3,0,0,1,63.2,84H9.7c-.84,0-1.75.23-2.5-.38Z"/><path class="cls-10" d="M154,55.62a24.12,24.12,0,0,0-1.2-6.41c0-.4,0-.79,0-1.19-.33-.34,0-.88-.37-1.2-.06-.66-.09-1.32-.21-2-.42-2.33-.89-4.66-1.33-7a12.62,12.62,0,0,1-.09-1.38,1.21,1.21,0,0,1,.41-.84c1.33.61,1.32,2,1.5,3.07,1.26,7.43,2.64,14.83,4,22.24.59,3.26,1.38,6.48,1.76,9.78,0,.53,0,1.06,0,1.59a1.31,1.31,0,0,1-.23.56,1.27,1.27,0,0,1-.57.21,1,1,0,0,1-.56-.21,2.42,2.42,0,0,1-.54-1.07c-.12-.38-.21-.76-.3-1.15-.24-1.36-.53-2.71-.71-4.09a9.62,9.62,0,0,0-.13-1.19,8,8,0,0,1-.38-1.17c-.2-2.19-1.19-4.32-.54-6.57l0-1.21C154.15,56.19,154.25,55.83,154,55.62Z"/><path class="cls-3" d="M2.8,70.83a1.42,1.42,0,0,1,.4-1.21A1.39,1.39,0,0,1,2.8,70.83Z"/><path class="cls-4" d="M2,79.23A1.38,1.38,0,0,1,1.6,78,1.37,1.37,0,0,1,2,79.23Z"/><path class="cls-3" d="M152.4,46.82a1.36,1.36,0,0,1,.37,1.2A1.47,1.47,0,0,1,152.4,46.82Z"/><path class="cls-4" d="M146.41,14a1.05,1.05,0,0,1,.37.82A1.06,1.06,0,0,1,146.41,14Z"/><path class="cls-4" d="M146.82,16.42a1.08,1.08,0,0,1,.36.82A1.06,1.06,0,0,1,146.82,16.42Z"/><path class="cls-3" d="M2.41,73.23a1,1,0,0,1,.39-.81A1.1,1.1,0,0,1,2.41,73.23Z"/><path class="cls-4" d="M2.38,80,2,79.62Z"/><path class="cls-11" d="M148,16.86l-.39-.83a1,1,0,0,1,0-1.2,1.12,1.12,0,0,1,.41.79C148,16,148,16.45,148,16.86Z"/><path class="cls-4" d="M1.19,80.43a1,1,0,0,1,.35.94A1,1,0,0,1,1.19,80.43Z"/><path class="cls-11" d="M148.4,17.23H148l-.05-.39Z"/><path class="cls-12" d="M152.8,83.64a6.45,6.45,0,0,0,5.28-4.75,5.27,5.27,0,0,1,.67-2c1.85,2.56.55,6.63-2.31,7.2a23,23,0,0,1-8.4,1.19,8.83,8.83,0,0,0-2.17.21,9.36,9.36,0,0,1-2,.18c-2.13,0-4.25,0-6.38,0a16.62,16.62,0,0,0-4.56.31,3.62,3.62,0,0,1-1,0l-29.52,0c-.42-.93-.44-1.73.72-2.13,15.83,0,31.66,0,47.49,0A4.36,4.36,0,0,0,152.8,83.64Z"/><path class="cls-13" d="M102.81,84a3.77,3.77,0,0,1-.37,1.93c-.47,0-.93,0-1.4,0h-36c-1.37,0-2,.06-1.86-2H74.4a2.25,2.25,0,0,1,1.35-.19h25.71A2.06,2.06,0,0,1,102.81,84Z"/><path class="cls-14" d="M153.2,86c-.51.51-1.15.37-1.77.35A3.11,3.11,0,0,1,153.2,86Z"/><path class="cls-14" d="M151.21,86.39c-.43.53-1,.42-1.61.44v-.42A3.5,3.5,0,0,1,151.21,86.39Z"/><path class="cls-4" d="M147.61,14.83l0,1.2a1.94,1.94,0,0,1-.34-1.72Z"/><path class="cls-6" d="M150.88,33.9a1.74,1.74,0,0,1,.29,1.33A1.41,1.41,0,0,1,150.88,33.9Z"/><path class="cls-15" d="M154.4,57.63c.65.71.38,1.65.58,2.47a13.7,13.7,0,0,1,.63,4.32c.24.21.14.58.36.8,0,.4,0,.8,0,1.21-.76.51-1.25,0-1.74-.46a4.71,4.71,0,0,1-1.2-1.58c-1.53-3.65-4.52-6.23-6.74-9.36a3.55,3.55,0,0,0-4.43-1.51c-9.21,2.67-18.41,5.34-27.65,7.91-4.49,1.25-9.15,1.67-13.73,2.53-7,1.33-14,2.36-21,3.77a21.94,21.94,0,0,0-8.34,3.69,13.08,13.08,0,0,1-2.37,1.49c-4.06,1.7-7.09,4.92-10.72,7.24a1.81,1.81,0,0,0-.85,1.5,2.75,2.75,0,0,1-.82,2H38.8c0-.53,0-1.06,0-1.59a3.06,3.06,0,0,1,.71-2c.88-1.08,1.82-2.11,2.71-3.19a49,49,0,0,1,3.87-4.28,8.46,8.46,0,0,1,2.41-1.75A90.21,90.21,0,0,0,60.25,64c1.12-.72,2.26-1.4,3.37-2.13a8.63,8.63,0,0,1,2.21-.9c3.7-1.11,7.4-2.22,11.1-3.3.82-.24,1.68-.4,2.52-.58,2.34-.5,4.71-.89,7-1.5,3.54-.94,7.17-1.45,10.68-2.5a38.41,38.41,0,0,1,4.88-1,16.75,16.75,0,0,0,2.31-.62,47.17,47.17,0,0,1,6.91-1.92,2.9,2.9,0,0,0,.57-.18c3.26-1.33,6.75-2,9.88-3.73a28.3,28.3,0,0,1,3.71-1.46c1.37-.52,2.76-1,4.12-1.53a5.58,5.58,0,0,0,2.21-1.33c1.52-1.7,3.54-2.79,5.23-4.3a12.17,12.17,0,0,1,3.29-1.88c.91-.39,1.31-.27,1.79.63.66,1.23,1.27,2.49,1.89,3.74a28.11,28.11,0,0,0,3,5.18,10.57,10.57,0,0,1,1.22,2c1.3,2.69,2.57,5.4,3.86,8.1a13.47,13.47,0,0,0,1.71,2.69A.45.45,0,0,0,154.4,57.63Z"/><path class="cls-15" d="M154,55.62a1,1,0,0,1,.35.8A1,1,0,0,1,154,55.62Z"/><path class="cls-16" d="M56.4,83.62c0-.86,0-1.73,0-2.59a1.62,1.62,0,0,1,.89-1.45c.86-.5,1.69-1.06,2.54-1.58A9.58,9.58,0,0,0,62,76.24a8.5,8.5,0,0,1,2.54-1.9c1.66-.83,3.28-1.75,4.92-2.65a2.42,2.42,0,0,0,.66-.43c1.39-1.43,3.25-2,5-2.88A23.39,23.39,0,0,1,82,66.46c4-.7,8.11-1.36,12.16-2.07,2.35-.42,4.69-.91,7-1.34,1.95-.36,3.92-.68,5.88-1,1-.18,2.1-.32,3.13-.56a8.9,8.9,0,0,1,1.77-.26,3.69,3.69,0,0,0,1-.13c3-.88,6-1.8,9-2.68,2.43-.71,4.87-1.37,7.3-2.06,3.13-.89,6.25-1.81,9.38-2.71,1.73-.49,3.46-1,5.18-1.46a1.25,1.25,0,0,1,1.29.31,12,12,0,0,1,2.16,2.34A14.36,14.36,0,0,0,150,58.2a9.29,9.29,0,0,1,2.4,3.38,18,18,0,0,0,2.79,4.36,1.38,1.38,0,0,0,.84.49,13.41,13.41,0,0,1,.79,4.39c.25.21.15.58.37.8l0,1.21c.38.31.4.8.56,1.22a.85.85,0,0,1-.15.77,4.26,4.26,0,0,1-3.36-2.21,2.38,2.38,0,0,0-.84-.83c-1.29-.75-2.09-2-3.35-2.83-.48-.3-.74-.92-1.13-1.38a1.84,1.84,0,0,0-2-.61c-2.52.61-5,1.17-7.57,1.73-3.12.69-6.23,1.37-9.35,2-1.1.23-2.23.15-3.36.4-1.48.32-3,.33-4.54.52s-3.14.49-4.72.62a52.63,52.63,0,0,1-5.74.58,23,23,0,0,0-5.36.32,16.14,16.14,0,0,1-3.19.07,7.43,7.43,0,0,0-2.57.26,1.47,1.47,0,0,1-.59.1,63.34,63.34,0,0,0-7.15.41c-1.58.17-3.18-.06-4.76.37a8.21,8.21,0,0,1-2,.06,9,9,0,0,0-2.18.21,7,7,0,0,1-1.77.18,10.28,10.28,0,0,0-6.21,1.79c-1.54,1-3.17,2-4.8,2.85A1.89,1.89,0,0,0,70,81.39c.11,2.38-.33,2.24-2.42,2.24Z"/><path class="cls-7" d="M102.81,84,74.4,84a1.45,1.45,0,0,1,.9-.37c.4,0,.8,0,1.2,0h76.3a1.57,1.57,0,0,1-1.1.38H102.81Z"/><path class="cls-17" d="M157.61,74.82l0-.8a1,1,0,0,1,0-1.19h.4a.34.34,0,0,1,.07.32C157.91,73.71,158.12,74.36,157.61,74.82Z"/><path class="cls-9" d="M157.58,72.83V74a1.41,1.41,0,0,1-.38-1.19Z"/><path class="cls-9" d="M157.67,71.07a1.8,1.8,0,0,1,.29,1.35A1.41,1.41,0,0,1,157.67,71.07Z"/><path class="cls-16" d="M156,65.22a1,1,0,0,1-.36-.8A1,1,0,0,1,156,65.22Z"/><path class="cls-9" d="M157.17,71.62a1.06,1.06,0,0,1-.37-.8A1,1,0,0,1,157.17,71.62Z"/><path class="cls-18" d="M104,90.83h.8C104.53,91.17,104.27,91.17,104,90.83Z"/></g></g></svg>