<svg xmlns="http://www.w3.org/2000/svg" viewBox="0 0 569.03 574.24"><defs><style>.cls-1{fill:#dcdad5;}.cls-2{fill:#da6336;}.cls-3{fill:#ff8051;}.cls-4{fill:#ff7340;}.cls-5{fill:#db6437;}.cls-6{fill:#dc6437;}.cls-7{fill:#ef6c3c;}.cls-8{fill:#e16638;}.cls-9{fill:#e06f47;}.cls-10{fill:#f8703f;}.cls-11{fill:#da6c46;}.cls-12{fill:#f77c4e;}.cls-13{fill:#e96a3c;}.cls-14{fill:#e17048;}.cls-15{fill:#df6f48;}.cls-16{fill:#fefefe;}.cls-17{fill:#fdfdfd;}.cls-18{fill:#eae8e3;}.cls-19{fill:#e3e1dc;}.cls-20{fill:#f26d3d;}.cls-21{fill:#e9e7e2;}.cls-22{fill:#e07048;}.cls-23{fill:#f16d3d;}.cls-24{fill:#e06638;}.cls-25{fill:#da6337;}.cls-26{fill:#dd6d47;}.cls-27{fill:#e7693b;}.cls-28{fill:#de6e47;}.cls-29{fill:#f1784b;}.cls-30{fill:#e47249;}.cls-31{fill:#eb774c;}.cls-32{fill:#ee784c;}.cls-33{fill:#e8693a;}.cls-34{fill:#e8744a;}.cls-35{fill:#ff7a4a;}.cls-36{fill:#ef784c;}.cls-37{fill:#f9703f;}.cls-38{fill:#ea6a3b;}.cls-39{fill:#ec7549;}.cls-40{fill:#ff8052;}.cls-41{fill:#f76f3e;}.cls-42{fill:#f77648;}.cls-43{fill:#f36d3d;}.cls-44{fill:#f2efea;}.cls-45{fill:#6f8f23;}.cls-46{fill:#636d4f;}.cls-47{fill:#5c6844;}.cls-48{fill:#ea754a;}.cls-49{fill:#ee6c3c;}.cls-50{fill:#ff8153;}.cls-51{fill:#ff8b60;}.cls-52{fill:#646c56;}.cls-53{fill:#92938c;}.cls-54{fill:#71746c;}.cls-55{fill:#757e61;}.cls-56{fill:#808969;}.cls-57{fill:#697158;}.cls-58{fill:#676b63;}.cls-59{fill:#5e664f;}.cls-60{fill:#c1da7c;}.cls-61{fill:#ac3636;}.cls-62{fill:#5e6849;}.cls-63{fill:#5b6744;}.cls-64{fill:#5d6944;}.cls-65{fill:#636a55;}.cls-66{fill:#f1eee9;}.cls-67{fill:#6b5952;}.cls-68{fill:#5b4d45;}.cls-69{fill:#645d55;}.cls-70{fill:#7d7f77;}.cls-71{fill:#684c46;}.cls-72{fill:#7b7e76;}.cls-73{fill:#644b43;}.cls-74{fill:#5f4a43;}.cls-75{fill:#684943;}.cls-76{fill:#765248;}.cls-77{fill:#6a4d46;}.cls-78{fill:#614942;}.cls-79{fill:#5f453f;}.cls-80{fill:#57483f;}.cls-81{fill:#72756d;}.cls-82{fill:#6b6f67;}.cls-83{fill:#dd3f36;}</style></defs><g id="Слой_2" data-name="Слой 2"><g id="Слой_1-2" data-name="Слой 1"><path class="cls-1" d="M522.73,52.09a13.91,13.91,0,0,0,1.93.13c.65.67,1.41,1.22,2.08,1.88a10.74,10.74,0,0,0,1.88.13c.72.64,1.44,1.28,2.14,1.94l0,0a23.22,23.22,0,0,0,2,1.89,10.46,10.46,0,0,0,1.86.17,16.2,16.2,0,0,1,2.14,2l0,0c.71.64,1.39,1.32,2,2l0,0c.7.64,1.38,1.32,2,2l0,0a19.13,19.13,0,0,1,2,2.12l2.15,3.87c.6.69,1.23,1.35,1.9,2h0c.69.69,1.33,1.41,2,2.15a11.69,11.69,0,0,0,.14,1.87c.61.69,1.24,1.36,1.89,2l0,0c1.19,1.08.83,2.94,2,4h0c1.19,1.1.81,3,2,4.08a13.8,13.8,0,0,0,.13,1.93c.62.69,1.24,1.37,1.88,2l0,0a14.05,14.05,0,0,1,2,2.16,11.2,11.2,0,0,0,.15,1.83c.62.69,1.25,1.36,1.91,2l0,0c1.18,1.07.8,2.94,2,4v0c1.12,1.1.76,2.94,2,4h0c1.16,1.14.8,3,1.94,4.13,0,1.3.09,2.6.13,3.9a29.75,29.75,0,0,1,0,15.94,18.92,18.92,0,0,0-.08,2c-1.24,1-.76,2.93-1.92,4a12.12,12.12,0,0,0-.12,1.9,28.63,28.63,0,0,0-2,3.88c-2,3.37-5.27,6-5.28,10.49,0,16.11-9.86,25.43-22.82,32.5a83,83,0,0,1-10.82,5.14C513.54,189,509,197.32,503.18,204a22.13,22.13,0,0,1-11.58,4.77c-15-1.11-29.46.93-43.14,7.48-12.8,2.9-26,2.45-38.85,4.66-7.77-.18-15.2,1.82-22.65,3.63-20.39,8.15-42.16,9.14-63.52,12.27-3.29.48-6.63.61-9.78,1.79-5.27,2.41-10.83,2.59-16.47,2.17-13.72-2.52-27-6.91-40.42-10.5-7.19-3.34-14.24,1.47-21.38.41-14-3.11-27.44-7.55-39-16.36-1.88-1.3-4.18-2.43-5.26-4.36-4.92-8.79-12.13-8.62-20.23-5.64-13.94,1.56-27.71,1.25-41.1-3.49-10.53-.21-21.16,1.38-31.49-1.84-9.35-3-18.58-5.82-28.44-7.6-15.91-2.89-29.09-11.84-37.88-26.66-5.66-9.54-10.94-18.88-12.44-30-.4-2.92-1.59-5.8-4.55-7.34-2.53-1.78-2.38-5.07-4.1-7.3a9.46,9.46,0,0,0-.15-1.84c-.7-.65-1.26-1.43-1.9-2.13a10.38,10.38,0,0,0-.05-1.85,37.12,37.12,0,0,1-.06-18,13.93,13.93,0,0,0,.09-1.94c.66-.68,1.3-1.39,1.92-2.11l0-.05c1.34-1.32,1.2-2.66.06-4V80.28c1.18-1.11.81-3,2-4.09v0c1.24-1,.85-2.92,2.08-4l0,0c.63-.72,1.31-1.39,2-2.05l0,0c.65-.7,1.32-1.38,2-2l0,0a17.69,17.69,0,0,1,2.15-2,9.6,9.6,0,0,0,1.86-.15c.68-.61,1.34-1.24,2-1.9h0q1-1,2.16-1.95a10.57,10.57,0,0,0,1.86-.12c.65-.68,1.43-1.24,2.11-1.89a12,12,0,0,0,1.89-.11c.66-.69,1.43-1.25,2.13-1.88a10.53,10.53,0,0,0,1.86-.08c1.09-1.19,3-.72,4.06-1.94a12.9,12.9,0,0,0,2-.12c1.1-1.13,3-.65,4-1.89a14.51,14.51,0,0,0,2-.08c1.13-1.16,3-.73,4.12-1.88l3.88-.12c1.09-1.14,2.94-.71,4-1.93h0c.68-.66,1.35-1.33,2-2h0c1.08-1.17,2.94-.8,4-2h0c1.14-1.16,3-.81,4.15-1.93l3.88-.13c2.33-2,5.71.28,8-1.92a16.48,16.48,0,0,0,2-.06c2.34-2.06,5.73.25,8-1.93a13.82,13.82,0,0,0,1.93,0c1.69-1.76,4.44-.16,6.13-1.93l3.9-.14c1.12-1.14,3-.69,4.07-1.88a12.16,12.16,0,0,0,1.91-.09c3.41-1.9,4.24-6.4,8-7.94h0c1.12-1.18,3-.82,4.12-2l3.91-.12c3.08-2.19,7,.43,10.1-1.87l7.78,0a2.89,2.89,0,0,0,4.18,0l9.94-.14a20.36,20.36,0,0,0,1.92-1.91l0,0c1.27-1,.85-2.91,2.11-3.91l0,0a12.78,12.78,0,0,1,2.14-2,11.45,11.45,0,0,0,1.85-.15c.69-.63,1.38-1.25,2.06-1.89a14.16,14.16,0,0,0,2-.1,17.41,17.41,0,0,1,11.93,0l2,.07c1.6,1.88,4.39.21,6,2h0c1.07,1.21,2.92.78,4,1.93a11.85,11.85,0,0,0,1.89.09c.67.64,1.43,1.2,2.1,1.86a14,14,0,0,0,2,.13c1.1,1.2,3,.81,4.07,2h0a4.52,4.52,0,0,0,6,0l0,0c.72-.61,1.36-1.31,2.07-1.93l0,.05c1.06-1.24,2.93-.88,4-2.05l0,0c1.07-1.2,2.94-.83,4-2h0c1.1-1.15,2.94-.81,4-2l0,0c1.1-1.22,3-.85,4.11-2a11.85,11.85,0,0,0,1.89-.09c1.1-1.18,3-.72,4.08-1.92a12.48,12.48,0,0,0,1.93-.09c1.65-1.72,4.4-.06,6-1.94l2-.07c3.05-2.22,7,.45,10.06-1.9l7.92-.08c.65-.67,1.36-1.28,2-1.95l0,0c1.08-1.2,3-.78,4-2a14.86,14.86,0,0,0,2-.07,12.25,12.25,0,0,1,9.94,0l3.95.08c1.64,1.82,4.37.21,6.05,1.91a13,13,0,0,0,2,.08c1.06,1.23,2.91.76,4,1.88l2,.11c1,1.25,2.9.77,4,1.9a12.82,12.82,0,0,0,2,.12c1.09,1.2,2.94.81,4.07,1.95h0c1,1.26,2.87.81,4,1.93a12.43,12.43,0,0,0,1.93.12,4.83,4.83,0,0,0,6.11,0h0c1.08-1.16,2.94-.78,4-2h0c1.11-1.12,2.95-.75,4-2h0c1.12-1.14,3-.75,4.07-1.95a14.39,14.39,0,0,0,2-.14c1.11-1.08,2.93-.67,4-1.88h0a3.63,3.63,0,0,1,2.2-1c2-.26,4.13.6,5.84-1h13.9c1.63,1.84,4.36.21,6,1.91a13.93,13.93,0,0,0,1.94.09c1.1,1.19,2.95.81,4.08,2h0c1,1.26,2.89.81,4,2a11.49,11.49,0,0,0,1.85.11c.75.61,1.47,1.26,2.17,1.93h0c1,1.24,2.91.86,4,2h0a3.93,3.93,0,0,0,2,1,4,4,0,0,1,2,1h0a2.78,2.78,0,0,0,4.1,0h7.85c3,2.36,7-.33,10.07,1.91a14.56,14.56,0,0,0,2,.07c1.61,1.86,4.35.22,6,1.92a14.36,14.36,0,0,0,2,.08c1.63,1.85,4.39.22,6.05,2h0c1,1.23,2.88.8,4,1.92a14.17,14.17,0,0,0,1.95.11c1.1,1.2,3,.81,4.08,2h0c1.05,1.23,2.89.86,4,2h0c1,1.24,2.88.87,4,2h0c1,1.24,2.92.86,4,2.06l0,0c.68.64,1.32,1.33,2,1.92l.05,0c1,1.31,2.9.82,3.94,2l7.9.05c1.66,1.79,4.39.19,6.08,1.9a15.66,15.66,0,0,0,1.94.09c1.08,1.2,2.95.74,4.06,1.9a13.73,13.73,0,0,0,1.92.1c1.12,1.18,3,.8,4.1,2h0c1,1.24,2.89.8,4,1.94a11.79,11.79,0,0,0,1.88.11c.69.64,1.46,1.2,2.12,1.87a12.37,12.37,0,0,0,1.92.11c.68.63,1.38,1.25,2.07,1.86a13.78,13.78,0,0,0,1.92.14c.67.67,1.44,1.22,2.09,1.91a12,12,0,0,0,1.89.12c6.51,2.71,13.61-.76,20.13,1.94a10.38,10.38,0,0,0,1.85.05C521.3,50.87,522.06,51.43,522.73,52.09Z"/><path class="cls-2" d="M561,468.12c-.12,1.93-.23,3.85-.35,5.78-1,1.25-.67,3.18-2.09,4.23l.08-.12c-3.61,5.72-8.59,10.09-13.85,14.2l0,0a23.07,23.07,0,0,1-2.18,1.89l.11-.09a5.09,5.09,0,0,1-2.31,2l.19-.2c-1.53,2-4,2.83-5.92,4.33l.06,0a5.43,5.43,0,0,1-2.34,1.9l.21-.22c-.73,1.66-2.83,1.16-3.8,2.44h0c-.76.63-1.35,1.49-2.38,1.77l.21-.2c-.74,1.63-2.84,1.14-3.81,2.42h0a7,7,0,0,1-2.39,1.76l.22-.21c-.8,1.67-2.84,1.23-4,2.34l.09-.05c-1.3,1.43-3.22.93-4.77,1.56-15.12,3.6-29-.17-42.27-7.23-13.81-7.38-14.52-20.31-13.63-33.75,6.26-37.7,17.13-74.26,27.67-110.9,3.11-10.83,6.29-21.65,9-32.59,3.47-8.85,4.75-18.33,7.84-27.28.44-1.29,1-2.55,1.48-3.83s.84-2.42,1.29-3.61a26,26,0,0,0,1.33-4.67,23.52,23.52,0,0,1,.82-3.51,32.39,32.39,0,0,0,1.2-4.65,24.09,24.09,0,0,1,.83-3.65c.5-1.66.91-3.35,1.35-5a4.71,4.71,0,0,1,2.43-3.2c2.34.33,3,2.09,3.45,4a14.3,14.3,0,0,1-.31,5.64,47.84,47.84,0,0,0-1.21,5.27,33.5,33.5,0,0,1-1,5.18,28,28,0,0,0-1.31,6.27,20.61,20.61,0,0,1-.73,3.82A41.57,41.57,0,0,0,509,305a36.43,36.43,0,0,1-.84,4,27.16,27.16,0,0,0-.82,7.13c-7.87,42.07-18.66,83.44-30.17,124.62a44.86,44.86,0,0,0-1.81,5.77c-.25,1.43-.6,2.84-1,4.24-2.3,7.3-3.37,14.88-5.14,22.31-.8,3.37-2.88,7.53,1.77,9.64,4.37,2,8.64.8,11.56-3.09a112.39,112.39,0,0,1,14.67-16.22c6.78-6.11,8.83-5.85,14,1.82,3.34,5,6.6,10,11.28,13.84,7.19,5.91,13.14,5,18.3-2.84,5.78-8.81,7.17-18.94,9.19-30.37-11.83,8.18-23,13.5-35.45,4.29-1.63-1.77-2.92-3.7-2.85-6.24a3.74,3.74,0,0,1,1.38-2.23c.43-.07.88-.13,1.31-.21a9.16,9.16,0,0,1,2.43.92c.37.19.75.4,1.13.58a22.36,22.36,0,0,0,2.45.74c.89,0,1.77.1,2.67.11s1.91-.11,2.87-.15c9.94-.36,17.56-5.5,24.72-11.71,2.75-2.39,6.1-5.42,9.71-3.47,3.86,2.08,2.15,6.35,1.67,10-.59,4.29-.13,8.63-.23,12.95C561.34,457,562.56,462.6,561,468.12Z"/><path class="cls-3" d="M11,373.65l-.47-9.55c-1.37-5-.52-10.15-.54-15.22,3.13-4.09,7.27-2.45,10.8-1.33a30.87,30.87,0,0,0,18.3.06c8-.83,15.11-5.16,23.13-6,1.26-.42-.12-1.8.41-.57.08.2-.21.33-.87.49-8.83,2.12-17.27,1.06-25-3.71-3.12-1.92-5.91-4.84-4.51-9.11,1.22-3.71,4.64-4.5,8.07-4.76a92.65,92.65,0,0,1,17-.11c17,1.83,28.6-6.35,37.7-19.56,5.3-7.68,10.22-15.61,15.7-23.16,1.87-2.57,4.16-6.53,7.77-4.39s1.56,6.12.06,9c-5.48,10.63-10.85,21.34-18.3,31.29,23.17-16.28,39.82-37.79,53.27-62,3.4-6.11,6.77-12.24,10-18.44,5.67-10.87,9.18-11.37,17.49-2.55a14.33,14.33,0,0,1,2.83,4.09c1,3.84-.35,7.27-2.06,10.51-21.14,40.08-48.88,74.46-87.63,98.8C76.33,358.62,57.53,368,35.79,368.86c-5.86.15-11.73-.23-17.56.3-3.31.28-3.3,3.83-5.29,5.41A1.32,1.32,0,0,1,11,373.65Z"/><path class="cls-4" d="M40.75,350.19c-10.37,4-20.19-.64-30.21-2-1-1.34-.72-3.14-1.62-4.52l-.32-7.56c-1.76-22.87-4.74-45.68-2.82-68.67C6,261.61,9,263.63,11,266.06c4.17,5,8.41,9.92,12.84,14.69,10.67,9.66,30.13,9.84,44.2,0,11.76-8.22,18.55-20.59,25.66-32.54a175.93,175.93,0,0,0,10.09-20.53c4.83-11.22,9.59-14,21.82-11.48,6.4,1.34,12.93,2.7,19,5.43,1.36,3.44-1.44,4.22-3.51,4.61-9.19,1.73-13.9,8.39-18.29,15.69-11,18.24-21.33,36.91-34.49,53.77a56.94,56.94,0,0,1-8.76,9.53c-13.65,11.09-18.84,11.51-34.07,2.48-12.22-7.24-17.7-5.22-22.23,8.12a40.76,40.76,0,0,0-2,12.78c-.15,12.52.89,13.85,13.11,17C37,346.32,40.84,345.62,40.75,350.19Z"/><path class="cls-5" d="M566.88,366.16l-.24,11.68c-1.89,5.65-.42,11.49-1,17.21-1.28,7.85-6.07,13.5-11.85,18.38-2.28,1.92-4.64,5.06-8.32,2.08-4.37-7-3.94-14.7-2.94-22.29,1.48-11.22,2.13-22.54,4.38-33.66a21,21,0,0,0-2.34-15.65c-4.56,24.4-9.43,47.39-12.91,70.66-.19,1.31-.1,2.67-.33,4-.51,2.8-.05,6.88-3.69,7.15-3.22.24-3-3.69-3.8-6.11a37.59,37.59,0,0,1-1.14-3.83c-1.89-22.84,4.53-44.59,8.91-66.58,1.94-9.72,4.71-19.28,7.06-28.93,7.73-25.76,13.78-52.12,27.31-76.23,1.8,14.73,1.68,29.28,1.71,43.84C567.19,314,568.81,340.08,566.88,366.16Z"/><path class="cls-6" d="M470.1,536l-.77,0-.62.48c-1.18,1-2.92.62-4,1.75l.05,0c-1.15,1.21-2.94,1-4.25,1.86l.18-.11c-1.42,2.26-4.4.41-6,2.27l.05,0c-1.36,1.22-3.19,1.19-4.78,1.8l-.71-.08-.52.48c-1.33,1-3.1.87-4.51,1.66l-.82-.06-.68.46c-1.24,1-2.93.72-4.18,1.65l.16-.09c-1.71,2.1-4.56.59-6.46,2l-.83-.06-.7.45c-1.36.91-2.91.75-4.43.78-19.76,3.28-45.88-8.45-54.22-24.33a16.94,16.94,0,0,1-.94-2.93,11.86,11.86,0,0,1,.19-6.06,6.69,6.69,0,0,1,2.84-3.32c2.32-1.07,5.08-1.4,5.74,1.46,2,8.84,6.84,5.55,11.67,3.11,14.45-7.31,28.25-15.59,40.41-26.42,3.13-2.79,6.17-6.19,11.19-4.74,6.48,17.73,18.25,29.8,36.87,34.67a7.34,7.34,0,0,1,5.22,4.32c.05,1.78-1.37,2.41-2.54,3.23h0c-1.09,1.19-2.93.87-4.07,2l.06,0c-1.11,1.24-2.93,1-4.18,1.94l.14-.09C473.51,535.44,471.6,535.22,470.1,536Z"/><path class="cls-7" d="M15.11,126.49c2.15-1.83,4.35-2.38,5.28,1,1.61,5.75,2.32,11.78,4.3,17.39,8,22.54,22.42,38.63,46.28,44.89a4.18,4.18,0,0,0,2,.28c9.17-2.41,16.16,3.18,23.78,6.44,2.52,8.55-2,13.35-9.27,15.8a100,100,0,0,1-16.36,4.34c-15.38,2.14-28.71-2.18-40-12.77-6.49-6.05-15.11-7.81-22.88-11.3a9.58,9.58,0,0,1-1.86-4.73c-.42-4.7,1.58-9,2.25-13.53.12-1.83.25-3.65.37-5.48,2.17-4.66-.46-9.88,1.69-14.54.11-1.17.21-2.34.31-3.5,2.09-4.79-.16-9.71.44-14.5C11.8,132.75,11.72,128.91,15.11,126.49Z"/><path class="cls-8" d="M386.52,562.1l-.94-.12-.86.38c-2.53,1.75-5.82-.16-8.32,1.71l-.87-.17-.79.38c-2.31,1.85-6.07-.33-7.91,2.84a10,10,0,0,1-4.2,1.38c-3.44.27-6.92.28-10.24,1.43a21.31,21.31,0,0,1-6.1.66c-4.13,0-8.18-1.6-12.36-.66-3.79-.83-7.51,0-11.23.5a437,437,0,0,1-57.9-.09l-7.69-.27c-3.81-2.7-8.37,1.39-12.18-1.34-1-1.73-.08-2.9,1.14-4,7.89-2.59,13.64-7.73,18.39-14.5,2.16-3.08,5.79-7.87,9.47-5.59,4.69,2.9-.94,6.69-1.75,10.18,6.79-5.45,15-7.14,23.24-8.36,18.14-2.68,36.2-5.67,53.81-11,3.49-1,7.09-2,10.79-.75,8,8,16.72,15,27.29,19.41a6.12,6.12,0,0,1,4,5.3C390.52,561.78,387.84,560.73,386.52,562.1Z"/><path class="cls-8" d="M564.44,146.5a2.25,2.25,0,0,0,.41,1.72c2.37,5.24-.63,11.08,1.79,16.32l.26,5.69c2.27,9.47-.61,19.24,1.64,28.72a5.16,5.16,0,0,0,0,4.49,24.76,24.76,0,0,1-1.39,2.65c-10.3,25-20.64,50-28.28,76-.75,2.54-1.66,5-4.11,6.53-5.76-1.7-5.24-7-4.25-10.47,4-14,.48-24.61-12.37-31.84-1.67-10.11-.83-19.12,9.62-24.66a15,15,0,0,0,7.29-9.22c6.33-22.32,21.47-41.3,24.56-64.85.12-.94,1.22-1.52,2.09-2A2.46,2.46,0,0,1,564.44,146.5Z"/><path class="cls-3" d="M8.61,188l.54,4.21c2.63,3.4,2.51,7.44,2.37,11.36a86.09,86.09,0,0,0,5.26,32c1.83,9,6.12,16.93,11.08,24.39,6.78,10.2,13.69,11.21,23.62,4.12,8.26-5.9,14.5-13.63,19.4-22.5,4.18-7.57,8.65-15,13.1-22.41,7.64-6.18,13.84-2.41,19.83,2.86-9,27-23.91,49.79-49.51,63.37-10,5.33-21.8,5.62-31.55-3.12-7.11-4.4-10.74-11.87-15.9-18-2.35-12.81-.67-25.74-1-38.6-.17-7.11-4-14.39.63-21.36l.06-6.08C5.19,194.34,2.45,190.26,8.61,188Z"/><path class="cls-9" d="M534.74,288.18C541.47,261.42,552,236,562.6,210.65c1-2.38,1.77-5.1,4.5-6.33,1.93,11.45-.81,23.09,1.47,34.51-.84,15.51-.66,31-.09,46.53q-.12,1.58-1.62,1.05V246.63l-1.56-.45c-3.51,10-7.12,19.88-10.5,29.88-4.95,14.62-8.34,29.75-14,44.14-5.13-.17-5.06-4.6-5.94-7.8a173.49,173.49,0,0,1-3.45-17.56C531.07,291.9,531.8,289.48,534.74,288.18Z"/><path class="cls-10" d="M12.52,374.62c.81-2.79-.74-6.21,2.24-8.43,8.82,10.88,12.66,24.61,20.6,36,2.63,3.78,4.77,7.92,7.83,11.43,8.12,10.89,19.39,14.11,32.39,14.06,4.74,0,10.92-2.42,13.55,4.58-6.52,6.9-15.31,7.46-23.91,8.57-20.51,1.07-37.59-5-48.63-23.53-.94-1.87-.77-4.05-1.59-6a.66.66,0,0,0,0-1.12C10.86,398.6,11.08,386.65,12.52,374.62Z"/><path class="cls-11" d="M484.74,528.06c-3.6-4-8.94-4-13.43-6-15.09-6.58-26.49-16.29-28.57-33.86a2.39,2.39,0,0,1-.62-1.69c0-.61.1-.92.21-.92,5.58-4.33,10.79-9.11,16.41-13.41,0,3.33.28,6.69,0,10-1.08,11.3,4.91,18.29,14.15,23a60.8,60.8,0,0,0,28.7,7.07c4-.05,8,.24,12,.38a1.47,1.47,0,0,1-.54,1.69l-.17.08c-.89.41-1.4,1.37-2.39,1.63l.2-.19c-.87,1.62-2.85,1.24-4.07,2.24l.14-.09c-1,1.43-2.9,1-4,2.19l.05,0c-1,1.23-2.93.84-4,2.08h0c-1.05,1.13-2.94.69-3.86,2l-.11,0c-1.12,1-3,.59-3.9,2l-.1,0a5.7,5.7,0,0,1-2.93,1.65l-.67,0-.48.47C485.92,529.08,485.27,528.93,484.74,528.06Z"/><path class="cls-12" d="M100.8,540.33l-.57-.44-.72.05c-1.56-.66-3.44-.54-4.71-1.91l.08,0c-5.43-.28-10.62-1.09-13.89-6.21l0,.12c-1.3-.87-3.21-.55-4.16-2.12l.2,0a1.65,1.65,0,0,1,.39-2.65,13.09,13.09,0,0,1,7.63-1.59c20.18,1,38.28-5.1,55-16a12.22,12.22,0,0,1,5.47-2.13c5.58,3.14,12,5,15.77,10.87-1.08,5.39-6.07,6.64-9.79,9.22-11.36,7.89-24.4,12.17-37,17.32-3.85,1.12-7,0-9.62-2.94l.06.08C103.73,541.08,102,541.37,100.8,540.33Z"/><path class="cls-13" d="M154.8,556.33l-.75-.41-.84.11c-1.91-1.41-4.47-.28-6.4-1.62l-2-.38c-4.75-.29-10.42,1.46-12.25-5.43,3.44-4,7.81-2.31,12-2.09,19.79,1,39.58,2.16,59.36-.11a27.48,27.48,0,0,1,8.43-.68c7.23,2,14.38,1.59,21.57-.46,2.85-.81,6.75-1.82,8.3,1,2.05,3.79-2,5.92-4.49,7.73-8.23,5.93-15.76,13.67-27.36,12-3-1.7-6.56,0-9.58-1.57l-3.73-.36c-3.18-2.09-7.09.21-10.3-1.7l-3.34-.41a12.25,12.25,0,0,0-8.21-.25,10.64,10.64,0,0,1-2.82-.12c-2.75-.79-5.63-1-8.36-1.79C161.47,557.34,157.92,557.41,154.8,556.33Z"/><path class="cls-14" d="M390.74,560c-1.87-3.57-5.65-4.13-8.78-5.85-8.23-4.55-17.46-8.07-21.22-17.95-2.3-1.43-3.84-3.15-2.36-6.05,4-4,8.94-5.54,14.39-5.95,4.48,9.53,12.23,14.62,21.9,18.53,10.57,4.27,20.88,8.24,32.45,7.65.4.86.15,1.42-.76,1.67l-.87,0-.78.39c-1.75,1.47-4.36,0-6,1.76l.06,0c-1.88,1.77-4.6.53-6.61,1.85l-.75-.1-.65.41c-1.86,1.57-4.51.29-6.4,1.76l-.85-.1-.76.39c-2,1.45-4.55.34-6.53,1.66l-.77-.14-.68.39C393.33,561.33,392,561.38,390.74,560Z"/><path class="cls-12" d="M17,416.17a70.84,70.84,0,0,0,19.9,17.17c8.77,4.94,18.21,5.23,27.83,4.88.27,2.34-3.3,4.42.52,7.27,2.66,2,5.89,5.61,2.89,10.09-10.32,6.07-20.14.55-30.12-1.24-6-3.15-12.69-5.19-17.49-10.38A9.4,9.4,0,0,1,19,441.55c-.16-1.81-.31-3.62-.46-5.43-1.71-3.33.27-7.21-1.58-10.51l-.29-3.45C15.56,420.09,15.18,418.06,17,416.17Z"/><path class="cls-15" d="M546.77,416.2c7.72-5.1,13-12.37,17.89-20,1.77,4,1.44,8,.24,12-.38,3.78-1.28,7.53-.35,11.35-2.17,6.07.5,12.56-1.59,18.64-.48,3.77-1.26,7.53-.45,11.36-.14,1-.66,1.33-1.61,1V430.08c-5.22-.83-7.31,2.49-9.86,4.87-8,7.42-16.95,12.28-28.29,11.22.82-8,8.24-9.54,13.31-13.14,4.53-3.22,9-5.94,7.73-12.48C543.89,418.49,544.7,416.91,546.77,416.2Z"/><path class="cls-16" d="M6.51,204.24q.17,30,.34,60c-1.2,20.42,1,40.74,1.68,61.1.13,3.61.05,7.23.07,10.85-3.51-4.44-1.35-9.61-1.79-14.43-.47-5.14.89-10.32-4.47-14.44-3.23-2.49-2.71-8.15-.87-11.22,3.23-5.38,2.86-10.28,2.3-16.08-.39-4,1-8.44,1-12.76,0-12-.11-24,0-36,.06-5,0-10.07-2.23-14.63C-.17,211,1.24,207.12,6.51,204.24Z"/><path class="cls-16" d="M54.6,516.4c-7.08,2.1-12.16-.49-16.86-6-3.56-4.16-6.57-8.79-11.22-12.23-4.35-3.21.07-7.9.16-12l1.34-.41c8.87,9.92,18.34,19.29,27.14,29.28C55,515.54,54.79,516,54.6,516.4Z"/><path class="cls-16" d="M19,441.55a4.81,4.81,0,0,0,1.55.69,11,11,0,0,1,2.8,7.18,105,105,0,0,0,4.46,30.95A6.15,6.15,0,0,1,27,486l-.32.24c-10-4.27-11.87-8.11-10.49-19.44C17.21,458.4,19.56,450.13,19,441.55Z"/><path class="cls-17" d="M566.86,286.41c.53-.37,1.07-.72,1.63-1l.27,74.41c0,2.3.21,4.68-1.88,6.38Q566.88,326.27,566.86,286.41Z"/><path class="cls-16" d="M240.76,570.23c-.77.57-1.56,1.68-2.3,1.64-7.05-.36-13.9-.48-20.84,2-4.35,1.54-7.13-1.51-8.87-7.45a3.09,3.09,0,0,1,2.53-1.15,25.28,25.28,0,0,1,5.83.31c4.38.27,8.77,0,13.15.14a21.22,21.22,0,0,1,5.87.92A7.84,7.84,0,0,1,240.76,570.23Z"/><path class="cls-16" d="M76.73,528.2a15.94,15.94,0,0,1,.34,1.67c-7.1,4.62-7.15,4.68-12.88-.77-3.25-3.08-9.46-4.19-7.52-10.88l1.12-.86C65.56,518.43,71.56,522.59,76.73,528.2Z"/><path class="cls-16" d="M362.74,566.25l3.19-.32a2,2,0,0,1,2.83.41c-.21,2.45-1.15,5.18-3.62,5.21-9.47.11-19.19,4.85-28.39-1.2,2.93-2.63,7,.23,10-2a7.73,7.73,0,0,1,5.19-.4C355.34,566.27,359.38,568.4,362.74,566.25Z"/><path class="cls-16" d="M15.11,126.49c-1.1,8.13-1.64,16.35-4.18,24.23-.34-3.86-.24-7.7-1.41-11.56-1.95-6.42-.67-12.87,1.33-19.15C13.6,121.29,14.66,123.69,15.11,126.49Z"/><path class="cls-16" d="M8.61,188c-2.28,3.08-.61,7-2,10.21-7.52-6.75-7.77-9.7-1.82-17.37a56.39,56.39,0,0,0,3.81-6.54Q8.59,181.11,8.61,188Z"/><path class="cls-17" d="M264.8,570.34l57.9.09c-1.48,1.7-3.47,1.76-5.49,1.76h-47C268.21,572.19,266.23,572.08,264.8,570.34Z"/><path class="cls-16" d="M12.52,374.62c-.65,12,2.89,23.66,2.48,35.62a17,17,0,0,1-5.53-16.07c1.42-6.91.68-13.72,1.48-20.52Z"/><path class="cls-16" d="M173,560.1a1.77,1.77,0,0,1,1.77.21,5,5,0,0,1,2,1.9c-6.84,6-11.34,5.86-16-1.39-1.62-2.54-4.71-2.12-6-4.49a17.64,17.64,0,0,1,10,2.07C167.29,560.22,170.55,558.23,173,560.1Z"/><path class="cls-16" d="M81,531.85a49.26,49.26,0,0,1,13.89,6.21C84.74,542.86,82.29,541.77,81,531.85Z"/><path class="cls-16" d="M132.87,549.8c3.67,2.3,8.4,1.62,11.95,4.23-9.1,4-12.44,3.18-16.18-3.74l.83-.9A3,3,0,0,1,132.87,549.8Z"/><path class="cls-17" d="M568.57,238.83c-2.24-7.46-.56-15.09-1-22.64-.25-3.95-.3-7.91-.44-11.87a15,15,0,0,0,1.41-.88Z"/><path class="cls-17" d="M564.9,408.15l-.24-12c1.19-6.05-.17-12.38,2-18.34,0,7.64.11,15.27.1,22.91C566.74,403.34,567.3,406.13,564.9,408.15Z"/><path class="cls-17" d="M568.54,199c-2.73-9.45-1.3-19.14-1.64-28.72,3.37,3.62,1.61,8.06,1.79,12.13C568.93,187.88,568.62,193.42,568.54,199Z"/><path class="cls-17" d="M544.79,492.21q6.93-7.09,13.85-14.2C556.63,485.29,551.72,489.73,544.79,492.21Z"/><path class="cls-16" d="M104.88,542l9.87,2.25a1.75,1.75,0,0,1,2.3.79c-.13.45-.27.89-.41,1.34C107.38,548.53,107.38,548.53,104.88,542Z"/><path class="cls-17" d="M518.76,50.19c-6.68-1-13.73,2-20.13-1.94C505.32,49,512.38,46.12,518.76,50.19Z"/><path class="cls-17" d="M240.76,570.23c-1.58-.06-3.06-.33-4-1.81,2.58-2.55,5.26-2.64,8-.34,4,1,8.42,0,12.32,2l-6.48.35c-2.64,1-5.26,1.26-7.85-.17Z"/><path class="cls-16" d="M8.92,343.71l1.62,4.52-.06,15.87C7,357.53,9.4,350.51,8.92,343.71Z"/><path class="cls-16" d="M8.69,96.23l.06,18A18.3,18.3,0,0,1,8.69,96.23Z"/><path class="cls-17" d="M563,438.14c.1-6.25-.9-12.59,1.59-18.64C564.13,425.72,566.51,432.18,563,438.14Z"/><path class="cls-17" d="M560.9,450.49q.79-.53,1.62-1c-.35,6.22,1.94,12.65-1.52,18.62Q561,459.3,560.9,450.49Z"/><path class="cls-17" d="M566.82,128.16q0-8,0-15.94A15.51,15.51,0,0,1,566.82,128.16Z"/><path class="cls-17" d="M566.64,164.54c-2.2-5.27-1.82-10.81-1.79-16.32C568.66,153.3,566,159.1,566.64,164.54Z"/><path class="cls-16" d="M118.77,28.2c-2.7,2.62-3.17,7.48-8,7.94C112.71,32.76,113.49,28.22,118.77,28.2Z"/><path class="cls-16" d="M10.62,154.23c.15,4.93.35,9.86-1.69,14.54C9.32,163.91,7.1,158.73,10.62,154.23Z"/><path class="cls-17" d="M346.72,568.35c-2.83,3.14-6.66,1.28-10,2l-2.81-.42C338,567.58,342.39,568.34,346.72,568.35Z"/><path class="cls-16" d="M182.73,14.13l-11.93,0Q176.77,9.79,182.73,14.13Z"/><path class="cls-16" d="M280.73,2.14h-9.94Q275.77-2.13,280.73,2.14Z"/><path class="cls-16" d="M136.89,24.25c-2.91,3.09-6.68,1.53-10.1,1.87C129.67,22.86,133.48,24.65,136.89,24.25Z"/><path class="cls-16" d="M254.85,6.23c-2.89,3.1-6.66,1.55-10.06,1.9C247.64,4.86,251.46,6.66,254.85,6.23Z"/><path class="cls-17" d="M410.74,16.14c-3.41-.34-7.18,1.18-10.07-1.91C404.07,14.65,407.89,12.86,410.74,16.14Z"/><path class="cls-16" d="M17,416.17l-.36,6C13.39,419,15.18,415,15,411.37,15.67,413,16.34,414.57,17,416.17Z"/><path class="cls-16" d="M16.94,425.61c2.12,3.26,1.8,6.89,1.58,10.51C15.48,433,17.15,429.16,16.94,425.61Z"/><path class="cls-17" d="M186.8,562.37c3.57-.24,7.1-.31,10.3,1.7C193.62,563.79,189.82,565.48,186.8,562.37Z"/><path class="cls-17" d="M211.27,565.94l-2.52.45c-2.67-.56-5.78.71-7.92-2h9.34A1.22,1.22,0,0,1,211.27,565.94Z"/><path class="cls-16" d="M92.83,40.22c-2.18,2.76-5.26,1.75-8,1.93C86.92,39.25,90.05,40.47,92.83,40.22Z"/><path class="cls-16" d="M82.79,42.21c-2.16,2.76-5.22,1.74-8,1.92C76.92,41.26,80,42.47,82.79,42.21Z"/><path class="cls-17" d="M534.66,500.13a9.26,9.26,0,0,1,5.92-4.33C539.82,498.9,537.71,500.16,534.66,500.13Z"/><path class="cls-17" d="M176.76,562.21l-2-1.9c3-.19,6-.25,8.68,1.66Z"/><path class="cls-17" d="M390.74,560l4,.25c-2.22,2.91-5.38,1.71-8.22,1.86Z"/><path class="cls-17" d="M376.4,564.07c2.52-1.82,5.38-2,8.32-1.71C382.4,565.14,379.27,564,376.4,564.07Z"/><path class="cls-17" d="M368.76,566.34l-2.83-.41c2.67-2,5.75-1.76,8.81-1.65C373.3,566.57,370.91,566.08,368.76,566.34Z"/><path class="cls-16" d="M242.78,570.25l7.85.17C248,573,245.34,573,242.78,570.25Z"/><path class="cls-17" d="M468.74,36.14c-2.23,0-4.54.3-6.08-1.9C464.88,34.25,467.25,33.8,468.74,36.14Z"/><path class="cls-16" d="M210.71,22.17c-2,2.57-4,2.54-6,0Z"/><path class="cls-17" d="M426.76,20.19c-2.22,0-4.55.27-6.05-2C422.93,18.25,425.3,17.82,426.76,20.19Z"/><path class="cls-1" d="M564.44,146.5c-.47-.16-1-.32-1.45-.46-1.93-1.6-2-3.51-.91-5.61a1.67,1.67,0,0,1,2.66-.23Z"/><path class="cls-16" d="M100.89,38.25c-1.55,2.21-3.88,1.92-6.13,1.93C96.26,37.8,98.65,38.25,100.89,38.25Z"/><path class="cls-17" d="M454.69,542.15a7.63,7.63,0,0,1,6-2.27C459.43,542.61,457,542.12,454.69,542.15Z"/><path class="cls-16" d="M122.69,548.3c-2.17-.16-4.5.17-6-1.94l.15-.22c2.33-1.89,4.44-1.87,6.24.72C122.92,547.34,122.81,547.82,122.69,548.3Z"/><path class="cls-16" d="M128.64,550.29c-2.15-.18-4.48.21-5.95-2l.18-.26c2.72-1.7,5-1.95,6.17,1.77Z"/><path class="cls-17" d="M432.24,550c1.76-1.9,4.13-1.92,6.46-2C437.21,550.72,434.64,550.1,432.24,550Z"/><path class="cls-17" d="M418.74,18.13c-2.22,0-4.52.31-6-1.92C414.91,16.26,417.26,15.81,418.74,18.13Z"/><path class="cls-16" d="M190.75,16.22c-2.21-.07-4.54.22-6-2C186.94,14.26,189.32,13.82,190.75,16.22Z"/><path class="cls-17" d="M418.68,554.14c1.68-1.71,3.78-2,6-1.76C423.17,554.58,420.86,554.14,418.68,554.14Z"/><path class="cls-16" d="M146.81,554.41c2.32-.18,4.57-.11,6.4,1.62C150.92,556.11,148.51,556.66,146.81,554.41Z"/><path class="cls-17" d="M412.13,556c1.88-1.79,4.21-1.92,6.61-1.85C417.09,556.72,414.55,556.11,412.13,556Z"/><path class="cls-17" d="M404.33,558c1.81-1.76,4.07-1.89,6.4-1.76C409.09,558.66,406.65,558.13,404.33,558Z"/><path class="cls-17" d="M396.19,560c1.89-1.66,4.16-1.86,6.53-1.66C401,560.69,398.54,560.12,396.19,560Z"/><path class="cls-16" d="M320.77,12.2c-2,2.58-4.06,2.51-6.11,0Z"/><path class="cls-16" d="M242.79,8.2c-1.49,2.23-3.8,1.93-6,1.94C238.24,7.82,240.6,8.26,242.79,8.2Z"/><path class="cls-17" d="M366.74,4.13c-2.22,0-4.53.31-6-1.92C362.9,2.25,365.26,1.81,366.74,4.13Z"/><path class="cls-17" d="M346.8,2.21c-1.51,2.24-3.83,1.89-6.05,1.87a1.17,1.17,0,0,1-.43-1.26c.14-.42.29-.63.44-.63Z"/><path class="cls-16" d="M290.73,4.13c-2.22,0-4.53.3-6.05-1.91C286.88,2.26,289.25,1.8,290.73,4.13Z"/><path class="cls-16" d="M268.79,2.2c-.9,1.55-2.39,1.94-4,2C265.62,2.57,267.13,2.23,268.79,2.2Z"/><path class="cls-16" d="M296.72,6.09a4.12,4.12,0,0,1-4-1.88C294.33,4.22,295.82,4.51,296.72,6.09Z"/><path class="cls-17" d="M338.77,4.2a4,4,0,0,1-4,1.88C335.68,4.52,337.16,4.22,338.77,4.2Z"/><path class="cls-17" d="M372.76,6.17c-1.66,0-3.15-.39-4.08-1.95C370.35,4.22,371.86,4.55,372.76,6.17Z"/><path class="cls-16" d="M302.73,8.1a4.08,4.08,0,0,1-4-1.9C300.35,6.22,301.84,6.53,302.73,8.1Z"/><path class="cls-17" d="M332.82,6.22c-.92,1.55-2.41,1.93-4.07,2C329.64,6.55,331.15,6.22,332.82,6.22Z"/><path class="cls-17" d="M376.74,8.14c-1.64,0-3.1-.38-4-2C374.4,6.22,375.88,6.56,376.74,8.14Z"/><path class="cls-16" d="M308.76,10.17c-1.66,0-3.15-.4-4.07-1.95C306.36,8.22,307.87,8.55,308.76,10.17Z"/><path class="cls-17" d="M328.74,8.18c-.87,1.59-2.34,2-4,2C325.62,8.58,327.1,8.22,328.74,8.18Z"/><path class="cls-16" d="M234.85,10.23a4.31,4.31,0,0,1-4.08,1.92C231.67,10.53,233.18,10.22,234.85,10.23Z"/><path class="cls-16" d="M312.73,12.11c-1.64,0-3.08-.37-4-1.93C310.39,10.23,311.86,10.55,312.73,12.11Z"/><path class="cls-16" d="M324.73,10.18c-.86,1.57-2.33,2-4,2C321.6,10.59,323.09,10.23,324.73,10.18Z"/><path class="cls-17" d="M384.75,12.22c-1.65-.05-3.11-.46-4-2C382.42,10.23,383.91,10.58,384.75,12.22Z"/><path class="cls-16" d="M228.88,12.24c-.94,1.55-2.44,1.95-4.11,2C225.64,12.55,227.18,12.22,228.88,12.24Z"/><path class="cls-16" d="M224.8,14.22c-.9,1.58-2.39,1.94-4,2C221.63,14.57,223.13,14.23,224.8,14.22Z"/><path class="cls-16" d="M392.82,14.22c-1.37,1.9-2.73,2-4.1,0Z"/><path class="cls-16" d="M194.74,18.14c-1.65,0-3.11-.38-4-1.93C192.37,16.23,193.86,16.54,194.74,18.14Z"/><path class="cls-16" d="M220.77,16.2c-.88,1.57-2.35,2-4,2C217.6,16.58,219.1,16.23,220.77,16.2Z"/><path class="cls-16" d="M162.85,18.23c-.09,1.63-.52,3.09-2.11,3.91C160.81,20.5,161.16,19,162.85,18.23Z"/><path class="cls-16" d="M216.8,18.22c-.88,1.58-2.37,2-4,2C213.61,18.57,215.12,18.23,216.8,18.22Z"/><path class="cls-16" d="M204.75,22.21c-1.66,0-3.15-.42-4.07-2C202.36,20.22,203.88,20.56,204.75,22.21Z"/><path class="cls-17" d="M430.73,22.11c-1.64,0-3.09-.36-4-1.92C428.37,20.22,429.86,20.54,430.73,22.11Z"/><path class="cls-17" d="M436.76,24.18c-1.66,0-3.15-.4-4.08-2C434.36,22.22,435.87,22.55,436.76,24.18Z"/><path class="cls-16" d="M148.85,24.23c-1.4,1.9-2.79,1.91-4.18,0Z"/><path class="cls-17" d="M440.76,26.17c-1.65,0-3.11-.41-4-2C438.41,24.22,439.9,24.57,440.76,26.17Z"/><path class="cls-16" d="M122.88,26.24c-.95,1.54-2.45,1.92-4.12,2C119.65,26.54,121.18,26.22,122.88,26.24Z"/><path class="cls-17" d="M444.76,28.18c-1.65,0-3.11-.42-4-2C442.42,26.22,443.9,26.58,444.76,28.18Z"/><path class="cls-17" d="M448.74,30.24c-1.64-.07-3.11-.48-4-2.06C446.43,28.23,447.92,28.58,448.74,30.24Z"/><path class="cls-17" d="M454.76,34.19c-1.65,0-3.11-.42-3.94-2C452.44,32.23,453.92,32.59,454.76,34.19Z"/><path class="cls-16" d="M108.86,36.23a4.18,4.18,0,0,1-4.07,1.88C105.7,36.51,107.21,36.22,108.86,36.23Z"/><path class="cls-17" d="M474.74,38.13a4.21,4.21,0,0,1-4.06-1.9C472.33,36.22,473.84,36.53,474.74,38.13Z"/><path class="cls-17" d="M480.76,40.19c-1.67,0-3.17-.4-4.1-2C478.35,38.22,479.87,38.55,480.76,40.19Z"/><path class="cls-17" d="M484.74,42.13c-1.64,0-3.1-.38-4-1.94C482.39,40.22,483.87,40.55,484.74,42.13Z"/><path class="cls-16" d="M70.91,44.26a4.51,4.51,0,0,1-4.15,1.93C67.67,44.53,69.21,44.22,70.91,44.26Z"/><path class="cls-16" d="M66.75,46.19c-.88,1.56-2.35,2-4,2C63.61,46.58,65.1,46.23,66.75,46.19Z"/><path class="cls-16" d="M60.76,50.2c-.84,1.63-2.33,1.95-4,1.93C57.65,50.54,59.14,50.23,60.76,50.2Z"/><path class="cls-16" d="M52.9,52.25a4.31,4.31,0,0,1-4.12,1.88C49.7,52.51,51.23,52.22,52.9,52.25Z"/><path class="cls-16" d="M46.8,54.21a4.12,4.12,0,0,1-4,1.89C43.68,54.52,45.17,54.22,46.8,54.21Z"/><path class="cls-16" d="M40.83,56.22c-.92,1.55-2.4,1.93-4.06,1.94C37.66,56.54,39.17,56.22,40.83,56.22Z"/><path class="cls-16" d="M14.83,72.22c-.08,1.64-.5,3.1-2.08,4C12.8,74.52,13.16,73,14.83,72.22Z"/><path class="cls-16" d="M12.74,76.19c0,1.66-.4,3.15-2,4.09C10.79,78.6,11.11,77.09,12.74,76.19Z"/><path class="cls-17" d="M552.74,82.21c-1.58-.88-2-2.36-2-4C552.37,79,552.72,80.55,552.74,82.21Z"/><path class="cls-17" d="M554.72,86.28c-1.56-.92-2-2.42-2-4.08C554.4,83.07,554.73,84.59,554.72,86.28Z"/><path class="cls-16" d="M10.79,88.1c1.9,1.38,2,2.72-.06,4Z"/><path class="cls-17" d="M562.77,100.17c-1.58-.86-2-2.33-2-4C562.37,97,562.72,98.52,562.77,100.17Z"/><path class="cls-17" d="M564.76,104.19c-1.57-.88-2-2.35-2-4C564.38,101.06,564.73,102.54,564.76,104.19Z"/><path class="cls-17" d="M566.7,108.32c-1.54-1-1.92-2.46-1.94-4.13C566.41,105.1,566.73,106.62,566.7,108.32Z"/><path class="cls-17" d="M564.82,134.17a4.17,4.17,0,0,1,1.92-4C566.73,131.79,566.42,133.29,564.82,134.17Z"/><path class="cls-17" d="M564.74,140.2l-.86,0H563c-.59-.11-.88-.34-.86-.72s.11-.66.26-.66l2.29-2.73C564.71,137.45,564.73,138.82,564.74,140.2Z"/><path class="cls-17" d="M558.56,478.13a6,6,0,0,1,2.09-4.23C560.73,475.69,560.47,477.32,558.56,478.13Z"/><path class="cls-17" d="M528.79,504.21a4.65,4.65,0,0,1,3.8-2.44C532,503.7,530.52,504.13,528.79,504.21Z"/><path class="cls-17" d="M522.79,508.21a4.54,4.54,0,0,1,3.81-2.42C526,507.7,524.52,508.13,522.79,508.21Z"/><path class="cls-17" d="M516.63,512.11a4.6,4.6,0,0,1,4-2.34C520,511.81,518.43,512.13,516.63,512.11Z"/><path class="cls-17" d="M513,514.29c.2-.56.38-1.12.54-1.69l3.2-.54C516,513.72,514.58,514.15,513,514.29Z"/><path class="cls-17" d="M506.55,518.05a4.61,4.61,0,0,1,4.07-2.24C510,517.85,508.37,518.14,506.55,518.05Z"/><path class="cls-17" d="M502.69,520.15a4.64,4.64,0,0,1,4-2.19C505.94,519.77,504.42,520.15,502.69,520.15Z"/><path class="cls-17" d="M498.77,522.2a4.3,4.3,0,0,1,4-2.08C501.93,521.79,500.44,522.16,498.77,522.2Z"/><path class="cls-17" d="M494.9,524.26a4.54,4.54,0,0,1,3.86-2C498,523.78,496.5,524.17,494.9,524.26Z"/><path class="cls-17" d="M490.89,526.26a4.33,4.33,0,0,1,3.9-2C493.92,525.81,492.48,526.18,490.89,526.26Z"/><path class="cls-17" d="M484.74,528.06c.66.14,1.31.25,2,.33-.92,1.52-2.4,1.79-4,1.77Z"/><path class="cls-16" d="M76.87,529.85c1.7.09,3.25.47,4.16,2.12C79.2,532.14,77.58,531.88,76.87,529.85Z"/><path class="cls-17" d="M478.67,532.14a4.54,4.54,0,0,1,4.07-2C481.88,531.82,480.37,532.17,478.67,532.14Z"/><path class="cls-17" d="M474.55,534.05c.94-1.63,2.49-1.93,4.18-1.94C477.84,533.84,476.3,534.16,474.55,534.05Z"/><path class="cls-17" d="M470.1,536c1.13-1.59,2.8-1.93,4.59-2C473.76,536,472,536.14,470.1,536Z"/><path class="cls-17" d="M464.69,538.15a4.11,4.11,0,0,1,4-1.75C467.78,537.91,466.3,538.18,464.69,538.15Z"/><path class="cls-16" d="M94.8,538a5.66,5.66,0,0,1,4.71,1.91C97.61,540.13,95.81,540.05,94.8,538Z"/><path class="cls-17" d="M460.49,540c1-1.59,2.56-1.87,4.25-1.86C463.84,539.93,462.26,540.16,460.49,540Z"/><path class="cls-16" d="M100.8,540.33c1.65-.08,3.18.16,4.14,1.73C103.28,542.16,101.76,541.91,100.8,540.33Z"/><path class="cls-17" d="M450,543.93a5.59,5.59,0,0,1,4.78-1.8C453.65,544.07,451.86,544.14,450,543.93Z"/><path class="cls-17" d="M444.22,546a4.83,4.83,0,0,1,4.51-1.66C447.66,546.06,446,546.16,444.22,546Z"/><path class="cls-17" d="M438.54,548c1-1.58,2.5-1.82,4.18-1.65C441.72,547.94,440.2,548.17,438.54,548Z"/><path class="cls-17" d="M426.36,552c.25-.55.51-1.11.76-1.67l3.59,0C429.66,552,428.07,552.17,426.36,552Z"/><path class="cls-17" d="M487.86,528a3.25,3.25,0,0,1,2.93-1.65A3.47,3.47,0,0,1,487.86,528Z"/><path class="cls-16" d="M56.67,518.22,54.6,516.4l.18-.23c1.63-.57,2.21.23,2.23,1.73Z"/><path class="cls-17" d="M510.42,516a2.34,2.34,0,0,1,2.39-1.63Z"/><path class="cls-17" d="M520.38,510a2.45,2.45,0,0,1,2.39-1.76A3,3,0,0,1,520.38,510Z"/><path class="cls-17" d="M526.39,506a2.43,2.43,0,0,1,2.38-1.77Z"/><path class="cls-17" d="M532.38,502a2.53,2.53,0,0,1,2.34-1.9A2.89,2.89,0,0,1,532.38,502Z"/><path class="cls-17" d="M540.39,496a2.6,2.6,0,0,1,2.31-2A2.86,2.86,0,0,1,540.39,496Z"/><path class="cls-17" d="M542.59,494.12a2.53,2.53,0,0,1,2.18-1.89Z"/><path class="cls-16" d="M8.8,116l1.9,2.13Z"/><path class="cls-17" d="M560.75,96.22l-1.91-2Z"/><path class="cls-16" d="M10.7,92.18,8.78,94.29Z"/><path class="cls-17" d="M558.69,92.38l-2-2.16Z"/><path class="cls-17" d="M556.73,90.25l-1.88-2Z"/><path class="cls-17" d="M550.74,78.23l-1.89-2Z"/><path class="cls-17" d="M548.71,74.34l-2-2.15Z"/><path class="cls-17" d="M546.76,72.2l-1.91-2Z"/><path class="cls-16" d="M16.8,70.21l-2,2Z"/><path class="cls-16" d="M18.81,68.21l-2,2Z"/><path class="cls-16" d="M20.93,66.24l-2.15,2Z"/><path class="cls-17" d="M542.71,66.34c-.67-.71-1.33-1.42-2-2.12Z"/><path class="cls-16" d="M24.76,64.19l-2,1.9Z"/><path class="cls-17" d="M540.73,64.24l-2-2Z"/><path class="cls-16" d="M26.92,62.24l-2.16,1.95Z"/><path class="cls-17" d="M538.73,62.24l-2-2Z"/><path class="cls-16" d="M30.89,60.23l-2.11,1.89Z"/><path class="cls-17" d="M536.73,60.25l-2.14-2Z"/><path class="cls-16" d="M34.91,58.24l-2.13,1.88Z"/><path class="cls-17" d="M532.73,58.08l-2-1.89Z"/><path class="cls-17" d="M530.76,56.17l-2.14-1.94Z"/><path class="cls-17" d="M526.74,54.1l-2.08-1.88Z"/><path class="cls-17" d="M522.73,52.09l-2.12-1.85Z"/><path class="cls-16" d="M62.78,48.2c-.68.66-1.35,1.33-2,2C61.43,49.53,62.1,48.86,62.78,48.2Z"/><path class="cls-17" d="M496.74,48.13l-2.09-1.91Z"/><path class="cls-17" d="M492.73,46.08l-2.07-1.86Z"/><path class="cls-17" d="M488.74,44.11l-2.12-1.87Z"/><path class="cls-17" d="M450.77,32.13l-2-1.92Z"/><path class="cls-16" d="M160.71,22.18l-1.92,1.91Z"/><path class="cls-16" d="M212.82,20.22l-2.07,1.93Z"/><path class="cls-16" d="M198.73,20.09l-2.1-1.86Z"/><path class="cls-16" d="M164.94,16.25l-2.14,2Z"/><path class="cls-16" d="M168.85,14.21l-2.06,1.89Z"/><path class="cls-16" d="M388.74,14.23a14.7,14.7,0,0,1-2-.17,1.12,1.12,0,0,1-.45-1.24q.22-.63.45-.63Z"/><path class="cls-17" d="M386.76,12.19v1.87l-2-1.85Z"/><path class="cls-17" d="M380.76,10.18l-2.17-1.93Z"/><path class="cls-16" d="M264.78,4.2l-2,2Z"/><path class="cls-16" d="M340.76,2.19c0,.63,0,1.26,0,1.89a11,11,0,0,1-2,.12Z"/><path class="cls-18" d="M432.76,40.19c9.91-.35,17.23,4,22.2,12.42,2.81,4.79,5.93,8.83,12.48,7.66,2.43-.44,5.21.44,5.61,3,1.09,7,7.27,6.67,11.71,8.89,1.93,1.29,4.17,2.46,4.83,4.82,1.58,5.69,4.88,7.72,11,7.34,6.89-.44,10.07,4.45,8,10.44A42.52,42.52,0,0,0,507,116.11c.9,5.6-1.32,10.39-6.56,13.44-4.95,2.88-9.45,2.31-13.71-1.34-4.64-4.49-11.31-4.07-16.85-6.71-6.37-3-11.74-8.44-19.13-9.33-5.23-6.91-13.33-4.11-20.07-6a4,4,0,0,1-.5-2.67,10.54,10.54,0,0,1,1.12-2.52c1.73-3.25,6.86-4.32,5.88-9.26a10.13,10.13,0,0,0-2.09-2.89c-2.33-2.37-6.17-2.9-7.66-6.29-8.62-6.94-18.64-12.91-12.29-27.08,1.61-3.59-5.05-7.83-1.77-12.75C419.47,39.05,425.62,35.89,432.76,40.19Z"/><path class="cls-19" d="M432.77,180.21c2.33,6.58.44,13.11-1,19.37-1.53,6.7-6.67,9-13,6.18A17.52,17.52,0,0,0,408.53,204c-5.62.77-10.56-2.31-14.36-5.83-4-3.68-7.1-3.3-11.41-1.16-6.09,3-12.47,4.8-18.58-.39-.64-.54-2.17-1.06-2.54-.73a104.77,104.77,0,0,0-7.86,7.48c-1.28,1.37-.4,3.06-.12,4.7,1.52,9.15-5.38,15.83-14.68,13.75-7.53-1.7-14.78-4.27-17.81-12.65-1.3-3.59-3.4-4.75-7.7-3.71-6,1.45-8.46-.36-10.61-6.06-2.64-7-3.5-14.14-.09-21.23,5-1.23,7.93,2.67,11.48,4.81,8.9,5.35,18.07,10,28.37,11.92,4.14.79,8.1.25,11-3.15s.64-6.93-.9-10.18c-2.42-5.12-5.16-10.08-7.5-15.24-1.51-3.32-3.27-6.71-.61-10.32,3.32-2.46,6.37-1.15,9.08,1,8.92,7,17.8,5.52,26.81.25,2.46-1.44,5.17-4.72,7.88-2.62,3.26,2.52.63,6.16-.59,9.08a28.14,28.14,0,0,0-1.28,19.43c1.35,4.49,4,5.8,8.18,2.9a47.67,47.67,0,0,0,9.94-9.66c4-5,8.65-7.35,14.42-2.6,3.74,3.07,8.61,3.32,12.76,5.34C432.12,179.48,432.45,179.84,432.77,180.21Z"/><path class="cls-19" d="M432.76,40.19c-7.16-1.11-13.34,2.7-20,4-.83,1.95-2.56,4-4.32,3.24-8.12-3.42-18.48-.14-25-8.3-12.81-10.07-14-10.16-25.87.85-4.8,4.44-8.14,4.06-14.61,1.44C325.43,34.35,308.25,23.06,287.6,30c-3.47,1.16-7.26.83-10.93.47-18.6-1.79-21.26-.08-27.63,17.81a11.06,11.06,0,0,1-1.44,2.49c-1.82,1.79-4.47,3-6.07.93-6.83-8.86-16.65-6-25.45-6.93-4.24-.46-8.72.48-12.77-1-15.31-5.46-26.45,2.75-37.65,11a15,15,0,0,1-2.34,1.8c-3.14,1.87-6.66,3-9.83,4.72-5.12,2.84-9.42,2.44-13-2.44-5.89-8.09-16.12-6.5-23.77-10.66,6.25-6.35,13.95-8.31,22.63-8.07,8,.23,16-.49,23.47,3.09,4.25,2,7.64.53,10.66-2.73,2.7-2.92,5.5-5.71,9.33-7.31,11.3-4.7,22-4.56,31.63,3.82,2.49,2.18,4.66,3.79,7.66,1,1.24-1.17,3.11-2.28,4.52-1.56,7.74,3.91,11.7-2.19,17.27-5.45,13.2-7.74,27-14.48,43.14-12.76a23,23,0,0,0,3,0c6.25-.14,11.2,3.68,16.77,5.35s11.59-2.79,17.54-1.05c4.46,1.3,8.89,3.11,12.14,6.57,2.88,3.07,5.67,2.93,8.8.86,5.25-3.48,11.08-4.05,17.18-3.78,3.29.15,6.66.45,9.87-.8,4.29-1.68,8.39-1.72,12.19,1.35,2.26,1.83,5,1.48,7.66,1.49,5.65,0,11.31.15,16.95,0C419.27,27.86,427.18,31.69,432.76,40.19Z"/><path class="cls-19" d="M430.44,103.91c1.87,2.59,4.95,3.26,7,1.56,5.93-5,8.58-1.43,11.17,3.44a37.22,37.22,0,0,0,2.2,3.26c-4.17.38-7.76-1.68-11.53-2.84a5.22,5.22,0,0,0-5.5,1c-3.37,2.85-3.07,6.25,1.06,7.51a83.35,83.35,0,0,0,11.66,2.37c9.41,1.45,18.27,3.45,22.69,13.54,1.62,3.7,6,3.78,9.47,4.41A59.63,59.63,0,0,1,504,148.91c3.66,2.72,6.9,6.36,6.2,10.71s1.44,5.65,4.23,7.71c4.11,3,3.9,6.36,0,9.75-7.91,6.93-18.41,6.83-26.19-.4-3.16-2.94-6.36-5.88-8.37-9.35-2.62-.4-3.28,1.33-4.19,2.62-3.37,4.76-7.77,6.71-13.71,6.35-6.93-.42-13.88-.65-20.43,3.09-2.34,1.33-5.85.61-8.83.82v0c-3.8-6.21-3.22-13.33-4.08-20.12-.25-1.94.21-4.28,2.08-5.3,2.72-1.48,4.21,1.06,5.7,2.63,3.41,3.59,6.18,7.8,10.44,10.55,4.91,3.17,7.86,2.15,9.16-3.83,3.71-17,2-20.77-12.86-30.21-5.87-3.73-12.72-5.66-18-10.3-1.67-4.15,1.11-10.4-5.73-12.11a3.63,3.63,0,0,1-1.4-2.14c.16-2,1.79-2.78,3.21-3.71a17.86,17.86,0,0,1,2.2-1.18C425.72,103.63,428,102.19,430.44,103.91Z"/><path class="cls-19" d="M274.76,184.2a32.16,32.16,0,0,1-14.15,12.12c-5.55,2.61-11.16,3-16.12-.46-3.67-2.6-6.16-2.49-9.6.13a11.3,11.3,0,0,1-11.41,1.43c-4.72-1.95-9-1.3-13.39,1.05-3.9,2.11-7.25,2.5-7.31-3.43,0-4.31-3-5.63-6.27-6.62a83,83,0,0,1-16.62-6.64c-3.54-2-6.81-1.62-10.44,0-6.23,2.81-12.52,6.89-19.52,1.66a1.33,1.33,0,0,0-1-.08c-17.68,4.17-26.7-8-36.24-19.17,7-4.25,15.71-3.71,22.71-8,4.92-2.3,9.82-3.78,15.06-.65,3.07,1.83,6.41.9,9.66.23,2.91-.59,4.74.36,6.45,3.08,6.24,9.94,14.32,12.29,24.91,7.33,4.14-1.93,7.94-4.53,9.73,2.36.41,1.27-.16-.3.28,1,10.36,29.45,14.81,23.23,30.6,8.88a69.08,69.08,0,0,1,16.2-11.47,14.63,14.63,0,0,1,2.76-.75c4.07-.45,8.38-.13,10.27,3.79,2.88,5.95,8.75,8.46,12.94,12.85C274.47,183.27,274.61,183.74,274.76,184.2Z"/><path class="cls-5" d="M492.71,206.41l10.14-4.16c5.19.7,4.3,5,4.51,8.24a43.91,43.91,0,0,1-2.92,18.08c-3.56,4.7-6.58.8-9.14-1-4.41-3.17-7-1.76-11.07,1.32-13.07,10-19.25,22.8-19.26,39,0,3.94-1.47,7.76-2.22,11.66-7.53,38.88-15.83,77.57-27.33,115.51-1.74,5.74-3.83,11.34-5.92,16.95-1,2.76-2,6.14-5.67,6.07-3.17-.06-3.76-3.34-4.95-5.6a22.75,22.75,0,0,1-2-5.63,15.58,15.58,0,0,1-.13-5c12.84-42.42,23.1-85.54,34.11-128.46,4-18.2,8-36.4,11.58-54.68,1.7-8.73,5.1-12.81,14.47-11.7C482.05,207.64,487.51,208.15,492.71,206.41Z"/><path class="cls-19" d="M486.75,128.21c1.92.48,3.84,1.39,5.75,1.36,9.78-.17,15-8.09,11.46-18.27-1.75-5-3.86-9.08,1.37-13.11,1.64-1.27,1.39-3.62,1.41-5.62.06-5.28-1.35-6.74-6.38-6.23a35.86,35.86,0,0,0-4.77,1.29c-3.77.94-6.79.5-6.78-4.34,0-4.24-2.5-7.47-4.05-11.1A21.37,21.37,0,0,1,500.9,79c4.61,5.16,9.5,5.23,15.13,5.21,10.43,0,19.4,3.36,26.79,11,2.44,2.5,3.58,5.42,4.82,8.53s1.16,6-1.57,8.06c-4.1,3.06-4.07,6.94-3.4,11.41a16.85,16.85,0,0,1-2.17,11.55c-4.4,7.15-11.23,8.85-18.16,4-2.59-1.84-4.61-2.6-6.89-.1-4.76,5.22-9.92,4-15.43,1.34A32,32,0,0,1,486.75,128.21Z"/><path class="cls-20" d="M36.79,366.22c10.88.18,21-3.36,30.65-7.57,18-7.84,34.2-18.5,49.42-31.17,26.49-22,45.81-49.37,62.35-79.05,1.73-3.11,2.39-6.81,3.55-10.24.06-4.86,2.49-9,4-13.43,3-4.41,1.69-12.29,9.94-12.53,11.7,7.67,24.56,12.58,38,16.07,1.41,7.27-1.59,13.13-5.94,18.57-10.42,3.36-21.13,3-31.36.24-7.82-2.12-11.42.2-14.84,6.93-15.11,29.8-33.18,57.62-57.75,80.61-17.69,16.55-37.66,29.4-61.81,34.7a64.12,64.12,0,0,1-18.82,1.23C41.26,370.35,37.06,371.36,36.79,366.22Z"/><path class="cls-21" d="M54.75,148.2a52,52,0,0,1-15.69-5.92c-8.51-4.93-9.69-8.18-5.73-17.62,1.15-2.74.49-4.35-1.25-6.11-3.27-3.28-6.57-6.54-9.81-9.86C13,99.24,14.08,89.38,25.4,83c4.18-2.36,7-6,10.27-9.1a33.06,33.06,0,0,1,25.08-9.71l.91,1.23c.22,9.27-1.09,18.57.31,27.82.64,4.24-2.06,6.66-4.64,9.35-12.14,12.65-12,18.9.86,30.61,4.9,4.46,7,9.42,4.13,15.82C59.6,150.53,57.13,149.78,54.75,148.2Z"/><path class="cls-22" d="M502.74,230.19c-.46-4.71,1.4-9.13,1.73-13.66.34-4.7,2-9.9-1.62-14.28.77-1.05,1.9-2,2.25-3.18,2.62-8.84,9.34-11.9,17.66-12.83,3,3.09,1.76,6.78,1.6,10.38-.75,16.28-5,32.07-6.61,48.21-1,8.82-.33,18.1-7,25.38,0,1.33,0,2.65,0,4-1.29,1-.78,2.93-2,4,0,1.34,0,2.67,0,4-1.29,1-.78,2.93-2,4,0,1.34,0,2.67,0,4-1.29,1-.78,2.94-2,4l0,4c-.74.58-1.27,1.37-2,2-2.09,9.51-2.91,19.38-8,28-5.47-5.19-7.56-12.46-11.46-18.63a12.88,12.88,0,0,1-.11-6.26c5.29-21.58,10.86-43.1,14.79-65C498.58,235.05,499.09,231.7,502.74,230.19Z"/><path class="cls-23" d="M22.75,282.19c12.6,6.8,24.57,5.4,36.49-2.14,16-10.1,25.64-25.43,35-41,3.24-5.37,5.69-11.22,8.51-16.85.86-2.17.49-4.53,1.14-6.78,4.25-14.8,5.66-15.92,21.09-16.2,1.94,0,4,.44,5.72-.91.93-.26,2.33-1.05,2.72-.7,8.05,7.06,17.69,5.09,27,4.88,3.92-.08,7.83-.36,11.74-.54,9.92-.89,10.66-.08,8.06,9.05a43.78,43.78,0,0,1-3.65,9.24c-.69,1.12-1.69,3.07-2.5,2.87-9.74-2.43-19.78,5.29-29.35-.9-5.3,0-10.55.25-15.49-2.6-4.56-2.63-9.77-1.24-14.7-1.3-4.08,0-5.7,3.1-6.88,6.25-6.59,17.53-16,33.43-27.24,48.36C66.53,291.4,43,294.4,25.05,286.27,23.57,285.6,20.74,285.09,22.75,282.19Z"/><path class="cls-24" d="M408.73,218.34l39.85-4.28c4.44-.28,3.72,3.19,3.28,5.37-2.79,13.77-4.8,27.75-10.35,40.81-7.46,2.42-15.35,2.6-23,3.8s-15.17,1.59-21.89,5.82c-2.17-2.26-2.23-5.05-2-7.92,1.85-11.38,3.33-22.82,5-34.22C400.42,222,403,218.9,408.73,218.34Z"/><path class="cls-6" d="M312.76,236.24c6.52-4,14-2.51,21-3.44,17.94-2.38,35.75-5,53-10.82,3.22,3.15,3.16,7.26,2.31,11-2.06,9.15-1.47,19-6.82,27.31-5.51,3.81-11.43,2.21-17.28,1.21-5.56-.94-11.26-1.7-16.45-3.79-13.45-5.39-24.43-1-34.58,7.68a3.3,3.3,0,0,1-3.6.79C307.09,255.89,310.09,246.08,312.76,236.24Z"/><path class="cls-21" d="M116.75,48.19c11.24-1,20.94,1.75,27.77,11.41,1.44,2,2.76,2.07,4.93.91,4.33-2.31,8.87-4.22,13.33-6.3,2.81,7-1.32,12.83-3.48,18.82-1.58,4.41-5.08,4-7.52.47-4.64-6.62-8.58-5.75-13,.28-2.55,3.48-6,3.68-9.57,1-2.37-1.82-4.69-3.7-7.19-5.35-8.57-5.62-10.92-5.53-17.29,2.72-3.66,4.74-6.14,5.31-9.51,0-1.55-2.44-3.56-5.75-6.86-4.82-4.11,1.16-2.71,5.44-3.12,8.56-.62,4.77,1.9,12.31-3,13.54-5.82,1.46-5.68-6.75-8.06-10.7a53.18,53.18,0,0,0-13.4-14.51l0,0c6.57-10.32,15.77-15.29,28.14-14a13.17,13.17,0,0,0,5.85-.37C102,47,109.32,47.33,116.75,48.19Z"/><path class="cls-18" d="M344.77,156.2c-.16,7.07,4.68,12.18,7.14,18.22,1,2.44,2.43,4.69,3.47,7.12,1.61,3.73,5.45,7.36,1.24,11.64-3.94,4-8.7,6-14.38,4.56A89.45,89.45,0,0,1,316,186.85c-4.46-2.8-8.81-5.77-13.21-8.67,0-.66,0-1.32,0-2-.53-.81-.56-2.11-2-2h-2c-5.78-2.83-8.74-7.7-10-13.82,3.86-3.84,9.16-5.48,13.69-3.75,13,4.95,25.36,2.42,37.91-1a8.39,8.39,0,0,1,3-.08Z"/><path class="cls-25" d="M516.75,246.19c.21-12.22,2.4-24.24,3.5-36.36.72-7.88,1.9-15.71,2.51-23.59,5.49-3,11.18-5.6,16.45-8.92,9.74-6.13,16.16-14.6,15.82-26.69-.16-5.85,3.18-9,7.38-11.83a2.12,2.12,0,0,0,.6,1.38c0,1.95,0,3.91,0,5.86-4,5.57-2.65,12.57-5.24,18.69-5,11.81-7.59,24.66-16.44,34.68a11,11,0,0,0-2.54,7.39c.08,9.85-5.26,16-13.88,19.63-2.4,1-4.14,2.63-3.93,5.12.43,5.11-2.29,9.65-2.2,14.64l-1,.52Z"/><path class="cls-21" d="M54.75,148.2h8c8.21-.59,16.48-1.93,23.8,3.74,2.31,1.79,5.13,1,7.49-.48,4.27-2.73,7.85-5.35,13-.34,3.61,3.53,5.34-1.83,7.23-4.07,3.1-3.66,3.68-10.86,9.27-10.58,5,.26,4.44,7.33,6.94,11.06,2.28,3.39,6.61,5.73,6.3,10.67-7.49,4.05-15.28,6.92-24,6-6.49-.69-12.29,1-18.17,3.9-11.44,5.6-19,3.59-26.24-7C64.64,155.7,57.58,154.24,54.75,148.2Z"/><path class="cls-26" d="M440.73,260.18c1-12.06,5.77-23.35,7.32-35.25.45-3.48,4.42-7.12.53-10.87,4.5-2.46,10.13-2.43,13.86-6.82.93-1.09,3.72-.78,5.66-.8,8.2-.07,16.41,0,24.61,0-5.49,3.7-11.65,1.65-17.46,1.68-5.56,0-7.71,1.33-9,7.41-3.93,18.77-8.31,37.45-11.8,56.32-.16.87-1.11,1.59-1.69,2.38-3.71-4.33-8.33-7.69-12.44-11.6A2.07,2.07,0,0,1,440.73,260.18Z"/><path class="cls-27" d="M257,228.07l39.79,10.33c6.45,6.56,3.13,12.65-.88,18.71-10.67,1.14-18.33-6.44-27.5-9.66-5.89-2.07-11.09-7.71-17.06.48-2.18,3-5.35.6-6.51-2.86C245,230.7,247.22,227.61,257,228.07Z"/><path class="cls-28" d="M380.76,260.18c2.86-12.6,6.37-25.09,6-38.2a57.1,57.1,0,0,1,22-3.64c-3.33,2.06-5.56,4-6.33,8.81-1.88,11.67-2,23.67-5.65,35-4.86,3.58-10,3.35-15.25,1A2.16,2.16,0,0,1,380.76,260.18Z"/><path class="cls-29" d="M130.73,198.3c-3.27,3.28-7.42,1.8-11.16,1.81-4.82,0-7.44,1.45-9.43,6.37-2.14,5.3-2.74,11.53-7.36,15.71-5.92-1.42-11.48-6.11-18-2-1.72,1.87-3.91,2.05-6.24,1.75a16.43,16.43,0,0,1-2.6-.63c-2.46-.94-5.28-.95-7.39-2.82-.9-2.27.84-3.2,2.22-4.3,5.59-.75,10.47-4.19,16.3-4.1,3,.05,4.78-1.91,6-4.51,1.36-3,3.46-5.69,3.7-9.15C108,198.51,119.36,198.27,130.73,198.3Z"/><path class="cls-30" d="M294.77,256.2c2.43-5.73,4.3-11.53,2-17.8,5.36-.51,10.92.47,16-2.16,1.31,6.5.41,13-.93,19.28a56.55,56.55,0,0,0-1.06,10.65,1.79,1.79,0,0,1-.24,2.46,3.38,3.38,0,0,1-2.66-.51c-2.94-5.48-9.45-4.82-13.75-8A3.39,3.39,0,0,1,294.77,256.2Z"/><path class="cls-31" d="M174.74,220.18c1-3.36,2-6.73,3.07-10.08,2.27-7.25,2.28-7.25-5.61-8.16a31.14,31.14,0,0,1,3.52-1.52c6.39-2,11.7-1.54,15,5.55,1.16,2.47,3.92,4.2,5.95,6.26-5.72,2.92-5.16,9.41-7.95,14C182.74,227.3,178.87,223.44,174.74,220.18Z"/><path class="cls-32" d="M257,228.07c-4.39,0-7.8,1-8.35,6.39-.4,3.92-2.48,7.61-1.89,11.72a8.13,8.13,0,0,1-2.64,1.81c-4.8,1-9.57,1.33-14.23-.67l-1.14-1.14,6-17.88c3.47-.39,6.94-.14,10.4-1.31C249.07,225.65,253.26,225.28,257,228.07Z"/><path class="cls-19" d="M288.76,162.19c6.28,1.54,6.09,8.48,10,12-7.5,4.53-14.44,10.41-24,10v0c1.72-8.67,7.94-14.7,12.7-21.58Z"/><path class="cls-19" d="M300.76,174.19c.77-1.2,1.37-3.57,3.11-2.2,1.31,1-.78,2.73-1.11,4.2Z"/><path class="cls-33" d="M534.74,288.18c-.8,2-2.1,3.75-2,6-.44,19.48-8.71,37.25-12.27,56.06-4.24,22.45-9.72,44.67-9,67.78.17,5.66.49,11.24,2.06,16.69.63,2.58-.07,5-.8,7.47-.12,2.26,1.17,4.05,2,6,2.33,7-3,9.11-7.63,9.86-5.07.81-5.15-4.57-5.5-7.75-1.79-16.23-5.48-32.36-3-45.14-2.09,13.73-9.91,28.69-19.84,42.73-1.32,1.87-3.42,3.19-6.07,2.3,0-1.33,0-2.66,0-4,1.29-1,.77-2.94,2-4,4.33-17.3,8.72-34.59,12.95-51.92,3.21-13.14,6.17-26.35,9.3-39.51a25.05,25.05,0,0,1,1.83-5.67c4.94-9.75,4.22-20.55,5.93-30.9,1.92-1.58.19-4.38,2-6v-4c1.28-1,.77-2.94,2-4v-4c1.92-1.58.19-4.38,2-6q0-3,0-6c1.28-1,.77-2.94,2-4,0-2,0-4,0-6,2.08-9.32,1.11-19.28,6-28h0c6.28,1.36,10.1,6.91,15.81,9.32,2,.85,1.38,3.14,1.07,5.22-1.08,7-3.66,13.9-2.91,21.21C533,284.2,532.59,286.57,534.74,288.18Z"/><path class="cls-8" d="M472.75,450.19C482.13,443,485.67,432,490.42,422c3.62-7.65,6.07-15.84,9.73-23.71-.17,19.58,2.09,38.79,5.06,58.84,4.25-2.37,9.09-3.05,9.55-8.92,8.93,6.15,17.92,5.78,26.86.08,3.3-2.11,6.45-4.45,11.23-7.76C552,452,550.23,461.73,546.32,471c-8.7,20.64-19.9,18.42-32.11,3.36a54,54,0,0,1-6.33-10.09c-2.26-4.6-4.6-3.86-7.44-.76-5.14,5.61-11.21,10.32-15.26,17-3.31,5.47-10.55,7.47-16.39,5.32-2.89-1.06-4.64-3.43-3.78-6.19C468,469.93,468,459.43,472.75,450.19Z"/><path class="cls-34" d="M484.76,310.19c5.68,4.71,7.92,11.33,10,18,0,10.47-4.38,20-7.1,29.78-7.33,26.42-15.56,52.6-21.57,79.38-2.59,11.57-4.91,23.2-7.36,34.81-1.85,8.64-9.43,10.74-16,14-6.12-7.91-2.84-16.68-1.43-24.79C447,429,456.51,397.5,465.64,365.93c4.43-15.3,8.64-30.68,13.26-45.93C480,316.3,480.33,312,484.76,310.19Z"/><path class="cls-34" d="M512.73,438.21c-3.21-5.27-3.88-11-4.11-17.1-1-26.41,4.82-51.85,10.59-77.29,3.8-16.73,8.19-33.31,13.56-49.63,3.11,4.55,2.85,10,3.9,15.07.82,3.91,1.46,7.76,4.09,10.94,0,8.37-3.33,16.05-5.07,24.06-5.17,23.75-11.07,47.38-10.93,71.93,2,12.6,2,12.59,13.78,5.73,1.91-1.12,3.66-2.93,6.23-1.73,2.91,7.77,3,7.93-3.09,12-6.55,4.36-13.84,7.66-18.93,14h-2a3.49,3.49,0,0,0-2-1,4.13,4.13,0,0,1-2-1h0c-.64-.69-1.3-1.35-2-2h0C513.73,441,511.39,440.55,512.73,438.21Z"/><path class="cls-8" d="M518.76,246.19c-2.28,9.28-1.66,19.17-6,28,0-1.63-.37-3.13-2-4,2.61-7.85,2.08-16.49,6-24Z"/><path class="cls-8" d="M510.75,290.19c-.06,2.2.37,4.56-2,6C508.83,294,508.4,291.63,510.75,290.19Z"/><path class="cls-8" d="M506.75,308.19c-.06,2.2.36,4.56-2,6C504.83,312,504.4,309.63,506.75,308.19Z"/><path class="cls-8" d="M512.73,438.21q1,2,2,4h-2C510.73,440.88,510.68,439.55,512.73,438.21Z"/><path class="cls-8" d="M508.78,278.19c0-1.65.37-3.14,2-4C510.72,275.83,510.38,277.32,508.78,278.19Z"/><path class="cls-8" d="M512.75,280.19c0,1.65-.37,3.14-2,4C510.79,282.55,511.14,281.05,512.75,280.19Z"/><path class="cls-8" d="M506.78,286.19c0-1.65.37-3.14,2-4C508.72,283.83,508.38,285.32,506.78,286.19Z"/><path class="cls-8" d="M504.78,294.19c0-1.65.37-3.14,2-4C506.72,291.83,506.38,293.32,504.78,294.19Z"/><path class="cls-8" d="M508.75,300.19c0,1.65-.37,3.14-2,4C506.79,302.55,507.14,301.05,508.75,300.19Z"/><path class="cls-8" d="M474.75,442.19c0,1.65-.38,3.14-2,4C472.79,444.54,473.14,443.05,474.75,442.19Z"/><path class="cls-15" d="M518.75,444.21l2,2c-.66,0-1.33,0-2,0a1.27,1.27,0,0,1-.45-1.32C518.45,444.43,518.6,444.21,518.75,444.21Z"/><path class="cls-8" d="M518.75,444.21c0,.66,0,1.32,0,2l-2-2Z"/><path class="cls-8" d="M514.75,442.2l2,2Z"/><path class="cls-8" d="M502.78,300.19l2-2Z"/><path class="cls-35" d="M174.74,220.18c5.87-.78,9.1,4.57,14,6-2.38,3.8-2,9-6,12-3.14-1.42-5-4.31-7.5-6.48-3.53-3.07-6.21-3-7.51,1.18-2.3,7.48-7.35,13.33-10.57,20.24-10.56,22.58-26.82,40.92-44.54,58-5.18,5-12.78,6.87-17.84,12.67,8-15.33,17.75-29.49,24.79-46.43-4.6.6-5.55,3.07-7,5.09C104.2,294,97.66,306.71,87.35,316.91a30.34,30.34,0,0,1-22.09,9.25c-8.32.12-16.63,0-25,0-2.72,0-5.69.07-6.62,3.16s1.77,5.11,3.85,6.35c7.36,4.4,15.49,5.41,23.88,3.88,2.49-.45,4.81-2.22,8.19-.29-9.16,5.74-19.17,7.9-28.86,10.88-1.91-2.63-4.77-1.72-7.33-2-12-1.52-14.43-4.47-14.74-16.58-.2-7.8.88-15.16,4.42-22.18,5.33-10.56,10.59-12.11,20.58-5.8,4.76,3,9.38,6.14,15,7.68,3.49,1,6.71,1.21,9.5-.9,5.76-4.37,12-7.93,16.65-13.94,12.38-16.07,22.77-33.41,32.9-50.85,6.5-11.2,13-21.41,27-23.38,6.91-.18,14,1,20.37-3,2.13-1.34,4.16-1.17,5.57,1.82C172.47,224.73,173.26,220,174.74,220.18Z"/><path class="cls-4" d="M36.79,366.22c6.81,4.1,14.37,2.46,21.26,1.49,14.19-2,27.25-7.77,39.52-15.32,22.4-13.8,39.8-32.59,55-53.75a363.07,363.07,0,0,0,29.63-49.32c4-8,4.19-8.19,12.92-5.22,11.05,3.76,22.39,1.39,33.58,2.08l0,0c1.67,5-.61,9-3.59,12.66-13.23,4.67-25,12.39-37.28,18.86-11.2,5.88-18.09,16.5-24.9,26.75-13.8,20.76-26.79,42.06-41.55,62.18-8.07,11-16.15,22-28.29,29.05-6.28,3.65-12.68,5.14-20,3.52-5.79-1.28-11.7-2.6-17.74-2.46-10,.24-12.61,2.85-13,12.91-.07,1.71-.29,3.29-1.61,4.52a187.85,187.85,0,0,1-26-48Z"/><path class="cls-33" d="M544.77,420.19c-4.5,3.12-8.5,7-13.83,8.85-4.49,1.55-5.76.8-6.12-4.08-.21-2.91-.05-5.85-.06-8.77,3,1.82,1.36,5.46,3.11,9.12,3.14-30.68,9.8-59.31,16.49-88.13,4.53,7.53,7.46,14.71,5.34,24-2.65,11.55-3.38,23.54-4.92,35.34-.88,6.73,1.19,13.16,2,19.72Z"/><path class="cls-33" d="M484.76,310.19c-5.68,19.38-11.62,38.68-17,58.15-6,21.71-13.08,43.12-17.72,65.18-3.12,14.85-7.84,29.42-7.85,44.88,0,2.67.51,5.2.54,7.81,0,.67,0,1.33,0,2-7.84,2.69-12.48,9.67-18.91,14.29a241,241,0,0,1-37.7,21.91c-5.74,2.73-6.56,2.17-7.31-4.28-.31-2.67.42-5.84-4.08-4-2.38-5.78.19-8.93,5.6-10.58,3.81,2.18,7.52,1.56,11.4-.1,10.67-4.56,21.16-9.59,32.14-13.42,6.43-2.25,8-7.34,8.27-13.36.72-16.75-3.29-32.75-8.11-49.05-6.28,17-15.76,32-24.93,47.25-2,3.33-2.9,8.64-9,6.92-1.31-2.71-.27-5.24.7-7.7,8-20.46,14.78-41.35,21.69-62.19,1-3.13,1.15-7.62,6.23-7.77l5.69,11.92c2.92-8,5.9-14.77,7.92-21.84,10.81-37.7,20.37-75.7,26.85-114.42a16.74,16.74,0,0,1,1.55-3.65c4.43-1.26,6.64,2.19,8.81,4.71,5.68,6.63,11.8,13,15.19,21.3Z"/><path class="cls-36" d="M380.75,506.16c-4,2.16-5.32,5.89-6,10-.65.68-1.31,1.35-2,2a4.49,4.49,0,0,0,0,6h0c-3.77,4.1-9.1,4.58-14,6l-1.06-1c-1.43-2.64-2-5.56-2.75-8.44-.87-6.68,1.69-12.59,4.92-18,19.34-32.44,29-68.62,40.64-104,1.94-5.89,2.21-12.62,7.81-16.84,9.08,3.9,9.19,12.42,10.44,20.35v4c-.61.76-1.5,1.44-1.77,2.31-8.05,25.47-16.72,50.73-26.22,75.7C390.41,492.88,386.38,499.88,380.75,506.16Z"/><path class="cls-14" d="M372.76,524.18c-2.58-2-2.59-4,0-6C372.77,520.2,372.76,522.19,372.76,524.18Z"/><path class="cls-37" d="M70.76,214.2c-.66,1.33-1.33,2.66-2,4-6.85,9.35-16.3,14.55-27.48,16.51-8.78,1.53-17.56,3.22-26.51,3.48-6.24-14.81-6.84-30.31-5.63-46,9.54-1.25,17.26,3.67,23.33,9.43C43.56,212.1,56.14,215.64,70.76,214.2Z"/><path class="cls-38" d="M358.75,530.19c-.12,2.26,1.17,4,2,6-2.3.19-4.75-.06-6.89.65-20.43,6.82-41.74,9.52-62.83,13.16-5.66,1-10.88,2.36-15.61,5.74-1.78,1.26-3.85,2.72-7.08,1.87.52-4.49,4.66-7.33,6.81-13.6-5.67,4-9.38,7.15-11.67,11.21-3.81,6.71-9.5,9.83-16.73,10.95-1.15-3.71,1.62-5.48,3.9-7.21,7.15-5.45,13-12.2,19.32-18.51C291,518,306.94,492,322.28,465.59c17.39-30,29.83-62.12,41.91-94.45,1.16-3.08,1.7-6.44,4-9a3.26,3.26,0,0,1,2.82-.22c3.1,4.1,2,9.57,4.52,13.85.49,2.53-.22,4.92-.85,7.32-15.83,58.91-48,108.43-89.86,154.1a35.49,35.49,0,0,0,13.67-.54c4.24-.85,8.5-1.59,12.67-2.8a326,326,0,0,0,34.41-10c3.44-1.26,6.88-2.68,10.5-.57,2.8,1.55.6,5.05,2.67,6.89Z"/><path class="cls-39" d="M270.77,542.21c-5.46,6.92-11.42,13.33-18.74,18.34a14.36,14.36,0,0,0-5.29,5.62l-2,1.91-8,.34-5.65-.35c-4.56-2.28-9.68.35-14.27-1.64l-5.56-.49c-.35-.51-.72-1-1.1-1.5,7,.16,12.79-2.74,18.22-6.75a140.76,140.76,0,0,0,13-10.41c-9.71.31-19,5.57-28.66.91,3.13-8.92,11.59-8.89,18.61-10.27a43.29,43.29,0,0,1,20.71,1.16C258.31,540.14,265.17,537.44,270.77,542.21Z"/><path class="cls-17" d="M362.74,566.25c-3.17,3.34-7.16,1.52-10.83,1.7C355.27,565.77,359,566.24,362.74,566.25Z"/><path class="cls-35" d="M14.77,238.18c3.1-1.72,5.7-4.05,9.79-4.11C39.7,233.87,54,231,65.07,219.33c.77-.82,2.44-.78,3.69-1.14,2.76.29,5.9-.93,8,2C68,235.82,54,241.22,36.87,241.27c-3.92,0-10.72-.19-10.87,4.47-.19,5.64,6.49,6.72,11.31,7.47,12.09,1.89,28.11-8.05,32.49-20.06,1.72-4.7,3.08-9.47,7-13h8c-8.28,17.22-16.23,34.67-32.52,46.26-12.17,8.66-17.08,6.65-26.42-5.13A61.36,61.36,0,0,1,14.77,238.18Z"/><path class="cls-35" d="M40.76,414.19a25.91,25.91,0,0,0-.33-4c-2.49-10.57,1.15-15.14,12.14-16.12,7.12-.63,14.15.78,20.61,2.53,11.53,3.12,19.22-2.41,26.84-8.83,12.08-10.17,20.23-23.64,29.05-36.44C140.35,335,151,318.15,162,301.59A129.59,129.59,0,0,1,172,288c5.93-6.79,12.56-12.68,21.18-16.19a96.66,96.66,0,0,0,17.49-9.51c4.12-2.78,8.74-4.88,14-4.15,1.58,3.59-.76,6.41-1.95,9.41-12.61,31.76-29.29,61.27-48.93,89.17a23.1,23.1,0,0,1-1.76,2.19c-.58.72-1.2,1.41-1.82,2.11-.29.37-.61.72-.9,1.09a13.17,13.17,0,0,1-2,2,2.88,2.88,0,0,1-2.69.07c-5-6.67-9.93-5.38-14.69.15-4.61,5.35-7.56,11.74-10.56,18.05-4.7,9.92-12.09,16.46-22.73,19.46-14.71,4.15-29.25,8.92-46.39,11.66,8.42,2.82,14.75,5.93,21.63,7.79,2.86.77,7.9.55,6.47,5.47-1.2,4.11-4.06,7.92-9.68,5.36-2.58-3.05-6.1-1.81-9.27-2-4.61-.21-9.28.26-13.83-.3C55,428.61,46.51,423.47,40.76,414.19Z"/><path class="cls-3" d="M88.75,432.19c4.2-.14,6.33-3.14,9.14-6.92a100.87,100.87,0,0,1-32.75-12.49c9.06-3.73,17.89-3.44,26-6.23,9.06-3.12,18.36-5.56,27.62-8.05,8.34-2.25,13.65-7.76,17.47-15.15,3.19-6.18,5.67-12.76,10.06-18.3.61-.77.91-1.78,1.52-2.56,2.77-3.58,6.46-5.41,10.92-6.3,6.95-1.38,4.88,5.84,8,8-4.38,11-13.45,18.42-20.89,27-10.44,12-22.6,22.37-35.21,32,29.73-12.53,42.89-40.64,60.11-64.94,7.17-11.47,14.43-22.88,21.49-34.42a362.46,362.46,0,0,0,26.64-53c1.75-4.28,3.9-8.39,5.86-12.58l4-12h16c2.94,3.84,1.18,7.72-.2,11.38-18.48,48.88-42.41,94.57-76.81,134.46-17.11,19.84-36.15,37.08-58.42,50.85-9.46,5.86-19.77,9.47-30.28,12.65-3.49,1.06-7.22,1.76-10.29-1.35L60,441.46c1.18-1.81,3.94-1.1,4.75-3.24C73.34,438.59,80.8,434.39,88.75,432.19Z"/><path class="cls-40" d="M160.75,518.18c-4.65-3.35-11.76-3.24-14-10,2.94-7.27,11-8.76,15.74-14,6.72-4.41,11.85-10.66,18.58-16.41-15.58,8-30.68,14.82-48.13,13a58.47,58.47,0,0,1-15.52-3.43c-3.1-1.22-6.89-2.38-6.8-6.35.1-4.23,3.73-6,7.39-7.1,8.31-2.46,16.74-4.94,25.32-5.61,14.11-1.12,24-7.57,31.89-19.26,11-16.34,26.31-27.24,45.93-31.13,6-1.2,8.92-5.21,11.75-9.84a486.44,486.44,0,0,0,37.68-74.85c1.58-4,1.9-10.58,9.43-8.53,6,8.85,2.66,18.8,3.37,28.26a20.83,20.83,0,0,1-.19,3,17,17,0,0,1-.58,2.73,24.12,24.12,0,0,1-1.56,3.57c-.31.72-.69,1.42-1.07,2.11-.51,1-1.06,2-1.55,3-.27.65-.59,1.3-.9,1.93a31.15,31.15,0,0,0-1,2.95,13.23,13.23,0,0,1-.68,1.95c-.41.92-.89,1.82-1.33,2.73a13.93,13.93,0,0,1-.87,1.78c-.44.86-.9,1.72-1.33,2.59a11.89,11.89,0,0,1-.9,1.69c-.46.83-.89,1.67-1.29,2.54a10,10,0,0,1-.88,1.72c-.45.88-.86,1.79-1.27,2.7a21.29,21.29,0,0,1-.91,1.93c-.47,1.05-.94,2.09-1.47,3.12a20.8,20.8,0,0,1-1.29,2.18c-5.48,9.93-11.43,19.57-17.08,29.38a17.81,17.81,0,0,1-1.34,2.21,45.17,45.17,0,0,0-3.49,5,18.27,18.27,0,0,1-1.29,2c-.9,1.26-1.79,2.54-2.58,3.87a19.11,19.11,0,0,1-1.28,1.94c-.91,1.23-1.8,2.47-2.62,3.78a17.37,17.37,0,0,1-1.3,1.91c-.46.62-1,1.2-1.48,1.78-.25.3-.51.58-.76.89a33.24,33.24,0,0,0-2.7,3.85,22.53,22.53,0,0,1-1.41,2.05c-.5.71-1,1.37-1.58,2-.27.36-.54.69-.81,1.06a328.81,328.81,0,0,1-54.19,55.4C167.68,516.45,165,519.51,160.75,518.18Z"/><path class="cls-41" d="M162.76,496.2c-4.12,5.61-10.82,7.81-16,12A106.81,106.81,0,0,1,105.48,527c-9.6,2.09-19.18.59-28.75,1.19C69.35,526.31,64,520.59,57,517.9a2.52,2.52,0,0,0-2.23-1.73C44.14,507.38,34.4,497.77,27,486c-6.09-14-6.43-28.86-6.47-43.76,5,3.94,11.45,5.57,16.23,9.92,13.13,6.7,27.18,8.14,41.63,7.33,3.13,2.24,5.57,4.83,4.56,9.14-13.37,8.81-13.31,12.64.43,22.69,14.31,10.46,30.77,11,47.51,10.2,8.24.39,15.27-3.28,22.56-6.36C156.31,494,160.4,489.75,162.76,496.2Z"/><path class="cls-41" d="M160.75,518.18a240.86,240.86,0,0,0,49.31-46c4.54-5.63,9.77-10.7,14.69-16,3.45,1.75,7.41-3.54,10.69.76,1.11,3.9-1.42,6.33-3.74,8.6-10.42,10.16-20,21.1-31.48,30.24-9.84,7.86-17.47,17.26-16.9,30.95-.58,9.1,3.92,13.84,12.62,15.76,3.35.73,8.2.27,8.82,5.69-1.63,2.18-4,1.87-6.33,2-16.46,1.07-32.91-.35-49.37,0a20.37,20.37,0,0,1-6.8-1.15c-3.15-1-6.45-1.8-9.39.77H129c-1.72-1.74-3.95-1.74-6.17-1.77-1.64-1.88-3.83-2-6.08-1.9l-2-1.91c.17-2.86,2-3.41,4.51-4.18A126.62,126.62,0,0,0,160.75,518.18Z"/><path class="cls-42" d="M204.76,548.19c-2.62-3.05-6.63-2.57-9.95-3.52-12.41-3.58-13.81-5.08-14.05-18.48,3.25-2.47,6.36-.5,9.47.35,9.94,2.72,19.79,5.68,29.88,7.92,8.25,1.83,14.82.12,21.41-4.79,19.07-14.21,28.86-34,32.22-56.64,3.94-26.61,6.49-53.45,6.53-80.44a239.46,239.46,0,0,1,30.86-58.91c2.42-3.38,5.62-7.65,10.53-5.82,4.5,1.69,3.48,6.69,3.66,10.55.44,9.1-1.9,17.82-4,26.54C308,419.27,292.16,472.76,268.38,523.58c-3.24,8.68-10.13,13.93-17.62,18.6-13.71-4.64-26.29-2-38,6Z"/><path class="cls-17" d="M173,560.1c-2.82-.15-5.91,1-8.19-1.7C167.72,558.14,170.56,558.15,173,560.1Z"/><path class="cls-43" d="M78.76,460.2c-15.47,5-29.3,1.44-42-8a83.65,83.65,0,0,1,15.55,2.63,30.15,30.15,0,0,0,16.45-.61c12.83.4,24.2-5,34.82-10.8,20.23-11,38-25.69,53.46-42.68a384.6,384.6,0,0,0,59.34-85.64c10.22-20.17,20.19-40.44,27.1-62.07a20.43,20.43,0,0,0,1.28-6.8h2c1.19,1.61,2.55,1.86,4.14.56,2.22-1.83,1.48-4.93,2.72-7.37,11.29,1.86,20.1,8.76,30.22,12.41,3.7,1.34,6.81,4.15,10.94,4.42,0,1.33,0,2.66,0,4,.82,1.06,1.7,2.24,1.53,3.58a177.12,177.12,0,0,1-14.43,51.53c-.41.91-1.5,1.27-2.42,1.65-2.61.19-3.8-1.44-4.59-3.58-2.84-16.81-7.38-33.09-15.55-48.17-1.54-2.85-3-6.88-6.72-6.64-4.06.28-3.92,4.89-4.87,7.84-13.12,40.79-30.85,79.35-56.25,114-24.93,34-54.71,62.5-94.76,78.29C91.12,460.92,85.13,464.5,78.76,460.2Z"/><path class="cls-17" d="M216.83,566.43c4.83-.1,9.7-.59,14.27,1.65C226.33,567.61,221.26,569.79,216.83,566.43Z"/><path class="cls-44" d="M246.74,50.18l0-2c8.28-10.3,21.74-13.63,35.87-7.94,5.17,2.08,7.79,1.85,11.52-2.77,9.62-11.9,24.08-12.63,34.59-1.78,4.29,4.43,12.42,4.76,13.33,13,.26,2.29,2.6.5,3.87-.31,2.32-1.5,4.89-1.46,6.09.88,3.79,7.39,6.29,2.83,9.81-.36C368.3,43,374.5,36.09,384.76,38.19c3.15-.18,4.51,2.61,6.44,4.21,4.05,3.35,6.84-2.29,9.91-1.17s4.16,6.41,8.93,4.23c.91-.41,1.81-.84,2.71-1.26,6.44,8.43,8,17.14.73,26.91,5.84,1.44,11.11,3,14.68,7.47,1.07,1.36,2.19,2.58,0,3.91-4.87,3.54-9.54.1-14.29-.42-1.41-.35-2.79-.8-4.19-1.17-1.89-.35-3.78-.74-5.65-1.22a122.85,122.85,0,0,1-18.45-4.87C378.89,72.68,372,71,365.32,69c-6.26-1.32-12.33-3.45-18.72-4.14-13.82-3.39-27.87-1.27-41.81-1.82-6.54,0-13.08,0-19.62,0-5.87-.13-11.77.18-17.64-.37-6.84-2.84-15.3.09-21.29-5.89C244.85,54.42,245.31,52.26,246.74,50.18Z"/><path class="cls-45" d="M418.79,109.23l.16,1c-1,3.85-4.4,5.19-7.34,7-.72.46-1.46.89-2.2,1.32-3.46,2-5.64,5.15-7.85,8.31a9.44,9.44,0,0,1-3.06,2.56c-3.71,1.34-7.93,1.19-11.17,3.89-4.89,2.64-8.11,7.32-12.69,10.36-5.63,2.81-10.94,6.69-17.82,5.4a4.79,4.79,0,0,1-2.67-5c8.18-8.64,17.39-16.3,24.57-25.93,2.41-3.24,6.26-4.89,10.07-6.19C399.59,108.3,407,101.44,410,90.11c.91-3.41,1.75-7.24,5.76-8.8a101.4,101.4,0,0,1,22.14,6.78c.7,0,1,.3,1,1,2,4.33-.6,6.85-3.61,9.21-3.9,3.07-8.63,4.89-12.37,8.2l.1-.13C421.54,107.26,419.3,107,418.79,109.23Z"/><path class="cls-46" d="M437.87,88.09c-8.06-.94-15.36-5-23.49-5.63a2.66,2.66,0,0,1-3.42,0,2.92,2.92,0,0,1-.66-2.32,2.7,2.7,0,0,1,2.24-.86l15.64,3.2C431.07,85,435.59,84.58,437.87,88.09Z"/><path class="cls-47" d="M422.87,106.49c1.61-4.58,6.33-5.55,9.66-8s6.33-4.8,6.32-9.37c3.2,2.38,2.2,5,.12,7.3-1.89,2.1-4.14,3.88-6.22,5.8a9.5,9.5,0,0,1-2.3,1.84v-.11C427.68,104.07,425.82,106.87,422.87,106.49Z"/><path class="cls-19" d="M430.45,104a2.49,2.49,0,0,1,2.3-1.84A2.91,2.91,0,0,1,430.45,104Z"/><path class="cls-18" d="M424.77,122.18c11.54,4.24,22.28,9.77,31.37,18.29,4.07,3.82,5.88,8,3.76,13.25-1.42,3.54-1.18,7.16-1.1,10.76.09,4.08-1.47,7.16-5,9-3.41,1.71-5.22-1.45-7.76-2.78-6.4-3.34-8.85-10.39-14.87-15-1.44,8.68,3.25,16.47,1.62,24.56-5.81.44-11.45-.13-15.58-4.7-4-4.4-7.24-2.67-9.58,1.07-3.44,5.49-8.21,9.36-13.29,13s-6,3.35-8.95-2.2c-3.84-7.17-3.52-14.63-1.05-22.06,1-3.07,2.72-5.91,5.14-11-4.32,2.87-6.8,4.55-9.33,6.18-4.61,3-9.66,3.68-15.11,3.88s-9.53-1.84-13-5.8c-1.92-2.23-4.56-2.47-7.28-2.36h0c-6.17-.78-12.2,1.64-18.37.82-3.71-.5-8,.42-10-4.21a5.18,5.18,0,0,1,2.56-2.37c8.59-2,17.31-.57,26-1,9.87.15,19.57-.52,28.32-5.82a46.91,46.91,0,0,0,13.19-3.85c2.71-1.21,5.74-3.35,8.33-2.73,13.85,3.31,21.07-5.81,28.68-14.45Z"/><path class="cls-44" d="M316.74,152.53c5.74,3.24,12,1,18,1.71,3.39.4,7.19-1.26,10,1.95-9.88,4.22-20.09,6.79-30.94,6-2-.15-4.47.24-5.8-.8-6.8-5.33-13-2.33-19.25.81h0c-9.48,5.61-19.5,8.07-30.42,5.11-2.65-.72-5.21-.74-7.59.88l-2,0a5.46,5.46,0,0,1-2.73,1c-15.74,1.43-31.54-.86-47.27,1-.08-1.3-.16-2.61-.22-3.53-.62-1.13-1.3-1.41-1.85-.85-9,9-18.82,5.23-28.54,1.81-4.47-1.58-2.69-6.29-4-9.57-2.74-.87-5.12.38-7.51,1.25-2,.73-4.25,1.32-5.61-.32-4.59-5.52-9.4-2.34-14.23-.78-6.17-5.59-11.67-11.61-12.47-21.64-6.83,6.66-7.73,16.63-16.34,20.42-4.41-.37-2-6-6.76-7.73-1.43-.34-2.42,2.37-4.21,3.56-6.48,4.31-7.93,4.46-14.51-.81-2.74-2.2-5.57-1.44-8.43-1.81-3.79-.5-8,1.48-11.29-2-.65-1.86-1.91-3.76-1.82-5.59.22-4.44-2-6.72-5.72-8.23a10.59,10.59,0,0,1-4.35-3.9c-7.62-10.15-7.18-18.68,2.61-27.75,4.37-4,6.58-7.42,5.62-14-1.18-8-1.27-16.54,1.69-24.55,5.53-.69,8.46,3.05,11.28,6.79a49.65,49.65,0,0,1,8.61,17.54l2.09-.4c0-5.36,0-10.72,0-16.07,0-3.41.25-7.38,3.48-8.7s6.08,1.6,8.53,3.86C97,69.26,99,71.43,99,75c1.1-.9,1.73-1.19,2-1.68,7.82-13.25,10.66-13.93,23.13-5.45,1.64,1.11,3.26,2.26,4.78,3.52,5.52,4.6,5.51,4.63,9.63-.83,6.43-8.52,7.54-8.48,14,.39.95,1.31,2.06,2.5,3.47,4.18,3.41-6.94,4.38-14.17,6.69-20.95l2,0c4.4-3.61,9.66-3.31,13.95-1.06,5.8,3,9.26,1.15,13.79-2.52,11.57-9.4,19.93-9.42,27.14-1.12-.44,5.65-5.77,5.52-9.16,7.56a102.07,102.07,0,0,0-8.83,6.13C187,76.86,167.15,81.81,150.94,92.9a43.64,43.64,0,0,0-6.83,6c-.86.92-1.77,1.81-2.67,2.69-1.76,1.71-3.51,3.44-5.21,5.21a21.61,21.61,0,0,0-3.63,4.71c-.36.73-.76,1.44-1.14,2.16a27.51,27.51,0,0,0-1.27,3.57,25,25,0,0,0-.45,2.68c1.79,8,8.71,7.08,14.16,7.4,12.42.72,24.89,0,37.33.34a19.85,19.85,0,0,1,4.33.69,87.72,87.72,0,0,1,14.18,5.79,19.77,19.77,0,0,1,2.33,1.41,46.78,46.78,0,0,0,8,4.82,16.3,16.3,0,0,1,2.28,1.5,73.54,73.54,0,0,0,11,7.93c.76.41,1.5.87,2.23,1.31a31.22,31.22,0,0,0,3.48,1.59c.85.21,1.68.46,2.52.69,5.9.58,11.78,1,17.51-1.15a18.6,18.6,0,0,1,2.92-.9c12-4.25,24.14-7.52,37.06-5C298.15,148.94,308.57,145.75,316.74,152.53Z"/><path class="cls-18" d="M384.76,38.19c-12.84,3-21.84,11.44-29.67,22.39-3.24-4-2-8.92-5.94-11.54-3.4.34-3.56,5.43-7.22,5.78-1.94-2.8-2.41-6.09-3.63-9.07-.85-2.07-1.09-5.92-5.25-3.22-1.46.95-2.08-.56-2.91-1.61-12.27-15.6-27.64-14.14-37.51,3.49a29.85,29.85,0,0,1-2.16,2.84c-14.73-10.58-29.38-9.43-43.7,1,.71-2.55,1.28-5.16,2.17-7.64,4.1-11.35,12.35-15.93,24.2-13.16,4.32,1,8.82,1.58,12.83.39,6.93-2.06,13.87-1.12,20.79-1.66,9.63-.75,17.62,2.27,24.24,9.23,1.35,1.42,3.28,3.47,5.07,1.8,4.74-4.44,6.69-.67,9.22,2.44a15.48,15.48,0,0,0,6.25,5.06c2.9-3.64,5.52-7.56,8.74-10.88,6.71-6.92,8-6.93,16.39-2.66C380,32.81,383.11,34.63,384.76,38.19Z"/><path class="cls-18" d="M218.73,50.1c-5.45-6.48-11.4-6.45-18.2-1.93-3.3,2.18-7,3.75-9.62,6.88-2.82,3.38-5.4,5.18-9.79,1.52-4.68-3.9-10.82-2.09-16.37-2.39.07-2.09.57-4.57,2.42-5.18,11.49-3.76,20.91-13.84,35.42-8.37,9.15,3.44,19.83,3.14,29.91,1.11,4.28-.86,5.7,2.82,7.48,5.3s2.88,5.51,6.76,3.14c0,1.84,0,3.68,0,5.51-.81,1.5-2.18,1.79-3.71,1.77-5.17-.92-9.91-3.31-15-4.41-2.35-.36-4.76-.41-7-1.18A7.08,7.08,0,0,1,218.73,50.1Z"/><path class="cls-18" d="M411,116.55a15.84,15.84,0,0,1,8-6.35c10,2,10.87,3.84,5.82,12h0c-5.29,1.3-8.95-2-12.93-4.49Z"/><path class="cls-47" d="M418.79,109.23c.43-2.36,2-3,4.18-2.87C422.35,108.45,420.36,108.53,418.79,109.23Z"/><path class="cls-18" d="M198.76,170.18c4.7.09,9.85-.79,13.26-3.1,5.9-4,10.72-2.37,16.14-.21,6.7,2.66,13.74.78,20.6,1.33-9.44,7.76-19,15.4-28.26,23.33-3.47,3-6.05,2.89-9.52,0C204.22,185.84,201.87,177.84,198.76,170.18Z"/><path class="cls-18" d="M250.75,168.18c1.15-1.83,3.14-3.21,4.93-2.77,11.46,2.85,22.07-2.06,33.08-3.22-3.49,8.09-8.62,15.12-14,22-6-3.25-12.93-5.12-15.13-13.25C258.59,167.14,254,168.39,250.75,168.18Z"/><path class="cls-34" d="M418.75,402.19c-4-6.31-5-14.14-10-20a5.75,5.75,0,0,1-1.69-4.56c9.53-35.79,19.18-71.56,28-107.54.76-3.08.37-7.73,5.65-7.91,5.81,2.21,11.41,4.62,12,12C448,297.79,441.86,321,435.62,344.26,430.41,363.68,426.15,383.4,418.75,402.19Z"/><path class="cls-8" d="M484.76,304.2c-5.62-2.91-7.83-8.84-11.51-13.41s-7.5-9.21-12.49-12.6c1.36-9.45,2.54-18.94,4.14-28.35.89-5.2,2.54-9.73,7.69-13.12s9.34-8.48,13.35-13.32c2.31-2.79,3.78-2.92,6.4-.8,3.33,2.69,6.92,5.07,10.4,7.59-2.67,12.44-5.11,24.93-8.06,37.3S489.86,292.45,484.76,304.2Z"/><path class="cls-33" d="M440.75,262.18c-5.16,11.48-6.65,24-9.92,36-6.51,23.85-12.62,47.81-19,71.7-.77,2.85-2.05,5.57-3.09,8.35-3.05.75-4.3-1.57-5.24-3.55-6.15-12.93-14.07-24.9-20.2-37.84,3.18-22,8.58-43.55,12.25-65.45l1.17-1.16c3.86-7.95,3.87-8.19,13-7.91A41.06,41.06,0,0,0,425.34,260c5.35-2,10.29-1.52,15.39.19C440.74,260.85,440.74,261.52,440.75,262.18Z"/><path class="cls-48" d="M370.76,362.19l-2,0c-6.7-4.17-8-11.64-11.08-18a10.33,10.33,0,0,1,0-3c3-10.11,6.39-20.11,9-30.35,4-12,6.75-24.39,9.55-36.73.94-4.16,1.05-8.68,4.53-11.89h16q0,4,0,8h0c-5.07,27.36-10.74,54.58-19.82,80.95C375.55,355.15,374.85,359.65,370.76,362.19Z"/><path class="cls-33" d="M380.78,262.2a240.82,240.82,0,0,1-12,50c-5.31,1-7.54-3.42-10.45-6.24C344,292,329.19,278.7,310.92,270c-.52-.25-.47-1.07-.16-1.77,0-.68,0-1.35,0-2,2.21-5.63,7.26-7.31,12.11-10.12,9.27-5.39,17.53-3.47,26.76-.74,10.06,3,20.37,5.72,31.12,4.87C380.76,260.85,380.77,261.52,380.78,262.2Z"/><path class="cls-49" d="M310.76,268.19c3.23,1,6.47,1.43,9.57,3.6,13.8,9.62,27.18,19.67,38.91,31.81,3,3.07,5.59,6.56,9.51,8.59-2.86,10.16-4.59,20.7-10,30-5.71-2.57-7.27-8.47-10.13-13.17-10.17-16.73-21.87-32.35-34.72-50.08-9.74,59.32-28.62,112.84-62.06,160.58a21.06,21.06,0,0,1-1.36,2.23A16,16,0,0,1,249,443.7c-.26.29-.55.58-.81.86-.51.55-1.07,1.07-1.63,1.58-.25.24-.54.49-.79.74-.49.49-1,1-1.53,1.43-.23.24-.5.46-.73.7-.45.48-.94.93-1.43,1.37,0,0-.71.66-.69.67-.43.47-.9.9-1.37,1.33,0,0-.69.64-.67.66-.43.46-.89.89-1.35,1.31,0,0-.71.62-.7.64a5.54,5.54,0,0,1-1.57,1.05l-.93.16c-2.37-.06-4,1.38-5.87,2.58-2.95,1.93-3.81,0-4.14-2.59h0a23.71,23.71,0,0,0,2-2h0c1.56-1.85,2.56-4.07,4-6,.68-.65,1.36-1.31,2-2h0c1.55-1.85,2.57-4.06,4-6h0c1.54-1.87,2.56-4.08,4-6h0c1.54-1.87,2.56-4.07,4-6h0c7.59-10.8,13.52-22.56,20-34h0c1.23-1.06.87-2.9,2-4h0c1.23-1.05.87-2.9,2-4h0c1.23-1.06.87-2.9,2-4h0c1.26-1.05.81-2.94,2-4q0-1,0-2c.74-.59,1.27-1.39,2-2,0-.65,0-1.31,0-2,1.25-1,.82-2.91,2-4h0c1.24-1.05.79-2.94,2-4,0-.66,0-1.32,0-2,.73-.6,1.26-1.39,2-2q0-1,0-2c1.21-1.21,1-2.77,1-4.27.45-6.36,2.83-12.16,5-18.07,7-19.25,13.39-38.74,18.48-58.62.8-3.13.74-6.65,3.53-9Z"/><path class="cls-12" d="M308.8,268.2c.11,12.84-5,24.53-8.63,36.45-4.66,15.49-9.61,31-16.38,45.73-.79,1.72-.72,3.85-1.05,5.79a1.29,1.29,0,0,1-2,0c-.52-10.68,1.47-21.52-2-32q-3.42-4,0-8c7.07-14,10-29.34,13.9-44.33,1-3.82,1.42-7.79,2.11-11.69C305.84,260.24,305.84,260.24,308.8,268.2Z"/><path class="cls-7" d="M380.75,506.16c2.12-7.88,6.57-14.69,10-22,4.7-2.29,5.14-7.48,7.66-11.26a215.43,215.43,0,0,0,24-47.75c.2-.56.85-1,1.3-1.46,2.68.18,2.72,2.39,3.22,4.22,4.52,16.59,8.36,33.28,7.83,50.66-.34,11.09-1.79,12.73-11.82,16.6-12.34,4.77-24.53,9.92-36.62,15.27C381,512.81,380.72,510,380.75,506.16Z"/><path class="cls-7" d="M384.76,338.19c5.74,5.1,8.56,12.13,12.27,18.58,4.05,7.06,6.4,15.06,11.73,21.42v4c-7.15,21.69-14.2,43.41-21.48,65.06-6.45,19.17-13.72,38-24.54,55.25-3.69,5.9-6.36,12.42-6,19.7.55.45.73.9.54,1.34s-.37.66-.56.66c-10,.24-18.41,6-28,7.83-6,1.13-11.76,3.76-18,4.16.46-6.24,6-8.27,9.85-11.52,19.84-16.71,36-36.07,45.46-60.58,8.24-21.39,12.59-43.2,8.4-66.18-.94-5.17-1.25-10.46-1.71-15.71-.12-2.27,1.18-4.07,2-6C374,362.44,376.33,349.51,384.76,338.19Z"/><path class="cls-14" d="M356.75,524.2c0-.67,0-1.33,0-2,2.93,2.1,1.7,5.24,2,8C356.4,528.76,356.83,526.39,356.75,524.2Z"/><path class="cls-41" d="M372.76,382.2c5.83,8,5.29,17.76,5.65,26.57,1.37,32.78-8.59,62.38-28.05,88.85-11.09,15.08-25.36,26.79-39.6,38.57-9.14,3.15-18.44,4.89-29,3.55,4.85-8.59,11.21-15.27,16.9-22.4,18.86-23.62,37.78-47.19,50.82-74.74a440.48,440.48,0,0,0,20.86-53.86C371.07,386.53,372,384.38,372.76,382.2Z"/><path class="cls-12" d="M358.78,344.19c4.71,5.24,6.53,12.08,10,18-.23,6.45-3,12.22-5.19,18.08-7.91,21.13-16.43,42-26.24,62.35a485.82,485.82,0,0,1-41.27,69.17c-5,7-10.34,13.75-15.44,20.68-2.78,3.78-5.8,7.26-9.86,9.72l-20,0c4.24-7,11.78-11,16-18,1.68-6.11,5.52-11.07,9.1-16,32.89-45.79,56.71-96.15,75.68-149C353.4,354,353.77,347.91,358.78,344.19Z"/><path class="cls-24" d="M384.76,338.19q-5,19-10,38c-6.26-3.26-3.26-9.16-4-14,7.77-24.18,14.83-48.56,20.83-73.25,1.53-6.28,1-13.19,5.16-18.76.57,10.36-1.92,20.32-4,30.33C390.2,313.09,387.44,325.63,384.76,338.19Z"/><path class="cls-50" d="M76.76,220.19c-3.51,9.44-4.9,19.65-13.58,26.81-11.61,9.58-25.55,12-36.63,5.05A17.2,17.2,0,0,1,22.72,249c-3-3.46-2-7.78,2.33-8.32,5.55-.68,10.82-2.69,16.59-2.56,12.17.26,22.91-3,29.44-14.52a6.29,6.29,0,0,1,5.68-3.37Z"/><path class="cls-51" d="M170.76,358.2c2.29,1.64,1.34,3.21,0,5-7.23,9.85-14.53,19.64-21.55,29.63-5.33,7.59-10.43,15.34-17.56,21.43-7.85,6.71-16.15,12.44-29.66,11.59,12.9-10.58,25.58-18.33,35.44-29.32,9.71-10.82,19.52-21.55,29.28-32.31,0-.66,0-1.32,0-2,.72-.62,1.32-1.35,2-2h0a21.08,21.08,0,0,0,2-2Z"/><path class="cls-3" d="M168.76,360.2l-2,2Z"/><path class="cls-3" d="M170.76,358.19l-2,2Z"/><path class="cls-35" d="M278.77,316.22c0,2.66,0,5.31,0,8a7.18,7.18,0,0,0-3.88,4.3c-10.38,28.18-24,54.73-39.44,80.46-3.87,6.45-7.7,10.54-16.33,12C203.3,423.62,189,432.45,180.79,446c-10.67,17.67-25.59,24.58-44.8,26.31-6.54.58-13,2.66-19.38,4.3-2.29.58-4.59,2.16-4.5,4.7.08,2.29,2.71,2.43,4.56,3.15,19.42,7.61,37.79,4,55.69-5.06A63.11,63.11,0,0,1,186.05,474c-7,8.42-13.1,17.43-23.29,22.25-3.51-3.62-6,.26-8.6,1.44-7.49,3.44-14.76,7.36-23.4,6.54-16.5-6-29.19-17.69-42.53-28.36-2.34-1.88-5.37-4.35-3.32-8.37,7.22-3,15.2-3.3,22.52-3.19,15.7.23,27.52-7,38.6-16.36,24.49-20.67,45.74-44.58,67.11-68.33,9.76-10.85,15.38-24.09,21.22-37.17,4.08-9.14,7.88-18.46,13.47-26.76,7.86-11.67,21.13-13,28.93-3.44C276.8,313.85,277.16,315.35,278.77,316.22Z"/><path class="cls-41" d="M264.75,394.18c-4.82,12.43-10.25,24.48-20,34A149.84,149.84,0,0,1,264.75,394.18Z"/><path class="cls-41" d="M244.75,428.19a6,6,0,0,1-4,6A6.06,6.06,0,0,1,244.75,428.19Z"/><path class="cls-41" d="M240.75,434.19a6,6,0,0,1-4,6A6,6,0,0,1,240.75,434.19Z"/><path class="cls-41" d="M236.75,440.19a6,6,0,0,1-4,6A6.06,6.06,0,0,1,236.75,440.19Z"/><path class="cls-41" d="M230.76,448.19a6,6,0,0,1-4,6A6.06,6.06,0,0,1,230.76,448.19Z"/><path class="cls-41" d="M278.75,364.18c0,1.65-.37,3.15-2,4C276.79,366.54,277.15,365.05,278.75,364.18Z"/><path class="cls-41" d="M276.76,368.2c0,1.64-.38,3.13-2,4C274.8,370.54,275.15,369.05,276.76,368.2Z"/><path class="cls-41" d="M272.75,378.17c0,1.66-.37,3.16-2,4C270.78,380.53,271.14,379,272.75,378.17Z"/><path class="cls-41" d="M270.75,382.18c0,1.66-.37,3.15-2,4C268.78,384.54,269.14,383,270.75,382.18Z"/><path class="cls-41" d="M268.75,386.18c0,1.66-.37,3.15-2,4C266.78,388.54,267.14,387.05,268.75,386.18Z"/><path class="cls-41" d="M266.75,390.18c0,1.66-.37,3.15-2,4C264.78,392.54,265.13,391,266.75,390.18Z"/><path class="cls-41" d="M226.75,454.18l-2,2Z"/><path class="cls-41" d="M232.75,446.18l-2,2Z"/><path class="cls-41" d="M274.75,374.16l-2,2Z"/><path class="cls-41" d="M280.75,360.17c-.66.67-1.31,1.35-2,2C279.44,361.52,280.09,360.84,280.75,360.17Z"/><path class="cls-41" d="M280.76,356.2l2,0c-.66.67-1.31,1.35-2,2C280.76,357.53,280.76,356.86,280.76,356.2Z"/><path class="cls-4" d="M276.76,312.2C265,304.75,254.35,307.41,248,320q-9.91,19.53-18.81,39.57a96.37,96.37,0,0,1-19.68,28.51c-13.5,13.74-25.58,28.9-39.82,41.8-12.44,11.27-23.82,24-39.18,31.91-3.6,1.84-7.27,4.15-11,4.08-11.65-.21-23,3.49-34.67,2.32a1.3,1.3,0,0,1-2,0c-1.12-2.77-4.3-4.51-4-8,14-.74,26.31-6.55,38.06-13.41C130,439.09,141.4,429,153.16,419.3c20-16.55,35.31-36.92,48.81-58.41A392.14,392.14,0,0,0,244.56,268c1.56-5,3.35-10,5.2-15.47,5.22,1.5,8.4,5.07,10.5,9C268.8,277.39,274.92,294.12,276.76,312.2Z"/><path class="cls-42" d="M82.76,468.19h2c6.36,10.07,17.41,14.59,26,22.05,6.19,5.39,14.12,8.18,20,13.93-9.56-.61-19.11.94-28.71-1.64-11.59-3.11-21.43-8.47-29.4-17.43-6.76-7.59-5.37-12.6,4.39-15.27C79,469.31,80.85,468.74,82.76,468.19Z"/><path class="cls-35" d="M282.76,392.19c.38,19.56-1.57,38.94-3.71,58.37-1.19,10.83-1.81,21.77-4.48,32.32-5.37,21.24-16.08,39-34.83,51.46-5.76,3.82-11.54,4.53-18,3.23a306.32,306.32,0,0,1-41-11.38c-.44-15.26,8.68-25.05,19.53-33.74,12.18-9.76,22.42-21.5,33.33-32.55.8-.81.78-2.45,1.14-3.7h0c.73-.6,1.33-1.33,2-2h0c.68-.65,1.35-1.31,2-2h0c.68-.65,1.35-1.31,2-2h0c.68-.65,1.35-1.31,2-2h0c.68-.65,1.35-1.31,2-2h0c.68-.65,1.35-1.31,2-2h0c.69-.65,1.36-1.31,2-2h0c11.51-14.28,22.67-28.76,29-46.31C278.45,393.88,279.57,391.33,282.76,392.19Z"/><path class="cls-41" d="M282.76,392.19c-5.25,6.91-7,15.53-11.41,22.89-6.12,10.25-12.82,19.94-22.6,27.1a14.83,14.83,0,0,1,3.41-8.16c11.47-15.17,19.17-32.37,27.71-49.24,15.75-31.15,23-64.65,30.43-98.21.57-2.57.38-5.29.69-7.93a3.37,3.37,0,0,1,2.22-3.06c1.4-.37,2.35.69,3.14,1.84,2.63,3.82,5.33,7.58,8,11.38,12.11,17.4,25,34.29,34.44,53.4,0,.66,0,1.33,0,2-7.42,25.24-17.75,49.31-28.41,73.33a556.63,556.63,0,0,1-45.31,81.88c-5.67,8.55-12.18,16.54-18.31,24.78-1.25-.82-1.9-2-1.14-3.35,9.51-16.38,15.51-34.19,22.06-51.86,13.14-35.48,22.93-71.89,32-108.54,2.14-8.7,3.85-17.47,3.1-26.52-.14-1.59.37-3.55-1.38-4.46-2.34-1.22-3.56.92-5,2.15-6.95,6-10.91,14.29-15.08,22.07C294.58,366.21,287.38,378.61,282.76,392.19Z"/><path class="cls-52" d="M304.89,60.44c14.68-.62,29.39-2,43.86,2a2.11,2.11,0,0,1-1,2.94c-14,.63-28,.41-42-2A2,2,0,0,1,304.89,60.44Z"/><path class="cls-53" d="M304.89,60.44a5.48,5.48,0,0,0,.18,1.71,5.55,5.55,0,0,1-3.14,3.55c-5.94,1.29-11.86,2.38-17-2.23a2.76,2.76,0,0,1-.23-3Z"/><path class="cls-54" d="M242.81,56l4-.28c6.25,3.3,13.72,1.1,20,4.45a1.9,1.9,0,0,1-.43,2.8A33.41,33.41,0,0,1,243,59,2.37,2.37,0,0,1,242.81,56Z"/><path class="cls-55" d="M366.72,66.69l19.92,5.89c.21,1.9-1,2.64-2.53,3.19-6.73,0-13-1.25-17.95-6.25A2.94,2.94,0,0,1,366.72,66.69Z"/><path class="cls-56" d="M384.49,74.37l2.15-1.79c6.09,1.85,12.47,2.73,18.29,5.47a4.41,4.41,0,0,1-3,3.3C395.54,80.46,388.49,81.23,384.49,74.37Z"/><path class="cls-57" d="M366.72,66.69c0,.61,0,1.22,0,1.82-7.06,3.11-13,1.65-17.95-4.26,0-.6,0-1.19,0-1.79C354.91,63.15,360.8,65,366.72,66.69Z"/><path class="cls-58" d="M266.79,61.84c0-.57,0-1.13,0-1.7l17.91.28c.07.66.14,1.31.19,2C278.71,66.14,272.67,66.6,266.79,61.84Z"/><path class="cls-59" d="M402.86,79.88l2.07-1.83,6,.62.37.88-.64.7.09-.11C408.07,82.29,405.42,82.57,402.86,79.88Z"/><path class="cls-60" d="M410.7,80.25c.06-.53.15-1.06.26-1.58a1.12,1.12,0,0,1,1.59.62Z"/><path class="cls-60" d="M402.86,79.88l7.93.26c.44,1.94,2.11,2,3.59,2.32-2.5,16.35-10,28.48-27.21,32.61-4.88,1.18-7.49,5.1-10.24,8.86-6.1,8.34-13.16,15.68-22.37,20.67-4.05,2.08-7.07-.51-10-2.46-11.07-7.34-22.4-14.29-33-22.31-6.66-5.4-13.87-10.18-19.76-16.46-2.81-3-5.86-3.83-9.78-3.19-3.58.59-7.25.84-10.65-1-2.5-4.91,2.29-6.26,4.56-8.28,9.57-8.55,19.9-16.28,27-27.26l2.17-1.46c14.57.49,29.23-.75,43.69,2.1a52.21,52.21,0,0,0,17.95,4.26c5.5,3.27,11.6,4.68,17.78,5.86A70.39,70.39,0,0,0,402.86,79.88Z"/><path class="cls-61" d="M312.55,118.2q16.18,10.67,32.38,21.34c3,2,6,4.21,9.63,5.06L357,148c-3.27,2.88-7.18,3.44-11.33,3.12H319.34c-8.64.34-17-3.15-25.68-2.07-14.53-4.6-28.33-1.28-42,3.89-2.36-.12-4.16,1.41-6.25,2.12-5.6-.3-11.28,1-16.82-.8l.11.09c-1-1.45-2.89-1.12-4.13-2.09l.1.07a96.66,96.66,0,0,0-14.23-9.93l.15.07c-2.71-3.09-6.8-3.94-10-6.21l.1.07c-4.38-4-10.12-5.17-15.45-7.21-1.58,0-3.15,0-4.74-.07-11-2.58-21.89.7-32.84.11A118.25,118.25,0,0,1,136,127.7c-7.72-1.17-9.55-4.84-7.36-11.67l-.05.12c1.48-1,1.16-2.87,2.05-4.14l-.06.1a18.06,18.06,0,0,0,4.24-6.9,9.93,9.93,0,0,1,4.89-5.06,4.51,4.51,0,0,1,3-.43c7.69,12.69,20.2,15.31,33.06,13.21,13.87-2.27,25.3,1.67,35.27,10,12.08,10,24.8,10.63,38.31,4.88,14.68-6.24,29.17-11.38,45.3-5.17C301.28,125.16,306,117.3,312.55,118.2Z"/><path class="cls-62" d="M346.79,150.3,357,148c6.35-.63,11.57-4.53,17.62-6l.71.63a1.38,1.38,0,0,1-.52,1.7c-9,3.93-18,7.62-28.07,7.52-.65-.36-.86-.72-.64-1.06S346.57,150.3,346.79,150.3Z"/><path class="cls-63" d="M374.64,142c3.41-4,6.2-8.74,11.93-9.94l.66,1.23c-2.13,5.44-5,9.94-11.85,9.52Z"/><path class="cls-64" d="M400.6,126.06c1.24-5,4.21-8.34,9.34-9.56a6,6,0,0,1,.06,2.82c-1.61,3.65-3.92,6.55-8.11,7.36Z"/><path class="cls-65" d="M386.57,132.08c2.76-5.1,7.67-3.72,12-4a1.49,1.49,0,0,1,2.57.35c-3.13,6-8.48,5.06-13.75,4.41A8.6,8.6,0,0,1,386.57,132.08Z"/><path class="cls-64" d="M400.3,128.14c-.57,0-1.13,0-1.7-.06l2-2,.64.55A1.16,1.16,0,0,1,400.3,128.14Z"/><path class="cls-18" d="M409.5,118.12a3.84,3.84,0,0,1,.44-1.62c.35,0,.7,0,1.05,0l0,0A1.55,1.55,0,0,1,409.5,118.12Z"/><path class="cls-66" d="M409.5,118.12c.5-.52,1-1,1.51-1.54,5.28.16,9.13,3.83,13.75,5.61-1.73,4.4-4.85,7.72-8,11.13-4.78,5.17-9.4,8.69-17.18,5.64-4.39-1.72-8.72,1.83-13,3.26-3.76,1.25-7.15,5.1-11.7,2.13a7.25,7.25,0,0,0,.55-1.52c4.86-2.32,8.2-6.47,12-10,2.94-1.08,5.49-3.34,9-2.46,1.73.43,3-.67,3.84-2.23a1.77,1.77,0,0,0,.95-1.52Z"/><path class="cls-67" d="M292.84,148c8.74-.52,17.3,1.06,25.9,2.21.65.35.87.71.67,1.09s-.41.57-.63.57l-2,.62c-9.45-1.92-19.28-1.17-28.6-4C289.56,146.89,291.16,147.07,292.84,148Z"/><path class="cls-68" d="M318.78,151.91c0-.55,0-1.11,0-1.66l28.05.05c0,.53,0,1,0,1.57A134.88,134.88,0,0,1,318.78,151.91Z"/><path class="cls-69" d="M128.59,116c.86,8.86.9,8.73,9.24,10.89a49.31,49.31,0,0,0,21.54.5,49.91,49.91,0,0,1,23.38.77c.64.36.86.74.66,1.13s-.4.58-.61.58c-12,.09-23.92.11-35.88.28a45.12,45.12,0,0,1-13.8-1.67C126.12,126.39,125.29,124,128.59,116Z"/><path class="cls-70" d="M148.71,92.19c6.82-6.47,15.11-10.8,23.66-14,8.88-3.32,16.34-8.37,23.51-14.21a32.25,32.25,0,0,1,4.22-2.49,2.14,2.14,0,0,1,1.28,2.26c-4.37,8.43-12.21,12.72-20.33,16.36a232.37,232.37,0,0,0-25.57,13,7.93,7.93,0,0,1-4.3.6A5,5,0,0,1,148.71,92.19Z"/><path class="cls-71" d="M292.84,148l-4.7.48c-13-1.59-25.16,2-37.39,5.48-.65-.4-.86-.8-.64-1.2s.43-.6.65-.6c12-5.6,24.63-6.9,37.64-6A6.3,6.3,0,0,1,292.84,148Z"/><path class="cls-72" d="M218.73,50.1l2.07.39a3.15,3.15,0,0,1,.73,2.68c-5.9,5-12.2,9.11-20.2,9.72-.4-.47-.8-.94-1.22-1.39C205.11,55.72,212.38,53.66,218.73,50.1Z"/><path class="cls-73" d="M210.47,142.44c6.13,1.32,11,4.43,14.23,9.93A31.2,31.2,0,0,1,210.47,142.44Z"/><path class="cls-74" d="M228.62,154.3l18.17-.29a1.38,1.38,0,0,1,2.24.3C242.23,157,235.42,158.46,228.62,154.3Z"/><path class="cls-75" d="M186.75,128.32c4.71,2.58,11.19,2.1,14,8.05-5.17-.8-9.41-3.83-14.06-5.88-.64-.51-.85-1-.6-1.47S186.52,128.32,186.75,128.32Z"/><path class="cls-75" d="M200.61,136.3c4.36.41,8.2,1.68,10,6.21C206.37,141.92,203.31,139.4,200.61,136.3Z"/><path class="cls-76" d="M148.71,92.19l2.53.07c.1,4.65-2.74,6.48-6.82,7.12a2.8,2.8,0,0,1-2-1.67C143.75,95,146.31,93.68,148.71,92.19Z"/><path class="cls-77" d="M134.77,105.21c.13,3.25-.86,5.81-4.24,6.9C130.42,108.88,132.54,107,134.77,105.21Z"/><path class="cls-77" d="M130.59,112c.25,1.84,0,3.43-2.05,4.14C128.25,114.29,128.4,112.64,130.59,112Z"/><path class="cls-78" d="M186.75,128.32c0,.72-.07,1.45-.1,2.17l-3.85-.59c0-.57,0-1.14-.05-1.71Z"/><path class="cls-74" d="M224.6,152.3c1.82-.17,3.42.07,4.13,2.09C226.85,154.7,225.24,154.46,224.6,152.3Z"/><path class="cls-79" d="M249,154.31l-2.24-.3c.88-1.57,2.38-1.8,4-1.81,0,.6,0,1.2,0,1.8l-.81.4Z"/><path class="cls-80" d="M142.71,100.12l-3.05,0a4.39,4.39,0,0,1,2.77-2.44l.57.81.41.9Z"/><path class="cls-81" d="M242.81,56c0,.62,0,1.23-.05,1.84-6,2-10.7-.15-14.73-4.52a2.86,2.86,0,0,1,.71-2.78C233.53,52.06,238.47,53.26,242.81,56Z"/><path class="cls-82" d="M228.74,50.51l0,1.9c-2.64,2.15-5.27,2.15-7.92,0,0-.64,0-1.29,0-1.93A16.79,16.79,0,0,1,228.74,50.51Z"/><path class="cls-41" d="M236.76,454.2l-2,2Z"/><path class="cls-41" d="M238.76,452.2l-2,2Z"/><path class="cls-41" d="M240.76,450.19l-2,2Z"/><path class="cls-41" d="M242.76,448.19l-2,2Z"/><path class="cls-41" d="M244.76,446.19l-2,2Z"/><path class="cls-41" d="M246.75,444.19l-2,2Z"/><path class="cls-41" d="M248.75,442.19l-2,2Z"/><path class="cls-50" d="M207.51,527.68c9-4.32,14.22-11.12,17.58-19.66,3-7.67,6.3-15.21,8.65-23.18,1.75-5.95,4.44-11.2,13-11.07,6.69.11,13.47-2.85,20.13-4.71,2.87-.8,5.29-.89,6.94,1.87s.06,5-1.86,7c-6.19,6.49-12.4,13-20.67,16.87-5,2.32-7.48,6-8.63,11.27a128.16,128.16,0,0,1-5.07,18.1c-3.77,9.93-9.3,12.51-19.43,9.41A26.55,26.55,0,0,1,207.51,527.68Z"/><path class="cls-44" d="M220.79,52.42h7.92c4.13,3.25,9.22,4,14,5.4a133,133,0,0,0,24,4,100,100,0,0,0,18.06.55c5.84,3,12,1.79,18,1.22,2.09,2.2-.06,3.51-1.08,5-7.6,11.16-18.69,18.66-28.69,27.31l-2.21,1.94c-2.93,3.54-7.09,3.18-11,3.37-21.27,1-42.45-.79-63.56-2.82-10.56-1-21.27-.33-31.7-2.71-3.5-.8-7.39-.59-9.88-3.91,5.81-5.66,13.15-8.92,20.5-11.55,10.26-3.69,18.33-10.15,26.07-17.37Z"/><path class="cls-83" d="M154.76,91.8C193.39,95.43,232,99,270.91,97.88c3.26,0,6.84.91,9.72-.13,7-2.52,10.7,1.35,15,5.66,5.29,5.28,11.25,9.89,16.91,14.79a74.17,74.17,0,0,0-6.55,4.48c-4.57,3.87-9.27,4.25-14.78,2-10.43-4.31-20.67-3-30.82,1.61a101.37,101.37,0,0,1-19.61,7c-10.32,2.32-19.69,1.16-28-5.94A60.12,60.12,0,0,0,195,116.52a25.68,25.68,0,0,0-15.47-1.18c-11.73,2.7-23,.21-33.26-6.25-3.45-2.17-5.62-4.69-3.57-9a7.36,7.36,0,0,0,.29-1.61c3.72-.79,6.1-3.36,8.23-6.25Z"/></g></g></svg>