<svg xmlns="http://www.w3.org/2000/svg" viewBox="0 0 642.16 459.57"><defs><style>.cls-1{fill:#33392f;}.cls-2{fill:#3d433a;}.cls-3{fill:#dcdad5;}.cls-4{fill:#e3e1dc;}.cls-5{fill:#353b31;}.cls-6{fill:#fdfdfd;}.cls-7{fill:#fefefe;}.cls-8{fill:#474d44;}.cls-9{fill:#3e443b;}.cls-10{fill:#50564e;}.cls-11{fill:#4f554d;}.cls-12{fill:#464c43;}.cls-13{fill:#eae8e3;}.cls-14{fill:#f2efea;}.cls-15{fill:#fe8b5f;}.cls-16{fill:#f7d780;}.cls-17{fill:#efd07c;}.cls-18{fill:#dd3f36;}.cls-19{fill:#6f8f24;}.cls-20{fill:#ff7340;}.cls-21{fill:#ce3d34;}.cls-22{fill:#fe8a5f;}.cls-23{fill:#fe7241;}.cls-24{fill:#fe895e;}.cls-25{fill:#fe7441;}.cls-26{fill:#fe8b5e;}.cls-27{fill:#fc8758;}.cls-28{fill:#ffde84;}.cls-29{fill:#b7cf76;}.cls-30{fill:#c1da7c;}</style></defs><g id="Слой_2" data-name="Слой 2"><g id="Слой_1-2" data-name="Слой 1"><path class="cls-1" d="M184.23,426.22l-3.31-.46c-2.71-1.58-6.06.12-8.72-1.7l-.73-.47-.83.24c-2.55-1.81-5.9.12-8.44-1.77l-.74-.47-.84.25c-2.55-1.83-5.86.08-8.41-1.73l-.72-.5-.85.22c-2.56-1.82-5.9.12-8.44-1.77l-.69-.47-.8.21c-2.59-1.79-6,.24-8.53-1.86l-.48-.48-.62.27c-2.16-1.09-4.79-.22-6.87-1.62l-.72-.5-.84.21c-1.92-1.41-4.49-.28-6.43-1.63l-.82-.49-.94.19c-2.43-2-5.87.22-8.25-2l.06,0c-1.69-1.73-4.26-.33-6-1.72l-.8-.51-.93.16c-1.81-1.58-4.45-.23-6.28-1.76l-.69-.5-.82.2c-1.94-1.43-4.66-.12-6.49-1.89l.05,0c-1.66-1.78-4.37-.21-6.06-1.9l-.44-.51-.65.2c-3.74-.91-7.8-.89-10.91-3.66l-.45-.52-.67.16c-1.64-.54-3.46-.6-4.89-1.74h0c-1.27-.89-2.88-1.57-2.21-3.64,3.2-3.62,7.24-2.44,11.14-1.9,11.57,1.63,23.19.77,34.79.69a21.91,21.91,0,0,0,6.83-1.29c8.25-2.75,9.39-6.37,3.43-12.86-8.08-8.79-17.09-16.71-24.17-26.42-1.76-2.42-3.71-4.71-4.74-7.56-2.67-7.39.34-12.37,8.2-13.42,5.25-.7,10.65.49,15.8-1.32a28.84,28.84,0,0,1,3-.94c5.29-1.79,3.24-4.71,1.17-7.61-3.08-4.33-5.46-9.34-1.16-13.58,4.66-4.59,10-1.69,14.62,1.21,25.6,16.11,54.15,23.71,83.44,29.24a21.88,21.88,0,0,0,5,.48c3-.15,6.44.15,7.47-3.5.88-3.1-1.75-4.85-3.88-6.38A226.78,226.78,0,0,0,188,308.81c-11.93-6-24.1-11.46-35.2-18.93-4.23-2.84-8.39-6.39-6.56-12.2,1.66-5.25,6.65-6.11,11.48-6.22,12-.28,23.83,1.7,32.61,3.3-15-5-32-13.31-49.39-20.61a95.26,95.26,0,0,1-20.83-11.81c-3.54-2.69-9.15-5.12-5.76-10.87,3-5.14,8.23-3.06,12.65-1.56,13,4.4,24.86,11.3,37.57,16.31,3.1,1.23,6.11,2.66,9.26,3.76,12.76,4.46,12.65,4.18,19.37-7.81,6.27-11.19,18-12.88,29.19-14.67,15.52-2.47,31.19-2.27,46.85-2.22,30.33.1,60.66,0,91,0,11.71,0,23.21,1.91,34.69,3.94,4,.72,8.22,2.06,9.25,6.52,1.19,5.18-3,7.71-6.61,10.09-4.72,3.13-10,5.33-15,8-5.23,2.78-5.94,5.88-1,9.7,3.17,2.44,6.33,4.89,9.54,7.27,8.72,6.5,13.43,14.78,11.12,25.92-1.36,6.55,2,10.93,6.38,14.74,8.75,7.55,13.11,15.72,6,26.93-2.65,4.15-.88,9.06-.18,13.68,2.24,14.8,8.66,28.75,8.55,44-.11,17-3.24,20.94-20.09,23.83-12.19,2.09-12.4,2.66-4.56,12.83,2.24,2.9,5,5.51,6.29,9,1.75,4.61,4.07,9.49-1.68,13.24-8.27,1.25-16.45-.08-24.64-.89l-5.77-.22c-5.89-2.51-12.32.56-18.23-1.76l-3.78-.23c-4.52-2.39-9.66.39-14.21-1.72a6.44,6.44,0,0,0-5-.4c-3.51-1.66-7.52.09-11-1.6-1.61-.67-3.23-1.27-5-.41-7.67-1.21-15.62-.62-23-3.55l-3.37-.43c-3.34-1.86-7.31.24-10.64-1.67l-3.12-.36c-4.07-2-8.89.69-12.82-2.08l.19.1c-3.18-2-7.11.4-10.26-1.74l-.75-.46-.83.26c-3.22-2.07-7.22.35-10.42-1.8l-.75-.46-.83.26c-3.22-2.07-7.22.35-10.42-1.8l-.75-.46-.83.26c-2.56-1.78-5.8,0-8.39-1.61l-3.36-.45c-2.69-1.6-6,0-8.65-1.62l-3.16-.41c-2.78-1.49-6.12.06-8.85-1.65l-.84-.43-.91.22C190,426,186.75,427.86,184.23,426.22Z"/><path class="cls-2" d="M404.18,453.88c.82-7.15-1.54-12.94-6.82-17.89-2.62-2.45-4.41-5.78-6.74-8.58-1.82-2.19-3.05-4.45-1.81-7.26s3.95-2.35,6.1-2.08c5.16.67,9.81-1.51,14.71-2.2,6.95-1,10-5.11,10.61-12.15,1-11.82-1.68-23.08-4.51-34.36-1.77-7.06-3.54-14.12-5.14-21.22-1.15-5.1,0-9.74,2.81-14.26,4.39-7.19,3.94-9.47-1.92-15.6a79.22,79.22,0,0,0-5.67-5.63c-5.71-4.81-8.75-9.7-6-18,3-9-2.6-15.95-9.56-21.35-4.45-3.44-9.3-6.39-13.6-10-5.52-4.62-5.21-6.59,1.18-10,5.27-2.84,10.69-5.4,16.05-8.08a23.19,23.19,0,0,0,6.6-4.41c3.41-3.55,3.05-6.79-1.61-8.08A90.11,90.11,0,0,0,383.23,230c-46.81-4.37-93.74-1.43-140.61-1.75-12-.08-24.49,1-36.06,5.82-6.76,2.8-12.13,6.15-12.7,14.74-.41,6.18-3.46,8-9.66,7A74.75,74.75,0,0,1,166.25,250c-12.15-5.37-24.26-10.81-36.42-16.15-2.73-1.2-5.58-2.12-8.39-3.16-2.46-.91-4.75-.62-6.07,1.78-1.57,2.85.74,4.1,2.69,5.45a150.33,150.33,0,0,0,29.61,16.28c15.7,6.32,31.17,13.19,46.71,19.9,1.43.62,3.17,1.07,4.19,3.78-9-1-17.75-1.45-26.24-3-6-1.11-11.93-.58-17.88-.82a6.57,6.57,0,0,0-6.56,3.76c-1.43,3.23.65,6.07,3.06,7.68a188.27,188.27,0,0,0,17.9,10.73c17.36,9.09,35.35,17,51.4,28.5,3.9,2.8,8.54,5.4,6.69,10.71s-7.46,5.07-12.09,4.48a244.26,244.26,0,0,1-42.52-9.62c-17.16-5.4-34-11.55-48.85-22a10.82,10.82,0,0,0-2.51-1.59c-2.57-.87-5.54-1.56-7.49.6-2.18,2.41-1.73,5.64-.16,8.36,2.15,3.73,6.49,5.72,8.46,10.51-2.73,2.36-6.14,3.15-9.62,3.83-7.59-13.77-20.71-20.08-34.42-25.71-7.67-3.16-15.55-6.11-20.12-13.93-6.69-11.43-6.69-23.05.23-34,6.61-10.5,6.5-20.57,1-31.16a26.47,26.47,0,0,1-2.41-6.54c-2.34-10.82,4-19.55,14.4-16.61,25.52,7.17,53.33,2.3,77.56,16.17,13.44,7.68,28.15,6.85,43.79.49-12.87-2.81-24.92-3.89-36.32-7.72-8.73-3.19-17-7-24.52-12.79-6.42-4.93-15-5-22.2-8.31-17.15-4.56-34.94-2.47-52.32-4.9-6.49-.92-13.13-1.28-22.06-3,6.75,12.92,10.41,25,7.48,37.91a16.37,16.37,0,0,1-2.93,5.76c-4.7,4.41-6.41,10-6.29,16.24.41,21.6-1.47,43.25,1.38,64.8a26,26,0,0,1-1.81,13.71c-4.35,10.17-4.12,20.82-3.5,31.44.83,14.34,9.55,25.2,23.48,28.84,15.83,4.13,31.84,5.87,49.11.75-4.57-3.77-9.33-3.93-13.6-4.93a78.86,78.86,0,0,1-25.66-10.71c-10.52-6.91-14.82-18.73-11.07-29.4,5.29-15.07,11-18.88,26.33-14.34,10.77,3.2,22.14,3.69,32.56,8.07-4,3.69-8.89,1.39-13.36,1.93-3.51.43-7.78-1-9.8,3.1-2.24,4.59.5,8.35,3.13,11.81a205.68,205.68,0,0,0,21.4,23.54,100.74,100.74,0,0,1,8.37,8.55c3.79,4.64,2.93,8.55-2.44,11.26-4.76,2.4-9.79,4.1-15.29,3.79-12.54-.72-25.23,1.62-37.67-1.83-2.2-.61-4.68-.45-6.36,1.74-1.37,1.2-2.69,1.31-3.91-.21l.18.1c-1.31-.87-3.1-.65-4.25-1.88l.06,0c-1.13-1.12-3-.8-4.08-2h0c-1.06-1.2-2.93-.83-4-2h0c-1.08-1.19-3-.79-4-2.16l.11.07c-1.14-1.07-3.27-.58-3.9-2.47l.26.24a3.83,3.83,0,0,1-2.49-1.77l.07,0c-1.92-1.52-4.48-2.19-5.85-4.44l.23.24a2.82,2.82,0,0,1-2.22-2.22l.25.22a3.9,3.9,0,0,1-1.39-2.91C15.81,351,15.1,328.6,17,305.93c1.86-21.82,1.59-43.77,4.29-65.53.53-4.33.46-9,3.35-12.32,6.59-7.57,5.52-15.87,3.41-24.45-2.63-10.65-5-21.37-8.53-31.76-1.27-3.73-3-7.46-1.91-11.61,6.59-3.71,13.65-.85,17.52,2.88C45,172.57,56.44,172,67.92,171c10.45-.85,20.32-.22,30.39,2.88,7.25,2.23,15.06,2.67,22.69,3.36,8.41.76,16.27,2.22,22.69,8.72,4,4.08,10,5.12,15.56,6.33,9.42,2.06,18.88,3.7,27.36,9,5.62,3.5,11.89,1.28,17.41-.8,12.71-4.79,25.11-8,38.52-2.1,4.77,2.11,10.55.89,15.87.84,6.39-.05,12.57.3,18.3,3.79s11.65,2,17.53.75c9-1.86,17.6-2.88,25.82,3.06,3.82,2.76,8.91,2.4,13.6,2.41,12,0,24,.1,36,0,7.05-.07,13.81,1.15,20.69,2.68,24.23,5.39,48.61,4.37,71.45-4.87a405.72,405.72,0,0,0,38.75-18.61c15.45-8.28,31.85-16.71,44.24-30.15,1.13-1.23,2.3-3,3.79-3.15,17.58-1.57,26.37-16,37.16-26.6a269.52,269.52,0,0,0,27.92-32c5.72-7.7,13.56-11.56,23.2-11.6a3,3,0,0,1-.63,3,.77.77,0,0,0-.25,1.28c-1.59,2.7.15,6.07-1.73,8.72a1.06,1.06,0,0,0-.21,1.53c-1.73,2.59,0,5.82-1.6,8.43L632,111.4c-1.87,3.31.19,7.23-1.62,10.55-.12,1.18-.25,2.36-.37,3.54a1.34,1.34,0,0,1-2,.78c-2.37-2.33-2.48.37-3,1.52-20.25,43.25-53.59,72.09-97.85,88.9-17.15,6.51-31.91,16.49-43.53,30.74-5.86,7.19-14.42,16.16-8.94,24.53,5.59,8.54,16.49,2.13,24.72-.51,16.81-5.4,32.55-13.55,49-19.82,2.18-.83,4.3-1.82,6.52-2.52,3.23-1,7-2.15,9.18,1.09,2.74,4-.71,6.95-3.41,9.24C546,272,530.25,283.14,515,295c-8.4,6.54-17.15,12.58-25.14,19.69a48.89,48.89,0,0,0-15.63,27.11c-1.77,8.09-3.18,16.38-7.19,23.82-1.9,3.52-1.45,6.38,1.93,8.61,8.59,5.67,10.08,14.08,9.79,23.59-.35,11.28-1,22.7,3.93,33.41a2.65,2.65,0,0,1-.69,2.67l.1-.07a37,37,0,0,1-6.13,4l.11-.08a23,23,0,0,1-6.23,4l.18-.12c-.84,1.58-2.86,1.15-3.95,2.3l.06,0c-1.1,1.23-2.93.93-4.12,2l.1,0c-1.21,1.35-3.08,1.14-4.53,1.92l-.81-.11-.64.51c-1.37.95-3.11.85-4.55,1.6l-.81-.12-.64.5c-1.92,1.43-4.51.25-6.44,1.67l-.82-.22-.73.45c-3.29,2.07-7.29-.17-10.6,1.74l-5.42.43C418.81,455.08,411.46,456.73,404.18,453.88Z"/><path class="cls-1" d="M482.49,432.1c-2.66-.33-3.69-1.8-4.37-4.48-2.5-9.83-2.56-19.85-1.75-29.72.94-11.36-2.84-19.36-13-24.39-.89-.43-1.68-1-2.91-1.81,7.45-9.23,9.58-19.83,11.22-30.12,2.47-15.46,11.81-25.77,23.13-34.65,20.85-16.35,42.16-32.09,63.28-48.09a4,4,0,0,0,.76-.65c1.65-2.22,6.1-3.8,3.9-7-1.92-2.79-5.43-.54-8.2.6Q527.38,262.95,500.16,274c-6.83,2.77-13.87,4.44-21.33,4s-9.49-2.6-8.54-10c1.1-8.52,5.44-15.6,10.9-22,12.79-15,28.72-25.14,47-32.52,21.62-8.71,42.5-19.49,59.16-36.16a152.51,152.51,0,0,0,25.56-32.9c4.66-8.29,9.33-16.57,14.61-25.95l1,8.14c.88,3.79,1.18,7.58-.2,11.33-.09,1.21-.19,2.41-.28,3.61-2.32,5.28.47,11.09-1.67,16.38l-.33,5.63a181.17,181.17,0,0,0-.06,39.23,15.31,15.31,0,0,0,.43,7.21c2.1,6.61-.75,13.63,1.68,20.22.09,1.92.18,3.85.28,5.77,2.15,6.81-.61,14,1.61,20.8.1,2.4.21,4.79.32,7.19a247.26,247.26,0,0,1,0,46l0,.09c-1.34.93-.88,2.87-2.16,3.84l0-.07c-1.53,1.91-2.19,4.48-4.45,5.83l.21-.22a3.28,3.28,0,0,1-2,2.36l.15-.16a4.62,4.62,0,0,1-2.13,2.17l.14-.14a5.33,5.33,0,0,1-2.09,2.17l.11-.13a9.4,9.4,0,0,1-1.91,2.22h0c-.66.67-1.34,1.33-2,2A14.77,14.77,0,0,1,612,331.9l.11-.09a6,6,0,0,1-2.2,2l.14-.15a4.79,4.79,0,0,1-2.14,2.15l.14-.15a4.79,4.79,0,0,1-2.14,2.15l.15-.15a3.66,3.66,0,0,1-2.32,2l.21-.19a2.74,2.74,0,0,1-2.31,2.1l.21-.21a2.36,2.36,0,0,1-2.26,2.16l.22-.22c-1.07,2.45-3.95,2.79-5.51,4.67l-.07,0a24.7,24.7,0,0,0-2.07,1.88h0a9.94,9.94,0,0,1-2.23,1.91l.13-.12a3.82,3.82,0,0,1-2.34,2l.21-.18a2.64,2.64,0,0,1-2.33,2.07l.21-.22c-1.16,2.41-3.92,2.86-5.63,4.6h0a11.18,11.18,0,0,1-2.24,1.88l.14-.12a3.87,3.87,0,0,1-2.35,2l.21-.19c-1.32,2.18-4,2.64-5.6,4.53l-.11.08c-.82.48-1.41,1.24-2.19,1.78l.08-.06a5.18,5.18,0,0,1-2.32,1.92l.19-.17a2.73,2.73,0,0,1-2.4,2l.22-.23c-.4,1.93-2.7,1.33-3.54,2.68l-.06,0c-.78.56-1.39,1.33-2.21,1.83l.1-.09a4.09,4.09,0,0,1-2.37,1.91l.21-.19c-1.4,2.16-4,2.81-5.8,4.43h0a7.07,7.07,0,0,1-2.29,1.88l.17-.15a2.94,2.94,0,0,1-2.44,1.91l.24-.22c-.45,1.91-2.72,1.33-3.6,2.65l0,0a12.48,12.48,0,0,1-2.28,1.82l.14-.13a3.34,3.34,0,0,1-2.41,1.92l.23-.22c-.48,1.82-2.75,1.23-3.55,2.63l-.1.07c-.82.5-1.42,1.29-2.26,1.75l.12-.09a3.49,3.49,0,0,1-2.44,1.85l.23-.21c-.48,1.82-2.75,1.23-3.55,2.63l-.1.06a27.71,27.71,0,0,1-2.29,1.75l.14-.11a3.15,3.15,0,0,1-2.48,1.83l.24-.22c-.45,1.91-2.72,1.33-3.6,2.65l0,0a10.33,10.33,0,0,1-2.31,1.8l.16-.14c-1.63,1.89-4,2.7-5.91,4.26h0a5.22,5.22,0,0,1-2.41,1.78l.22-.19c-.63,1.68-2.81,1.12-3.63,2.52l-.11.07c-.83.5-1.41,1.31-2.29,1.74l.14-.11a3.18,3.18,0,0,1-2.48,1.83l.24-.22c-.49,1.92-2.72,1.36-3.7,2.59h0a4.92,4.92,0,0,1-2.44,1.76l.24-.19c-.62,1.71-2.8,1.16-3.65,2.53l-.09.05c-.82.53-1.4,1.39-2.38,1.7l.19-.15C486.54,431.26,484.91,432.58,482.49,432.1Z"/><path class="cls-3" d="M636.25,86c-7.92,4-18,5-21.79,15a6.82,6.82,0,0,1-2.19,3.29c-9,5.78-14.71,14.42-20.41,23.11a10.58,10.58,0,0,1-3.55,3.46c-6.49,3.56-10.93,8.84-15.13,14.91s-11.39,9.13-19,9.71a9.55,9.55,0,0,0-7.45,3.8c-7.09,8.53-15.28,15.78-26.4,18.66-2.91.76-4,3.33-6,5-8.7,7.52-17.93,13.89-30.15,13.37a5.8,5.8,0,0,0-5.08,2.2c-13,14-29.71,18-48,17.49-3-.08-5.85-.8-8.86,0-12,3.34-23.83,1.62-35.33-2.09a49.15,49.15,0,0,0-16.61-2.14q-20,.42-39.93,0c-6.3-.14-12.73-.95-17.4-6.06-2.23-2.44-4.84-1.7-7.41-1.27-5.24.89-10.43,2.17-15.7,2.82-5.85.72-12,2.16-16.81-3.19-1.44-1.58-3.67-1.26-5.66-1.38-13.86-.88-28.06.37-41-6.55-2.49-1.33-4.44.63-6.45,1.59a91.79,91.79,0,0,1-23.67,7.61c-4.94.88-10.06,1.35-13.81-3.26-2.56-3.15-6.44-3.2-9.89-4.1-7.71-2-15.54-3.59-23.2-5.78-4.7-1.35-9.78-2.58-11.81-8.1-1-2.84-3.77-2.3-6-2.6-8.56-1.18-17.14-2.24-25.71-3.37-6.91-.9-13.93-1.41-20-5.34-2.92-1.88-5.74-.49-8.64.13a84.7,84.7,0,0,1-27.78,1.2c-3.37-.4-7.57-.67-9.21-3.18-5.38-8.22-14.32-8.3-22.14-11-5.2,1.15-8.19-6.25-13.8-3.56a1.85,1.85,0,0,1-2.16-.61l-.21-8A12.94,12.94,0,0,1,2.13,138a10.66,10.66,0,0,0,.1-1.87,28.81,28.81,0,0,1,2-2.15v0c1.85-1.61.23-4.34,1.92-6a12.81,12.81,0,0,0,.09-2C7.41,125,7,123.11,8.15,122l0,0c1.25-1,.88-2.87,2-4h0c1.24-1,.85-2.93,2.08-4l0,0c.64-.71,1.33-1.37,2-2.05h0c.67-.66,1.35-1.32,2-2h0c.69-.63,1.36-1.3,2-2h0c.7-.63,1.36-1.31,2-2h0c.69-.66,1.34-1.35,2-2l0,0c1-1.23,2.93-.83,4-2.08h0c1.12-1.15,3-.75,4.06-2a16.14,16.14,0,0,0,2-.09c1.65-1.7,4.39-.06,6-1.93h0c1.22-1,.83-2.94,2.08-4l-.05,0c.62-.72,1.32-1.38,2-2.06h0c.67-.66,1.35-1.32,2-2h0c.69-.64,1.36-1.31,2-2h0c.69-.64,1.36-1.31,2-2h0c.7-.65,1.36-1.33,2-2l0,0a23.79,23.79,0,0,1,2.15-2,9.76,9.76,0,0,0,1.87-.15c.68-.61,1.35-1.24,2-1.89l0,0c1.09-1.19,3-.79,4-2a14.68,14.68,0,0,0,2-.14c.7-.62,1.41-1.23,2.12-1.83l3.87-.1a5,5,0,0,1,6,0l4-.08A17,17,0,0,0,80.11,74l.06-.06a22.71,22.71,0,0,0,2-1.93l0,0c.71-.63,1.36-1.31,2-2l0,0c.67-.69,1.33-1.38,2.06-2l0,0c1-1.25,2.92-.86,4-2.09h0c.68-.68,1.41-1.32,2.15-2a11.67,11.67,0,0,0,1.87-.12l2-1.9,0,0c1.08-1.25,3-.86,4.1-2a11,11,0,0,0,1.9-.11c1.09-1.16,3-.68,4-1.92a14.72,14.72,0,0,0,2-.08c3-2.24,7,.51,10-2h0c.7-.64,1.36-1.31,2-2h0c1.08-1.16,2.94-.79,4-2h0c1.15-1.16,3-.81,4.15-1.94l3.88-.12c2.37-2,5.74.25,8.08-1.89l19.82,0c3,2.24,4.55.22,6-2a12.08,12.08,0,0,0,.08-1.9L168.08,42a11,11,0,0,0,.15-1.89c.64-.73,1.27-1.47,2-2.14h0c.67-.66,1.35-1.32,2-2h0c.69-.63,1.36-1.3,2-2h0c.7-.65,1.36-1.33,2-2l0,0c1.05-1.19,2.93-.8,4-2.05h0c1.12-1.13,3-.73,4-2l2-.1c3-2.19,7,.55,9.91-1.93l0,0c1.28-1,.86-2.9,2.11-3.91l-.05.05c1-1.25,2.92-.88,4-2.07h0c5.76-2.67,12.21.71,18-2l0-4c.84-1.11,1.44-2.53,3.16-2.56.29.16.71.24.86.48,2.92,4.72,8.41,9.65,7.67,14.39-1.08,6.91-9.38,3.79-14.34,5.26-19.24,5.73-36.38,14.58-49.74,29.9-4.68,5.57-10.31,3.11-15.63,1.61-13.61-3.87-26.06-3.87-35.2,9.2-1.39,2-3.46,3.69-5.8,3.37-8.78-1.23-14.09,4.59-20,9.3-5,2.63-9.64,5.8-15.14,7.49-6,1.85-6.09,5.45-1.93,9.56,1.4,1.39,3.27,2.29,4.5,3.9,5.66,7.39,4.88,12.76-2.78,18-2.75,1.89-5.15,4.2-7.84,6.15a7.6,7.6,0,0,1-2.61,1c-3.61.17-5-2.55-6.66-5-7.31-10.77-18.84-11.24-27.18-1.13-7,7.53-10,15.53-3,24.75C30.5,155,35.21,155,39.39,155c15,.07,29.76,1.21,44.17,5.67a15.64,15.64,0,0,0,7.91.4c14.51-3.29,28.22.4,41.91,4.44,12.41.11,22,7.45,32.41,12.67,7.69,4.49,16.42,6.7,24.7,9.37,6.75,2.18,15.08,1.21,20.62-5.63,1.84-2.28,3.71-4.7,7.1-4.72,7.17,2.92,14.42,2.17,21.68.44,7.3-.31,15.11-1.63,17.07,8.67a4.87,4.87,0,0,0,1.81,2.33c4.9,4.27,32.61,4.55,37.06-.38,5.19-5.76,10-6.54,16.45-2.32,6.25,4.1,12.81,6.92,20.4,2.24,3.86-2.38,6.85,1,9.7,3.15,5.81,4.39,12,7.06,19.46,5.15a13.35,13.35,0,0,1,4.46,0c13,6.47,27.43,2.65,40.87,5.94,1.88.45,4-.58,5.69-1.56,7.95-4.52,15.4-9.81,25.38-4,3.44,2,8.05-.82,10.15-4.49,3.56-6.22,8-7.8,14.81-5.42,3.79,1.33,7.84-.41,11.67-1.57,6.68-2,13.31-4,20.5-2.58,4.17.84,7.77-1.07,10.92-3.78,6.07-5.23,10.92-11.53,16-17.71,4.09-5,.35-10.31,1.36-15.36,9-13,20.54-22,36.86-23.3,5.92-.48,8-3.6,9.64-9.27,2.72-9.39,6.12-18.61,18.19-21.15,7-1.46,12-7.13,12.73-15,.32-3.43,1.81-6.36,3.06-9.43,2-4.82.52-8.1-4.13-10.67-8.31-4.61-11.72-13.82-9.36-23.9,2.56-.16,5.15-.83,7.55.66a18.75,18.75,0,0,0,2,.1c1.08,1.21,3,.8,4,2l0,0c.68.65,1.33,1.33,2.05,1.94l0,0a21.32,21.32,0,0,0,2,2l0,0a23.14,23.14,0,0,0,1.94,2h0c2.27,1.8-.85,6,3.17,7l2.93,0c4,.44,8.06-1,11.89.93a13.27,13.27,0,0,0,1.89.07c.68.66,1.45,1.21,2.11,1.88A10.41,10.41,0,0,0,634,52a16.2,16.2,0,0,1,2.14,2l0,0a24.3,24.3,0,0,1,2,2l0,0c1.26,1.06.84,3,2,4a16.07,16.07,0,0,0,.09,2c1.68,1.71.12,4.41,1.88,6.09,0,1.92,0,3.83,0,5.75-1.13,1.15-.77,3-2,4.13h0c-1.22,1.06-.78,2.93-2,4l-.07,3.86A1.16,1.16,0,0,1,636.25,86Z"/><path class="cls-4" d="M590.2,34c.83,5.53,4.93,10.15,4.2,16.2-.36,3,2.47,3.16,4.74,3.94,9.9,3.4,11.32,7.07,6.78,16.33-1,2-2.44,3.45-2.53,6.18a19.79,19.79,0,0,1-16.76,19.08c-4.88.74-7.09,2.11-9,7.14-2.09,5.6-6.69,10.12-5.93,17,.26,2.37-2.53,4.5-4.7,4.49-6.76,0-12.58,5.5-19.61,3.15-2.33-.78-3.84.05-5,2-4.33,7.45-12.32,10.85-18.27,16.51l-1.35-.45a9.43,9.43,0,0,1-2.74-2.85C510.68,128,515.77,118,533.57,118c5.42,0,8.8.11,10.64-5.44s5.08-11.15-.11-16.76c-1.85-2-5.73-3.4-3.28-7.19,2.18-3.37,5.72-4.64,9.57-4.2,7.18.83,13.12,4.53,18.8,8.7-.33-.66-1.16-.86-1.55-1.43-8-11.79-17.53-14.64-31.29-8.76-9.4,4-19.48-5.74-17.78-15.9,1.34-8-2.46-11.64-9.34-12.12-8.68-.61-16.37-2.11-24.36-6.67-7.21-4.12-17-3.5-24.92,1.25-4.68,2.8-7.89,3.7-11.63-1.5-3.21-4.48-9.05-7.57-13.95-6.38-8.71,2.11-15.9-.13-23.25-3.8-.92,0-1.84,0-2.75-.12a10,10,0,0,0-6.65,1.48c-4,2.45-7.3,2.55-10.12-1.82-2.65-4.1-6.62-5.18-11.27-4.09a8.15,8.15,0,0,1-2.78-.27c-7.76-9.14-19.08-8.17-29.29-9.84-4.39-.72-6.26,4.27-8.85,7.17-3,3.36-5.73,6.06-11,3-12.9-7.51-18.38-6.61-28.76,3.61-4.85,4.54-9.88,8.85-15.78,12-2.13.19-3.88-.17-4.12-2.78,1.38-5.81,4.69-11.21,3.73-17.52-3-9-12.94-13.44-22.56-10-4.82,1.71-8.25,5.17-11.66,8.71-3.21,2.89-6.05,6.47-11.06,6-9.51-1.79-18.38-1.43-24.77,7.33-.81,1-1.59,2.53-2.72,2.79C199.68,46.05,191.91,54,183,60.18c-5.62.2-11.29,4-16.84-.2,2.11-3.39,2.56-8.53,8.83-7.26,2.11.43,2.73-2.42,3.88-4,5.93-8,14-12.28,23.73-13.88a10,10,0,0,0,2.82-.64c7.88-4,15.93-7.43,25.55-6.87-4.43-4.77-6.36-10.2-8.76-15.37-.54-.45-.72-.9-.53-1.34s.37-.66.56-.66q1,0,1.95-.09a5.06,5.06,0,0,1,6,.05,18.43,18.43,0,0,0,2,.11A94.9,94.9,0,0,1,242.27,4a15.5,15.5,0,0,0,1.93-.09c.65-.69,1.43-1.24,2.09-1.92a13.36,13.36,0,0,0,1.9,0c1.65-1.78,4.43-.11,6.06-2h15.86c1.64,1.83,4.41.17,6.07,2a13.4,13.4,0,0,0,1.9,0c.66.67,1.43,1.22,2.08,1.9.66.06,1.31.09,2,.09.61.7,1.39,1.24,2,1.92a17.15,17.15,0,0,0,1.9.1c.71.66,1.45,1.28,2.1,2l0,0c.67.67,1.4,1.28,2,2l2-.07c.69-.63,1.37-1.27,2-1.91a18.38,18.38,0,0,0,2-.1c.69-.63,1.38-1.26,2.06-1.9a17.81,17.81,0,0,0,1.93,0,36.88,36.88,0,0,1,18,0l2,0c1.6,1.88,4.38.23,6,2h0c1.06,1.21,2.9.85,4,2h0a2.63,2.63,0,0,0,4,0h0c1.09-1.19,3-.79,4.05-2,.65,0,1.31,0,2-.06a12,12,0,0,1,10,0,18.14,18.14,0,0,0,1.95,0c1.07,1.23,2.95.75,4,1.94a15.4,15.4,0,0,0,1.92.06c.66.68,1.43,1.23,2.08,1.92a15.41,15.41,0,0,0,1.92.08c.66.68,1.44,1.23,2.08,1.94a15,15,0,0,0,1.9.09,4.94,4.94,0,0,0,6.15,0h9.89c1.08,1.22,2.95.75,4.05,1.91l2,.07c1,1.27,2.92.77,4,2a18,18,0,0,0,1.94.06l2.05,1.9c.65.07,1.31.1,2,.11,5.34,1,10.18,6,16.16,2q1,0,1.92-.12c.65-.67,1.42-1.22,2.05-1.91A15.66,15.66,0,0,0,420.2,20a37,37,0,0,1,18,0l2,0c1,1.26,2.91.77,4,1.92q1,.09,2,.09c1.07,1.22,2.95.82,4,2l0,0c.67.66,1.32,1.34,2,2h0a1.21,1.21,0,0,0,2,0c.66,0,1.32,0,2-.07,1.1-1.17,3-.71,4.06-1.91a17.58,17.58,0,0,0,1.92,0c3-2.34,7,.45,10-2h11.92c1.62,1.85,4.39.22,6,2h0c1.05,1.24,2.95.79,4,2l4-.07c8.65-1.27,17.3-1.95,26,0l5.94.09c1.65,1.82,4.4.18,6.07,1.94.65,0,1.3.06,2,.05,1.08,1.21,3,.81,4.06,2h0a26.51,26.51,0,0,0,2,2l0,0c2.6,4.3,6.23,3.55,10,2l4-.06c3.72-2.42,8.33.59,12-1.94h7.91c1.07,1.23,2.92.83,4,2l0,0a2.59,2.59,0,0,0,4,0h0A2.75,2.75,0,0,1,590.2,34Z"/><path class="cls-5" d="M4,156l.67-4.84,13.51,8.87c7.62,18.48,11.73,37.9,15.58,57.4.62,3.14-1,5.13-3,6.91-5.14,4.55-5.84,10.43-6.86,16.92-2.07,13.13-.12,26.54-3.47,39.49a2.79,2.79,0,0,0-.13,1c1.11,16.64-3.72,33.11-1.91,49.66,1.35,12.43,2,25.09,6.23,37.07.66,1.85,1.94,3.63-.1,5.4-1,1-1.61.85-2-.5l.24.27c-1.86-.45-1.26-2.74-2.65-3.54l-.06-.1c-.55-.82-1.4-1.45-1.6-2.49l.19.27c-1.82-1.07-1.56-3.1-2.19-4.72l.17-.67-.51-.45c-1.48-2.12-.63-4.8-1.69-7C14.56,343,16,331,14.4,319c2.18-8.91-.51-18.09,1.54-27,1.33-20.7,2.28-41.39,0-62.09-1.49-2.71,0-6-1.53-8.66a.78.78,0,0,0-.24-1.3c-2-2.6-.1-6-1.78-8.65a.81.81,0,0,0-.22-1.35c-1.86-2.76-.3-6.19-1.75-9l-.36-3c-1.65-2.8-.23-6.16-1.64-9l-.34-3c-2-3.32.17-7.3-1.7-10.64-.13-1.13-.27-2.25-.4-3.38-1.77-3.35.23-7.27-1.6-10.6L4,158a1.26,1.26,0,0,1-.41-1.29C3.71,156.25,3.85,156,4,156Z"/><path class="cls-6" d="M404.18,453.88c7.3,1.29,14.65-.45,22,.34-2.88,3-6.69,1.24-10,1.95a5.18,5.18,0,0,1-5.89,0h-8.12a7.07,7.07,0,0,1-7.87,0c-5.28-1.2-11.1,1.75-16-2.08C386.86,453.33,395.53,455.18,404.18,453.88Z"/><path class="cls-6" d="M630.28,310c2.15-15.33-.69-30.67,0-46,.53.81,1.52,1.61,1.53,2.42q.13,20.59,0,41.19C631.82,308.42,630.81,309.21,630.28,310Z"/><path class="cls-6" d="M626,202.81a106.68,106.68,0,0,1,.06-39.23Z"/><path class="cls-7" d="M292.22,444.22a78.17,78.17,0,0,1,23,3.55c-1.64.06-3.38-.19-4.92.26C303.56,450,297.66,448.33,292.22,444.22Z"/><path class="cls-7" d="M414.29,22c-2.08,3.85-5,4.83-8.85,2.57C403,23.14,400,22.5,398.13,20,403.73,18.93,408.82,22,414.29,22Z"/><path class="cls-7" d="M15.94,292c0,9,1.12,18.12-1.54,27-.07-6.88-.16-13.75-.21-20.63C14.17,296.12,14,293.77,15.94,292Z"/><path class="cls-6" d="M524.17,25.93h-26c4.92-3.92,10.68-1.08,16-1.95a2.75,2.75,0,0,1,4,0C520.37,24.06,522.72,23.62,524.17,25.93Z"/><path class="cls-6" d="M628.1,230.24c-2-6.63-2-13.41-1.68-20.22C630,216.51,627.52,223.5,628.1,230.24Z"/><path class="cls-6" d="M630,256.81c-1.94-6.83-1.88-13.8-1.61-20.8C632.15,242.69,629.47,249.87,630,256.81Z"/><path class="cls-7" d="M220.16,18c-5.63,3.88-12,1.07-18,2C207.81,16.1,214.18,18.78,220.16,18Z"/><path class="cls-7" d="M242.27,4c-2.7,3.13-5.25,6.55-10.12,6.05C234.24,5.91,237.36,3.46,242.27,4Z"/><path class="cls-6" d="M354.21,452.13c6.15-.15,12.28-.17,18.23,1.76C366.35,453.4,360,455.68,354.21,452.13Z"/><path class="cls-7" d="M318.16,5.94l-18,0A18.22,18.22,0,0,1,318.16,5.94Z"/><path class="cls-7" d="M438.16,19.94h-18A18.32,18.32,0,0,1,438.16,19.94Z"/><path class="cls-6" d="M626.38,158c-.28-5.54-.41-11.07,1.67-16.38C627.48,147,630,152.81,626.38,158Z"/><path class="cls-7" d="M336.22,450.18c4.83-.23,9.65-.3,14.21,1.72C345.69,451.37,340.61,453.6,336.22,450.18Z"/><path class="cls-6" d="M628.17,50l-14,0c-.66-.44-.87-.89-.66-1.33s.44-.67.66-.67C618.84,48.71,623.94,46.23,628.17,50Z"/><path class="cls-6" d="M628.33,138c.07-3.78.14-7.55.2-11.33a11.65,11.65,0,0,0,1.48-1.14C629.69,129.68,631.72,134.18,628.33,138Z"/><path class="cls-7" d="M394.25,456.19h7.87C398.33,460.7,398,460.7,394.25,456.19Z"/><path class="cls-7" d="M262.27,439.68c4.36.15,8.8-.23,12.81,2.08C270.78,441.26,266,444,262.27,439.68Z"/><path class="cls-7" d="M66.2,398.07a28.27,28.27,0,0,1,10.91,3.66C73,401.94,68.59,403,66.2,398.07Z"/><path class="cls-6" d="M590.2,34l-4,0c4-3,8-3,12-.08Z"/><path class="cls-6" d="M570.24,32c-3.56,3.45-8,1.4-12,1.94C561.74,30.38,566.21,32.57,570.24,32Z"/><path class="cls-6" d="M554.25,34c-6.2,3-7.2,2.84-10-2C547.31,33.94,550.74,34.16,554.25,34Z"/><path class="cls-7" d="M350.18,8l-10,0C343.54,5.08,346.86,5.06,350.18,8Z"/><path class="cls-7" d="M320.22,448.18c3.77-.18,7.57-.5,11,1.6C327.53,449.51,323.51,451.34,320.22,448.18Z"/><path class="cls-7" d="M6.38,175.33c2,3.32,1.92,7,1.7,10.64C4.85,182.85,6.6,178.93,6.38,175.33Z"/><path class="cls-7" d="M4.38,161.35c1.84,3.33,1.91,6.94,1.6,10.6C2.9,168.8,4.58,164.93,4.38,161.35Z"/><path class="cls-7" d="M2.13,138c0,3.3-.08,6.59-.13,9.89C-.64,144.57-.73,141.27,2.13,138Z"/><path class="cls-6" d="M431.57,453.79c3.34-1.73,6.94-2,10.6-1.74C439.08,455.34,435.17,453.6,431.57,453.79Z"/><path class="cls-7" d="M472.22,22c-2.84,3.19-6.64,1.54-10,2C465,20.64,468.84,22.47,472.22,22Z"/><path class="cls-7" d="M196.14,26c-2.77,3.37-6.57,1.48-9.91,1.93C189,24.68,192.81,26.48,196.14,26Z"/><path class="cls-7" d="M278.21,442.12c3.67-.24,7.29-.17,10.64,1.67C285.25,443.57,281.34,445.31,278.21,442.12Z"/><path class="cls-7" d="M252.2,438c3.54-.13,7.11-.44,10.26,1.74C259,439.59,255.16,441.31,252.2,438Z"/><path class="cls-7" d="M240.2,436c3.6-.18,7.19-.22,10.42,1.8C247.09,437.56,243.21,439.33,240.2,436Z"/><path class="cls-7" d="M228.2,434c3.6-.18,7.19-.22,10.42,1.8C235.09,435.56,231.21,437.33,228.2,434Z"/><path class="cls-7" d="M118.17,56c-2.79,3.33-6.6,1.5-10,2C111,54.66,114.82,56.47,118.17,56Z"/><path class="cls-6" d="M630.38,122c-.29-3.64-.2-7.23,1.62-10.55C631.82,115,633.47,118.82,630.38,122Z"/><path class="cls-6" d="M594.3,348a9.53,9.53,0,0,1,5.51-4.67C599.44,346.66,597.27,347.82,594.3,348Z"/><path class="cls-6" d="M580.2,360a10.1,10.1,0,0,1,5.63-4.6C585.4,358.7,583.22,359.86,580.2,360Z"/><path class="cls-6" d="M570.35,368.06a9.74,9.74,0,0,1,5.6-4.53C575.35,366.61,573.26,367.84,570.35,368.06Z"/><path class="cls-7" d="M26.45,377.47a11.27,11.27,0,0,1,5.85,4.44C29.22,381.92,27.06,380.72,26.45,377.47Z"/><path class="cls-6" d="M550.15,384a9.64,9.64,0,0,1,5.8-4.43C555.3,382.68,553.18,383.91,550.15,384Z"/><path class="cls-6" d="M510.15,414a9.51,9.51,0,0,1,5.91-4.26C515.2,412.66,513.13,414,510.15,414Z"/><path class="cls-7" d="M132.18,415.94c3-.08,6-.2,8.53,1.86C137.75,417.72,134.49,419,132.18,415.94Z"/><path class="cls-7" d="M142.2,418.06c3-.2,5.9-.13,8.44,1.77C147.73,419.73,144.53,421,142.2,418.06Z"/><path class="cls-7" d="M152.21,420.11c3-.25,5.84,0,8.41,1.73C157.72,421.73,154.55,422.93,152.21,420.11Z"/><path class="cls-7" d="M162.2,422.06c3-.21,5.9-.13,8.44,1.77C167.73,423.73,164.53,425,162.2,422.06Z"/><path class="cls-7" d="M172.2,424.06c3.05-.19,6.08-.24,8.72,1.7C177.91,425.72,174.65,427,172.2,424.06Z"/><path class="cls-7" d="M184.23,426.22c2.9-.24,5.76-.24,8.23,1.67C189.63,427.74,186.54,428.89,184.23,426.22Z"/><path class="cls-7" d="M194.21,428.1c3.1-.28,6.14-.23,8.85,1.65C200,429.7,196.72,431,194.21,428.1Z"/><path class="cls-7" d="M206.22,430.16c3-.31,6-.1,8.64,1.62C211.89,431.73,208.68,433,206.22,430.16Z"/><path class="cls-6" d="M482.49,432.1l5.55-2.45c-.84,3.06-2.94,4.34-6,4.24C482.18,433.29,482.34,432.7,482.49,432.1Z"/><path class="cls-7" d="M218.23,432.23c3-.27,5.83-.16,8.39,1.61C223.74,433.74,220.61,434.91,218.23,432.23Z"/><path class="cls-6" d="M476,437.85a9.5,9.5,0,0,1,6.13-4A5.56,5.56,0,0,1,476,437.85Z"/><path class="cls-6" d="M469.87,441.75a10.64,10.64,0,0,1,6.23-4A5.36,5.36,0,0,1,469.87,441.75Z"/><path class="cls-7" d="M410.24,456.17h5.89C414.17,460,412.21,460,410.24,456.17Z"/><path class="cls-7" d="M106.21,409.92c2.93-.11,5.79.09,8.25,2C111.59,411.7,108.38,413,106.21,409.92Z"/><path class="cls-6" d="M612.19,50c-2.82-2.13-1.66-5.25-2-8,2.37,1.43,1.94,3.8,2,6,.57.45.75.89.57,1.33S612.38,50,612.19,50Z"/><path class="cls-7" d="M166.14,46c-.73,4.47-2.8,5-6,2C162.38,48.1,164.19,46.85,166.14,46Z"/><path class="cls-7" d="M140.29,48c-2.2,2.72-5.28,1.72-8.08,1.89C134.38,47,137.5,48.26,140.29,48Z"/><path class="cls-6" d="M634.23,98c-.24-3.07-.2-6.08,1.73-8.72C636,92.28,637.2,95.54,634.23,98Z"/><path class="cls-6" d="M632.42,107.94c-.34-3-.29-5.87,1.6-8.43C634,102.42,635.12,105.55,632.42,107.94Z"/><path class="cls-7" d="M8.42,189c2,2.73,1.82,5.88,1.64,9C7.14,195.39,8.5,192,8.42,189Z"/><path class="cls-7" d="M10.42,200.94c2.1,2.72,1.83,5.9,1.75,9C9.1,207.45,10.52,204.05,10.42,200.94Z"/><path class="cls-7" d="M12.39,211.33c1.73,2.65,2,5.6,1.78,8.65C11.17,217.59,12.45,214.32,12.39,211.33Z"/><path class="cls-7" d="M14.41,221.28c1.94,2.63,1.9,5.62,1.53,8.66C13.24,227.44,14.44,224.25,14.41,221.28Z"/><path class="cls-6" d="M623.67,319.7a12.3,12.3,0,0,1,4.45-5.83C628.13,317,626.93,319.11,623.67,319.7Z"/><path class="cls-6" d="M443.72,451.82a8.29,8.29,0,0,1,6.44-1.67C448.47,452.46,446,451.93,443.72,451.82Z"/><path class="cls-7" d="M124.21,414.11c2.47-.24,4.87-.19,6.86,1.62C128.63,415.85,126.05,416.54,124.21,414.11Z"/><path class="cls-7" d="M116.22,412.19a8.09,8.09,0,0,1,6.43,1.63C120.35,413.9,117.93,414.45,116.22,412.19Z"/><path class="cls-7" d="M254.25,0c-1.5,2.25-3.84,1.91-6.06,2C249.65-.39,252,.05,254.25,0Z"/><path class="cls-7" d="M100.22,408.22a7.29,7.29,0,0,1,6,1.72C104.09,409.92,101.79,410.37,100.22,408.22Z"/><path class="cls-7" d="M92.21,406.11a7.63,7.63,0,0,1,6.28,1.76C96.22,407.91,93.82,408.41,92.21,406.11Z"/><path class="cls-7" d="M84.21,403.92c2.38-.12,4.65.12,6.49,1.89C88.33,405.89,85.81,406.47,84.21,403.92Z"/><path class="cls-7" d="M78.2,402c2.26-.14,4.38.18,6.06,1.9C82.05,403.92,79.69,404.37,78.2,402Z"/><path class="cls-7" d="M54.28,393.69l3.91.21,2,2.07C58,395.9,55.5,396.39,54.28,393.69Z"/><path class="cls-7" d="M14.43,355c1.8,2,1.71,4.54,1.69,7C13.6,360.1,14.35,357.45,14.43,355Z"/><path class="cls-7" d="M6.12,128c0,2.2.39,4.53-1.92,6C4.26,131.82,3.81,129.47,6.12,128Z"/><path class="cls-7" d="M38.19,98c-1.41,2.44-3.78,1.92-6,1.93C33.67,97.61,36,98.06,38.19,98Z"/><path class="cls-7" d="M74.18,76l-6,0Q71.21,72.15,74.18,76Z"/><path class="cls-6" d="M642.13,68.1c-2.22-1.54-1.93-3.85-1.88-6.09C642.58,63.51,642.13,65.88,642.13,68.1Z"/><path class="cls-6" d="M536.18,28c-2.22,0-4.56.32-6.07-1.94C532.33,26,534.7,25.6,536.18,28Z"/><path class="cls-7" d="M490.18,24c-2.21-.07-4.55.27-6-2C486.35,22.05,488.73,21.61,490.18,24Z"/><path class="cls-7" d="M372.22,14c-2,2.52-4.08,2.56-6.15,0Z"/><path class="cls-7" d="M230.18,10l-6-.05C226.23,7.41,228.22,7.44,230.18,10Z"/><path class="cls-7" d="M326.19,8c-2.21-.07-4.55.27-6-2C322.37,6.05,324.75,5.62,326.19,8Z"/><path class="cls-7" d="M276.18,2c-2.22,0-4.56.3-6.07-1.95C272.33.05,274.71-.4,276.18,2Z"/><path class="cls-7" d="M330.19,10c-1.65,0-3.13-.39-4-2C327.83,8,329.32,8.36,330.19,10Z"/><path class="cls-7" d="M338.24,8c-.9,1.57-2.4,1.95-4.05,2C335.05,8.36,336.56,8,338.24,8Z"/><path class="cls-7" d="M356.17,10c-1.65,0-3.13-.38-4-1.94C353.78,8,355.29,8.33,356.17,10Z"/><path class="cls-7" d="M222.27,10l0,2-2,2C220.23,12.34,220.57,10.82,222.27,10Z"/><path class="cls-7" d="M334.21,10c-1.35,2-2.68,2-4,0Z"/><path class="cls-7" d="M386.16,15.92c-1.65,0-3.13-.36-4-1.91C383.76,14,385.27,14.32,386.16,15.92Z"/><path class="cls-7" d="M392.17,17.94c-1.65,0-3.11-.39-4-2C389.8,16,391.3,16.34,392.17,17.94Z"/><path class="cls-7" d="M202.21,20c-.88,1.56-2.35,2-4,2.07C199,20.37,200.54,20,202.21,20Z"/><path class="cls-7" d="M444.16,21.91c-1.65,0-3.11-.36-4-1.92C441.79,20,443.28,20.33,444.16,21.91Z"/><path class="cls-7" d="M198.27,22c-.09,1.63-.52,3.08-2.11,3.91C196.24,24.29,196.59,22.8,198.27,22Z"/><path class="cls-7" d="M450.18,24c-1.65-.06-3.14-.43-4-2C447.81,22,449.32,22.36,450.18,24Z"/><path class="cls-7" d="M518.18,24h-4Q516.18,20.91,518.18,24Z"/><path class="cls-7" d="M460.27,24c-.92,1.56-2.41,1.92-4.07,1.91C457.1,24.32,458.61,24,460.27,24Z"/><path class="cls-7" d="M494.19,26c-1.66,0-3.13-.42-4-2C491.83,24,493.33,24.37,494.19,26Z"/><path class="cls-7" d="M184.21,28c-.91,1.55-2.38,1.94-4,2C181.07,28.35,182.56,28,184.21,28Z"/><path class="cls-6" d="M542.19,30c-1.66,0-3.15-.41-4.06-2C539.8,28,541.31,28.35,542.19,30Z"/><path class="cls-7" d="M180.16,30c-.86,1.58-2.33,2-4,2.05C177,30.38,178.51,30,180.16,30Z"/><path class="cls-6" d="M582.19,34c-1.65,0-3.14-.38-4-2C579.81,32,581.31,32.35,582.19,34Z"/><path class="cls-6" d="M586.19,34c-1.33,2-2.66,2.05-4,0Z"/><path class="cls-6" d="M604.18,36c-1.66-.06-3.14-.46-4-2C601.81,34,603.32,34.36,604.18,36Z"/><path class="cls-7" d="M128.33,50c-1,1.55-2.47,1.92-4.15,1.94C125.1,50.33,126.63,50,128.33,50Z"/><path class="cls-7" d="M124.18,52c-.88,1.56-2.35,2-4,2C121,52.37,122.53,52,124.18,52Z"/><path class="cls-6" d="M640.16,60.05a4.47,4.47,0,0,1-2-4C639.81,56.84,640.15,58.36,640.16,60.05Z"/><path class="cls-7" d="M106.23,58a4.17,4.17,0,0,1-4,1.92C103.09,58.33,104.59,58,106.23,58Z"/><path class="cls-7" d="M100.31,60a4.51,4.51,0,0,1-4.1,2C97.06,60.34,98.6,60,100.31,60Z"/><path class="cls-7" d="M90.18,66c-.85,1.59-2.32,2-4,2.09C87,66.38,88.52,66,90.18,66Z"/><path class="cls-6" d="M640.17,78c0-1.67.41-3.17,2-4.13C642.16,75.55,641.84,77.08,640.17,78Z"/><path class="cls-7" d="M60.23,78c-.9,1.56-2.39,2-4,2C57.05,78.36,58.56,78,60.23,78Z"/><path class="cls-6" d="M638.21,82a4,4,0,0,1,2-4C640.15,79.61,639.82,81.11,638.21,82Z"/><path class="cls-7" d="M40.27,94c-.08,1.65-.5,3.12-2.08,4C38.23,96.32,38.58,94.82,40.27,94Z"/><path class="cls-7" d="M30.24,100c-.92,1.55-2.4,1.92-4.06,2C27.07,100.35,28.58,100,30.24,100Z"/><path class="cls-7" d="M26.17,102c-.85,1.59-2.32,2-4,2.08C23,102.38,24.51,102,26.17,102Z"/><path class="cls-7" d="M12.26,114c-.09,1.64-.5,3.1-2.08,4C10.23,116.31,10.58,114.81,12.26,114Z"/><path class="cls-7" d="M10.17,118c0,1.64-.42,3.11-2,4C8.22,120.32,8.57,118.84,10.17,118Z"/><path class="cls-7" d="M8.15,122c0,1.66-.38,3.15-1.94,4.07C6.22,124.39,6.54,122.88,8.15,122Z"/><path class="cls-6" d="M628.08,313.94a4.85,4.85,0,0,1,2.16-3.84C630.17,311.74,629.75,313.2,628.08,313.94Z"/><path class="cls-7" d="M16.46,363.09c1.58,1.18,2,2.9,2.19,4.72C16.36,367,16.29,365.08,16.46,363.09Z"/><path class="cls-7" d="M20.12,370.13a4.86,4.86,0,0,1,2.65,3.54C20.76,373.34,20.28,371.85,20.12,370.13Z"/><path class="cls-6" d="M560.28,376a4.51,4.51,0,0,1,3.54-2.68C563.53,375.42,562,375.89,560.28,376Z"/><path class="cls-7" d="M34.46,383.4c1.63.31,3.12.82,3.9,2.47C36.53,385.89,34.9,385.58,34.46,383.4Z"/><path class="cls-7" d="M38.25,385.8a4.68,4.68,0,0,1,4,2.16C40.53,387.93,39,387.56,38.25,385.8Z"/><path class="cls-7" d="M42.2,388a4.3,4.3,0,0,1,4,2C44.54,390,43,389.6,42.2,388Z"/><path class="cls-6" d="M542.25,390a4.51,4.51,0,0,1,3.6-2.65C545.52,389.43,544,389.9,542.25,390Z"/><path class="cls-7" d="M46.19,390a4.6,4.6,0,0,1,4.08,2C48.59,392,47.07,391.62,46.19,390Z"/><path class="cls-7" d="M50.21,391.91c1.71,0,3.25.31,4.25,1.88C52.7,393.94,51.1,393.72,50.21,391.91Z"/><path class="cls-6" d="M534.34,396.06a4.58,4.58,0,0,1,3.55-2.63C537.53,395.42,536.06,395.91,534.34,396.06Z"/><path class="cls-7" d="M60.19,396c1.87-.08,3.6.2,4.89,1.74C63.18,397.9,61.35,397.87,60.19,396Z"/><path class="cls-6" d="M526.34,402.06a4.53,4.53,0,0,1,3.55-2.63C529.53,401.42,528.06,401.91,526.34,402.06Z"/><path class="cls-6" d="M518.25,408a4.55,4.55,0,0,1,3.6-2.65C521.52,407.43,520,407.9,518.25,408Z"/><path class="cls-6" d="M504.35,418.06a4.45,4.45,0,0,1,3.63-2.52C507.51,417.45,506.05,417.92,504.35,418.06Z"/><path class="cls-6" d="M496.15,424c.66-1.67,2.09-2.26,3.7-2.59C499.53,423.53,497.94,423.9,496.15,424Z"/><path class="cls-6" d="M490.32,428.05a4.39,4.39,0,0,1,3.65-2.53C493.5,427.45,492,427.92,490.32,428.05Z"/><path class="cls-6" d="M466.1,443.93a4.81,4.81,0,0,1,3.95-2.3C469.4,443.53,467.87,443.93,466.1,443.93Z"/><path class="cls-6" d="M462,445.89a4.68,4.68,0,0,1,4.12-2C465.29,445.62,463.77,446,462,445.89Z"/><path class="cls-6" d="M457.61,447.77a5,5,0,0,1,4.53-1.92C461.17,447.78,459.46,447.94,457.61,447.77Z"/><path class="cls-6" d="M451.61,449.77c1.16-1.54,2.77-1.79,4.55-1.6C455.05,449.87,453.38,450,451.61,449.77Z"/><path class="cls-7" d="M246.29,2,244.2,3.93Z"/><path class="cls-7" d="M280.16,3.91,278.08,2Z"/><path class="cls-7" d="M284.17,5.92l-2-1.92Z"/><path class="cls-7" d="M288.17,8l-2.1-2Z"/><path class="cls-7" d="M298.27,6l-2.06,1.9Z"/><path class="cls-7" d="M290.19,10l-2-2Z"/><path class="cls-7" d="M294.25,8l-2,1.91Z"/><path class="cls-6" d="M487.85,429.8a2.3,2.3,0,0,1,2.38-1.7Z"/><path class="cls-6" d="M493.73,425.71a2.48,2.48,0,0,1,2.44-1.76A2.82,2.82,0,0,1,493.73,425.71Z"/><path class="cls-6" d="M499.61,421.59a2.56,2.56,0,0,1,2.48-1.83A2.56,2.56,0,0,1,499.61,421.59Z"/><path class="cls-6" d="M502,419.87a2.26,2.26,0,0,1,2.29-1.74Z"/><path class="cls-6" d="M507.76,415.73a2.45,2.45,0,0,1,2.41-1.78A2.85,2.85,0,0,1,507.76,415.73Z"/><path class="cls-6" d="M515.9,409.84a2.29,2.29,0,0,1,2.31-1.8Z"/><path class="cls-6" d="M521.61,405.59a2.56,2.56,0,0,1,2.48-1.83A2.56,2.56,0,0,1,521.61,405.59Z"/><path class="cls-6" d="M524,403.87a2.28,2.28,0,0,1,2.29-1.75Z"/><path class="cls-6" d="M529.66,399.64a2.54,2.54,0,0,1,2.44-1.85A2.63,2.63,0,0,1,529.66,399.64Z"/><path class="cls-6" d="M532,397.88a2.22,2.22,0,0,1,2.26-1.75Z"/><path class="cls-6" d="M537.66,393.65a2.58,2.58,0,0,1,2.41-1.92A2.58,2.58,0,0,1,537.66,393.65Z"/><path class="cls-6" d="M539.93,391.86a2.26,2.26,0,0,1,2.28-1.82Z"/><path class="cls-6" d="M545.61,387.59a2.66,2.66,0,0,1,2.44-1.91A2.52,2.52,0,0,1,545.61,387.59Z"/><path class="cls-6" d="M547.88,385.83a2.33,2.33,0,0,1,2.29-1.88Z"/><path class="cls-7" d="M32.23,381.87a2.51,2.51,0,0,1,2.49,1.77A2.73,2.73,0,0,1,32.23,381.87Z"/><path class="cls-6" d="M555.74,379.72a2.51,2.51,0,0,1,2.37-1.91A2.74,2.74,0,0,1,555.74,379.72Z"/><path class="cls-6" d="M558,377.9a2.23,2.23,0,0,1,2.21-1.83Z"/><path class="cls-7" d="M24.46,375.49a2.74,2.74,0,0,1,2.22,2.22A2.55,2.55,0,0,1,24.46,375.49Z"/><path class="cls-7" d="M22.53,373.4l2,.5c.06.6.13,1.2.2,1.81A2.49,2.49,0,0,1,22.53,373.4Z"/><path class="cls-6" d="M563.6,373.58a2.63,2.63,0,0,1,2.4-2A2.46,2.46,0,0,1,563.6,373.58Z"/><path class="cls-6" d="M565.81,371.78a2.44,2.44,0,0,1,2.32-1.92A2.86,2.86,0,0,1,565.81,371.78Z"/><path class="cls-6" d="M568.05,369.92a2.25,2.25,0,0,1,2.19-1.78Z"/><path class="cls-7" d="M18.46,367.54a2.43,2.43,0,0,1,1.6,2.49C19.52,369.2,19,368.37,18.46,367.54Z"/><path class="cls-6" d="M575.74,363.72a2.58,2.58,0,0,1,2.35-2A2.72,2.72,0,0,1,575.74,363.72Z"/><path class="cls-6" d="M578,361.87a2.3,2.3,0,0,1,2.24-1.88Z"/><path class="cls-6" d="M585.62,355.61a2.6,2.6,0,0,1,2.33-2.07A2.44,2.44,0,0,1,585.62,355.61Z"/><path class="cls-6" d="M587.74,353.72a2.57,2.57,0,0,1,2.34-2A2.69,2.69,0,0,1,587.74,353.72Z"/><path class="cls-6" d="M590,351.87a2.38,2.38,0,0,1,2.23-1.91Z"/><path class="cls-6" d="M592.16,350a2.16,2.16,0,0,1,2.07-1.88Z"/><path class="cls-6" d="M599.59,343.59a2.76,2.76,0,0,1,2.26-2.16A2.33,2.33,0,0,1,599.59,343.59Z"/><path class="cls-6" d="M601.64,341.64a2.59,2.59,0,0,1,2.31-2.1A2.48,2.48,0,0,1,601.64,341.64Z"/><path class="cls-6" d="M603.74,339.73a2.67,2.67,0,0,1,2.32-2A2.67,2.67,0,0,1,603.74,339.73Z"/><path class="cls-6" d="M605.91,337.85a2.5,2.5,0,0,1,2.14-2.14A2.84,2.84,0,0,1,605.91,337.85Z"/><path class="cls-6" d="M607.91,335.85a2.5,2.5,0,0,1,2.14-2.14A2.84,2.84,0,0,1,607.91,335.85Z"/><path class="cls-6" d="M609.91,333.85a2.36,2.36,0,0,1,2.2-2A2.94,2.94,0,0,1,609.91,333.85Z"/><path class="cls-6" d="M612,331.9a2.42,2.42,0,0,1,2.19-1.92Z"/><path class="cls-6" d="M614.19,330a2.37,2.37,0,0,1,2-2Z"/><path class="cls-6" d="M616.16,328a2.36,2.36,0,0,1,1.91-2.22Z"/><path class="cls-6" d="M618,325.88a2.4,2.4,0,0,1,2.09-2.17A2.89,2.89,0,0,1,618,325.88Z"/><path class="cls-6" d="M619.91,323.85a2.58,2.58,0,0,1,2.13-2.17A2.83,2.83,0,0,1,619.91,323.85Z"/><path class="cls-6" d="M621.89,321.84a2.66,2.66,0,0,1,2-2.36A2.61,2.61,0,0,1,621.89,321.84Z"/><path class="cls-7" d="M4,156c0,.65,0,1.29,0,1.93l-1.77-2.07C2.8,156,3.39,156,4,156Z"/><path class="cls-7" d="M4.21,134l-2,2.14Z"/><path class="cls-7" d="M14.21,112l-2,2.05Z"/><path class="cls-7" d="M16.18,110c-.66.68-1.33,1.35-2,2C14.85,111.33,15.52,110.66,16.18,110Z"/><path class="cls-7" d="M18.18,108l-2,2Z"/><path class="cls-7" d="M20.19,106l-2,2Z"/><path class="cls-7" d="M22.24,104l-2,2Z"/><path class="cls-7" d="M42.21,92l-2,2.06Z"/><path class="cls-7" d="M44.18,90c-.66.68-1.33,1.35-2,2C42.85,91.33,43.52,90.66,44.18,90Z"/><path class="cls-7" d="M46.18,88l-2,2Z"/><path class="cls-6" d="M636.25,86c.63,0,1.26-.09,1.89-.16-.64.72-1.29,1.43-1.93,2.14C636.22,87.32,636.24,86.66,636.25,86Z"/><path class="cls-7" d="M48.18,86c-.66.67-1.33,1.33-2,2C46.85,87.31,47.52,86.65,48.18,86Z"/><path class="cls-7" d="M50.22,84l-2,2Z"/><path class="cls-7" d="M52.35,82,50.2,84Z"/><path class="cls-7" d="M56.21,80l-2,1.89Z"/><path class="cls-7" d="M64.34,76l-2.12,1.83Z"/><path class="cls-7" d="M80.11,74l-1.89,1.91Z"/><path class="cls-7" d="M82.16,72l-2,1.93Z"/><path class="cls-7" d="M84.22,70l-2,2Z"/><path class="cls-7" d="M86.26,68,84.2,70Z"/><path class="cls-7" d="M92.34,64l-2.15,2Z"/><path class="cls-7" d="M96.25,62l-2,1.9Z"/><path class="cls-6" d="M638.15,56.05l-2-2Z"/><path class="cls-7" d="M120.2,54l-2,2Z"/><path class="cls-6" d="M636.16,54c-.71-.67-1.42-1.34-2.14-2Z"/><path class="cls-6" d="M632.17,51.9,630.07,50C630.76,50.65,631.47,51.28,632.17,51.9Z"/><path class="cls-7" d="M612.19,50V48h2v2h-2Z"/><path class="cls-7" d="M168.08,42l-1.86,2.08Z"/><path class="cls-6" d="M610.18,42l-1.94-2Z"/><path class="cls-6" d="M608.2,39.92l-2-2Z"/><path class="cls-7" d="M170.2,38l-2,2.13Z"/><path class="cls-6" d="M606.2,37.94,604.15,36Z"/><path class="cls-7" d="M172.18,36c-.67.67-1.33,1.34-2,2C170.85,37.33,171.51,36.65,172.18,36Z"/><path class="cls-7" d="M174.18,34l-2,2Z"/><path class="cls-7" d="M176.22,32l-2,2Z"/><path class="cls-6" d="M544.19,31.94l-2-2Z"/><path class="cls-7" d="M454.22,26c-.69,1.11-1.35,1.14-2,0Z"/><path class="cls-7" d="M452.19,26l-2-2Z"/><path class="cls-7" d="M418.26,20l-2.05,1.91Z"/><path class="cls-7" d="M396.16,19.9,394.11,18Z"/><path class="cls-7" d="M364.17,14,362.1,12Z"/><path class="cls-7" d="M360.17,11.93,358.09,10Z"/><path class="cls-8" d="M110.21,330A59.69,59.69,0,0,1,82,325.6c-3.48-1.49-7.14-1.4-10.68-2.19-8.76-1.94-9.79-1.44-14.07,6.49-9,16.68-5.28,27.53,11.74,36.58,9.86,5.23,20.56,7.14,31.1,9.94,2.51.66,7.14.34,7,4.08s-4.48,4.79-7.62,5.2c-16.45,2.14-32.84,2.11-48.94-2.61-14.65-4.29-23.72-16-24.3-31.62-.42-11.64-.6-23.29,4.46-34.21a13.71,13.71,0,0,0,1.4-8.73c-3.64-16.12-1.21-32.44-1.84-48.65-.26-6.64.09-13.31-.09-19.95-.17-6.83,1.83-12.41,8-16,3.69,4,3.15,9,1.61,13.17-4.79,13.1-2.42,25.44,2.5,37.8,2.68,6.75,4.17,13.94,7.64,21.26,2.43-3.36,1.87-6.67.78-9.3-3.51-8.52-1.26-16.64-.27-25.27,1.77-15.41-.9-30.89-2.8-46.52-3.6,1-3.45,6-7.46,4.86.17-4.95,0-10,.62-14.84.72-5.22-3.09-8.51-4.42-12.81-1.41-4.53-7.56-9-4.3-13,2.36-2.93,8.35,1.45,12.81,1.88,10.8,1,21.62,2.63,32.43,2.57,10.31,0,20.31,2,30.5,2.58.82,0,1.58,1.07,2.38,1.63-8.34,5.08-17.53,1.66-26.27,2.65-2.69.31-7.19-2-7.61,1.85s4.28,4.38,7.48,4.93c10.3,1.8,20.71.5,30.83-.69,9.66-1.14,17.4.7,25.27,6,4.64,3.15,9.66,7.24,16.26,5.24,13.87,5,28.68,6,43,9.7-14.49,8-29.42,11.34-45.39,5.85a118.57,118.57,0,0,1-12.88-5.31c-12.78-6.18-26-9.84-40.38-8.3-7.09.76-13.72-1.77-20.41-3.68-3.17-.9-6.18-2.25-9.64-2.34-10.22-.25-14.79,5.57-11.45,15.33,1.61,4.69,4.31,8.93,5.87,13.72,2.22,6.79,1.75,13-1.73,19.16-2.26,4-4.78,7.87-6.25,12.37-4.51,13.87.84,27.37,14.1,33.79,10.73,5.21,22.16,9,32,16.1,5.32,3.84,9.44,8.43,9.23,15.57Z"/><path class="cls-9" d="M268.19,274c6.7,6.77,15.21,10.32,23.85,13.77,7.65,3.05,8.36,8,2,13.07-4.41,3.5-9.09,6.64-13.62,10-5.63,4.16-8,3.77-11.87-2.23-2.15-3.35-3.83-7-6.21-10.18-4.92-6.58-9-13.74-16.53-18.27a26.09,26.09,0,0,1-10-10.95c-2.22-4.69-1.6-7.47,3.16-8.28,7-1.19,14.33-2.77,21.2,1.1-11.45,8.2-11.11,9.56,6.69,25.81C268.55,283.18,263.83,278,268.19,274Z"/><path class="cls-8" d="M268.19,274c-1,6.17,4,12,.67,19.59-5.22-5.19-10.09-10-14.87-14.82-2.77-2.83-6.06-5.82-4.81-10.19,1.49-5.26,6-6.65,11-6.57C265.05,264.51,265.57,270,268.19,274Z"/><path class="cls-8" d="M448.21,320c-2.47,4.5-6.84,7.16-10.1,11.26a12.61,12.61,0,0,1-7.46-6.59,94.45,94.45,0,0,0-11-16.57c-1.45-1.72-3.07-4.11-3-6.16.22-9.18-5.79-14.45-11.5-20.08-2.6-2.55-5.44-4.89-7.13-8.28-3.11-6.22-2.78-10.95,2.86-15,5.44-3.88,9.75-9,15.35-12.62,6.61,5.57,11.65,0,17-2.54,6.67-3.16,12.53-8.89,20.92-6a1.8,1.8,0,0,1,.52,1.68c-.14.57-.29.86-.44.86-1.36,1-2.78,1.82-4.07,2.86-6.57,5.29-8,10.4-3.74,17.24,4.37,7,8.43,14.33,14.79,19.94a61,61,0,0,1,7,7.11c6,7.27,5.32,11.86-2.55,17.07-5.85,3.86-11.38,8-15.41,13.81l-1-1c-5.43-21-23.18-32.54-36.46-47.5-1.24-1.39-3.52-2.65-5.31-1s-.33,3.74.6,5.42c3.45,6.2,9.15,10.52,13.65,15.86,8.34,9.9,16.41,20.08,25.94,28.94C447.8,319.15,448,319.58,448.21,320Z"/><path class="cls-8" d="M446.34,397.51c-.26,1.56-.56,3.85-1,6.1-2.39,11.47-1.85,22.4,5.51,32.22,1.33,1.78,3.13,3.87,1.6,6.27s-4.12,2.18-6.35,1.74c-6.83-1.33-13.7-2.78-19.52-6.88-3.53-2.5-5.14-5.13-2.55-10,8.21-15.54,9.31-31.83,4.11-48.78-2.5-8.15-6.21-16.11-5.93-25,.23-7.72,1-8.64,8.39-9.17a53.72,53.72,0,0,0,7.85-1c6.71-1.49,16.26,3.72,19,9.8a4.93,4.93,0,0,1-1.47,6.26,96,96,0,0,1-8.85,6.39c-7.89,5.09-8.61,7.25-5.11,16.1,1.34,3.39,2.68,6.79,3.77,10.27C446.24,393.35,446.11,395.09,446.34,397.51Z"/><path class="cls-10" d="M40.18,220c3.71-2.48,3.36-6.92,5-10.87,6.78,3.41,6.22,10.22,6.68,15.5.82,9.19.52,18.45,2.19,27.64a24.86,24.86,0,0,1-1.83,14.62c-2.44,5.45-2.72,10.71.36,16.2,2.91,5.19,1.53,11,1.31,16.6a3.08,3.08,0,0,1-2.31,2.95c-1.36.27-2.48-.78-3-2.07-.92-2.12-1.82-4.25-2.56-6.44-3.31-9.72-6.47-19.49-9.84-29.19-2.7-7.8-3.13-15.63,0-23.3,2.32-5.78,2.07-11.68,2.08-17.64C38.85,222.65,39.51,221.31,40.18,220Z"/><path class="cls-11" d="M156.16,208c-2.86,3.29-6.3,2.34-8.94.34-12.75-9.62-27.06-10-42.12-8.53-8,.79-16.18,2.36-24.42.29-3.12-.78-5.72-1.78-7.36-4.4-1.34-2.13-3.61-4.33-2-7.19,1.84-3.23,4.55-1,7-.91,10.6.32,21.21.28,31.82.37,10.46,3,21.16,5.22,29.72,12.9C144.4,204.89,150.5,206.17,156.16,208Z"/><path class="cls-10" d="M454.19,238a36.9,36.9,0,0,0-17.43,6.2,77.57,77.57,0,0,1-14,7.21c-4.58,1.79-6.84-.57-6.52-5.4a7.17,7.17,0,0,0,4-4c2.51-3.34,5.33-6.55.93-10.63-2.21-2-1.16-3.94,1.08-5.35,12,.17,24.08.24,36-2a8,8,0,0,1,8,0h0C467.77,232.52,465.79,234.82,454.19,238Z"/><path class="cls-8" d="M454.19,238c5.92-3,12.17-5.78,12-14,7-.65,10.88-5.9,15.29-10.32,10.92-11,24.1-18.13,40.48-24.78a31,31,0,0,1-11.06,13c-7.2,5-13,11.31-19,17.48-7.54,7.78-15.89,14-26.59,16.54-3.89.92-7,3.92-11.14,4.07Z"/><path class="cls-12" d="M422.2,226c-1,2-.64,3.11,1.25,4.84,6.08,5.53,5.89,5.8-1.48,10.29a19.35,19.35,0,0,1-1.78.85c.57-6.14-3.36-9-8.22-11-5.14-2.1-10.38-3.92-16.72-6.29C405.13,222.49,413.53,227.6,422.2,226Z"/><path class="cls-8" d="M466.19,224h-8Q462.19,219.74,466.19,224Z"/><path class="cls-8" d="M450.21,318l-2,2,0,0c-.47-1.81.19-2.48,2-2Z"/><path class="cls-13" d="M26.17,148c-5.49-6.18-6-10.19-1.87-16.5,1.74-2.68,2.41-6.2,5.88-7.53,4-2.94,8.11-1.36,10.76,1.42,7.49,7.87,16.34,5.85,25.25,4.59,6.88-4.26,13.74-2,20.67-.08,3.07.85,6.45,4.3,9.39-.36,3.69-.64,7.12,2.08,10.81.86,5.75-1.88,8.75-.75,8.51,6.19-.18,5.25,3.8,7.31,8.21,5.55,8.16-3.26,13.17.23,19.37,5.32,8.75,7.19,19,12.8,31.23,7.27,5-2.24,7.44-.56,8.11,4.78.39,3.09-.88,6.75,2.9,9.51,4-3.91,4-9.72,6.85-14.07,4.29-6.65,7.54-7.25,12.58-1.35,2.77,3.24,6,4,9.72,3.75,6.15-.43,11.53-.23,7.87,8.45,2.94.11,4.21-1.1,5.61-1.93,6.15-3.64,10.15-3.59,9.39,5.23-.27,3.2,1.8,5.62,3.21,8.24a2.49,2.49,0,0,1-.45,2.63A42.74,42.74,0,0,1,225.51,182c-3.24-.16-5.88-.9-7.33-4-9.05,1.67-18.92-.66-27,5.72-1.8,1.42-5.17,2.63-6.45.82-5-7.15-12-4.51-18.51-4.53-5.22,1.2-9.44-2.05-12.28-4.95-4-4-7.91-5.51-13.12-5.09-2.44.2-4.48-1-6.59-2-3.08-8.14-8.33-8.53-16.46-7-7,1.33-15.32,1.36-21.6-4.62-3.13-3-6.8-1.49-10.39-.78-8.37,1.66-16.84,4.88-24.91-1.1-1.82-1.34-3.69-.7-5.63.14C43.93,159.54,35.05,153.7,26.17,148Z"/><path class="cls-13" d="M166.19,60c6.13.55,11.81-3,18-2,2.33,3.83,7.69,8.15,5.29,11.81-3.16,4.83-9.75,2.63-14.83,1.17-4.67-1.35-7.8-1.1-8.37,4.65-.34,3.49-2.48,5.23-6,5.31-2,0-4.2.29-5.7,1.56-7.33,6.14-14.5,8.29-23.11,1.79-3.22-2.43-7.67-.89-11.59,2.87,4.88,3.48,10.78,3.31,15.58,5.74,4.3,2.16,7.55,4.2.89,7.63-6,3.09-10.18,9.22-18.24,9-4.59-.13-5.41,5.21-6.56,9-1.57,5.11-4.33,7.2-9.6,4.58-4.36-2.15-8.89-2.65-13.47-.54C78.83,115,76.9,105.28,84.24,97,87.74,93,89,88.65,90.18,84c2-4.51,6.71-6.26,9.87-9.61,1.88-2,4.53-2,7.38-1,3.87,1.38,7,.46,8.7-4,2.09-5.55,5-10.1,12.35-8.12,1.28.34,3-1.09,4.57-1.65,6.46-2.36,12.53-2.39,19.07.77C156.3,62.39,161.69,65.34,166.19,60Z"/><path class="cls-4" d="M524.19,146c1,2.79,2,5.61,3.17,8.35a5.55,5.55,0,0,1-1.08,6.43c-6.1,6.53-11,14.11-17.84,20-3.65,3.15-7.72,6.41-12.42,4.93-8-2.52-15,.53-22.1,2.7-6.27,1.91-12.25,2.85-18.49-1.3-3.81,4.22-5.3,11.12-11.7,12.54-6,1.34-12,.66-16.28-5.21-4.62,3.93-8.87,7.37-14.33,9.3-4.6,1.63-8.62,3.46-12.89-.39-1.62-1.46-3.62-1.18-5.64-.57-10.25,3.1-19.43-.31-28.4-4.81-.13-5.88,4.3-4.79,7.64-4.69A25,25,0,0,0,388,189.89c5.41-3.27,11.62-3.19,17.34-2.2,8.14,1.4,13.32-1.18,16.6-8.5a8.57,8.57,0,0,1,3.37-3.54c10.78,2.56,22.08-.21,32.85,3.6,7.4,2.62,9.12-4.56,12.33-8.82,2.56-3.66,6.14-4.69,10.33-3.84,7.15,1.46,13.58-.52,19.71-4a41,41,0,0,0,13.23-11.26c2.59-3.36,5.25-6.85,10.39-5.37Z"/><path class="cls-4" d="M240.17,180c0-.66,0-1.32,0-2,3-7.27,9.21-12,14-17.89,1.71-2.1,4.6-3.66,7.13-1.91,5.88,4.07,12.79,2.38,18.73,4a59.34,59.34,0,0,0,24.38,1.57c4.14-.59,7.94.72,10.24,4.7,4.67,8.09,12,9.22,20.6,8.93,6.42-.22,14.34-3.65,18.52,5.09.91,6.2,9.18,8.43,8.41,15.53-7.7,5.27-13.74,0-20-3.3-2.6-1.38-3.91-4.53-7.48-5.77-5.93,7.41-12.87,5.75-20,1.34-2.25-1.39-4.93-2.22-6.9-3.9-3.63-3.1-6.42-1.63-8.15,1.57-3.6,6.64-8.42,7.93-15.66,6.36-5.71-1.24-11.9-.38-17.87-.25a16,16,0,0,1-9.34-2.91c-2.91-1.93-4.86-4.27-3.5-8.32.71-2.1-1.45-2.66-3.14-2.72C246.81,180,243.49,180,240.17,180Z"/><path class="cls-4" d="M26.17,148a16.85,16.85,0,0,0,7.61,2c1.95,0,4.68-.16,5.72,1,7,7.68,12.81,4.24,18.81-2.17,3.65,3.6,7.2,7.45,12.47,7a64.5,64.5,0,0,0,14.56-2.7c5.59-1.86,9.79-2.94,14.41,2.83,4.25,5.33,11.27,4.68,17.69,3.31,5.44-1.17,10.6-3.9,17.24-3-.82,4-4.07,7.93-.49,11.7-6.56.65-12.23-2.54-18.16-4.42a25,25,0,0,0-12.65-1.06c-9.73,1.9-19,2.77-28.89-1.61-6.3-2.81-14.17-2.33-21.38-2.83-5.93-.41-11.93.14-17.88-.16C28.21,157.54,27.05,156,26.17,148Z"/><path class="cls-4" d="M90.18,84a7.18,7.18,0,0,0,1.63,4.57c1.63,1.87,1.58,3.52-.64,4.88a5.13,5.13,0,0,0-.84.52c-11.14,10-11.19,10.46-4.52,23.87.72,1.44.82,3.2,2.38,4.16a11.52,11.52,0,0,1,8,8c.45,1.88.91,3.76,1.61,6.69-10.4-4.57-20.57-8-31.59-6.71,1.74-3.31,4.51-5.62,7.49-7.77,2.49-1.81,8.22-2.09,6.81-5.66-1.63-4.12-1.19-10.17-7.18-12.09-4.6-1.47-5.64-5.15-5-9.56.34-2.14,1.61-4.47,3.47-4.32C79.06,91.16,83.51,84.54,90.18,84Z"/><path class="cls-13" d="M362.18,198c-2.29-5.4-9.47-7.32-10-14,6.81-4.58,14-5,21.63-2.3a53,53,0,0,0,19.33,3.52c4.39.12,8.8.41,13.16-.43,3.58-.86,7-2.05,9.62-4.8a12.16,12.16,0,0,0,2-3,13.18,13.18,0,0,1,1.62-3.17,4.92,4.92,0,0,1,2.15-1.08,6.08,6.08,0,0,1,2.43.35,4,4,0,0,1,2.08,2.9c-1.67,3.22-3,6.66-5.08,9.6-2.67,3.78-5.43,6.08-11.41,5-8.14-1.5-16.94-2.31-24.58,3.71-3.81,3-8.92,2.15-13.42,1.19-2.84-.61-4.41,0-5.52,2.5Z"/><path class="cls-4" d="M166.18,180c3.39-1.35,6.84-2.57,10.15-4.1,2.63-1.2,4.61-1,5.53,1.92.71,2.26,1,4.94,3.69,5.43a7.66,7.66,0,0,0,7.07-3c3-3.71,5.54-5.14,10.4-2.64,3.25,1.68,7-1.31,10.43-2.39,3-.94,4.44-.34,4.73,2.79-.57.33-1.46.54-1.66,1C212,189.85,202,190,192.63,191.5c-.95.15-2.43.39-2.86-.11C183.55,184.13,172.34,187.26,166.18,180Z"/><path class="cls-4" d="M66.19,130c-1.47,4.2-5.54,1.21-7.32,2.41-7.94,5.39-12.6.24-17.78-4.37A14.73,14.73,0,0,0,30.18,124c4.84-8.73,5.09-6.64,14.57-7.78,10.67-1.28,14.08,3.88,17.4,11.44C62.9,129.34,64.49,129.8,66.19,130Z"/><path class="cls-14" d="M420.19,174v4c-.76.58-1.28,1.39-2,2-2.09,4.08-5.18,6.49-10,6-5-1.51-10.1-4-14,2A39.15,39.15,0,0,1,375,185c-5.44-2.29-10.27-3.59-16-1.29-2,.8-4.53.2-6.83.25-1.36-2.52-2-4.73-6.33-4.48-5.5.31-11.12.39-16.69.54-7,.2-13.08-2.68-15.66-8.57-2.84-6.47-7.45-6.32-12.05-5.16-7.41,1.88-14.27,2.83-20.64-2.5a2.67,2.67,0,0,0-3.6.19c-5.07,3.94-9.34,1.15-13.55-1.66-5.52-3.69-6.28-3.88-9.92,1.39-3.81,5.51-8,10.51-13.56,14.25-8.14-2.55-5.53-9-4.81-14.84-6.42,1.15-9.91,7.15-15.86,8.18-2.93-4.7,2.45-7.56,1.79-11.46-7.34-1.61-18.38,5.48-20.08-9.14-5.55.66-7,4.9-8.58,8.75-1.39,3.36-2.18,7-3.51,10.36-.84,2.14-2,4.43-5.06,3.65-2.63-.67-3.71-2.71-3.79-5.21-.12-4,0-7.94,0-11.69-1-.46-1.71-1-2.07-.88-14.33,6.15-29.51,3.05-40.13-9.3-3.29-3.82-5.76-4.89-10-2.67a18.6,18.6,0,0,1-3.79,1.2c-8.38,2.3-12.58-1.48-11.4-10.22.13-.92.39-1.81.86-4-6.48,3.17-12.44,4.83-17.58-.71a21,21,0,0,1-8-8c.41-4.38,3.66-4.3,6.65-3.84a37.11,37.11,0,0,1,12.21,4.58,28.29,28.29,0,0,0,3.24-9.22c.89-4.89,4-8.07,9-7.33,4.48.66,7.39-.38,9.92-4,2.12-3.1,5.39-4.74,11.06-4.08-9-5.35-17.65-5.47-25.08-9.07,5-9.36,13.61-11.62,21.73-4.89,4.34,3.59,6.75,3.51,10.72-.18,4.29-4,9.32-7.38,15.6-5.46.45-.78.75-1,.77-1.35.86-11.54.86-11.53,11.49-8.42a24.89,24.89,0,0,0,4.79,1.2c2.62.2,5.26,0,10.09,0-5.86-3.46-6.55-7.51-6.16-11.93,2.45-1.22,4.73-2.9,5.48-5.5,1.68-5.85,7.2-8.6,11.25-7.81,5.76,1.1,7.56-3.25,11.26-4.7a8,8,0,0,1,10-1.15c9.07,5.72,13.22,1.35,16-6.83,4.65.18,6.32-4.59,10-6,10.55-1.24,21.1-2.52,31.75-2.24,2.8.08,4.82,1.84,6.23,4.24.07,6.62.16,13.24-5.79,17.92l-1.26.15c-2.88.4-5.93,0-8.43,2-4.08,2.82-7.79,6.24-12.66,7.77a51.53,51.53,0,0,0-13,3.62c-4.81,2.31-9.18,5.41-14,7.71a67.64,67.64,0,0,0-6.69,4.14c-4.29,2.28-8.66,4.41-13,6.59-2.43,1.13-4.79,2.39-7.23,3.47-2.11.84-4.26,1.55-6.3,2.57A106.93,106.93,0,0,0,163,109.66a57.64,57.64,0,0,0-4.45,5.31c-11.52,16.23-9.46,21.17,9.78,23.45,11.46,1,22.88,1.27,34.28-.48,4.22-.65,8.45-1.17,12.56.6,3.14,1.62,3.24,5.46,5.61,7.64,3.94,3.45,8.29,1.89,12.33.66,20.7-6.3,42.13-5.51,62.1-.21,14,3.7,30.51,5,41,18.2,2.82,3.56,7.29,4.4,11.79,4.4,5,0,10,.2,14.82,1.67,6.06,1.86,11.27-.15,17.19-1.74,14.69-4,28.66-8.13,42.34-15.79,11.92-6.68,27.18-8.18,41.63-3.9a50,50,0,0,0,8.85,1.44c15.45,1.65,18.45-.43,22.26-15.47,2.14-9.15,2.11-18.46,2.63-27.78C498.47,94,491.54,86,480.36,80c-7.94-4.25-17.36-5-24.67-10.61-2.29-2.74-2.89-6.26.79-7.29,6.15-1.71,7.55-6.44,9.93-11.18,3.3-6.58,8.2-7.68,13.69-2.76s14.11,6.57,16.59,15.09c.73,2.53,3.85,2.2,6.13,2.36A15.74,15.74,0,0,1,514,71.49c4.55,5.37,6.18,12.91,16.42,13,5.36,0,4.59,8.31,1.44,12.45-3.57,4.72-5.77,9.29-5.71,15.32,0,4.92-3.79,7.67-8,9.14C512,123.5,512,127,514.47,132.16c6.23,13.18,6.13,13.4-7.18,20.61-4.82,2.61-1.64,8.3-5.1,11.21-6.51,5.18-13.73,7.61-21.9,4.94-3.81-1.25-6.35-.49-8.11,3.06-9.39,2.57-18.61,4.75-28.62,2.12-6.17-1.62-12.88,2.26-19.37-.11h-2A1.21,1.21,0,0,0,420.19,174Z"/><path class="cls-13" d="M502.19,164c.37-4.29-.48-8.51-1.2-12.42,2.36-2.09,4.79-1.38,7.06-1.58,7.55-.68,9.76-4,7.32-11.32-1.25-3.78-3-7.4-4.33-11.14-1.49-4.1-.9-6.45,4.2-7.85,9-2.48,10.11-4.5,8.44-13.75-.65-3.67-.78-5.53,3.19-6.56,2.43-.63,3.24-3.19,4.21-5.3,1.32-2.88,1.77-5.78-.64-8.35-2.12-2.27-4.29-.24-6.46,0-2.61.33-4.75,2.59-8.51,1.55,4.79-7-.46-10.93-4.47-15.64-4.75-5.57-11.25-2.61-17-4.2.5-5.91-1.19-10.39-7.66-11.7-3.9-.79-6-3.86-8.26-6.76-2.83-3.6-5.6-2.73-8.17.44a17,17,0,0,0-3.75,12.77c-4.48.93-10.71-2.38-9.94,5.74-10,3.41-19-.37-28-3.92,5-9.51,5-9.34-6.53-13.17-7-2.31-15.44-3.91-11.5-14.86,2.87-1.8,5.89-2.28,7.77,1,2.52,4.35,5.49,4.4,9.87,3,10.43-3.38,20.24,1,25.76,11.22,7.84-9.48,18.57-7,28.7-7.07,3.08,0,6.41,1.14,8,3.57,3.17,5,7.77,4.2,12.35,4.34,4.27.13,8.59-.6,12.71,1.54,6.3,3.26,8.89,7.56,5.8,13.64-2.06,4-.7,5.58,1.5,8.38,4.84,6.16,10.29,7.74,17.4,4.28a44.82,44.82,0,0,1,9.4-3.23c5-1.15,8.88-1.43,12.12,4.74,3,5.82,9,10.12,15.3,16.81-7.17-1.92-11-5-15.26-7.24-6.25-3.36-12.85-7.68-20.67-.29,4.36,1.76,7.42,4.27,8.79,8.5,1.28,3.94-.69,7.19-1.75,10.57-1,3.14-2.74,6-4.09,9.06-1.76,3.91-3.77,6.57-7.8,2.1-1.46-1.62-3.27-2.61-5-.57-4.18,4.85-10.2,5.47-16.53,6.65,3.47,6.81,6.59,12.92,9.7,19-3.48,1.67-6.57,3.49-8.78,7.11A26.51,26.51,0,0,1,502.19,164Z"/><path class="cls-14" d="M410.18,36c2.2,3.09,1.74,6.88,2.57,10.61,3.19-.13,7-3.05,8.74,2.24.39,1.2,2.36.22,3.56-.22,3.45-1.28,5.73.6,7.55,3.06s4,4.9,2.94,8c-1.29,3.7-5.11,1.75-7.74,2.53-3.28,3-7.26,2.61-11.19,2.19-16.61-1.77-33.21-3.7-49.95-3.52-5.39-.33-10.84.42-16.18-.83-11.48-2.63-23.13-.61-34.68-1.3a30,30,0,0,1-4.9-.7c-3.93-1.5-8.1-1.37-12.21-1.63a39.16,39.16,0,0,1-10.23-2.82c-2.12-1.27-4.77-2.14-4.34-5.45,3.05-5.94,9.71-7.7,14.06-12.13,5.72-3.83,11-1.9,15.48,1.93,4,3.46,7.24,4.1,12.4,1.7,6.1-2.84,12.73-4.14,18.43-8.45,3.95-3,10.4-3.09,14.31-.32,6.68,4.74,12.78,3.53,19.39,1.14h2c8.64,3,9.11,4.95,3.88,14.28C390.38,39.67,400.69,41,408.19,36Z"/><path class="cls-13" d="M378.19,32c-1.57,2.37-4.48,2.73-6.51,4.33-3.53,2.8-5.85,3.91-9.48-.77-4.34-5.61-14.73-5-20.48-.12-2.94,2.48-4.67,7.32-10.53,4.1-1.44-.8-5.5,2.78-8.16,4.64-3,2.09-5.22,2.16-7.41-1.17-4.14-6.3-10.47-7.53-17.44-7,9.67-12.14,20.56-13.89,31.66-4.47,3.22,2.74,4.87,1.31,6.4-.84,2.51-3.52,4.91-7.09,8.22-9.91,1.24-1.06,2.73-2.88,4.26-1.69,6.22,4.84,14,2.4,20.8,4.93C373.7,25.57,377.13,27.31,378.19,32Z"/><path class="cls-15" d="M284.12,48.11l4.63,3.48c-6.44,10.44-10.54,22.22-18.19,32-8.3,10.56-11.7,11.27-23.76,5.5a107.73,107.73,0,0,1-17.76-11c-2.76-2-6.6-3.83-5-8.57a8.6,8.6,0,0,1,6-3.77c6.34,2.27,11.08,7.09,16.74,10.47,8.75,5.22,10.8,4.85,17.53-2.91,6.93-8,9.05-18.24,13.36-27.46a2,2,0,0,1,2.57,0l.16.09A4.27,4.27,0,0,0,284.12,48.11Z"/><path class="cls-13" d="M286.17,28a25.5,25.5,0,0,0-20.29-.59c-4.05,1.53-7.14,2.37-10.93-.6-1.53-1.19-4.46-.59-6.76-.81,3.3-5.73,8.36-8.82,14.65-10.55,3-.82,5.53-1.95,8.2.41.72.63,1.79,1.57,2.47,1.41C282.68,15.09,284.51,21.42,286.17,28Z"/><path class="cls-13" d="M238.19,32c0,1.62.13,3.26,0,4.87-.92,8.85-3.37,10.45-11,6.49-4.79-2.47-9.59-3.86-14.93-3.38,0-4.52,3.57-5.78,6.74-7.37C225.24,29.45,231.64,28.27,238.19,32Z"/><path class="cls-13" d="M408.19,36c-4.31,3.38-8,7.54-14.55,6.88-2.34-.24-5.12,2.66-7.49,4.4s-4.8,3.56-8.1,2.14c9.57-10.15,9.67-10.95,2.13-17.43,7.84-2.8,10.19-1.74,16,7.21C400.5,39.4,402.77,31.74,408.19,36Z"/><path class="cls-11" d="M54.73,374.51c-24.63-8.68-30.2-26.95-18.77-52,0,6.06,1.15,10.86-.22,14.78-4.11,11.77,2.48,19.7,8.71,27.89C47.25,368.86,51.13,371.48,54.73,374.51Z"/><path class="cls-10" d="M450.18,318l-2,2c-6.33-.88-9.37-6.15-12.85-10.34-7.63-9.18-15.25-18.36-23.53-26.94a36.92,36.92,0,0,1-7.92-11.37c-.78-1.86-1.86-3.64-.14-5.5,1.88-2,4.05-1.91,6.38-.85,6.92,3.16,11.77,8.92,16.16,14.59A175.74,175.74,0,0,0,441,295.75C447.19,301.94,451,309,450.18,318Z"/><path class="cls-13" d="M424.19,174c5.58-4,13.43.87,18.65-4.72a2,2,0,0,1,1.68.49c2.36,6.9,6.88,2.57,10.79,2.33,5.6-.35,11.25-.1,16.87-.11a44.16,44.16,0,0,1-2.76,5.29c-4.45,6.35-7.39,7.49-14,3.94a13.26,13.26,0,0,0-10.12-1.55A24.45,24.45,0,0,1,426.2,176Z"/><path class="cls-13" d="M394.17,188c1.72-2.75,2-6,2.82-9.53,5.07,1.23,7.74,5,11.2,7.53C404,189.76,398.83,187.24,394.17,188Z"/><path class="cls-13" d="M418.19,180c.67-.66,1.33-1.33,2-2C419.52,178.65,418.86,179.32,418.19,180Z"/><path class="cls-13" d="M420.19,174c.67-1.38,1.33-1.36,2,0Z"/><path class="cls-16" d="M218.09,148.26c-2.78-2.33-1.64-5.57-2-8.46-2.64-9.15,4-12.3,10.27-15.21,5.73-2.65,12.14-2.85,18.34-3.77a51.64,51.64,0,0,0,19.55-6.6c8.79-4,17.05-9.22,26.23-12.49,5-.8,10-3.6,15.14-.65,2,5.18-2.76,5.86-5.41,7.57-7,4.52-14.45,8.27-21.07,13.37-4.66,3.59-4.6,6.83,1.48,7.74,11.43,1.72,22.92,5,34.55,2.22a29.17,29.17,0,0,1,20.25,2.12c15.78,7.32,25.47,3.91,34.11-11.11,4.42-7.69,9.39-9.11,17.37-4.65,5.82,3.26,10.63,8.06,16.54,11.18,2.81,1.49,6.7,4.79,8.89,1.68,2.66-3.77-2.15-6.26-4.63-8.59-3.93-3.69-9.2-5.29-13.78-8-2-1.19-7-2.22-2.06-6.13,15.46.3,30.72,3,46.16,3.64,9.56,4.27,20.15,4,30.05,6.89,6.53,1.89,12.52,4.55,17.28,9.5,2.34,2.43,4.67,5.19,3.39,8.82-1.42,4-5.14,5.15-8.93,5.08-9-.17-17.85-1.81-26.9-1.67-7.8.12-15,1.22-22.14,4.81-11.91,6-25.29,5.56-38.13,6.86-10.6,1.08-21.19,2.13-31.73,3.73-11.6,1.76-22.5.49-32.47-6.37s-20.57-8.89-33.05-7.61c-20.51,2.12-41.27.62-61.92.63C227.54,142.81,222.25,143.7,218.09,148.26Z"/><path class="cls-17" d="M218.09,148.26c1-8.1,1-8.22,8.67-8.25,17.66-.07,35.31.06,53-.06,7.94-.06,15.88.69,23.78-1.67a15.44,15.44,0,0,1,11.68,1.22c5,2.68,10.55,4.54,15,7.9a32.32,32.32,0,0,0,26.35,6.4c21.18-4,42.81-3.77,64-7.64,3.71-.68,7.36-1.4,10.21-3.58,5.71-4.38,12-5,18.82-4.64,8.93.4,17.88-.55,26.78,1.77,3.51.91,9,2,10.72-2.59s-3.4-6.75-6.18-9.19c-5.67-5-13-6.62-20.22-7.7-4.89-.74-9.56-2.69-14.69-2.41a9,9,0,0,1-7.73-3.89c7.31-5,15.41-2.57,23.22-2.27,4.3.17,8.56,1.23,12.87,1.55,14.2.84,20.94,9.42,23.29,22.54-.13.65-.27,1.29-.39,1.94-2.95,15.37-4.64,17-20.3,16.13-7.91-.43-15.75-2.11-23.63-3.15-6.63-.87-13.33-1.72-19.24,2.56-1.79,1.29-3.47,1.15-5.53,1.13-8.22-.09-14.93,3.15-18.77,10.69-1.82,3.57-3.55,4.23-7.66,3.36-8.66-1.85-17.3-1.08-24.49,5.08a8.24,8.24,0,0,1-9.15,1.62A52.37,52.37,0,0,0,345.88,172a13.24,13.24,0,0,1-12.16-5.36c-5.64-7.07-12.27-12.17-22.14-10.81-2.78.38-5.14-1.44-7.18-3.09a22.55,22.55,0,0,0-16.83-4.84c-5.78.52-11-2.22-16.7-2.34-14.06-.3-27.89.71-41.35,5C225.2,151.92,221.08,153.13,218.09,148.26Z"/><path class="cls-18" d="M266,115.77c-6.65,5.8-15.06,6.55-23.19,8.1-3.58.68-7.18,1.3-10.79,1.73-8.66,1-13.84,5.84-15.89,14.2-14.74.81-29.45,2.69-44.26,1.39-1.94-.17-4,.2-5.69-1.09-8.39-8-8.64-19-.15-29.87S185.81,92.12,198.54,87a10.6,10.6,0,0,1,8.07,3.14c11.66,12.94,27.55,12.05,42.76,13.45a16.28,16.28,0,0,1,7.07,2.47C259.67,109.22,265.69,109.7,266,115.77Z"/><path class="cls-19" d="M497.58,135.75a6.19,6.19,0,0,1-3.57-4.42c-1.81-9.88-8.44-14.15-17.71-15.42-1.49-5.12,4.13-8.61,3.09-13.63.07-8.6-5.57-13.06-12.2-16.72-20.23-11.15-42.57-14.25-65-16.86-3.61-.41-7.3-.15-10.89-1-10.33-2.59-21,.64-31.35-2.06-4.72-7,1.3-6.06,5.07-6.77,16.45-1.24,32.75.87,49.08,2.18l13.72,1.1c9.28,2.8,18.91,3.9,28.39,5.77,5.88,2.09,11.82,4,17.65,6.31,6.47,2.51,12.68,5.52,18,10.09s8.4,9.78,8.55,17C500.67,113,500.73,124.47,497.58,135.75Z"/><path class="cls-20" d="M224,69.48c8.54,10.2,19.9,16,32,20.71,3.06,1.18,4.86,0,7-2,8.62-7.8,13.05-18.23,18.2-28.25,1.75-3.4,2.54-7.83,7.53-8.4l9.4,2.51c3.41,3.84,2.23,8,.86,12.17-4.38,13.21-12.76,23.81-22.4,33.46-5.57,5.57-12.18,7-20.06,4.64C242.23,100,228.37,94.73,216,86.11c-3.17-2.21-8.32-3.78-5.71-9.65C214.73,73.82,219,70.82,224,69.48Z"/><path class="cls-20" d="M278.13,46.15c-1.25,14.58-8.4,26.05-18.9,35.74-1.6,1.48-3.32,2.06-5.38.89C245.28,78,236.2,73.86,230,65.72a52.93,52.93,0,0,1,14-7.87c4.92-.64,11.09,3.25,14.21-3.91l12.13-8.33C273,45,275.64,44.23,278.13,46.15Z"/><path class="cls-21" d="M198.27,87.85c-4.74,5.33-11.54,7.61-17.24,11.51a60.43,60.43,0,0,0-13,12.15c-7.12,8.89-8,18.63-1.84,28.59-3,0-6,.14-9,0-8.61-.56-10-2.34-8-10.42a45.09,45.09,0,0,1,7.44-16.25A91,91,0,0,1,198.24,82,4.07,4.07,0,0,1,198.27,87.85Z"/><path class="cls-22" d="M210.32,76.46c.05,3.14,2.32,4.37,4.58,6C229.22,92.54,245.12,98.89,262,103c2.4.58,4.47,1,6.57-.6,16-12.37,28.41-26.88,29.54-48.32,4.15.24,8.47-.78,12.3,1.73-2,3-5.19,5.18-6.19,8.92-4.41,16.54-16,28-27.67,39.48-6.24,6.16-12.5,8.27-20.34,3.71l-6.08-2.08c-15.91-2.24-29.27-10.14-42.11-19.12-2.28-1.6-5.39-3.18-4-7.06A11.12,11.12,0,0,1,210.32,76.46Z"/><path class="cls-23" d="M204.08,79.68c5.22,6.2,12.22,10,19.16,13.77,8.7,4.69,17.53,9.21,26.93,12.41-9.28,1.11-18.2-2.06-27.41-2.31a15.91,15.91,0,0,1-11.18-5.76c-3.72-4.46-8.45-7.2-13.31-9.94l0-5.82C199.65,79.91,201.88,79.81,204.08,79.68Z"/><path class="cls-24" d="M258.17,53.94c.07,2.38-1.09,4.36-2.19,6.32-2.12,3.74-4.69,4.4-7.31.55a6.38,6.38,0,0,0-4.71-3C248.26,55,252.84,53.06,258.17,53.94Z"/><path class="cls-4" d="M278.13,46.15l-7.83-.54c3.36-2.49,6.66-2.5,9.91.21Z"/><path class="cls-25" d="M256.25,107.94c9.51,3.2,15.32-2.14,21.57-8.3,11.06-10.89,21.1-22.17,24.69-37.84.94-4.1,3.66-6.15,7.94-6l3.72.21c1.15,1.26,2.27,2.85,1.81,4.42C311,77.13,306.4,94,290.22,104.06L266,115.77Z"/><path class="cls-26" d="M290.22,104.06c11.09-11,17-25.09,22.68-39.25A21.15,21.15,0,0,0,314.17,56c12.08.34,24.24-.87,36.21,1.69l-.8,1.08c-2.68,1.78-5.86,1.2-8.74,1.92a4,4,0,0,0-2.47,3.41,22.48,22.48,0,0,1-.77,3.46,39.62,39.62,0,0,0-1.27,4.66,18.2,18.2,0,0,1-.94,3.64,15.12,15.12,0,0,1-1.88,3.38,3.36,3.36,0,0,1-2.24,1.22c-2-.6-2.58-2.22-2.89-4a11.12,11.12,0,0,1,.37-3.85c.34-1.21.77-2.39,1.16-3.58s.66-2.31,1-3.45c.32-1.47.71-2.95-.65-4.16-3.74-1.53-6.84-.53-8.37,3-4.49,10.33-8.28,21-14.15,30.66-.9,1.5.24,3.21.84,4.76,0,1.64-.53,2.66-2.42,2.17C300.65,101.09,295.58,103.72,290.22,104.06Z"/><path class="cls-27" d="M365,58.89c-2.48,1.26-6.41.87-6.05,5.34,3.27,7.25,2.55,13.93-2.93,19.87-3,3.25-3.8,7.51-5.42,11.4-1.41,3.4-3.29,6.39-7.18,7.43-5.94-.39-4.25-4.79-4.36-8.27,5.1-11.64,4-25.14,10.82-36.28l.5-.65A61.32,61.32,0,0,1,365,58.89Z"/><path class="cls-28" d="M340.19,96c2.33,1.56-1.38,5,2,6.25,13.89-1.84,27.41,1.15,41,3.14,3,.43,5.8,1.39,7,4.64,5,2.5,10,5,15,7.51a26.83,26.83,0,0,1,11.2,11c1,1.73,2,3.59.4,5.51a5.36,5.36,0,0,1-5.4,1.83c-4.3-.82-8.05-3-11.62-5.45-4.66-3.14-9.06-6.66-13.79-9.69-7.51-4.83-10.72-3.77-14.31,4.14-7.25,16-21.05,19.32-36.53,12-7.26-3.44-13.47-4.32-20.65-2a7,7,0,0,1-1.87.65,140.82,140.82,0,0,1-37.16-4.26c-4.58-1.14-4.91-4.42-1.43-8,7-7.29,16.37-11.13,24.7-16.47,2.48-1.59,5.62-2.13,7.48-4.71l2.25-1.83c1.86-2.44,4.6-2.56,7.3-2.81,4.11-.1,8.27.26,12.28-1.12C332.06,95.74,336.09,94.1,340.19,96Z"/><path class="cls-29" d="M390.18,110c-6.78-2.67-14-3.09-21.12-4-8.12-1-16.29-1.5-24.42-2.35-.87-.08-1.65-1-2.47-1.48a13.12,13.12,0,0,0,6.42-8.2c1.36-5.2,1.73-10.91,7.74-13.78,2-1,1.77-4,1.9-6.3.19-3.24.47-6.48.71-9.72,8.64,0,17.27,0,25.9,0,2.6,0,5.38-.46,7.57,1.6-4.77,4.42-10.73,2.25-16.18,2.95s-13.09-2.65-12.64,7.69c.48,11.16,6,18.14,14.57,18a17.78,17.78,0,0,0,4.92-.76c13-4,25.5-2.44,38.09,2.18,15.8,5.8,32.41,6.94,49.09,7.21,3.94.07,8-1,11.81.83.08,4.94-3.81,8-5.77,11.91-12.7-.6-25.31-3-38.1-2C422,115.09,406.1,112.34,390.18,110Z"/><path class="cls-30" d="M482.07,104c-8.27,3.83-17.22,2.67-25.48,1.56-10.69-1.45-21.77-1-32.13-5.34-3.3-1.37-6.69-2.82-10.15-3.91-10.43-3.29-20.75-2.7-31.24.24-12.51,3.51-18.62-.62-21-13.33C358.81,66,358.81,66,376.47,66c5.32,0,10.63-.08,15.94-.12,25.62.56,50.43,4.88,73.82,15.88a40.15,40.15,0,0,1,10.71,7C481.24,92.88,483.39,97.91,482.07,104Z"/><path class="cls-20" d="M316.19,99.82l-7.76.37c-6.25-1.59-6.54-1.8-3.49-6,6.08-8.43,9.81-17.93,13.33-27.55,3.61-9.84,5.28-10.58,15.91-6.64-1.9,1.6-.2,4.37-2,6l0,4c-.68.65-1.25,1.4-1.93,2l-.08,4C327.81,85.24,327.06,95.49,316.19,99.82Z"/><path class="cls-20" d="M340.19,96c-3.73,2-7.79,2.17-11.88,2.13-5.18,2-5.25-1.23-4-4.45,1.89-4.92,3.78-10,7.88-13.68,0-.65,0-1.29,0-1.94.68-.64,1.25-1.39,1.93-2l.08-4c1.24-1.06.75-3,1.94-4,0-1.33,0-2.65.05-4,1.93-1.49,0-4.5,2.3-5.84l11.39.2C347.64,71.17,346.67,84.29,340.19,96Z"/><path class="cls-26" d="M332.18,80c-.66,5.34-4.07,9.51-6.11,14.26-1.12,2.61-.17,3.54,2.24,3.87-3.7,3-8.05,1.39-12.12,1.71,6.19-5.24,8.29-12.91,11.66-19.8.7-1.42.85-3.11,2.31-4.09C330.22,77.58,330.55,79.11,332.18,80Z"/><path class="cls-26" d="M332.21,66c0-2.2-.33-4.54,2-6C334.12,62.16,334.56,64.52,332.21,66Z"/><path class="cls-26" d="M338.5,58.18c-.5,2,0,4.49-2.3,5.84C336.32,61.82,335.66,59.31,338.5,58.18Z"/><path class="cls-26" d="M336.15,68c0,1.65-.37,3.13-1.94,4C334.22,70.38,334.54,68.88,336.15,68Z"/><path class="cls-26" d="M334.13,76l-1.93,2Z"/><path class="cls-26" d="M330.24,72l1.93-2Z"/></g></g></svg>