<svg xmlns="http://www.w3.org/2000/svg" viewBox="0 0 652.21 457.11"><defs><style>.cls-1{fill:#dcdad5;}.cls-2{fill:#e3e1dc;}.cls-3{fill:#ff8051;}.cls-4{fill:#f46e3e;}.cls-5{fill:#f76f3e;}.cls-6{fill:#ef784c;}.cls-7{fill:#fff;}.cls-8{fill:#e8693a;}.cls-9{fill:#ef6c3c;}.cls-10{fill:#f97b4c;}.cls-11{fill:#fb7b4c;}.cls-12{fill:#ef6e3f;}.cls-13{fill:#f7703f;}.cls-14{fill:#f26e3e;}.cls-15{fill:#f77d50;}.cls-16{fill:#fdfdfd;}.cls-17{fill:#eae8e3;}.cls-18{fill:#fe7a4b;}.cls-19{fill:#e9e7e2;}.cls-20{fill:#f36e3e;}.cls-21{fill:#e8744a;}.cls-22{fill:#f56e3e;}.cls-23{fill:#f6794b;}.cls-24{fill:#f56f3e;}.cls-25{fill:#f57a4d;}.cls-26{fill:#f26d3d;}.cls-27{fill:#ef6d3d;}.cls-28{fill:#f0784c;}.cls-29{fill:#f66f3e;}.cls-30{fill:#f57b4d;}.cls-31{fill:#f27b4f;}.cls-32{fill:#f0794d;}.cls-33{fill:#f27a4e;}.cls-34{fill:#f2efea;}.cls-35{fill:#6a5c54;}.cls-36{fill:#ff7340;}.cls-37{fill:#ff7a4a;}.cls-38{fill:#ff8659;}.cls-39{fill:#dd6538;}.cls-40{fill:#99a182;}.cls-41{fill:#a4a49d;}.cls-42{fill:#ba8784;}.cls-43{fill:#b38b86;}.cls-44{fill:#b7b3ad;}.cls-45{fill:#b7807d;}.cls-46{fill:#f1eee9;}.cls-47{fill:#b2928d;}.cls-48{fill:#a87d79;}.cls-49{fill:#f78a8b;}.cls-50{fill:#f68a8b;}.cls-51{fill:#f58a8a;}.cls-52{fill:#f7999a;}.cls-53{fill:#f79a9a;}.cls-54{fill:#33392f;}.cls-55{fill:#fe7340;}.cls-56{fill:#dd6437;}.cls-57{fill:#575a4c;}.cls-58{fill:#3e433a;}.cls-59{fill:#868880;}.cls-60{fill:#676a62;}.cls-61{fill:#949f75;}.cls-62{fill:#afafa9;}.cls-63{fill:#8f977b;}.cls-64{fill:#8f9878;}.cls-65{fill:#87926b;}.cls-66{fill:#6f785a;}.cls-67{fill:#c1da7c;}.cls-68{fill:#f79495;}.cls-69{fill:#f79a9b;}.cls-70{fill:#ac8681;}.cls-71{fill:#f79697;}.cls-72{fill:#f69697;}.cls-73{fill:#ebe9e3;}</style></defs><g id="Слой_2" data-name="Слой 2"><g id="Слой_1-2" data-name="Слой 1"><path class="cls-1" d="M2.09,139.22a15.22,15.22,0,0,0,.13-1.92c.65-.7,1.28-1.42,1.94-2.12v0c2.28-2.25-.13-5.69,2-8a10.27,10.27,0,0,0,.06-1.84c.63-.71,1.19-1.49,1.89-2.14a11.73,11.73,0,0,0,.1-1.87c.63-.73,1.27-1.44,1.91-2.16l0,0c1.27-1,.87-2.9,2.07-3.94l0,0c.65-.7,1.33-1.36,2-2h0a21.75,21.75,0,0,0,1.95-2l0,0a20.15,20.15,0,0,0,2-2l0,0a21.79,21.79,0,0,0,2-1.95h0c.7-.65,1.35-1.33,2.05-2l0,0c1.05-1.2,2.93-.81,4-2.06h0c1.12-1.13,3-.74,4.05-2a16.14,16.14,0,0,0,2-.07c1.65-1.72,4.39-.06,6-1.95h0c1.23-1.05.85-2.93,2.06-4l0,0c.64-.7,1.32-1.36,2-2h0a21.75,21.75,0,0,0,2-2l0,0a18.89,18.89,0,0,0,1.94-2l.06-.06a21.32,21.32,0,0,0,2-1.94l0,0c.71-.62,1.36-1.3,2-2h0c.67-.7,1.41-1.33,2.14-2a10.76,10.76,0,0,0,1.88-.16c.69-.6,1.36-1.23,2-1.88l0,0c1.09-1.17,2.94-.82,4-2h0c1.63-1.81,4.42-.15,6-2a16.37,16.37,0,0,0,2-.06,5,5,0,0,1,6,0c1.34.25,2.72,2.16,4-.11a13.94,13.94,0,0,0,1.94-1.9l.06-.06a19.94,19.94,0,0,0,2-1.94l0,0c.73-.6,1.37-1.28,2-1.94h0c.68-.67,1.34-1.36,2.06-2l0,0c1-1.24,2.93-.85,4-2.08h0c.7-.67,1.42-1.31,2.15-1.94a10.63,10.63,0,0,0,1.87-.13c.66-.67,1.43-1.22,2.08-1.89a12.44,12.44,0,0,0,1.93-.14q1-.91,2.07-1.86a12.42,12.42,0,0,0,1.93-.11c1.1-1.14,3-.66,4-1.9a16.38,16.38,0,0,0,2-.07c3-2.27,7,.53,9.93-2l0,0a23.13,23.13,0,0,0,2-2c1.1-1.14,2.95-.77,4-2h0c1.66-1.74,4.42-.12,6-2a16.55,16.55,0,0,0,2-.07c3-2.23,7,.45,10-1.91h17.82c3,2.16,4.57.28,6-2a15.77,15.77,0,0,0,.11-1.94c1.19-1.09.79-3,2-4.06l0,0c.63-.71,1.32-1.36,2-2.06h0c.68-.64,1.33-1.3,1.95-2l0-.05a26,26,0,0,0,2-1.94l0,0c.71-.63,1.36-1.31,2-2l0,0c1.06-1.19,2.94-.8,4-2.06l0,0c1.12-1.09,2.94-.74,4-2h0c3.67-2.49,8.29.61,11.94-2a11.3,11.3,0,0,0,.12-1.84,16.81,16.81,0,0,1,2-2.13l0,0c1-1.23,2.93-.84,4-2.06h0c3.62-2,7.56-1,11.28-.84,4.11.2,5.71-1.85,6.71-5.16a11.09,11.09,0,0,0,.08-1.82,3.18,3.18,0,0,1,2.59-1.08c4.74,3.06,5.78,8.68,8.68,13,3.07,4.57-1.34,5.7-4.62,6.12-10.33,1.31-19.63,6-29.49,8.74a20.71,20.71,0,0,1-2.59,1.06c-2.19.72-4.78,1.08-6.28,2.76-6.54,7.37-15.23,12.16-22.22,19-4.48,3.23-9.42,3.11-14.3,1.5-13.44-4.43-25.22-1.6-35.7,7.6-3.16,2.77-7.2,3.27-11.06,4.2-5.85,1.39-9.26,6.25-13.72,9.63-6,2.67-10.66,7.66-17.61,8.7-4.49.66-5,3.83-2,7.2,1.33,1.47,3.32,2.2,4.78,3.52,7.49,6.82,7.11,14.29-1.09,19.9-2.75,1.88-5.09,4.22-7.77,6.17a7.68,7.68,0,0,1-2.61,1c-3,.19-4.71-1.6-6.39-3.8-9.31-12.21-18.33-12.79-29.85-2-5,3.54-8.48,7.9-5.44,14.26s6.49,12.59,14.73,12.92a78.42,78.42,0,0,1,13.73,2.11c18.34,2.28,36.1,8.81,55.21,5.13,8.88-1.71,17.23,4.45,26.1,5.85,17.35,11.33,38.23,12.74,57,20,6.12,2.37,13.31,2.1,18.43-3.79,3.95-4.56,8.26-5.95,14.12-3.5,4.76,2,9.85.67,14.75-.43,7.79-.52,16.42-2.93,19,8.44.29,1.27,1.63,2.07,2.73,2.82,6.68,4.54,32.19,3,37.54-3,4.51-5,8.27-5.38,13.52-1.33,6.56,5.06,13.62,8.32,22,3.32,3.94-2.34,6.93.79,9.73,3,5.78,4.64,12.07,6.9,19.48,4.88a14.94,14.94,0,0,1,3,0c13.36,6.12,28,3.59,42,6.15,4.92.9,9.45-2.91,13.52-5.72,4.25-2.93,8.06-3.72,12.88-1.09,6.07,3.32,11.74,1.85,15.92-3.65,3.44-4.54,7.61-5.87,13.1-4.84s10.52-.84,15.6-2.52c3.78-1.26,7.51-2.62,11.63-2.51,19.45.5,34.16-14.33,33.51-33.7a7.05,7.05,0,0,1,.32-2c9-12.86,20-22.65,36.56-23.58,6.23-.34,9-3,10.45-9.41,2.09-9.06,6.51-17,16.83-20.18,8.14-2.52,13.48-8.32,13.69-17.58a14.21,14.21,0,0,1,1.18-4.8c4-10.19,4-10.24-6.11-14.69-2.2-1-5-1.89-4.55-4.52.95-6.07-3.2-11.54-1.64-17.57,1.79-2,4.16-2.2,6.61-2.19a13.65,13.65,0,0,1,2.7.4,17.38,17.38,0,0,1,3.62,1.5,15.29,15.29,0,0,1,2.12,1.31,19.91,19.91,0,0,1,1.86,1.58c.3.27.58.56.88.83.6.54,1.17,1.13,1.73,1.72l.83.91a12.72,12.72,0,0,1,1.47,2c.43.73.79,1.49,1.15,2.26,3.6,5.57,9.4,2.23,14.06,3.47a13.31,13.31,0,0,1,2.49.53,10.41,10.41,0,0,1,2.19,1.09c.32.23.64.48,1,.7.92.69,1.84,1.39,2.82,2a16.87,16.87,0,0,1,1.89,1.27,12.55,12.55,0,0,1,1.65,1.61,13,13,0,0,1,1.3,2,24.26,24.26,0,0,1,2,4.48,15.94,15.94,0,0,1,.49,2.55,67.43,67.43,0,0,1,0,10.73,17.43,17.43,0,0,1-.54,2.68c-.37,1.33-.77,2.64-1.12,4a10.79,10.79,0,0,1-2.24,5.09c-10,5.1-18.56,11.2-26.16,20.27-12.14,14.48-25.1,28.48-38.6,41.84-2.61,2.58-5.54,5.43-9,6.11-11.33,2.22-19.21,9.63-27.3,16.87-6.77,6.34-16.81,7.56-23,14.77-7.73,6.68-16.31,11.52-26.73,12.37-3.86.31-6.81,2.4-9.64,4.82-12.17,10.41-26.43,15.15-42.31,15.06a102.52,102.52,0,0,0-21.84,1.9c-7.39,1-14.44-1.22-21.62-2.23-7-2.15-14-4-21.43-3.49-13.64,0-27.26.26-40.88-.06-2.67.09-5.68.16-7.77-1.24-11.67-7.87-24-5-36.41-2.84-2.63,0-5.59.49-7.75-.88-10.17-6.48-21.54-4.61-32.56-5.2a5.31,5.31,0,0,1-1.93-.22c-13.5-6.31-26.55-3.72-39.46,1.94-5.75,1.13-11.41,3.31-17.39,1.37-10.8-7.8-23.93-8.61-36.21-12-5.52-2.15-10.75-4.64-15.35-8.65-5.27-4.6-12.16-4.43-18.76-4.61a26,26,0,0,1-4.57-.72c-6.49-1.83-13.51-.57-19.82-3.39-6.13-3.48-12.6-3.33-19.2-1.75-8.16,0-16.31.66-24.45-.11-7.94-.55-12-8.11-18.92-10.52-3.68-1.52-7.5-2.69-11.3-3.9a17.85,17.85,0,0,1-2.44-1,39,39,0,0,1-3.47-1.91c-3.73-2.43-6.75-5.66-9.75-8.9l-.48-2.34A13.71,13.71,0,0,1,2.09,139.22Z"/><path class="cls-2" d="M196.18,39.17c.82-1,1.58-2.84,2.47-2.91,11.11-.79,20.42-8.58,34.44-7-6.52-5.48-8.43-10.94-10.88-16.1a1.24,1.24,0,0,1-.46-1.34c.16-.44.31-.66.47-.66l0,0a7.74,7.74,0,0,1,8,0h0a2.68,2.68,0,0,0,4,0h0c.68-.67,1.34-1.35,2-2v0a24.69,24.69,0,0,1,2.1-2,14.7,14.7,0,0,0,1.88-.09c.64-.69,1.43-1.24,2.07-1.93.65,0,1.29,0,1.94-.1.65-.67,1.42-1.22,2.07-1.9a17.59,17.59,0,0,0,1.92,0c1.66-1.77,4.42-.1,6.05-1.95h13.91c1.61,1.86,4.34.22,6,1.91.66.06,1.33.09,2,.09,1,1.25,2.93.76,4,1.94a17.6,17.6,0,0,0,1.92.07c.69.67,1.4,1.3,2.1,2h0c1,1.25,2.91.85,3.94,2.08h0c2.05,1.89,4.07,1.27,6.09-.05h0c1.1-1.18,3-.79,4.07-2,.65,0,1.29,0,1.93-.06,4.89-2.34,10.28.24,15.2-1.57a9.28,9.28,0,0,1,2.88-.2,32.32,32.32,0,0,1,5.18,1.51,20.86,20.86,0,0,1,2.3.8c1,.42,2.05.93,3,1.45.61.28,1.22.6,1.81.91a4.5,4.5,0,0,0,2.81.18c.63-.28,1.25-.52,1.87-.79a35.59,35.59,0,0,1,4-1.78,14.33,14.33,0,0,1,2.34-.5A43,43,0,0,1,347.73,7a16.33,16.33,0,0,1,3.62.62c1.51.48,3,1.08,4.5,1.54a15.58,15.58,0,0,1,2.2.79c1.06.47,2.09,1,3.13,1.52a17.41,17.41,0,0,1,2,1.1c.66.38,1.31.79,2,1.17.36.14.7.31,1.05.45,2.41.81,4.65-.08,6.91-.7a17,17,0,0,1,7.68-.07c1.62.39,3.17,1,4.74,1.52a19.74,19.74,0,0,1,2.23.8,32.58,32.58,0,0,0,4.3,1.59,15.16,15.16,0,0,1,2.18.75c1.07.47,2.12,1,3.2,1.47.76.3,1.5.65,2.24,1,1.19.51,2.37,1,3.57,1.5,3.94,1.83,7.64,1.2,11.41-.69,7.43-3.71,15.77-5,23.13-1.94,11.33,4.75,22.67,4.76,34.37,3.73l10,0c16.71,1.57,33.59,0,50.23,2.73a24.26,24.26,0,0,1,10.9,4.5c3.07,3.21,6.5,5.14,11.07,3.13a23.17,23.17,0,0,1,4.13-.71c3.68-.26,7.41.06,11-1.09a16.33,16.33,0,0,1,6.71-.34A15.87,15.87,0,0,1,581,33.28a7.56,7.56,0,0,1,1.86,1.52c1.21,1.53,1-1.06,1.8-.66a7,7,0,0,1,2.39-.52,4,4,0,0,1,3.19,1.6c1.37,6.22,6.25,11.84,2.67,18.43C596,56,599.22,54.86,602,56.08c6.31,2.77,8.38,7.87,4.38,13.5a15.88,15.88,0,0,0-3.12,9.58c-.4,8.64-6.41,14.09-14.19,17.46-4.53,1.95-10.07,1.47-11.71,8.68-1,4.21-6.37,7.16-5.29,12.93.71,3.8-1.81,7.42-5.14,7.26-6.67-.34-12.15,5.14-18.67,3.33-3.73-1-5.91.51-7.57,3-4.31,6.46-10.7,10.58-16.51,15.37l-1.34-.44a5.56,5.56,0,0,1-2.14-2.05c-2.51-5.58-10.07-11.4-6.33-16.58s12-8.33,19.48-7.82c5.45.38,8.15-1.62,9.95-6.06,2.1-5.17,5.23-10.26.75-15.87-2-2.58-6.8-4.66-3.24-9,3.27-4,7.87-4.82,12.72-3.4s9,4.2,13.15,7.11c0-.82-.78-1-1.09-1.56-7-12.06-16.54-12.95-28.63-7.68-10,4.34-15.09-3.47-20.05-10.35a6.84,6.84,0,0,1-.06-2.85c2.17-10.49-.4-14.34-11-14.71a44.28,44.28,0,0,1-21.5-6c-7.86-4.48-17.47-3.79-25.67,1.27-4.5,2.77-7.33,2.52-11-1.59-5.37-6-12.6-9.48-20.56-6C420.43,46.62,417,39,411.2,39.09c-.92,0-1.83-.1-2.74-.19a11.11,11.11,0,0,0-7.53,1.89c-3.8,2.29-6.79,1.67-9.22-2.18s-5.95-5-10.32-3.77a8,8,0,0,1-5.45-1c-7.24-10.16-19.28-7.15-29.06-10.16-3.52-1.08-5.33,4.27-7.51,7.08-3,3.87-5.75,7.11-11.51,4.06-13.63-7.22-17.95-6.49-28.73,3.78-5.39,2.85-9.52,11.44-15.52,8.72-6.86-3.09,1.13-10.64-.74-16.17a25.35,25.35,0,0,1-.56-2.91c-3.14-8-11.92-11.62-20.94-8.59-4.58,1.54-8,4.63-11.34,7.93a23.69,23.69,0,0,1-3.21,2.6c-2.37,1.37-4.53,3.16-7.22,4a12,12,0,0,1-2.87,0c-10.27-2-18.41,1.75-26,8.55C204.16,48.72,200.44,47.47,196.18,39.17Z"/><path class="cls-3" d="M4.37,284.67c.64-3.22,0-6.38-.41-9.55-2.14-8.05.75-16.42-1.61-24.45l-.42-11.56c-1.3-3.78-.68-7.63-.44-11.46,5.44-1.74,4.21,3.08,5.42,5.5,8.21,20.6,18.85,40,29.75,59.24,13.17,20.39,26.81,40.28,44.43,57.36,15.63,15.14,32.56,23.4,50.9,17.76-4.06.86-11.54.05-18.8-2.71-2.8-1.07-5.94-2.38-5.62-6.07.36-4,3.68-5.23,7.12-5.73,4.29-.63,8.62-.38,13-.52,14.09,2.21,28.23,2,42.38,1,3.17,1.25,3.25,3.13.63,5-3.46,2.4-7.5,3.58-10.92,4.68,22.42-5.6,47-8,62.94-30.55-7.1,3.43-13.18,6.87-19.24,10.41-3.33,2-6.73,4.58-11.09,2.65-1.82-3.57.9-5.65,2.82-7.71,7-7.53,14-15.27,22.92-20.59,15.37-9.19,31.3-17.39,44.67-29.69a16.09,16.09,0,0,1,16.82-3.48c5.79,2.13,10.18-.06,14.61-3.59,13.74-10.95,28.11-21.1,41.78-32.18,5.14-.43,9.66,1.35,14,3.94,1.58,1.93.59,3.66-.41,5.4-4,4.75-8.73,8.83-12.88,13.47-28.21,24.54-59.75,44.33-91.39,63.94C218.64,351.65,191.37,366.87,162,378a163.59,163.59,0,0,1-35.55,9.55c-23.1,3.18-41.32-7.14-57.82-21.56-13.86-12.1-25.08-26.54-35.48-41.63-9.2-14.57-18.67-29-25.37-44.82-.07,1.53.53,4-1.2,5.8A1.39,1.39,0,0,1,4.37,284.67Z"/><path class="cls-4" d="M228.2,435.23l-.78-.36-.85.18c-3.19-2.11-7.19.36-10.37-1.83l-.77-.35-.83.17c-2.54-1.79-5.78,0-8.36-1.63l-3.43-.44c-2.66-1.62-5.95.07-8.58-1.64l-.87-.37-.93.13c-1.47-1.23-3.44-.76-5.05-1.53-2.56-1.35-5.36-1.48-8.17-1.57a1.85,1.85,0,0,1-1.38-2.18c6-5.22,14.09-3.91,21-6.4,3.93-1.42,8.12-2.22,12.11-3.59,35.45-10.45,65.21-30.91,93.61-53.64a548.45,548.45,0,0,0,43.67-39.28C363.51,305.71,379.3,291,395.75,277c5.12-4.34,8.12-10.54,13.68-14.37a7.7,7.7,0,0,1,2.8-.5c5.14.48,5.45-4.1,7.08-7,2.43-4.42,3.26-9.41,4.17-14.33.65-3.47-.45-8.3,3.72-9.58s7.59,2,10.15,5.13c9.35,11.42,16.9,23.84,20.47,38.38a10.49,10.49,0,0,1-2.39,5.33c-7.85,6.37-16.05,12.2-25.36,16.31-7.54-1.54-8.79-8.62-11.56-13.94-3.52-6.75-6.41-6.93-11.63-1.66-18.68,18.89-37.25,37.89-57.21,55.48-23.45,20.65-47.22,40.88-72.94,58.65C262,405.11,245,411.21,227.89,417.31c7.1-.77,13.5,1.9,20.15,1.73,5.51,1.2,11.14,1.17,16.69,1.85,2.16.26,4.95.45,5.21,3.44.2,2.27-1.88,3.43-3.61,4.21-9,4.07-17.91,8.55-28.26,7.61C234.78,435.78,231.35,437,228.2,435.23Z"/><path class="cls-5" d="M336.24,451.37l-3.7-.31c-1.38-1.29-4-.25-4.81-2.65,2.53-5,7.93-5.47,12.3-7.34,9.4-4,18.35-8.91,27.52-13.37,24.82-12.35,46.69-29.16,69-45.34,4.53-3.29,8.75-7.34,15-6.74a8.14,8.14,0,0,0,2,.12c19.17-2.38,23,2.47,16.82,21.23-16,39.81-47.54,54.7-88.21,54.86-7.31,0-14.5,1.17-21.73,2-2.1.37-4.19.74-6.19-.42l-3.85-.27C345.9,450.69,340.76,453.5,336.24,451.37Z"/><path class="cls-6" d="M642.45,163.1c-.44,12.43-1.43,24.85-.53,37.29q-1.32,1.85-2.69.05c-2.78-10.51-.33-21,.12-33.57-3.27,50.43-6.79,98.78-12.37,147a10.31,10.31,0,0,1-.6,3.4l-.1.16c-1.44.77-.86,3-2.56,3.58l.23-.2a3.37,3.37,0,0,1-2.14,2.22l.18-.18a4.38,4.38,0,0,1-2,2.27l.14-.14a6.2,6.2,0,0,1-2.1,2.16l.12-.12A6.92,6.92,0,0,1,616,329.1l.12-.12A6.92,6.92,0,0,1,614,331.1l.12-.12A6.92,6.92,0,0,1,612,333.1l.12-.12A6.92,6.92,0,0,1,610,335.1l.12-.12a7.18,7.18,0,0,1-2.14,2.11l.12-.16a1.49,1.49,0,0,1-2.61-.21c-1.4-3.82.09-7.64,0-11.47,4.09-27.27,6.62-54.7,8.72-82.18,1.74-22.84,3.1-45.71,6.14-68.42,2.73-20.44,6.37-40.71,13.26-60.25a37.15,37.15,0,0,0,2-11.74,9.75,9.75,0,0,1,1.66-4.92,2.76,2.76,0,0,1,3.1-.88,7.83,7.83,0,0,1,2.2,4.53c.63,5.45-.3,11.07,1.66,16.4a34.06,34.06,0,0,1,.78,8.72C642.4,138.59,643.86,150.94,642.45,163.1Z"/><path class="cls-7" d="M642.33,125.23l-.26-7.71c-2.28-5.25.57-11-1.7-16.28-.12-1.21-.23-2.41-.35-3.61a14.37,14.37,0,0,1-2.79-7.69,4,4,0,0,1,.74-2.61l.3-6.17c.71-.62,1.25-1.39,1.89-2.07a15.71,15.71,0,0,1,.12-2,21.61,21.61,0,0,0-.06-13.94,17.61,17.61,0,0,1-.08-1.92c-1.13-1.12-.67-3.05-2-4.05l0,0a9.48,9.48,0,0,0-2-2l0,.05c-1-1.34-2.87-.93-3.91-2.12l0,0A22.92,22.92,0,0,0,630,51.23h-.93l-.94-.07c-2.93-1.95-6.36-1.37-9.3-.85-6.13,1.08-7.6-2.59-8.73-7.12l0,0a23.86,23.86,0,0,0-2-2h0c-.64-.69-1.31-1.36-2-2h0a24,24,0,0,0-2-2l0,0c-1-1.31-2.94-.87-4.06-2a15.91,15.91,0,0,1-2-.09,15.71,15.71,0,0,0-12,0,17.7,17.7,0,0,1-1.93,0,1.42,1.42,0,0,1-2.08,0h0c-1-1.25-2.94-.81-4-2h-7.91c-3.72,2.43-8.33-.6-12,1.95l-4,.05c-3.78,1.49-7.35,1.95-10-2a50.37,50.37,0,0,0-25.83-6.06c-5.31.16-10.66-.25-16,.1a39.37,39.37,0,0,1-20.24-4c.27-3.44,2-6.1,5.51-5.79,8.41.75,16.39-2,24.68-2.36,8.66-.36,16.57,1.28,23.57,6.18,5,3.5,9.8,5.18,15.72,2.52,1.68-.75,4.38-1.07,5.82-.23,11,6.38,22,1.35,32.89-.09a23.39,23.39,0,0,1,23.32,10.88c4.26,6.76,4.26,6.76,12.19,5.27,8.65-1.62,11.24-.14,14.42,8.91,1.08,3.08,3.24,4.79,5.63,6.65,5.34,4.15,6.62,8.28,3.93,14.5-1.75,4-2,7.57.21,11.35a16.38,16.38,0,0,1,2.14,8.59c-.08,12.51.1,25-.08,37.55-.11,7.16-1.13,8.15-7.92,10.07C641.73,133.49,644.63,129,642.33,125.23Z"/><path class="cls-8" d="M468.18,397.18c.74-4.15,2.36-8.1,2.07-12.51-.45-6.93-1.1-7.17-8.19-7.69-4-.29-7.95,4.72-11.9.17,2.42-8.1,8.86-6.19,14.65-5.9,14.16,3.77,25.53,12.6,36.84,21.21,5.93,4.51,14.13,6.33,17.54,14a3.26,3.26,0,0,1-1.09,2.67l0,0a6,6,0,0,1-2.32,1.9l.19-.2c-1.58,2-4,2.88-6,4.28l.1-.07a4.35,4.35,0,0,1-2.36,1.92l.21-.23c-.64,1.73-2.8,1.2-3.72,2.52l0,0a11.76,11.76,0,0,1-2.3,1.81l.16-.15c-1.69,1.86-4,2.82-6.05,4.18l.1-.07a4.29,4.29,0,0,1-2.37,1.92l.23-.23c-.68,1.74-2.81,1.24-3.83,2.47l0,0a6.61,6.61,0,0,1-2.34,1.85l.21-.2c-.75,1.61-2.85,1.1-3.78,2.42l-.05,0a12.46,12.46,0,0,1-2.3,1.79l.17-.16c-.8,1.49-2.87,1-3.76,2.36l-.1.06a17,17,0,0,1-2.31,1.74l.18-.16c-.84,1.49-2.88,1-3.82,2.34l-.06,0c-.79.58-1.38,1.44-2.38,1.73l.21-.2c-.86,1.64-2.84,1.25-4.06,2.25l.14-.09c-1,1.43-2.9,1.11-4.14,2.09l.14-.08c-1.17,1.47-3.08,1.24-4.57,2l-.78-.06-.63.46c-1.38.93-2.95.77-4.49.8-6.4.76-7.69-2.51-3.79-6.57C460.41,430.53,464.13,413.83,468.18,397.18Z"/><path class="cls-7" d="M340.2,9.14c-.66,0-1.31.07-2,.06-1.1,1.17-3,.73-4,2h0a2.85,2.85,0,0,1-4,0h0c-1.05-1.27-2.94-.83-4-2-.66,0-1.32,0-2-.08-1.05-1.23-2.94-.73-4-1.92-.66,0-1.32,0-2,0-1-1.33-3-.57-4-2,.89-4.54,3.83-5.64,8-5,12.4,1.81,24.91.93,37.36,1.48,1.29.06,3-.23,3.79.47,5.73,5,12.75,4.42,19.6,5.51,5.87.94,12.31,1,17.42,6,3.08,3.06,8.3,3.67,13.11,3.6,3.92-.06,6.63-1.08,9.14-4.57,4.87-6.8,11.41-7.78,16.66-2.1,5.4,5.86,12.24,7.26,18.82,6.23,6.93-1.09,10.62,1.57,14.09,6.39-5.5,3.19-12.08,2.18-17.82,4.62-2.54,1.08-4-1.73-6.08-2.58-11.9-4.95-23.81-7.92-35.55.29-5.18,3.63-8.51-1.06-12.59-2.42-.62-.71-1.39-1.24-2.05-1.91a18.16,18.16,0,0,1-1.95-.07,21,21,0,0,0-2.09-1.91c-.63,0-1.27,0-1.9-.06-1.05-1.27-3-.77-4.05-1.95-.65,0-1.31,0-2-.07-1.07-1.25-2.95-.77-4.08-1.91l-9.87,0a8,8,0,0,1-8,0h0a21.65,21.65,0,0,0-2.1-2,17.43,17.43,0,0,1-1.91-.08,18.26,18.26,0,0,0-2.1-1.92h-.94l-.95-.06c-1.05-1.28-3-.79-4.07-1.95l-3.94-.08A7.47,7.47,0,0,0,340.2,9.14Z"/><path class="cls-3" d="M8.26,319a2,2,0,0,0-.16-1.81c-1.83-3.91-.47-8-.86-12a2.39,2.39,0,0,1,1.42-2.39c2.71.3,3.93,2.34,4.84,4.49,11.8,27.93,28.15,53.32,44,79,1.15,3.07,4.34,5.55,2.75,9.41-1.46.54-2.84.68-4-.68l.14.08c-1.23-1-3-.72-4.17-1.92l0,0c-1.11-1.16-3-.82-4.05-2h0c-1.09-1.18-2.94-.83-4-2h0c-1.08-1.19-3-.8-4-2.12l.09.06c-1.15-1.09-3.14-.69-4-2.26l.18.19a9.2,9.2,0,0,1-2.31-1.81l0,0c-.95-1.28-3.08-.77-3.77-2.46l.2.22a3.83,3.83,0,0,1-2.26-2.08l.16.16a5.81,5.81,0,0,1-2.23-2l.11.1a7.71,7.71,0,0,1-2.1-2.12l.11.12a5.53,5.53,0,0,1-2-2.23l.18.17c-1.54-.71-1-2.85-2.45-3.62l-.11-.19c-.42-.86-1.25-1.43-1.64-2.31l.15.17c-1.55-1.07-1.23-3-2.1-4.42a1.69,1.69,0,0,0-.45-1.57c-.84-1.42-.85-3.11-1.5-4.6-.18-1.13-.35-2.27-.53-3.41-1.53-2.54.28-5.73-1.6-8.2a1.75,1.75,0,0,0-.18-1.74c-2.17-3.11.41-7.08-1.85-10.18-.12-1.29-.23-2.58-.34-3.88C8.15,325.92,10.42,322.08,8.26,319Z"/><path class="cls-9" d="M468.18,397.18c.64,20-6.77,36.85-21.19,50.55,2.18,1.82,3.91,1.33,5.49,1.58q.67,1.37-.81,1.68l-.81-.07-.71.4c-1.89,1.48-4.5.26-6.4,1.7l-.84-.12-.75.37c-3.26,2.05-7.23-.23-10.5,1.74l-5.54.41a296.92,296.92,0,0,1-47.9-.11l-5.82-.2c-3.73-2.58-8.57.87-12.21-2.24,7.41-3.22,15.22-3.73,23.19-3.73,15.71,0,31-2.32,45.3-9.26,16.71-8.12,29.18-20.4,36.19-37.86C465.6,400.2,466.32,398.27,468.18,397.18Z"/><path class="cls-10" d="M368.2,429.2c-11.34,7.9-24.15,12.8-36.85,17.91a6.4,6.4,0,0,0-3.17,2.1,8.66,8.66,0,0,1-7.94.16l-3.72-.3c-3.86-2.28-8.45.44-12.31-1.81l-.88-.3-.92.14c-3.12-2.15-7,.13-10.15-1.66l-5.4-.5a1.28,1.28,0,0,1-.94-2c8.19-3.77,17.47-3.48,26.37-7.18-4.75-2.84-10.26-3.87-14.11-7.7a4.09,4.09,0,0,1-.67-2.78c2.45-4.23,6.23-6.41,10.94-7.18,7.08,1.45,13.65-4.15,20.83-1.55,3.92,2.49,8.36,1.56,12.61,1.93,3.55.3,8.35-.71,9.84,3.06,2.08,5.24-5.13,4.4-6.47,6.79C352.83,426.18,360.51,424.46,368.2,429.2Z"/><path class="cls-11" d="M298.18,425.18v2c-8.11,7-17.93,10.85-27.77,14.62a4.74,4.74,0,0,1-4.15-.37l-3.7-.36c-2.52-1.81-5.74,0-8.3-1.61l-3.71-.39c-3.18-2.12-7.18.37-10.35-1.83l-.81-.32-.85.15a1.29,1.29,0,0,1-.93-1.55,118,118,0,0,0,30.72-11.31c-7.48-1.56-15.1.06-22.14-3-2.65-4.27.35-7.09,3.1-9.1,6-4.37,11.85-9.59,20.27-7.81,2,5.45,6.25,6.75,11.64,6.53,3.16-.13,7.63-.62,8.62,3s-3.38,5-5.95,6.86c-.69.49-1.79.6-1.75,1.77C287.43,423.67,293.41,420.88,298.18,425.18Z"/><path class="cls-12" d="M626.37,315.26c-2.33-1.53-2.4-3.91-2.07-6.23,3-21.58,4.77-43.26,6.09-65,1.29-21.39,3.77-42.7,5.89-64,.54-5.5,3-10.74,1.66-16.58l2.36.16v37.88a59.56,59.56,0,0,1,0,21.71c-.42,3.73-1.28,7.45-.4,11.23-1.8,4.09.24,8.64-1.51,12.75a15.38,15.38,0,0,0-.46,7.35c-1.94,4,.34,8.63-1.63,12.67a8.23,8.23,0,0,0-.4,5.23c-1.72,3.42.26,7.39-1.63,10.78-.11,1.14-.22,2.28-.32,3.42-1.84,3.32.17,7.23-1.6,10.56a7.91,7.91,0,0,0-.45,5.25c-1.56,2.73.23,6.16-1.82,8.79l0-.05c-1.17,1.09-.76,3.06-2.24,4l.14-.21C627.64,315.73,627.08,315.85,626.37,315.26Z"/><path class="cls-13" d="M60.18,395.17c-1.11-2.77-4.3-4.5-4-8,6.8-2.52,13.13.4,19.45,2,28.74,7.11,58,11.59,87,17.24,3.15.62,7.79-.25,7.43,5.42-9.58,6.75-20.44,4.62-30.76,3.59a263.13,263.13,0,0,1-32.19-5.21c-2.31-.28-4.78.58-6.9-1l-.58-.41-.69.15c-2.06-1.24-4.8-.05-6.71-1.86l.08,0c-1.69-1.72-4.34-.25-6.07-1.81l-.71-.4-.8.08c-1.4-.79-3.14-.66-4.48-1.62l-.73-.43-.85.08c-1.88-1.5-4.7,0-6.42-2l.13.07c-1.21-1-2.92-.72-4.13-1.68l-.69-.44-.82.05c-1.43-.8-3.24-.65-4.54-1.78h0C61.55,396.47,60.3,396.38,60.18,395.17Z"/><path class="cls-14" d="M4.29,235.13c-.37-2.71.76-5.79-1.89-8-2.58-10.39-1-20.95-1.06-31.41-.06-13.51-1-27,.65-40.52.14-1.27.29-2.54.43-3.81,5.2.75,7.57,5.71,11.78,7.92A7.77,7.77,0,0,0,16.44,161l.06-.11c-2,18.41-3,36.77,3,54.74a9.8,9.8,0,0,1-.08,6c-2.79,3.08-6.48,5.25-8.27,9.4C10,233.62,8,236.22,4.29,235.13Z"/><path class="cls-15" d="M105.83,409.36c8.93-1.25,17.69,1.21,26.33,2.33,12.87,1.66,25.37,2,38-.51a8.65,8.65,0,0,1,6.09-2.44,24.73,24.73,0,0,1,6.69.71c9.51,3.12,20.13.67,29.25,5.75-8.88,5.18-18.94,6.16-28.76,7.94-1.92.35-3.92.18-5.26,2a4.92,4.92,0,0,1-6,.15l-.8-.34-.85.13c-2.51-1.88-5.85.12-8.35-1.79l-.8-.34-.86.13c-2.5-1.89-5.85.13-8.34-1.79l-.79-.35-.85.14c-2.51-1.9-5.89.16-8.37-1.83l-.7-.37-.76.14c-2-1.31-4.52-.28-6.49-1.59l-.93-.36-1,.09c-2.37-2.12-5.77.15-8.15-1.92l-.65-.36-.74.12c-2-1.29-4.62-.2-6.58-1.67l-.76-.37-.84.09c-1.9-1.45-4.52-.2-6.4-1.72l-.75-.37-.84.08C105.73,410.77,105.43,410.24,105.83,409.36Z"/><path class="cls-13" d="M270.21,441a127.46,127.46,0,0,1,28-13.8c7.45,1.14,12.85,7.87,21.27,7.48-10.87,5.43-21.83,8.55-33.56,8.69a8.6,8.6,0,0,1-7.66,0l-3.41-.39C273.37,442.1,271.31,442.62,270.21,441Z"/><path class="cls-16" d="M2,155.24c.2,21.69-1.43,43.37-.1,65.06.14,2.29.34,4.58.51,6.87q-.23,6-.47,11.94C-.38,237,.2,234.22.2,231.62q0-34.45,0-68.92C.2,160.09-.37,157.3,2,155.24Z"/><path class="cls-16" d="M378.22,455.31l47.9.11C425,456,423.8,457,422.63,457q-20.49.15-41,0C380.51,457,379.36,455.9,378.22,455.31Z"/><path class="cls-16" d="M642.33,125.23c3.39,3.55,1.25,8,1.88,12,0,6.2,0,12.4,0,18.59,0,2.56.55,5.29-1.72,7.33Z"/><path class="cls-16" d="M2.35,250.67C4.73,258.7,4,266.93,4,275.12.32,267.17,2.89,258.82,2.35,250.67Z"/><path class="cls-16" d="M640.34,223.14q0-10.86,0-21.71a15.27,15.27,0,0,1,1.62-1C641.61,208,644,215.77,640.34,223.14Z"/><path class="cls-16" d="M220.17,15.19c.26,3.84-1,6.18-5.4,6-4.18-.19-8.39,0-12.59,0,2.45-3,5.92-2.15,8.92-1.9C215.1,19.64,217.75,17.87,220.17,15.19Z"/><path class="cls-16" d="M314.18,5.18c1.64,0,3.13.37,4,2h-18C304.42,3.41,309.53,5.92,314.18,5.18Z"/><path class="cls-16" d="M360.19,452.87c3.95,1.37,8.41,0,12.21,2.24-6-.55-12.38,1.75-18.16-1.73Z"/><path class="cls-16" d="M336.24,451.37c4.79-.06,9.63-.47,14.15,1.74C345.67,452.57,340.6,454.81,336.24,451.37Z"/><path class="cls-16" d="M4.37,284.67a14.12,14.12,0,0,0,1.53,1c2.07,1.42,2.46,3.6,2.7,5.86,0,2.84-.07,5.65-2.59,7.63C2.58,294.67,4.7,289.54,4.37,284.67Z"/><path class="cls-16" d="M7.73,303.6q.2,6.78.37,13.56c-3.62-4.38-1.3-9.5-1.78-14.28C7.11,302.49,7.57,302.76,7.73,303.6Z"/><path class="cls-3" d="M7.73,303.6q-.72-.33-1.41-.72c-.11-1.23-.21-2.46-.31-3.69.1-2.66.19-5.32.29-8,6.33,2.93,4.66,7.3,2.12,11.83Z"/><path class="cls-16" d="M636.34,267.14c-.13-4.31-.58-8.66,1.63-12.67C637.66,258.72,639.75,263.28,636.34,267.14Z"/><path class="cls-16" d="M638.43,247.12c-.09-4.32-.88-8.72,1.51-12.75C639.7,238.65,641.69,243.19,638.43,247.12Z"/><path class="cls-16" d="M304.21,447.26c4.2-.08,8.47-.58,12.31,1.81C312.39,448.67,307.89,450.76,304.21,447.26Z"/><path class="cls-16" d="M196.12,27.18c-3.49,3.61-8,1.33-11.94,2C187.66,25.56,192.13,27.8,196.12,27.18Z"/><path class="cls-16" d="M320.24,449.37l7.94-.16,4.35,1.85C328.41,450.7,324,452.68,320.24,449.37Z"/><path class="cls-16" d="M632.39,297.13c-.2-3.63-.45-7.26,1.6-10.56C633.81,290.14,635.48,294,632.39,297.13Z"/><path class="cls-16" d="M8.26,319c2.08,3.13,1.81,6.64,1.66,10.13C7,326.12,8.58,322.38,8.26,319Z"/><path class="cls-16" d="M634.31,283.15c-.12-3.69-.54-7.43,1.63-10.78C635.78,276,637.54,280,634.31,283.15Z"/><path class="cls-16" d="M2.09,139.22Q2,144.15,2,149.09C-.62,145.76-.73,142.47,2.09,139.22Z"/><path class="cls-16" d="M431.66,455c3.26-2,6.89-1.82,10.5-1.74C439.1,456.52,435.22,454.78,431.66,455Z"/><path class="cls-16" d="M10.26,333c2.26,3.1,1.89,6.67,1.85,10.18C8.86,340.25,10.62,336.42,10.26,333Z"/><path class="cls-16" d="M292.26,445.44c3.51-.25,7-.48,10.15,1.66C299,446.78,295.24,448.42,292.26,445.44Z"/><path class="cls-16" d="M240.2,437.22c3.57-.07,7.19-.4,10.35,1.83C247,438.77,243.17,440.53,240.2,437.22Z"/><path class="cls-16" d="M237.61,435.5c.29.53.6,1,.93,1.55-3.5-.28-7.37,1.49-10.34-1.82Z"/><path class="cls-16" d="M216.2,433.22c3.58-.1,7.19-.34,10.37,1.83C223.06,434.77,219.18,436.53,216.2,433.22Z"/><path class="cls-16" d="M142.26,49.22c-2.88,3.1-6.65,1.56-10,1.91C135.06,47.85,138.87,49.64,142.26,49.22Z"/><path class="cls-16" d="M118.14,57.16c-2.77,3.38-6.59,1.5-9.93,2C111,55.86,114.8,57.68,118.14,57.16Z"/><path class="cls-16" d="M602.26,343.21a7,7,0,0,1-5.86,4.23l-.66-1.31c.67-2.81,2.35-4.19,5.31-3.78Z"/><path class="cls-16" d="M12.29,344.9c1.87,2.47,1.85,5.31,1.6,8.2C11.28,350.77,12.41,347.71,12.29,344.9Z"/><path class="cls-16" d="M588.26,355.21a7,7,0,0,1-5.86,4.23l-.66-1.32c.68-2.8,2.36-4.19,5.32-3.76Z"/><path class="cls-16" d="M576.27,365.21a6.87,6.87,0,0,1-5.91,4.19c-.2-.44-.41-.88-.62-1.32.71-2.78,2.39-4.16,5.33-3.72Z"/><path class="cls-16" d="M566.27,373.21a6.81,6.81,0,0,1-5.93,4.17c-.2-.44-.4-.89-.59-1.33.72-2.77,2.4-4.14,5.34-3.69Z"/><path class="cls-16" d="M548.28,387.22a6.84,6.84,0,0,1-5.94,4.16c-.2-.44-.4-.89-.59-1.34.72-2.76,2.4-4.14,5.35-3.68Z"/><path class="cls-16" d="M518.1,409.13c.08-.52.18-1.05.3-1.57.7-2.47,2.14-3.81,4.86-3.18l1,.84A6.2,6.2,0,0,1,518.1,409.13Z"/><path class="cls-16" d="M510,415.08a9.49,9.49,0,0,1,6-4.28C515.22,413.92,513.11,415.18,510,415.08Z"/><path class="cls-16" d="M124.19,415.21c2.89-.1,5.76-.12,8.15,1.92C129.52,416.93,126.37,418.13,124.19,415.21Z"/><path class="cls-16" d="M142.2,419.22c2.94-.08,5.88-.19,8.37,1.83C147.67,420.94,144.48,422.16,142.2,419.22Z"/><path class="cls-16" d="M152.21,421.26c2.94-.14,5.86-.23,8.34,1.79C157.66,422.94,154.49,424.16,152.21,421.26Z"/><path class="cls-16" d="M496,425.08a9.62,9.62,0,0,1,6.05-4.18C501.17,423.9,499.09,425.21,496,425.08Z"/><path class="cls-16" d="M162.21,423.26c2.94-.13,5.87-.23,8.34,1.79C167.67,424.94,164.5,426.15,162.21,423.26Z"/><path class="cls-16" d="M172.21,425.26l6-.15a1.6,1.6,0,0,0,1.6.25c.91.24,1.14.8.8,1.64C177.68,427,174.53,428.13,172.21,425.26Z"/><path class="cls-15" d="M180.59,427c-.29-.53-.56-1.08-.8-1.64,2.94-.09,6.07-1.09,8.41,1.74-1.2,1.26-2.53,1.14-3.93.4Z"/><path class="cls-16" d="M184.27,427.5l3.93-.4,4.22,2C189.63,429,186.59,430.07,184.27,427.5Z"/><path class="cls-16" d="M194.23,429.33c3-.19,6-.35,8.58,1.64C199.85,430.94,196.65,432.17,194.23,429.33Z"/><path class="cls-16" d="M206.24,431.41c2.95-.29,5.85-.34,8.36,1.63C211.72,433,208.61,434.12,206.24,431.41Z"/><path class="cls-16" d="M254.26,439.44c2.92-.25,5.8-.34,8.3,1.61C259.71,441,256.61,442.11,254.26,439.44Z"/><path class="cls-16" d="M270.21,441l4.61,2c-2.95,0-6.11,1.18-8.56-1.56Z"/><path class="cls-16" d="M278.23,443.36l7.66,0c.34.53.66,1.06,1,1.61C283.89,445,280.69,446.16,278.23,443.36Z"/><path class="cls-16" d="M230.18,11.19l-8,0C224.85,8.31,227.51,8.34,230.18,11.19Z"/><path class="cls-16" d="M294.2,9.19c-2,1.5-4,5.38-6.09.05Z"/><path class="cls-16" d="M166.11,47.2c-.72,4.5-2.79,5-6,2Z"/><path class="cls-16" d="M6.18,127.18c-.27,2.76.87,5.88-2,8C4.47,132.41,3.25,129.27,6.18,127.18Z"/><path class="cls-16" d="M630.12,311.17c.28-3-.23-6.15,1.82-8.78C631.9,305.43,633.28,308.77,630.12,311.17Z"/><path class="cls-16" d="M443.75,453c1.82-1.74,4.06-1.91,6.4-1.7C448.49,453.66,446.06,453.12,443.75,453Z"/><path class="cls-16" d="M134.25,417.4c2.36-.28,4.61-.12,6.48,1.59C138.41,419.11,136,419.69,134.25,417.4Z"/><path class="cls-16" d="M116.22,413.3c2.37-.14,4.7-.14,6.57,1.67C120.43,415.1,118,415.7,116.22,413.3Z"/><path class="cls-16" d="M108.22,411.3c2.33-.18,4.58,0,6.39,1.73C112.3,413.12,109.87,413.66,108.22,411.3Z"/><path class="cls-16" d="M105.83,409.36c.25.56.51,1.11.8,1.66-2.35.1-4.82.63-6.44-1.82Z"/><path class="cls-16" d="M92.21,407.08c2.42-.06,4.79.08,6.71,1.86C96.47,409.08,93.88,409.75,92.21,407.08Z"/><path class="cls-16" d="M86.22,405.31c2.26-.21,4.38.09,6.07,1.81C90.08,407.14,87.74,407.58,86.22,405.31Z"/><path class="cls-16" d="M72.23,401c2.35,0,4.62.27,6.41,2C76.27,403.1,73.73,403.69,72.23,401Z"/><path class="cls-16" d="M60.18,395.17l2,2c-2.23-.09-4.65.36-5.93-2.23Z"/><path class="cls-16" d="M38.18,99.18c-1.4,2.46-3.78,1.94-6,1.95C33.65,98.82,36,99.26,38.18,99.18Z"/><path class="cls-16" d="M66.22,77.2c-1.49,2.23-3.82,1.93-6,2C61.62,76.81,64,77.25,66.22,77.2Z"/><path class="cls-16" d="M74.18,77.18l-6,0Q71.21,73.35,74.18,77.18Z"/><path class="cls-16" d="M130.22,51.2c-1.49,2.24-3.83,1.92-6,2C125.64,50.82,128,51.24,130.22,51.2Z"/><path class="cls-16" d="M274.16,3.11c-2.21,0-4.53.36-6-1.91C270.34,1.25,272.69.81,274.16,3.11Z"/><path class="cls-16" d="M254.24,1.21c-1.49,2.27-3.83,1.92-6.05,2C249.66.81,252,1.25,254.24,1.21Z"/><path class="cls-16" d="M280.17,5.14c-1.65,0-3.12-.38-4-1.94C277.8,3.21,279.3,3.54,280.17,5.14Z"/><path class="cls-16" d="M288.15,9.25c-1.64-.08-3.1-.49-3.94-2.08C285.86,7.23,287.35,7.58,288.15,9.25Z"/><path class="cls-16" d="M298.26,7.22c-.91,1.57-2.41,1.94-4.07,2C295.06,7.55,296.58,7.21,298.26,7.22Z"/><path class="cls-16" d="M234.2,11.19c-1.35,2.05-2.69,2-4,0Z"/><path class="cls-16" d="M202.18,21.19c-.86,1.56-2.33,2-4,2.06C199,21.57,200.52,21.22,202.18,21.19Z"/><path class="cls-16" d="M184.18,29.18c-.88,1.57-2.35,1.95-4,2C181.06,29.56,182.54,29.21,184.18,29.18Z"/><path class="cls-16" d="M180.15,31.16c-.85,1.59-2.32,2-4,2.06C177,31.58,178.5,31.22,180.15,31.16Z"/><path class="cls-16" d="M168.25,41.2a4.48,4.48,0,0,1-2,4.06C166.22,43.57,166.56,42.05,168.25,41.2Z"/><path class="cls-16" d="M124.17,53.18c-.87,1.57-2.34,2-4,2C121,53.57,122.53,53.22,124.17,53.18Z"/><path class="cls-16" d="M106.23,59.2a4.15,4.15,0,0,1-4,1.91C103.1,59.52,104.59,59.21,106.23,59.2Z"/><path class="cls-16" d="M90.17,67.18c-.85,1.58-2.31,2-4,2.08C87,67.58,88.52,67.22,90.17,67.18Z"/><path class="cls-16" d="M60.21,79.2c-.89,1.58-2.37,2-4,2C57,79.56,58.54,79.22,60.21,79.2Z"/><path class="cls-16" d="M40.24,95.2c-.07,1.64-.47,3.12-2.06,4C38.22,97.52,38.58,96,40.24,95.2Z"/><path class="cls-16" d="M30.23,101.2c-.92,1.55-2.39,1.94-4.05,2C27.07,101.55,28.57,101.21,30.23,101.2Z"/><path class="cls-16" d="M26.17,103.17c-.86,1.58-2.33,2-4,2.06C23,103.58,24.51,103.22,26.17,103.17Z"/><path class="cls-16" d="M12.23,115.2c-.07,1.63-.48,3.1-2.07,3.94C10.23,117.5,10.59,116,12.23,115.2Z"/><path class="cls-16" d="M627.91,315.1a5.06,5.06,0,0,1,2.24-4C630.14,312.86,629.75,314.38,627.91,315.1Z"/><path class="cls-16" d="M623.72,321a4.41,4.41,0,0,1,2.56-3.58C626.1,319.07,625.64,320.54,623.72,321Z"/><path class="cls-16" d="M14.42,356.51a5.23,5.23,0,0,1,1.5,4.61C14.24,360,14.22,358.28,14.42,356.51Z"/><path class="cls-16" d="M16.37,362.68a5.43,5.43,0,0,1,2.1,4.42C16.42,366.27,16.24,364.55,16.37,362.68Z"/><path class="cls-16" d="M20.07,369.43a4.59,4.59,0,0,1,2.45,3.62C20.72,372.52,20.25,371.07,20.07,369.43Z"/><path class="cls-16" d="M30.38,380.74a4.51,4.51,0,0,1,3.77,2.46C32.41,383.11,30.89,382.7,30.38,380.74Z"/><path class="cls-16" d="M556.26,381.21c-.83,1.53-2.29,2-3.86,2.23l-.58-1.26a2.77,2.77,0,0,1,3.3-1.77Z"/><path class="cls-16" d="M36.3,384.84a4.52,4.52,0,0,1,4,2.26C38.54,387.13,37,386.83,36.3,384.84Z"/><path class="cls-16" d="M40.23,387a4.81,4.81,0,0,1,4,2.12C42.52,389.15,41,388.78,40.23,387Z"/><path class="cls-16" d="M44.19,389.15a4.52,4.52,0,0,1,4,2C46.54,391.16,45,390.8,44.19,389.15Z"/><path class="cls-16" d="M48.19,391.15a4.62,4.62,0,0,1,4.05,2C50.56,393.16,49.05,392.81,48.19,391.15Z"/><path class="cls-16" d="M52.2,393.13c1.68,0,3.21.34,4.17,1.92C54.64,395.15,53.1,394.84,52.2,393.13Z"/><path class="cls-16" d="M538.25,395.21c-.84,1.54-2.31,2-3.9,2.18-.18-.42-.36-.84-.53-1.26a2.79,2.79,0,0,1,3.31-1.72Z"/><path class="cls-16" d="M62.18,397.21A4.94,4.94,0,0,1,66.72,399C64.91,399.15,63.22,399,62.18,397.21Z"/><path class="cls-16" d="M68.23,399.38a4.12,4.12,0,0,1,4.13,1.68C70.71,401.17,69.2,400.92,68.23,399.38Z"/><path class="cls-16" d="M530.25,401.21c-.85,1.54-2.31,2-3.9,2.18-.18-.42-.35-.85-.53-1.27a2.8,2.8,0,0,1,3.31-1.71Z"/><path class="cls-16" d="M80.23,403.37A4.67,4.67,0,0,1,84.71,405C83,405.16,81.31,405.07,80.23,403.37Z"/><path class="cls-16" d="M504.25,419.22A4.41,4.41,0,0,1,508,416.7C507.5,418.67,506,419.11,504.25,419.22Z"/><path class="cls-16" d="M490.15,429.17A4.44,4.44,0,0,1,494,426.7C493.51,428.77,491.92,429.11,490.15,429.17Z"/><path class="cls-16" d="M484.26,433.22A4.37,4.37,0,0,1,488,430.8C487.47,432.69,486,433.12,484.26,433.22Z"/><path class="cls-16" d="M478.32,437.25a4.45,4.45,0,0,1,3.76-2.36C481.47,436.69,480,437.13,478.32,437.25Z"/><path class="cls-16" d="M472.27,441.23a4.61,4.61,0,0,1,3.82-2.34C475.45,440.7,474,441.13,472.27,441.23Z"/><path class="cls-16" d="M466,445a4.84,4.84,0,0,1,4.06-2.25C469.41,444.84,467.8,445.13,466,445Z"/><path class="cls-16" d="M462,447c.93-1.59,2.45-2,4.14-2.08C465.35,446.87,463.76,447.14,462,447Z"/><path class="cls-16" d="M457.55,449a5.58,5.58,0,0,1,4.57-2C461.2,449,459.44,449.13,457.55,449Z"/><path class="cls-16" d="M451.67,451l.81-1.68,3.66.05C455.07,451.06,453.42,451.16,451.67,451Z"/><path class="cls-16" d="M246.27,3.21l-2.07,1.9Z"/><path class="cls-16" d="M242.26,5.21l-2.07,1.93Z"/><path class="cls-16" d="M284.19,7.16l-2.1-1.95Z"/><path class="cls-16" d="M238.31,7.23l-2.1,2Z"/><path class="cls-16" d="M469.83,443a2.4,2.4,0,0,1,2.38-1.73C471.42,441.84,470.63,442.42,469.83,443Z"/><path class="cls-16" d="M475.91,439.05a2.38,2.38,0,0,1,2.31-1.74Z"/><path class="cls-16" d="M481.91,435.05a2.44,2.44,0,0,1,2.3-1.79Z"/><path class="cls-16" d="M487.83,431a2.55,2.55,0,0,1,2.34-1.85A2.94,2.94,0,0,1,487.83,431Z"/><path class="cls-16" d="M493.75,426.93a2.58,2.58,0,0,1,2.37-1.92A2.74,2.74,0,0,1,493.75,426.93Z"/><path class="cls-16" d="M501.91,421.05a2.5,2.5,0,0,1,2.3-1.81Z"/><path class="cls-16" d="M507.76,416.93a2.57,2.57,0,0,1,2.36-1.92A2.74,2.74,0,0,1,507.76,416.93Z"/><path class="cls-16" d="M515.83,411a2.5,2.5,0,0,1,2.32-1.9A2.9,2.9,0,0,1,515.83,411Z"/><path class="cls-16" d="M526.35,403.39l-2.07,1.83-.37-.35c.05-1.48.63-2.28,2.24-1.72Z"/><path class="cls-16" d="M532.29,399.24l-2,2-.58-.62a2.55,2.55,0,0,1,1.47-1.79Z"/><path class="cls-16" d="M534.35,397.39l-2.06,1.85L532,399a1.87,1.87,0,0,1,.12-2.16,1.64,1.64,0,0,1,2.08.34Z"/><path class="cls-16" d="M540.29,393.23l-2,2-.64-.67a2.66,2.66,0,0,1,1.53-1.74Z"/><path class="cls-16" d="M542.34,391.38l-2.05,1.85-.39-.35c0-1.48.63-2.26,2.23-1.75Z"/><path class="cls-16" d="M550.33,385.28l-2.05,1.94-.44-.43a2.24,2.24,0,0,1,1.3-2Z"/><path class="cls-16" d="M552.4,383.44l-2.07,1.84-.28-.25c-.12-1.62.42-2.44,2.18-1.8Z"/><path class="cls-16" d="M34.17,383.22A2.56,2.56,0,0,1,36.48,385Z"/><path class="cls-16" d="M558.3,379.24l-2,2-.56-.57a2.49,2.49,0,0,1,1.44-1.83Z"/><path class="cls-16" d="M28.32,378.88A2.59,2.59,0,0,1,30.57,381,2.66,2.66,0,0,1,28.32,378.88Z"/><path class="cls-16" d="M560.34,377.38l-2,1.86-.35-.3c0-1.53.56-2.3,2.19-1.81Z"/><path class="cls-16" d="M26.25,377a2.73,2.73,0,0,1,2.23,2A2.92,2.92,0,0,1,26.25,377Z"/><path class="cls-16" d="M24.26,375a2.9,2.9,0,0,1,2.1,2.12Z"/><path class="cls-16" d="M22.34,372.88a2.67,2.67,0,0,1,2,2.23A2.87,2.87,0,0,1,22.34,372.88Z"/><path class="cls-16" d="M568.31,371.25l-2,2-.49-.48a2.36,2.36,0,0,1,1.35-1.91Z"/><path class="cls-16" d="M570.36,369.4l-2.05,1.85L568,371c-.06-1.56.52-2.34,2.19-1.8Z"/><path class="cls-16" d="M18.32,366.93A2.43,2.43,0,0,1,20,369.24Z"/><path class="cls-16" d="M578.29,363.24l-2,2-.53-.53a2.46,2.46,0,0,1,1.39-1.86Z"/><path class="cls-16" d="M580.36,361.31l-2.07,1.93-.36-.32a2.14,2.14,0,0,1,1.2-2.08Z"/><path class="cls-16" d="M582.4,359.44l-2,1.87-.27-.23c-.2-1.66.37-2.45,2.13-1.85Z"/><path class="cls-16" d="M590.28,353.23l-2,2-.52-.52a2.4,2.4,0,0,1,1.37-1.87Z"/><path class="cls-16" d="M592.31,351.26l-2,2-.39-.35a2.21,2.21,0,0,1,1.21-2Z"/><path class="cls-16" d="M594.4,349.36l-2.09,1.9L592,351a2,2,0,0,1,1.15-2.14Z"/><path class="cls-16" d="M596.4,347.44l-2,1.92-.24-.2c-.37-1.78.23-2.52,2.07-1.92Z"/><path class="cls-16" d="M604.26,341.22l-2,2-.56-.58a2.46,2.46,0,0,1,1.41-1.81Z"/><path class="cls-16" d="M606.26,339.22c-.67.66-1.34,1.33-2,2l-.54-.51a2.53,2.53,0,0,1,1.36-1.95Z"/><path class="cls-16" d="M606.13,337c.65,0,1.3,0,2-.08l-1.83,2.29-.55-.47A1.17,1.17,0,0,1,606.13,337Z"/><path class="cls-16" d="M608,337.09A2.73,2.73,0,0,1,610.1,335,3,3,0,0,1,608,337.09Z"/><path class="cls-16" d="M610,335.1A2.67,2.67,0,0,1,612.1,333,3,3,0,0,1,610,335.1Z"/><path class="cls-16" d="M612,333.1A2.68,2.68,0,0,1,614.1,331,3,3,0,0,1,612,333.1Z"/><path class="cls-16" d="M614,331.1A2.69,2.69,0,0,1,616.1,329,3,3,0,0,1,614,331.1Z"/><path class="cls-16" d="M616,329.1A2.67,2.67,0,0,1,618.1,327,3,3,0,0,1,616,329.1Z"/><path class="cls-16" d="M618,327.1a2.72,2.72,0,0,1,2.1-2.16A3,3,0,0,1,618,327.1Z"/><path class="cls-16" d="M619.94,325.08a2.6,2.6,0,0,1,2-2.26A2.78,2.78,0,0,1,619.94,325.08Z"/><path class="cls-16" d="M621.81,323a2.58,2.58,0,0,1,2.14-2.22A2.58,2.58,0,0,1,621.81,323Z"/><path class="cls-16" d="M626.37,315.26a10.72,10.72,0,0,1,1.68-.37l-1.67,2.34C626.38,316.57,626.37,315.92,626.37,315.26Z"/><path class="cls-16" d="M4.16,135.18c-.64.71-1.29,1.41-1.94,2.12C2.87,136.59,3.52,135.89,4.16,135.18Z"/><path class="cls-16" d="M8.13,123.2l-1.89,2.14Z"/><path class="cls-16" d="M10.14,119.17c-.63.72-1.27,1.44-1.91,2.15C8.87,120.61,9.51,119.89,10.14,119.17Z"/><path class="cls-16" d="M14.18,113.18l-2,2Z"/><path class="cls-16" d="M16.13,111.17l-1.95,2Z"/><path class="cls-16" d="M18.13,109.17c-.65.66-1.3,1.31-2,2C16.83,110.48,17.48,109.82,18.13,109.17Z"/><path class="cls-16" d="M20.18,107.18l-2,1.95Z"/><path class="cls-16" d="M22.23,105.2l-2.05,2Z"/><path class="cls-16" d="M42.18,93.18c-.65.69-1.31,1.37-2,2C40.87,94.55,41.53,93.87,42.18,93.18Z"/><path class="cls-16" d="M44.13,91.17l-2,2Z"/><path class="cls-16" d="M46.11,89.17l-1.94,2Z"/><path class="cls-16" d="M48.15,87.17l-2,1.94Z"/><path class="cls-16" d="M50.2,85.19l-2,2Z"/><path class="cls-16" d="M52.33,83.23l-2.14,2Z"/><path class="cls-16" d="M56.21,81.19l-2,1.88Z"/><path class="cls-16" d="M80.11,75.17l-1.94,1.9Z"/><path class="cls-16" d="M82.13,73.17l-2,1.94C80.83,74.47,81.48,73.82,82.13,73.17Z"/><path class="cls-16" d="M84.2,71.19l-2,1.94Z"/><path class="cls-16" d="M86.25,69.22l-2.06,2Z"/><path class="cls-16" d="M92.33,65.23l-2.15,1.94Z"/><path class="cls-16" d="M96.28,63.21,94.2,65.1Z"/><path class="cls-16" d="M100.28,61.21l-2.07,1.86Z"/><path class="cls-16" d="M120.18,55.18l-2,2Z"/><path class="cls-16" d="M170.17,39.18l-2,2.06Z"/><path class="cls-16" d="M172.13,37.17l-1.95,2Z"/><path class="cls-16" d="M174.16,35.18l-2,1.94Z"/><path class="cls-16" d="M176.22,33.2l-2,2Z"/><path class="cls-16" d="M198.24,23.21l-2,2.13Z"/><path class="cls-16" d="M222.22,11.2c0,.66,0,1.33,0,2-.65,0-1.31.09-2,.17Z"/><path class="cls-16" d="M236.22,9.2l-2,2Z"/><path class="cls-8" d="M606.13,337a9.62,9.62,0,0,0-.43,1.74,2.51,2.51,0,0,0-2,2,2.64,2.64,0,0,0-2,1.92,10.16,10.16,0,0,0-5.46,4.61A62.91,62.91,0,0,1,592,351a91.9,91.9,0,0,1-4.26,3.7,10,10,0,0,0-5.52,4.54,2.61,2.61,0,0,0-2.13,1.85,2.46,2.46,0,0,0-2.16,1.84,2.54,2.54,0,0,0-2.2,1.76,9.45,9.45,0,0,0-5.56,4.49A2.58,2.58,0,0,0,568,371a2.62,2.62,0,0,0-2.2,1.76,9.59,9.59,0,0,0-5.64,4.4,2.52,2.52,0,0,0-2.19,1.81,2.55,2.55,0,0,0-2.25,1.7,5,5,0,0,0-3.47,2.59,2.53,2.53,0,0,0-2.18,1.8,2.6,2.6,0,0,0-2.21,1.76,9.26,9.26,0,0,0-5.71,4.34,2.58,2.58,0,0,0-2.23,1.75,2.63,2.63,0,0,0-2.29,1.66,4.81,4.81,0,0,0-3.46,2.6c-.62,0-1.24,0-1.87.1-4.09,1.3-6.93-1.58-9.94-3.3C504.62,383.82,488,372,471,360.72c-2.83-16.31-3-33-7.38-49.13-2.7-9.92-3.2-10.2-11-3.76-2.81,2.34-5.2,5.16-8.1,7.38-6.64,5.05-8.72,4-10.29-5,4.88-9.33,13.68-14,22.36-18.78a11.14,11.14,0,0,1,5.65-1.06c4.64,1.4,7.53-1.26,10.2-4.4,21.83-25.72,38.33-54.76,53.12-84.88a15.7,15.7,0,0,0,1.48-8.68,59.62,59.62,0,0,1,9.19-21.09c3.57-3.91,8.12-6.93,10.89-11.58,1.65-2.76,4.26-2.54,6.92-2.93,10.11-1.46,18.29-6.05,22.79-15.65,1.25-2.65,3.25-3.9,5.61-5.24,7.45-4.19,13.52-9.79,16-18.28.86-3,2.65-4.3,5.27-5.36,3.47-1.39,7.2-3.44,8.22-6.91,3.37-11.53,15.44-12.46,22.58-19.31,1-1,2.38.51,3.43,1.25a2.7,2.7,0,0,0,.45,1.91,9.31,9.31,0,0,1,.08,7.39l-.47,4.58c-11.58,21.9-26.4,41.69-40.23,62.12a7.07,7.07,0,0,1-4,2.7c-11-2.94-17.37,2.46-22.73,11.36-12.45,20.68-22.65,42.35-29,65.62-5,18.41-16.29,31.76-31.55,42.28a96.27,96.27,0,0,0-21,19.86c-11.7,14.88-9.15,32.6,7.3,41.87,36.09,20.31,66.58,15,86.25-23a95.59,95.59,0,0,0,7.4-19.62c4.87-19.78,7.73-39.77,6.77-60.19-.58-12.34,2.07-24.45,2.58-36.71.72-1.75,1-4.33,3.48-4,2.89.38,3.23,3.32,3.26,5.47.31,17.86,4,35.55,1.8,53.57-2,16.1-2.24,32.42-7.32,48-2.44,7.49,4.81,11,7.14,16.59C608.79,330.73,606.45,333.66,606.13,337Z"/><path class="cls-17" d="M238.18,181.18c-5.3,2.88-11.83,3.77-16.31,1.09-5.93-3.55-8.31-.46-11.29,2.87-3.42,3.82-6.34,6.3-12.57,5.14-4.2-.78-8.94,1.59-12.61-2.72-.81-.95-2.36-2.16-3.32-2-8.32,1.61-15.07-4-23-4.88-9-1.06-17.34-6-24.91-11.53-2.52-3.43-11.24-6.2-16.51-6.64-7.35-.62-15.64,1.58-21.38-5.48-1.81-2.24-4-1.85-6.36-1.21-10.3,2.8-20.51,5.74-31,.27-2.66-1.39-5.71,1.37-8.74,1.08-5.19.56-10.33-2.51-15.61-.22-.72.32-2.54-.11-2.72-.6-2-5.42-8.15-7.19-10.15-13.07-3.24-9.54-2.62-13,6.48-18.12,5.44-3.83,10.79-1.37,14.46,2,7.3,6.76,15.34,4.93,23.54,4,7.83-4.58,15.35-1.91,22.85,1,2.57,1,5.06,3.9,7.74.17,8.06-.45,16.71-3,19.78,8.8,1,3.69,5.58,3.07,8.82,1.9,5.66-2,10.19-.76,14.59,3.28,9.44,8.68,19.85,14.7,33.47,10.58,4-1.23,6.1,1,7.15,4.86.83,3,.55,6.82,4.86,8.52,4-3.81,4-9.65,6.78-14.05,4.26-6.72,7.5-7.3,12.56-1.52a10.73,10.73,0,0,0,7.68,4c1.66.13,4.17-.16,4.78.9,4.37,7.46,9.6,7.8,16.77,3.72,2.79-1.59,3.53,2.15,3.31,4.47a24.31,24.31,0,0,0,1.61,10.76A3.21,3.21,0,0,1,238.18,181.18Z"/><path class="cls-8" d="M456.18,275.19c-7.05-21.65-19.13-39.09-29.7-42.38a56.84,56.84,0,0,1-8.72,31c-1.88,3-4.35,5-5.59-.62-.13-.3-.46-.69-.37-.89,6.34-14,8.36-28.3,2.4-43a59,59,0,0,1,18.54-2.06c17.38.38,33.42-3.81,45.94-17,1.14-1.19,2-2.86,3.89-2.67,12.68,1.31,21.95-5.92,31.52-12.44,5.26,1.21,3.15,4.77,1.94,7.35-13.24,28.37-28.95,55.18-50.74,78C462.91,272.93,460.64,276.36,456.18,275.19Z"/><path class="cls-18" d="M186.23,207.1c6.1.82,11.92-1.26,17.89-1.75-.05,9,.41,18.12-7.59,24.66-10.93-2.88-17.82,2.21-24.55,10.48-8.14,10-15.69,20.71-26.33,28.45-12.77,9.28-26.45,9.32-39.37,1.53-15.94-9.61-28.46-22.82-35.1-40.77,1-5.74.17-13.3,6.86-15.36,7-2.18,9.8,5.24,13.78,9.44,5.71,6,10.12,13.21,16.48,18.68,6.84,5.89,13.7,6.91,21.83,1.91,9.12-5.6,17.36-12.27,25.68-18.89,4.2-3.34,9.1-5.48,14-7.61a5.87,5.87,0,0,1,2.88-.65C181,219,186.06,216.32,186.23,207.1Z"/><path class="cls-19" d="M90.17,85.17c4.69-6.67,10-12.24,19.07-12.19a5.06,5.06,0,0,0,3.62-1.33c5-6.39,11.54-8.55,19.39-10.39,6.4-1.51,11.93-2.88,17.85,0,5.46,2.6,10.73,2.81,16.08,0,5-3.11,10.24-5.14,16.26-3.61a5.33,5.33,0,0,1,2.35,1.76,8.49,8.49,0,0,1,1.1,2.76c.39,3.5,6.44,5.78,3.37,9.38S181.08,74,177,72.72c-5.89-1.78-10.47-2.38-11.2,5.72a3.93,3.93,0,0,1-4.26,3.47c-5.76-.11-10.1,2.79-14.26,6.29s-8,1.78-11.79-.89c-4.83-3.39-9.72-4-15.58.85,4.69,4,10.57,3.91,15.44,6,1.83.79,4.11,1.42,4.57,3.48.55,2.47-1.91,3.18-3.58,4.1-6.18,3.4-10.58,9.71-19.06,9.46-4.3-.13-5.15,5.52-6.38,9.26-1.4,4.23-3.7,6.29-8.15,4.09-5.18-2.56-11-2.38-16.42-4.1C77.63,111,77,105.76,84.68,96.56,87.61,93.05,87.85,88.71,90.17,85.17Z"/><path class="cls-20" d="M196.17,229.17c2.93-6.08,7-11.81,4.76-19.25-.71-2.37,2.4-2.83,3.19-4.57,5.83-2.35,11.67-4.65,17.47-7.09,1.89-.79,3.64-1.56,5.61-.32,5.2,3.25,11.39,3.36,17,5.31a8.63,8.63,0,0,0,2.7,1.1c15.26,4.52,17.12,12.39,5.69,23.92a13.37,13.37,0,0,1-4.59,1.27c-12.23-2.07-24.42-1.7-36.68.14-4.64.69-8,2.24-10.73,6.15-11.22,16.21-24.51,30.65-38.71,44.26-14.63,14-31.27,19-51.26,12.37-38.15-12.57-67.16-54.21-65.2-94.63,1.24-1.6,2.68-1.16,4.15-.42a6.58,6.58,0,0,1,2,2.27c2.91,9.51,5.13,19.23,8.6,28.6,8,21.68,21.57,39,41.94,50,22.59,12.19,43.84,7,60.62-12.52C173.5,253.22,183.41,239.88,196.17,229.17Z"/><path class="cls-2" d="M238.18,181.18c0-.66,0-1.32,0-2,4.38-5.86,9.87-10.78,14.11-16.77,1.72-2.42,4.84-5.92,7.23-3.81,8.08,7.1,18.74,2.17,27.22,6.84,4.32,2.38,9.15.45,13.73-.31,6.35-1,11.67-.15,15.46,6.11,4.7,7.75,12.53,7.36,20.45,7.12,6.14-.19,13.74-3.72,17.37,5.14.87,6.26,9.17,8.53,8.43,15.65-10.21,3.49-13.68,2.34-26.7-9.09-12.59,11.6-21.73,1-31.68-5.46-2,.13-2.27,2.1-3.33,3.21-5,5.26-9.22,10.85-18.34,7.65-4.71-1.66-10.5-.13-15.79-.34-9.51-.36-13.3-4-14.42-14Z"/><path class="cls-2" d="M524.19,147.19c3.64,8.51,2.2,16-4.31,22.63-4.42,4.48-8.54,9.27-13.14,13.56-3.25,3-7.68,5.16-11.9,3.41-6.31-2.61-11.64-.39-17.22,1.63-6.3,2.27-12.65,4.17-19.36,1.79-3.34-1.19-4.57,1-6.29,3.25-7.44,9.51-11.39,10.22-22.5,3.94-2.27-1.28-3.58-.89-5.14.64-3.88,3.84-9.11,5.35-13.74,7.89-2.14,1.17-5.08,2.16-6.61.71-4.8-4.53-9.84-1.79-14.92-1.55-8.8.41-16.88-2.69-24.88-5.92-.26-5.61,3.75-5.55,7.38-5.08a25.55,25.55,0,0,0,17.16-3.36,16.25,16.25,0,0,1,11.58-1.94c10.9,2.26,18.39-2,23.78-11.1a7.08,7.08,0,0,1,2.57-1.33c10.46,4.37,22-.64,32.78,4.29,5.58,2.55,8.11-3.82,9.93-8.52.76-6.26,3-8.91,9.66-5.27,7.83,4.31,15.26,2.13,22-3.18A44.06,44.06,0,0,0,514.26,152c2.43-3.19,5.16-6.22,9.91-4.78Z"/><path class="cls-21" d="M456.18,275.19c9.54-6.36,16.22-15.57,22.88-24.47a329,329,0,0,0,35.13-59.6c.92-2,2.81-4.05-.1-6,1.54-2.55,3-5.28,6.29-5.88,6.07-1.09,10.59-5.25,15.87-7.9-.92,7.93-5,14.7-8,21.86a2.06,2.06,0,0,1,.67,1.54c0,.58-.09.87-.21.88-.44,1.3-.85,2.61-1.38,3.88-15.29,30.8-31.37,61.09-56.46,85.4-2.57,2.49-4.73,5.62-8.67,6.26l-4,2c-3-4.18-5-8.65-4-14Z"/><path class="cls-22" d="M286.14,209.38c3.24-.67,6.44-1.56,9.71-2,7.56-.94,15.23-4.37,22.08,3,2.08,2.24,6.81,2,10.32,2.94,3.49,1.66,7.19.57,10.78.81,4.65.3,6.37,3.24,6.47,7.27.11,4.19-3.09,4.73-6.24,4.46-6.43-.56-10.67,2.56-14.11,7.55-2.06,3-4.3,6-8,7.12-4.78.91-9.28-.64-13.59-2.18-6.64-2.36-12.24-2.76-16.12,4.52a4.09,4.09,0,0,1-5.07,2.12c-3.22-5,1.91-9.3,1.22-14.1a22.62,22.62,0,0,0-2.33-11.36C276.85,211.06,277,211,286.14,209.38Z"/><path class="cls-23" d="M316.19,239.19c3.55-1.58,5.22-4.82,7.16-7.88,4-6.3,9.27-9.94,17.15-7.81.89.24,1.89.75,3.23-.68,0-5.07-2.28-7.89-8.12-7.66-2.55.1-5.35.63-7.36-1.77l43.86,0c-1.63,6.67-7.78,2.58-11.72,5,3.83,12.73.66,24.26-7.34,34.72a2.31,2.31,0,0,1-2.87.06c-5.06.05-9.49-2.1-14-4-8.3,2.08-13.24-5-19.95-7.32A1.92,1.92,0,0,1,316.19,239.19Z"/><path class="cls-24" d="M186.23,207.1c1.5,5.12,3,10.23-2.35,14.72-3.91-3.65-8.91-2.46-13.7-2.62-11.35,2.16-19.49-3.7-27.1-10.9.86-5.46-3-13.65,7.72-13.43,8.36,1.73,16.7,3.57,25.08,5.15C180.45,200.89,183.09,204.29,186.23,207.1Z"/><path class="cls-25" d="M286.14,209.38c-1.46,2.23-4.08,1.54-7.08,2.51,4.5,5.94,8.65,11.73,7.1,19.31-4.82,3.41-9.71.38-14.58.19-6.27-2.3-13.65.43-19.41-4.22.33-.57.62-1.15,1-1.71,7-11.12,6.72-12.53-4.18-18.88-1.67-1-3.67-1.5-4.76-3.33l22.73.46c2,0,4.29-.3,5.6,1.31C276.2,209.5,281.29,208.92,286.14,209.38Z"/><path class="cls-26" d="M74.15,175.32c6.53-3.59,12.38-1.45,18.07,2.12C99,182.15,97,188.69,95.94,195c-1.49,3.58-4.66,4.58-8,4.62-7.59.09-14.87,2.84-22.5,2.42a3.91,3.91,0,0,1-2.68-2,19.43,19.43,0,0,1-1.56-4.65C57.52,179.42,58.69,177.61,74.15,175.32Z"/><path class="cls-27" d="M50.16,199.19l-4-2a44.79,44.79,0,0,0-10.89,4.61c-2.8,1.58-5.82,3.69-8.93.34C20.72,189.43,18,176.89,28.22,165c3.69.06,7.19.06,9.07,4.39,1.59,3.66,5.74,4.24,8.91,6C52.8,182.4,54,190.38,50.16,199.19Z"/><path class="cls-28" d="M28.22,165c-5.8,12.72-4.33,25.44,0,38.17a2.41,2.41,0,0,1,.62,2.42A52.53,52.53,0,0,1,18.16,217.2c-4.7-6.43-4.83-14.23-5.75-21.57s-.11-15.18-.26-22.78c-.08-4.61,2.4-8.15,4.35-11.94A29.58,29.58,0,0,1,28.22,165Z"/><path class="cls-2" d="M90.17,85.17c1,4.07,1.83,7.53-2,11.33-9.12,9-9,11.7-2,22.69,4.48,3.85,9.87,7,10,14,.54,2.08,2.9,3.82.77,7-8.73-8.15-19.43-9.81-30.79-9,2.67-5,7.09-7.78,12-10,2.47-1.14,3.16-2.45,1.79-5.45-2.2-4.81-3.7-9.62-9.46-11.67a6,6,0,0,1-4-6.32c.36-2.93,2.85-6,4.81-5.68,7,1.32,10.66-4.24,15.94-6.28A16.58,16.58,0,0,1,90.17,85.17Z"/><path class="cls-29" d="M112.42,181.06l3.78.24c15.17,3.73,20.33,12.14,15.79,25.64-4.26,6.72-8.91,15.2-17.69,13-7.7-1.92-5.17-11.66-7-18a27.55,27.55,0,0,1-.41-2.93,25.57,25.57,0,0,1-1.09-12.49C106.41,183.1,107,178.91,112.42,181.06Z"/><path class="cls-30" d="M414.2,219.27c9.5,13.51,8.67,27-.21,40.38a36.54,36.54,0,0,0-1.82,3.52l-2,0c-4.49-1.45-7.47-4.89-10.64-8.08a5.66,5.66,0,0,1-.12-2.71c5.18-8.79,6.13-17.51-.41-26.11.39-5-9.44-2.3-6.83-9Z"/><path class="cls-17" d="M426.18,177.19c-1.62,5.22-6.16,8.51-8.73,13.12a3.83,3.83,0,0,1-5,1.95c-4.81-1.91-9.82-.77-14.73-1.07-3.37-.2-6.45.26-9.29,2.54-5,4.05-11.05,4.44-16.94,2.77-3.53-1-5.72-.63-7.27,2.67h-2c-2.3-5.4-9.48-7.31-10-14,6.81-5,14-4.9,21.71-2.2,7.43,2.6,15.1,6.19,21.9-1.84,1.61-1.9,4.48-1.39,6.56-.23,6.87,3.86,11.7,2.45,15.49-4.64C420.79,170.76,423.88,172.43,426.18,177.19Z"/><path class="cls-2" d="M50.18,157.2c7-5.45,7-5.51,13.68-1.54,4.07,2.43,8.39,1.73,12.58,1.05,3.88-.63,7.62-2.12,11.46-3.12,4.24-1.11,7.65-1.21,11.14,3,4.68,5.66,11.67,5.3,18.46,3.86,5.42-1.15,10.57-3.94,17.19-3-.86,3.95-4.07,7.91-.51,11.68-6.53.65-12.18-2.52-18.08-4.39a27.46,27.46,0,0,0-13.53-.88c-9.33,1.64-18.73,3.35-27.77-1.94-2-1.19-5.13-.74-7.74-.76C61.1,161.19,55.4,160.27,50.18,157.2Z"/><path class="cls-22" d="M392.18,217.3c.15,1.81.76,2.78,2.93,2.55,3.78-.39,4.83,2.17,5.07,5.33-7.28,4.87-15.48,2.26-23.23,2.54-7.58.27-12.57,1.91-13.67,10.56a26.3,26.3,0,0,1-6.85,14.19c-.42.31-.85.6-1.28.9a3,3,0,0,1-3-.19,6.49,6.49,0,0,1,.32-2c5.73-11.08,10-22.37,4.64-34.65,5.17-3.08,10.82.72,15-3.16C379.4,211.61,385.7,214.91,392.18,217.3Z"/><path class="cls-17" d="M196.18,39.17a8.94,8.94,0,0,0,1.31,1.48c6.94,4.9,7.11,5.05,12.95-.8,6.83-6.84,14.86-9.71,24.4-8.56a5,5,0,0,1,3.34,1.91c2.76,4.58-.08,9.5.89,14.2-.53,2.33-2.19,3.17-4.36,3.38a9.65,9.65,0,0,1-2.86-.49c-7.45-4.24-13.84-5.43-23.47-2.77-9.34,2.57-15.07,10.33-24.19,11.67h0c-3.95-10.32,3.41-15,10-20Z"/><path class="cls-2" d="M66.18,131.18c-.72,1.51-1.8,3.45-3.45,2.83-3.56-1.35-6.44-.11-9.25,1.53-3,1.77-4.4.3-6.37-2-4.91-5.64-11.23-8.73-18.93-8.39a19.41,19.41,0,0,1,7.47-7.67c2.18-1.29,4.54-3,7.2-.65a3.69,3.69,0,0,0,3.59,1.06c8.06-2.4,11.38,2.79,13.86,8.92C61.44,129.68,63.26,131.05,66.18,131.18Z"/><path class="cls-31" d="M50.16,199.19c.15-8.2-1.64-16.08-4-23.86h28a5.51,5.51,0,0,1-3.41,1.81c-8.55,1.28-10,2.93-8.21,11.3.92,4.25,1.87,8.39,1.64,12.75-5.29,3.79-10,3.48-14-2Z"/><path class="cls-32" d="M130.2,205.16c3-9.06-.26-16.4-9.8-21.58-1.39-.76-3.2-.76-4.2-2.29a49.22,49.22,0,0,1,13.57,1.21c3.61.69,6.7,1.21,8.69,5.07,2.45,4.74,8.66,4.07,12.33,7.3-2.3.46-4.58,1.19-4.46,4,.16,3.65-1.83,6.76-2.14,10.26l-1.26.57C138.42,209,133.88,208.26,130.2,205.16Z"/><path class="cls-33" d="M112.42,181.06c-2.61.4-4.2,1.7-4.2,4.56,0,4.62-.65,9.32,1.93,13.57-4,3.22-8.3,3-12.81,1.51-2.53-1-2.28-3.58-3.15-5.53-.52-5.92,1.42-12.12-2-17.73C98.79,179.57,106,178.17,112.42,181.06Z"/><path class="cls-2" d="M194.18,39.19c-4.35,6.15-10,11.65-10,20-6.18-1-11.85,2.55-18,2,2.11-3.31,2.45-8.5,8.66-7.25,2.21.45,2.75-2.27,3.93-3.75C182.85,45.08,187.05,40.06,194.18,39.19Z"/><path class="cls-16" d="M610.14,43.19c2.34,4.24,5.29,7.1,10.79,6.09,2.46-.46,5.33-.65,7.24,1.88-3.54,0-7.08.05-10.61,0C611.13,51,611.13,50.93,610.14,43.19Z"/><path class="cls-16" d="M640.22,63.2c3.12,4.63,3,9.28.06,13.94Z"/><path class="cls-16" d="M586.19,35.17c4-3,8-3,12,0l-8,.09Z"/><path class="cls-16" d="M600.11,35.22c1.69,0,3.21.33,4.06,2C602.52,37.17,601,36.77,600.11,35.22Z"/><path class="cls-16" d="M632.23,53.16c1.65.07,3.14.43,3.91,2.12C634.5,55.19,633.06,54.74,632.23,53.16Z"/><path class="cls-16" d="M638.09,57.23c1.73.82,2.06,2.35,2,4.05C638.59,60.37,638.17,58.88,638.09,57.23Z"/><path class="cls-28" d="M16.44,161a2.6,2.6,0,0,1-2.24-1.67A2.3,2.3,0,0,1,16.44,161Z"/><path class="cls-16" d="M640.16,79.09l-1.89,2.07Z"/><path class="cls-16" d="M636.11,55.23l2,2Z"/><path class="cls-16" d="M630,51.23l2.15,1.91Z"/><path class="cls-16" d="M608.18,41.19l2,2Z"/><path class="cls-16" d="M606.18,39.18l2,2Z"/><path class="cls-16" d="M604.14,37.2l2,2Z"/><path class="cls-34" d="M238.43,47.31c-5-4.62-.56-9.4-.25-14.11l2,0a12.54,12.54,0,0,0,6-4l2-2c12,.34,24-5.76,36,0,4.64,6.46-.91,12.54-1.51,19.7,6.75-2,9.68-8.29,15.5-9.72,5.74-3.83,11.06-1.92,15.53,2,4.21,3.66,7,3.37,12.1.72,6.85-3.55,14.63-5.59,21.92-8.58,3.56-1.46,9.06-1.84,11.53.86,5.8,6.34,11.11,4,16.93,1h6c6.94,5.38,4.36,10.52.61,14.66,6.32-6.29,17.12-5.61,25.39-10.66l2,0c5.28,4.53,4.62,9.37.78,14.38-10.41,1-17,11.42-27.95,11.22a39.4,39.4,0,0,0-7.57-1.11,37.08,37.08,0,0,1-6.3-.91c-9-2.3-17.81-.32-26.5,1.59a58.14,58.14,0,0,1-20.69.92c-2.08-.38-4-1.21-6.13-1.56-3.92-1-7.87-2-11.84-2.93-8.54-3.25-17.44-5.37-26.2-7.9-8-2.71-16.16-4.23-24.52-1.34C248.19,49.59,242.89,51.18,238.43,47.31Z"/><path class="cls-17" d="M524.17,147.18c-3.49,1.67-6.57,3.49-8.79,7.1a26.39,26.39,0,0,1-13.2,10.9c-5.82-10.94-5.42-12.45,5.89-16.84,4-1.56,4.92-4,4-7.7-.77-3.23-2-6.33-2.9-9.52-1.64-5.77-1.21-10.56,5.62-12.61,2.62-.78,5.47-2.26,5.62-5.05.37-7,1.54-13.38,6.12-19.2,1.89-2.41-.33-5.42-3.95-4.3-8.38,2.58-9.66-2.42-10-8.77.26-3.68.29-7.52,5.29-8.09,7.91,9.73,17.36,11.66,28.48,5.75a14.68,14.68,0,0,1,8.68-1.61,22.59,22.59,0,0,1,3.77.94,1.16,1.16,0,0,1,.61.72c2.29,8,11.23,11,14.72,19.49-7.42-.78-11.42-6.13-16.74-8.77-5.74-2.86-10.64-3.11-15.49,1.26-.22.2-.26.6-.38.91,10.46,9.73,10.7,11.78,3.62,25.45-2.47,4.76-4.8,9.08-11.16,5-1.52-1-3.2-.46-4.69.43-4.43,2.66-8.6,6-15.5,4.33Z"/><path class="cls-17" d="M410.1,51.49c1.75-4.76,2.18-9.52.07-14.29,4-2.76,6.85-1,9.12,2.45,1.41,2.12,2.6,3.19,5.61,2.25,13.21-4.13,21-1.27,28.68,10.44,7.79-9.43,18.5-7,28.63-7.09a6.18,6.18,0,0,1,5.27,2.4c4.35,6.19,10.73,5.7,17.08,5.54,4-.1,8-.21,11.6,2,6.59,4,7.35,10.09,1.9,16.05a13.1,13.1,0,0,1-4.07,2,17.45,17.45,0,0,1-7.37-.27c-6.9-1.62-14.58-.66-17.57-10.55-1.37-4.52-8.7-6.38-13.22-9.57-3.83-2.68-5.56,1.4-6.66,4.63-1.15,3.38,1.31,7.25-1.36,10.45-9.29-.75-18,2.28-26.93,4-4.55-2.47-5.23-7.38-7.14-11.51-3.87-8.38-11.88-11.15-20.93-7.14C411.15,53.83,410.13,53.4,410.1,51.49Z"/><path class="cls-17" d="M376.18,33.18c-.91,2.35-3,3.37-5,4.59A57.36,57.36,0,0,0,365.79,42c-7-11.61-17.34-12.42-27.14-2.43-1,1-2.56,3.58-3.81,1.86-4.92-6.75-7-.28-9.67,1.93-5.42,4.51-5.43,4.79-10.69-.77-4.55-4.83-10.14-5.8-16.31-5.38,4.61-10.83,14.49-9.28,23.35-9.68,3.2-.14,5,3.08,7.08,5.11,2.81,2.71,5.12,2.63,7.24-.75,1.4-2.24,2.84-4.47,4.36-6.64,4.12-5.91,4-5.47,11.5-3,5.57,1.85,11.74,1.27,17.48,3C373.33,26.49,376.73,28,376.18,33.18Z"/><path class="cls-35" d="M514.1,71a4.92,4.92,0,0,1,4,.21,3.6,3.6,0,0,0-.14,1.87,15.46,15.46,0,0,0-3.6,8.13c-5.78,19.08-19.27,31.42-36.59,39.37-18.38,8.42-37.49,15.26-53.4,28.3a8.71,8.71,0,0,1-9.35,1.43,3.21,3.21,0,0,1-1.53-2.31c1.29-4.79,6.17-5.41,9.3-8.07a67.46,67.46,0,0,1,6.58-4.72c4.38-2.13,8.21-5.2,12.54-7.43,2.8-1.37,5.61-2.74,8.34-4.26,5.6-3.05,11.72-4.92,17.48-7.63,2.54-1,5.18-1.73,7.63-2.94,17.42-8.56,28.14-23.31,36.92-39.87A26.28,26.28,0,0,0,514.1,71Z"/><path class="cls-17" d="M284.18,27.19c-7.46.35-15.19-1.43-22.14,2.94-1.59,1-3.25.44-4.53-.74-2.72-2.52-6-2.21-9.33-2.2,3.43-6.23,9.18-9,15.69-10.93,6-1.75,10.93,2.1,16.5,2.68C283.52,19.27,284.51,23.63,284.18,27.19Z"/><path class="cls-17" d="M408.18,37.18c-4.33,3.36-8.12,6.66-14.54,7.08-5,.33-9.24,5.9-16.62,7,2.72-3.6,6.31-5.09,7-8.56a13.75,13.75,0,0,0-1.8-9.56c7-2.12,8.43-1.38,14,7.21C400.5,40.58,402.76,32.94,408.18,37.18Z"/><path class="cls-16" d="M558.19,35.16c3.54-3.58,8-1.38,12-1.95C566.67,36.66,562.23,34.63,558.19,35.16Z"/><path class="cls-16" d="M544.21,33.18c3.09,2,6.52,2.18,10,2C548.05,38.25,547,38,544.21,33.18Z"/><path class="cls-17" d="M246.18,29.18c-.28,3.92-1.63,6.22-6,4A6.06,6.06,0,0,1,246.18,29.18Z"/><path class="cls-16" d="M340.2,9.14q4-4.17,8,0Z"/><path class="cls-16" d="M364.19,15.18l8,0C369.54,18,366.86,18.05,364.19,15.18Z"/><path class="cls-16" d="M320.15,7.2c1.64,0,3.13.33,4,1.92C322.51,9.13,321.05,8.76,320.15,7.2Z"/><path class="cls-16" d="M326.14,9.2c1.67,0,3.18.36,4,2C328.53,11.16,327,10.77,326.14,9.2Z"/><path class="cls-16" d="M334.19,11.2c.86-1.64,2.37-2,4-2C337.33,10.78,335.84,11.15,334.19,11.2Z"/><path class="cls-16" d="M352.11,9.22c1.67,0,3.18.32,4.07,1.95C354.52,11.15,353,10.79,352.11,9.22Z"/><path class="cls-16" d="M330.17,11.19h4C332.86,13.22,331.51,13.21,330.17,11.19Z"/><path class="cls-16" d="M382.09,15.23c1.67,0,3.18.29,4.08,1.91C384.51,17.15,383,16.78,382.09,15.23Z"/><path class="cls-16" d="M388.13,17.21c1.66,0,3.17.33,4.05,1.95C390.52,19.15,389,18.78,388.13,17.21Z"/><path class="cls-16" d="M578.14,33.2c1.67,0,3.17.35,4,2C580.54,35.14,579.05,34.77,578.14,33.2Z"/><path class="cls-16" d="M582.18,35.18l2.08,0C583.55,36.53,582.85,36.58,582.18,35.18Z"/><path class="cls-16" d="M398.12,21.2c.68.64,1.36,1.28,2.05,1.91C399.48,22.48,398.8,21.84,398.12,21.2Z"/><path class="cls-16" d="M394.08,19.22l2.09,1.91Z"/><path class="cls-16" d="M362.08,13.22l2.1,2Z"/><path class="cls-16" d="M358.07,11.22l2.1,1.92Z"/><path class="cls-36" d="M400.18,253.18v2A22.09,22.09,0,0,1,388,268.75c-8,3.33-16.36,5.47-24.81,7.48-19.94,4.75-34.11,18.88-49,31.57-23.33,19.82-45,41.53-68.57,61.09A138.42,138.42,0,0,1,181.14,399c-4.15.76-8.68.7-12.16,4,1,4.09,8.12,2.64,7.19,8.2h-6c-4.84-3.41-10.75-2.87-16.09-3.72-28.41-4.52-56.6-10-84.51-16.93-4.45-1.1-9.39-.51-13.41-3.35-9.52-11.5-16-24.95-23.78-37.54-9.23-14.9-16.08-31-24-46.6-.9-3.91,1.34-8.38-2.11-11.84-.13-1.83-.26-3.67-.4-5.5.23-2.86.46-5.72.75-9.35,8.15,9.63,12.11,20.88,18.29,30.78,3.25,5.19,8.05,9.61,9.25,16,15.46,23.91,32.4,46.31,59.26,58.77,13.22,6.14,27,6.53,41,4.22,33.59-5.55,62.46-22.39,91.24-39.16,31.91-18.58,63.41-37.87,92.51-60.76,6.5-5.11,13.37-9.92,18-17a43.72,43.72,0,0,1,12-12c2.33-.85,3.95-2.75,6-4h0C369.52,248.4,384.85,247.89,400.18,253.18Z"/><path class="cls-37" d="M316.19,241.18c5.38-.37,9.49,2.74,13.8,5.16,2,1.13,3.66,2.89,6.19,2.85-3.38,6.51-9.87,9.77-15.25,14.08-9.82,7.86-20.17,15.06-30.11,22.79-3,2.33-5.68,2.95-9.05,1.27-8.6-4.3-15.87-.78-21.6,5.14-8.52,8.81-18.77,15-29.42,20.25-15.62,7.76-27.55,19.46-38.57,32.46-4.57,7.51-10.93,11.47-20,10-15.33,3.63-30.66,1.51-46,0a1.89,1.89,0,0,1,.24-2.7,7.21,7.21,0,0,1,4.65-1.55c24.66,2.09,41.85-12.44,59.23-26.54a579.88,579.88,0,0,1,49.33-37.11c23.71-13.06,48.79-23.88,68.9-42.75C310.62,242.56,312.66,240.05,316.19,241.18Z"/><path class="cls-37" d="M126.18,353.19v2c-4.32.05-8.64,0-13,.22-2,.11-4,1.07-4.07,3.52-.1,2.08,1.81,2.78,3.27,3.22,6.34,1.88,12.72,3.63,19.5,3.09,3.28-.26,6.6-.05,11.66-.05-6.59,5.35-13.23,4.88-19.22,5.89-16.24,2.73-29-4.91-40.34-15.15A210.94,210.94,0,0,1,43.5,307.21c-2.89-4.84-7.56-8.46-9.32-14,6.42-8.14,11.32-.85,16.7,1.62,12.11,12,22.55,25.76,36.93,35.37a19.46,19.46,0,0,1,1.94,1.39c1,1.25,2.22,1.29,3.58.54a3,3,0,0,1,3.39,2.14c.71.69-2,1.28,0,2a18.32,18.32,0,0,1,2.17,1,64.4,64.4,0,0,1,6.71,3.46C111.16,347,120.73,346.69,126.18,353.19Z"/><path class="cls-20" d="M336.19,269.18c2.37,3.21-1.2,4-2.46,5.34-15,16.22-33.17,28.58-51.53,40.48-19.49,12.63-39.38,24.68-59.43,36.39-24.39,14.24-49,28-76.83,35-20.82,5.19-41.41,4.37-60-5.87-23.18-12.78-39.58-32.85-51.65-56.36a2.9,2.9,0,0,1-.11-1c6.51,5.77,10.47,13.56,16,20.09,12.34,14.49,25.67,27.71,43,36.55,12.91,6.61,26.23,6.9,39.75,4,28.2-6,53.77-18.49,79-32.21,30.7-16.72,59.89-35.7,88.57-55.53C312.72,287.59,324.31,278.17,336.19,269.18Z"/><path class="cls-36" d="M50.19,297.18c-5-2.76-9.2-8.55-16-4-11.09-18.76-20.16-38.57-29.89-58,3.47-1.77,5.21-4.62,6.4-8.33,1-3.24,3.33-5.93,7.51-3.63l1,.87a29.39,29.39,0,0,1,2.32,4.83,27.62,27.62,0,0,1,1,2.6,254,254,0,0,0,24.81,54.09C49.49,289,53.28,292.35,50.19,297.18Z"/><path class="cls-38" d="M172.18,355.18c7.45-1.78,13.74-5.87,20-10,11.36-3.25,20.4-11,30.87-15.93,1.12-.53,1.92-1.87,4-.69-4.15,9.16-10,16.79-19,21.69-15.07,8.16-31.35,12.47-48.21,14.83-1.84.26-3.9.63-6.33-1C159.44,360,166.75,359.41,172.18,355.18Z"/><path class="cls-29" d="M354.18,253.19c-1.77,1.67-1.78,6-6,4,.67-1.33,1.34-2.67,2-4h4Z"/><path class="cls-3" d="M388.18,267.18c5.34-2.66,6.44-9.56,12-12,5.05.53,7.54,4.25,10,8C405.45,270.89,400,278,392,282.6a10.73,10.73,0,0,0-2.21,2c-17.25,18-36.06,34.4-54.07,51.6C306.65,364,275,388.65,238.33,406c-8.33,3.94-16.64,8.35-26.12,9.21-10.2.09-20.39.1-30-4-.06-5,4.31-4.34,7.1-5.21,5.07-1.59,10.2-3.05,15.32-4.47,7.91-2.2,14.43-5.39,18.77-13.25,3.95-7.15,11.62-10.79,19.11-13.8a67.73,67.73,0,0,0,32-26A60.23,60.23,0,0,1,306.31,324a63,63,0,0,0,29.88-20.81c2.07-2.64,4.59-5.57,8-5.59,10.66-.05,16.54-7.45,23.11-14C373.58,277.3,379.41,270.35,388.18,267.18Z"/><path class="cls-3" d="M454.18,279.16c2.19,4.42,4.84,8.71,4,14-8.41,3.87-15.13,10-22,16-1.85,2.73-3.29,5.69-5.7,8.1C399.7,348,369.09,379,333.9,404.82c-6.68,4.35-12.37,10.16-19.66,13.66-1.19.55-2.49.79-3.72,1.22a2.08,2.08,0,0,1-2.31-.5l-10,6h-23c2.45-7.26,10.54-5.58,13.43-12-3.45,0-6.51.08-9.57,0a38,38,0,0,1-7.79-.71c-1.71-.42-4.31-1.06-4-3.51.18-1.36,1.9-2.51,2.92-3.76.47-1.9,1.89-2.83,3.57-3.49,2.08-.62,4.22-1,6.25-1.83a21.82,21.82,0,0,1,2.6-.83,353.26,353.26,0,0,0,34.09-11.13c13.06-4.79,22.37-14,28.91-26.12,3.63-6.73,6.15-14,10.07-20.59,5.17-8.66,11.18-10.58,18.83-4.52,5.39,4.28,7.92,1.91,11.47-1.64,9.85-9.88,19.45-20,29.89-29.29,4.09-4.44,7.69-9.56,14.32-10.55C437.56,288.92,446.13,284.43,454.18,279.16Z"/><path class="cls-36" d="M274.18,403.19l-4,2c-10,2.35-19.94,4.74-24,16-8.23.27-16-2.9-24.44-3,3.94-3.89,9.24-4.85,13.87-6.34,23.14-7.42,43.26-20,61.9-35.09,19-15.44,37.81-31.15,56.11-47.52,19.12-17.11,36.48-35.91,55-53.52,5.74-5.44,5.39-5.2,9.72,1.61,3.82,6,4.7,14,11.79,17.88-4.17,3.83-9.14,6.85-12,12-2.74,1.94-5.22.64-7.22-1.06-7.44-6.33-14.13-3.63-20.62,1.47-18.85,14.78-36.21,31.11-50,50.85-15,21.53-34.89,35.87-60.2,42.74C278.55,403,275.77,401.28,274.18,403.19Z"/><path class="cls-3" d="M368.2,429.2H342.15c1.06-4.87,6.61-2.81,8.83-7.07-5.09-1.81-10.2-.59-15.11-.94-3.14-.23-7,.94-7.69-4,2.39-3.82,6.58-4.08,10.33-5.15,23.49-6.7,45.48-15.87,61.8-35.29,3.41-4.07,6.81-9.32,13.58-8.63,4.13,2.15,6.66,5.09,5.41,9.65,9.26-7.74,19.13-15.79,31.55-19.85,7.27-1.18,14.87-4.12,20.36,3.92,2.28,9.1,1.69,10.43-5,11.37-5.63.15-11.64-1.25-16,3.94-4.82.84-8.19,4.19-11.86,7a679.82,679.82,0,0,1-60,40.94C375.18,426.89,372,428.94,368.2,429.2Z"/><path class="cls-36" d="M382.65,429.13c23.64-12.78,43.58-30.77,64.87-45.79,3.19,2.32,2.77,4.47,2.53,6.34-2.32,17.56-14.62,31.23-32,35.51A152.38,152.38,0,0,1,399.59,429C394,429.64,388.3,429.13,382.65,429.13Z"/><path class="cls-9" d="M608.17,327.18c-14.55-10-12.92-6.05-8.32-23.64,2.43-9.28,4.43-18.61,4.35-28.28-.1-10.92,3.12-21.61,2-32.63-1.22-12.16-2.88-24.32-2.08-36.6a.85.85,0,0,0-.53-.65c-1.4-.17-1.21,1-1.45,1.81-6.09-1.42-4.66-6.58-4.6-10.41a87.58,87.58,0,0,0-4.22-28.41,4.11,4.11,0,0,1,.83-3.19Q614.12,135.3,634,105.39c1.12-1.68,2.15-3.29,4-4.18a34.85,34.85,0,0,1-2.27,16.57c-6.36,17.14-9.22,35-11.69,53.05-3.05,22.24-4.17,44.64-6.32,66.94-2.65,27.5-2.93,55.35-9.35,82.45C607.88,322.43,608.23,324.85,608.17,327.18Z"/><path class="cls-16" d="M640.37,101.24c3.64,5.1,1.09,10.85,1.7,16.27C639.82,112.26,640.4,106.72,640.37,101.24Z"/><path class="cls-16" d="M638.5,96.63c0-2.46,0-4.93-.08-7.39,2.7,2.38,1.54,5.5,1.6,8.38C639.52,97.28,639,97,638.5,96.63Z"/><path class="cls-21" d="M466.19,373.21c2.61-.3,4-1.72,3.95-4.4s0-5.08,0-7.63a1.23,1.23,0,0,1,2,0c4.13.35,7.64,2.46,10.87,4.61,16.19,10.83,32.25,21.85,49.21,31.46-.1.58-.21,1.15-.33,1.72l-2.28,1.64a4.82,4.82,0,0,0-3.52,2.55,2.61,2.61,0,0,0-2.24,1.73l-5.51,2.68c-.32-.58-.49-1.39-1-1.69-14.46-9.05-27.65-20-42.51-28.42C472.08,375.83,468.45,375.93,466.19,373.21Z"/><path class="cls-36" d="M414.18,369.16c-2.52,0-4.34,1.33-6,3-2.78,2.83-5.86,5.41-8.37,8.45-11.74,14.21-27.3,22.28-44.2,28.56a254,254,0,0,1-27.42,8q-6.48,1.71-13,3.4c-2.56.67-5.09,1.16-7-1.39l2,0a26.83,26.83,0,0,0,2-2c7.57-3.38,13.17-9.58,20-14,15.41-7,28.56-17.45,41.49-28.12,19-15.68,36-33.57,54.19-50.12,9.44-8.58,11.11-8.54,15.56,3.14,2.55,6.68,6.51,13.31,3.37,21C430.7,347.27,424.37,361.35,414.18,369.16Z"/><path class="cls-3" d="M96.17,335.2c-.85-1.63-2.34-2-4-2a1.31,1.31,0,0,1-2,0h0C59.47,308.84,40.25,276.31,25,241.05c-1.69-3.9-3-8-4.76-11.89v0c-1.79-1.62-.12-4.42-2-6h0c0-2,0-4,0-6,1-5.95,5.71-8.81,10-12,3.2,1.86,3.88,5.25,5,8.33a301.18,301.18,0,0,0,38.39,72.94A36,36,0,0,0,77,293.59c7.34,7.4,11,18.91,25.34,17.87,10.41-.76,20.75,2.29,31.37-2.12,23.81-9.88,46.89-20.59,66.47-37.95,8.47-7.51,18.65-12.05,30.15-6,3.7,1.93,4.76-1.19,6.63-2.45,13.66-9.21,24.63-21.29,35.24-33.72,4.88-.87,9.18,2.26,14,2,.84,5.28-3.71,9-4,14l-.27,1.49c-5.69,8.33-13,15.34-20.7,21.52-25,20-49.95,40.1-78,55.75-22.9,12.78-46.62,23.33-74,18.95a17.91,17.91,0,0,1-3.86-2.06c-3-1.4-6.15-2.27-9.13-3.66v0a1.26,1.26,0,0,1-.46-1.32C95.88,335.42,96,335.2,96.17,335.2Z"/><path class="cls-37" d="M388.18,267.18c-9.83,8-18.28,17.39-27.19,26.31-3.71,3.71-7.39,6.59-13,5.72-4.12-.63-7.24,1.56-9.34,4.66-7.58,11.24-18.49,18.21-30.85,22.2-14.45,4.66-24.74,13.68-32.91,25.87a63.72,63.72,0,0,1-30.61,24.32c-7.47,2.92-16.15,6.16-19.1,13.57-4,10.15-12.47,11.11-20.48,14.26-7.36,2.9-15.58,2.93-22.51,7.09h-6c-2.24-2.8-5.32-3.78-8.74-4.08-1.7-.16-3.57-.65-3.86-2.55-.37-2.31,1.57-3.72,3.3-4.44a39.38,39.38,0,0,1,9.49-2.83c30.75-4.27,56.17-18.7,78.59-39.68,17.17-16.08,35.38-31,52.62-47.05a291.06,291.06,0,0,1,32.34-26.35C348.18,278.47,357,274,367.23,273,374.49,272.2,380.82,267.75,388.18,267.18Z"/><path class="cls-21" d="M594.18,165.18v2c-1.2,4.88-3.89,8.92-7.06,12.71a18.47,18.47,0,0,0-3.56,4c-12.4,20.24-22.32,41.59-28.8,64.44-5.59,19.72-17.24,34.88-33.68,46.78-8.86,6.42-17.63,13.08-23.09,23-2.93,8.44.51,14,7.88,18a71.86,71.86,0,0,0,25.41,8.21c16,2,26.36-6.86,34.63-18.9,6.64-9.68,10.45-20.63,13.12-32,.76-3.22,0-7.72,5.09-8.57,4,7,4.83,15.1,8,22.36-4.3,15.65-11.46,29.69-23.7,40.68S542.12,363.69,525.39,360C515,357.72,505,354.9,495.54,349.62c-18.79-10.54-19.87-32.48-7.61-46.81,6.22-7.26,13-14.14,21.08-19.62,14.36-9.69,25.23-22,30.11-39.37,4.65-16.58,10.36-32.93,18.84-48.08,4.7-8.39,9.3-16.85,14.51-24.91C578.51,161.49,584.12,160.3,594.18,165.18Z"/><path class="cls-29" d="M446.18,349.19c-.15-10.47-4.34-19.64-8.72-28.79a9.46,9.46,0,0,0-2.31,1c-13.49,12.73-27.15,25.31-40.38,38.31a294.45,294.45,0,0,1-58.36,44.15c-1.69,1-3,1.07-4.21-.63,17.18-12.51,32.7-26.91,48.51-41.08,17.86-16,34.18-33.48,51.52-49.95a43,43,0,0,1,3.94-3,18.65,18.65,0,0,0,0,2c.22,1.84-.63,4.23,1.86,5.07,1.85.62,3.05-1,4.13-2.12a107.69,107.69,0,0,1,20.39-17c6,21.37,9.94,42.36,9.62,64.05h-2a23.52,23.52,0,0,0-20,0C445.58,358.27,444.6,354.16,446.18,349.19Z"/><path class="cls-6" d="M586.17,179.21c2.63-4,3.13-9.49,8-12,5.21,6.1,5.46,13.55,6.08,21,.53,6.33-2,13,1.91,19-1.53,20.11-1.51,40.28-2.37,60.39-.57,13.31-2.67,26.87-7.63,39.6-7.09-5.73-8-13.69-8-22-3.27-3.2-2.7-7.25-2.5-11.22,1.23-25.46,3.69-50.87,1.67-76.42C582.86,191.39,582.24,184.85,586.17,179.21Z"/><path class="cls-39" d="M528.17,195.18c0-.66,0-1.32,0-2,2.94,2.18,1.62,4.6.42,7C514.37,229,499.3,257.3,478.45,282.07c-3.6,4.27-6.1,9.45-11.68,11.83-3.12,1.33-4.3.25-4.6-2.74,1.27-2.83,3.66-4.73,5.84-6.75,17.74-16.47,30.94-36.34,43.07-57,5.71-9.73,11.79-19.28,15.13-30.2C526.88,196.53,527.54,195.86,528.17,195.18Z"/><path class="cls-34" d="M414.17,149.07a8.84,8.84,0,0,0,8.33-1.81c13.42-11.22,29-18.91,45.18-24.82,19.76-7.2,34.19-19.92,44.37-38a37.56,37.56,0,0,1,2.27-3.23c3.08,1.82.76,4.82,1.48,7.14,2.16,1.4,3.78-.2,5.6-.79,2.6-.86,5.19-3.9,8-.65,1.67,1.94,1.3,11.53-.85,12.14-7.39,2.1-4.51,7.24-4.4,11.76.15,6.42-1.67,8.6-8.19,10.32-6.13,1.62-6.46,2-4.78,7.87,1.18,4.13,2.83,8.13,4,12.26,2,6.92.43,9.17-6.48,9.88-1.65.16-3.32,0-5,.19-2.42.26-3.73,1.84-3,4.08a26.63,26.63,0,0,1,1.46,9.75c-4.61,2.36-7.23,8.11-14.28,6.48-5.1-1.18-10.45-.92-14.08-5.43-2.44,2.32-1.3,4.77-1.65,7-9.39,2.45-18.51,5.15-28.58,1.82-5.5-1.82-11.78-.11-17.41,2.18h0c-1.39-.87-2.79-1.73-4.23-2.61-2.74.4-1.88,3.07-2.72,4.62-4.2,7.8-7.94,9.07-15.65,4.76-3.41-1.91-6.56-3.66-8.62,1.57-1.33,3.39-4.2,3.95-7.35,3.6a24.37,24.37,0,0,1-5.78-1.14c-9.65-3.55-19.38-5.77-29.64-2.81-1.55-3.43-2.75-5.73-8-4.7-4.57.9-9.76.66-14.68.79-7,.18-13.18-2.45-15.84-8.36-3.06-6.82-7.81-6.08-13-5.37-3.24.45-6.32,1.89-9.73,1.67-2.65-.16-5.5.26-7.48-1.93-2.65-2.94-4.94-3.05-8.47-.91-3.91,2.37-7.66-.34-11-2.55-6.32-4.2-6.23-4.21-11.07,1.55-2.77,3.29-4.61,7.28-8,10.1-2.06,1.71-3.8,3.77-6.77,3.73-6.55-3.53-3.29-9.07-2.8-14.82l-15.25,8.17c-4.1-3.32.26-7.15-1.1-10.32-15.28-2.49-15.28-2.49-18.78-10.4-4.83,1.32-6.28,5.46-7.81,9.41-1.2,3.09-1.93,6.36-3.16,9.44-.83,2.1-1.76,4.55-4.84,4.1-2.23-.32-3.45-1.85-4.06-3.89-1.12-3.79-2.93-7.42-2.35-10.54-.74-1.74-1.31-2-2.07-1.7-15.26,6.07-27.06-.44-37.77-10.52-3-2.82-5.26-5-10.26-3.32-12.25,4.06-14.2,2.54-16.71-10.77a24.72,24.72,0,0,1-15-.87c-3-4.91-8.3-8.15-10-14,10.64,0,10.64,0,21.13,4.44.88-2.83,1.65-5.68,2.64-8.46,2.55-7.07,3.85-8.16,11.68-7,3,.43,4.1-.71,5.58-2.64,2.85-3.72,6.15-6.92,13.73-6.53-10-4.36-18.52-4.9-25.82-9,5.53-9.35,13.7-11.43,21.88-4.58,4.48,3.76,7.1,3.47,10.61-.57a15.36,15.36,0,0,1,15.73-5.11,15.07,15.07,0,0,0,.75-2.54c.65-10.6.64-10.59,10.57-7.61a31.94,31.94,0,0,0,5.74,1.5c2.55.26,5.15.06,8.75.06-3.06-4.08-9.29-6.19-5-11.94,2.13-1.51,5.67-2.68,6.14-4.6,1.95-8,7.83-7.45,13.78-7.47,1.58,0,3.6-.06,4.65-1,2.67-2.32,4.67-6.07,9-4.64,5.15,1.74,11.14,2.06,14.45,7.44-4.49,5.87-12.65,5.47-17.69,10.38-1,.83-2,1.65-2.94,2.5s-1.85,1.72-2.79,2.56a28.29,28.29,0,0,1-3,2.36c-2.54,1.62-4.73,3.69-7.16,5.45-2.22,1.45-4.36,3-6.57,4.44-6.37,3.41-12.81,6.68-19.35,9.75a36.34,36.34,0,0,1-3.78,1.38c-4.33,1.74-9.38,1.93-12.72,5.82-3.28,6.44-5,13.39-7.06,20.25-.72,9,5.38,10.19,12.13,10.68,16.32,3.17,32.74-2.44,49,.65C238.56,131,266.75,137,296,136.79c10.84-.09,21.82,2.26,32.49,4.73,16.65,3.85,33.38,5.83,50.46,4.85,8.31,0,16.62,0,24.92,0C407.48,146.46,411.19,146.37,414.17,149.07Z"/><path class="cls-3" d="M50.2,199.19c4.36,2.77,9.24,1.85,14,2h0c6.31,8.29,8.56,17.74,8,28,6.68,12,14.53,23,25,32.06,7.17,6.17,14.87,11,24.62,12,14.65,1.59,24.53-6.22,33.31-16.31,7-8,14-15.91,20.48-24.32,6-7.91,12.82-7.66,20.57-3.43-2.48,8.05-9.43,12.89-14.7,18.56-9.85,10.6-17.47,23.37-30.12,31.43-15.3,9.76-30.81,11.11-47.13,3.07-22.24-11-36.94-28.8-45.76-51.5C54.55,220.62,50.53,210.33,50.2,199.19Z"/><path class="cls-36" d="M72.19,229.16q-4-14-8-28a67.19,67.19,0,0,1,20.86-4c3.13-.06,6.62,1.09,9.14-2,1.61.86,2,2.36,2,4,4,6.45,3.22,14,4.69,21,2.54,12.16,8.66,15.37,19.93,9.69,6.84-3.44,13-7.82,17.25-14.47,1.59-2.52,3.07-5.14,6.11-6.23h0c9.05,2.33,16.35,9.22,26,10-13.72,7.35-24.49,18.86-37.86,26.76-11.64,6.88-17.55,6.75-27.24-3.05-6-6.09-11.22-13-16.78-19.51-.21-.25-.26-.63-.47-.88-2.5-3-4.6-7.61-9-6.72-3.93.81-3.63,5.73-4.55,9.09C73.86,226.51,73.69,228.12,72.19,229.16Z"/><path class="cls-36" d="M70.17,287.19c-7.85-6.87-12.33-16.24-17.18-25-10-18.17-19.66-36.63-24.82-57,0-.68,0-1.35,0-2,3.38-2,6.7-4.14,10.16-6,2.53-1.35,5.25-3.39,7.84,0,2.7,6.89,2.1,14.33,3.73,21.46,3.47,15.15,8.89,29.5,18.88,41.23,14.51,17,32.44,29.6,55.13,33.06,12.56,1.92,23.89-3.26,32.82-11.61,16.23-15.18,31.85-31.07,43.54-50.27,1.31-2.14,2.92-3.94,5.46-3.71,9.05.85,17.68-2.53,26.72-2.31,5.4.13,10.29,3,15.71,2.15.82,6-4.28,7.85-7.79,10.4-23.18,16.84-47.73,31.65-71.24,48a105,105,0,0,0-10.44,7.72c-15.42,13.86-33.44,17.16-53.08,12.29C92.44,302.31,78.74,299.57,70.17,287.19Z"/><path class="cls-37" d="M70.17,287.19A85.3,85.3,0,0,0,121.7,305a50.11,50.11,0,0,0,36-14c7.43-6.91,16.25-12.46,24.89-17.92q31.05-19.6,61-40.76a12.3,12.3,0,0,0,4.54-5.17h4c6.68.6,13.64-1.52,20,2-.49,4.55-3,7.92-6.09,11.12-10.79,11.27-22.13,21.86-35.82,30.29-.91-3-1.7-5.48-6-5.6a31.74,31.74,0,0,0-23.58,8.86c-18.47,17.63-41.45,27.18-64.32,37.08-10.11,4.37-20.26,6.05-30.92,2.46a3.07,3.07,0,0,0-2-.13c-11.09,4.86-16.6-3.51-22-10.14C77.46,298.12,71.78,294,70.17,287.19Z"/><path class="cls-17" d="M426.18,177.18c1.75-2.8,3.2-5.91,7.57-4.4a7.27,7.27,0,0,0,7.39-1.53c1.1-.93,2.92-1.47,3.41-.16,2.54,6.94,7,2.33,10.82,2.17,5.6-.24,11.2-.08,16.8-.08a44.44,44.44,0,0,1-2.71,5.22c-4.6,6.63-7.62,7.76-14.62,3.68a12.41,12.41,0,0,0-10.9-1.32C437.68,182.54,431.66,180.59,426.18,177.18Z"/><path class="cls-8" d="M528.17,195.18l-2,2Z"/><path class="cls-36" d="M316.19,241.18c-9.57,8.67-19.17,17.37-30.59,23.61-15.08,8.24-29.5,17.72-45.42,24.4-1.11-4.4,2.79-5.58,5.07-7.66,12.76-11.67,26-22.84,36.92-36.37v0c3.17-1.18,4.2-4.15,5.4-6.82,2.21-4.87,5.56-5.93,10.52-4.29,6,2,12.06,3.43,18.1,5.12Z"/><path class="cls-3" d="M144.16,209.18c-4.17,11.69-13.09,18.65-23.75,23.95a19.61,19.61,0,0,1-9.54,2.09c-6.69-.2-8.89-1.35-10.81-7.84a87.56,87.56,0,0,1-3.88-28.2h14c-.84,5.72,1.72,11,2.27,16.54.38,3.84,3,3.63,5.81,2.14,5.45-2.88,8.93-7.58,12-12.71C135.46,204.39,139.77,207,144.16,209.18Z"/><path class="cls-29" d="M400.18,253.18h-46c3.7-7.65,8.25-15,8.11-24,0-2.89,1.68-3.68,4.53-3.67,11.12,0,22.24-.23,33.36-.38C408.87,236.32,408.87,242,400.18,253.18Z"/><path class="cls-40" d="M212.12,58.48c5.33-6,13.07-7,20-9.54l2,.45a1.72,1.72,0,0,1,.57,1.53c-.09.55-.21.83-.34.83a12.73,12.73,0,0,1-4.49,2.87c-5.58,1.22-10.06,5.58-16,5.66A2.25,2.25,0,0,1,212.12,58.48Z"/><path class="cls-41" d="M234.11,50.92q0-.77,0-1.53c1.59-.37,3.25-.6,4.32-2.08l15.75-.11a2.1,2.1,0,0,1-.64,2.94C247.12,51.78,240.75,54.81,234.11,50.92Z"/><path class="cls-42" d="M320.41,60.89c10,.89,19.84-.36,29.63-2.53,6.8-1.5,13.73-2.27,20.53.36L369.63,60c-5.38,2.79-11.54,1.41-17.1,3.25a91.78,91.78,0,0,0-10.92,1.82,62.88,62.88,0,0,1-14.57.67c-2.75-.28-5.55-.48-7.13-3.3Z"/><path class="cls-43" d="M410.1,51.49a2,2,0,0,0,2.15,1.19c1.76.21,2.5,1,1.6,2.78-1.56,1.39-3.41,1.47-5.34,1.23-8.07-1.92-12,6-18.42,7.86a9.67,9.67,0,0,1-7.08-.19,2.9,2.9,0,0,1-1.4-2.37l.87-1.17c4.26.69,7.66-1.11,10.61-3.86C397.94,52.46,403.52,50.47,410.1,51.49Z"/><path class="cls-44" d="M254.11,48.89c0-.56,0-1.12.07-1.69,8.37-3.68,16.34-2,24.16,1.81-.44.44-.87.87-1.3,1.32C269.23,52.55,261.46,54,254.11,48.89Z"/><path class="cls-44" d="M278.34,49a101.19,101.19,0,0,1,26.22,7.7,4.12,4.12,0,0,1-2.31,2,11.64,11.64,0,0,1-6.25,0c-5.77-3.51-14.82-.82-17.91-9.44Z"/><path class="cls-45" d="M301.93,57.16l2.63-.45,11.61,2.73a1.84,1.84,0,0,1-.78,2.69C310,62.83,304.55,63.87,301.93,57.16Z"/><path class="cls-43" d="M376.17,59.23c2.29-.2,4.56-.33,6.31,1.59l-.4.47a4.63,4.63,0,0,1-5.62.58A1.81,1.81,0,0,1,376.17,59.23Z"/><path class="cls-42" d="M376.17,59.23l0,1.89c-2.72,1.69-5.17,2.44-6.07-1.86l.44-.54Z"/><path class="cls-42" d="M316.16,61.15c0-.57,0-1.14,0-1.71,1.64-.19,3.15,0,4.24,1.45l-.26.36C318.79,62.42,317.47,62.24,316.16,61.15Z"/><path class="cls-46" d="M468.23,66.68c-3.26-8.89-2.65-12.34,2.29-16.89,2.83-2.6,5.37-2.64,7.44.37a18.08,18.08,0,0,0,11,7.68c2.24.57,4.81,2.77,4.58,4.73-.83,7,3.23,7.06,8.1,6.64a5.62,5.62,0,0,1,4.53,1.51c-10.8,6.17-21.76,3-32.71.55C471.11,70.42,469.17,69.11,468.23,66.68Z"/><path class="cls-34" d="M414.33,55.12c-.69-.82-1.39-1.63-2.08-2.44.05-2.56,1.56-4.26,3.39-5.78,1.08-.9,3-1.59,3.4-.48,1.62,5,5,3.25,8.54,3.21s5.6,3.23,6.9,6.34c2,4.85,3.78,9.8,5.66,14.71-3.35,4-6.32,1.37-9.08-.71-3.33-2.51-5.91-5.91-9.41-8.23a23.67,23.67,0,0,1-2.08-1.48,54.55,54.55,0,0,1-4.68-4Z"/><path class="cls-47" d="M420.29,58.94c4.88,1.06,7.36,5.16,10.52,8.36,2.62,2.65,5.14,5.21,9.33,3.38,9-3.67,18.08-7.2,28.09-4l4.16,2.38a5.22,5.22,0,0,1-2.21,1.73c-5,1.69-10.07-1.76-15.07.21a33.19,33.19,0,0,0-9.94,3.13,25.9,25.9,0,0,1-3.76,1.25,22.59,22.59,0,0,1-2.61.64,8.62,8.62,0,0,1-2.73,0C428.74,72.23,421.44,68.43,420.29,58.94Z"/><path class="cls-48" d="M470.26,69.2l2.13-.14a118,118,0,0,0,33.76,1.66l8,.3c-.07.79-.13,1.58-.2,2.37a16.6,16.6,0,0,1-9.46,2.49c-2.19-.06-4.39.09-6.58,0-3.33-.07-6.65.13-10,0C481.59,74.79,473.85,77.39,470.26,69.2Z"/><path class="cls-49" d="M370.13,59.26c1.52,2.27,3.86,1.86,6.07,1.86l5.88.17c0,.64.09,1.28.14,1.92,4.77,2.28,7.58,6.41,9.88,10.86,10.28,20,24.48,36.21,44,47.67,2.78,1.63,7.12,2.84,6.27,7.76a52.7,52.7,0,0,1-12.23,7.38c-8-2.73-15.58-6.54-23.37-9.82-3.55-1.49-7.24-3.32-7.61-8a7.62,7.62,0,0,1,2.33-4.22c5.06-5.13,3-8.63-2.58-11.3a36.85,36.85,0,0,0-15.15-3.79c-3.91-.09-7.92.35-11.59-1.6-7.52-8.4-13.11-18.14-18.9-27.71-1.63-2.7-3.62-5.76-1.16-9.16C357.83,58,364.11,59.78,370.13,59.26Z"/><path class="cls-49" d="M390.14,63.16c3.08-2.48,6-5.26,9.31-7.32,2.58-1.59,5.58-4.33,8.8-.72,5.81,3.89,8.64,10.13,11.44,16,9,18.94,24.78,30.7,42,41.08,2.52,1.52,5.58,2.32,7,5.28-5.78,3.45-12.11,5.66-18.37,8-11.3-1.88-18.56-10.26-26.38-17.23A139,139,0,0,1,390.14,63.16Z"/><path class="cls-50" d="M504.07,73.47l9.83-.08c-7.8,18.19-19.3,33-37.85,41.33-24.58-9-43.7-24.57-57-47.18-1.51-2.57-3-5.27-1.34-8.41a1.83,1.83,0,0,1,2.57,0v-.16c4.65,6.86,10,12.9,17.89,16.24,9.14,3,14.41,11.37,22.34,16,3.69,2.18,7.06,4.91,10.91,6.82,8.72,4.33,12.46,3,18.52-4.64C495,87,496.79,78.28,504.07,73.47Z"/><path class="cls-51" d="M424,141.07c-2.21,3.7-6.41,4.19-9.76,6.06-11.38,2.2-22.88.45-34.3,1-2.62-.32-5.48.86-7.86-1.15,1.48-6.39,6.53-3.12,10.08-4.06-3.55-2.95-8-5.16-11.28-8.9-2.76-3.19-4.69-6.43-1.07-10.29,2.9-2.63,6.47-3,10.13-3.12,4.05-.06,8,.6,11.31,3C401.35,131,414.64,132.31,424,141.07Z"/><path class="cls-52" d="M390.14,63.16c4.18,2,5.71,6.35,7.84,9.9a168,168,0,0,0,20.92,27.39,115.53,115.53,0,0,0,26,21c2,1.16,4.34,1.75,5.5,4a17.36,17.36,0,0,1-8,4c-2.33-2.86-5.51-4.66-8.6-6.49-18.07-10.66-31.73-25.45-41.66-43.87-3-5.49-6.58-10.63-9.9-15.93Z"/><path class="cls-52" d="M418.13,59.42c7.58,18.31,20.68,31.68,37.09,42.38,6.85,4.47,15,6.81,20.83,12.92a14,14,0,0,1-7.32,2.75c-11.12-2.57-18.89-10.73-28-16.7C432.49,95.33,426.67,88,422.06,79.3c-4.33-8.19-10-15.66-13.81-24.18h6.08l-.14,0C415.53,56.49,417.77,57.1,418.13,59.42Z"/><path class="cls-53" d="M424,141.07c-12.36-4.33-24.5-9.17-35.49-16.43-2.71-1.79-5.67-1.21-8.54-1.6,5.56-7.2,12.77-6.05,20.17-4,2.46,4.94,7.65,5.8,12,7.83,5.3,2.49,10.81,4.51,16.21,6.79,1.35.58,1.62,1.94,1.84,3.24Z"/><path class="cls-54" d="M378.22,147.22l36-.09c0,.65,0,1.29-.05,1.94a308.32,308.32,0,0,1-36,0q-1-.65-.66-1.26C377.77,147.43,378,147.22,378.22,147.22Z"/><path class="cls-14" d="M282.17,245.16c0,4.24-3.32,6.3-5.83,8.82-11.88,11.91-23.53,24.06-36.16,35.21l-48,36c-20.49,14.18-42.12,25.11-68.09,22.61-5.82-.56-12.57.24-15.91-6.63,31.56,3.11,58.44-9.46,84.21-25.41,23.45-14.51,44.81-31.94,66.62-48.68C267.42,260.61,273.64,251.62,282.17,245.16Z"/><path class="cls-55" d="M108.18,341.16c12.47,6.18,25.6,5,38.53,2.63s24.76-8.66,36.35-15c2.88-1.56,5.66-3.48,9.12-3.64-12.31,12.37-26.34,22.22-43.16,27.24-7.33,2.19-15.21.46-22.84.77-7.73-3.27-17-3.73-22-12,.11-1.22,1.44-1.21,2-2Z"/><path class="cls-14" d="M20.19,229.16c2.36,1.61,3.25,4.21,4.21,6.63,9.38,23.61,22.74,44.9,37.75,65.23a165.59,165.59,0,0,0,19.38,22.62c3.12,2.93,6.61,5.61,8.66,9.55-5.72-1.3-10-5-13.91-9-8.78-8.93-17.4-18-26.09-27-1.34-7.39-6.86-12.59-10-19C32.29,262.32,23.37,246.92,20.19,229.16Z"/><path class="cls-14" d="M106.16,339.22l-2,2a11,11,0,0,1-8-4C99.76,336.6,102.75,339,106.16,339.22Z"/><path class="cls-14" d="M96.17,335.2c0,.66,0,1.33,0,2C94.85,336.54,94.79,335.88,96.17,335.2Z"/><path class="cls-14" d="M90.18,333.18h2C91.5,334.58,90.83,334.52,90.18,333.18Z"/><path class="cls-14" d="M18.19,223.17c2.35,1.44,1.93,3.81,2,6C17.82,227.75,18.26,225.37,18.19,223.17Z"/><path class="cls-37" d="M280.18,401.18c7.29-5.34,16.33-7.16,23.88-11.95,9.8-6.22,19.21-12.79,26.35-22.3,8.55-11.37,16.68-23.33,26.78-33.19,10.85-10.59,21.61-21.59,34.33-30.13,9.23-6.19,12.06-5.87,21.31,1.25a9.07,9.07,0,0,0,5.35,2.32c-14,11.59-25.56,25.79-38.95,37.39-3.44-.47-2.72-3.23-3.9-4.65-5.48-6.57-12.78-6.24-17,1.15a208.12,208.12,0,0,0-9.66,19.52c-6,13.74-15.94,23.53-29.71,29-10.75,4.27-21.87,7.62-32.88,11.21C284.29,401.4,282.17,401.08,280.18,401.18Z"/><path class="cls-37" d="M274.18,403.19c1.44-2.37,3.8-1.94,6-2C278.75,403.54,276.38,403.11,274.18,403.19Z"/><path class="cls-10" d="M312.18,417.19l-2,2Z"/><path class="cls-37" d="M446.18,349.19q2,6,4,12c-12.07,2.79-20.19,12.06-30.94,18.9-1.27-3.87-2.38-7.84-5.06-10.92,3.43-9.5,11.77-14.8,18.87-20.88C436.49,345.33,441.91,346.85,446.18,349.19Z"/><path class="cls-8" d="M586.17,179.21c.47,9.9-1.08,19.88,1.77,29.71a19.53,19.53,0,0,1,0,9.9c-2.89,11.16-2,22.49-1.61,33.69.4,11-2.78,21.7-2.2,32.67-3.15,4.49-2.52,10-4.08,15-4.42,14-10.22,26.94-21.08,37.48-8.72,8.47-18.86,10.85-30,9.19a72.39,72.39,0,0,1-26.88-9.71c-8.35-5.05-9.75-9.86-5.93-19.93,5.64-6.15,12.32-10.91,19.4-15.29,15-9.29,26.63-21.47,33.12-38.38,10.43-27.17,21.17-54.24,33.89-80.46a1.87,1.87,0,0,0-.36-1.83C583.05,179.58,584.53,179.23,586.17,179.21Z"/><path class="cls-56" d="M582.21,181.21c1.66,1.18,1.53,2.56.81,4.31-12,29.15-23.69,58.4-35.89,87.45-4.48,10.67-13,18.44-21.91,25.47S505.71,309.71,497.78,318c-.12.13-1.06-.51-1.61-.79,3.2-8.93,10.91-14,17.65-19.64,6.09-5.11,12.5-9.79,18.41-15.17,9.2-8.39,14.79-18.72,18.53-30.25,6.26-19.33,12.91-38.47,23.09-56.18C576.66,191,579.42,186.11,582.21,181.21Z"/><path class="cls-57" d="M378.22,147.22a10.85,10.85,0,0,0,0,1.89,145,145,0,0,1-40.52-3c-24-5.28-48.45-7.57-73-8.49-12.31-.46-24.35-2.89-36.27-5.95-6-1.55-12.16-2.88-18.24-4.31a2.09,2.09,0,0,1,.42-3c8.71-3.69,16.45,1.67,24.68,2.58a148,148,0,0,0,36.47,5c20.45,0,40.4,3,60.36,6.73a21.22,21.22,0,0,1,3.34.75,131.45,131.45,0,0,0,25.41,2.94c3.86,0,8-.48,11,2.91C373.62,147.15,376.09,146.6,378.22,147.22Z"/><path class="cls-58" d="M210.15,125.38c0,.65,0,1.31,0,2-17.24-.54-34.53,2.34-51.75-.54.16-3.47,3-3.52,5.36-4.25,12.13-.88,24.29-.4,36.43-.34C203.76,122.23,207.49,122.25,210.15,125.38Z"/><path class="cls-59" d="M146.71,113.41q3.75-11.1,7.49-22.2c1.93-.69,2.69.53,3.31,2-.38,8.1-2.57,15.59-7.5,22.16C148.15,116,147.26,115,146.71,113.41Z"/><path class="cls-60" d="M146.71,113.41l1.62,2c3.84,4.49,11.33,3.59,14.15,9.58l-4.09,1.83C147.42,124.1,146,122.52,146.71,113.41Z"/><path class="cls-61" d="M171.86,84.59a149.78,149.78,0,0,1,19.79-9.9l1,1c-3.66,8.16-11,9.9-18.82,10.83A3.4,3.4,0,0,1,171.86,84.59Z"/><path class="cls-62" d="M156.33,93.32,154.2,91.2c4.11-3.43,9.42-3.9,14.17-5.72a3.34,3.34,0,0,1,.6,2.7A13.41,13.41,0,0,1,156.33,93.32Z"/><path class="cls-63" d="M197.78,70.71a18.08,18.08,0,0,1,7.41-5.64c1.1-.38,1.64.05,1.69,1.18-1,3.57-3.14,5.76-7,6A3,3,0,0,1,197.78,70.71Z"/><path class="cls-64" d="M191.65,74.69a11.94,11.94,0,0,1,6.13-4l.46.55c0,4.3-1.9,5.83-6,4Z"/><path class="cls-65" d="M168.19,87.24c.08-.59.14-1.17.18-1.76l3.49-.89.32.63a1.82,1.82,0,0,1-.08,2.5A3.11,3.11,0,0,1,168.19,87.24Z"/><path class="cls-66" d="M205.19,65.07l2.72-2.16.6,1.28a1.91,1.91,0,0,1-2.27,1l-.5-.25Z"/><path class="cls-66" d="M207.91,62.91a2.24,2.24,0,0,1,2-2l.73.95c-.39,1.26-1,2.15-2.47,1.32Z"/><path class="cls-66" d="M209.89,60.88a3.57,3.57,0,0,1,2.23-2.4v.79c.46,1.79-.17,2.44-2,1.88Z"/><path class="cls-34" d="M168.19,87.24l3.89.23c21.55.78,43.1,1.45,64.67,1,5.47-.13,12.9,1.88,15.49-3.77,2.2-4.81-3.82-9.3-6.31-13.89-3.86-7.1-12.65-9.81-15.64-17.66.71-1.7,2.35-1.79,3.82-2.18l20-2,24,.42c4.83,5.31,12.85,3.29,18,7.82.91,1.87-.25,3.17-1.36,4.34-5.31,5.59-2.76,9.41,2.78,12.55,8.45,4.78,17.72,7.32,27,9.73,4.16,1.08,8.41,1.91,12.3,3.89,5.76,3.12,12,4.71,18.38,5.93,5.49,2,11.94-.72,17,3.47,4.27.11,8.53.36,12.79.29a33.44,33.44,0,0,1,16.9,4.54c8.18,4.53,8.55,9.16,1.37,14.86-1,.8-2.1,1.53-3.15,2.29-6.52,2.35-13.77,1-20.17,4a18,18,0,0,0-9.77,2.23c-11.85,5.44-23.68,10.94-35.53,16.38l-.64-.31c-9.83-7.24-14.95-18.41-22.6-27.48-4.77-5.66-9.22-7.38-16.3-5.5-16.41,4.38-32,10.91-47.75,17.07A49.35,49.35,0,0,1,234,128.94c-8.13,0-15.48-5.32-23.88-3.56-15.88-1.64-31.79.38-47.67-.41-4.89-2.94-12.61-1.69-14.15-9.58,4-6.87,5.39-14.69,8-22.07C159.88,90.52,164.9,90.57,168.19,87.24Z"/><path class="cls-67" d="M230.29,53.1c12,6.8,19.72,17.47,26.06,29.32,2.7,5,2.39,5.46-3.43,7.07a47.17,47.17,0,0,1-12.78,1.68c-15.59-.06-31.19,0-46.79-.15a64.33,64.33,0,0,1-21.27-3.55c0-.75.07-1.5.1-2.25,7.79-1.09,14.59-4.15,20-9.93,2.82-.11,5-1.25,6-4,4-.26,6.42-2.6,8-6.06a2.21,2.21,0,0,0,1.92-2.06,2.13,2.13,0,0,0,2-2,2,2,0,0,0,2-1.88C218.62,58.54,223.37,52.63,230.29,53.1Z"/><path class="cls-68" d="M336.13,89.49c-9.21-2.61-18.4-5.32-27.65-7.79A53.32,53.32,0,0,1,294.13,75c-8-5-8.18-9.29-1-15.33l3-2.53,5.81,0c4.3,2.9,9.25,3.53,14.24,4l4,.1c1.42,2.28,3.87,1.83,6,2.21C330.65,71.68,336.21,79.51,336.13,89.49Z"/><path class="cls-49" d="M336.13,89.49c-3.48-8.62-9.36-16.32-10-26l16-.27c7.23,7.45,12.19,16.5,17.46,25.26,3.37,5.6,1.85,9.11-5.59,6.82A30.72,30.72,0,0,1,336.13,89.49Z"/><path class="cls-69" d="M354.05,95.26c6.13-1.47,6.22-1.53,3.38-6-3.7-5.79-7.52-11.51-11.36-17.21-1.84-2.74-3.65-5.46-3.89-8.89,2.83-3.14,6.58-1.51,9.94-1.93,2.23,9.61,9.13,16.59,13.9,24.77,2.12,3.64,5.6,6.52,6.19,11C366.12,96.85,359.83,98.62,354.05,95.26Z"/><path class="cls-70" d="M418.13,59.42c-1.61-1.19-3.44-2.16-3.94-4.35a5.86,5.86,0,0,1,6.1,4Z"/><path class="cls-49" d="M488.1,73.45l10,0c-1.27,17.81-11.9,25.2-27.79,19.33-7.16-2.65-14.13-5.78-20.26-10.36-3-2.24-7.06-4.25-6-9.31a12.4,12.4,0,0,1,10.17-3.91,26.46,26.46,0,0,1,11.58,4.87C473.43,79.81,480.92,81.8,488.1,73.45Z"/><path class="cls-52" d="M444.1,73.14c9,11.82,22.38,15.92,35.69,19.82,5.74,1.69,9.25-2.82,11.94-7.09,2.46-3.92,4.28-8.25,6.38-12.39h6A144.29,144.29,0,0,1,490.5,96.62c-5.05,7-9,8.39-16.88,5.2-6.2-2.53-11.66-6.38-16.87-10.45-6.47-5.05-13.43-9.59-18.57-16.19h0a12.06,12.06,0,0,1,1.91-1.58Z"/><path class="cls-71" d="M488.1,73.45c-.93,1.74-1.73,3.57-2.8,5.21-2.76,4.21-6.11,5.29-10.9,2.72-6.93-3.71-13.92-7.27-20.13-12.15,2.63-1.56,5.29-2.41,8.31-.94,2.41,1.17,5.07,1,7.68.91C475.66,72.92,482,72.86,488.1,73.45Z"/><path class="cls-50" d="M440.09,73.6l-1.91,1.58Z"/><path class="cls-72" d="M334.65,141.65c10-9.45,22.18-14.19,35.53-16.38-1.37,2.31-.79,4,1,6.06,4.42,5,10.61,7.61,16.53,12.79-5.82,1.85-11,.59-15.87,1.21C359.27,146,346.82,145.24,334.65,141.65Z"/><path class="cls-67" d="M234,128.94c21.26-10.08,43.08-18.55,66-24.28,4.95-1.24,7.6.43,10.14,3.73,8.26,10.76,17.15,21.08,23.87,33-11.11-1.56-22.27-2.82-33.31-4.78-8.21-1.46-16.44-1.39-24.69-1.67C261.82,134.4,247.69,133.28,234,128.94Z"/><path class="cls-73" d="M291.94,88c-9.87,3-18.69,6.72-26.1,14.14-6.13,6.14-15,8.45-22.68,12.32-1.83.93-4.21,1.13-5.68-.31-4.3-4.19-8.9-2.55-13.94-2-15.19,1.83-30.43,2-45.37-2.23-.83-.24-1.47-1.15-2.35-1.88,5-2.72,9.14.9,13.61,1.12,19.4.92,38.49-1,57-6.61,6.29-1.91,11.92-5.91,18-8.54C273.26,90.31,282,85.93,291.94,88Z"/><path class="cls-17" d="M323.71,116.47c2.19-2.32,5-.33,7.79-3-11.15-5.3-18.72-14-24.46-24.58,3.49,1.42,7,2.8,9.55,5.75,10,11.55,23.75,13.55,37.69,14.44,9.9.63,19.87.12,31.41.12C360.85,116.82,335.9,124.26,323.71,116.47Z"/></g></g></svg>