<?xml version="1.0" encoding="utf-8"?>
<!-- Generator: Adobe Illustrator 25.0.0, SVG Export Plug-In . SVG Version: 6.00 Build 0)  -->
<svg version="1.1" id="Слой_1" xmlns="http://www.w3.org/2000/svg" xmlns:xlink="http://www.w3.org/1999/xlink" x="0px" y="0px"
	 viewBox="0 0 640 480" style="enable-background:new 0 0 640 480;" xml:space="preserve">
<style type="text/css">
	.st0{fill:#E8E5D4;}
	.st1{fill:#F77F80;}
	.st2{fill:#D8D4C8;}
	.st3{fill:#E86A6B;}
	.st4{fill:#FDFDFD;}
	.st5{fill:#F4F2DD;}
	.st6{fill:#F4A8A3;}
	.st7{fill:#F4A5A0;}
	.st8{fill:#F8AAA9;}
	.st9{fill:#FAADAD;}
	.st10{fill:#F4A7A3;}
	.st11{fill:#EA6E6E;}
	.st12{fill:#F0A0A1;}
	.st13{fill:#F8C5C2;}
	.st14{fill:#F4A7A2;}
	.st15{fill:#FFFFFF;}
	.st16{fill:#F3A5A4;}
	.st17{fill:#F9ADAD;}
	.st18{fill:#F58080;}
	.st19{fill:#EF9E9E;}
	.st20{fill:#F4F2DE;}
	.st21{fill:#F59895;}
	.st22{fill:#F8C3C0;}
	.st23{fill:#FAACAC;}
</style>
<g>
	<path class="st0" d="M66.04,350.74c-0.48-0.05-0.95-0.07-1.43-0.07c-0.53-0.49-1.07-0.97-1.59-1.47l-0.01,0
		c-0.78-0.93-2.2-0.64-2.99-1.55l0.02,0.02c-0.52-0.48-1.02-1-1.54-1.49v0c-0.93-0.68-2.16-1.18-1.62-2.73
		c0.89-1.03,2.09-1.38,3.37-1.31c5.79,0.28,9.23-2.47,11.48-7.77c2.28-5.36,6.66-6.09,9.32-1.15c3.64,6.77,10.01,7.74,16.02,9.92
		c4.34,1.58,6.12-0.21,6.08-4.52c-0.01-1.75,0.01-3.51,0.29-5.25c0.33-2.06,1.05-3.79,3.12-4.8c6.89-3.37,19.4,3.67,20.09,11.37
		c0.11,1.25,0,2.51,0.12,3.76c0.28,2.86-0.46,6.94,3.96,6.66c4.42-0.28,6.33-3.67,5.93-8.03c-0.26-2.82-2.03-5.08-3.29-7.52
		c-3.38-6.51-0.31-11.33,7.05-11.15c6.98,0.17,13.36,5.7,14.72,12.77c1.71,8.88,2.03,9.42,11.2,9.19c9.07-0.23,17.93,2.29,27,1.59
		c2.5-0.19,5.04-0.06,7.39-1.12c3.35-1.52,4.43-3.89,2.56-7.27c-0.37-0.66-0.84-1.24-1.28-1.86c-7.82-10.94-8.42-14.98-2.88-19.31
		c11.84-9.25,26.29-10.08,33.58-1.93c3,3.35,3.81,6.95,1.4,11c-0.9,1.51-1.81,3.01-2.38,4.69c-0.57,1.7-1.24,3.71-0.18,5.1
		c4.5,5.95,10.16,1.59,15.23,1.15c4.41-0.37,4.73-3.75,3.37-7.35c-5.19-13.66-11.74-25.85-28.81-26.73
		c-1.5-0.08-3.14-0.31-3.61-2.09c-0.61-2.28,0.84-3.78,2.33-5.17c6.99-6.51,18.78-5.8,25.05,1.5c0.98,1.15,1.73,2.46,2.59,3.69
		c1.59,2.26,3.12,5.02,6.53,3.56c3.21-1.38,3.85-4.36,3.61-7.58c-0.06-0.75-0.28-1.47-0.48-2.2c-2.73-9.98-0.76-13.25,9.2-15.32
		c10.8-2.24,19.35,2.16,20.74,10.68c0.84,5.18-1.79,8.52-5.78,11.3c-8.2,5.72-10.07,9.65-8.12,16.53
		c1.77,6.26,7.98,10.26,16.52,10.62c6.3,0.26,12.5-0.09,18.56-2.21c5.25-1.84,10.72-2.48,16.31-2.24
		c6.64,0.28,12.41,2.31,15.95,8.28c2.28,3.83,5.12,4.17,8.91,2.73c4-1.52,7.87-3.29,11.58-5.39c2.38-1.35,5.18-2.66,5.02-5.96
		c-0.17-3.41-2.76-5.36-5.54-6.56c-8.38-3.62-17.23-5.3-26.33-5.63c-5.26-0.19-10.55,0.24-15.8-0.18c-6.91-0.56-8.49-3.88-4.12-9.34
		c6.59-8.24,15.63-12.39,25.93-10.57c16.31,2.87,32.45,6.33,49.16,5.92c4.59-0.11,8.73,2.34,11.83,5.88
		c5.37,6.14,4.44,13.28-2.49,18.83c-2.84,2.28-5.67,4.44-4.61,8.62c0.97,3.82,3.92,5.81,7.47,6.68c10.9,2.68,21.87,2.83,32.69-0.35
		c4.94-1.45,8.87-4.62,11.67-9.02c2.56-4.01,5.5-4.86,9.14-1.28c5.77,5.69,12.5,5.71,19.57,3.11c7.31-2.68,14.64-5.38,20.49-10.82
		c3.7-3.44,6.43-7.34,3.77-12.57c-2.48-4.85-6.81-5.21-11.66-4.34c-4.71,0.85-9.22,2.41-13.84,3.56
		c-10.09,2.51-19.98,1.54-29.53-2.23c-7.32-2.89-7.89-8.88-1.49-13.5c4.07-2.94,8.65-3.6,13.61-2.76
		c5.43,0.92,10.92,1.68,16.32-0.27c7.52-1.35,13.18-6.26,19.39-10.14c5.25-0.49,8.8,3.21,12.82,5.49
		c8.65,4.9,17.79,9.15,24.71,16.66c1.1,1.82,1.83,3.76,2.07,5.88c-0.29,10.7-6.04,18.37-14.05,24.56
		c-16.86,13.04-36.68,19.46-56.99,24.35c-40.11,9.65-80.8,10.7-121.8,8.01c-26-1.7-52.11-3.09-78.14-1.53
		c-10.17,0.61-20.57-0.08-30.61,2.59c-4.43-0.07-8.9,0.85-13.27-0.58c-6.01-0.01-12.02-0.02-18.03-0.03
		c-2.33-1.38-4.89-0.72-7.34-0.72c-24.22,0-48.43-0.04-72.65-0.06c-2.45,0-5.01,0.61-7.36-0.67c-2.5-0.02-4.99-0.03-7.49-0.05
		c-3.32-1.98-7.27,0.47-10.6-1.49l-0.72-0.03l-0.72,0.01c-1.24-1.37-3.29-0.15-4.56-1.44c-0.99-0.02-1.97-0.05-2.96-0.07
		c-0.82-0.9-2.23-0.56-3.06-1.43c-0.5-0.04-1-0.06-1.5-0.06c-1.21-1.41-3.31-0.16-4.54-1.51l0.01,0.01
		c-0.8-0.91-2.21-0.59-3.02-1.47c-0.47-0.05-0.95-0.06-1.43-0.05c-0.51-0.5-1.09-0.91-1.58-1.43c-0.48-0.05-0.96-0.07-1.45-0.06
		C67.11,351.67,66.53,351.26,66.04,350.74z"/>
	<path class="st1" d="M565.81,255.67c0.37,0.28,0.79,0.4,1.26,0.34c2.15,0.9,4.63,1.13,6.24,3.11l-0.09-0.07
		c1.58,0.93,3.51,1.34,4.59,3.03l-0.04-0.07c1.56,0.98,3.32,1.69,4.54,3.17l-0.09-0.06c5.02,2.42,7.93,7.25,12.13,10.6l-0.19-0.11
		c0.57,0.26,0.86,0.7,0.89,1.31c-0.01,0.92,0.36,1.7,0.92,2.44c0.41,0.55,0.78,1.11,1.14,1.69c1.77,3.31,3.65,6.55,4.99,10.05
		c1.64,4.29,0.47,7.4-4.5,6.44c-7.57-1.47-14.83,0.02-22.26,0.74c-10.72,1.04-13.68-1.74-14.94-13.67
		c-0.84,8.98-6.77,7.75-11.99,7.86c-27.11-3.58-51.15-15.19-74.23-28.94c-8.61-5.13-12.08-13.81-10.84-23.9
		c1.48-12.05,12.78-17.13,22.47-9.94c22.5,16.71,43.2,35.55,63.76,54.51c0.41,0.51,0.62,1.53,1.04,1.58
		c0.72,0.1,0.84-0.22,0.26-0.21c-0.44,0-0.73-0.3-0.89-0.84c-15.98-15.87-32.79-30.83-49.68-45.69c-1.86-1.64-4.16-2.92-4.42-5.78
		c-0.15-3.3-1.9-6.01-3.09-8.97c-3.49-8.67,0.36-13.84,9.58-13.31c0.6,0.32,1.09,0.82,1.63,1.24c0.02-0.58-0.72-0.43-0.85-0.88
		c-3.17-1.86-6.5-4.52-10.06-1.52c-3.25,2.74-1.49,6.8-1.73,10.39c-0.25,3.76,5.41,6.57,1.44,10.66
		c-9.39-2.18-13.88-8.14-13.12-17.41c0.72-8.77,5.66-13.08,15.91-13.89c4.74,0.24,6.51,4.76,9.92,6.92l-0.09-0.13
		c0.74,0.33,1.26,0.87,1.64,1.57l-0.1-0.1c0.69,0.37,1.22,0.91,1.64,1.56l-0.09-0.09c0.65,0.4,1.17,0.94,1.61,1.55l-0.06-0.04
		c5.19,3.32,8.71,8.49,13.52,12.23l-0.1-0.13c0.74,0.33,1.28,0.87,1.61,1.61l-0.1-0.1c0.74,0.33,1.28,0.87,1.61,1.61l-0.1-0.1
		c0.74,0.33,1.28,0.87,1.61,1.61l-0.1-0.1c0.74,0.33,1.28,0.87,1.61,1.61l-0.13-0.1c2.15,2.39,4.3,4.77,6.35,7.25l0.08,0.1
		c0.38,0.56,0.84,1.06,1.37,1.48l0.04,0.04c0.43,0.56,0.96,1.04,1.44,1.56l-0.02-0.03c0.53,0.51,1.08,1,1.49,1.61l-0.07-0.07
		c0.62,0.45,1.16,0.96,1.55,1.63l-0.1-0.09c0.68,0.4,1.23,0.92,1.56,1.64l-0.14-0.09c1.75,1.85,3.35,3.83,4.73,5.97l-0.03-0.03
		c1.27,1.27,3.21,0.23,4.54,1.3c0.47,0.24,0.96,0.3,1.47,0.19c1.26,1.33,3.25,0.2,4.57,1.36c0.36,0.26,0.76,0.34,1.2,0.24
		c1.02,0.66,2.38,0.47,3.33,1.32c0.29,0.26,0.61,0.34,0.99,0.22C564.61,254.71,565.19,255.23,565.81,255.67z"/>
	<path class="st1" d="M158.09,132.6c0.49,0.06,0.94-0.04,1.35-0.32c0.89-0.62,2.17-0.37,2.94-1.28l0.01,0
		c0.99-0.86,2.35-0.76,3.44-1.34c0.41,0.1,0.77,0.02,1.1-0.24c2.2-2.06,5.21-1.89,7.82-2.81c0.44,0.09,0.85,0.01,1.22-0.25
		c2.53-2.49,6.17-1.5,9.05-2.86c0.51-0.08,1.01-0.17,1.52-0.25c1-0.61,2.26-0.5,3.23-1.17c0.45,0.11,0.87,0.04,1.25-0.21
		c1.31-1.16,3.29-0.06,4.55-1.35l-0.05,0.03c1.74-1.56,3.88-1.57,6.03-1.52c0.51-0.08,1.02-0.15,1.53-0.23
		c1.4-1.03,3.33-0.09,4.69-1.25c0.46,0.13,0.89,0.07,1.3-0.17c1.47-1.11,3.44-0.29,4.95-1.25c0.86-0.1,1.73-0.2,2.59-0.3
		c1.5-1.02,3.42-0.26,4.94-1.2c0.86-0.09,1.72-0.18,2.58-0.28c1.93-1.33,4.4,0.06,6.33-1.27c0.9-0.08,1.81-0.16,2.71-0.24
		c2.41-1.47,5.36,0.27,7.76-1.29c1.44-0.1,2.88-0.21,4.32-0.31c2.48-1.25,5.37,0.26,7.82-1.17c1.91-0.1,3.81-0.19,5.72-0.29
		c4.51-1.59,9.34,0.51,13.83-1.22c10.3,0,20.61,0.01,30.91,0.01c3.48,1.61,7.34-0.25,10.84,1.18c1.46,0.09,2.91,0.18,4.37,0.27
		c2.37,1.62,5.32-0.2,7.71,1.33c0.86,0.09,1.73,0.18,2.59,0.26c1.51,0.95,3.44,0.18,4.93,1.21c0.46,0.23,0.93,0.29,1.43,0.18
		c1.29,1.27,3.2,0.26,4.57,1.25c0.85,0.13,1.71,0.26,2.56,0.39c0.88,0.63,0.9,1.28,0.08,1.97c-5.92,2.1-12.29,1.93-18.31,3.64
		c-12.19,3.48-14.54,7.59-10.72,19.51c2.11,6.59,0.78,8.67-5.96,7.67c-17.38-2.57-34.77-4.44-52.38-3.92
		c-3.27,0.1-6.57-0.41-8.59-3.59c0.96-0.87,0.75-2.98-0.32-4.17c-3.46-3.82-2.87-7.78-0.08-11.58c4.11-5.59,9.91-8.15,14.9-8.57
		c-3.8,0.65-9.5,0.92-14.74,3.41c-7.12,3.39-8.24,5.83-5.84,13.41c0.38,1.2,0.82,2.36-0.12,3.51c-4.81,1.02-7.03-2.23-8.28-5.78
		c-1.99-5.68,0.94-10.05,4.39-13.19c-9.75,4.84-17.58,12.11-19.59,24.46c-0.73,4.52-5.56,4.48-9.17,5.02
		c-20.1,3-39.7,7.91-58.78,14.91c-2.81,1.03-5.51,2.39-8.47,2.99c-3.51,0.71-5.32-0.57-5-4.31c0.59-2.58,2.69-3.47,4.84-4.31
		c1.01-0.37,2.06-0.59,3.13-0.71c1.67-0.17,3.34-0.32,4.91-1.02c0.6-0.32,1.22-0.6,1.84-0.88c14.48-7.82,30.7-9.77,45.49-13.79
		c-11.47,2.07-23.46,5.34-35.35,9.03c-1.9,0.59-3.76,1.36-5.74,1.68c-1.49,0.24-3.12,0.33-4.07-1.09c-1.02-1.53,0.12-2.85,0.94-4.04
		c2.65-3.84,6.78-5.76,9.84-7.47c1.67-1.06,0.74-1.29,0.69-1.24c-2.2,2.46-5.09,3.79-8.18,4.77c-0.47,0.95-1.26-1.79-1.65,0.16
		c-1.86,4.78-6.33,7.43-9.21,11.39c-0.64,0.31-1.31,0.44-2.02,0.42c-0.71-0.15-1.28-0.52-1.74-1.07c-0.98-3.9,1.84-5.7,5.39-8.91
		c-11.39,7.83-23.45,11.88-31.32,22.01c-1.5,2.56-4.24,3.43-6.59,4.85c-10.55,6.44-21.94,11.8-28.97,22.75
		c11.27-6.27,19.93-16.3,31.79-21.66c0.74-0.1,1.46-0.04,2.18,0.15c5.61,3.32,2.86,5.76-0.89,8c-11.4,6.81-22.36,14.23-32.71,22.59
		c-9.61,7.76-18.17,16.43-25.11,26.67c-0.84,1.24-1.66,2.51-2.68,3.61c-1.22,1.32-2.59,2.56-4.54,1.9
		c-2.01-0.68-2.23-2.54-2.22-4.33c0.02-2.24,0.86-4.43,0.31-6.7c0.11-1.11,0.2-2.23,1.31-2.88L45.15,220
		c2.43-3.62,4.42-7.54,7.55-10.66l-0.12,0.1c0.36-0.68,0.91-1.19,1.51-1.66l-0.04,0.06c1.14-1.42,1.36-3.52,3.21-4.43l-0.08,0.03
		c1.75-3.69,5.27-5.91,7.58-9.13l-0.13,0.1c0.36-0.7,0.9-1.23,1.57-1.63l-0.1,0.09c0.4-0.66,0.93-1.19,1.57-1.61l-0.08,0.08
		c0.41-0.64,0.95-1.16,1.56-1.6l-0.07,0.07c0.43-0.61,0.96-1.13,1.55-1.59l-0.06,0.06c0.45-0.58,0.98-1.1,1.55-1.57l-0.05,0.05
		c0.47-0.57,0.98-1.08,1.55-1.55l-0.05,0.05c0.47-0.57,0.98-1.09,1.56-1.55l-0.05,0.05c0.46-0.58,0.98-1.11,1.58-1.55l-0.07,0.07
		c0.45-0.61,0.96-1.14,1.59-1.56l-0.08,0.08c0.44-0.63,0.96-1.16,1.61-1.56l-0.09,0.09c0.41-0.66,0.94-1.2,1.63-1.57l-0.1,0.1
		c0.38-0.7,0.9-1.25,1.64-1.57l-0.1,0.13c3.14-2.96,6.05-6.22,10.2-7.88l0.16-0.1c0.58-0.37,1.1-0.8,1.58-1.3l-0.02,0.01
		c0.52-0.52,1-1.09,1.67-1.45l-0.09,0.11c2.89-2.23,5.23-5.27,9.03-6.16l-0.03,0.03c1.54-3,4.96-3.02,7.37-4.64l0.09-0.05
		c0.61-0.39,1.05-0.99,1.71-1.31l-0.11,0.11c0.71-1.1,2.17-0.82,3.03-1.65l-0.06,0.04c0.73-0.97,2.2-0.63,2.92-1.63l0.05-0.03
		c0.59-0.43,1.03-1.04,1.73-1.32l-0.11,0.13c0.7-1.17,2.15-0.91,3.09-1.62l-0.1,0.07c0.73-1.11,2.17-0.85,3.09-1.6l-0.08,0.06
		c1.6-1.88,4.04-2.09,6.08-3.1l-0.08,0.05c0.78-1.03,2.19-0.79,3.11-1.54l-0.08,0.06c1.74-1.88,4.16-2.3,6.45-3
		c0.4,0.08,0.76-0.02,1.06-0.3c0.85-0.77,2.2-0.47,2.98-1.38l-0.01,0c0.91-0.89,2.29-0.69,3.27-1.42c0.48,0.06,0.91-0.05,1.31-0.33
		c0.63-0.44,1.21-0.97,2-1.11c0.37,0.12,0.69,0.04,0.97-0.22C155.78,133.11,157.15,133.36,158.09,132.6z"/>
	<path class="st2" d="M230.18,362.64c2.93-2.15,6.24-2.88,9.83-2.92c6.24-0.08,12.51,0.57,18.65-1.35c1.61-0.5,3.49-0.14,5.24-0.14
		c12.79-0.01,25.59-0.04,38.38,0.01c4.74,0.02,9.4,0.13,14.16,1.09c4.83,0.97,9.99,0.31,15,0.41c4.49,0.09,8.99-0.41,13.4,1.19
		c1.57,0.57,3.48,0.29,5.23,0.29c14.8,0.02,29.6,0.01,44.41,0.01c2.76,0,5.49,0.07,8.16-0.99c1.12-0.45,2.48-0.56,3.7-0.46
		c7.56,0.65,15.01-0.56,22.37-1.74c8.1-1.3,16.27-2.19,24.27-4.25c8.7-2.24,17.53-3.98,25.98-7.07c10.56-3.86,21.23-7.5,30.68-13.85
		c6.03-4.05,11.95-8.14,15.77-14.65c2.6-4.42,4.47-8.92,4.35-14.11c6.55,3.26,8,10.11,11.1,15.79c-0.25,2.17-1.89,2.96-3.64,3.63
		l0.03,0.02c-0.46,0.56-0.97,1.08-1.55,1.52l0-0.05c-1.07,1.63-3.1,1.87-4.45,3.1l0,0c-0.52,0.49-1.01,1.02-1.56,1.48l0.03-0.04
		c-1.39,1.19-3.08,1.93-4.51,3.06l0.01-0.01c-0.5,0.51-0.99,1.04-1.57,1.48l0.03-0.04c-0.76,0.97-2.19,0.68-2.99,1.58l0.01,0
		c-0.51,0.55-1.06,1.04-1.68,1.46c-0.45-0.01-0.9,0.03-1.34,0.14c-0.52,0.46-1.02,0.93-1.52,1.41l0.02-0.02
		c-0.78,0.91-2.2,0.6-2.96,1.56l-0.03,0.02c-0.54,0.45-1.02,0.98-1.57,1.43l0.03-0.04c-0.78,0.95-2.2,0.66-3,1.56l0.01-0.01
		c-0.79,0.88-2.21,0.58-2.96,1.54l-0.04,0.02c-0.55,0.45-1.02,0.98-1.58,1.43l0.03-0.04c-0.78,0.96-2.19,0.68-3.02,1.55l0.02-0.02
		c-0.8,0.92-2.2,0.64-3.02,1.54l0.01-0.01c-0.81,0.89-2.21,0.61-3,1.53v0c-0.82,0.86-2.21,0.58-3,1.5l-0.01,0
		c-0.82,0.86-2.21,0.58-3,1.5l-0.01,0.01c-0.83,0.85-2.21,0.59-3.02,1.49l0,0c-0.82,0.87-2.21,0.61-3.03,1.5l0.01-0.01
		c-0.83,0.89-2.21,0.64-3.05,1.49l0.03-0.02c-1.18,1.42-3.31,0.13-4.48,1.57l-0.02,0.01c-0.85,0.84-2.21,0.6-3.06,1.45l0.03-0.02
		c-1.2,1.4-3.31,0.15-4.52,1.54l0.01-0.01c-1.23,1.35-3.31,0.13-4.54,1.5l0.02-0.01c-1.26,1.36-3.34,0.18-4.62,1.48l-0.7-0.01
		l-0.7,0.07c-1.76,1.59-4.33-0.17-6.07,1.47l-0.73-0.01l-0.73,0.06c-3.33,1.87-7.24-0.5-10.56,1.44l0.01-0.02
		c-0.5,0.51-1,0.51-1.5,0c-0.97,0-1.94,0-2.91,0.01c-2.57-1.17-5.14-1.16-7.71,0l-0.7-0.02l-0.7,0.06
		c-4.39,1.96-9.25-0.49-13.64,1.48c-1.98,0.02-3.96,0.03-5.94,0.05c-5.52,1.14-11.03,1.13-16.55,0c-2.98-0.02-5.97-0.04-8.95-0.05
		c-7.96-2.15-16.23,0.68-24.19-1.48c-0.97-0.01-1.94-0.01-2.92-0.02c-5.93-2.03-12.23,0.55-18.16-1.47
		c-0.98-0.01-1.96-0.02-2.94-0.02c-8.47-2.06-17.21,0.58-25.68-1.5l-0.71-0.04l-0.71,0.04c-7.34-1.62-14.78-0.28-22.16-0.76
		c-2.68-0.17-5.46,0.69-8.03-0.71c-1.98-0.01-3.96-0.03-5.94-0.04c-10.11-1.63-20.3-0.26-30.43-0.77
		C236.01,363.29,232.96,364.29,230.18,362.64z"/>
	<path class="st1" d="M380.64,127.82c0.35,0.28,0.74,0.38,1.18,0.31c1.06,0.64,2.47,0.45,3.36,1.47l-0.07-0.04
		c0.89,0.79,2.24,0.59,3.11,1.42l0.02,0.01c0.76,0.94,2.12,0.62,2.96,1.4c0.31,0.28,0.68,0.4,1.1,0.35
		c3.65,0.39,6.57,2.34,9.42,4.45l-0.08-0.06c2.06,0.97,4.5,1.19,6.09,3.1l-0.1-0.1c0.54,0.4,1.07,0.79,1.61,1.18
		c0.33,0.29,0.72,0.41,1.16,0.36c0.73,0.22,1.24,0.78,1.86,1.19c0.31,0.29,0.67,0.4,1.08,0.34c0.77,0.21,1.33,0.75,1.94,1.22
		c0.26,0.28,0.57,0.39,0.95,0.32c1.08,0.21,1.29,0.76,0.65,1.65c-2.84,2-5.84,0.4-8.75,0.32c-10.94-0.32-15.74,4.9-14.31,15.75
		c1.25,9.49,0.07,10.62-8.7,7.04c-15.54-6.36-31.41-11.69-47.62-16.02c-1.45-0.39-2.86-0.9-4.23-1.52
		c-9.51-4.28-14.34-11.65-12.92-19.73c1.41-8.05,9.43-14.23,19.35-14.68c3.02-0.14,5.96-0.64,8.92-1.09
		c1.25-0.07,2.39,0.26,3.45,0.92c0.35,0.25,0.74,0.34,1.17,0.24c1.03,0.63,2.36,0.49,3.34,1.26c0.36,0.26,0.76,0.34,1.2,0.24
		c1.02,0.65,2.35,0.49,3.32,1.26c0.35,0.26,0.74,0.34,1.17,0.25c2.65,0.91,5.74,0.65,7.88,2.93l-0.04-0.02
		c0.83,0.84,2.11,0.61,3.01,1.28c0.39,0.27,0.81,0.37,1.28,0.3c1,0.71,2.37,0.52,3.29,1.4v0
		C378.46,127.4,379.77,127.12,380.64,127.82z"/>
	<path class="st3" d="M547.82,290.53c2.5-0.03,5.01-0.02,7.51-0.11c1.74-0.06,2.78-1.02,2.9-2.78c0.12-1.75,0.1-3.5,0.23-5.25
		c0.03-0.39,0.41-0.97,0.75-1.07c0.38-0.12,1.07,0.06,1.33,0.37c0.78,0.94,1.67,1.91,2.05,3.03c0.39,1.14,0.23,2.47,0.28,3.72
		c0.26,6.04,1.34,7.39,7.24,7.96c2.96,0.29,5.99,0.46,8.94-0.48c6.33-2.03,12.66-1.96,18.98,0.1c0.95,0.31,1.99,0.61,2.83-0.16
		c1.24-1.13,0.32-2.3-0.19-3.36c-1.51-3.16-3.1-6.28-4.64-9.43c-0.77-1.57-1.67-3.12-1.16-4.99c1-0.39,1.9-0.43,2.43,0.73
		l-0.11-0.17c0.81,0.28,1.36,0.82,1.64,1.63l-0.15-0.13c2.45,3.12,5.86,5.42,7.73,9.03l-0.06-0.1c0.69,0.41,1.26,0.93,1.52,1.71
		l-0.17-0.14c1.27,0.53,0.9,2.12,1.84,2.87l0,0c0.5,0.55,1.1,1.01,1.4,1.71l-0.13-0.11c1.41,1.29,2.24,2.96,3.08,4.64l-0.08-0.13
		c1.18,0.66,0.87,2.16,1.71,3.01l-0.04-0.06c0.97,0.74,0.64,2.2,1.63,2.92l0.02,0.04c0.46,0.58,1.04,1.06,1.3,1.78l-0.27-0.18
		c0.72,2.61-1.44,2.33-2.56,2.08c-9.94-2.26-20.16-0.52-30.13-2.18l0.02,0.01c-3.46-1.27-6.28-1.69-4.75,3.61
		c-0.16,0.37-0.09,0.68,0.23,0.93c0.88,0.89,0.68,2.22,1.31,3.21l-0.09-0.14c2.09,1.56,0.03,4.32,1.75,5.99l-0.01-0.03
		c2.82,3.61,1.15,8.31,2.94,12.17l-0.07-0.1c1.52,2.45,2.1,5.26,3.03,7.93c-0.12,0.42-0.02,0.79,0.29,1.1
		c0.72,1.53,1.07,3.04-0.32,4.42l0.08-0.1c-1.14,2.21-0.8,4.44-0.05,6.67c-0.24,0.35-0.21,0.67,0.08,0.97
		c1.72,1.77-0.01,4.36,1.48,6.19l-0.09-0.09c1.08,0.99,1.14,1.95-0.1,2.85l0.18-0.12c-0.33,0.72-0.89,1.23-1.5,1.69l0.07-0.07
		c-0.43,0.53-0.91,0.61-1.45,0.17l-0.47-0.27l-0.54,0.04c-2.9-1.09-5.76-2.24-7.88-4.64l0.12,0.16c-0.75-0.27-1.25-0.85-1.74-1.44
		l0.05,0.03c-3.89-0.81-6.25-3.79-8.95-6.3l0.12,0.16c-0.8-0.26-1.33-0.82-1.7-1.55l0.11,0.12c-0.71-0.35-1.23-0.9-1.67-1.54
		l0.08,0.05c-5.52-3.96-10.14-8.83-14.34-14.13c-0.26-0.64-0.61-1.22-1.05-1.75c-0.23-0.26-0.46-0.52-0.68-0.78
		c-0.46-0.53-0.82-1.12-1.09-1.77c0.14-0.32,0.28-0.64,0.41-0.97c6.66-1.19,11.72,2.23,16.7,5.84c2.33,1.69,3.77,4.58,7.06,5.24
		c1.79-6.19-5.64-10.62-3-16.79c0.44-0.87,1.62,0.23,2.05-0.74c-0.58-0.01-1.11-0.13-1.51-0.63c4.39-10.58,1.14-18.91-10.11-25.82
		c-2.27-2.07-5.05-2.64-8.01-3.04C550.51,293.51,547.73,293.89,547.82,290.53z"/>
	<path class="st1" d="M22.29,270.98c0.25-0.39,0.31-0.81,0.18-1.26c1.17-1.39,0.12-3.42,1.38-4.78c0.26-0.33,0.32-0.69,0.18-1.08
		c0.57-1.08,0.46-2.41,1.26-3.41c0.27-0.34,0.35-0.72,0.24-1.13c0.6-1.08,0.49-2.43,1.34-3.41l0.01-0.02
		c1.47-1.15,0.11-3.34,1.64-4.46l-0.05,0.08c0.78-0.9,0.58-2.25,1.43-3.12l0,0c0.93-0.77,0.61-2.14,1.41-2.97
		c0.29-0.28,0.38-0.62,0.29-1c0.53-1.15,0.36-2.61,1.54-3.47l-0.1,0.17c0.67-0.72,1.32-0.7,1.94,0.07
		c6.4,8.06,3.06,16.38,1.42,25.09c-2.68,14.25-3.14,28.71,2.14,42.69c4.19,11.08,3.74,12.17-7.85,16.71
		c-0.85,0.14-1.57-0.11-2.16-0.72l0.05,0.13c-1.09-0.74-0.83-2.18-1.59-3.08l0.06,0.09c-1.05-0.77-0.81-2.18-1.55-3.11l0.06,0.1
		c-1.61-1.08-0.21-3.31-1.69-4.44l-0.01-0.02c-0.83-1.01-0.76-2.36-1.31-3.48c0.14-0.38,0.08-0.73-0.18-1.04
		c-1.24-1.44-0.34-3.46-1.33-4.97c0.19-0.35,0.16-0.69-0.08-1.01c-1.37-8.53-1.22-17.07-0.1-25.6c0.23-0.41,0.27-0.83,0.11-1.28
		C22.4,275.34,20.88,272.85,22.29,270.98z"/>
	<path class="st4" d="M111.21,361.26c26.76,0.01,53.52-0.01,80.28,0.05c2.41,0.01,5.07-0.79,7.07,1.41c-3.24,0.01-6.48,0-9.72,0.02
		c-5.95,0.05-11.94-0.46-17.75,1.38c-5.79-2.04-11.81-1.33-17.75-1.36c-11.96-0.06-23.92,0.01-35.88-0.04
		C115.31,362.71,112.92,363.34,111.21,361.26z"/>
	<path class="st4" d="M230.18,362.64c10.95,0.06,21.9,0.1,32.85,0.21c2.18,0.02,4.54-0.55,6.33,1.36
		c-15.5,0.01-30.99,0.04-46.49,0.01c-2.17,0-4.57,0.63-6.28-1.47C221.12,362.71,225.65,362.67,230.18,362.64z"/>
	<path class="st4" d="M585.45,307.04c4.45,0.07,8.89,0.23,13.34,0.18c4.96-0.07,9.87,0.27,14.75,1.16c1.63,0.3,3.5,0.78,4.6-1.23
		c1.27,0.78,2.05,2,0.19,2.55c-2.89,0.86-6.1,0.9-8.92,0c-5.45-1.75-10.94-1.22-16.39-0.8C590.14,309.11,587.6,309.22,585.45,307.04
		z"/>
	<path class="st4" d="M28.52,324.93c0.45,0.06,0.89,0.14,1.33,0.25c1.58,0.26,2.61,1.35,3.39,2.56c3.58,5.58,8.87,7.98,15.28,8.38
		c0.65,0.35,1.1,0.87,1.35,1.56c-0.13,0.33-0.27,0.66-0.4,0.99c-0.75,0-1.53-0.13-2.25,0.02c-8.22,1.74-13.03-3.3-17.65-8.77
		C28.31,328.42,28.39,326.69,28.52,324.93z"/>
	<path class="st4" d="M275.3,364.25c8.21,0.02,16.41,0.03,24.62,0.08c1.96,0.01,4.03-0.34,5.57,1.39
		c-8.23,0.01-16.45,0.04-24.68,0.02C278.86,365.73,276.76,366.13,275.3,364.25z"/>
	<path class="st4" d="M552.23,334.34c2.57,3.75,6.04,6.66,9.18,9.87c1.56,1.6,3.06,3.26,4.59,4.9c-1.26,0.01-2.49-0.17-3.42-1.09
		c-3.66-3.65-7.34-7.29-10.9-11.04c-0.61-0.64-0.68-1.8-1-2.73c0.27-0.23,0.54-0.45,0.81-0.68
		C551.74,333.82,551.99,334.08,552.23,334.34z"/>
	<path class="st4" d="M594.34,275.73c-5.09-2.33-8.46-6.63-12.13-10.6c1.22,0.13,2.88-0.21,3.58,0.45
		C588.98,268.65,593.03,271.06,594.34,275.73z"/>
	<path class="st4" d="M20.84,278.48c0.03,8.53,0.07,17.07,0.1,25.6c-0.49-0.81-1.4-1.62-1.41-2.44c-0.12-6.89-0.13-13.78-0.02-20.67
		C19.52,280.14,20.38,279.31,20.84,278.48z"/>
	<path class="st4" d="M306.9,365.72c6.95,0.03,13.91,0.06,20.86,0.1c1.74,0.01,3.51-0.09,4.82,1.4c-6.98,0.01-13.95,0.02-20.93,0.03
		C309.9,367.25,308.12,367.36,306.9,365.72z"/>
	<path class="st4" d="M523.58,223.05c-5.53-2.95-9.38-7.75-13.52-12.23c0.93,0.22,2.13,0.14,2.73,0.7
		C516.64,215.13,521.04,218.23,523.58,223.05z"/>
	<path class="st4" d="M356.59,368.74c6.45,0.03,12.91,0.06,19.36,0.1c1.73,0.01,3.51-0.1,4.82,1.38
		c-6.48,0.01-12.96,0.03-19.43,0.04C359.6,370.26,357.81,370.38,356.59,368.74z"/>
	<path class="st4" d="M537.2,323.53c0.56-1.39,1.57-2.32,2.94-2.88c3.85,1.42,6.74,3.62,6.78,8.18c-0.21,0.28-0.43,0.55-0.64,0.83
		c-1.77-0.08-3.25-0.77-4.11-2.34C541.06,325.31,539.06,324.54,537.2,323.53z"/>
	<path class="st4" d="M34.24,239.2c0.03-5.03,1.56-9.29,6.18-11.95c0.22,0.28,0.44,0.55,0.66,0.83c-0.06,4.86-1.94,8.78-5.92,11.65
		C34.85,239.56,34.55,239.38,34.24,239.2z"/>
	<path class="st4" d="M92.93,168.53c-3.18,2.91-6.07,6.2-10.2,7.88C84.38,171.53,87.79,168.91,92.93,168.53z"/>
	<path class="st4" d="M335.52,367.24c4.7,0.03,9.4,0.05,14.1,0.07c1.51,0.01,2.97,0.16,4.06,1.4c-4.72,0.01-9.44,0.02-14.16,0.03
		C337.99,368.75,336.53,368.6,335.52,367.24z"/>
	<path class="st4" d="M52.7,209.35c-1.67,4.15-4.15,7.73-7.55,10.66C46.92,213.69,48.36,211.65,52.7,209.35z"/>
	<path class="st4" d="M586.84,332.79c-1.54-1.08-1.71-2.86-2.01-4.44c-0.49-2.54-0.63-5.15-0.92-7.74c2.03,0.91,3.04,2.49,3.02,4.71
		C586.91,327.81,586.87,330.3,586.84,332.79z"/>
	<path class="st4" d="M389.73,370.27c5.52,0,11.03,0,16.55,0c-0.58,0.42-1.15,1.18-1.74,1.2c-4.35,0.1-8.71,0.1-13.06,0
		C390.88,371.45,390.31,370.69,389.73,370.27z"/>
	<path class="st4" d="M606.4,289.18c-3.05-2.6-5.98-5.32-7.72-9.03C602.44,282.14,605.75,284.52,606.4,289.18z"/>
	<path class="st4" d="M401.71,137.19c-3.46-0.81-6.6-2.28-9.41-4.45c1.93-0.88,3.73-2.18,5.6,0.4
		C398.96,134.61,401.18,135.11,401.71,137.19z"/>
	<path class="st4" d="M505.51,206.51c-1.85-0.21-2.98-1.59-4.32-2.65c-1.52-1.21-2.68-2.91-4.68-3.47
		c-0.11-0.29-0.21-0.58-0.32-0.87c0.14-0.27,0.29-0.55,0.43-0.82C501.06,199.63,503.49,202.83,505.51,206.51z"/>
	<path class="st4" d="M64.75,194.31c-1.53,3.87-4.41,6.62-7.58,9.13c0.18-0.95,0.06-2.13,0.59-2.8
		C59.73,198.17,61.63,195.54,64.75,194.31z"/>
	<path class="st4" d="M569.05,351.87c3.5,1.36,6.26,3.77,8.95,6.3C572.84,359.16,570.75,355.79,569.05,351.87z"/>
	<path class="st4" d="M105.25,159.64c-2.76,2.42-5.43,4.97-9.03,6.16C98.18,162.22,100.54,159.22,105.25,159.64z"/>
	<path class="st4" d="M580.72,310.65c-1.38-1.71-3.21-4.28-2.11-5.7c1.58-2.03,3.68,1.01,5.73,1.23c0.4,0.04,0.76,0.57,1.13,0.87
		C582.86,306.9,580.87,307.56,580.72,310.65z"/>
	<path class="st4" d="M272.63,108.55c-4.47,1.94-9.19,1.19-13.83,1.22c0.89-1.01,2.05-1.34,3.35-1.33
		C265.64,108.48,269.13,108.52,272.63,108.55z"/>
	<path class="st4" d="M412.22,370.22c1.08-1.23,2.53-1.38,4.04-1.39c3.2-0.02,6.4-0.05,9.6-0.08c-1,1.36-2.45,1.51-3.98,1.51
		C418.66,370.24,415.44,370.23,412.22,370.22z"/>
	<path class="st4" d="M535.82,236.2c-2.71-1.89-5.21-3.98-6.34-7.25C532.72,230.38,535.09,232.57,535.82,236.2z"/>
	<path class="st4" d="M352.06,117.36c-1,0.05-2.01,0.1-3.01,0.15c-2.2,0.35-4.29,0.24-5.91-1.59c-0.19-0.43-0.39-0.86-0.6-1.28
		c1.42-0.06,2.85-0.11,4.27-0.18C349.16,114.35,350.99,115.16,352.06,117.36z"/>
	<path class="st4" d="M579.57,359.42c3.05,0.83,5.57,2.56,7.88,4.64C583.55,364.68,580.91,363.15,579.57,359.42z"/>
	<path class="st4" d="M314.38,109.74c-3.65-0.02-7.38,0.68-10.83-1.18c2.49-0.04,4.98-0.08,7.48-0.12
		C312.31,108.42,313.48,108.74,314.38,109.74z"/>
	<path class="st4" d="M201.56,119.03c-1.71,1.67-3.91,1.45-6.03,1.52C197.99,117.08,198.59,116.93,201.56,119.03z"/>
	<path class="st4" d="M185.02,123.5c-2.73,1.87-5.9,2.33-9.05,2.86c0.96-1.93,2.51-2.89,4.68-2.87
		C182.1,123.51,183.56,123.5,185.02,123.5z"/>
	<path class="st4" d="M112.59,155.03c-2.09,2.13-4.7,3.44-7.37,4.64c0.05-1.65,0.87-2.7,2.34-3.49
		C109.16,155.31,110.83,155.05,112.59,155.03z"/>
	<path class="st4" d="M439.37,368.73c0.85-0.99,1.97-1.37,3.24-1.38c2.44-0.03,4.88-0.04,7.32-0.06c-0.81,1.05-1.92,1.45-3.21,1.46
		C444.27,368.74,441.82,368.73,439.37,368.73z"/>
	<path class="st4" d="M93.13,359.72c2.45,0.02,4.91,0.03,7.36,0.05c1.28,0.01,2.39,0.42,3.24,1.43c-2.46,0-4.93,0.01-7.39,0
		C95.04,361.21,93.93,360.78,93.13,359.72z"/>
	<path class="st4" d="M547.76,249.96c-2.49-1.27-3.98-3.33-4.73-5.97C545.79,245.04,547.68,246.78,547.76,249.96z"/>
	<path class="st4" d="M589.8,340.61c-1.66-2.4-2.96-4.93-3.03-7.93C589.61,334.63,590.12,337.47,589.8,340.61z"/>
	<path class="st4" d="M490.64,194.14c2.98,0.22,4.65,2.17,5.99,4.55c0,0-0.44,0.46-0.44,0.46c-1.92,0.91-3.34-0.07-4.7-1.26
		c-0.73-0.79-1.19-1.71-1.28-2.8C490.35,194.77,490.49,194.46,490.64,194.14z"/>
	<path class="st4" d="M465.04,174.61c3.02,0.16,4.66,2.18,6.04,4.53c-0.29,0.21-0.59,0.43-0.88,0.65c-3.13,0.34-4.74-1.36-5.53-4.14
		C464.79,175.3,464.91,174.95,465.04,174.61z"/>
	<path class="st4" d="M483.09,188.14c3.02,0.18,4.67,2.17,6.04,4.55c-0.3,0.21-0.59,0.43-0.88,0.64c-3.14,0.34-4.73-1.37-5.52-4.16
		C482.85,188.83,482.97,188.49,483.09,188.14z"/>
	<path class="st4" d="M428.99,151.92c3.4-1.62,4.54,1,5.94,3.15c-0.3,0.22-0.6,0.44-0.89,0.66c-2.51,0.44-4.37-0.41-5.45-2.78
		C428.72,152.61,428.86,152.26,428.99,151.92z"/>
	<path class="st4" d="M174.75,126.61c-2.36,1.63-4.99,2.5-7.82,2.81C168.59,125.87,171.76,126.49,174.75,126.61z"/>
	<path class="st4" d="M475.55,182.15c3.04,0.14,4.69,2.14,6.04,4.53c-0.29,0.21-0.59,0.42-0.88,0.64c-3.12,0.33-4.71-1.37-5.51-4.13
		C475.31,182.84,475.43,182.49,475.55,182.15z"/>
	<path class="st4" d="M370.14,123.54c-2.86-0.33-5.49-1.3-7.88-2.93C365.29,120.48,368.53,119.81,370.14,123.54z"/>
	<path class="st4" d="M427.27,368.71c2.57-2.06,5.14-2.01,7.71,0C432.41,368.72,429.84,368.72,427.27,368.71z"/>
	<path class="st4" d="M253.08,110.07c-2.41,1.7-5.14,1.25-7.82,1.17C247.6,109.04,250.44,110.22,253.08,110.07z"/>
	<path class="st4" d="M326.45,111.34c-2.65,0.03-5.36,0.41-7.71-1.33C321.35,110.24,324.21,108.99,326.45,111.34z"/>
	<path class="st4" d="M240.95,111.54c-2.37,1.71-5.09,1.35-7.76,1.29C235.46,110.5,238.32,111.74,240.95,111.54z"/>
	<path class="st4" d="M407.72,140.22c-2.37-0.37-4.46-1.28-6.09-3.1C404.32,136.87,406.71,137.19,407.72,140.22z"/>
	<path class="st4" d="M460.5,171.6c2.18,0,4.35,0.01,4.54,3.01c0,0-0.34,0.4-0.34,0.4c-2.52,1.03-3.82-0.2-4.56-2.46
		C460.26,172.24,460.38,171.92,460.5,171.6z"/>
	<path class="st4" d="M143.29,138.71c-1.83,1.68-3.97,2.69-6.45,3C137.98,138.53,140.52,138.37,143.29,138.71z"/>
	<path class="st4" d="M133.9,143.13c-1.65,1.78-3.71,2.74-6.08,3.1C128.84,143.22,131.22,142.89,133.9,143.13z"/>
	<path class="st4" d="M57.25,203.41c-0.37,1.98-1.46,3.44-3.21,4.43C54.18,204,54.18,204,57.25,203.41z"/>
	<path class="st4" d="M45.23,219.92c-0.14,0.93-0.27,1.87-0.41,2.8c-0.01,1.64-0.44,3-2.28,3.43c-0.26-0.16-0.52-0.31-0.77-0.47
		C41.94,223.16,42.14,220.67,45.23,219.92z"/>
	<path class="st4" d="M436.52,156.43c2.49,0.08,4.81,0.49,5.93,3.16c-0.3,0.22-0.6,0.44-0.9,0.66c-2.5,0.42-4.37-0.42-5.44-2.79
		C436.25,157.11,436.39,156.77,436.52,156.43z"/>
	<path class="st4" d="M573.31,259.12c-2.4-0.4-4.47-1.45-6.24-3.11C569.8,255.76,572.3,255.96,573.31,259.12z"/>
	<path class="st4" d="M577.81,262.09c-1.96-0.36-3.55-1.29-4.59-3.03C577.05,259.03,577.05,259.03,577.81,262.09z"/>
	<path class="st4" d="M531.24,328.12c0.87-1.91,2.35-2.95,4.45-3.1C534.93,327.92,534.93,327.92,531.24,328.12z"/>
	<path class="st4" d="M230.48,113.07c-1.87,1.59-4.11,1.37-6.33,1.27C225.92,112.23,228.29,113.13,230.48,113.07z"/>
	<path class="st4" d="M582.3,265.19c-2.02-0.33-3.5-1.42-4.54-3.17C580.1,261.9,581.69,262.85,582.3,265.19z"/>
	<path class="st4" d="M22.29,270.98c0.05,2.18,0.24,4.39-1.34,6.23C21.05,275.06,20.14,272.69,22.29,270.98z"/>
	<path class="st4" d="M613.88,299.75c-1.75-1.06-2.72-2.64-3.07-4.64C613.12,295.81,614.12,297.37,613.88,299.75z"/>
	<path class="st4" d="M583.92,320.64c-1.64-1.69-1.66-3.84-1.75-5.99C584.78,316.05,583.69,318.54,583.92,320.64z"/>
	<path class="st4" d="M525.2,332.63c0.9-1.91,2.4-2.93,4.51-3.06C528.93,331.65,527.4,332.64,525.2,332.63z"/>
	<path class="st4" d="M589.79,352.71c-1.35-2.23-1.89-4.46,0.05-6.67C589.83,348.26,589.81,350.49,589.79,352.71z"/>
	<path class="st4" d="M451.46,165.58c2.16,0.04,3.66,1.07,4.56,3.03c-0.29,0.21-0.58,0.42-0.87,0.64c-2.16,0.36-3.41-0.65-4.02-2.64
		C451.24,166.27,451.35,165.92,451.46,165.58z"/>
	<path class="st4" d="M591.36,359.87c-1.6-1.8-1.51-4-1.48-6.19C592.2,355.3,591.29,357.7,591.36,359.87z"/>
	<path class="st4" d="M451.4,367.23c1.65-2.02,3.96-1.33,6.07-1.47C455.86,367.96,453.49,367.05,451.4,367.23z"/>
	<path class="st4" d="M333.97,112.81c-1.78,0.16-3.51,0.14-4.92-1.21C330.81,111.51,332.66,111.06,333.97,112.81z"/>
	<path class="st4" d="M339.98,114.25c-1.69,0.17-3.3,0.08-4.57-1.26C337.04,113,338.78,112.64,339.98,114.25z"/>
	<path class="st4" d="M221.57,114.62c-1.42,1.35-3.16,1.36-4.94,1.2C217.95,114.06,219.8,114.52,221.57,114.62z"/>
	<path class="st4" d="M214.04,116.13c-1.41,1.38-3.16,1.38-4.95,1.25C210.38,115.57,212.26,116.02,214.04,116.13z"/>
	<path class="st4" d="M207.78,117.55c-1.32,1.34-2.97,1.42-4.7,1.25C204.32,117.13,206.1,117.51,207.78,117.55z"/>
	<path class="st4" d="M195.58,120.52c-1.23,1.4-2.87,1.47-4.55,1.35C192.17,120.18,193.93,120.52,195.58,120.52z"/>
	<path class="st4" d="M458.86,365.69c1.17-1.64,2.93-1.45,4.62-1.48C462.38,366.05,460.56,365.7,458.86,365.69z"/>
	<path class="st4" d="M463.47,364.22c1.12-1.67,2.87-1.46,4.54-1.5C466.93,364.52,465.14,364.19,463.47,364.22z"/>
	<path class="st4" d="M468,362.72c1.11-1.68,2.86-1.48,4.52-1.54C471.46,363.02,469.66,362.68,468,362.72z"/>
	<path class="st4" d="M475.56,359.73c1.09-1.68,2.83-1.5,4.48-1.57C479.01,360.01,477.21,359.67,475.56,359.73z"/>
	<path class="st4" d="M87.12,358.26c1.67,0,3.42-0.26,4.55,1.44C90.02,359.68,88.24,360.01,87.12,358.26z"/>
	<path class="st4" d="M75.07,355.19c1.66,0.06,3.43-0.2,4.53,1.51C77.94,356.67,76.15,357,75.07,355.19z"/>
	<path class="st4" d="M589.77,346.13c0.11-1.47,0.21-2.95,0.32-4.42C591.8,344.11,591.8,344.11,589.77,346.13z"/>
	<path class="st4" d="M23.86,314.62c1.43,1.15,1.63,2.77,1.69,4.44C23.59,318.11,23.94,316.28,23.86,314.62z"/>
	<path class="st4" d="M21.03,305.09c1.35,1.42,1.39,3.18,1.33,4.97C20.48,308.79,20.92,306.9,21.03,305.09z"/>
	<path class="st4" d="M597.3,278.81c-0.81-0.24-1.62-0.49-2.43-0.73c0,0-0.13,0.25-0.13,0.25c-0.53-0.25-0.72-0.66-0.61-1.23
		c-0.02-0.5-0.01-0.99,0.02-1.48C595.95,275.95,597.01,277,597.3,278.81z"/>
	<path class="st4" d="M23.85,264.94c0.07,1.74-0.02,3.44-1.38,4.78C22.42,267.97,22.03,266.14,23.85,264.94z"/>
	<path class="st4" d="M558.31,252.78c-1.69,0.12-3.31-0.02-4.56-1.36C555.39,251.43,557.15,251.09,558.31,252.78z"/>
	<path class="st4" d="M28.51,251.41c-0.04,1.67-0.21,3.3-1.64,4.46C26.94,254.21,26.6,252.4,28.51,251.41z"/>
	<path class="st4" d="M552.27,251.22c-1.67,0.11-3.36,0.32-4.54-1.3C549.37,249.93,551.1,249.58,552.27,251.22z"/>
	<path class="st4" d="M356.57,118.86c-1.31,0.11-2.48-0.17-3.34-1.26C354.54,117.48,355.78,117.57,356.57,118.86z"/>
	<path class="st4" d="M361.08,120.36c-1.3,0.1-2.45-0.2-3.32-1.26C359.07,118.99,360.31,119.08,361.08,120.36z"/>
	<path class="st4" d="M189.77,122.08c-0.85,1.02-1.96,1.32-3.23,1.17C187.34,122.11,188.52,121.99,189.77,122.08z"/>
	<path class="st4" d="M373.11,124.79c-1.23,0.11-2.26-0.24-3.01-1.28C371.29,123.5,372.4,123.68,373.11,124.79z"/>
	<path class="st4" d="M377.68,126.49c-1.3,0.02-2.46-0.3-3.29-1.4C375.72,125.01,376.95,125.16,377.68,126.49z"/>
	<path class="st4" d="M380.64,127.82c-1.23,0.09-2.24-0.3-2.96-1.33C378.86,126.51,379.96,126.71,380.64,127.82z"/>
	<path class="st4" d="M385.18,129.61c-1.32-0.03-2.53-0.32-3.36-1.47C383.2,128.03,384.48,128.15,385.18,129.61z"/>
	<path class="st4" d="M165.83,129.66c-0.88,1.13-2.11,1.38-3.44,1.34C163.17,129.63,164.45,129.53,165.83,129.66z"/>
	<path class="st4" d="M388.22,130.99c-1.26,0.01-2.37-0.29-3.11-1.42C386.38,129.52,387.53,129.76,388.22,130.99z"/>
	<path class="st4" d="M162.38,131c-0.73,0.99-1.72,1.4-2.94,1.28C160.13,131.2,161.22,131.02,162.38,131z"/>
	<path class="st4" d="M391.19,132.39c-1.24,0.06-2.25-0.35-2.96-1.4C389.43,131.03,390.53,131.25,391.19,132.39z"/>
	<path class="st4" d="M158.09,132.6c-0.81,1.08-1.93,1.41-3.22,1.36C155.62,132.72,156.8,132.53,158.09,132.6z"/>
	<path class="st4" d="M150.6,135.62c-0.81,1.1-1.97,1.42-3.27,1.42C148.04,135.7,149.27,135.54,150.6,135.62z"/>
	<path class="st4" d="M147.34,137.03c-0.72,1.05-1.75,1.44-2.98,1.38C145.03,137.26,146.14,137.04,147.34,137.03z"/>
	<path class="st4" d="M136.93,141.64c-0.69,1.21-1.85,1.47-3.11,1.54C134.41,141.77,135.6,141.57,136.93,141.64z"/>
	<path class="st4" d="M127.9,146.16c-0.67,1.23-1.82,1.53-3.09,1.6C125.36,146.3,126.56,146.09,127.9,146.16z"/>
	<path class="st4" d="M418.42,145.92c1.2,0.13,2.31,0.44,3.06,1.49c-0.21,0.23-0.42,0.45-0.64,0.68c-0.61,0.19-1.22,0.21-1.83,0.03
		c-0.54-0.34-0.92-0.81-1.11-1.43C418.08,146.44,418.25,146.18,418.42,145.92z"/>
	<path class="st4" d="M124.91,147.69c-0.66,1.25-1.81,1.55-3.09,1.62C122.34,147.8,123.55,147.6,124.91,147.69z"/>
	<path class="st4" d="M421.48,147.41c1.17,0.17,2.28,0.47,2.95,1.58c-0.26,0.21-0.52,0.42-0.78,0.64c-1.46,0.1-2.76,0.02-2.33-2.04
		L421.48,147.41z"/>
	<path class="st4" d="M424.43,148.99c1.21,0.1,2.33,0.39,2.97,1.56c-0.25,0.2-0.5,0.4-0.76,0.6c-1.45,0.17-2.58-0.06-2.43-1.92
		L424.43,148.99z"/>
	<path class="st4" d="M120.16,150.53c-0.66,1.11-1.68,1.55-2.92,1.63C117.81,150.9,118.92,150.6,120.16,150.53z"/>
	<path class="st4" d="M117.3,152.13c-0.67,1.18-1.77,1.56-3.03,1.65C114.82,152.38,115.98,152.11,117.3,152.13z"/>
	<path class="st4" d="M444.02,160.97c1.21,0.14,2.32,0.45,2.96,1.62c-0.28,0.2-0.56,0.4-0.84,0.6c-1.13,0.17-1.99-0.17-2.49-1.26
		C443.78,161.61,443.9,161.29,444.02,160.97z"/>
	<path class="st4" d="M448.56,163.96c1.18,0.16,2.28,0.46,2.9,1.62c0,0-0.22,0.29-0.22,0.29c-1.42,0.82-2.44,0.46-3.1-1.03
		C448.28,164.55,448.42,164.25,448.56,163.96z"/>
	<path class="st4" d="M457.6,169.97c1.18,0.16,2.28,0.47,2.9,1.63c0,0-0.25,0.32-0.25,0.32c-1.41,0.75-2.45,0.42-3.07-1.08
		C457.31,170.56,457.45,170.26,457.6,169.97z"/>
	<path class="st4" d="M472.64,180.52c1.19,0.15,2.29,0.45,2.91,1.62c0,0-0.37,0.45-0.37,0.45c-1.39,0.55-2.4,0.21-2.96-1.24
		C472.36,181.08,472.5,180.8,472.64,180.52z"/>
	<path class="st4" d="M591.17,362.63c0.04-0.95,0.07-1.9,0.1-2.85C592.93,361.28,592.93,361.28,591.17,362.63z"/>
	<path class="st4" d="M472.48,361.2c0.68-1.18,1.81-1.44,3.06-1.45C474.87,360.96,473.74,361.21,472.48,361.2z"/>
	<path class="st4" d="M480.01,358.18c0.68-1.19,1.81-1.45,3.05-1.49C482.41,357.94,481.27,358.2,480.01,358.18z"/>
	<path class="st4" d="M81.1,356.77c1.25-0.01,2.36,0.26,3.06,1.43C82.92,358.2,81.78,357.97,81.1,356.77z"/>
	<path class="st4" d="M483.05,356.7c0.67-1.18,1.78-1.47,3.03-1.5C485.43,356.43,484.3,356.69,483.05,356.7z"/>
	<path class="st4" d="M486.07,355.21c0.67-1.18,1.78-1.47,3.02-1.49C488.44,354.93,487.31,355.19,486.07,355.21z"/>
	<path class="st4" d="M72.06,353.73c1.24,0.01,2.36,0.28,3.02,1.47C73.84,355.19,72.72,354.94,72.06,353.73z"/>
	<path class="st4" d="M489.1,353.71c0.66-1.19,1.76-1.48,3-1.5C491.45,353.42,490.33,353.68,489.1,353.71z"/>
	<path class="st4" d="M492.11,352.2c0.66-1.18,1.77-1.47,3-1.5C494.47,351.91,493.35,352.18,492.11,352.2z"/>
	<path class="st4" d="M495.11,350.7c0.66-1.19,1.76-1.49,3-1.53C497.48,350.41,496.36,350.67,495.11,350.7z"/>
	<path class="st4" d="M498.1,349.18c0.66-1.18,1.78-1.48,3.02-1.54C500.49,348.9,499.36,349.17,498.1,349.18z"/>
	<path class="st4" d="M60.02,347.65c1.24,0.05,2.35,0.34,2.99,1.55C61.77,349.16,60.64,348.9,60.02,347.65z"/>
	<path class="st4" d="M501.09,347.66c0.66-1.2,1.78-1.49,3.02-1.55C503.51,347.4,502.37,347.66,501.09,347.66z"/>
	<path class="st4" d="M57.04,344.63c0.49,0.52,0.97,1.03,1.46,1.55c-1.24-0.03-2.37-0.29-3.02-1.5c0.25-0.18,0.51-0.35,0.76-0.53
		C56.51,344.32,56.78,344.47,57.04,344.63z"/>
	<path class="st4" d="M505.69,344.7c0.64-1.18,1.73-1.49,2.96-1.54C508.03,344.38,506.92,344.65,505.69,344.7z"/>
	<path class="st4" d="M508.65,343.16c0.65-1.19,1.76-1.5,3-1.56C511.04,342.88,509.91,343.14,508.65,343.16z"/>
	<path class="st4" d="M513.22,340.18c0.63-1.19,1.73-1.5,2.96-1.56C515.57,339.86,514.45,340.13,513.22,340.18z"/>
	<path class="st4" d="M520.69,335.64c0.65-1.19,1.75-1.51,2.99-1.57C523.09,335.36,521.95,335.62,520.69,335.64z"/>
	<path class="st4" d="M26.98,321.98c1.21,0.68,1.52,1.82,1.59,3.08C27.13,324.51,26.92,323.31,26.98,321.98z"/>
	<path class="st4" d="M25.49,318.96c1.21,0.69,1.49,1.85,1.55,3.11C25.62,321.48,25.41,320.29,25.49,318.96z"/>
	<path class="st4" d="M582.25,314.79c-1.22-0.75-1.36-1.94-1.31-3.21C582.21,312.32,582.41,313.48,582.25,314.79z"/>
	<path class="st4" d="M22.54,311.11c1.09,0.91,1.36,2.14,1.31,3.48C22.48,313.78,22.39,312.49,22.54,311.11z"/>
	<path class="st4" d="M617.09,305.5c-1.1-0.67-1.55-1.69-1.63-2.92C616.74,303.14,617.03,304.26,617.09,305.5z"/>
	<path class="st4" d="M615.5,302.63c-1.18-0.66-1.61-1.74-1.71-3.01C615.28,300.11,615.51,301.3,615.5,302.63z"/>
	<path class="st4" d="M609.53,293.52c-1.17-0.6-1.72-1.6-1.84-2.87C609.18,291.05,609.48,292.21,609.53,293.52z"/>
	<path class="st4" d="M25.29,260.44c0.09,1.33-0.18,2.52-1.26,3.41C23.9,262.51,23.97,261.25,25.29,260.44z"/>
	<path class="st4" d="M26.87,255.9c0.05,1.33-0.23,2.53-1.34,3.41C25.4,257.95,25.51,256.68,26.87,255.9z"/>
	<path class="st4" d="M562.84,254.34c-1.31,0.06-2.47-0.24-3.33-1.32C560.84,252.91,562.08,253.02,562.84,254.34z"/>
	<path class="st4" d="M29.89,248.38c0,1.26-0.29,2.38-1.43,3.12C28.41,250.21,28.65,249.06,29.89,248.38z"/>
	<path class="st4" d="M31.3,245.4c0.03,1.23-0.35,2.26-1.41,2.97C29.92,247.17,30.14,246.06,31.3,245.4z"/>
	<path class="st4" d="M33.13,240.92c-0.03,1.37-0.41,2.58-1.54,3.47C31.45,242.95,31.52,241.59,33.13,240.92z"/>
	<path class="st4" d="M153.91,134.18c-0.47,0.72-1.13,1.11-2,1.11C152.37,134.55,153.05,134.21,153.91,134.18z"/>
	<path class="st4" d="M409.24,141.3c-0.82-0.01-1.38-0.38-1.61-1.18C408.16,140.51,408.7,140.91,409.24,141.3z"/>
	<path class="st4" d="M412.26,142.85c-0.62-0.4-1.24-0.79-1.86-1.19C411.02,142.05,411.64,142.45,412.26,142.85z"/>
	<path class="st4" d="M415.28,144.4c-0.64-0.41-1.29-0.81-1.94-1.22C414.2,143.25,414.85,143.65,415.28,144.4z"/>
	<path class="st4" d="M416.71,146.11c-0.14-0.47-0.29-0.93-0.48-1.38c0.93,0.04,1.65,0.45,2.19,1.2c0,0-0.13,0.17-0.13,0.17
		C417.77,146.53,417.24,146.53,416.71,146.11z"/>
	<path class="st4" d="M121.94,149.18c-0.25,0.87-0.88,1.23-1.73,1.32C120.79,150.06,121.36,149.62,121.94,149.18z"/>
	<path class="st4" d="M427.4,150.56c0.53,0.45,1.06,0.91,1.59,1.36c0,0-0.11,0.14-0.11,0.14c-1.19,0.56-1.62-0.1-1.82-1.14
		L427.4,150.56z"/>
	<path class="st4" d="M114.38,153.66c-0.27,0.83-0.87,1.23-1.71,1.31C113.24,154.54,113.81,154.1,114.38,153.66z"/>
	<path class="st4" d="M434.93,155.07c0.53,0.45,1.06,0.91,1.59,1.36c0,0-0.11,0.14-0.11,0.14c-1.23,0.55-1.64-0.11-1.77-1.19
		C434.64,155.37,434.93,155.07,434.93,155.07z"/>
	<path class="st4" d="M442.45,159.59c0.52,0.46,1.05,0.93,1.57,1.39c0,0-0.13,0.16-0.13,0.16c-1.15,0.48-1.6-0.14-1.81-1.15
		L442.45,159.59z"/>
	<path class="st4" d="M446.98,162.59c0.53,0.46,1.05,0.91,1.58,1.37c0,0-0.11,0.14-0.11,0.14c-1.22,0.51-1.64-0.13-1.75-1.22
		C446.69,162.89,446.98,162.59,446.98,162.59z"/>
	<path class="st4" d="M96.31,165.7c-0.25,0.83-0.84,1.28-1.67,1.45C95.2,166.66,95.75,166.18,96.31,165.7z"/>
	<path class="st4" d="M94.66,167.13c-0.26,0.75-0.76,1.22-1.58,1.3C93.61,168,94.14,167.56,94.66,167.13z"/>
	<path class="st4" d="M456.02,168.61c0.53,0.46,1.05,0.91,1.58,1.37c0,0-0.11,0.14-0.11,0.14c-1.25,0.5-1.66-0.13-1.72-1.25
		C455.76,168.86,456.02,168.61,456.02,168.61z"/>
	<path class="st4" d="M82.82,176.28c-0.18,0.9-0.76,1.39-1.64,1.57C81.41,177,81.96,176.47,82.82,176.28z"/>
	<path class="st4" d="M81.28,177.75c-0.21,0.87-0.78,1.36-1.63,1.57C79.9,178.49,80.44,177.97,81.28,177.75z"/>
	<path class="st4" d="M79.74,179.23c-0.23,0.84-0.78,1.35-1.61,1.56C78.66,180.27,79.2,179.75,79.74,179.23z"/>
	<path class="st4" d="M471.07,179.14c0.52,0.46,1.04,0.92,1.56,1.38c0,0-0.12,0.15-0.12,0.15c-1.23,0.44-1.66-0.17-1.69-1.3
		C470.83,179.38,471.07,179.14,471.07,179.14z"/>
	<path class="st4" d="M78.2,180.72c-0.24,0.82-0.78,1.33-1.59,1.56C77.14,181.75,77.67,181.24,78.2,180.72z"/>
	<path class="st4" d="M76.68,182.21c-0.24,0.81-0.77,1.32-1.58,1.55C75.62,183.24,76.15,182.72,76.68,182.21z"/>
	<path class="st4" d="M75.15,183.7c-0.52,0.52-1.04,1.03-1.56,1.55C74.11,184.74,74.63,184.22,75.15,183.7z"/>
	<path class="st4" d="M73.63,185.2c-0.23,0.8-0.75,1.32-1.55,1.55C72.6,186.24,73.11,185.72,73.63,185.2z"/>
	<path class="st4" d="M72.13,186.71c-0.52,0.52-1.03,1.04-1.55,1.57C71.1,187.75,71.61,187.23,72.13,186.71z"/>
	<path class="st4" d="M481.59,186.67c0.5,0.49,1,0.98,1.5,1.47c0,0-0.22,0.25-0.22,0.25c-1.03,0.18-1.52-0.33-1.68-1.29
		L481.59,186.67z"/>
	<path class="st4" d="M70.64,188.22c-0.23,0.81-0.74,1.34-1.55,1.59C69.6,189.28,70.12,188.75,70.64,188.22z"/>
	<path class="st4" d="M69.16,189.74c-0.22,0.82-0.73,1.37-1.56,1.6C68.12,190.8,68.64,190.27,69.16,189.74z"/>
	<path class="st4" d="M67.68,191.25c-0.21,0.84-0.72,1.39-1.57,1.61C66.34,192.05,66.86,191.51,67.68,191.25z"/>
	<path class="st4" d="M66.2,192.78c-0.2,0.86-0.7,1.43-1.57,1.63C64.84,193.56,65.37,193.02,66.2,192.78z"/>
	<path class="st4" d="M489.13,192.69c0.5,0.48,1,0.97,1.51,1.45c0,0-0.18,0.21-0.18,0.21c-1.11,0.25-1.59-0.28-1.65-1.33
		C488.81,193.02,489.13,192.69,489.13,192.69z"/>
	<path class="st4" d="M437.89,368.71c0.5-0.04,1-0.04,1.5,0C438.89,369.81,438.39,369.76,437.89,368.71z"/>
	<path class="st4" d="M588.46,364.3c0.48-0.13,0.96-0.18,1.45-0.17C589.55,365.18,589.08,365.35,588.46,364.3z"/>
	<path class="st4" d="M589.85,364.2c0.5-0.56,1-1.12,1.5-1.69C591.17,363.36,590.66,363.92,589.85,364.2z"/>
	<path class="st4" d="M577.95,358.14c0.86,0.14,1.51,0.53,1.74,1.44C578.83,359.43,578.26,358.94,577.95,358.14z"/>
	<path class="st4" d="M69.05,352.25c0.53,0.48,1.05,0.96,1.58,1.43C70.11,353.2,69.58,352.72,69.05,352.25z"/>
	<path class="st4" d="M567.48,350.48c0.88,0.17,1.5,0.63,1.7,1.55C568.28,351.88,567.72,351.35,567.48,350.48z"/>
	<path class="st4" d="M66.04,350.74c0.52,0.48,1.04,0.96,1.56,1.44C67.08,351.7,66.56,351.22,66.04,350.74z"/>
	<path class="st4" d="M565.93,349.06c0.86,0.19,1.45,0.66,1.67,1.54C566.75,350.39,566.2,349.88,565.93,349.06z"/>
	<path class="st4" d="M63.02,349.2c0.53,0.49,1.06,0.98,1.59,1.47C64.08,350.18,63.55,349.69,63.02,349.2z"/>
	<path class="st4" d="M58.5,346.19c0.51,0.5,1.02,0.99,1.54,1.49C59.53,347.18,59.02,346.68,58.5,346.19z"/>
	<path class="st4" d="M504.08,346.15c0.53-0.48,1.05-0.95,1.58-1.43C505.13,345.2,504.6,345.67,504.08,346.15z"/>
	<path class="st4" d="M55.48,344.68c-0.5-0.5-1-1-1.51-1.5c0.33-0.06,0.66-0.13,0.99-0.19c0.62,0.41,0.8,0.97,0.54,1.66
		C55.51,344.65,55.48,344.68,55.48,344.68z"/>
	<path class="st4" d="M53.98,343.18c-0.5-0.5-1-1-1.5-1.51c0.33-0.06,0.65-0.12,0.98-0.18c0.6,0.42,0.78,0.98,0.54,1.67
		L53.98,343.18z"/>
	<path class="st4" d="M511.61,341.64c0.52-0.48,1.05-0.96,1.57-1.43C512.66,340.68,512.14,341.16,511.61,341.64z"/>
	<path class="st4" d="M52.48,341.67c-0.5-0.5-1-1-1.51-1.51c0.33-0.06,0.65-0.12,0.98-0.18c0.59,0.42,0.79,0.97,0.55,1.67
		C52.5,341.65,52.48,341.67,52.48,341.67z"/>
	<path class="st4" d="M50.98,340.17c-0.5-0.5-1.01-1-1.51-1.5c0,0,0.03-0.02,0.03-0.02c1.32-0.32,1.79,0.21,1.51,1.5L50.98,340.17z"
		/>
	<path class="st4" d="M516.15,338.64c0.51-0.47,1.01-0.94,1.52-1.41C517.17,337.7,516.66,338.17,516.15,338.64z"/>
	<path class="st4" d="M519.01,337.1c0.56-0.49,1.12-0.98,1.68-1.46C520.13,336.12,519.57,336.61,519.01,337.1z"/>
	<path class="st4" d="M550.68,334.25c-0.49-0.51-0.98-1.03-1.47-1.54c0.26-0.22,0.52-0.43,0.78-0.65c0.26,0.22,0.51,0.44,0.77,0.66
		l-0.02-0.03c0.37,0.29,0.51,0.6,0.42,0.93c-0.09,0.33-0.2,0.5-0.31,0.5C550.84,334.12,550.68,334.25,550.68,334.25z"/>
	<path class="st4" d="M523.64,334.1c0.52-0.49,1.04-0.99,1.57-1.48C524.69,333.11,524.17,333.61,523.64,334.1z"/>
	<path class="st4" d="M549.22,332.71c-0.49-0.52-0.98-1.03-1.47-1.55c0.26-0.17,0.51-0.35,0.77-0.52c0.26,0.16,0.53,0.33,0.79,0.49
		l0.01,0.02c0.3,0.3,0.41,0.6,0.34,0.92c-0.08,0.32-0.16,0.48-0.26,0.48C549.41,332.55,549.22,332.71,549.22,332.71z"/>
	<path class="st4" d="M547.75,331.16c-0.49-0.5-0.98-0.99-1.46-1.49c0,0,0.34-0.33,0.34-0.33c1,0.06,1.57,0.49,1.35,1.59
		C547.98,330.94,547.75,331.16,547.75,331.16z"/>
	<path class="st4" d="M529.68,329.6c0.52-0.49,1.04-0.99,1.56-1.48C530.72,328.62,530.2,329.11,529.68,329.6z"/>
	<path class="st4" d="M535.69,325.07c0.52-0.51,1.03-1.01,1.55-1.52C536.72,324.06,536.2,324.56,535.69,325.07z"/>
	<path class="st4" d="M618.41,307.32c-0.89-0.26-1.24-0.92-1.3-1.78C617.55,306.13,617.98,306.73,618.41,307.32z"/>
	<path class="st4" d="M610.93,295.23c-0.86-0.25-1.28-0.86-1.4-1.71C610,294.09,610.47,294.66,610.93,295.23z"/>
	<path class="st4" d="M607.86,290.79c-0.92-0.21-1.36-0.84-1.52-1.71C607.19,289.34,607.71,289.91,607.86,290.79z"/>
	<path class="st4" d="M598.83,280.27c-0.92-0.17-1.46-0.72-1.63-1.63C598.1,278.81,598.65,279.36,598.83,280.27z"/>
	<path class="st4" d="M565.81,255.67c-0.86-0.01-1.51-0.4-1.98-1.12C564.68,254.59,565.36,254.94,565.81,255.67z"/>
	<path class="st4" d="M543.17,244.08c-0.89-0.19-1.37-0.78-1.56-1.64C542.44,242.68,542.97,243.23,543.17,244.08z"/>
	<path class="st4" d="M541.7,242.53c-0.85-0.22-1.34-0.79-1.55-1.63C540.96,241.17,541.48,241.71,541.7,242.53z"/>
	<path class="st4" d="M540.23,240.97c-0.8-0.26-1.29-0.8-1.49-1.61C539.23,239.9,539.73,240.44,540.23,240.97z"/>
	<path class="st4" d="M34.42,240.86c-0.45,0.12-0.92,0.2-1.39,0.23c0.4-0.63,0.81-1.26,1.21-1.89c0,0,0.13,0.12,0.13,0.12
		c0.36,0.33,0.49,0.67,0.38,1.01C34.65,240.68,34.53,240.86,34.42,240.86z"/>
	<path class="st4" d="M538.76,239.39c-0.79-0.23-1.28-0.75-1.44-1.56C537.8,238.35,538.28,238.87,538.76,239.39z"/>
	<path class="st4" d="M537.28,237.78c-0.77-0.21-1.24-0.69-1.37-1.48C536.37,236.8,536.83,237.29,537.28,237.78z"/>
	<path class="st4" d="M529.61,229.05c-0.9-0.17-1.44-0.71-1.61-1.61C528.87,227.64,529.41,228.18,529.61,229.05z"/>
	<path class="st4" d="M528.1,227.54c-0.9-0.17-1.44-0.71-1.61-1.61C527.37,226.14,527.9,226.67,528.1,227.54z"/>
	<path class="st4" d="M40.42,227.25c0.45-0.53,0.9-1.05,1.36-1.58c0,0,0.15,0.12,0.15,0.12c0.54,1.2-0.12,1.63-1.17,1.79
		L40.42,227.25z"/>
	<path class="st4" d="M526.6,226.04c-0.9-0.17-1.44-0.7-1.61-1.61C525.86,224.63,526.4,225.17,526.6,226.04z"/>
	<path class="st4" d="M525.09,224.53c-0.9-0.17-1.44-0.7-1.61-1.61C524.35,223.13,524.89,223.66,525.09,224.53z"/>
	<path class="st4" d="M510.12,210.87c-0.82-0.22-1.38-0.72-1.61-1.55C509.05,209.84,509.59,210.35,510.12,210.87z"/>
	<path class="st4" d="M508.6,209.41c-0.85-0.2-1.42-0.69-1.63-1.56C507.8,208.06,508.34,208.58,508.6,209.41z"/>
	<path class="st4" d="M54.08,207.78c-0.19,0.83-0.64,1.43-1.51,1.66C53.08,208.89,53.58,208.34,54.08,207.78z"/>
	<path class="st4" d="M507.06,207.95c-0.88-0.18-1.46-0.67-1.64-1.57C506.28,206.57,506.83,207.1,507.06,207.95z"/>
	<path class="st5" d="M51,340.14c-0.5-0.5-1.01-1-1.51-1.5c0-0.5-0.01-0.99-0.02-1.49c0.54-2.14,2.35-3.13,3.97-4.25
		c8.34-5.74,15.01-12.96,20.02-21.78c1.53-2.69,2.77-6.06,6.79-6.18c5.4,1.07,5.96,4.62,4.59,9.08c-0.92,2.97-1.69,5.91,1.22,8.26
		c1.98,1.6,4.21,1.65,6.31,0.34c3.31-2.05,4.62-5.15,4.17-8.99c-0.26-2.28-1.21-4.34-2.14-6.39c-1.27-2.81-1.83-5.72-1.41-8.79
		c0.41-2.95,1.65-5.31,4.8-6.02c3.18-0.71,5.72,0.73,6.64,3.58c2.14,6.62,7.65,8.9,13.27,11.18c6.97,2.83,13.97,5.6,20.96,8.38
		c5.15,2.04,9.83,1.72,13.77-2.53c4.14-4.45,2.21-8.58-0.43-12.96c-2.95-4.89-1.99-6.4,3.79-6.93c10.82-1,19.14,6.86,20.42,19.46
		c0.59,5.74,0.13,11.48-1.12,17.22c7.25-1.29,10.93-5.71,11.33-13.22c0.35-6.7-2.8-11.96-6.56-17.16
		c-6.3-8.71-5.04-12.97,4.74-17.29c4.15-1.83,8.63-2.62,13.06-3.46c2.57-0.49,5.97-0.4,6.7,2.05c1.86,6.25,6.45,4.81,10.7,4.76
		c4.51-0.05,9.03,0.17,13.54-0.13c4.44-0.3,8.28-2.04,7.95-7.08c-0.35-5.28-4.9-5.79-9.03-5.71c-4.58,0.09-8.71,2.19-13,3.56
		c-2.37,0.76-5.48,1.72-6.7-1.08c-1.06-2.44,1.9-3.72,3.66-4.92c6.8-4.63,14.52-6.61,22.58-7.66c22.11-2.86,44.18-6.12,66.58-5.62
		c4.54,0.1,9.02,0.44,13.4,1.63c7.33,1.99,8.83,5.63,5.26,12.14c-0.95,1.73-4.01,3.51-1.46,5.56c1.86,1.5,4.33-0.23,6.2-1.45
		c6.91-4.5,6.28-15.77-1.43-21.14c-6.02-4.19-12.83-6.33-19.87-2.84c-6.81,3.38-13.07,4.42-19.67-0.44
		c-2.67-1.97-6.24-1.63-9.52-1.29c-1.77,0.18-4.16,0.59-3.99,2.63c0.56,6.53-3.71,5.08-7.34,4.85c-11.22-0.73-22.36-2.8-33.71-0.92
		c-8.26,1.37-16.01,3.87-23.58,7.4c-9.37,4.37-13.94,3.08-19.81-5.29c-2.66-3.79-5.74-6.44-10.61-5.4
		c-5.81,1.23-9.73,5.18-12.36,10.16c-1.51,2.86,1.25,3.9,3.5,4.47c4.38,1.1,8.89,1.59,13.29,2.54c3.66,0.79,7.81,1.57,8.42,6.21
		c0.55,4.14-2.57,6.06-5.78,7.88c-4.7,2.68-8.49,8.17-14.46,7.04c-8.95-1.7-18.91-2.48-22.77-13.27c-0.71-1.99-2.04-3.32-4.14-4.02
		c-9.34-3.1-24.18,1.9-29.65,10.06c-5.87,8.76-5.87,8.75-16.02,6.24c-1.46-0.36-2.95-0.6-4.24-1.46c-2-2.12-0.96-4.25,0.29-6.09
		c3.92-5.77,8.17-11.26,14.86-14.16c11.17-0.47,21.08-3.53,28.6-12.58c2.72-3.27,6.82-4.89,10.97-6.23
		c21.51-6.96,43.73-10.94,65.78-15.61c4.25-0.9,8.61-1.17,12.14,2c3.93,3.52,8.01,2.99,11.64,0.19c9.7-7.48,20.18-10.68,32.36-7.6
		c2.89,0.73,6.09,0.13,8.83-1.19c9.12-4.39,18.13-3.51,26.8,0.85c8.1,4.07,16.48,5.32,25.44,5.17c12.73-0.21,15.99,2.99,17.04,15.53
		c0.57,6.81,2.63,12.84,8.63,16.68c4.43,2.84,9.14,3.24,12.94-1.04c3.81-4.29,3.23-8.67-0.91-12.59c-0.91-0.86-1.84-1.7-2.61-2.7
		c-1.27-1.66-2.19-3.48-1.2-5.55c1.2-2.51,3.6-2.65,5.84-2.16c9.05,1.98,16.54,6.58,20.04,15.36c2.68,6.71,5.71,9.57,13.37,7.04
		c5.43-1.79,11.44-0.88,16.76,2.09c1.96,1.09,3.99,2.51,6.27,2.32c6.82-0.57,11.38,2.76,15.13,7.97c2.13,2.96,5.02,5.04,8.84,4.97
		c6.01-0.12,11.24,2.16,16.37,4.87c1.69,0.89,3.5,1.32,5.4,1.44c1.55,0.19,2.98,0.65,4.08,1.83c-0.84,0.48-1.69,1.37-2.53,1.36
		c-5.47-0.05-10.92,0.64-16.42-0.82c-5.47-1.45-10.38,0.47-14.12,4.79c-2.55,2.94-1.93,5.34,1.59,6.93
		c10.91,4.93,22.17,5.85,33.57,2.29c4.54-1.42,9.19-2.26,13.74-3.56c4.21-1.2,7.41,0.78,9.96,3.72c2.59,2.98,3.65,6.53,2.2,10.48
		c-1.16,3.19-3.46,5.53-5.95,7.62c-7.45,6.28-16.41,9.71-25.61,11.99c-6.51,1.61-12.92,0.23-17.3-6.03
		c-1.79-2.55-3.37-2.47-4.49,0.02c-4.37,9.72-12.9,12.77-22.42,13.75c-5.71,0.59-11.54,0.37-17.29,0.01
		c-3.43-0.22-6.86-1.25-10.18-2.25c-2.71-0.81-4.72-2.69-6.1-5.27c-2.4-4.51-1.39-9.02,2.85-11.77c1.26-0.81,2.73-1.3,3.96-2.15
		c2.86-1.97,4.05-5.84,3.35-9.29c-1.6-7.95-8.41-10.69-14.14-11.22c-4.23-0.39-8.53-0.24-12.78-0.05
		c-6.82,0.3-13.38-1.23-19.97-2.56c-4.88-0.99-9.68-2.53-14.6-3.19c-10.48-1.4-19.2,2.19-26,10.3c-0.63,0.75-0.99,1.73-1.41,2.64
		c-0.84,1.76-0.2,3.07,1.61,3.21c1.5,0.11,3.01,0.1,4.51,0.1c4.51,0.01,9.03,0.09,13.54-0.01c9.14-0.22,17.78,2.33,26.38,4.9
		c4.25,1.27,7.31,4.21,9.23,8.29c0.75,1.59,0.62,2.94-0.61,4.08c-1.45,1.36-2.88,2.86-4.6,3.79c-5.94,3.23-11.97,6.28-18.6,7.95
		c-3.01,0.76-3.09,0.8-4.65-2.01c-0.36-0.66-0.69-1.34-0.99-2.02c-2.66-6.06-7.78-8.02-13.88-8.42c-6.59-0.44-12.97,0.57-19.13,2.88
		c-7.06,2.66-14.4,1.93-21.56,1.35c-4.73-0.38-8.96-3.19-11.91-7.22c-3.59-4.89-3.21-10.53-1.76-15.84
		c0.74-2.73,3.61-4.71,6.21-6.31c0.41-0.25,0.97-0.27,1.42-0.47c3.55-1.63,6.65-3.71,6.64-8.16c-0.01-4.7-2.71-7.92-6.29-10.52
		c-0.57-0.42-1.38-0.71-2.09-0.72c-5.47-0.09-11.05-1.02-16.06,2.31c-1.65,1.09-3.71,1.54-5.04,3.17c-0.23,1.92,0.71,3.51,1.81,4.79
		c1.99,2.31,2.11,4.92,2.16,7.73c0.05,2.74-1,4.78-2.94,6.6c-3.63,3.39-7.18,3.06-10.03-1.12c-0.7-1.03-1.17-2.21-1.8-3.3
		c-4.36-7.49-10.11-9.63-18.38-7c-2.9,0.92-5.74,1.88-7.7,4.36c-0.41,0.52-0.72,1.38-0.61,2.01c0.13,0.79,1.04,1.02,1.76,0.79
		c4.71-1.49,8.95,0.36,12.84,2.4c4.63,2.44,8.55,5.76,11.5,10.44c3.8,6,6.04,12.62,8.91,18.98c0.66,1.47,0.12,3.29-1.32,3.95
		c-6.64,3.03-13.58,4.69-20.9,3.04c-1.8-0.41-2.86-1.83-2.95-3.88c-0.17-3.88,0.71-7.31,3.18-10.46c3.1-3.94,2.87-7.23-1.05-10.22
		c-4.9-3.74-10.16-6.07-16.73-3.57c-4.95,1.88-9.54,4.4-14.29,6.65c-2.05,0.97-2.76,2.73-2.76,4.92c0,3.5,1.64,6.21,3.96,8.64
		c2.07,2.16,4.42,4.07,5.63,6.97c1.12,2.68,0.96,4.2-1.07,6.05c-2.09,1.91-4.51,3.37-7.38,3.27c-6.97-0.23-13.95,0.78-20.93-1.05
		c-3.54-0.93-7.48-0.31-11.23-0.38c-2.26-0.04-4.53,0.1-6.77-0.1c-3.28-0.3-5.43-2.56-5.81-5.84c-0.11-0.99-0.14-2.01-0.05-3
		c0.31-3.46-0.74-6.19-3.27-8.75c-2.84-2.87-6.25-4.03-9.94-4.75c-2.09-0.4-3.87,0.84-5.6,1.83c-1.89,1.08-2.25,2.53-1.11,4.34
		c1.86,2.94,3.93,5.68,5.25,9.01c1.3,3.28,0.62,5.81-1.1,8.43c-1.44,2.19-3.61,3.46-6,4.31c-3.26,1.16-6.64-1.15-6.79-4.73
		c-0.14-3.25-0.15-6.52-0.02-9.77c0.1-2.57-0.89-4.25-3.19-5.37c-3.85-1.87-7.73-3.57-12.1-3.64c-3.14-0.04-4.14,0.82-4.25,3.84
		c-0.13,3.5-0.02,7.02-0.2,10.52c-0.11,2.1-1.59,3.11-3.62,2.48c-5.73-1.78-11.44-3.64-17.12-5.58c-1.7-0.58-3.08-1.68-3.18-3.76
		c-0.1-2.18-1.31-3.71-2.97-4.99c-1.93-1.5-4.42-0.81-4.4,1.54c0.05,4.38-2.36,7-5.63,9.09c-2.35,1.51-4.93,2.6-7.8,1.23
		c-1.27-0.61-2.38-0.63-3.28,0.6c-0.51,0.01-1.02,0.01-1.53,0.02c-0.5-0.5-1.01-1-1.51-1.49c-0.5-0.5-1-1.01-1.5-1.51
		C52,341.15,51.5,340.64,51,340.14z"/>
	<path class="st3" d="M104.91,269.29c-6.26,5-11.67,10.71-15.11,18.07c-1.82,6.95-5.31,12.93-10.38,18.01
		c-1.61,2.46-3.32,4.87-4.81,7.4c-6.14,10.45-14.17,18.93-25.14,24.39c-8.24,1.77-13.85-1.89-17.9-8.71
		c-0.63-1.06-1.15-2.18-1.72-3.27c2.22-2.54,5.55-3.25,8.27-4.98c1.88-1.2,2.26-2.34,1.37-4.4c-0.6-1.37-1.39-2.66-1.97-4.05
		c-2.79-6.72-4.97-13.58-4.63-21c0.03-0.75,0.05-1.5,0-2.25c-0.85-12.62,0.86-24.87,5.11-36.79c0.85-2.38,0.65-2.49-2.42-2.49
		c-2.13,0-2.85-0.71-2.33-2.55c0.55-1.92,1.43-3.74,1.17-5.82c-0.01-0.51-0.03-1.02-0.04-1.53c2.65-3.63,4.74-7.56,6.39-11.74
		c0.39-0.6,0.78-1.19,1.17-1.79c0.97-1.03,1.93-2.05,2.9-3.08c1.53,0.96,1.73,2.35,1.17,3.9c-0.74,2.06-2.22,4.69,0.4,5.81
		c2.33,1,2.95-2.09,3.94-3.63c6.25-9.73,14.11-18.1,22.77-25.59c9.01-7.8,18.82-14.64,28.95-20.96c3.37-2.11,6.88-4.01,10.31-6.03
		c1.54-0.91,1.5-1.47-0.18-3.37c-0.33-0.37-0.64-0.76-0.95-1.14c6.93-7.36,14.73-12.89,25.54-12.05c0.49,3.81,0.53,3.93,3.09,3.05
		c8.01-2.73,15.93-5.76,24-8.31c11.85-3.74,23.92-6.55,36.22-8.58c5.05-0.84,10.5-0.53,15.15-3.36
		c-0.26-13.05,12.69-26.76,25.34-27.69c0.47,1.68-1.27,1.7-1.92,2.49c-0.78,0.97-1.83,1.71-2.61,2.68
		c-5.26,6.47-3.54,12.26,4.59,15.62c1.28-0.96,2.33-0.1,3.42,0.42c0.8,0.48,1.54,1.05,2.18,1.74c0.15,0.27,0.3,0.54,0.44,0.82
		c2.12,2.57,5,3.03,8.11,3.01c5-0.05,10.01,0.11,15.02-0.03c9.51-0.25,18.82,1.29,28.18,2.67c4.17,0.62,8.39,0.97,12.54,1.8
		c0.94,0.19,1.98,0.13,2.93-1c-1.27-3.27-2.74-6.68-3.92-10.19c-1.83-5.45-0.21-9.77,4.71-12.68c3.67-2.18,7.65-3.71,11.83-4.57
		c5.62-1.15,11.29-1.95,17.06-1.63c2.14-0.1,4.1,0.45,5.91,1.59c-1.99,2.27-4.67,1.44-7.06,1.39c-5.23-0.1-9.81,1.47-13.94,4.56
		c-4.03,3.01-6.31,6.83-6.14,12.08c0.13,3.76,1.54,6.78,4.16,9.31c3.29,3.16,7.07,5.57,11.53,6.67
		c17.97,4.43,35.38,10.5,52.33,17.91c0.45,0.2,0.94,0.32,1.42,0.46c0.99,0.29,2.04-0.61,1.8-1.59c-0.36-1.45-0.67-2.94-1.23-4.32
		c-0.88-2.18-0.78-4.44-0.65-6.67c0.43-7.6,5.18-12.32,12.88-12.72c2.97-0.16,5.98-0.36,8.87,0.96c1.08,0.49,2.45,0.38,3.68,0.54
		c0.53,0,1.06-0.01,1.59-0.01c0.48,0.54,0.96,1.08,1.45,1.62c-0.64,4.04-4.04,2.86-6.44,3.23c-7.53,1.15-10.68,5.78-8.68,13.22
		c1.83,6.78,5.29,12.36,11.86,15.56c16.65,8.09,32.39,17.77,47.86,27.88c2.52,1.65,3.92,2.41,5.03-1.68
		c3.17-11.78,11.91-14.96,22.96-8.81c1.29,0.68,2.58,1.36,3.86,2.04c0.08,0.42,0.19,0.83,0.33,1.23c-1.04,1.37-2.56,1.46-4.04,1.31
		c-4.38-0.43-7,2.17-8.98,5.43c-2.89,4.77-2.64,9.88-0.73,14.96c0.26,0.68,0.55,1.58,1.11,1.89c3.38,1.92,5.47,5.81,9.74,6.33
		c0.29,0.01,0.59,0.03,0.88,0.03c0.57,0.15,1.1,0.4,1.59,0.73c0.68,0.6,1.24,1.24,0.56,2.19c0.23,0.44,0.36,1.06,0.72,1.28
		c4.69,2.93,8.04,7.41,12.46,10.65c0.8,0.59,1.77,0.99,2.47,1.67c11.96,11.66,24.86,22.32,36.22,34.6c1.22,1.32,2.31,2.63,2.27,4.54
		l0.02-0.02c-8.15-6.16-15.79-12.93-23.62-19.48c-5.73-4.79-10.74-10.39-16.97-14.64c-4.5-3.07-8.27-7.19-12.54-10.63
		c-5.23-4.22-10.57-8.32-15.99-12.29c-2.89-2.12-6.05-2.09-9.15-0.14c-4.75,2.99-7.53,6.94-7.63,12.86
		c-0.17,10.02,4.18,17.2,12.75,22.02c5.66,3.18,11.25,6.55,17.13,9.26c14.95,6.9,29.95,13.74,46.46,16.25
		c2.2,0.33,4.23,1.57,6.56,1.34c0.8,1.02,1.88,1.44,3.14,1.46c1.93,0.03,3.85,0,5.78,0.06c2.87,0.09,4.41,1.59,4.62,4.46
		c0.77,3.68-1.93,5.36-4.31,6.99c-9.77,6.69-21.03,5.1-28.86-3.94c-10.68-7.82-22.28-14.15-33.8-20.58
		c-0.63-0.35-1.42-0.43-2.13-0.64c-4.15-0.14-7.65-2.15-11.21-3.95c-30.89-15.55-61.79-31.11-94.2-43.35
		c-26.14-9.88-52.94-16.48-81-18.52c-53.1-3.87-102.8,8.49-151.19,28.97C136.96,248.98,121.02,259.2,104.91,269.29z"/>
	<path class="st2" d="M104.91,269.29c3.35-4.55,8.19-7.32,12.69-10.46c8.45-5.9,17.61-10.59,26.94-14.92
		c15.92-7.38,32.15-14.02,48.94-19.18c15.56-4.77,31.29-8.78,47.44-11.16c9.41-1.39,18.82-2.49,28.32-3.15
		c6.75-0.47,13.47-1.22,20.24-1c10.5,0.36,20.96,1.23,31.4,2.5c28.1,3.4,54.66,12.05,80.66,22.79
		c25.97,10.73,51.14,23.15,76.18,35.85c4.89,2.48,10.14,4.33,14.51,7.79c-1.53,1.28-3.19,2.43-4.56,3.86
		c-3.06,3.19-6.46,5.54-11.12,5.38c-1.08-0.04-1.87,0.6-2.52,1.4c-1.5,0-3,0-4.5-0.01c-1.22-1.4-3.29-0.15-4.54-1.45
		c-0.96-0.25-2.05-0.29-2.87-0.79c-4.85-2.95-10.02-4.41-15.74-3.79c-2.13,0.23-3.9-0.61-5.39-2.13c-1.74-1.79-3.63-3.43-4.82-5.72
		c-1.2-2.32-3.23-3.75-5.59-4.79c-1.18-0.52-2.51-1.13-3.59-0.5c-3.28,1.91-5.53,0.1-8.17-1.54c-7.07-4.4-14.56-4.65-22.23-1.56
		c-4.19,1.69-6.43,0.71-8.2-3.51c-0.48-1.15-0.86-2.35-1.23-3.54c-3.24-10.25-11.24-14.75-20.9-17.17c-1.17-0.29-2.56-0.12-3.18,1.3
		c-0.57,1.32-0.07,2.53,0.86,3.4c1.27,1.18,2.76,2.12,4.08,3.25c3.47,2.96,4.51,7.37,2.82,11.53c-3.61,8.92-12.27,9.34-18.6,5.07
		c-5.75-3.88-8.45-9.71-9.13-16.51c-0.17-1.74-0.08-3.5-0.05-5.26c0.1-6.16-3.99-10.45-10.24-10.44c-3.76,0-7.53-0.16-11.27,0.05
		c-5.42,0.31-10.37-1.06-15.21-3.32c-3.39-1.58-6.95-2.79-10.4-4.23c-5.66-2.36-11.36-2.17-16.73,0.46
		c-5.97,2.92-11.88,3.01-18.2,1.55c-6.31-1.46-12.4-0.71-17.82,3.35c-2.4,1.79-5.12,3.15-7.49,4.97c-2.09,1.61-4.58,2-6.91,2.8
		c-2.3,0.79-4.68,0.25-5.82-2.12c-1.62-3.34-4.38-3.89-7.52-3.51c-3.46,0.41-6.91,0.93-10.31,1.66c-9.73,2.11-19.39,4.61-29.17,6.49
		c-10.81,2.08-21.25,5.38-31.81,8.33c-3.27,0.91-5.7,3-8.33,4.86c-0.81,0.57-1.53,1.32-2.14,2.1
		C126.26,267.7,116.22,270.13,104.91,269.29z"/>
	<path class="st1" d="M528.18,299.56c1.03,0.69,2.17,1.25,3.06,2.08c4.66,4.37,10.38,4.68,16.08,3.64
		c5.67-1.04,11.07-3.13,14.04-8.78c2.34-0.17,4.42,0.37,5.95,2.29c4.5,5.68,7.76,11.95,8.86,19.19c0.15,0.99-0.3,1.97-1.43,2.28
		c-0.71,0.2-1.47,0.18-2.17,0.39c-1.88,0.58-0.87,1.87-0.67,2.96l0.01-0.02c-1.14,0.81-1.67,1.91-1.19,3.23
		c0.51,1.41,1.16,2.77,1.85,4.1c1.27,2.46,2.35,4.94,2.62,7.76c0.16,1.65,1.79,3.16,0.51,4.94c-0.77,1.08-3.27,0.33-5.89-1.94
		c-1.7-1.47-3.27-3.1-4.84-4.73c-1.96-2.04-4.23-3.71-7-4.11c-2.34-0.34-4.25-1.2-6.12-2.55c-0.9-0.65-1.88-0.11-2.52,0.81
		c-0.45-0.04-0.89-0.1-1.33-0.18c-0.45-0.53-0.9-1.06-1.35-1.59c-1.43-3.44-4.35-5.77-6.48-8.69c-3.47-5.52-6.94-11.03-10.41-16.54
		C529.22,302.6,528.7,301.08,528.18,299.56z"/>
	<path class="st6" d="M504.15,252.88c-2.63-0.14-4.78-1.46-6.76-3.01c-2.85-2.24-6.25-3.2-9.59-4.16c-4.17-1.2-7.89,0.7-10.07,4.62
		c-0.66,1.18-0.67,2.43-0.08,3.6c0.9,1.78,1.9,3.51,2.88,5.3c-1.11,1.49-2.19,0.31-3.08-0.21c-6.23-3.63-9-11.69-6.27-18.03
		c1.59-3.7,4.42-5.24,8.47-4.43c1.71,0.34,3.51,0.72,5,1.56c7.16,4.03,14.75,7.55,19.49,14.79L504.15,252.88z"/>
	<path class="st7" d="M496.66,233.27c-0.51-0.48-1.01-0.97-1.52-1.45c-0.5-0.51-1-1.02-1.52-1.51c0,0,0.01,0,0.01,0
		c-0.03-1.58-0.9-2.77-1.71-4.05c-2.77-4.42-3.27-9.34-2.71-14.39c0.39-3.47,3.24-5.92,6.74-5.57c3.76,0.38,7.56,1.11,8.21,5.96
		l-0.01,0.02c-1.75-0.01-3.5-0.11-5.24-0.01c-3.98,0.24-5.06,1.49-5.29,5.67c-0.17,3.06,0.26,5.96,1.87,8.63
		c1.03,1.7,2.2,3.36,2.94,5.19C498.96,233.11,497.6,233.15,496.66,233.27z"/>
	<path class="st3" d="M550.81,286c0.21,0.11,0.62,0.26,0.6,0.33c-0.11,0.5-0.34,0.38-0.59-0.34C550.82,285.99,550.81,286,550.81,286
		z"/>
	<path class="st3" d="M594.13,277.1c0.49,0.27,0.69,0.68,0.61,1.23c-0.32-0.22-0.66-0.44-0.96-0.69
		C593.76,277.62,594.01,277.29,594.13,277.1z"/>
	<path class="st6" d="M504.14,252.9c0.21,0.21,0.41,0.41,0.62,0.62c-0.13-0.04-0.31-0.03-0.38-0.12c-0.11-0.14-0.15-0.34-0.23-0.52
		C504.15,252.88,504.14,252.9,504.14,252.9z"/>
	<path class="st7" d="M504.15,212.25c0.2,0.21,0.41,0.42,0.61,0.63c-0.13-0.03-0.31-0.02-0.38-0.11c-0.12-0.14-0.16-0.33-0.24-0.5
		C504.14,212.27,504.15,212.26,504.15,212.25z"/>
	<path class="st8" d="M142.72,151.99c0.12-2.43,1.87-3.83,3.33-5.45c1.95-2.15,4.45-3.8,5.85-6.44l0.01-0.01
		c4.04-0.68,7.24-3.31,10.94-4.76c1.33-0.53,2.55-1.71,4.56-0.51c-5.9,4.05-12.52,7.06-16.24,13.46c1.52,0.96,2.64,0.36,3.82-0.04
		c10.39-3.51,20.97-6.39,31.62-8.97c3.86-0.93,7.8-1.53,11.72-2.16c0.95-0.15,1.99,0.08,2.94,0.31c0.34,0.08,0.75,0.66,0.79,1.04
		c0.03,0.39-0.27,1.06-0.58,1.18c-1.87,0.68-3.74,1.43-5.69,1.81c-11.48,2.29-22.84,5.07-34,8.6c-3.54,1.12-7.13,2.05-10.04,4.63
		c-0.61,0.54-1.92,0.31-2.9,0.44C147.66,152.41,144.35,153.85,142.72,151.99z"/>
	<path class="st9" d="M109.74,171.69c-5.99,4.48-11.93,9.04-18.01,13.4c-4.07,2.92-7.19,7.01-11.68,9.38
		c-1.1,0.58-2.18,1.22-3.34,1.64c-0.87,0.32-1.42-0.38-1.51-1.15c-0.39-3.3,1.46-5.67,3.39-8.04c2.74-3.37,6.48-5.53,9.88-8.04
		c4.62-3.4,9.69-6.18,14.63-9.14c1.04-0.62,2.33-0.83,3.51-1.23C109.15,168.09,110.19,169.16,109.74,171.69z"/>
	<path class="st10" d="M243.66,137.1c-1.01-0.52-2.01-1.03-3.02-1.55c-0.7-1.02-1.37-2.08-2.12-3.07
		c-3.93-5.24-1.88-9.52,2.65-12.81c3.85-2.8,8.38-4.6,13.16-5.09c3.91-0.4,7.88-0.08,12.01-0.08c-0.98,2.13-2.83,1.28-4.08,1.95
		c-1.08,0.58-2.38,0.74-3.53,1.21c-4.19,1.71-8.3,3.54-11.11,7.35c-3.47,4.71-2.95,7.58,2,11.25c0.58,0.43,1.17,0.85,1.96,1.42
		c-1.58,1.48-3.35,0.59-4.89,0.87c0,0,0.01,0,0.01,0C245.92,137.56,244.51,137.93,243.66,137.1z"/>
	<path class="st11" d="M112.76,164.19c-0.7-0.52-0.97-1.26-0.35-1.87c1.41-1.41,2.82-2.86,4.44-4c4.08-2.87,8.19-5.74,12.46-8.32
		c5.14-3.09,10.45-5.89,15.71-8.76c0.8-0.44,1.65-1.31,3.09-0.03c-1.84,1.93-3.65,3.89-5.52,5.8c-1.42,1.45-2.86,2.85-2.77,5.1
		c0.46,1.88-0.81,2.88-2.14,3.49c-7.05,3.24-14.12,6.45-21.4,9.18C115.07,165.23,113.82,165.09,112.76,164.19z"/>
	<path class="st12" d="M112.76,164.19c5.72-2.4,11.53-4.6,17.11-7.26c3.32-1.59,7.35-1.76,9.95-4.82c0.55,0.05,1.09,0.1,1.64,0.15
		c1.14,1.49,1.04,2.94-0.15,4.36c-0.92,1.89-3.66,1.07-4.53,3.03c-7.27,1.31-13.39,5.25-19.77,8.6c-1.98,1.04-3.85,2.29-5.77,3.45
		c0,0-0.75-0.03-0.75-0.03s-0.75,0.01-0.75,0.01c-0.59-1.5-1.66-2.53-3.13-3.16C108.66,167.08,110.71,165.64,112.76,164.19z"/>
	<path class="st13" d="M141.31,156.63c0.05-1.45,0.1-2.91,0.15-4.36c0.42-0.11,0.84-0.2,1.26-0.27c0.96-0.19,1.92-0.36,2.88-0.58
		c3.51-0.82,4.08-0.18,3.27,3.71c0,0,0,0,0,0c-1.27,1.26-3.3,0.09-4.56,1.42C143.31,156.56,142.31,156.59,141.31,156.63z"/>
	<path class="st8" d="M144.3,156.53c1.14-1.69,2.88-1.45,4.55-1.42C147.73,156.85,145.98,156.58,144.3,156.53z"/>
	<path class="st11" d="M151.9,140.1c-0.21-0.21-0.41-0.42-0.62-0.63c0.13,0.04,0.29,0.04,0.37,0.12c0.12,0.14,0.18,0.33,0.27,0.5
		C151.92,140.09,151.9,140.1,151.9,140.1z"/>
	<path class="st14" d="M336.42,147.82c-4.02-2.04-6.22-4.41-8.01-7.09c-2.79-4.19-2.46-8.44,0.41-12.63
		c3.49-5.09,12.94-8.84,19.37-5.72c1.95,0.94,4.07,1.64,6.47,4.1c-3.53,0-5.96,0.05-8.38-0.01c-3.75-0.1-6.78,1.41-9.43,3.93
		c-3.59,3.42-5.28,7.24-2.81,12.08C334.77,143.9,335.35,145.41,336.42,147.82z"/>
	<path class="st1" d="M550.84,334.12c-0.05-0.47-0.09-0.95-0.1-1.43c0.81,0.26,1.31,0.81,1.49,1.65
		C551.77,334.27,551.3,334.2,550.84,334.12z"/>
	<path class="st1" d="M549.41,332.55c-0.05-0.47-0.08-0.93-0.08-1.4c0.77,0.26,1.26,0.77,1.43,1.58
		C550.31,332.67,549.86,332.61,549.41,332.55z"/>
	<path class="st1" d="M571.89,323.62c0.21,0.11,0.61,0.27,0.6,0.33c-0.11,0.5-0.34,0.37-0.58-0.35
		C571.9,323.6,571.89,323.62,571.89,323.62z"/>
	<path class="st1" d="M492.33,197.11c-3.23-0.19-6.21-1.66-9.57-1.46c-4.67,0.28-7.97,2.57-10.7,6.06
		c-0.99,1.27-0.99,2.78-1.04,4.28c-0.07,1.99-0.12,3.99-0.28,5.97c-0.07,0.94-1.64,1.6-2.36,0.95c-4.68-4.21-10.38-6.89-15.55-10.36
		c-9.97-6.67-20.35-12.65-31.11-17.97c-2.68-1.32-5.1-3.19-7.83-4.38c-8.24-3.6-10.24-11.26-11.9-18.75
		c-1.4-6.34,4.07-12.05,10.66-12.43c2.4-0.14,5.06,0.89,7.1-1.31c0.52-0.04,1.05-0.08,1.57-0.12c0.64,1.12,1.72,1.47,2.9,1.64
		c0.64,1.09,1.72,1.43,2.85,1.68c0.6,0.38,1.21,0.76,1.81,1.14c1.53,1.79,3.54,2.73,5.76,3.31c0.59,0.4,1.18,0.8,1.77,1.19
		c1.54,1.73,3.49,2.77,5.67,3.42c0.6,0.38,1.21,0.77,1.81,1.15c0.59,1.13,1.64,1.53,2.8,1.75c0.58,0.41,1.17,0.81,1.75,1.22
		c0.6,1.12,1.63,1.55,2.8,1.77c1.12,1.58,2.64,2.57,4.52,2.99c0.33,0.76,0.92,1.16,1.72,1.26c0.59,1.11,1.6,1.57,2.76,1.81
		c1.1,1.58,2.6,2.59,4.45,3.08c1.68,1.98,3.57,3.64,6.13,4.37c0.31,0.76,0.88,1.18,1.69,1.3c0.53,1.14,1.55,1.59,2.66,1.92
		c1.68,1.93,3.54,3.62,6.01,4.51c0.56,0.43,1.12,0.86,1.68,1.29c1.52,2.13,3.46,3.72,5.94,4.63c0.55,0.44,1.1,0.89,1.65,1.33
		C491.08,195.27,491.7,196.19,492.33,197.11z"/>
	<path class="st15" d="M79.42,305.36c2.88-6.34,6.01-12.53,10.38-18.01c4.33-0.16,8.4,0.95,12.44,2.37c2.1,0.74,3.42,0.13,4.1-1.99
		c0.93-2.9,2.22-5.47,4.14-7.89c4.56-5.75,10.98-7.72,17.68-8.74c4.17-0.64,8.51-0.15,12.77-0.13c2.57,0.01,4.25,1.22,4.89,3.78
		c0.55,2.18,1.04,4.37,1.75,6.5c0.3,0.88,0.95,1.8,1.71,2.33c0.89,0.62,1.84,0.1,2.65-0.63c1.16-1.04,2.04-0.66,3.1,0.47
		c6.3,6.65,11.4,7.56,19.37,3.3c3.96-2.11,7.92-4.34,10.83-7.93c1.89-2.32,1.27-5.04-1.59-6.01c-2.57-0.88-5.19-1.6-7.97-1.95
		c-4.92-0.63-9.79-1.81-14.59-3.08c-2.88-0.76-3.46-2.58-1.96-5.18c2.67-4.64,6.38-8.5,10.94-11.1c5.42-3.08,12.38-2.78,16.21,4.04
		c0.24,0.44,0.42,0.91,0.67,1.34c4.16,7.2,8.48,8.64,16.12,5.03c4.98-2.36,9.87-4.91,15.26-6.23c5.57-1.36,11.16-2.74,16.91-2.7
		c6.72,0.05,13.45-0.54,20.16,1.21c4.01,1.05,8.45-0.3,12.5,1.38c0.53-1.76-0.83-2.35-1.45-3.32c-1.13-1.75-0.95-2.75,0.82-3.56
		c6.03-2.78,12.06-2.81,18.02,0.27c0.44,0.23,0.84,0.55,1.22,0.88c3.67,3.19,7.5,3.66,11.56,0.74c0.4-0.29,0.9-0.43,1.34-0.68
		c8.71-5.08,16.92-2.82,24.77,1.97c5.43,3.32,8.4,12.78,6.23,18.72c-1.7,4.63-7.67,8.87-12.89,8.89c-1.14,0-2.41-0.7-3.39-1.39
		c-1.12-0.79-1.34-2.15-0.62-3.34c0.63-1.06,1.53-1.96,2.34-2.91c0.81-0.95,1.76-1.8,2.48-2.81c2.76-3.88,1.59-7.68-2.96-8.36
		c-4.91-0.73-9.72-2.17-14.84-1.8c-5.24,0.38-10.52,0.08-15.79,0.09c-3,0.01-6.02-0.21-8.89,1.04c-0.66,0.29-1.49,0.42-2.21,0.35
		c-7.06-0.7-13.97,0.84-20.85,1.76c-9.1,1.22-18.31,1.81-27.3,4.04c-6.22,1.55-11.57,4.41-17.12,8.57c2.08,1.05,3.59,0.75,5.08,0.04
		c3.85-1.84,7.9-2.98,12.02-4.11c4.7-1.28,8.34,0.47,11.92,2.74c2.32,1.47,2.65,7.03,0.72,9.69c-1.97,2.72-4.35,4.68-8.12,4.53
		c-5.26-0.22-10.53-0.09-15.79-0.08c-3.21,0.01-6.45-0.32-9.3,1.12c-0.45-0.48-0.75-0.65-0.75-0.83c0.1-7.79-0.74-8.53-7.83-6.77
		c-4.11,1.02-8.22,2.08-12.32,3.14c-1.45,0.37-2.89,0.72-4.11,1.73c-2.12,1.77-2.95,4.1-2.02,6.7c0.67,1.89,1.69,3.59,3.01,5.16
		c1.76,2.1,3.54,4.26,4.86,6.64c3.42,6.19,4.02,12.75,1.35,19.35c-2.37,5.85-7.47,8.48-13.17,10.18c-0.87,0.26-2.08-0.9-1.89-1.76
		c0.16-0.73,0.34-1.46,0.63-2.14c2.47-5.74,2.09-11.82,1.67-17.77c-0.38-5.36-3.29-9.89-6.61-14.02c-1.28-1.59-3.26-2.51-5.2-2.84
		c-3.6-0.61-7.26-0.54-10.81-0.08c-0.14,2.35,1.31,3.19,2.36,4.11c2.25,1.99,2.43,4.87,3.46,7.38c0.26,0.63,0.14,1.5-0.03,2.2
		c-1.62,6.69-9.99,12.04-16.4,9.68c-11.25-4.15-22.25-8.96-33.34-13.51c-1.78-0.73-2.5-2.4-3.2-4c-0.79-1.83-1.41-3.73-2.21-5.56
		c-0.69-1.56-2.07-2.09-3.71-1.94c-1.93,0.17-3.54,1.35-3.72,3.13c-0.32,3.2-1.07,6.56,1.2,9.4c1.31,1.65,1.72,3.62,2.31,5.5
		c1.76,5.62-0.25,10.56-5.26,13.42c-3.29,1.88-6.11,1.59-8.95-0.93c-2.48-2.2-3.24-5.55-1.97-8.77c0.18-0.47,0.44-0.9,0.62-1.37
		c2.06-5.47,2.11-4.81-2.94-8.09C79.69,305.81,79.57,305.56,79.42,305.36z"/>
	<path class="st0" d="M464.99,287.54c1.67,0,3.43-0.29,4.54,1.45C467.87,288.97,466.1,289.27,464.99,287.54z"/>
	<path class="st1" d="M311.43,195.71c-1.9-2.63-3.64-5.38-5.73-7.85c-4.6-5.44-3.94-11.85-2.83-17.91
		c1.19-6.53,6.95-8.86,12.71-10.17c2.63-0.6,5.4-0.68,8.09-1.36c1.87-0.48,4.06-0.45,5.95,0.01c14.05,3.45,28.26,6.34,41.86,11.46
		c0.93,0.35,1.94,0.53,2.86,0.92c2.86,1.23,4.05,2.87,3.16,5.92c-2.33,8.05,0.51,15.21,3.4,22.36c1.5,3.72,4.08,6.85,6.45,10.08
		c2.64,3.6,5.11,7.33,7.59,10.91c-1.38,1.53-2.52,0.91-3.66,0.51c-11.57-4.03-23.27-7.6-35.25-10.2c-9-1.95-18.04-3.71-27.05-5.65
		c-4.91-1.06-9.97-0.92-14.82-1.74c-6.74-1.14-13.58-0.3-20.13-1.5c-10.25-1.88-20.48-0.84-30.7-1.25c-1.5-0.06-3.2-0.43-4.48,0.1
		c-7.22,3-11.69-2.15-16.67-5.52c-2.04-1.38-3.64-3.43-5.37-5.25c-7.41-7.82-7.63-13.83-4.21-22.55c1.17-2.96,3.02-5.89,5.27-8.13
		c3.16-3.15,6.81-5.51,11.86-5.42c15.05,0.26,30.1,0.1,45.15,0.1c1,0,2.01,0,3.01,0.04c1.28,0.05,2.59,0.26,3.27,1.46
		c0.82,1.43-0.36,2.36-1.24,3.14c-2.51,2.23-3.93,5.13-5.41,8.05c-1.2,2.37-1.55,4.89-1.02,7.31c1.64,7.5,4.6,14.38,11.37,18.74
		C306.92,193.64,308.62,195.84,311.43,195.71c0.27,0.28,0.53,0.55,0.82,0.81C311.99,196.24,311.72,195.97,311.43,195.71z"/>
	<path class="st1" d="M168.42,173.15c0.61-0.85,1.45-1.26,2.44-1.59c13.51-4.45,26.86-9.44,40.9-12.14c2.14-0.41,4.11-2.08,6.48-0.8
		c0.59,1.75-0.9,2.73-1.67,3.84c-2.05,2.96-2.95,6.04-3.23,9.72c-0.49,6.43,1.3,11.6,5.65,16.28c4.79,5.15,10.3,9.36,15.97,13.11
		c-0.19,1.78-1.33,1.73-2.24,1.63c-5.59-0.6-10.92,1.18-16.31,1.98c-11.07,1.65-22.06,3.95-32.83,7.09
		c-8.62,2.51-17.44,4.38-25.66,8.17c-1.58,0.73-3.27,1.25-4.95,1.73c-5.27,1.5-10.06-0.32-12.92-4.99c-1.04-1.7-2.19-3.5-2.59-5.4
		c-1.19-5.66-1.46-11.51,0.07-17.07c1.05-3.79,3.04-7.49,5.36-10.7c2.4-3.33,6.22-4.86,10.47-4.82c0.76,3.13-1.68,4.47-3.52,6.03
		c-2.72,2.31-4.86,5.06-6.54,8.17c-5.65,10.46-3.66,14.64,8.49,17.91c0.86,0.52,0.86-1.07,0.46-0.15c-0.02,0.05-0.15,0.01-0.38-0.13
		c-6.15-3.84-7.39-7.21-5.07-13.67c3.95-11,12.57-17.21,22.68-21.68c2.89-1.28,5.93-2.43,9.28-3.14c0.76-0.26-0.7-1.46-0.1-0.66
		c0.12,0.16-0.05,0.41-0.54,0.51C174.94,173.03,171.94,176.36,168.42,173.15z"/>
	<path class="st1" d="M458.76,252.72c-5.17-2.93-10.37-5.8-15.5-8.8c-7.57-4.43-15.46-8.23-23.42-11.86
		c-4.53-2.07-9.22-3.8-13.85-5.68c-2.89-1.18-5.32-3.11-6.69-5.8c-2.49-4.89-4.54-10.03-5.03-15.57c-0.28-3.23,0-6.51-0.07-9.76
		c-0.05-2.64,0.96-4.9,2.41-6.97c3.41-4.87,6.85-5.91,12.29-3.21c11.87,5.88,23.94,11.38,35.04,18.73
		c5.41,3.58,11.12,6.69,16.65,10.09c1.69,1.04,3.29,2.27,4.82,3.54c0.6,0.5,0.54,1.33-0.21,1.88c-0.2,0.14-0.43,0.24-0.65,0.34
		c-9.94,4.21-11.32,14.25-9.53,21.95c0.83,3.6,1.95,7.24,4.76,10.06C459.45,252,459.11,252.36,458.76,252.72z"/>
	<path class="st1" d="M111.27,210.92c-0.03,1-0.12,2-0.07,2.99c0.13,2.69-0.68,5.56,1.37,7.89c2.65,3.02,5.4,6.09,9.56,6.8
		c3.42,0.58,6.62,2.24,12,1.5c-4.1,2.73-6.7,4.46-9.29,6.19c-5.79,3.87-11.66,7.65-16.52,12.7c-2.82,2.93-6.88,3.87-9.88,6.64
		c-3.26,3.01-7.2,5.27-10.78,7.96c-4.1,3.08-8.92,4.36-13.76,5.44c-2.78,0.62-5.35-0.86-7.77-2.05c-1.54-0.76-2.79-2.1-4.68-2.1
		c-0.79-9.89,3.08-13.42,11.38-10.09c2.96,1.19,5.78,1.17,7.47,1.01c-1.13,0.32-3.54,0.39-5.68-1.06c-2.67-1.81-3.83-4.52-4.1-7.66
		c-0.02-0.73,0.06-1.45,0.21-2.17c0.36-1.41,1-2.7,1.71-3.97c0.35-0.62,0.76-1.2,1.21-1.75c9-9.83,18.75-18.82,30.29-25.64
		C106.18,212.23,108.06,209.6,111.27,210.92z"/>
	<path class="st1" d="M58.41,276.91c0.04,0.75,0.01,1.51,0.13,2.24c0.51,3.16,0.9,3.67,3.52,3.77c4.45,0.18,8.91,0.39,13.28-0.94
		c0.2,1.99-1.44,2.67-2.23,3.86c-7.11,10.67-16.42,19.37-25.49,28.28c-1.41,1.38-2.93,2.76-5.43,2.06
		c-0.48-3.11-0.77-6.32-1.36-9.48c-0.81-4.34-0.89-8.92,0.39-13.36c0.48-1.65,0.72-3.44,0.68-5.15c-0.13-5.1,1.52-9.81,2.99-14.55
		c0.76-2.45,0.86-2.42,4.5-1.23c0.93,1.36,0.56,2.8,0.3,4.24c-1.26,5.53-3.53,10.91-2.49,16.77c0.3,1.71,0.67,3.73,2.71,4.03
		c2.2,0.33,2.76-1.69,3.35-3.3c1.56-4.25,1.88-8.7,1.95-13.19C55.67,279.13,55.68,276.93,58.41,276.91z"/>
	<path class="st6" d="M168.42,173.15c4.04,0.68,7.69-2.26,12.71-1.11c-2.21,1.11-3.74,1.9-5.29,2.65c-1.8,0.88-3.54,1.94-5.43,2.56
		c-5.37,1.74-9.54,5.37-13.9,8.65c-4.59,3.45-6.72,8.68-8.69,13.8c-1.63,4.23,0.3,8.02,4.85,10.51c1.03,0.56,2.3,0.69,3.62,1.07
		c-6.59,1.56-10.41,1.3-13.96-0.8c-2.84-1.68-4.36-4.06-4.02-7.44c0.76-7.54,4.07-13.85,9.71-18.8c1.86-1.63,4.22-2.68,5.36-5.06
		c0,0-0.01,0-0.01,0c0.8-0.91,2.22-0.6,3.02-1.51C160.4,176.17,164.41,174.66,168.42,173.15z"/>
	<path class="st16" d="M48.07,275.52c0.44-1.04,0.87-2.07,1.31-3.11c1.23-4.85,4.02-9,6.05-13.49c1.11-2.46,2.84-4.67,3.14-7.47
		c2.31-3.28,2-8.7,7.59-9.3c1.99,2.01,1.28,4.71,1.8,7.1c-0.41,0.91,0.27,0.36,0.27,0.27c-0.04-2.49,0.79-4.35,3.77-4.16
		c0.06,1.76,0.3,3.44,1.06,5.1c1.16,2.52,2.84,3.98,5.76,3.98c1.71,0,3.51-0.39,5.14,0.5c0.16,0.08,0.29,0.34,0.3,0.53
		c0.01,0.24-0.04,0.57-0.19,0.71c-0.36,0.33-0.77,0.76-1.22,0.82c-4.76,0.71-9.49,1.15-13.71-1.95c-0.6-0.44-1.26-0.79-2.29-1.43
		c-2.42,3.52-4.4,7.14-5.4,11.26c-1.69,3.84-3.18,7.73-3.05,12.03c-1.63,1.16-1.36,2.93-1.48,4.58
		C51.91,282.55,50.07,278.92,48.07,275.52z"/>
	<path class="st17" d="M111.27,210.92c-6.96,4.72-14.03,9.31-20.85,14.22c-2.79,2.01-5.03,4.79-7.59,7.14
		c-3.09,2.85-5.6,6.33-9.2,8.64c-2.67-2.35-0.65-5.76-1.91-8.44c10.75-11.86,23.29-21.47,37.24-29.26c1.3-0.73,2.79-1.07,4.33-0.64
		c3.47,2.55,0.99,4.63-0.53,6.8C112.28,209.9,111.78,210.41,111.27,210.92z"/>
	<path class="st18" d="M112.71,203.23c-9.75,4.69-18.32,11.11-26.5,18.11c-3.21,2.75-6.68,5.19-10.1,7.69
		c-1.64,1.2-3.23,2.37-3.95,4.37c-0.03,0.3-0.07,0.6-0.1,0.9c-0.2,1.24-0.69,2.37-1.25,3.48c-1.16,1.97-2.22,4.05-4.72,4.66
		c-2.05,1.51-3.19,3.75-4.5,5.83c-0.81,1.29-1.64,2.48-3.02,3.19c-0.48-3.97,1.02-7.15,3.35-10.34
		c6.54-8.94,14.59-16.45,22.68-23.82c7.71-7.02,16.38-13,25.58-18.04c2.8-1.53,5.08-4.05,8.55-4.71c1.1,1.99-1.03,2.46-1.6,3.56
		c-1.05,1.98,0.37,1.95,1.59,2.15C118.49,204.81,114.59,201.98,112.71,203.23z"/>
	<path class="st19" d="M112.71,203.23c0.71-1.08,1.77-1.46,3-1.5c1.23-0.04,2.29-0.43,3.02-1.48c2.14,0.15,4.08-2.05,6.33-0.58
		c0.6,0.39,1.44,0.81,1.57,1.37c0.13,0.52-0.36,1.47-0.86,1.83c-3.98,2.85-8.27,5.11-12.99,6.51c0.24-1.09,0.37-2.22,0.76-3.26
		C114.01,204.88,113.79,203.97,112.71,203.23z"/>
	<path class="st1" d="M243.66,137.1c1.26-0.05,2.37,0.22,3.04,1.43C245.46,138.54,244.35,138.27,243.66,137.1z"/>
	<path class="st1" d="M156.39,177.68c-0.66,1.2-1.77,1.49-3.02,1.51C154,177.93,155.13,177.67,156.39,177.68z"/>
	<path class="st1" d="M493.62,230.3c0.51,0.5,1.02,1.01,1.52,1.51C494.63,231.31,494.12,230.81,493.62,230.3z"/>
	<path class="st14" d="M421.41,154.11c-0.31,0.29-0.58,0.78-0.92,0.83c-7.36,1.12-7.58,3.65-6.26,10.74
		c1.04,5.6,3.33,11.01,7.76,14.92c-0.87,1.66-1.81,1.01-2.42,0.39c-4.36-4.42-9.55-8.14-11.97-14.21c-0.65-1.64-1.12-3.25-1.36-5.01
		c-0.71-5.2,4.43-10.51,9.73-9.74C417.99,152.33,419.92,152.49,421.41,154.11z"/>
	<path class="st20" d="M144.88,294.21c-4.48,2.06-9.23,2.21-13.72,3.37c-3.9,1.01-8.86-3.13-8.97-6.95
		c-0.13-4.34,4.55-9.01,9.11-9.14c2.9-0.08,5.34,1.1,7.48,2.84C141.92,286.91,144.04,290.17,144.88,294.21z"/>
	<path class="st6" d="M317.47,191.18c-0.25-0.02-0.53,0.02-0.74-0.08c-5.55-2.72-9.35-10.26-8.13-16.1
		c1.17-5.58,6.9-10.52,12.8-10.89c8.79-0.56,17.41,0.39,25.8,3.11c7.56,2.45,15.11,4.93,21.83,9.47c-0.97,1.12-1.94,0.84-2.79,0.46
		c-7.86-3.5-16.42-3.82-24.7-5.35c-5.73-1.06-11.52,0.27-16.94,1.91c-7.31,2.22-9.65,7.67-7.56,15.3c0.2,0.72,0.27,1.47,0.41,2.2
		C317.44,191.21,317.47,191.18,317.47,191.18z"/>
	<path class="st6" d="M272.25,161.05c-4.3-0.35-8.48,0.47-12.55,1.65c-6.26,1.83-11.25,5.22-13.63,11.7
		c-0.83,2.26-1.01,4.3,0.01,6.5c1.68,3.63,3.34,7.26,7.35,9.33c-0.91,0.48-1.33,0.9-1.69,0.86c-8.32-1.05-14.43-7.08-15.29-15.01
		c-0.26-2.37,0.87-4.44,1.67-6.46c1.35-3.41,2.66-6.87,6.24-9.05c2.7-1.64,5.25-2.62,8.38-2.54c6.01,0.14,12.02,0.09,18.02,0.11
		C271.61,158.94,273.22,159.34,272.25,161.05z"/>
	<path class="st21" d="M272.25,161.05c-0.49-0.97-0.99-1.94-1.48-2.91c1.99-0.18,3.85,0.32,5.66,1.12c1.52,0.67,3.42-0.27,5.11,1.36
		C278.29,161.48,275.25,161,272.25,161.05z"/>
	<path class="st6" d="M317.44,191.21c0.22,0.11,0.63,0.27,0.62,0.33c-0.12,0.51-0.35,0.39-0.59-0.36
		C317.47,191.18,317.44,191.21,317.44,191.21z"/>
	<path class="st3" d="M311.43,195.71c0.5,0.5,1,1.01,1.5,1.51c0,0,0.02-0.02,0.02-0.02C312.44,196.71,311.94,196.21,311.43,195.71
		C311.43,195.71,311.43,195.71,311.43,195.71z"/>
	<path class="st3" d="M312.93,197.22c0.21,0.11,0.62,0.27,0.6,0.33c-0.11,0.5-0.34,0.38-0.59-0.35
		C312.95,197.21,312.93,197.22,312.93,197.22z"/>
	<path class="st14" d="M431.89,206.23c-3.52-1.24-7.02-2.53-10.56-3.71c-3.41-1.14-6.92-1.29-10.3-0.02
		c-5.31,2-8.12,5.71-4.93,10.97c0.38,0.62,0.54,1.38,0.72,2.1c0.04,0.16-0.27,0.4-0.41,0.6c-6.54-3.64-9.52-9.82-7.33-15.97
		c1.03-2.89,3.21-5.24,6.4-5.77c2.93-0.48,5.95-0.56,8.83,0.82c5.43,2.58,10.81,5.23,15.73,8.71c0.77,0.54,1.23,1.53,1.83,2.31
		C431.86,206.26,431.89,206.23,431.89,206.23z"/>
	<path class="st14" d="M439.42,210.74c-1.24-0.02-2.37-0.27-3.01-1.5l-0.04,0.04c1.24,0.02,2.36,0.29,3,1.5L439.42,210.74z"/>
	<path class="st14" d="M434.9,207.73c-1.25-0.01-2.38-0.26-3.02-1.5c0,0-0.02,0.03-0.02,0.03c1.25,0.01,2.37,0.26,3.01,1.5
		L434.9,207.73z"/>
	<path class="st14" d="M439.38,210.77c0.22,0.11,0.63,0.28,0.62,0.33c-0.13,0.51-0.35,0.38-0.58-0.37
		C439.42,210.74,439.38,210.77,439.38,210.77z"/>
	<path class="st14" d="M434.87,207.76c0.5,0.5,1.01,1.01,1.51,1.51c0,0,0.03-0.04,0.03-0.04c-0.5-0.5-1.01-1.01-1.51-1.51
		C434.9,207.73,434.87,207.76,434.87,207.76z"/>
	<path class="st22" d="M66.09,242.44c1.45-2.05,2.89-4.11,4.34-6.16c1.04-0.67,0.73-2.14,1.68-2.86c0,0,0.04-0.02,0.04-0.02
		c1.03,0.09,2.19,0.4,1.89,1.62c-0.48,1.98-0.51,3.93-0.41,5.92c0,0-0.01-0.03-0.01-0.03c-1.07,0.74-0.69,2.19-1.5,3.05
		c-0.02,0.47-0.06,0.93-0.12,1.4c-1.26,1.49-2.49,3.01-3.81,4.45c-0.26,0.29-0.93,0.42-1.32,0.3c-0.34-0.1-0.77-0.65-0.78-1
		C66.04,246.88,66.09,244.66,66.09,242.44z"/>
	<path class="st17" d="M72.13,243.95c-0.05-1.29,0.18-2.43,1.5-3.05C73.6,242.15,73.25,243.24,72.13,243.95z"/>
	<path class="st23" d="M48.07,275.52c3,1.92,5.35,4.8,8.86,5.97c0.6,4.56-0.58,8.92-1.68,13.25c-0.42,1.65-1.3,3.24-2.26,4.67
		c-1.36,2.03-4.3,1.92-5.72-0.13c-1.44-2.08-2.19-4.37-2.36-6.97c-0.29-4.59,1.08-8.86,2.08-13.21
		C47.27,277.88,47.71,276.71,48.07,275.52z"/>
	<path class="st17" d="M72.11,233.42c-0.08,1.24-0.39,2.34-1.68,2.86C70.55,235.07,70.86,233.96,72.11,233.42z"/>
</g>
</svg>
