<?xml version="1.0" encoding="utf-8"?>
<!-- Generator: Adobe Illustrator 25.0.0, SVG Export Plug-In . SVG Version: 6.00 Build 0)  -->
<svg version="1.1" id="Слой_1" xmlns="http://www.w3.org/2000/svg" xmlns:xlink="http://www.w3.org/1999/xlink" x="0px" y="0px"
	 viewBox="0 0 640 480" style="enable-background:new 0 0 640 480;" xml:space="preserve">
<style type="text/css">
	.st0{fill:#F4F2DD;}
	.st1{fill:#FFFFFF;}
	.st2{fill:#FDFDFD;}
	.st3{fill:#343A2E;}
	.st4{fill:#282B24;}
	.st5{fill:#C79890;}
	.st6{fill:#E8E5D4;}
	.st7{fill:#D8D4C8;}
	.st8{fill:#E5AEA7;}
	.st9{fill:#7A5274;}
	.st10{fill:#A1738F;}
	.st11{fill:#99648E;}
	.st12{fill:#42483E;}
	.st13{fill:#9B668E;}
	.st14{fill:#D5A5A2;}
	.st15{fill:#FFFFFE;}
	.st16{fill:#E4AEA7;}
	.st17{fill:#E4ADA7;}
	.st18{fill:#9A658E;}
	.st19{fill:#EFD1CD;}
	.st20{fill:#A57192;}
	.st21{fill:#A06A90;}
	.st22{fill:#F4F2DE;}
	.st23{fill:#EFD0CC;}
</style>
<path class="st0" d="M137.01,303.66c0.01-0.42,0-0.85-0.02-1.27c-1.15-1.05-1.74-2.4-2.19-3.85c-0.19-0.59-0.3-1.2-0.37-1.81
	c-0.07-0.95,0.05-1.88,0.35-2.79c1.33-2.96,4.22-4.19,6.63-5.92c10.66-7.63,21.07-15.62,31.77-23.2c3.14-2.22,6.11-4.82,10.15-5.37
	c6.15,1.19,12.22,2.73,18.61,2.17c5.6-0.48,11.09-1.8,14.75-5.97c6.58-7.49,15.31-10.36,24.32-12.84
	c8.15-2.25,16.47-3.83,24.75-5.58c3.15-0.66,6.12-0.84,7.66,2.85c2,6.45,2.91,13.04,2.44,19.79c-5.15,2.27-7.18-1.85-9.42-4.89
	c-6.27-8.48-14.55-8.49-20.24,0.14c-2.23,3.38-1.68,5.6,2.46,6.61c3.99,0.97,8.11,1.25,12.09,2.28c2.75,0.71,5.83,1.45,6.42,4.65
	c0.59,3.21-2.04,4.94-4.37,6.56c-1.24,0.86-2.46,1.75-3.7,2.61c-6.97,5.32-11.4,4.99-19.6,0.95c-4.78-2.35-9.19-4.1-10.36-9.93
	c-0.25-1.23-1.72-1.92-3.05-2.18c-9.19-1.77-23.45,2.07-26.47,10.72c-1.83,5.23-5.31,6.31-10.25,4.55
	c-4.44-1.58-8.21-0.81-10.31,3.84c-1.23,2.73-3.47,3.63-6.12,4.2c-3.39,0.74-6.79,1.46-9.98,2.88c-3.08,1.37-5.65,3.38-6.5,6.8
	c-0.7,2.82,0.25,5.26,2.95,6.51c2.67,1.24,4.58-0.23,6-2.4c1.29-1.99,1.92-4.38,3.6-6.14c2.25-2.35,4.85-3.92,8.08-2.3
	c3.02,1.51,2.46,4.19,1.64,6.81c-0.81,2.62-1.01,5.16,1.38,7.14c1.47,1.22,3.17,1.4,4.86,0.52c2.88-1.51,3.55-4.17,3.54-7.14
	c-0.01-2.92-1.39-5.42-2.44-8.02c-1.09-2.71-1.53-5.46-0.04-8.15c2.16-3.91,7.16-4.66,8.76-0.8c3.08,7.44,9.52,9.53,15.93,12.18
	c4.8,1.99,9.5,4.28,14.47,5.8c4.32,1.32,8.67,1.6,11.98-2.29c3.06-3.59,2.01-7.25-0.33-10.76c-2.02-3.03-0.97-4.64,2.28-5.66
	c5.2-1.63,10.86,0.14,14.22,5.16c3.98,5.95,5.74,12.55,4.51,19.77c-0.36,2.1-1.5,4.06-1.15,6.3c7.42-1.62,11.23-8.16,9.34-16
	c-1.1-4.53-3.72-8.2-6.46-11.89c-2.47-3.32-5-7.04-0.21-10.68c4.85-4.69,12.5-3.38,17.35-8.09c2.72,1.11,2.58,3.77,3.07,5.97
	c1.29,5.87,2.59,11.74,4.15,17.54c0.6,3.07,1.81,6.05,1.27,9.27c-0.58,2.29-2.3,3.62-4.17,4.74c-4.11,2.46-4.42,5.52-1.59,9.15
	c0.27,0.34,0.52,0.69,0.78,1.04c2.69,3.58,6.84,6.99,4.43,12c-2.62,5.47-8.26,4.7-13.2,4.73c-8.65,0.04-17.29,0.25-25.9-1.15
	c-7.3-1.19-8.49-1.99-10.03-9.5c-1.25-6.12-4.48-9.1-9.34-8.69c-2.84,0.24-4.07,1.36-2.49,4.18c1.06,1.89,2.18,3.76,2.74,5.87
	c1.43,5.34-1.06,10.51-5.84,12.22c-5.99,2.14-10.01-1.57-9.42-8.72c0.52-6.45-1.03-8.36-7.24-9.9c-3.9-0.96-5.75,0.42-6.3,4.2
	c-0.28,1.93-0.32,3.88-0.72,5.8c-0.52,2.51-2.08,4.09-4.6,3.27c-6.44-2.09-13.9-2.18-18.19-8.76c-1.57-2.4-2.89-2.09-4.19,0.33
	c-3.26,6.04-8.4,7.7-14.84,6.13c-0.89-0.09-1.78-0.22-2.55-0.71c-0.39-0.37-0.77-0.77-1.12-1.18c-0.17-0.19-0.34-0.4-0.52-0.58
	c-0.33-0.37-0.65-0.76-0.96-1.15c-0.16-0.17-0.32-0.37-0.48-0.54c-0.33-0.33-0.65-0.68-0.96-1.03c-0.16-0.16-0.32-0.34-0.48-0.5
	c-0.33-0.31-0.65-0.64-0.96-0.97c-0.16-0.16-0.32-0.32-0.48-0.48c-0.34-0.3-0.65-0.62-0.97-0.95c-0.16-0.16-0.31-0.33-0.47-0.48
	c-0.31-0.32-0.59-0.68-0.84-1.05c-0.24-0.37-0.45-0.76-0.65-1.15c-0.23-0.36-0.45-0.74-0.69-1.1c-0.01,0.01-0.39-0.52-0.4-0.51
	c-0.3-0.32-0.55-0.67-0.78-1.04c-0.25-0.36-0.44-0.74-0.6-1.15c-0.27-0.58-0.47-1.2-0.83-1.74c-0.2-0.38-0.4-0.77-0.59-1.15
	c-0.3-0.58-0.62-1.16-0.89-1.76c-0.18-0.41-0.31-0.84-0.42-1.27c-0.19-0.64-0.31-1.31-0.46-1.96c-0.15-0.43-0.25-0.87-0.33-1.31
	C137.66,304.81,137.53,304.16,137.01,303.66z"/>
<path class="st1" d="M144.78,317.99c0.02,0.42,0.04,0.85,0.04,1.27c0.43,0.44,0.83,0.92,1.29,1.33l0,0
	c0.42,0.45,0.85,0.88,1.29,1.31l0.01,0c0.42,0.44,0.86,0.87,1.29,1.3l0.01,0.01c0.43,0.43,0.86,0.86,1.28,1.29l0.02,0.02
	c0.43,0.42,0.86,0.85,1.28,1.28l0.02,0.02c0.43,0.42,0.85,0.84,1.27,1.27c0.46,0.42,0.93,0.84,1.39,1.25c0,0,0.61,0.16,0.62,0.16
	c0.38,0.19,0.73,0.44,1.03,0.73c0.01-0.01,0.45,0.43,0.46,0.42c0.32,0.26,0.63,0.54,0.95,0.79c0.01-0.01,0.51,0.35,0.52,0.33
	c0.37,0.18,0.73,0.38,1.1,0.58c0.39,0.17,0.76,0.38,1.13,0.6c0.4,0.19,0.79,0.39,1.18,0.59c0.42,0.18,0.81,0.39,1.21,0.6
	c0.4,0.19,0.8,0.41,1.19,0.61c0.41,0.17,0.8,0.37,1.18,0.58c0.57,0.3,1.14,0.61,1.73,0.88c0.41,0.15,0.79,0.34,1.17,0.55
	c0.59,0.28,1.19,0.57,1.79,0.84c0.42,0.17,0.83,0.35,1.25,0.53c0.66,0.22,1.34,0.42,2.02,0.6c0.48,0.11,0.94,0.27,1.41,0.44
	c1.2,0.45,2.47,0.59,3.7,0.93c0.52,0.19,0.96,0.48,1.35,0.88c0.24,0.55,0.14,1.02-0.31,1.42c-5.12,1.3-5.1,1.26-9.76-0.98
	c-3.12-1.5-6.25-2.99-9.46-4.27c-1.71-0.68-2.83-1.95-4.1-3.1c-1.75-1.6-3.14-3.63-5.37-4.67c-5.75-2.67-8.39-7.8-10.29-13.35
	c-0.59-1.72-1.64-3.01-2.48-4.49c-0.82-1.44-1-2.81-0.19-4.27c0.43-0.6,0.87-0.57,1.3,0l0,0c0.76,0.7,0.48,1.91,1.28,2.59
	c0.02,0.43,0.03,0.85,0.03,1.28c0.45,0.42,0.79,0.94,1.27,1.32c0.02,0.43,0.03,0.85,0.03,1.28c0.42,0.45,0.81,0.92,1.28,1.32
	c0.02,0.42,0.03,0.85,0.03,1.27c0.43,0.44,0.83,0.92,1.29,1.34v0C143.93,317.13,144.35,317.56,144.78,317.99z"/>
<path class="st2" d="M254.18,344c-16.07,0.01-32.13,0.01-48.2,0.02c-3.47,0-6.94,0-10.41,0c-0.38-0.92-0.14-1.63,0.72-2.13
	c2.18-1.2,4.58-1.19,6.95-1.2c14.27-0.06,28.54-0.12,42.81,0.05C249.03,340.77,252.71,339.88,254.18,344z"/>
<path class="st1" d="M100.55,281.57c0.54-4.87,4.52-7.67,6.96-11.38c1.52-2.31,3.62-4.24,5.56-6.25c0.38-0.4,1.19-0.4,1.8-0.58
	c0.17,0.16,0.34,0.32,0.51,0.47c0.19,0.43,0.28,0.88,0.26,1.36c-0.07,0.47-0.22,0.91-0.43,1.33c-0.3,0.64-0.6,1.28-0.92,1.92
	c-0.22,0.43-0.5,0.83-0.8,1.21c-0.3,0.39-0.62,0.76-0.95,1.13c-0.16,0.19-0.33,0.37-0.49,0.56c-0.86,0.92-1.63,1.89-2.3,2.96
	c-0.27,0.45-0.57,0.87-0.89,1.28c-0.32,0.43-0.67,0.82-1.04,1.2c-0.18,0.2-0.37,0.39-0.55,0.59c-0.36,0.42-0.73,0.8-1.12,1.2
	c-0.19,0.21-0.39,0.4-0.58,0.6c-1.25,1.16-2.39,2.49-4.23,2.72C101.09,281.78,100.82,281.67,100.55,281.57z"/>
<path class="st1" d="M81.03,297.18c3.6-4.82,7.88-8.92,12.95-12.17c1.62-1.03,3.26-2.06,5.27-2.14c0.11,0.22,0.23,0.43,0.34,0.65
	c-0.02,0.49-0.14,0.96-0.36,1.41c-0.25,0.43-0.55,0.81-0.88,1.17c-0.33,0.37-0.68,0.72-1.04,1.06c-0.18,0.18-0.36,0.35-0.54,0.53
	c-0.36,0.36-0.75,0.69-1.14,1.01c-0.4,0.32-0.82,0.61-1.25,0.89c-0.84,0.57-1.64,1.19-2.39,1.87c-0.35,0.36-0.73,0.68-1.1,1.01
	c-0.35,0.34-0.72,0.67-1.09,0.99c-0.17,0.17-0.36,0.33-0.53,0.5c-0.33,0.35-0.69,0.68-1.05,1.01c-0.18,0.17-0.36,0.33-0.54,0.49
	c-0.56,0.49-1.16,0.92-1.8,1.3c-0.65,0.39-1.33,0.72-2.04,0.98c-0.75,0.24-1.5,0.27-2.25-0.01
	C81.4,297.53,81.21,297.36,81.03,297.18z"/>
<path class="st1" d="M58.9,319.3c-1.3,1.68-3.11,1.69-4.6,0.74c-2.05-1.32-4.14-1.9-6.54-2.26c-2.71-0.4-5.54-1.39-5.78-4.99
	c0.27-0.12,0.53-0.25,0.8-0.37c2.09,0,3.86,1.14,5.79,1.67c0.52,0.16,1.03,0.36,1.53,0.58c0.97,0.4,1.98,0.73,2.99,1.01
	c0.51,0.14,1,0.32,1.49,0.51C56.21,316.96,58.28,317.12,58.9,319.3z"/>
<path class="st1" d="M127.89,301.08c-0.99,2.51-2.68,4.19-5.3,5.12c-2.78,0.99-5.41,2.36-8.14,3.51c-0.88,0.37-1.64-0.05-2.18-0.81
	c0.06-0.48,0.22-0.91,0.52-1.3c0.32-0.35,0.7-0.64,1.11-0.88c0.61-0.35,1.24-0.67,1.85-1.02c0.39-0.26,0.8-0.5,1.2-0.74
	c0.59-0.38,1.18-0.77,1.75-1.17c0.37-0.28,0.77-0.52,1.17-0.75c0.6-0.32,1.23-0.61,1.84-0.91c0.39-0.22,0.8-0.41,1.21-0.6
	c0.61-0.29,1.22-0.57,1.83-0.86c0.42-0.2,0.86-0.33,1.32-0.4c0.47-0.01,0.92,0.09,1.35,0.28
	C127.58,300.73,127.73,300.91,127.89,301.08z"/>
<path class="st2" d="M58.9,319.3c-1.53-1.24-3.96-0.75-5.13-2.68c3.14-2.52,6.58-0.71,9.85-0.55c5.72,0.28,11.5-0.62,17.18,0.71
	c0.73,0.28,1.31,0.74,1.76,1.38c-1.73,3.28-4.34,1.61-6.72,1.18c-3.92,0-7.84,0-11.76,0c-1.3,0.81-2.6,0.86-3.88-0.04
	C59.77,319.3,59.33,319.3,58.9,319.3z"/>
<path class="st1" d="M32.86,262.03c0.1-0.41,0.07-0.95,0.32-1.23c3.49-3.79,10.02-3.83,13.65-0.06c0.26,0.27,0.24,0.81,0.35,1.22
	c-0.24,0.18-0.47,0.36-0.7,0.54c-0.29,0.04-0.58,0.07-0.87,0.12c-3.16-0.32-6.32-0.62-9.46,0.19c-0.59,0.12-1.18,0.15-1.77,0.1
	C33.78,262.77,33.28,262.48,32.86,262.03z"/>
<path class="st1" d="M135.69,297.18c0.01,0.43,0.02,0.86,0.01,1.29c0.88,1.31,0.89,2.61-0.01,3.92c-2.61-0.38-5.06-1.74-7.81-1.3
	c-0.62-0.7-0.34-1.39,0.02-2.08c0.29-0.41,0.64-0.77,1.04-1.07c0.61-0.41,1.26-0.76,1.89-1.15c0.39-0.3,0.81-0.56,1.22-0.83
	c0.43-0.27,0.89-0.44,1.38-0.54c0.25,0.04,0.49,0.08,0.74,0.12C134.87,295.92,135.19,296.63,135.69,297.18z"/>
<path class="st1" d="M195.57,342.73c0,0.43,0,0.86,0,1.29c-4.22-0.01-8.44-0.03-12.66-0.02c-1.77,0-2.74-0.84-2.96-2.58
	c0.66-0.81,1.56-1.14,2.57-1.26c0.98-0.07,1.94,0.04,2.9,0.27c2.16,0.71,4.41,0.61,6.63,0.74
	C193.39,341.31,194.68,341.58,195.57,342.73z"/>
<path class="st2" d="M45.81,262.09c0.46-0.04,0.91-0.08,1.37-0.13c0.87,0.03,1.74,0.06,2.6,0.09c0.67,0.75,2.17,1.09,1.3,2.6
	c-0.43,0.43-0.91,0.82-1.3,1.3c-0.43,0-0.87,0-1.3,0c-1.48-1.47-3.71,0.09-5.2-1.3c-1.31,0.03-2.62,0.06-3.94,0.08
	c-0.31,0.13-0.62,0.27-0.93,0.41c-0.21-0.27-0.41-0.54-0.62-0.8C39.59,260.49,43.1,262.69,45.81,262.09z"/>
<path class="st1" d="M125.28,243.84c-2.06-1.91-4.15-3.79-5.21-6.5c1.51-1.5,2.97-0.47,4.44,0.09c0.49,0.24,0.94,0.54,1.36,0.89
	c0.61,0.57,1.08,1.23,1.42,2c0.29,0.8,0.36,1.61,0.22,2.44c-0.15,0.54-0.43,1.01-0.82,1.41
	C126.15,244.4,125.67,244.31,125.28,243.84z"/>
<path class="st2" d="M38.04,308.95c-1.41-0.11-2.96,0.16-3.87-1.37c-1.07-0.66-1.92-1.55-2.6-2.6v0c-0.42-0.45-0.86-0.88-1.3-1.3
	c-0.79-0.85-0.64-1.69,0.04-2.52c4.58,0.09,6.49,3.29,8.08,6.89C38.26,308.35,38.15,308.65,38.04,308.95z"/>
<path class="st2" d="M38.07,265.95c-0.43,0.43-0.87,0.87-1.3,1.3c-0.48,0.39-0.87,0.87-1.3,1.3c-0.43,0.43-0.91,0.82-1.3,1.3
	c-1.73,0.73-2.6,2.03-2.6,3.9c-0.27,0.18-0.54,0.35-0.81,0.53c-0.61-0.26-1.04-0.71-1.3-1.31c-0.3-5.01,2.92-7.33,6.93-9.05
	c0.65,0.02,1.21,0.26,1.68,0.72l0.14,0.15C38.45,265.21,38.42,265.6,38.07,265.95z"/>
<path class="st1" d="M75.84,319.34c2.21-0.34,4.69,0.73,6.59-1.25c1.67-1.59,3.37-1.58,5.1-0.09c-0.53,0.63-0.94,1.64-1.6,1.83
	C82.55,320.84,79.1,321.55,75.84,319.34z"/>
<path class="st2" d="M125.2,238.63c-1.71-0.43-3.41-0.87-5.12-1.3c-0.01-1.73-0.01-3.47-0.02-5.2c0.22-1.79-0.6-3.85,1.33-5.2
	C123.17,230.66,124.44,234.56,125.2,238.63z"/>
<path class="st1" d="M38.07,295.88c3.6-0.13,5.96,1.34,6.51,5.11c-0.17,0.16-0.33,0.33-0.5,0.49c-0.23,0.02-0.46,0.05-0.69,0.08
	c-0.69-0.12-1.33-0.39-1.96-0.69c-0.42-0.19-0.81-0.44-1.19-0.7c-0.37-0.27-0.71-0.58-1.05-0.9c-0.17-0.16-0.32-0.33-0.49-0.49
	c-0.33-0.33-0.62-0.7-0.88-1.09c-0.1-0.21-0.19-0.43-0.28-0.65C37.46,296.53,37.63,296.14,38.07,295.88z"/>
<path class="st1" d="M30.29,284.17c1.81,0.91,3.03,2.34,3.99,4.12c0.72,1.33,0.44,2.48-0.12,3.69c-0.15,0.18-0.3,0.36-0.46,0.54
	c-0.48-0.02-0.9-0.17-1.27-0.49c-0.44-0.53-0.77-1.13-1.1-1.74c-0.23-0.38-0.43-0.79-0.61-1.19c-0.29-0.61-0.57-1.22-0.86-1.82
	c-0.2-0.42-0.33-0.85-0.39-1.31C29.46,285.23,29.65,284.6,30.29,284.17z"/>
<path class="st2" d="M30.29,284.17c-0.03,0.89-0.07,1.78-0.1,2.68c-4.21-3.98-4.29-8.64-0.24-13.32l0.42,0.34
	c0.26,0.27,0.34,0.54,0.24,0.8c-0.1,0.25-0.19,0.38-0.29,0.38C30.31,278.09,30.3,281.13,30.29,284.17z"/>
<path class="st1" d="M66.71,303.65c0.34-0.53,0.62-1.13,1.04-1.59c2.09-2.24,2.18-2.24,5.46-0.98c0.18,0.18,0.36,0.37,0.54,0.55
	c-0.06,0.53-0.27,0.99-0.66,1.36c-0.84,0.64-1.77,1.12-2.76,1.49c-0.51,0.16-1.04,0.23-1.58,0.23
	C67.94,304.64,67.21,304.36,66.71,303.65z"/>
<path class="st2" d="M113.21,307.27c0.02,0.74-0.31,1.27-0.94,1.63c-0.87,0.43-1.74,0.87-2.61,1.3c-0.45,0.42-0.88,0.84-1.3,1.29
	c-0.84,0.71-1.7,0.75-2.58,0.06l-0.64-0.01l-0.64,0.01c-0.09-0.31-0.18-0.61-0.26-0.92C106.5,307.57,109.23,305.77,113.21,307.27z"
	/>
<path class="st1" d="M56.29,303.68c2.6-0.86,5.21-0.86,7.81,0c0.43,0.71,0.33,1.33-0.3,1.86c-2.4,1.31-4.81,1.31-7.21,0.01
	C55.96,305.02,55.86,304.39,56.29,303.68z"/>
<path class="st1" d="M30.27,301.09c0,0.86-0.01,1.73-0.01,2.59c-3.53-1.08-3.53-1.08-3.91-5.2c0.19-0.14,0.37-0.28,0.56-0.42
	c0.23,0,0.47,0,0.7,0c0.45,0.16,0.85,0.39,1.22,0.69c0.17,0.16,0.34,0.32,0.52,0.48c0.32,0.35,0.58,0.74,0.79,1.17
	C30.2,300.63,30.23,300.86,30.27,301.09z"/>
<path class="st2" d="M27.9,298.17c-0.51,0.1-1.03,0.2-1.54,0.31c0,0,0,0,0,0c-0.36-0.5-0.85-0.88-1.3-1.3
	c-0.88-1.61-1.49-3.29-1.36-5.16c0.28-0.1,0.56-0.19,0.84-0.29C26.95,293.2,28.9,294.92,27.9,298.17z"/>
<path class="st1" d="M75.82,300.98c0.23-3.33,2.46-3.92,5.21-3.8c0.18,0.16,0.36,0.33,0.54,0.49c-0.01,0.24-0.02,0.49-0.03,0.73
	c-0.18,0.46-0.44,0.87-0.76,1.24c-0.34,0.35-0.73,0.63-1.14,0.87c-0.62,0.34-1.28,0.62-1.94,0.88c-0.23,0.06-0.46,0.12-0.68,0.17
	C76.52,301.57,76.12,301.37,75.82,300.98z"/>
<path class="st2" d="M117.33,261.91c0.06-0.79,0.15-1.58,0.16-2.37c0.02-1.66,0.88-2.54,2.47-2.79c0.2,0.21,0.41,0.41,0.61,0.62
	c0.48,2.3-0.26,4-2.48,4.96C117.85,262.18,117.59,262.04,117.33,261.91z"/>
<path class="st1" d="M100.55,314.1c-1.3,3.03-4,2.58-6.51,2.6c-0.18-0.19-0.36-0.37-0.54-0.56c0.06-0.53,0.3-0.97,0.71-1.31
	c0.89-0.53,1.88-0.8,2.84-1.15c0.48-0.19,0.97-0.31,1.48-0.39C99.32,313.25,100.03,313.44,100.55,314.1z"/>
<path class="st2" d="M100.55,314.1c-0.92-0.11-1.83-0.22-2.75-0.33c1.23-3.35,3.44-4.06,6.53-2.44c0,0,0.17,0.23,0.17,0.23
	c-0.45,0.42-0.9,0.84-1.36,1.26c-0.45,0.41-0.88,0.83-1.3,1.27C101.42,314.09,100.98,314.09,100.55,314.1z"/>
<path class="st2" d="M19.85,284.17c0-2.6,0-5.2,0-7.81c0.59-0.27,1.13-0.17,1.63,0.23c1.34,1.89,1.15,3.99,0.82,6.1
	c-0.17,0.59-0.45,1.13-0.84,1.61C20.89,284.67,20.35,284.61,19.85,284.17z"/>
<path class="st2" d="M38.07,295.88c-0.12,0.52-0.23,1.04-0.35,1.56c-2.96,0.74-4.11-0.65-4.09-3.44c0.19-0.25,0.38-0.51,0.57-0.76
	C35.49,294.11,36.78,295,38.07,295.88z"/>
<path class="st1" d="M47.18,301.08c2.2-0.13,4.17,0.23,5.21,2.5c-0.28,0.43-0.66,0.7-1.15,0.84c-0.5,0.06-0.98,0.01-1.46-0.12
	c-0.7-0.25-1.36-0.58-2-0.96c-0.42-0.27-0.77-0.61-1.04-1.03C46.58,301.8,46.73,301.38,47.18,301.08z"/>
<path class="st2" d="M87.53,318c-1.7,0.03-3.4,0.06-5.1,0.09c0,0-0.27-0.33-0.27-0.33c1.26-3.22,3.64-2.53,6.05-1.74
	c0.24,0.25,0.48,0.51,0.72,0.76C88.47,317.18,88,317.59,87.53,318z"/>
<path class="st1" d="M122.68,249.04c-1.32-1.77-1.19-2.02,1.3-2.6c0.81,0.7,0.73,1.51,0.26,2.35
	C123.78,249.22,123.26,249.32,122.68,249.04z"/>
<path class="st1" d="M43.28,264.66c1.8,0.18,3.84-0.61,5.2,1.3C46.69,265.77,44.65,266.56,43.28,264.66z"/>
<path class="st2" d="M21.15,289.37c-0.05-1.32-0.1-2.64-0.14-3.95c-0.23-0.25-0.31-0.5-0.23-0.75c0.08-0.25,0.16-0.37,0.24-0.37
	l0.27-0.22c2.77,0.12,2.19,2.17,2.25,3.87c-0.14,0.59-0.41,1.11-0.79,1.59C22.17,289.87,21.64,289.81,21.15,289.37z"/>
<path class="st2" d="M50.79,303.85c0.53-0.09,1.07-0.18,1.6-0.27c1.3,0.03,2.6,0.06,3.91,0.1c0,0.37,0,0.74,0,1.11
	c-0.63,0.93-1.56,1.26-2.62,1.32C52.24,305.97,50.97,305.6,50.79,303.85z"/>
<path class="st2" d="M64.1,304.83c0-0.38,0-0.77,0-1.15c0.87-0.01,1.74-0.02,2.6-0.03c0.91,0.03,1.82,0.06,2.73,0.09
	C68.25,307,66.28,306.42,64.1,304.83z"/>
<path class="st2" d="M93.72,315.08c0.11,0.54,0.22,1.07,0.33,1.61c-1.7,0.03-3.4,0.06-5.11,0.08c0,0-0.28-0.34-0.28-0.34
	C89.68,313.51,91.62,314.01,93.72,315.08z"/>
<path class="st2" d="M182.61,341.39c-0.88,0.01-1.77,0.02-2.65,0.03c-0.43,0-0.87,0-1.3,0c0-0.43,0-0.85,0-1.28
	C180.44,339.07,182.05,338.58,182.61,341.39z"/>
<path class="st1" d="M60.2,319.3c1.29,0.01,2.59,0.03,3.88,0.04C62.13,320.95,62.12,320.95,60.2,319.3z"/>
<path class="st1" d="M31.56,304.98c1.24,0.49,2.11,1.36,2.6,2.6C32.47,307.54,31.6,306.68,31.56,304.98z"/>
<path class="st2" d="M75.82,300.98c0.41,0.05,0.82,0.08,1.23,0.08c-0.27,2.97-1.98,2.24-3.72,1.45c-0.04-0.48-0.08-0.95-0.12-1.43
	C74.08,301.05,74.95,301.01,75.82,300.98z"/>
<path class="st2" d="M47.18,301.08c-0.1,0.52-0.19,1.04-0.29,1.57c-1.72,0.7-3.36,1.18-3.59-1.56c0.43-0.01,0.85-0.05,1.27-0.11
	C45.45,301.02,46.31,301.05,47.18,301.08z"/>
<path class="st2" d="M135.7,302.38c0-1.31,0-2.61,0.01-3.92c1.5,0.95,1.25,2.48,1.29,3.92C136.56,302.38,136.13,302.38,135.7,302.38
	z"/>
<path class="st1" d="M21.22,276.41c-0.46-0.02-0.92-0.03-1.37-0.05c0.05-1.43-0.23-2.97,1.3-3.9c0.21,0.22,0.41,0.44,0.62,0.65
	c0.38,0.87,0.4,1.74,0.05,2.62C21.61,275.96,21.42,276.19,21.22,276.41z"/>
<path class="st1" d="M51.09,264.65c-0.43-0.87-0.87-1.73-1.3-2.6C52.28,262.63,52.41,262.89,51.09,264.65z"/>
<path class="st1" d="M105.78,311.55c0.86-0.02,1.72-0.04,2.58-0.06C107.53,312.79,106.67,312.85,105.78,311.55z"/>
<path class="st2" d="M40.68,311.52c-0.45-0.44-0.91-0.88-1.36-1.32c0.22-0.17,0.44-0.34,0.66-0.52c1.28-0.15,2.23,0.12,2.08,1.71
	C41.64,311.89,41.18,311.91,40.68,311.52z"/>
<path class="st2" d="M138.3,306.29c-0.43,0-0.87,0-1.3,0c0-0.88,0.01-1.75,0.01-2.63C138.04,304.24,138.28,305.21,138.3,306.29z"/>
<path class="st2" d="M23.69,292.01c-0.42-0.45-0.85-0.9-1.27-1.35c-0.3-0.25-0.41-0.51-0.33-0.78c0.08-0.28,0.17-0.42,0.26-0.42
	l0.44-0.36c1.54,0.39,1.84,1.33,1.19,2.69L23.69,292.01z"/>
<path class="st1" d="M21.14,272.46c0.03-1.07,0.25-2.04,1.3-2.6c0.18,0.21,0.36,0.41,0.54,0.62c0.16,0.53,0.17,1.07,0.04,1.61
	c-0.16,0.22-0.32,0.45-0.47,0.67C22.01,273.02,21.54,272.91,21.14,272.46L21.14,272.46z"/>
<path class="st2" d="M28.9,264.64c0.03-0.43,0.05-0.85,0.06-1.28c0.69-0.64,1.5-0.64,2.35-0.46c0.46,0.39,0.62,0.88,0.46,1.46
	c-0.56,0.76-1.3,1-2.21,0.81C29.34,264.99,29.12,264.81,28.9,264.64z"/>
<path class="st2" d="M32.86,262.03c0.54,0.05,1.07,0.11,1.61,0.16c0.18,0.59,0.06,1.11-0.37,1.56c-0.85,0.4-1.66,0.43-2.41-0.22
	l-0.25-0.3c-0.34-0.3-0.44-0.57-0.29-0.82c0.14-0.24,0.28-0.36,0.41-0.36C32,262.04,32.43,262.04,32.86,262.03z"/>
<path class="st1" d="M31.56,262.05c-0.01,0.4-0.05,0.79-0.12,1.18c-0.83,0.04-1.66,0.08-2.48,0.12
	C29.52,262.3,30.49,262.08,31.56,262.05z"/>
<path class="st2" d="M119.97,256.74c0.04-0.83,0.07-1.66,0.11-2.5c0.23-0.17,0.47-0.35,0.7-0.52c0.59,0.17,0.99,0.55,1.21,1.12
	c0,1.25-0.12,2.39-1.87,2.04L119.97,256.74z"/>
<path class="st2" d="M121.38,251.64c0.41-0.02,0.82-0.04,1.23-0.08c0.19,0.22,0.37,0.44,0.56,0.66c0.13,1.27,0.01,2.34-1.72,2.07
	l-0.17-0.15C120.63,253.29,120.68,252.45,121.38,251.64z"/>
<path class="st1" d="M121.38,251.64c-0.03,0.84-0.06,1.67-0.1,2.51c-0.4,0.05-0.8,0.09-1.21,0.09
	C120.1,253.17,120.33,252.2,121.38,251.64z"/>
<path class="st2" d="M122.68,249.04c0.41-0.01,0.82-0.04,1.23-0.08c0.18,0.22,0.37,0.43,0.55,0.65c0.14,1.26,0.01,2.31-1.68,2.11
	c0,0-0.17-0.15-0.17-0.15C122.63,250.73,122.65,249.88,122.68,249.04z"/>
<path class="st2" d="M123.9,248.96c0.03-0.84,0.05-1.68,0.08-2.52c0.41-0.01,0.82-0.04,1.23-0.07c0.18,0.22,0.37,0.43,0.55,0.65
	c0.14,1.26,0.01,2.3-1.69,2.09C124.08,249.11,123.9,248.96,123.9,248.96z"/>
<path class="st2" d="M125.28,243.84c0.45,0.01,0.9,0.02,1.35,0.03c0.66,1.4,0.8,2.55-1.27,2.63c0,0-0.15-0.13-0.15-0.13
	C125.24,245.53,125.26,244.68,125.28,243.84z"/>
<path class="st1" d="M101.85,314.09c0.43-0.43,0.86-0.85,1.3-1.28C102.72,313.24,102.28,313.67,101.85,314.09z"/>
<path class="st1" d="M40.68,311.52c0.46-0.05,0.92-0.1,1.39-0.16c0.12,0.25,0.24,0.49,0.36,0.74c-0.15,0.23-0.3,0.46-0.45,0.68
	c0,0-0.01,0-0.01,0C41.54,312.37,41.11,311.95,40.68,311.52z"/>
<path class="st1" d="M108.36,311.49c0.43-0.43,0.87-0.86,1.3-1.29C109.23,310.63,108.79,311.06,108.36,311.49z"/>
<path class="st2" d="M39.32,310.2c-0.43-0.42-0.86-0.83-1.29-1.25c0,0,0.2-0.24,0.2-0.24c0.87-0.17,1.31,0.27,1.49,1.07L39.32,310.2
	z"/>
<path class="st1" d="M30.26,303.68c0.43,0.43,0.87,0.87,1.3,1.3C31.13,304.55,30.69,304.12,30.26,303.68z"/>
<path class="st1" d="M25.05,297.18c0.43,0.43,0.87,0.87,1.3,1.3C25.92,298.05,25.49,297.61,25.05,297.18z"/>
<path class="st2" d="M32.77,292.06c0.46-0.03,0.93-0.06,1.39-0.08c0,0.42,0.01,0.84,0.04,1.26c0,0-0.34,0.32-0.34,0.32
	C32.99,293.42,32.55,292.98,32.77,292.06z"/>
<path class="st1" d="M22.35,289.47c0.05,0.4,0.08,0.8,0.07,1.2c-0.43-0.43-0.85-0.86-1.28-1.29
	C21.55,289.38,21.95,289.41,22.35,289.47z"/>
<path class="st1" d="M21.01,284.3c0.07,0.37,0.07,0.75,0,1.12c-0.39-0.42-0.77-0.84-1.16-1.25
	C20.24,284.18,20.62,284.22,21.01,284.3z"/>
<path class="st1" d="M99.25,282.87c0.43-0.43,0.87-0.87,1.3-1.3C100.86,282.75,100.43,283.18,99.25,282.87z"/>
<path class="st1" d="M30.32,275.04c-0.02-0.4-0.01-0.79,0.05-1.18c0.4-0.06,0.8-0.09,1.2-0.1
	C31.15,274.19,30.73,274.62,30.32,275.04z"/>
<path class="st1" d="M34.16,269.86c0.43-0.43,0.87-0.87,1.3-1.3C35.03,268.99,34.6,269.42,34.16,269.86z"/>
<path class="st1" d="M22.45,269.86c0.43-0.44,0.86-0.87,1.29-1.31c0.13,0.25,0.25,0.49,0.38,0.74c-0.09,0.26-0.18,0.52-0.27,0.78
	c-0.25,0.11-0.51,0.21-0.76,0.32C22.87,270.21,22.66,270.03,22.45,269.86C22.45,269.86,22.45,269.86,22.45,269.86z"/>
<path class="st1" d="M35.47,268.56c0.43-0.43,0.87-0.87,1.3-1.3C36.33,267.69,35.9,268.12,35.47,268.56z"/>
<path class="st2" d="M25.05,267.28c0.4-0.04,0.8-0.09,1.19-0.17c0.11,0.25,0.23,0.51,0.34,0.76c-0.28,0.54-0.72,0.78-1.32,0.77
	c-0.36-0.25-0.52-0.54-0.46-0.86C24.86,267.45,24.94,267.28,25.05,267.28z"/>
<path class="st1" d="M25.05,267.28c0.02,0.44,0.03,0.88,0.05,1.32c-0.23,0.15-0.46,0.31-0.69,0.46c-0.22-0.17-0.44-0.33-0.66-0.5
	c0,0-0.01-0.01-0.01-0.01C24.18,268.12,24.61,267.7,25.05,267.28z"/>
<path class="st2" d="M26.24,267.11c0.45-0.42,0.9-0.84,1.34-1.26c0.09,0.29,0.18,0.57,0.26,0.86c-0.35,0.55-0.85,0.74-1.48,0.56
	L26.24,267.11z"/>
<path class="st1" d="M49.79,265.95c0.43-0.43,0.87-0.87,1.3-1.3C50.65,265.09,50.22,265.52,49.79,265.95z"/>
<path class="st1" d="M38.07,265.95c0.01-0.39,0.05-0.78,0.13-1.17c0.38-0.07,0.76-0.08,1.14-0.05
	C38.92,265.15,38.49,265.55,38.07,265.95z"/>
<path class="st2" d="M27.58,265.85c0.44-0.41,0.88-0.81,1.32-1.22c0,0,0.32,0.32,0.32,0.32c-0.11,0.89-0.52,1.37-1.49,1.08
	L27.58,265.85z"/>
<path class="st2" d="M116.17,262.05c0.39-0.01,0.78-0.06,1.17-0.15c0,0,0.12,0.13,0.12,0.13c0.41,1.13-0.18,1.42-1.16,1.38
	c-0.34-0.28-0.48-0.57-0.4-0.88C115.97,262.22,116.06,262.05,116.17,262.05z"/>
<path class="st1" d="M116.17,262.05c0.09,0.5,0.18,1,0.27,1.5c0,0-0.54,0.34-0.54,0.34c-0.51,0.13-0.85-0.05-1.03-0.55
	C115.3,262.92,115.73,262.49,116.17,262.05z"/>
<path class="st3" d="M282.67,293.48c-2.61-6.53-3.61-13.46-5.1-20.27c-0.27-1.24-0.23-2.55-1.15-3.57c-2.25-2.68-3.03-5.6-1.54-8.93
	c-0.88-6.93-1.76-13.85-2.65-20.78c-2.34-6.34-3.43-12.88-3.03-19.64c-0.29-5.51,0.31-11.01-0.04-16.52
	c-0.06-5.04-0.13-10.08,0.15-15.11c0.05-1.13,0.16-2.25,0.43-3.35c1.7-8.01,0.05-16.46,3.07-24.3c1.85-7.4,4.26-14.52,10.21-19.82
	c0.8-0.57,1.7-0.92,2.64-1.19l-0.07,0.05c0.97-1.4,2.41-2.1,3.96-2.64l-0.08,0.05c0.6-1.24,1.93-1,2.93-1.44
	c0.37,0.19,0.64,0.09,0.82-0.28c1.99-1.73,4.57-1.71,6.94-2.34c0.36,0.24,0.64,0.18,0.86-0.19c1.58-1.3,3.76,0.08,5.35-1.18
	c0.43,0.24,0.82,0.18,1.17-0.17c2.15-1.27,4.72,0.11,6.88-1.08c0.78,0.3,1.52,0.19,2.23-0.21c2.99-1.47,6.37,0.31,9.36-1.12
	c0.78-0.06,1.57-0.13,2.35-0.19c12.13-0.93,24.27-0.91,36.41-0.02c1.1,0.44,2.21,0.66,3.37,0.24c2.24,1.1,4.82-0.12,7.04,1.04
	c0.74,0.09,1.47,0.17,2.21,0.26c1.74,1.03,3.89-0.08,5.61,1.08c0.32,0.36,0.69,0.42,1.1,0.18c1.63,1.22,3.83-0.17,5.42,1.21
	l0.32,0.32l0.42-0.17c1.4,0.74,3.17,0.06,4.47,1.15l0.3,0.32l0.4-0.17c2.86,0.56,5.76,1,8.35,2.48l0.05,0.02
	c1.02,1.15,2.9-0.01,3.83,1.4l-0.04-0.02c0.81,0.58,2,0.38,2.66,1.27l-0.01-0.01c0.76,0.65,1.96,0.43,2.62,1.28l0.01,0.01
	c0.74,0.68,1.93,0.45,2.6,1.27l0.03,0.02c0.72,0.71,1.92,0.46,2.57,1.3l0.02,0.01c0.73,0.69,1.92,0.46,2.58,1.27l0.04,0.02
	c0.71,0.71,1.89,0.47,2.57,1.26l0.06,0.03c0.69,0.74,1.87,0.49,2.55,1.25l0.09,0.04c0.67,0.77,1.83,0.52,2.53,1.23l0.12,0.05
	c0.63,0.82,1.79,0.55,2.49,1.22l-0.18,0.23c-0.26,3.21-2.94,2.58-4.83,2.84c-4.46,0.6-8.88,1.41-13.31,2.14
	c-5.81,0.77-10.55,4.12-15.67,6.54c-5.34,2.04-8.18,7.35-13.04,10.04c-16.4,8.5-25.41,22.92-31.49,39.56
	c-2.69,7.38-3.48,15.13-3.1,23.01c0.28,5.85-0.13,11.65-1.25,17.43c-2.16,11.15-8.22,17.14-19.38,18.39
	c-6.41,0.72-10.18,4-11.88,10.18c-1.21,4.41-1.11,9.02-2.52,13.37c-4.35,13.47-12.99,16.11-23.97,7.34
	C287.65,298.86,285.42,295.91,282.67,293.48z"/>
<path class="st4" d="M282.67,293.48c0.41-0.57,1-1.01,1.58-0.49c1.77,1.59,3.51,3.23,5.13,4.96c2.25,2.42,5.04,4.1,7.83,5.71
	c4.26,2.46,9.36,1.38,12.09-2.68c2.54-3.78,4.58-7.97,4.62-12.63c0.03-3.11,0.81-6.02,1.58-8.89c1.76-6.53,4.77-10.64,14-10.84
	c3.17-0.07,6.21-0.53,8.54-2.48c4.36-3.65,7.48-8.1,8.59-13.98c1.46-7.73,1.22-15.48,1.2-23.24c-0.03-9.03,2.3-17.5,6.02-25.62
	c3.17-6.9,7.65-12.94,12.22-19.02c4.43-5.9,10.38-9.63,15.94-14c0.76-0.6,1.63-0.29,2.24,0.49c1.21,2.91-1.74,4.14-2.5,6.26
	c-1.24,2.09-2.2,4.31-3.2,6.51c-2.72,5.76-4.78,11.73-5.94,18.01c-0.95,4.3-1.92,8.6-2.35,13c-1.14,4.92-1.09,9.91-1.03,14.91
	c0.04,6.1-2.53,12.11-0.56,18.27c0.45,2.18,0.58,4.39,0.55,6.61c0.72,19.21,1.6,38.4,8.04,56.78c4.51,11.99,11.09,22.58,21.2,30.73
	c2.17,1.68,4.59,3.09,6.22,5.35c1.27,1.75,0.62,2.67-1.49,2.65c-17.27,0.88-34.46-1.41-51.7-1.31c-0.9,0.01-1.7-0.15-2.37-0.79
	l-0.33-0.22l-0.31,0.26c-4.84-1.64-10.05,0.71-14.86-1.33v0.06c-3.76-1.7-7.99,0.66-11.72-1.34l0,0.04
	c-6.14-1.32-12.35-0.21-18.51-0.59c-1.81-0.24-3.34-1.11-4.21-2.66c-7.03-12.52-13.93-25.1-14.95-39.87
	C283.71,299.23,283.19,296.35,282.67,293.48z"/>
<path class="st5" d="M377.5,182.49c0.68-2.3,1.9-4.32,3.31-6.23c2.01-1.89,4.37-1.36,6.75-1.06c13.86,1.74,14.79,1.13,18.65-12
	c0.24-0.83,0.46-1.67,0.69-2.5c0.99-2.61,3-4.5,4.77-6.56c4.66-1.9,9.62-2.07,14.53-2.58c1.65-0.17,3.51,0.42,4.78-1.23
	c1.27-0.01,2.55-0.03,3.82-0.04c0.77,0.42,1.6,0.56,2.46,0.63c0.54,0.22,0.94,0.59,1.2,1.11c0.95,2.61-0.99,4.73-1.21,7.15
	c-0.04,0.53-0.16,1.05-0.31,1.55c-0.2,0.48-0.44,0.95-0.69,1.41c-0.1,0.24-0.22,0.47-0.32,0.71c-0.72,1.8,0.18,3.76-0.52,5.56
	c-0.89,2.68-2.02,5.25-3.43,7.69c-2.56,4.42-1,7.48,3.39,9.3c5.02,2.08,10.22,3.51,15.74,3.48c8.39-0.04,10.11-1.49,11.52-9.79
	c0.29-1.72,0.42-3.43,0.44-5.16c1.51-3.11,5.18-5.33,3.9-9.58c0.61-2.75,1.33-5.46,2.36-8.1c0.73-1.26,1.83-1.89,3.27-1.96
	c1.03,0.09,1.96,0.47,2.83,1.02c0.78,0.06,1.57,0.13,2.35,0.19c1.65,1.16,3.77-0.03,5.43,1.08c0.8,0.07,1.59,0.14,2.39,0.22
	c1.64,1.19,3.8-0.08,5.44,1.14c0.38,0.17,0.78,0.21,1.19,0.12c1.24,1.02,2.82,0.37,4.17,0.83c1.17,0.3,2.28,0.69,3.01,1.74
	c1.08,2.14,0.36,4.14-0.67,5.99c-0.94,1.7-0.98,3.13,0.42,4.53c-1.29,3.62-6.97,3.22-7.15,7.85c-1.45,3.39-3.53,6.36-5.89,9.19
	c-2.96,3.54-2.41,6.69,1.48,9.18c4.35,2.78,8.69,5.58,13.64,7.22c7.19,2.38,10.18,1.2,13.67-5.37c1.31-2.46,2.31-5.09,3.96-7.37
	c3.01-1.99,4.44-4.81,4.41-8.4c4.28-4.35,4.76-10.14,5.94-15.66c0.33-0.56,0.81-0.92,1.43-1.1c1.12,0.05,1.5,0.99,2.06,1.71
	l0.02,0.01c1,1.27,2.84,0.14,3.85,1.36l-0.02-0.01c0.71,0.73,1.81,0.53,2.59,1.1c0.37,0.21,0.76,0.29,1.18,0.24
	c0.8,0.67,1.97,0.45,2.75,1.15c0.3,0.21,0.63,0.28,0.99,0.21c0.92,0.54,2.14,0.38,2.92,1.25l-0.04-0.03
	c0.76,0.7,1.91,0.52,2.67,1.21l0.04,0.02c0.8,0.98,2.14,0.52,3.08,1.14c2.6,2.71,1.73,6.3,2.41,9.51c-2.66,2.53-0.36,5.25-0.28,7.88
	c-1.43,1.19-3.15,0.95-4.81,0.94c-4.65-0.04-7.64,1.84-7.92,6.85c-1.93,2.59-3.84,5.18-5.71,7.82c-3.58,5.04-3.39,6.59,1.53,9.92
	c4.11,2.78,8.56,5.05,13.2,6.76c4.22,1.55,8.64,1.89,11.7-2.35c2.29-3.17,5.76-6.81-1.09-9.12c-0.87-0.29-0.83-1.37-0.14-2.14
	c3.91-2.13,9.64,0.24,12.31-4.98c4.89-1.85,7.46-5.37,7.85-10.59c0.14-1.86,0.11-3.92,2.22-4.96c2.56,4.25,6.12,7.6,9.76,10.87
	l-0.07-0.1c0.61,0.31,1.06,0.77,1.37,1.37l-0.1-0.07c1.76,2.18,3.88,4.05,5.37,6.45l-0.02-0.03c0.48,0.43,0.96,0.85,1.29,1.41
	l-0.08-0.07c1.15,1.13,1.77,2.63,2.71,3.91l-0.02-0.04c0.5,0.42,0.99,0.83,1.28,1.43l-0.1-0.08c0.99,0.6,0.74,1.86,1.42,2.63
	l-0.04-0.07c0.89,0.65,0.65,1.89,1.39,2.62l-0.02-0.04c0.81,0.7,0.59,1.91,1.32,2.64l-0.02-0.04c0.81,0.71,0.62,1.91,1.29,2.68
	l-0.05-0.07c0.84,0.71,0.73,1.68,0.71,2.63c-2.41,3.41-4.48,0.1-6.54-0.49c-5.41-1.56-10.8-4.04-15.18,1.96
	c-2.35,2.85-5,5.4-7.97,7.62c-3.51,2.63-3.8,5.91-1.03,8.94c3.93,4.3,8.09,8.44,13.22,11.38c4.84,2.77,8.94,1.99,12.8-2.11
	c2.28-2.43,3.37-6.26,7.39-6.84c1.03,0.52,1.32,1.4,1.24,2.47c-0.35,2.74,0.77,5.6-0.7,8.23l0.03-0.06c-1.4,1.5,0.21,3.79-1.38,5.24
	l0.05-0.08c-0.66,0.79-0.46,1.98-1.29,2.69l0.03-0.04c-0.73,0.73-0.48,1.99-1.42,2.61l0.09-0.08c-0.33,0.57-0.8,1.01-1.33,1.39
	l0.06-0.05c-0.38,0.53-0.82,0.99-1.37,1.35l0.06-0.07c-1.92,1.29-3.37,3.25-5.67,4.01c-10.12,1.39-17.34-4.29-24.34-10.2
	c-10.43-8.82-21.17-17.22-32.38-25.02c-39.51-27.5-83.43-43.76-130.75-51.35c-10.69-1.72-21.4-3.29-32.21-4.17
	C380.19,186.69,376.63,187.11,377.5,182.49z"/>
<path class="st5" d="M271.25,185.37c-0.07,0.84-0.14,1.68-0.22,2.52c-1.32,1.54-2.97,2.41-4.97,2.81
	c-40.56,8.08-75.06,27.97-106.55,54.04c-12.83,10.62-24.65,22.4-37.89,32.54c-8.44,6.47-17.44,12.06-26.71,17.22
	c-2.22,1.23-4.43,2.9-7.27,1.76c-0.6-0.53-0.62-1.08-0.07-1.65l-0.02,0.01c0.47-0.42,0.85-0.95,1.41-1.27l-0.06,0.07
	c0.36-0.56,0.81-1.02,1.4-1.33l-0.06,0.1c1.65-1.45,3.29-2.92,5.21-4.02l-0.06,0.03c0.37-0.54,0.82-1.01,1.39-1.34l-0.07,0.07
	c0.35-0.57,0.8-1.03,1.39-1.35l-0.05,0.1c2.89-2.37,5.53-5,7.9-7.89l-0.1,0.06c0.31-0.6,0.77-1.06,1.36-1.38l-0.07,0.07
	c0.32-0.59,0.79-1.04,1.36-1.39l-0.03,0.07c1.02-1.99,2.58-3.56,3.97-5.26l-0.1,0.07c0.3-0.58,0.8-0.99,1.26-1.43l-0.01,0.02
	c0.77-0.7,0.51-1.97,1.42-2.59l-0.05,0.06c0.69-0.73,0.31-2.05,1.4-2.56c0,0,0.08,0.05,0.08,0.06c0.34-0.5,0.68-1.01,1.02-1.51
	c1.53-1.39,2.35-3.14,2.66-5.16c0.97-0.59,1.27-1.52,1.33-2.58c0.96-0.59,1.26-1.53,1.33-2.58c0.96-0.61,1.24-1.55,1.3-2.6
	c0.95-0.62,1.23-1.56,1.28-2.62c0.96-0.62,1.24-1.56,1.27-2.63c0,0-0.02,0.01-0.02,0.01c0.95-0.76,0.24-2.49,1.71-2.95
	c1.76,0.36,2.12,1.95,2.88,3.21c3.91,6.5,5.95,6.9,12.3,2.55c2.49-1.71,4.73-3.73,7.08-5.61c8.63-6.91,8.81-12.69,0.74-20.25
	c-0.94-0.88-2.04-1.58-2.88-2.58c-1.12-2.59-0.66-5.32-0.67-8.01c0.21-0.58,0.55-1.07,1.01-1.48l-0.05,0.02
	c0.39-0.5,0.85-0.93,1.31-1.36l-0.02,0.02c0.41-0.46,0.86-0.89,1.29-1.33l0,0c0.44-0.43,0.87-0.86,1.3-1.3l0,0
	c0.44-0.42,0.88-0.86,1.3-1.3l0,0c0.45-0.42,0.88-0.86,1.31-1.29l-0.01,0.01c0.44-0.44,0.87-0.89,1.35-1.29l-0.03,0.03
	c0.41-0.48,0.85-0.94,1.36-1.32l-0.05,0.05c0.39-0.51,0.83-0.98,1.39-1.33l-0.06,0.06c0.37-0.55,0.82-1.01,1.4-1.34l-0.06,0.11
	c0.37-0.5,0.85-0.78,1.48-0.79c2.65,1.66,4.44,4.52,7.61,5.45c1.26,2.51,2,5.24,3.36,7.73c3.22,5.92,5.47,6.55,11.39,2.97
	c3.54-2.14,6.73-4.71,9.62-7.69c6.84-7.07,6.68-12.2-0.69-18.64c-0.98-0.86-2.28-1.26-3.25-2.15c-1.08-2.25-0.13-4.23,0.8-6.22
	c0.56-0.8,1.46-1.11,2.26-1.57l-0.08,0.04c0.73-0.96,1.98-0.78,2.9-1.31c0.36,0.05,0.69-0.04,0.99-0.25
	c1.55-1.22,3.51-1.59,5.23-2.44l-0.04,0.02c0.78-0.85,1.99-0.7,2.91-1.24c0.36,0.06,0.7-0.01,1-0.22c0.86-0.65,1.79-0.56,2.73-0.23
	c1.73,2.57,2.6,5.64,4.6,8.06c1.58,3.13,1.83,6.63,2.74,9.95c1.11,4.04,3.46,5.69,7.73,4.39c4.99-1.52,9.78-3.46,14.25-6.1
	c6.98-4.12,7.95-7.67,4.36-15.03c-0.95-1.94-2.22-3.7-3.02-5.73c-0.43-2.44,0.6-4.29,2.37-5.83c1.09-0.62,2.46-0.26,3.53-0.99
	c0.79-0.09,1.59-0.18,2.38-0.26c1.25-0.86,2.9-0.14,4.14-1.04c0.78-0.07,1.57-0.15,2.35-0.22c1.21-0.82,2.59-0.41,3.9-0.53
	c2.61-0.41,4.68,0.27,5.83,2.84c0.63,2.71,0.92,5.45,0.4,8.2c-0.67,3.54,0.27,6.47,3.62,7.99
	C272.27,178.33,272.24,181.61,271.25,185.37z"/>
<path class="st6" d="M284.24,302.1c1.95,3.4,2.49,7.29,3.63,10.96c2.44,7.85,5.59,15.39,9.46,22.62c1.51,2.82,3.52,5.38,5.31,8.06
	c-6.02,2.03-12.23,0.71-18.33,0.8c-6.57,0.09-13.2,0.84-19.75-0.54c-3.46,0-6.92-0.01-10.37-0.01c-1.52-1.74-3.58-1.22-5.46-1.23
	c-10.37-0.05-20.74-0.03-31.11-0.04c-7.35,0-14.69-0.01-22.04-0.01c-1.29-0.01-2.57-0.02-3.86-0.03c-1.96-1.55-4.56,0.22-6.54-1.25
	c-0.85-0.02-1.71-0.03-2.56-0.05c-0.98-1.47-2.51-1.24-3.96-1.25c0,0-0.63-0.04-0.63-0.04l-0.64,0c-1.06-1.21-2.86-0.12-3.94-1.28
	l-0.62-0.04l-0.62,0c-0.73-0.76-1.94-0.51-2.67-1.27v0c-0.68-0.8-1.89-0.52-2.59-1.27c-0.42-0.04-0.83-0.06-1.25-0.05
	c-0.42-0.44-0.92-0.8-1.35-1.24c-0.42-0.04-0.84-0.06-1.26-0.06c-0.42-0.45-0.93-0.8-1.35-1.25c-0.41-0.05-0.82-0.06-1.24-0.06
	c-0.46-0.42-0.93-0.83-1.38-1.27l-0.01,0c-0.68-0.8-1.9-0.55-2.58-1.34l0.02,0.02c-0.46-0.42-0.89-0.86-1.33-1.29l0.01,0.01
	c-0.46-0.41-0.79-0.94-1.31-1.28c0,0,0.06-0.07,0.06-0.07c0.54-0.29,1.23-0.96,1.6-0.82c3.25,1.28,6.33,1.17,9.31-0.74
	c2.97-1.9,4.24-4.74,4.8-8.1c0.27-1.63,1.56-1.94,2.83-0.84c1.65,1.42,3.24,2.86,3.69,5.18c0.27,1.38,1.26,2.21,2.59,2.64
	c4.94,1.59,9.88,3.2,14.83,4.76c0.35,0.11,0.82-0.15,1.25-0.25c1.08-1.55,0.61-3.34,0.69-5.04c0.45-9.89,2.63-11.33,11.76-7.73
	c0.2,0.08,0.39,0.2,0.59,0.28c6.07,2.62,6.47,3.41,5.09,9.81c-0.23,1.05-0.43,2.12-0.48,3.19c-0.16,3.63,2.69,6.04,6.24,5.35
	c4.92-0.96,8-6.13,6.26-10.93c-1.03-2.83-2.44-5.51-4.6-7.77c-1.58-1.66-1.05-2.99,1.17-3.84c5.27-2,9.83-0.92,13.54,3.02
	c1.43,1.52,2.17,3.14,2.1,5.23c-0.07,1.94-0.07,3.86,0.83,5.72c1.03,2.14,2.36,3.68,4.91,3.49c5.44-0.41,10.61,1.8,16.11,1.41
	c5.39-0.38,10.84-0.12,16.26-0.06c2.22,0.03,4.31-0.26,6.25-1.4c2.15-1.26,2.97-3.15,2.17-5.49c-0.63-1.86-1.5-3.64-3.05-4.92
	c-2.06-1.7-3.27-4.03-4.69-6.19c-1.72-2.62-1.29-4.95,1.13-6.84c1.18-0.92,2.55-1.64,3.9-2.3
	C282.5,304.51,283.61,303.57,284.24,302.1z"/>
<path class="st7" d="M404.74,348.95c-2.12-2.44-5.37-3.58-7.29-6.26c2.51-2.38,5.69-1.76,8.65-1.78
	c13.66-0.08,27.34,0.47,40.97-0.14c31.14-1.4,61.71-5.78,90.11-19.87c12.31-6.1,22.51-13.94,25.27-28.46
	c0.16-0.85,0.75-1.55,1.35-2.19c6.47-1.12,12.86-0.52,19.19,1.02c0.74,0.53,0.88,1.18,0.43,1.97l0.02-0.02
	c-0.76,0.71-0.51,1.94-1.34,2.61l0.04-0.03c-0.39,0.48-0.85,0.9-1.26,1.36l0,0.01c-0.81,0.67-0.55,1.91-1.37,2.57l0.04-0.03
	c-0.39,0.49-0.85,0.91-1.29,1.35l0.01-0.01c-0.42,0.44-0.87,0.86-1.26,1.33l-0.02,0.02c-2.6,3.46-5.63,6.5-9.1,9.09l-0.02,0.01
	c-0.46,0.4-0.88,0.84-1.32,1.27l0.01-0.01c-0.44,0.44-0.87,0.89-1.34,1.29l0.02-0.02c-0.41,0.47-0.85,0.92-1.34,1.31l0.03-0.04
	c-0.65,0.84-1.89,0.58-2.56,1.38l-0.01,0c-0.45,0.42-0.88,0.87-1.35,1.27l0.03-0.03c-0.66,0.82-1.9,0.55-2.55,1.37l-0.02,0.01
	c-0.47,0.4-0.88,0.85-1.35,1.25l0.02-0.03c-0.67,0.8-1.9,0.54-2.56,1.36l-0.02,0.02c-0.47,0.4-0.88,0.86-1.36,1.25l0.03-0.03
	c-0.67,0.82-1.9,0.56-2.58,1.36l0,0c-0.45,0.46-0.92,0.88-1.45,1.26c-0.4-0.01-0.79,0.03-1.17,0.12c-0.45,0.4-0.89,0.8-1.32,1.21
	l0.02-0.02c-0.68,0.8-1.91,0.55-2.59,1.34v0c-0.46,0.45-0.93,0.89-1.47,1.25c-0.39-0.02-0.77,0.02-1.15,0.1
	c-0.44,0.41-0.89,0.82-1.34,1.22l0.03-0.03c-0.68,0.82-1.9,0.58-2.61,1.33l0.02-0.01c-0.69,0.79-1.91,0.55-2.61,1.33l0.01-0.01
	c-0.7,0.77-1.91,0.53-2.6,1.31l0,0c-0.71,0.76-1.91,0.52-2.6,1.31l0,0c-0.71,0.75-1.91,0.52-2.61,1.29l0.01-0.01
	c-0.71,0.76-1.91,0.54-2.62,1.3l0.02-0.01c-0.71,0.78-1.91,0.56-2.64,1.3l0.02-0.02c-0.72,0.83-1.94,0.6-2.73,1.29
	c-0.39-0.02-0.78,0.01-1.16,0.09c-0.71,0.76-1.92,0.49-2.63,1.25l0.02-0.01c-1.04,1.21-2.86,0.12-3.9,1.33l0.01,0
	c-1.06,1.16-2.86,0.1-3.91,1.31l0,0c-1.07,1.16-2.86,0.12-3.93,1.29l0.02-0.01c-1.49,1.43-3.73-0.09-5.23,1.31l0.02-0.01
	c-2.42,1.69-5.45-0.31-7.89,1.31l-0.6-0.03l-0.6,0.04c-3.47,1.05-6.95,1.07-10.42-0.01l0.03,0.01c-0.47-0.43-0.94-0.41-1.41-0.01
	l-0.61-0.03l-0.61,0.05c-2.89,1.7-6.31-0.4-9.21,1.28c-1.27,0.02-2.55,0.03-3.82,0.05c-9.54,1.01-19.08,1-28.62,0.01
	c-2.15-0.02-4.29-0.04-6.44-0.06C419.91,348.6,412.16,351.23,404.74,348.95z"/>
<path class="st8" d="M554.84,185.24c-1.28-2.02-3.29-3.81-1.68-6.65c0.23-0.4-0.64-1.42-1.01-2.16c1.41-1.75,3.84-1.48,5.49-2.76
	c0.4,0,0.78-0.07,1.14-0.23c0.76-0.62,1.9-0.36,2.59-1.14c0.44-0.04,0.88-0.08,1.32-0.13c3.44-0.83,6.89-0.86,10.33,0.02
	c0.42,0.12,0.85,0.16,1.29,0.11c1.08,1.18,2.86,0.15,3.96,1.27l0.01,0.01c0.66,0.81,1.84,0.53,2.56,1.22
	c0.33,0.15,0.68,0.21,1.04,0.18c0.62,0.28,1.11,0.74,1.59,1.21l0.01,0c0.66,0.81,1.94,0.52,2.54,1.43l-0.06-0.07
	c0.55,0.35,1,0.8,1.35,1.35l-0.07-0.06c0.9,0.63,0.64,1.88,1.41,2.59l-0.02-0.03c1,1.73,1.01,3.46-0.01,5.19l0.02-0.04
	c-0.75,0.72-0.5,1.96-1.39,2.6l0.06-0.06c-0.33,0.52-0.81,0.92-1.2,1.39l-0.04,0.06c-0.44,0.43-0.97,0.62-1.58,0.62
	c-0.91,0.11-1.73,0.5-2.57,0.83c-1.2,0.45-2.42,0.84-3.67,1.12c-6.81,1.16-13.03-0.89-19.12-3.57
	C557.17,188.68,555.3,187.65,554.84,185.24z"/>
<path class="st8" d="M472.96,155.29c-1.07,0.12-2.12,0.27-2.73,1.33c-2.4,3.26-6.2,2.61-9.48,3.42c-0.62,0.15-1.24,0.23-1.87,0.26
	c-3.76-0.33-7.36-1.35-10.86-2.74c-3.36-2.07-7.2-3.32-10.3-5.85c-0.08-0.2-0.15-0.41-0.21-0.63l-0.42-0.48l0.38-0.51l0.13-0.12
	c0.36-0.24,0.5-0.5,0.42-0.79c-0.09-0.3-0.19-0.44-0.3-0.44c0-0.77,0-1.55,0.01-2.32c0.7-0.78,0.45-2.04,1.37-2.7l-0.07,0.08
	c0.57-0.9,1.88-0.57,2.45-1.47l0.09-0.05c0.52-0.36,0.97-0.81,1.51-1.15c0.4,0.02,0.79-0.04,1.16-0.2c0.78-0.62,1.92-0.4,2.66-1.12
	c0.41,0.05,0.82,0.02,1.22-0.1c2.57-0.93,5.14-0.82,7.73-0.09c0.86,0.06,1.72,0.11,2.59,0.17c2.5,1.24,5.81,0.09,7.86,2.66
	l-0.04-0.03c1.36,0.8,3.26,0.77,3.95,2.59l-0.02-0.02c1.12,0.63,2,1.5,2.62,2.62l-0.02-0.04c0.81,0.7,0.59,1.91,1.32,2.64
	l-0.03-0.04c0.81,0.86,0.81,1.71,0,2.57l0.01-0.03C473.49,153.48,473.76,154.62,472.96,155.29z"/>
<path class="st8" d="M499.02,160.75c-1.08-0.15-2.12-0.37-2.81-1.34c1.61-0.86,1.95-2.6,2.76-4.01l-0.06,0.06
	c0.36-0.53,0.83-0.95,1.3-1.38l-0.03,0.03c0.43-0.47,0.86-0.93,1.37-1.31l-0.05,0.05c0.65-0.85,1.9-0.58,2.57-1.39l0.01,0
	c0.79-0.75,1.97-0.57,2.81-1.21c0.82-0.07,1.64-0.14,2.46-0.21c3.02-0.74,6.03-0.87,9.03,0.07c0.41,0.11,0.83,0.14,1.25,0.09
	c1.09,1.16,2.86,0.13,3.97,1.24c0.33,0.14,0.67,0.18,1.03,0.12c0.59,0.26,1.07,0.68,1.56,1.09c0.35,0.15,0.71,0.22,1.09,0.19
	c0.58,0.31,1.06,0.76,1.56,1.16l0.05,0.03c0.61,0.87,1.89,0.56,2.5,1.44l-0.06-0.06c0.53,0.37,0.98,0.82,1.36,1.34l-0.05-0.05
	c0.52,0.39,0.98,0.83,1.33,1.37l-0.06-0.07c1.26,2.13,0.99,4.29,0.15,6.47l-0.01,0.02c-0.83,0.64-0.53,1.92-1.43,2.53l0.02-0.07
	c-0.33,0.56-0.71,0.6-1.15,0.13c-0.46,0.02-0.92,0.04-1.38,0.07c-0.48,0.41-0.98,0.79-1.49,1.16c-1.14,0.64-2.36,1.06-3.64,1.36
	C515.02,170.42,505.81,169.11,499.02,160.75z"/>
<path class="st8" d="M212.48,178.79c-3.58-1.61-4.14-4.7-3.98-8.14c-0.36-0.24-0.48-0.47-0.34-0.68c0.13-0.21,0.26-0.31,0.39-0.31
	l0.02-0.01c1.08-1.15,1.58-2.72,2.76-3.8l-0.07,0.04c0.34-0.55,0.8-1,1.34-1.36l-0.05,0.05c0.37-0.54,0.82-0.99,1.35-1.35
	l-0.05,0.05c0.37-0.54,0.81-0.99,1.36-1.34l-0.05,0.07c1.21-1.13,2.64-1.93,4.13-2.62c0.37,0.02,0.71-0.05,1.04-0.22
	c0.48-0.43,0.96-0.85,1.55-1.12c0.36,0.05,0.71,0,1.05-0.15c0.77-0.72,1.95-0.49,2.74-1.17c0.4,0.04,0.79,0,1.17-0.13
	c3.9-0.85,7.8-0.97,11.69,0.06l0.01,0c1.48,1.15,3.21,2.06,3.92,3.97c-0.87,1.72-1.73,3.44-2.6,5.16c0.6,2.27-0.76,3.83-2.24,5.03
	C230.31,176.75,222.68,181.89,212.48,178.79z"/>
<path class="st8" d="M191.71,177.58c-0.43,2.15-0.85,4.3-1.28,6.45c0.8,0.93,0.74,1.96,0.33,3.01
	c-2.89,7.59-14.15,15.69-21.17,15.25c-0.82-0.03-1.64-0.09-2.47-0.1c-2.11-0.03-3.47-0.96-4.06-3.07c-0.21-0.74-0.79-1.38-1.2-2.06
	c-0.38-0.29-0.51-0.58-0.38-0.87c0.13-0.29,0.25-0.44,0.38-0.44l-0.05,0.04c0.65-0.79,0.47-1.96,1.24-2.69l-0.01,0.02
	c1.21-1.04,0.09-2.89,1.37-3.91l-0.03,0.05c0.71-0.75,0.47-1.98,1.37-2.63l-0.07,0.06c0.35-0.54,0.82-0.97,1.3-1.39l-0.02,0.03
	c0.83-1.76,2.21-2.98,3.84-3.97l0.03-0.02c0.48-0.39,0.89-0.84,1.35-1.25l-0.02,0.02c0.43-0.46,0.86-0.93,1.39-1.29l-0.06,0.06
	c0.63-0.88,1.89-0.62,2.57-1.41l-0.01,0c0.7-0.75,1.91-0.51,2.59-1.31l0.01,0c0.78-0.75,1.97-0.57,2.79-1.22
	c0.39,0.05,0.76,0.01,1.13-0.12c2.17-0.84,4.34-1.05,6.47,0.12l-0.06-0.05c0.49,0.37,0.9,0.84,1.38,1.23l0.03,0.02
	C190.83,176.65,191.62,176.79,191.71,177.58z"/>
<path class="st8" d="M588.61,230.93c0.59-3.88,3.01-5.28,6.76-5.36c4.9-0.11,9.31,1.15,13.33,3.88c0.76,0.52,1.44,0.91,2.17,0.01
	c0.53-0.48,0.92-0.41,1.16,0.29c-0.02,0.38,0.03,0.76,0.17,1.11c0.4,0.45,0.78,0.91,1.14,1.39l-0.06-0.05
	c1.35,1.72,2.87,3.32,3.98,5.22l-0.03-0.05c0.86,0.65,0.61,1.9,1.38,2.6l-0.01-0.02c0.79,0.78,0.62,1.97,1.24,2.83
	c0,1.57-0.01,3.14-0.01,4.71c-0.43,1.33-1.38,2.19-2.59,2.81l0.05-0.03c-0.37,0.52-0.83,0.97-1.34,1.36l0.01-0.05
	c-0.23,0.55-0.58,0.64-1.06,0.28c-0.53-0.47-1.06-0.94-1.59-1.4c-1.34,0.92-2.77,0.99-4.33,0.69
	C600.03,249.4,589.44,238.93,588.61,230.93z"/>
<path class="st8" d="M148.62,209.86c0.93,2.65,0.92,5.33,0.17,8.01c1.79,3.25-0.54,5.37-2.29,7.42c-5.27,6.2-11.57,11.07-19.35,13.8
	c-0.65,0.08-1.26-0.05-1.83-0.37c0,0-0.11-0.09-0.11-0.09c-0.35-0.51-0.58-1.21-1.06-1.51c-2.2-1.36-3.08-3.26-2.84-5.8
	c0.13-1.45,0.07-2.92,0.09-4.39c0,0,0,0,0,0c1.25-1.01,0.07-2.9,1.41-3.88l-0.04,0.06c0.85-1.34,1.53-2.79,2.64-3.95l-0.07,0.05
	c0.36-0.54,0.82-0.98,1.33-1.37l-0.05,0.05c0.38-0.51,0.83-0.96,1.35-1.35l-0.05,0.05c0.39-0.51,0.83-0.97,1.36-1.34l-0.05,0.05
	c0.41-0.58,0.92-1.03,1.59-1.3c0.36,0.02,0.69-0.06,1.01-0.24c0.45-0.36,0.89-0.74,1.31-1.14l-0.03,0.03
	c0.67-0.8,1.91-0.54,2.57-1.36l0.02-0.01c0.74-0.72,1.92-0.51,2.64-1.26l-0.03,0.01c1.56-1.41,3.79,0.04,5.37-1.27
	c0.31,0.11,0.62,0.11,0.93,0.01C145.77,209.79,147.43,208.96,148.62,209.86z"/>
<path class="st8" d="M263.32,160.38c-1.49-1.53-3.38-2.19-5.43-2.52c-0.38-0.54-0.25-0.91,0.38-1.1c0.65-0.14,1.05-0.52,1.16-1.19
	c1.06-1.15,0.02-3,1.34-4.07l-0.07,0.07c0.34-0.54,0.82-0.96,1.27-1.4l-0.01,0.02c0.97-1.64,2.24-2.99,3.95-3.89l-0.04,0.03
	c0.64-0.83,1.9-0.55,2.53-1.4l0.04-0.03c0.51-0.43,1-0.9,1.63-1.15c0.34,0.06,0.67,0.01,0.99-0.13c0.77-0.76,1.97-0.53,2.78-1.19
	c0.39,0.05,0.76,0.01,1.13-0.12c2-1.42,4.57,0.26,6.56-1.21l-0.05,0.03c1.04-0.9,2.03-0.91,2.97,0.15
	c-4.95,5.5-8.04,11.98-9.87,19.09C270.84,162.97,267.08,163.47,263.32,160.38z"/>
<path class="st2" d="M404.74,348.95c6.8,0.14,13.59,0.24,20.38,0.46c0.75,0.02,1.48,0.7,2.22,1.08
	c-17.02,0.01-34.05,0.02-51.08,0.03c-2.37,0-4.69-0.06-7.01-0.82c-1.59-0.52-3.4-0.43-5.11-0.46c-3.88-0.06-7.76-0.03-11.64-0.04
	c-1.34,0-2.57-0.22-3.38-1.45c7.75,0.29,15.51,0.53,23.26,0.88C383.17,349.11,393.95,349.37,404.74,348.95z"/>
<path class="st2" d="M264.56,344.01c10.55,0,21.09,0.02,31.64-0.01c2.15-0.01,4.29-0.16,6.44-0.25c3.75,0.67,7.53,0.38,11.31,0.41
	c2.69,0.02,5.46-0.4,7.97,1.07c-17.52,0.03-35.05,0.07-52.57,0.08C267.64,345.31,265.82,345.65,264.56,344.01z"/>
<path class="st2" d="M364.77,129.26c-1.49,0.02-2.98,0.12-4.46,0.03c-9.16-0.57-18.32-0.53-27.48,0.02
	c-1.48,0.09-2.97-0.01-4.46-0.03c0.74-0.87,1.71-1.22,2.83-1.22c10.25,0,20.49,0,30.74,0C363.04,128.06,364.02,128.39,364.77,129.26
	z"/>
<path class="st2" d="M433.79,350.54c9.54,0,19.08-0.01,28.62-0.01c-0.72,0.89-1.68,1.27-2.79,1.27c-7.68,0-15.35,0-23.03,0
	C435.47,351.8,434.51,351.43,433.79,350.54z"/>
<path class="st2" d="M585,190.5c0.36,0.07,0.72,0.09,1.08,0.05c-0.11,2.03,0.37,3.69,2.16,5.02c2.4,1.77,4.68,3.76,5.54,6.83
	c-3.64-1.22-5.69-4.44-8.41-6.81c-1.05-0.92-0.57-2.44-0.76-3.69C584.01,191.23,584.14,190.77,585,190.5z"/>
<path class="st2" d="M567.88,311.5c2.58-3.48,5.61-6.52,9.1-9.09C575.39,306.89,572.36,309.92,567.88,311.5z"/>
<path class="st2" d="M597.85,285.49c-2.13,3.36-4.75,5.86-9.16,5.22c-0.09-0.28-0.17-0.56-0.26-0.84c2.22-2.86,4.95-4.84,8.73-4.94
	C597.39,285.12,597.62,285.3,597.85,285.49z"/>
<path class="st2" d="M333.63,346.46c4.99,0.04,10-0.24,14.85,1.33c-3.84,0.04-7.69,0.08-11.53,0.11
	C335.64,347.92,334.39,347.75,333.63,346.46z"/>
<path class="st2" d="M238.53,156.67c-3.9-0.02-7.79-0.04-11.69-0.06C230.75,154.65,234.64,154.56,238.53,156.67z"/>
<path class="st2" d="M321.91,345.18c3.95,0.09,7.95-0.29,11.72,1.34c-3.01,0.02-6.01,0.06-9.02,0.07
	C323.49,346.59,322.54,346.18,321.91,345.18z"/>
<path class="st2" d="M557.65,173.67c-1.28,2.02-3.18,2.81-5.49,2.76c-0.83-0.52-1.65-1.04-2.48-1.56
	C552.45,175.28,554.84,173.1,557.65,173.67z"/>
<path class="st2" d="M573.02,172.19c-3.44-0.01-6.88-0.01-10.33-0.02C566.14,170.37,569.58,170.34,573.02,172.19z"/>
<path class="st2" d="M600.37,210.06c-2.27-1.76-4.5-3.54-5.37-6.45C597.76,204.94,599.98,206.74,600.37,210.06z"/>
<path class="st2" d="M478.05,349.18c3.47,0,6.94,0.01,10.42,0.01C484.99,351.21,481.52,351.23,478.05,349.18z"/>
<path class="st2" d="M326.01,129.47c-3.01,1.34-6.18,1.23-9.36,1.12c0.74-0.91,1.73-1.24,2.87-1.23
	C321.68,129.39,323.84,129.44,326.01,129.47z"/>
<path class="st2" d="M403.78,137.2c-2.95-0.25-5.76-1-8.35-2.48C398.54,134.43,401.59,134.36,403.78,137.2z"/>
<path class="st2" d="M466.29,142.45c-2.64-0.84-5.52-0.95-7.86-2.66c1.29,0,2.58-0.01,3.87-0.01
	C464.23,139.78,465.57,140.65,466.29,142.45z"/>
<path class="st2" d="M518.36,150.11c-3.01-0.02-6.02-0.05-9.03-0.07C512.98,148.42,514.86,148.43,518.36,150.11z"/>
<path class="st2" d="M603.32,276.39c1.54-1.05,2.79-2.6,4.83-2.75c-1.06,2.39-3.02,3.94-5.05,5.43c-0.2-0.2-0.4-0.41-0.6-0.61
	C602.27,277.57,602.3,276.78,603.32,276.39z"/>
<path class="st2" d="M498.97,155.4c-0.08,1.91,0.01,3.94-2.76,4.01c-1.38-0.32-2.92-0.17-3.99-1.38
	C494.89,158.23,497.27,157.68,498.97,155.4z"/>
<path class="st2" d="M242.46,160.64c-1.69-0.94-2.87-2.39-3.92-3.97c1.31,0.02,2.42,0.51,3.36,1.39c0.96,0.9,2.15,1.19,3.41,1.33
	C244.57,160.27,243.5,160.43,242.46,160.64z"/>
<path class="st2" d="M614.89,251.83c0.34-0.13,0.69-0.23,1.06-0.28c0.01,2.14,0.04,4.29,0.04,6.43c0,1.13-0.39,2.08-1.35,2.75
	C614.72,257.77,614.81,254.8,614.89,251.83z"/>
<path class="st2" d="M466.24,350.48c0.75-0.85,1.73-1.18,2.83-1.2c2.12-0.03,4.25-0.05,6.37-0.08c-0.7,0.92-1.66,1.3-2.78,1.3
	C470.52,350.5,468.38,350.49,466.24,350.48z"/>
<path class="st2" d="M455.85,139.62c-2.58,0.03-5.15,0.06-7.73,0.09C450.68,137.84,453.25,137.87,455.85,139.62z"/>
<path class="st2" d="M300.15,133.42c-2.13,1.33-4.51,1.89-6.94,2.34C294.75,132.67,297.52,133.24,300.15,133.42z"/>
<path class="st2" d="M617.26,237.42c-1.92-1.29-3.57-2.78-3.98-5.22C615.55,233.22,617.27,234.66,617.26,237.42z"/>
<path class="st2" d="M489.66,349.18c2.35-2.13,5.24-0.97,7.89-1.31c-0.67,0.96-1.63,1.33-2.75,1.33
	C493.09,349.2,491.37,349.19,489.66,349.18z"/>
<path class="st2" d="M170.81,181.37c-0.88,1.71-2.19,3.01-3.84,3.97C167.24,181.76,167.24,181.76,170.81,181.37z"/>
<path class="st2" d="M375.18,130.55c-2.41,0.11-4.83,0.21-7.04-1.04C370.52,129.62,373.08,128.5,375.18,130.55z"/>
<path class="st2" d="M314.41,130.8c-2.16,1.23-4.51,1.2-6.88,1.08C309.56,129.8,312.08,130.9,314.41,130.8z"/>
<path class="st2" d="M281.55,141.11c-1.94,1.73-4.33,1.04-6.56,1.21C276.87,140.23,279.33,141.33,281.55,141.11z"/>
<path class="st2" d="M265.93,146.31c-0.97,1.65-2.29,2.94-3.95,3.89C262.07,147.66,263.37,146.35,265.93,146.31z"/>
<path class="st2" d="M534.03,164.48c-0.05-2.16-0.1-4.31-0.15-6.47C536.03,160.12,535.86,162.28,534.03,164.48z"/>
<path class="st2" d="M202.14,172.33c-1.43,1.49-3.22,2.21-5.23,2.44C197.95,172.46,199.93,172.14,202.14,172.33z"/>
<path class="st2" d="M189.05,174.97c-2.16-0.04-4.32-0.08-6.47-0.12C184.77,173.03,186.93,172.91,189.05,174.97z"/>
<path class="st2" d="M583.43,293.26c-0.02-0.48-0.04-0.96-0.06-1.43c1.01-3.14,3.02-2.51,5.16-1.36c0,0,0.17,0.25,0.17,0.25
	C587.37,292.45,585.03,292.09,583.43,293.26z"/>
<path class="st2" d="M383,131.88c-1.96,0.13-3.9,0.15-5.61-1.08C379.33,130.8,381.42,130.01,383,131.88z"/>
<path class="st2" d="M306.37,132.05c-1.61,1.17-3.45,1.3-5.35,1.18C302.47,131.34,304.51,132.09,306.37,132.05z"/>
<path class="st2" d="M389.52,133.28c-1.92,0.08-3.81,0.04-5.42-1.21C385.99,132.09,388.06,131.33,389.52,133.28z"/>
<path class="st2" d="M289.55,137.43c-1.03,1.32-2.37,2.17-3.96,2.64C286.04,137.9,287.41,137.08,289.55,137.43z"/>
<path class="st2" d="M470.2,145.01c-1.43-0.69-2.97-1.21-3.95-2.6C469.46,142.5,469.46,142.5,470.2,145.01z"/>
<path class="st2" d="M483.2,156.56c-1.9,0.09-3.83,0.34-5.43-1.08C479.64,155.53,481.68,154.75,483.2,156.56z"/>
<path class="st2" d="M491.03,157.91c-1.9,0.04-3.85,0.3-5.44-1.14C487.47,156.83,489.53,156.04,491.03,157.91z"/>
<path class="st2" d="M219.29,159.39c-1.01,1.44-2.29,2.48-4.13,2.61C215.83,160.02,217.24,159.2,219.29,159.39z"/>
<path class="st2" d="M211.33,165.85c-0.16,1.82-0.91,3.21-2.76,3.8C208.64,167.76,209.46,166.42,211.33,165.85z"/>
<path class="st2" d="M125.4,219.17c-0.19,1.78-1.06,3.1-2.64,3.95C122.65,221.14,123.51,219.81,125.4,219.17z"/>
<path class="st2" d="M613.29,265.93c0.14-1.83-0.11-3.77,1.38-5.24C614.53,262.51,615.39,264.61,613.29,265.93z"/>
<path class="st2" d="M603.1,279.07c-0.16,1.8-1.03,3.1-2.69,3.85c-0.18-0.21-0.36-0.43-0.55-0.64c-0.44-1.6,0.24-2.73,1.49-3.63
	c0.56-0.23,1.07-0.16,1.55,0.22L603.1,279.07z"/>
<path class="st2" d="M588.63,186.59c0-1.73,0.01-3.46,0.01-5.19C590.43,183.87,590.43,184.13,588.63,186.59z"/>
<path class="st2" d="M497.53,347.89c1.41-1.77,3.42-1.14,5.23-1.31C501.4,348.55,499.34,347.74,497.53,347.89z"/>
<path class="st2" d="M143.68,208.78c-1.54,1.5-3.52,1.12-5.37,1.27C139.73,208.06,141.81,208.88,143.68,208.78z"/>
<path class="st2" d="M604.26,215.28c-1.51-0.88-2.43-2.17-2.7-3.91C603.45,211.98,604.3,213.32,604.26,215.28z"/>
<path class="st2" d="M394.73,134.57c-1.61,0.09-3.19,0.06-4.47-1.15C391.87,133.33,393.57,132.9,394.73,134.57z"/>
<path class="st2" d="M407.66,138.62c-1.43-0.04-2.81-0.24-3.83-1.4C405.29,137.2,406.85,136.88,407.66,138.62z"/>
<path class="st2" d="M284.47,141.29c-0.99-0.05-1.98-0.1-2.97-0.15c1.03-1.7,2.61-1.35,4.16-1.12
	C285.59,140.75,285.07,141.06,284.47,141.29z"/>
<path class="st2" d="M472.8,147.62c-1.2-0.55-2.07-1.43-2.62-2.62C471.93,145,472.8,145.87,472.8,147.62z"/>
<path class="st2" d="M523.58,151.44c-1.46,0.02-2.92,0.06-3.97-1.24C521.06,150.21,522.61,149.91,523.58,151.44z"/>
<path class="st2" d="M260.78,151.51c-0.06,1.48-0.11,2.97-1.35,4.06C259.41,154.06,259.03,152.43,260.78,151.51z"/>
<path class="st2" d="M472.96,155.29c-0.09-1.06,0.21-1.95,1.12-2.57c0.44,0.86,0.89,1.71,1.33,2.57
	C474.6,155.29,473.78,155.29,472.96,155.29z"/>
<path class="st2" d="M258.27,156.76c-0.12,0.37-0.24,0.74-0.38,1.1c-1.24,0-2.47,0-3.71,0C255.25,156.38,256.8,156.71,258.27,156.76
	z"/>
<path class="st2" d="M251.83,158.09c-1.17,1.18-2.64,1.19-4.14,1.04C248.79,157.67,250.35,158.01,251.83,158.09z"/>
<path class="st2" d="M536.6,169.72c-1.44-0.01-2.88-0.04-3.86-1.36C534.17,168.43,535.71,168.15,536.6,169.72z"/>
<path class="st2" d="M578.27,173.57c-1.45,0-2.92,0.04-3.96-1.27C575.76,172.32,577.3,172.04,578.27,173.57z"/>
<path class="st2" d="M164.42,189.22c-0.08,1.44-0.05,2.91-1.37,3.91C163.08,191.67,162.77,190.1,164.42,189.22z"/>
<path class="st2" d="M148.62,209.86c-1.46,0.12-2.91,0.2-4-1.07c1.39-0.01,2.78-0.02,4.17-0.04
	C148.77,209.13,148.71,209.5,148.62,209.86z"/>
<path class="st2" d="M502.74,346.59c0.97-1.45,2.49-1.25,3.93-1.29C505.73,346.86,504.19,346.58,502.74,346.59z"/>
<path class="st2" d="M506.66,345.31c0.97-1.45,2.48-1.26,3.91-1.31C509.65,345.55,508.1,345.27,506.66,345.31z"/>
<path class="st2" d="M510.57,344c0.96-1.45,2.47-1.28,3.9-1.33C513.56,344.26,512.01,343.97,510.57,344z"/>
<path class="st2" d="M617.23,250.28c0.86-0.93,1.73-1.87,2.59-2.81C619.94,249.31,619.13,250.3,617.23,250.28z"/>
<path class="st2" d="M122.8,223.06c-0.07,1.44-0.08,2.9-1.41,3.88C121.43,225.49,121.12,223.91,122.8,223.06z"/>
<path class="st2" d="M292.4,136.04c-0.69,1.06-1.78,1.31-2.93,1.44C289.94,135.98,291.13,135.93,292.4,136.04z"/>
<path class="st2" d="M410.28,139.87c-1.09,0.01-2.08-0.2-2.66-1.27C408.76,138.49,409.75,138.69,410.28,139.87z"/>
<path class="st2" d="M412.89,141.14c-1.09,0.01-2.05-0.24-2.62-1.28C411.38,139.79,412.36,139.99,412.89,141.14z"/>
<path class="st2" d="M446.9,139.8c-0.66,0.9-1.59,1.19-2.66,1.12C444.87,139.92,445.85,139.77,446.9,139.8z"/>
<path class="st2" d="M415.5,142.41c-1.08,0.01-2.03-0.24-2.6-1.27C414,141.09,414.97,141.29,415.5,142.41z"/>
<path class="st2" d="M273.86,142.44c-0.69,0.94-1.68,1.21-2.78,1.19C271.71,142.55,272.74,142.37,273.86,142.44z"/>
<path class="st2" d="M418.1,143.73c-1.08,0.01-2-0.29-2.57-1.3C416.62,142.39,417.59,142.61,418.1,143.73z"/>
<path class="st2" d="M441.48,142.31c-0.51,1-1.38,1.39-2.45,1.47C439.47,142.67,440.43,142.4,441.48,142.31z"/>
<path class="st2" d="M420.7,145.01c-1.09,0.03-2.02-0.25-2.58-1.27C419.21,143.69,420.18,143.9,420.7,145.01z"/>
<path class="st2" d="M439.11,143.71c-0.06,1.1-0.45,2.04-1.37,2.7C437.71,145.26,437.87,144.21,439.11,143.71z"/>
<path class="st2" d="M268.41,144.94c-0.56,0.98-1.47,1.31-2.53,1.4C266.38,145.24,267.34,144.99,268.41,144.94z"/>
<path class="st2" d="M423.31,146.29c-1.08,0.03-1.99-0.28-2.57-1.26C421.83,144.99,422.79,145.2,423.31,146.29z"/>
<path class="st2" d="M425.92,147.56c-1.08,0.05-1.98-0.27-2.55-1.25C424.44,146.28,425.39,146.49,425.92,147.56z"/>
<path class="st2" d="M428.54,148.83c-1.08,0.07-1.95-0.29-2.53-1.23C427.06,147.58,428,147.79,428.54,148.83z"/>
<path class="st2" d="M474.1,150.22c-0.95-0.63-1.24-1.58-1.32-2.64C473.89,148.12,474.11,149.11,474.1,150.22z"/>
<path class="st2" d="M431.15,150.1c-1.1,0.14-1.9-0.34-2.5-1.22C429.69,148.88,430.61,149.09,431.15,150.1z"/>
<path class="st2" d="M437.48,150.1c0.05,0.33,0.06,0.66,0.04,0.99c-1.04,0.17-1.97-0.01-2.73-0.8
	C435.69,150.22,436.58,150.16,437.48,150.1z"/>
<path class="st2" d="M474.07,152.75c0-0.86,0-1.71,0-2.57C475.48,151.04,475.48,151.9,474.07,152.75z"/>
<path class="st2" d="M506.88,150.25c-0.7,0.94-1.7,1.2-2.81,1.21C504.69,150.32,505.74,150.18,506.88,150.25z"/>
<path class="st2" d="M504.06,151.46c-0.58,0.98-1.51,1.31-2.57,1.39C501.99,151.74,502.97,151.5,504.06,151.46z"/>
<path class="st2" d="M531.37,155.48c-1.06-0.09-1.96-0.45-2.5-1.44C529.94,154.11,530.91,154.36,531.37,155.48z"/>
<path class="st2" d="M225.67,156.74c-0.68,0.94-1.64,1.21-2.74,1.17C223.56,156.85,224.57,156.69,225.67,156.74z"/>
<path class="st2" d="M532.59,167.03c0.03-1.09,0.42-1.99,1.43-2.53C533.98,165.59,533.73,166.56,532.59,167.03z"/>
<path class="st2" d="M208.55,169.66c-0.05,0.33-0.06,0.66-0.05,1c-0.83,0.08-1.66,0.16-2.49,0.23
	C206.58,169.9,207.53,169.7,208.55,169.66z"/>
<path class="st2" d="M539.16,170.81c-1.06,0.1-1.95-0.2-2.59-1.1C537.6,169.69,538.55,169.85,539.16,170.81z"/>
<path class="st2" d="M205.01,171.11c-0.73,0.98-1.77,1.23-2.91,1.24C202.72,171.11,203.82,171,205.01,171.11z"/>
<path class="st2" d="M543.1,172.2c-1.1,0.06-2.06-0.23-2.75-1.15C541.45,171,542.46,171.15,543.1,172.2z"/>
<path class="st2" d="M547,173.66c-1.14-0.02-2.18-0.27-2.91-1.25C545.28,172.31,546.39,172.41,547,173.66z"/>
<path class="st2" d="M561.38,172.3c-0.63,0.9-1.53,1.21-2.59,1.14C559.39,172.46,560.35,172.3,561.38,172.3z"/>
<path class="st2" d="M549.63,174.85c-1.09,0.02-2.04-0.24-2.67-1.21C548.05,173.6,549.03,173.81,549.63,174.85z"/>
<path class="st2" d="M580.84,174.8c-1.06,0.03-1.96-0.28-2.56-1.22C579.32,173.6,580.27,173.8,580.84,174.8z"/>
<path class="st2" d="M181.44,174.96c-0.7,0.94-1.68,1.22-2.79,1.22C179.26,175.04,180.31,174.9,181.44,174.96z"/>
<path class="st2" d="M195.92,175.02c-0.72,0.99-1.75,1.29-2.9,1.31C193.59,175.02,194.71,174.91,195.92,175.02z"/>
<path class="st2" d="M178.64,176.18c-0.6,0.97-1.53,1.28-2.59,1.31C176.6,176.44,177.57,176.21,178.64,176.18z"/>
<path class="st2" d="M191.71,177.58c-0.43-0.47-0.87-0.94-1.3-1.41c0.9,0.04,1.8,0.09,2.69,0.13
	C192.64,176.72,192.17,177.15,191.71,177.58z"/>
<path class="st2" d="M586.02,177.62c-1.09-0.05-1.99-0.43-2.54-1.43C584.58,176.22,585.56,176.46,586.02,177.62z"/>
<path class="st2" d="M176.06,177.49c-0.57,1-1.5,1.33-2.57,1.41C173.97,177.76,174.96,177.52,176.06,177.49z"/>
<path class="st2" d="M588.66,181.43c-0.98-0.59-1.34-1.51-1.41-2.59C588.42,179.32,588.65,180.31,588.66,181.43z"/>
<path class="st2" d="M165.76,186.64c-0.05,1.09-0.35,2.05-1.37,2.63C164.36,188.14,164.58,187.14,165.76,186.64z"/>
<path class="st2" d="M587.26,189.15c0.08-1.07,0.43-2,1.39-2.6C588.65,187.67,588.42,188.66,587.26,189.15z"/>
<path class="st2" d="M163.06,193.11c0.02,1.1-0.12,2.12-1.24,2.69C161.75,194.68,161.96,193.69,163.06,193.11z"/>
<path class="st2" d="M138.33,210.03c-0.62,0.97-1.56,1.25-2.64,1.26C136.27,210.25,137.25,210.03,138.33,210.03z"/>
<path class="st2" d="M135.67,211.3c-0.58,0.98-1.51,1.29-2.57,1.36C133.63,211.58,134.6,211.34,135.67,211.3z"/>
<path class="st2" d="M514.45,342.69c0.59-1.01,1.56-1.25,2.63-1.25C516.51,342.48,515.53,342.69,514.45,342.69z"/>
<path class="st2" d="M518.24,341.35c0.64-0.99,1.63-1.26,2.73-1.29C520.4,341.2,519.38,341.39,518.24,341.35z"/>
<path class="st2" d="M520.95,340.07c0.59-1.03,1.56-1.26,2.64-1.3C523.03,339.87,522.05,340.09,520.95,340.07z"/>
<path class="st2" d="M523.57,338.79c0.58-1.02,1.55-1.27,2.62-1.3C525.64,338.57,524.66,338.79,523.57,338.79z"/>
<path class="st2" d="M526.19,337.5c0.58-1.02,1.54-1.27,2.61-1.29C528.24,337.26,527.27,337.49,526.19,337.5z"/>
<path class="st2" d="M528.8,336.2c0.57-1.02,1.53-1.28,2.6-1.31C530.85,335.96,529.88,336.19,528.8,336.2z"/>
<path class="st2" d="M531.4,334.9c0.57-1.02,1.53-1.28,2.6-1.31C533.45,334.66,532.48,334.88,531.4,334.9z"/>
<path class="st2" d="M533.99,333.59c0.57-1.03,1.53-1.28,2.61-1.33C536.06,333.36,535.08,333.58,533.99,333.59z"/>
<path class="st2" d="M536.58,332.28c0.57-1.03,1.54-1.28,2.61-1.33C538.66,332.06,537.68,332.28,536.58,332.28z"/>
<path class="st2" d="M543.12,328.4c0.56-1.03,1.52-1.29,2.59-1.34C545.18,328.15,544.2,328.38,543.12,328.4z"/>
<path class="st2" d="M549.63,324.49c0.56-1.03,1.51-1.3,2.58-1.35C551.69,324.24,550.71,324.47,549.63,324.49z"/>
<path class="st2" d="M553.56,321.91c0.55-1.03,1.5-1.3,2.56-1.36C555.6,321.63,554.63,321.87,553.56,321.91z"/>
<path class="st2" d="M557.47,319.31c0.54-1.03,1.49-1.31,2.56-1.37C559.51,319.03,558.54,319.26,557.47,319.31z"/>
<path class="st2" d="M561.35,316.69c0.54-1.03,1.49-1.32,2.56-1.38C563.41,316.43,562.44,316.66,561.35,316.69z"/>
<path class="st2" d="M579.5,299.75c0.06-1.07,0.34-2.02,1.37-2.57C580.84,298.27,580.61,299.25,579.5,299.75z"/>
<path class="st2" d="M582.1,295.85c0.05-1.07,0.31-2.04,1.34-2.61C583.45,294.34,583.22,295.33,582.1,295.85z"/>
<path class="st2" d="M610.65,271.1c0.07-1.09,0.43-2.02,1.42-2.6C612.08,269.63,611.84,270.63,610.65,271.1z"/>
<path class="st2" d="M612.04,268.54c0.06-1.07,0.28-2.07,1.29-2.69C613.39,266.98,613.18,267.98,612.04,268.54z"/>
<path class="st2" d="M619.83,242.77c-0.93-0.71-1.21-1.71-1.24-2.83C619.77,240.55,619.91,241.61,619.83,242.77z"/>
<path class="st2" d="M618.6,239.96c-0.99-0.58-1.31-1.53-1.38-2.6C618.36,237.87,618.59,238.86,618.6,239.96z"/>
<path class="st2" d="M612.03,229.74c-0.38-0.11-0.77-0.2-1.16-0.29c-0.06-0.83-0.12-1.66-0.18-2.49
	C611.94,227.5,612.09,228.57,612.03,229.74z"/>
<path class="st2" d="M610.74,227.02c-1.02-0.61-1.26-1.6-1.29-2.68C610.57,224.9,610.79,225.9,610.74,227.02z"/>
<path class="st2" d="M609.47,224.38c-0.97-0.62-1.27-1.57-1.32-2.64C609.26,222.28,609.49,223.27,609.47,224.38z"/>
<path class="st2" d="M608.17,221.77c-0.99-0.59-1.32-1.53-1.39-2.62C607.94,219.66,608.18,220.65,608.17,221.77z"/>
<path class="st2" d="M606.83,219.22c-1.04-0.57-1.39-1.51-1.42-2.63C606.69,217.03,606.87,218.07,606.83,219.22z"/>
<path class="st2" d="M443.08,141.11c-0.5,0.38-1.01,0.77-1.51,1.15C442.08,141.88,442.58,141.5,443.08,141.11z"/>
<path class="st2" d="M270.09,143.76c-0.54,0.38-1.09,0.77-1.63,1.15C269,144.53,269.55,144.15,270.09,143.76z"/>
<path class="st2" d="M437.74,148.74c0.14,0.32,0.29,0.64,0.39,0.97c0.01,0.04-0.33,0.17-0.51,0.26
	C437.66,149.56,437.7,149.15,437.74,148.74z"/>
<path class="st2" d="M261.99,150.18c-0.42,0.47-0.85,0.93-1.27,1.4C261.14,151.11,261.57,150.64,261.99,150.18z"/>
<path class="st2" d="M526.16,152.65c-0.52-0.36-1.03-0.73-1.55-1.09C525.13,151.92,525.65,152.29,526.16,152.65z"/>
<path class="st2" d="M501.55,152.8c-0.46,0.44-0.91,0.87-1.37,1.31C500.63,153.67,501.09,153.24,501.55,152.8z"/>
<path class="st2" d="M528.82,154.01c-0.52-0.39-1.04-0.78-1.56-1.16C527.77,153.23,528.3,153.62,528.82,154.01z"/>
<path class="st2" d="M500.21,154.08c-0.43,0.46-0.86,0.92-1.3,1.38C499.34,155,499.77,154.54,500.21,154.08z"/>
<path class="st2" d="M532.67,156.76c-0.45-0.45-0.91-0.89-1.36-1.34C531.76,155.86,532.22,156.31,532.67,156.76z"/>
<path class="st2" d="M533.95,158.08c-0.44-0.46-0.88-0.92-1.33-1.37C533.07,157.17,533.51,157.62,533.95,158.08z"/>
<path class="st2" d="M221.89,158.06c-0.52,0.37-1.04,0.75-1.55,1.12C220.85,158.8,221.37,158.43,221.89,158.06z"/>
<path class="st2" d="M215.21,161.94c-0.45,0.45-0.91,0.89-1.36,1.34C214.3,162.83,214.75,162.38,215.21,161.94z"/>
<path class="st2" d="M213.9,163.23c-0.45,0.45-0.9,0.9-1.35,1.35C213,164.13,213.45,163.68,213.9,163.23z"/>
<path class="st2" d="M212.6,164.53c-0.21,0.69-0.63,1.17-1.34,1.36C211.71,165.44,212.15,164.98,212.6,164.53z"/>
<path class="st2" d="M531.45,167.08c0.38-0.08,0.77-0.12,1.16-0.13c0.04,0.46,0.08,0.93,0.12,1.39
	C531.97,168.25,531.61,167.78,531.45,167.08z"/>
<path class="st2" d="M190.38,176.15c-0.46-0.41-0.92-0.82-1.38-1.23C189.45,175.33,189.91,175.74,190.38,176.15z"/>
<path class="st2" d="M583.47,176.18c-0.53-0.4-1.06-0.81-1.59-1.21C582.63,175.09,583.15,175.5,583.47,176.18z"/>
<path class="st2" d="M587.32,178.9c-0.7-0.2-1.16-0.64-1.35-1.35C586.42,178,586.87,178.45,587.32,178.9z"/>
<path class="st2" d="M173.54,178.84c-0.46,0.43-0.92,0.86-1.39,1.29C172.62,179.7,173.08,179.27,173.54,178.84z"/>
<path class="st2" d="M172.18,180.1c-0.45,0.42-0.9,0.84-1.35,1.25C171.28,180.94,171.73,180.52,172.18,180.1z"/>
<path class="st2" d="M166.99,185.31c-0.43,0.46-0.86,0.92-1.3,1.39C166.13,186.24,166.56,185.78,166.99,185.31z"/>
<path class="st2" d="M586.12,190.49c0.14-0.68,0.52-1.17,1.2-1.39C586.92,189.56,586.52,190.02,586.12,190.49z"/>
<path class="st2" d="M161.86,195.76c0,0.44,0,0.87,0,1.31c-0.45,0.04-0.89,0.08-1.34,0.13
	C160.69,196.46,161.14,195.98,161.86,195.76z"/>
<path class="st2" d="M160.57,197.08c-0.18,0.74-0.68,1.16-1.4,1.34C159.4,197.72,159.86,197.27,160.57,197.08z"/>
<path class="st2" d="M159.24,198.36c-0.21,0.7-0.69,1.13-1.39,1.33C158.32,199.24,158.78,198.8,159.24,198.36z"/>
<path class="st2" d="M157.91,199.64c-0.45,0.44-0.91,0.88-1.36,1.32C157,200.52,157.45,200.08,157.91,199.64z"/>
<path class="st2" d="M156.58,200.93c-0.45,0.43-0.9,0.86-1.35,1.29C155.68,201.79,156.13,201.36,156.58,200.93z"/>
<path class="st2" d="M155.24,202.21c-0.19,0.68-0.63,1.12-1.31,1.29C154.36,203.08,154.8,202.65,155.24,202.21z"/>
<path class="st2" d="M595.09,203.68c-0.77-0.15-1.22-0.6-1.37-1.37C594.45,202.49,594.91,202.95,595.09,203.68z"/>
<path class="st2" d="M153.92,203.51c-0.18,0.69-0.61,1.12-1.3,1.3C153.05,204.38,153.49,203.94,153.92,203.51z"/>
<path class="st2" d="M152.62,204.81c-0.18,0.69-0.61,1.12-1.3,1.3C151.75,205.68,152.19,205.25,152.62,204.81z"/>
<path class="st2" d="M151.32,206.11c-0.43,0.44-0.86,0.89-1.29,1.33C150.46,207,150.89,206.56,151.32,206.11z"/>
<path class="st2" d="M150.05,207.43c-0.44,0.45-0.87,0.9-1.31,1.36C149.18,208.33,149.61,207.88,150.05,207.43z"/>
<path class="st2" d="M601.64,211.44c-0.71-0.21-1.11-0.71-1.29-1.41C600.78,210.5,601.21,210.97,601.64,211.44z"/>
<path class="st2" d="M133.14,212.63c-0.44,0.38-0.87,0.76-1.31,1.15C132.27,213.39,132.7,213.01,133.14,212.63z"/>
<path class="st2" d="M476.66,349.18c0.48-0.8,0.95-0.86,1.41,0.01C477.6,349.19,477.13,349.19,476.66,349.18z"/>
<path class="st2" d="M539.17,330.98c0.45-0.41,0.89-0.82,1.34-1.22C540.06,330.16,539.61,330.57,539.17,330.98z"/>
<path class="st2" d="M541.66,329.65c0.49-0.42,0.98-0.83,1.47-1.25C542.63,328.82,542.14,329.23,541.66,329.65z"/>
<path class="st2" d="M545.69,327.08c0.44-0.4,0.88-0.81,1.32-1.21C546.57,326.27,546.13,326.68,545.69,327.08z"/>
<path class="st2" d="M548.18,325.75c0.48-0.42,0.96-0.84,1.45-1.26C549.14,324.92,548.66,325.33,548.18,325.75z"/>
<path class="st2" d="M552.18,323.17c0.45-0.42,0.9-0.83,1.36-1.25C553.09,322.34,552.63,322.75,552.18,323.17z"/>
<path class="st2" d="M556.1,320.58c0.45-0.42,0.9-0.84,1.35-1.25C556.99,319.74,556.55,320.16,556.1,320.58z"/>
<path class="st2" d="M559.99,317.97c0.45-0.42,0.9-0.85,1.35-1.27C560.89,317.12,560.44,317.54,559.99,317.97z"/>
<path class="st2" d="M563.88,315.35c0.45-0.44,0.9-0.87,1.34-1.31C564.78,314.48,564.33,314.92,563.88,315.35z"/>
<path class="st2" d="M565.2,314.07c0.45-0.43,0.89-0.86,1.34-1.29C566.1,313.21,565.65,313.64,565.2,314.07z"/>
<path class="st2" d="M566.54,312.78c0.44-0.42,0.88-0.85,1.32-1.27C567.42,311.94,566.98,312.36,566.54,312.78z"/>
<path class="st2" d="M576.99,302.39c0.42-0.44,0.84-0.88,1.26-1.33C577.84,301.5,577.41,301.95,576.99,302.39z"/>
<path class="st2" d="M578.25,301.07c0.43-0.45,0.86-0.9,1.29-1.35C579.11,300.17,578.68,300.62,578.25,301.07z"/>
<path class="st2" d="M580.88,297.18c0.42-0.45,0.84-0.91,1.26-1.36C581.72,296.27,581.3,296.73,580.88,297.18z"/>
<path class="st2" d="M599.15,284.19c-0.43,0.43-0.87,0.86-1.3,1.3c0,0-0.32-0.31-0.32-0.31c0.07-0.56,0.34-0.98,0.86-1.24
	C598.64,284.02,598.9,284.11,599.15,284.19z"/>
<path class="st2" d="M600.41,282.92c-0.42,0.42-0.84,0.85-1.26,1.27c0,0-0.3-0.27-0.3-0.27c-0.04-0.85,0.39-1.28,1.22-1.35
	C600.06,282.57,600.41,282.92,600.41,282.92z"/>
<path class="st2" d="M608.09,273.71c0.46-0.45,0.91-0.9,1.37-1.35C609.01,272.81,608.55,273.26,608.09,273.71z"/>
<path class="st2" d="M609.41,272.42c0.19-0.7,0.6-1.2,1.33-1.39C610.3,271.49,609.85,271.95,609.41,272.42z"/>
<path class="st2" d="M615.94,251.61c0.15-0.74,0.63-1.16,1.34-1.36C616.83,250.7,616.38,251.16,615.94,251.61z"/>
<path class="st2" d="M613.35,232.24c-0.72-0.19-1.06-0.68-1.14-1.39C612.58,231.31,612.96,231.78,613.35,232.24z"/>
<path class="st2" d="M126.67,217.85c-0.44,0.46-0.89,0.91-1.33,1.37C125.78,218.77,126.22,218.31,126.67,217.85z"/>
<path class="st2" d="M127.97,216.55c-0.45,0.45-0.9,0.9-1.35,1.35C127.07,217.45,127.52,217,127.97,216.55z"/>
<path class="st2" d="M605.51,216.67c-0.75-0.19-1.12-0.72-1.28-1.43C604.66,215.72,605.09,216.2,605.51,216.67z"/>
<path class="st2" d="M129.29,215.26c-0.45,0.45-0.91,0.89-1.36,1.34C128.38,216.16,128.83,215.71,129.29,215.26z"/>
<path class="st2" d="M130.82,214.02c-0.53,0.43-1.06,0.86-1.59,1.3C129.51,214.57,130.04,214.14,130.82,214.02z"/>
<path class="st9" d="M270.94,203.5c-0.02,5.7-0.04,11.4-0.06,17.1c-2.07,2.53-5.1,3.09-8.01,3.88c-25.83,6.99-50.04,17.6-72.3,32.51
	c-2.56,1.72-5.33,2.75-8.2,3.64c-6.03,3.42-11.36,7.84-17,11.82c-9.35,6.59-18.63,13.29-27.92,19.97c-0.69,0.49-1.25,1.16-1.87,1.75
	c-0.33,1.33-1.75,1.01-2.52,1.65l0,0.01c-0.43,0.51-0.84,1.03-1.55,1.15l0.12-0.14c-0.43,1.19-1.78,0.88-2.54,1.55l0.04-0.03
	c-1.19,1.1-2.54,1.94-4.05,2.52l0.09-0.06c-0.52,1.09-1.82,0.82-2.59,1.47l0.05-0.03c-0.6,0.91-1.86,0.64-2.55,1.4l-0.02,0.01
	c-1.31,0.9-2.55,1.92-4.13,2.36l0.09-0.08c-0.5,1.22-1.79,0.92-2.68,1.39c0,0-0.12-0.07-0.12-0.07c-3.18,0.86-6.15,2.2-8.88,4.05
	c-2.4,0.22-4.57,1.04-6.53,2.44c0,0,0.04,0.06,0.04,0.06c-0.95,1.56-2.82,0.44-3.99,1.36c0,0-0.14-0.1-0.14-0.1
	c-1.74,0.24-3.6,0.06-5.06,1.35c-2.21,0.19-4.5,0.01-6.49,1.32c-2.37,0.12-4.75,0.2-7.12,0.36c-7.16,0.49-14.24-0.19-21.27-1.5
	c0,0-0.02,0.01-0.02,0.01c-1.07-1.13-2.9-0.03-3.92-1.33l0.03,0.02c-2.69-1.12-5.57-1.89-7.79-3.93c0,0,0-0.01,0-0.01
	c-0.46-1-1.38-1.33-2.34-1.59c-0.27-0.68-0.8-0.99-1.49-1.07c-2.66-2.54-5.31-5.08-7.97-7.62c0,0-0.02-0.02-0.02-0.02
	c-0.4-0.48-0.92-0.85-1.23-1.4l0.06,0.06c-0.57-0.37-1.01-0.86-1.27-1.51c0,0,0.09-0.05,0.09-0.05c-0.93-2.36-2.3-4.44-3.92-6.38
	c-0.08-1.03-0.3-2.01-1.19-2.69c-0.28-1.74-0.31-3.56-1.52-5.02c-0.02-2.56-0.04-5.11-0.05-7.67c0,0-0.02,0.03-0.02,0.03
	c1.18-1.07-0.01-2.92,1.32-3.94l-0.02,0.02c0.76-0.68,0.36-2.03,1.44-2.53l-0.08-0.01c0.22-0.64,0.75-1,1.25-1.4c0,0,0,0.02,0,0.02
	c0.7-0.18,1.11-0.64,1.27-1.33c0.69-0.15,1.15-0.55,1.36-1.23c0.69-0.09,1.22-0.41,1.49-1.08c1-0.17,1.93-0.47,2.48-1.43
	c0.77-0.09,1.53-0.18,2.3-0.26c1.43-0.77,2.61-0.97,2.72,1.22c-3.17,2.33-6.22,4.75-6.77,9.04c-1.82,5.52-1.77,8.21,0.24,13.32
	c0,0-0.02-0.05-0.02-0.05c0.85,0.73,0.71,1.89,1.22,2.77l-0.08-0.11c1.06,0.54,0.76,1.87,1.48,2.6c0,0-0.02-0.01-0.02-0.01
	c0.05,0.72,0.4,1.23,1.09,1.49c0.72,1.86,1.99,3.17,3.86,3.88c0,0,0.07-0.08,0.07-0.08c0.67,0.23,1.16,0.66,1.52,1.26l-0.06-0.06
	c0.48,0.36,0.97,0.73,1.45,1.09l0.15,0.08c0.53,0.94,1.77,0.61,2.41,1.35c0,0,0.05,0.02,0.05,0.02c0.88,1.25,2.21,1.48,3.59,1.56
	c0,0,0.09-0.07,0.09-0.07c0.86,0.52,1.99,0.33,2.78,1.03c0.29,0.31,0.62,0.39,1.02,0.24c0.97,0.42,1.93,0.85,2.9,1.27
	c19.35,1.4,37.92-2.16,55.83-9.23c20.17-7.96,37.68-20.48,54.96-33.21c28.69-21.14,59.53-38.05,93.69-48.55
	c5.39-1.66,10.27-3.4,11.11-9.97C269.35,203.59,270.26,203.45,270.94,203.5z"/>
<path class="st1" d="M259.35,277.66c-2.55,4.14-0.88,7.57,2.1,10.47c3.58,3.49,5.39,7.87,6.6,12.47
	c2.43,9.28-4.29,18.01-13.94,18.32c-0.86-1.61,0.55-2.76,0.89-4.12c0.37-1.46,0.64-2.95,1.01-4.42c1.88-7.48-0.24-14.21-4.51-20.17
	c-2.64-3.69-6.58-5.48-11.38-3.75c-0.99,0.36-2.09,0.43-3.13,0.63c-0.12,2.17,1.74,2.99,2.61,4.38c4.05,6.49-0.76,13.86-7.23,14.71
	c-2.34,0.31-4.74,0.34-7.05-0.62c-2.79-1.16-5.67-2.12-8.47-3.25c-5.41-2.18-10.82-4.38-16.18-6.66c-2.26-0.96-3.88-2.76-5.03-4.89
	c-0.61-1.13-0.95-2.41-1.46-3.6c-1.44-3.36-4.13-3.73-6.43-0.97c-1.57,1.89-1.59,4.02-0.94,6.14c0.5,1.64,1.34,3.2,2.2,4.7
	c1.37,2.38,1.42,4.94,1.36,7.56c-0.04,1.58-0.6,2.97-1.34,4.29c-1.63,2.9-5.88,4.82-8.27,3.45c-3.64-2.09-5.43-4.4-4.53-8.41
	c0.33-1.45,1.18-2.78,1.7-4.2c0.68-1.84-0.38-3.45-2.35-3.71c-1.34-0.18-2.61-0.03-3.67,0.88c-1.65,1.41-3.17,2.85-3.83,5.1
	c-0.47,1.62-1.29,3.24-2.31,4.59c-2.46,3.25-6.95,3.17-9.51-0.01c-2.93-3.63-3.04-6.92-0.26-10.67c1.86-2.5,4.28-4.29,7.31-5.16
	c3.73-1.07,7.41-2.37,11.31-2.72c1.47-0.13,2.18-0.85,2.69-2.29c2.13-6.01,5.37-7.58,11.4-5.74c1.45,0.44,2.87,0.97,4.34,1.34
	c2,0.5,3.14,0.01,3.86-2.24c2.34-7.35,7.73-10.97,14.76-13.21c5.15-1.64,10.28-1.11,15.45-1.14c1.99-0.01,3.17,1.34,3.8,3.06
	c0.74,2.01,1.21,4.12,1.93,6.14c0.67,1.91,1.42,2.29,3.38,1.29c1.39-0.71,2.49-1.01,3.22,0.52c1.13,2.38,3.11,3.72,5.48,4.19
	c2.96,0.59,6.03,0.75,8.98-0.29c1.82-0.64,3.4-1.95,5.45-1.99L259.35,277.66z"/>
<path class="st7" d="M182.37,260.63c10.91-8.21,22.71-14.94,34.95-20.89c17.14-8.33,35.01-14.7,53.56-19.14
	c0.45,6.44,0.91,12.89,1.36,19.33c-1.13-0.82-1.78-2.02-3.81-1.56c-13.02,2.96-26.19,5.28-38.81,9.87c-2.7,0.98-5.2,2.07-7.04,4.35
	c-6.83,8.43-15.73,11.63-26.42,10.87c-3.49-0.25-6.85-0.34-10.02-2.08C185.07,260.79,183.64,260.86,182.37,260.63z"/>
<path class="st1" d="M274.88,260.72c0.98,2.89,1.59,5.85,1.54,8.92c-0.09,2.33-0.85,3.98-3.47,4.56c-4.57,1.01-9.07,2.29-13.6,3.46
	c0,0,0.01,0.01,0.01,0.01c1.56-2.94,4.45-4.69,6.49-7.21c0.86-1.06,0.56-1.96-0.3-2.82c-0.94-0.96-2.06-1.47-3.41-1.7
	c-4.66-0.81-9.28-1.92-13.96-2.54c-7.53-1.01-6.39-5.1-3.78-8.86c2.53-3.64,6.08-6.21,10.29-7.59c3.5-1.15,6.86-0.88,9.43,2.28
	c0.54,0.67,1.45,1.15,1.75,1.9C267.64,255.51,271.27,258.1,274.88,260.72z"/>
<path class="st2" d="M133.05,295.82c0.51-1.06,1.51-1.37,2.52-1.65c0.04,1,0.07,2.01,0.11,3.01
	C134.81,296.72,133.93,296.27,133.05,295.82z"/>
<path class="st2" d="M139.58,308.88c-1.04-0.56-1.26-1.53-1.28-2.59C139.34,306.85,139.57,307.81,139.58,308.88z"/>
<path class="st2" d="M152.58,327.09c-0.42-0.42-0.85-0.85-1.27-1.27C151.74,326.25,152.16,326.67,152.58,327.09z"/>
<path class="st2" d="M151.29,325.8c-0.43-0.43-0.85-0.86-1.28-1.28C150.44,324.95,150.86,325.38,151.29,325.8z"/>
<path class="st2" d="M149.99,324.5c-0.43-0.43-0.86-0.86-1.28-1.29C149.14,323.64,149.57,324.07,149.99,324.5z"/>
<path class="st2" d="M148.7,323.2c-0.43-0.43-0.86-0.87-1.29-1.3C147.84,322.34,148.27,322.77,148.7,323.2z"/>
<path class="st2" d="M147.4,321.9c-0.43-0.44-0.86-0.87-1.29-1.31C146.54,321.03,146.97,321.46,147.4,321.9z"/>
<path class="st2" d="M146.11,320.59c-0.43-0.44-0.86-0.89-1.29-1.33C145.25,319.71,145.68,320.15,146.11,320.59z"/>
<path class="st2" d="M144.78,317.99c-0.43-0.43-0.85-0.86-1.28-1.29C143.93,317.13,144.36,317.56,144.78,317.99z"/>
<path class="st2" d="M143.51,316.69c-0.43-0.44-0.86-0.89-1.29-1.33C142.65,315.8,143.08,316.25,143.51,316.69z"/>
<path class="st2" d="M142.19,314.09c-0.43-0.44-0.85-0.88-1.28-1.32C141.34,313.21,141.76,313.65,142.19,314.09z"/>
<path class="st2" d="M140.88,311.48c-0.42-0.44-0.85-0.88-1.27-1.32C140.03,310.6,140.46,311.04,140.88,311.48z"/>
<path class="st2" d="M173.44,338.82c1.44,0.03,2.97-0.19,3.94,1.28C175.94,340.07,174.4,340.35,173.44,338.82z"/>
<path class="st2" d="M169.54,337.51c1.08,0.02,2.06,0.26,2.67,1.27C171.11,338.79,170.12,338.58,169.54,337.51z"/>
<path class="st2" d="M166.95,336.24c1.07,0,2.02,0.24,2.59,1.27C168.48,337.49,167.51,337.27,166.95,336.24z"/>
<path class="st2" d="M156.54,330.97c1.07,0.05,2.03,0.3,2.58,1.34C158.04,332.28,157.07,332.05,156.54,330.97z"/>
<path class="st2" d="M164.34,334.95c0.45,0.41,0.9,0.82,1.35,1.24C165.24,335.78,164.79,335.37,164.34,334.95z"/>
<path class="st2" d="M161.74,333.64c0.45,0.42,0.9,0.83,1.35,1.25C162.63,334.47,162.19,334.06,161.74,333.64z"/>
<path class="st2" d="M159.13,332.31c0.46,0.42,0.92,0.85,1.38,1.27C160.04,333.16,159.58,332.73,159.13,332.31z"/>
<path class="st2" d="M153.92,328.42c0.44,0.43,0.88,0.86,1.31,1.28C154.79,329.27,154.35,328.84,153.92,328.42z"/>
<path class="st2" d="M155.22,329.69c0.44,0.43,0.89,0.86,1.33,1.29C156.11,330.56,155.67,330.12,155.22,329.69z"/>
<path class="st2" d="M105.95,277.77c-1.6,3.66-4.28,6.25-7.9,7.89c0.4-0.93,0.8-1.86,1.2-2.79c0.43-0.43,0.87-0.87,1.3-1.3
	C102.7,280.79,103.63,278.29,105.95,277.77z"/>
<path class="st2" d="M112.44,269.93c-0.46,2.4-1.92,4.05-3.97,5.26C108.38,272.38,110.12,270.94,112.44,269.93z"/>
<path class="st2" d="M116.36,263.5c-0.05,1.08-0.32,2.04-1.4,2.56c-0.03-0.9-0.06-1.81-0.09-2.71
	C115.36,263.4,115.86,263.45,116.36,263.5z"/>
<path class="st2" d="M115.01,266c-0.06,1.09-0.4,2.02-1.42,2.59C113.6,267.47,113.84,266.48,115.01,266z"/>
<path class="st2" d="M107.22,276.45c-0.16,0.75-0.6,1.23-1.36,1.38C106.04,277.1,106.49,276.64,107.22,276.45z"/>
<path class="st2" d="M108.5,275.13c-0.17,0.74-0.6,1.22-1.36,1.39C107.33,275.8,107.79,275.34,108.5,275.13z"/>
<path class="st2" d="M113.6,268.57c-0.15,0.72-0.52,1.23-1.26,1.43C112.76,269.52,113.18,269.05,113.6,268.57z"/>
<path class="st2" d="M95.45,288.14c-1.24,1.99-2.81,3.55-5.21,4.02C91.19,289.82,92.66,288.13,95.45,288.14z"/>
<path class="st2" d="M81.4,298.79c-0.13-0.54-0.25-1.07-0.38-1.61c0.86-0.01,1.72-0.03,2.58-0.04c0.06,0.3,0.12,0.61,0.18,0.91
	C83.2,298.96,82.38,299.14,81.4,298.79z"/>
<path class="st2" d="M83.61,297.14c0.54-0.99,1.49-1.26,2.51-1.4c0.15,0.25,0.3,0.49,0.45,0.74c-0.59,1.29-1.5,1.64-2.76,0.92
	L83.61,297.14z"/>
<path class="st2" d="M87.56,294.59c-0.08,0.4-0.14,0.81-0.2,1.21c-0.35,0.44-0.72,0.49-1.13,0.08c0,0-0.12-0.14-0.12-0.14
	C86.6,295.35,87.08,294.97,87.56,294.59z"/>
<path class="st2" d="M88.96,293.33c-0.22,0.71-0.71,1.1-1.41,1.27C88.02,294.18,88.49,293.76,88.96,293.33z"/>
<path class="st2" d="M90.3,292.07c-0.17,0.76-0.68,1.16-1.4,1.33C89.11,292.69,89.58,292.25,90.3,292.07z"/>
<path class="st2" d="M96.78,286.84c-0.19,0.73-0.68,1.15-1.39,1.34C95.85,287.73,96.32,287.28,96.78,286.84z"/>
<path class="st2" d="M98.11,285.56c-0.16,0.76-0.65,1.18-1.39,1.35C96.92,286.2,97.38,285.74,98.11,285.56z"/>
<path class="st2" d="M42.07,311.38c2.8,0.91,5.4,2.22,7.79,3.93c-3.06,0.5-5.34-1.42-7.88-2.53
	C42.01,312.32,42.04,311.85,42.07,311.38z"/>
<path class="st2" d="M49.83,315.3c1.45,0.02,2.87,0.14,3.92,1.33C52.28,316.66,50.72,316.97,49.83,315.3z"/>
<path class="st2" d="M125.07,300.87c0.98-1.43,2.37-2.21,4.05-2.52c-0.41,0.91-0.82,1.82-1.23,2.73
	C126.95,301.01,126.01,300.94,125.07,300.87z"/>
<path class="st2" d="M115.92,306.02c1.04-1.38,2.46-2.09,4.13-2.36C119.27,305.5,117.98,306.44,115.92,306.02z"/>
<path class="st2" d="M113.33,307.34c0.57-1.09,1.59-1.31,2.68-1.39C115.63,307.4,114.57,307.54,113.33,307.34z"/>
<path class="st2" d="M120.07,303.65c0.56-1,1.48-1.34,2.55-1.4C122.15,303.41,121.18,303.65,120.07,303.65z"/>
<path class="st2" d="M122.57,302.28c0.53-1.07,1.5-1.37,2.59-1.47C124.78,302.16,123.74,302.34,122.57,302.28z"/>
<path class="st10" d="M36.72,264.48c-0.63-1.01-1.73-1-2.72-1.22c0.17-0.35,0.32-0.71,0.47-1.07c0.38,0.06,0.73-0.02,1.04-0.26
	c3.47-0.76,6.92-0.99,10.36,0.16c0,0-0.05-0.01-0.05-0.01c-0.7,1.36-2.03,1.1-3.2,1.24c-1.59,0.2-3.31-0.07-4.55,1.32
	C37.62,264.59,37.17,264.54,36.72,264.48z"/>
<path class="st2" d="M45.87,262.1c-3.45-0.05-6.91-0.11-10.36-0.16C38.99,260.19,42.45,259.97,45.87,262.1z"/>
<path class="st2" d="M129.08,298.38c0.51-1.07,1.45-1.43,2.54-1.55C131.32,298.25,130.26,298.43,129.08,298.38z"/>
<path class="st2" d="M131.5,296.97c0.21-0.8,0.8-1.09,1.55-1.15C132.77,296.52,132.26,296.92,131.5,296.97z"/>
<path class="st2" d="M185.17,341.44c2.22,0.24,4.67-0.79,6.54,1.25C189.5,342.42,187.03,343.55,185.17,341.44z"/>
<path class="st2" d="M128.09,241.31c-0.31,0.96-0.49,2-1.48,2.57c-0.04-1.29-0.07-2.59-0.11-3.88c0.22-0.14,0.43-0.28,0.65-0.42
	C127.95,239.89,128.42,240.38,128.09,241.31z"/>
<path class="st2" d="M125.31,238.72c0.33,0,0.65-0.02,0.98-0.05c0.4,0.16,0.59,0.38,0.57,0.68c-0.02,0.33-0.07,0.5-0.18,0.5
	c0,0-0.19,0.15-0.19,0.15C126.1,239.57,125.7,239.15,125.31,238.72z"/>
<path class="st2" d="M43.26,301.07c-1.07,0.03-1.87-0.43-2.41-1.35C41.86,299.8,42.77,300.06,43.26,301.07z"/>
<path class="st2" d="M40.69,299.65c-0.75-0.01-1.23-0.38-1.45-1.09C39.73,298.92,40.21,299.28,40.69,299.65z"/>
<path class="st2" d="M39.31,298.61c-0.77-0.1-1.32-0.47-1.52-1.26C38.56,297.45,39.06,297.88,39.31,298.61z"/>
<path class="st2" d="M32.8,292.07c-1.08-0.54-1.42-1.49-1.48-2.6C32.63,289.87,32.82,290.9,32.8,292.07z"/>
<path class="st2" d="M31.4,289.57c-1.09-0.62-1.26-1.65-1.22-2.77C31.39,287.37,31.54,288.41,31.4,289.57z"/>
<path class="st11" d="M86.23,295.88c0.38,0.03,0.76,0,1.13-0.08c2.09,0.13,3.74-1.03,5.42-1.96c10.42-5.75,20.45-12.1,29.92-19.34
	c3.81-2.91,7.02-6.45,10.74-9.37c5.97-4.67,11.22-10.12,17.07-14.93c8.51-7,17.09-13.88,25.87-20.53
	c7.26-5.5,15.03-10.16,22.75-14.95c12.76-7.92,26.55-13.66,40.61-18.68c7.91-2.82,16.17-4.71,24.36-6.65
	c2.28-0.54,4.59-1.2,6.94-1.5c-0.03,5.2-0.07,10.41-0.1,15.61c-1.11,0.96-1.07,2.26-1.15,3.57c-0.29,5-0.3,5.02-5.11,6.63
	c-5.33,1.79-10.68,3.5-16.01,5.32c-9.22,3.14-18.21,6.79-26.98,11.05c-15.19,7.4-30,15.44-43.81,25.21
	c-8.63,6.1-17.22,12.27-25.83,18.4c-9.52,6.77-19.56,12.73-29.77,18.36c-4.52,2.5-9.36,4.51-14.23,6.27
	c-6.89,2.5-13.82,4.97-21.09,6.22c-10.27,1.76-20.62,2.12-31,1.66c-0.77-0.03-1.51-0.71-2.27-1.08c0.87-0.11,1.74-0.22,2.61-0.32
	c2.6,0.46,5.2,0.5,7.81,0.04c1.89,0.18,3.76,0.28,5.33-1.09c0.44,0.11,0.85,0.03,1.22-0.23c0.79-0.59,1.9-0.38,2.66-1.05
	c0,0,0.01,0.04,0.01,0.04c1.43,0,2.77-0.22,3.72-1.45c0,0,0.07-0.03,0.07-0.03c0.72-0.68,1.9-0.44,2.57-1.26l0.04-0.02
	c0.47-0.43,0.91-0.9,1.54-1.11c0,0,0.13,0.14,0.13,0.15c0.99-0.14,1.88-0.45,2.4-1.39C84.83,297.24,85.71,296.85,86.23,295.88z"/>
<path class="st2" d="M73.32,302.47c-0.64,0.97-1.59,1.17-2.66,1.05C71.29,302.54,72.26,302.39,73.32,302.47z"/>
<path class="st2" d="M29.02,299.67c0.72,0.2,1.12,0.67,1.23,1.4C29.84,300.6,29.43,300.13,29.02,299.67z"/>
<path class="st2" d="M27.81,298.22c0.78,0.2,1.15,0.75,1.27,1.51C28.35,299.48,27.92,298.98,27.81,298.22z"/>
<path class="st2" d="M79.69,299.78c-0.6,0.94-1.48,1.3-2.57,1.26C77.69,300.02,78.64,299.8,79.69,299.78z"/>
<path class="st2" d="M81.27,298.64c-0.21,0.79-0.79,1.07-1.54,1.11C80.04,299.1,80.55,298.72,81.27,298.64z"/>
<path class="st2" d="M93.85,315.18c1.03-1.34,2.54-1.26,3.99-1.35C97.01,315.75,95.39,315.35,93.85,315.18z"/>
<path class="st2" d="M49.77,303.61c-1.09,0.1-2.13,0.04-2.78-1.04C48.11,302.4,49.1,302.55,49.77,303.61z"/>
<path class="st2" d="M22.51,272.5c-0.04,1.44-0.29,2.82-1.32,3.94c-0.02-1.33-0.03-2.65-0.05-3.98
	C21.6,272.47,22.06,272.49,22.51,272.5z"/>
<path class="st2" d="M23.93,269.99c-0.11,1.05-0.45,1.98-1.44,2.53c-0.01-0.89-0.03-1.78-0.04-2.66
	C22.94,269.9,23.44,269.94,23.93,269.99z"/>
<path class="st2" d="M25.09,268.58c-0.1,0.75-0.47,1.25-1.25,1.39c-0.03-0.47-0.06-0.95-0.09-1.42
	C24.2,268.57,24.65,268.58,25.09,268.58z"/>
<path class="st12" d="M281.48,185.65c0-4.75,0.22-8.45-0.04-12.11c-0.62-8.52,2.01-16.38,5.74-23.62
	c3.02-5.85,8.36-9.91,15.57-10.15c2.81-0.1,5.63,0,8.44,0.03c1.47,0.02,2.5,0.69,2.71,2.22c0.25,1.81,0.93,3.25,2.64,4.19
	c1.97,1.09,4.13,1.86,6.23,1.25c5.53-1.61,11.22-0.56,16.72-1.35c6.36-0.92,12.79-1.56,19.08-3.13c5.21-1.3,10.51-2.44,15.98-1.93
	c1.08,0.1,2.18,0.08,3.07,0.81c0.51,0.42,0.92,1.08,0.55,1.68c-1.16,1.86-2.72,3.18-4.83,4.08c-5.24,2.21-10.84,2.96-16.34,3.65
	c-5.36,0.67-10.6,1.74-15.86,2.85c-4.05,0.85-7.9,2.34-11.35,4.61c-4.6,3.02-9.42,4.04-14.76,2.4c-3.83-1.18-6.51,0.41-8.91,3.46
	c-3.47,4.41-4.86,9.64-6.2,14.83c-1.29,4.99-1.72,10.16-1.55,15.39c0.23,7.13,0.01,14.28,0.07,21.42c0.03,3.22-1.04,5.91-3.36,8.12
	c-1.13,1.08-2.26,1.17-3.45,0.23c-5.21-4.13-7.34-9.88-8.85-16.11C280.84,200.54,281.75,192.54,281.48,185.65z"/>
<path class="st11" d="M407.76,160.48c0.14,0.59,0.5,1.23,0.38,1.76c-0.64,2.73-1.46,5.38-1.89,8.19c-0.67,4.43-3.52,6.86-8.05,7.03
	c-3.87,0.14-7.81,0.63-11.6-0.76c-1.89-0.69-3.85-0.5-5.79-0.44c1.15-1.82,2.3-3.65,3.45-5.47c3.62-3.76,6.92-7.9,11.94-10
	C400.07,161.4,403.83,157.88,407.76,160.48z"/>
<path class="st13" d="M263.32,160.38c3.76,0.39,7.52,0.36,11.28,0.01c-1.41,6.41-2.64,12.84-2.38,19.47
	c0.07,1.86,0.28,3.85-0.97,5.52c-0.06-0.42-0.21-0.85-0.17-1.27c0.32-3.09-0.54-4.99-3.9-6.15c-4.35-1.5-5.76-4.68-4.65-9.15
	c0.54-2.17,0.75-4.14-0.09-6.22C262.07,161.66,262.67,160.97,263.32,160.38z"/>
<path class="st14" d="M407.76,160.48c-1.64,0.37-3.27,0.88-4.93,1.08c-2.24,0.27-4.6,1.03-6.63-0.77c4.78-3.08,9.65-5.95,15.46-6.64
	C412.29,157.44,409.77,158.8,407.76,160.48z"/>
<path class="st0" d="M376.33,312.87c-3-5.37-4.2-11.31-5.16-17.27c-1.96-12.2-3.37-24.47-3.9-36.82c-0.06-1.51,0.06-3.02,0.1-4.53
	c2.29-1.17,4.7-0.42,7.01-0.24c8.28,0.65,10.14,4.54,5.57,11.4c-0.81,1.21-2.4,2.36-1.2,3.93c1.3,1.7,3.15,0.91,4.76,0.3
	c5.45-2.07,8-8.52,5.54-13.91c-3.63-7.95-13.1-11.25-21.89-7.62c-0.92-6.2-0.61-12.39,0.27-18.57c2.75-1.08,5.07,0.52,7.45,1.35
	c4.58,1.6,9.08,2.19,13.99,1.42c8.47-1.34,13.14,2.28,14.83,10.61c0.56,2.77,0.42,5.61,1.04,8.36c1.28,5.64,5.43,9.69,10.46,10.11
	c3.17,0.27,6.21-0.27,7.92-3.27c1.63-2.85,1.26-5.83-0.42-8.63c-0.34-0.56-0.79-1.03-1.22-1.52c-1.94-2.22-5.46-4.49-3.35-7.58
	c2.48-3.62,6.33-1.16,9.47-0.02c6.7,2.44,11.34,7.15,13.68,13.84c1.71,4.89,4.53,6.35,9.44,4.6c5.16-1.85,10.24-0.98,15.14,1.27
	c2.15,0.99,4.21,2.46,6.69,2.26c5.4-0.42,9.03,2.31,11.99,6.37c1.86,2.56,4.12,4.43,7.47,4.55c8.59,0.3,15.86,5.09,23.99,6.97
	c-1.19,4.65-4.94,4.28-8.3,3.85c-4.54-0.57-9.06-1.04-13.61-0.52c-2.64,0.3-5.66,1.11-5.78,4.19c-0.1,2.56,2.89,2.89,4.9,3.47
	c8.34,2.41,16.71,2.17,25.04-0.12c3.55-0.98,7.05-2.14,10.81-2.14c9.98,0,14.92,8.27,10.08,16.93
	c-6.26,11.2-30.49,17.92-41.34,11.27c-2.44-1.5-3.77-1.28-5.36,0.87c-5.55,7.52-13.29,9.96-22.29,9.57c-3.68-0.16-7.37,0-11.06-0.05
	c-2.4-0.03-4.75-0.3-7.06-1.02c-10.22-3.16-12.44-11.86-4.77-19.17c2.48-2.36,4.59-4.72,3.62-8.42c-1.04-3.97-3.87-6.12-7.68-7.17
	c-1.26-0.35-2.56-0.61-3.86-0.54c-12.24,0.66-24.17-1.39-36.12-3.73c-7.17-1.4-14.33-1.07-20.54,3.58c-1.5,1.12-3.74,2.35-3,4.5
	c0.68,1.97,3.06,1.11,4.67,1.07c6.75-0.18,13.42,0.4,20.08,1.43c3.88,0.6,7.68,1.46,11.34,2.82c4.78,1.78,9.62,3.86,10.01,9.83
	c0.4,6.04-4.81,7.62-8.94,9.86c-2.67,1.45-5.55,2.44-8.36,3.58c-5.08,2.06-8.89,1.95-11.71-3.86c-2.16-4.45-6.89-5.58-11.68-5.76
	C382.08,314.47,378.94,315.01,376.33,312.87z"/>
<path class="st6" d="M376.33,312.87c3.03-0.03,6.08,0.12,9.1-0.12c3.95-0.32,7.18,1.38,10.32,3.3c2.33,1.43,3.4,3.87,4.18,6.39
	c0.47,1.52,1.45,2.17,2.92,1.75c6.48-1.84,12.67-4.46,18.47-7.86c4.3-2.52,4.39-7.73,0.31-10.75c-1.37-1.02-2.98-1.81-4.6-2.39
	c-4.67-1.68-9.46-2.72-14.39-3.56c-8.19-1.4-16.37-0.97-24.57-1.17c-0.59-0.01-1.16-0.29-1.89-0.49c0.75-6.08,4.97-9.11,9.86-11.02
	c4.13-1.62,8.47-2.25,13.19-1.78c6.04,0.6,11.92,1.89,17.8,3.1c4.31,0.89,8.55,1.09,12.86,1.1c3.47,0.01,6.94-0.08,10.4,0.03
	c4.54,0.13,8.54,1.61,11.13,5.56c2.63,4.02,3.37,9.35-2.01,13.11c-0.53,0.37-1.08,0.74-1.67,1c-6.07,2.6-3.8,13.2,1.5,14.72
	c3.11,0.89,6.06,2.18,9.43,2.06c4.76-0.16,9.54-0.14,14.3-0.02c8.89,0.23,15.29-3.77,19.76-11.24c0.44-0.73,0.87-1.47,1.25-2.12
	c1.75-0.17,2.49,1.09,3.24,2.01c4.5,5.54,10.59,5.95,16.59,4.24c6.82-1.94,13.45-4.73,19.38-8.8c4-2.75,6.36-6.33,6.05-11.45
	c-0.29-4.64-3.04-7.53-7.73-7.8c-3.72-0.21-7.36,0.15-10.82,1.57c-7.04,2.87-14.43,2.7-21.75,2.21c-4.73-0.32-9.21-2.17-13.46-4.34
	c-0.9-0.46-1.02-1.65-0.58-2.29c2.21-3.21,4.36-6.57,9.07-6.25c4.72,0.32,9.47-0.53,14.17,1.04c2.8,0.93,5.57,0.08,7.63-2.31
	c4.55-3.28,9.44-6,14.36-8.66c2.48,0.07,4.58,1.22,6.53,2.53c7.88,5.26,15.88,10.28,24.68,13.9c1.21,0.5,2.25,1.27,2.59,2.67
	c-0.4,7.58-2.75,14.15-8.44,19.62c-4.73,4.55-9.83,8.3-15.65,11.32c-15.26,7.92-31.51,12.71-48.3,16
	c-5.7,1.12-11.55,1.42-17.15,2.68c-5.95,1.34-12.09,0.17-17.92,2.16c-1.56,0.53-3.43,0.19-5.16,0.19c-17.96,0-35.91-0.01-53.87-0.01
	c-4.62-2.89-7.99-7.05-11.16-11.33C382.09,325.69,378.21,319.81,376.33,312.87z"/>
<path class="st11" d="M602.9,278.87c-0.36,0.09-0.73,0.16-1.1,0.21c-10.29,6.85-20.89,6.1-31.48,0.99
	c-13.12-6.33-25.17-14.48-37.19-22.64c-17.62-11.96-35.93-22.67-55.65-30.84c-30.07-12.44-61.22-20.36-93.74-22.79
	c-4.25-0.32-8.69-0.32-12.47-2.9c0.83-6.56,3.04-12.66,6.22-18.43c0.43,1.61,1.29,2.86,3.12,2.7c5.9-0.53,11.58,1.17,17.4,1.56
	c6.21,0.42,12.41,1.5,18.54,2.68c9.94,1.91,19.88,3.88,29.71,6.28c14.71,3.6,29.07,8.36,43.07,14.14c6.99,2.89,14.05,5.7,20.74,9.19
	c11.88,6.2,23.56,12.79,34.56,20.51c9.37,6.58,18.76,13.12,27.39,20.68c3.73,3.27,7.85,6.08,11.59,9.34
	c5.69,4.95,12.24,7.14,19.7,6.81C603.18,277.22,603.04,278.05,602.9,278.87z"/>
<path class="st7" d="M530.31,272.36c-0.56,0.33-1.25,0.54-1.65,1.01c-3.41,3.98-7.85,5.98-12.88,6.91
	c-5.1,0.44-9.89-0.39-14.27-3.22c-2.43-1.57-5.13-2.39-8.03-1.97c-4.99,0.71-8.2-1.51-10.59-5.72c-0.93-1.63-2.49-3.01-4.01-4.17
	c-1.53-1.17-3.29-1.98-5.42-0.97c-1.95,0.92-3.77,0.3-5.41-1.06c-2.05-1.71-4.62-2.33-7.08-3.11c-2.96-0.94-5.96-0.91-8.93,0.03
	c-1.44,0.46-2.86,1.01-4.31,1.43c-3.58,1.01-5.06,0.3-6.64-3.19c-0.44-0.98-0.68-2.05-1.03-3.06c-3.11-8.9-9.96-13.23-18.7-15.21
	c-0.83-0.19-1.86-0.14-2.4,0.61c-0.75,1.04-0.03,2.03,0.51,2.95c0.22,0.37,0.47,0.74,0.79,1.01c0.49,0.42,1.03,0.79,1.57,1.14
	c3.76,2.42,4.49,5.99,4.22,10.15c-0.17,2.67-1.31,4.48-3.47,5.84c-3.89,2.44-9.73,2.27-13.49-0.5c-4.06-2.98-6.56-6.94-6.51-12.07
	c0.03-3.3-0.67-6.41-1.33-9.58c-0.43-2.09-1.52-3.69-3.4-4.44c-2.99-1.18-6.02-2.43-9.41-1.21c-3.6,1.29-7.18,0.89-10.78-0.36
	c-3.48-1.2-6.99-2.27-10.22-4.07c-0.36-5.29,0-10.51,1.31-15.66c2.42-2.09,5.26-1.64,8.06-1.28
	c52.69,6.79,101.24,25.07,146.33,52.84C525.94,267.18,529.62,268.3,530.31,272.36z"/>
<path class="st9" d="M530.31,272.36c-8.65-6.53-18.18-11.63-27.65-16.8c-18.63-10.17-37.96-18.83-58.1-25.55
	c-18.04-6.02-36.39-10.93-55.27-13.65c-6.83-0.99-13.59-2.57-20.55-2.47c0.04-4.48,1.08-8.77,2.54-12.97
	c3.02,0.06,6.06-0.26,8.98,0.98c0.76,0.32,1.71,0.3,2.57,0.27c7.38-0.2,14.54,1.53,21.79,2.45c20.24,2.55,39.73,7.97,58.89,14.67
	c13.69,4.79,26.93,10.71,39.66,17.66c11.76,6.43,23.04,13.64,34.12,21.19c10.71,7.3,21.62,14.28,33.18,20.24
	c4.72,2.44,9.83,3.68,14.87,4.12c4.12,0.36,8.53-0.72,12.45-2.81c1.17-0.62,2.44-2.16,4.03-0.6c-0.58,1.16-1.16,2.32-1.74,3.48
	c-0.69,0.19-1.08,0.66-1.22,1.35c-0.7,0.15-1.14,0.56-1.32,1.26c-3,1.76-6,3.52-9.01,5.28c-1.8,0.14-3.62,0.23-5.16,1.36
	c-6.52,0.34-13.02,0.37-19.43-1.1c-10.24-3.88-19.67-9.27-28.65-15.49C533.71,274.15,531.97,273.31,530.31,272.36z"/>
<path class="st15" d="M367.16,248.11c0.38-0.99,0.46-2.27,1.59-2.66c1.8-0.61,3.55-1.97,5.55-1.26c3.02,1.07,6.21,1.47,9.15,3.02
	c4.58,2.44,6.89,6.42,8.43,10.97c1.07,3.17-1.64,9.55-4.57,11.41c-1.45,0.92-3.05,1.6-4.62,2.31c-1.67,0.75-3.31,0.58-4.99-0.18
	c-2.54-1.15-3.03-2.9-1.17-5.04c1.27-1.46,2.75-2.74,4.01-4.21c1.51-1.77,1.31-3.48-0.32-5.14c-1.3-1.33-2.85-1.8-4.67-1.8
	c-2.79,0.01-5.63,0.32-8.17-1.28C366.78,252.22,366.74,250.18,367.16,248.11z"/>
<path class="st11" d="M519.59,191.92c-0.75,4.35-3.3,7.92-5.25,11.73c-1.4,2.74-4.12,3.58-7.08,3.76c-3.14,0.18-6-0.91-8.68-2.22
	c-4.25-2.08-8.42-4.37-12.46-6.84c-4.78-2.92-5.11-6.81-2.09-10.24c2.57-2.92,4.64-6.15,6.95-9.23c1.89,0.09,3.04,1.43,4.35,2.53
	c5.88,4.93,12.3,8.62,20.25,8.85C517.08,190.3,518.6,190.53,519.59,191.92z"/>
<path class="st11" d="M463.72,173.49c0.38,0.51,1.14,1.06,1.09,1.51c-0.44,3.82-0.67,7.72-2.32,11.28
	c-1.32,2.85-3.88,3.97-6.82,4.22c-7.71,0.66-15-1-22.09-3.95c-4.36-1.81-6.68-5.98-3.5-10.45c2.02-2.84,2.19-6.6,4.94-8.95
	c1.78-0.29,3.4,0.31,4.88,1.15C447.3,172.52,455.57,172.73,463.72,173.49z"/>
<path class="st11" d="M588.61,230.93c2.85,6.5,7.51,11.39,13.35,15.32c3.47,2.34,7.21,3.75,11.34,4.17
	c-1.94,3.67-4.6,6.75-7.57,9.61c-2.6,2.5-5.56,3.1-8.93,1.95c-0.2-0.07-0.43-0.08-0.63-0.17c-7.57-3.2-13.14-8.87-18.11-15.12
	c-2.16-2.71-1.67-6.24,1.05-8.04C582.56,236.39,585.19,233.19,588.61,230.93z"/>
<path class="st11" d="M561.23,212.75c0.8,0.84,1.8,1.09,2.92,1.17c1.47,0.1,3.06-0.34,4.67,1.04c-1.07,3.58-2.66,7.09-5.05,10.15
	c-2.59,3.32-7.72,4.48-12.46,2.49c-5.78-2.42-11.49-5.12-16.58-8.85c-3.2-2.35-3.67-5.25-1.47-8.41c1.97-2.83,4.1-5.56,6.17-8.33
	c0.57-0.76,1.4-0.94,2.29-1C548.24,204.91,554.74,208.82,561.23,212.75z"/>
<path class="st8" d="M561.23,212.75c-7.41-1.52-14.41-5.73-19.51-11.74c-0.24-0.6-0.56-1.18-0.7-1.8c-0.54-2.44-0.27-3.41,1.46-4.41
	c2.63-1.52,5.33-2.72,8.55-1.89c1.21,0.31,2.57,0.06,3.86,0.07c8.86-1.93,19.78,6.15,19.48,14.41c-0.8,4.76-1.11,5.07-5.46,5.21
	C566.36,212.7,563.8,212.7,561.23,212.75z"/>
<path class="st16" d="M519.59,191.92c-11.91,0.85-21.17-4.09-28.61-13.03c-0.04-3.93,1.7-6.27,5.79-6.68
	c0.75-0.08,1.44-0.7,2.16-1.07c1.21-1.56,2.87-1.47,4.57-1.25c1.58,0.38,3.16,0.75,4.78,0.95c4.92,1.08,9.04,3.69,12.81,6.87
	c1.82,1.53,3.25,3.42,2.67,6.09C525.3,189.09,524.98,189.71,519.59,191.92z"/>
<path class="st17" d="M463.72,173.49c-1.27,0.25-2.59,0.37-3.81,0.77c-1.7,0.54-3.45,0.77-5.14,0.47
	c-7.05-1.26-13.99-2.91-19.75-7.57c-0.51-1.77-2.38-3.54,0.05-5.28c7.3,1.37,14.71-1.61,22.05,0.64c1.7,0.52,1.86-1.94,2.61-3.13
	l0.37-0.28c3.93-0.23,7.25,0.4,7.58,5.31c0.32,0.78,0.79,1.54,0.95,2.35c0.63,3.13,0.16,3.95-2.77,5.46
	C465.12,172.6,464.43,173.06,463.72,173.49z"/>
<path class="st18" d="M574.39,207.4c-1.55-6.23-6.59-9.21-11.57-12.08c-2.37-1.36-5.06-2.29-7.91-2.33
	c-0.93-0.49-1.87-0.95-2.77-1.49c-0.33-0.2-0.81-0.69-0.75-0.9c0.66-2.09,0.16-4.97,3.45-5.36c7.52,4.91,15.7,7.27,24.72,6.45
	c0.78-0.66,1.9-0.44,2.71-1.03c0.91-0.06,1.82-0.11,2.72-0.17c-0.13,0.47-0.25,0.93-0.38,1.4c-1.38,1.12-1.21,2.69-1.11,4.18
	c0.17,2.46-0.66,4.61-1.58,6.83C580.49,206.38,578.17,208.02,574.39,207.4z"/>
<path class="st18" d="M504.06,171.13c-1.71,0-3.43,0-5.14,0c-0.43-0.04-0.85-0.1-1.28-0.13c-1.19-0.07-2.23-0.36-1.62-1.87
	c0.64-1.58,1.56-3.06,2.16-4.66c0.44-1.18,0.57-2.48,0.84-3.73c2.88,1.83,5.76,3.65,8.98,4.88c5.87,2.24,11.88,3.46,18.19,2.63
	c0.78-0.64,1.91-0.38,2.68-1.05c0.4-0.02,0.8-0.03,1.2-0.05c0.17,3.17-0.29,6.22-0.96,9.35c-0.73,3.44-2.4,5.71-5.36,7.28
	c-3.42-6.36-9.2-9.48-15.77-11.53C506.9,171.09,505.21,172.06,504.06,171.13z"/>
<path class="st19" d="M459.72,159.38c0.39,0.76,0.96,1.48,1.13,2.29c0.52,2.47-0.88,3.96-3.13,3.05c-4.32-1.74-8.78-1.62-13.27-1.55
	c-1.05,0.02-2.18,0.1-3.12,0.51c-1.09,0.47-1.74,2.1-3.25,1.4c-1.39-0.64-2.35-1.82-3.02-3.21c0,0,0.01,0,0.01,0
	c0.44-0.4,0.84-0.83,1.18-1.32c0.09-0.38,0.15-0.76,0.2-1.14c2.77-5.12,6.92-4.72,11.44-2.87
	C451.84,157.48,455.78,158.43,459.72,159.38z"/>
<path class="st20" d="M447.9,156.53c-4.09-0.13-7.99,0.48-11.44,2.87c-0.84-0.65-0.7-1.42-0.3-2.24c0.83-1.73,1.76-3.43,1.57-5.45
	c0.2-0.04,0.42-0.15,0.61-0.12C442.06,152.19,445.36,153.63,447.9,156.53z"/>
<path class="st21" d="M467.67,164.41c-1.78-2.83-4.46-4.38-7.58-5.3c0.55-0.7,1.28-1.12,2.16-1.05c2.79,0.2,5.33-0.92,7.98-1.43
	C470.23,159.5,469.57,162.15,467.67,164.41z"/>
<path class="st17" d="M436.25,160.54c-0.39,0.44-0.78,0.88-1.18,1.32C435.47,161.43,435.86,160.98,436.25,160.54z"/>
<path class="st11" d="M126.69,239.85c-0.01-0.43-0.14-0.82-0.4-1.18c1.04-1.53,2.79-1.94,4.31-2.67c5.5-2.65,10.15-6.38,14.21-10.9
	c1.9-2.11,3.47-4.36,3.97-7.22c0.81,0.21,1.8,0.21,2.4,0.69c1.34,1.06,2.57,2.29,3.7,3.58c5.67,6.47,5.65,12.04-0.69,17.94
	c-4.05,3.78-8.37,7.38-13.22,10.17c-3.86,2.22-6.07,1.68-9.03-1.65c-1.9-2.14-2.24-5.05-3.86-7.3
	C127.62,240.82,127.15,240.33,126.69,239.85z"/>
<path class="st11" d="M212.48,178.79c10.93-0.53,20.62-3.68,27.38-13c3.82,2.93,5.19,7.29,6.35,11.61c0.69,2.56,0,5.12-2.22,7.05
	c-1.46,1.27-2.75,2.71-4.51,3.64c-5.35,2.84-10.82,5.38-16.68,7c-3.97,1.1-6.42,0.12-7.58-3.75
	C213.99,187.26,213.37,182.99,212.48,178.79z"/>
<path class="st11" d="M169.59,202.29c9.31-3.39,17.02-8.62,20.84-18.26c0.96-0.42,2.03-1.24,2.93-0.18c2.37,2.8,5.14,5.43,6.79,8.63
	c1.81,3.51,0.71,7.32-1.96,10.23c-2.92,3.18-5.76,6.49-9.49,8.82c-1.84,1.14-3.68,2.31-5.37,3.65c-1.89,1.5-4.01,1.45-6.18,1.31
	c-1.39-0.09-2.58-0.72-3.22-1.92c-1.73-3.25-3.42-6.53-4.93-9.88C168.73,204.11,169.37,203.1,169.59,202.29z"/>
<path class="st5" d="M582.27,190.66c-0.68,0.93-1.63,1.15-2.71,1.03C580.22,190.71,581.18,190.51,582.27,190.66z"/>
<path class="st5" d="M528.87,167.2c-0.66,0.94-1.6,1.18-2.68,1.06C526.84,167.29,527.79,167.08,528.87,167.2z"/>
<path class="st22" d="M231.13,284.92c-3.79,2.1-7.85,1.7-11.51,2.98c-1.11,0.39-2.61,0.12-3.78-0.27c-2.02-0.69-4.18-1.48-4.52-4.07
	c-0.37-2.85-0.32-5.58,2.33-7.58c3.37-2.55,7.58-2.5,11.2,0.48C227.52,278.64,229.74,281.25,231.13,284.92z"/>
<path class="st23" d="M501.21,173.64c5.52,0.14,10.62,1.44,14.48,5.74c0.55,0.62,0.92,1.43,1.23,2.21c0.13,0.32-0.03,0.89-0.26,1.16
	c-0.19,0.22-0.81,0.33-1.05,0.18c-1.64-1.01-3.17-2.23-4.86-3.14c-1.5-0.8-3.15-1.32-4.76-1.9c-1.46-0.53-3-0.61-4.43-0.05
	c-1.42,0.57-1.17,2.13-1.61,3.3c-0.43,1.14-1.59,1.34-2.6,0.5c-0.82-0.69-1.61-1.42-2.34-2.2c-0.76-0.81-1.27-1.78-0.78-2.92
	c0.6-1.4,1.31-2.79,3.11-2.87C498.63,173.59,499.92,173.64,501.21,173.64z"/>
<path class="st5" d="M504.06,171.13c1.46-0.16,2.91-0.29,3.92,1.12C506.56,172.29,505.09,172.48,504.06,171.13z"/>
</svg>
